<svg width="25" height="24" viewBox="0 0 25 24" fill="none" xmlns="http://www.w3.org/2000/svg">
<path d="M11.6523 20C11.6523 20.5523 12.1001 21 12.6523 21C13.2046 21 13.6523 20.5523 13.6523 20H11.6523ZM13.6523 12C13.6523 11.4477 13.2046 11 12.6523 11C12.1001 11 11.6523 11.4477 11.6523 12H13.6523ZM10.3595 17.2929C9.96893 16.9024 9.33576 16.9024 8.94524 17.2929C8.55471 17.6834 8.55471 18.3166 8.94524 18.7071L10.3595 17.2929ZM13.7837 19.8686L14.4908 20.5757L14.4908 20.5757L13.7837 19.8686ZM16.3595 18.7071C16.75 18.3166 16.75 17.6834 16.3595 17.2929C15.9689 16.9024 15.3358 16.9024 14.9452 17.2929L16.3595 18.7071ZM12.3433 20.5368L12.6523 19.5858V19.5858L12.3433 20.5368ZM12.9614 20.5368L12.6523 19.5858L12.9614 20.5368ZM18.646 7.09873L18.8436 6.11845L18.646 7.09873ZM7.75107 6.00638L6.7708 5.80874L6.7708 5.80874L7.75107 6.00638ZM17.5536 6.00638L16.5733 6.20403V6.20403L17.5536 6.00638ZM6.65873 7.09873L6.46108 6.11845L6.46108 6.11845L6.65873 7.09873ZM19.252 15.6676C18.7459 15.8887 18.5149 16.4782 18.736 16.9843C18.9571 17.4904 19.5466 17.7214 20.0527 17.5003L19.252 15.6676ZM5.25197 17.5003C5.75806 17.7214 6.34758 17.4904 6.5687 16.9843C6.78982 16.4782 6.5588 15.8887 6.05272 15.6676L5.25197 17.5003ZM12.6523 20H13.6523L13.6523 12H12.6523H11.6523L11.6523 20H12.6523ZM9.65234 18L8.94524 18.7071L10.8139 20.5757L11.521 19.8686L12.2281 19.1615L10.3595 17.2929L9.65234 18ZM13.7837 19.8686L14.4908 20.5757L16.3595 18.7071L15.6523 18L14.9452 17.2929L13.0766 19.1615L13.7837 19.8686ZM11.521 19.8686L10.8139 20.5757C11.0002 20.7621 11.1819 20.9449 11.3479 21.0858C11.5227 21.2342 11.7446 21.3938 12.0343 21.4879L12.3433 20.5368L12.6523 19.5858C12.7137 19.6057 12.7225 19.6292 12.6422 19.5611C12.553 19.4854 12.4378 19.3712 12.2281 19.1615L11.521 19.8686ZM13.7837 19.8686L13.0766 19.1615C12.8669 19.3712 12.7517 19.4854 12.6625 19.5611C12.5822 19.6292 12.591 19.6057 12.6523 19.5858L12.9614 20.5368L13.2704 21.4879C13.5601 21.3938 13.782 21.2342 13.9568 21.0858C14.1227 20.9449 14.3045 20.7621 14.4908 20.5757L13.7837 19.8686ZM12.3433 20.5368L12.0343 21.4879C12.436 21.6184 12.8687 21.6184 13.2704 21.4879L12.9614 20.5368L12.6523 19.5858H12.6523L12.3433 20.5368ZM18.646 7.09873L18.4483 8.079C20.2762 8.44755 21.6523 10.0642 21.6523 12H22.6523H23.6523C23.6523 9.09339 21.5865 6.6715 18.8436 6.11845L18.646 7.09873ZM7.75107 6.00638L8.73134 6.20403C9.0999 4.37613 10.7165 3 12.6523 3V2V1C9.74573 1 7.32384 3.0658 6.7708 5.80874L7.75107 6.00638ZM12.6523 2V3C14.5882 3 16.2048 4.37613 16.5733 6.20403L17.5536 6.00638L18.5339 5.80874C17.9808 3.0658 15.559 1 12.6523 1V2ZM2.65234 12H3.65234C3.65234 10.0642 5.02848 8.44755 6.85638 8.079L6.65873 7.09873L6.46108 6.11845C3.71814 6.6715 1.65234 9.09339 1.65234 12H2.65234ZM22.6523 12H21.6523C21.6523 13.6387 20.6668 15.0494 19.252 15.6676L19.6523 16.584L20.0527 17.5003C22.1697 16.5754 23.6523 14.4619 23.6523 12H22.6523ZM5.65234 16.584L6.05272 15.6676C4.6379 15.0494 3.65234 13.6387 3.65234 12H2.65234H1.65234C1.65234 14.4619 3.13498 16.5754 5.25197 17.5003L5.65234 16.584ZM7.75107 6.00638L6.7708 5.80874C6.7412 5.9555 6.60785 6.08886 6.46108 6.11845L6.65873 7.09873L6.85638 8.079C7.79239 7.89028 8.54262 7.14004 8.73134 6.20403L7.75107 6.00638ZM18.646 7.09873L18.8436 6.11845C18.6968 6.08886 18.5635 5.9555 18.5339 5.80874L17.5536 6.00638L16.5733 6.20403C16.7621 7.14005 17.5123 7.89028 18.4483 8.079L18.646 7.09873Z" fill="black"/>
</svg>
