<svg width="25" height="25" viewBox="0 0 25 25" fill="none" xmlns="http://www.w3.org/2000/svg">
<path d="M12.4756 2.625C16.4702 2.625 18.4677 2.62527 19.9062 3.57715C20.5485 4.00213 21.0985 4.55211 21.5234 5.19434C22.4753 6.63293 22.4756 8.6304 22.4756 12.625C22.4756 16.6196 22.4753 18.6171 21.5234 20.0557C21.0985 20.6979 20.5485 21.2479 19.9062 21.6729C18.4677 22.6247 16.4702 22.625 12.4756 22.625C8.48099 22.625 6.48352 22.6247 5.04492 21.6729C4.4027 21.2479 3.85272 20.6979 3.42773 20.0557C2.47585 18.6171 2.47559 16.6196 2.47559 12.625C2.47559 8.6304 2.47585 6.63293 3.42773 5.19434C3.85272 4.55211 4.4027 4.00213 5.04492 3.57715C6.48352 2.62527 8.48099 2.625 12.4756 2.625ZM12.4756 7.44727C9.61656 7.44738 7.29903 9.76502 7.29883 12.624C7.29883 15.4832 9.61644 17.8016 12.4756 17.8018C15.3348 17.8018 17.6533 15.4833 17.6533 12.624C17.6531 9.76495 15.3347 7.44727 12.4756 7.44727ZM12.4756 9.19922C14.3673 9.19922 15.9012 10.7323 15.9014 12.624C15.9014 14.5159 14.3675 16.0498 12.4756 16.0498C10.5838 16.0497 9.0498 14.5158 9.0498 12.624C9.05001 10.7324 10.5839 9.19933 12.4756 9.19922ZM17.8574 5.9707C17.1856 5.9707 16.6406 6.51566 16.6406 7.1875C16.6408 7.85919 17.1857 8.40332 17.8574 8.40332C18.5291 8.4033 19.074 7.85918 19.0742 7.1875C19.0742 6.51567 18.5292 5.97072 17.8574 5.9707Z" fill="#1A1918"/>
</svg>
