<svg width="25" height="25" viewBox="0 0 25 25" fill="none" xmlns="http://www.w3.org/2000/svg">
<path d="M2.47559 5.31416C2.47559 4.67282 2.70082 4.14372 3.15126 3.72686C3.60171 3.30999 4.1873 3.10156 4.90802 3.10156C5.61588 3.10156 6.18858 3.30678 6.62617 3.71724C7.07661 4.14052 7.30184 4.69206 7.30184 5.37188C7.30184 5.98756 7.08306 6.50062 6.64547 6.91108C6.19503 7.33437 5.603 7.54601 4.86941 7.54601H4.8501C4.14225 7.54601 3.56954 7.33437 3.13196 6.91108C2.69437 6.4878 2.47559 5.95549 2.47559 5.31416ZM2.72655 22.1492V9.29685H7.01227V22.1492H2.72655ZM9.38678 22.1492H13.6725V14.9726C13.6725 14.5237 13.724 14.1774 13.8269 13.9337C14.0071 13.4976 14.2806 13.1288 14.6474 12.8274C15.0142 12.526 15.4743 12.3752 16.0277 12.3752C17.4692 12.3752 18.1899 13.3437 18.1899 15.2805V22.1492H22.4756V14.7802C22.4756 12.8819 22.0251 11.4421 21.1242 10.4609C20.2233 9.47963 19.0329 8.98901 17.5528 8.98901C15.8926 8.98901 14.5991 9.70089 13.6725 11.1246V11.1631H13.6532L13.6725 11.1246V9.29685H9.38678C9.41252 9.70729 9.42539 10.9835 9.42539 13.1256C9.42539 15.2677 9.41252 18.2755 9.38678 22.1492Z" fill="#1A1918"/>
</svg>
