<svg width="25" height="25" viewBox="0 0 25 25" fill="none" xmlns="http://www.w3.org/2000/svg">
<g clip-path="url(#clip0_1484_10469)">
<path d="M2.72559 11.875V16.375C2.72559 16.5739 2.64657 16.7647 2.50592 16.9053C2.36526 17.046 2.1745 17.125 1.97559 17.125C1.77667 17.125 1.58591 17.046 1.44526 16.9053C1.3046 16.7647 1.22559 16.5739 1.22559 16.375V11.875C1.22559 11.6761 1.3046 11.4853 1.44526 11.3447C1.58591 11.204 1.77667 11.125 1.97559 11.125C2.1745 11.125 2.36526 11.204 2.50592 11.3447C2.64657 11.4853 2.72559 11.6761 2.72559 11.875ZM4.97559 8.875C4.77667 8.875 4.58591 8.95402 4.44526 9.09467C4.3046 9.23532 4.22559 9.42609 4.22559 9.625V18.625C4.22559 18.8239 4.3046 19.0147 4.44526 19.1553C4.58591 19.296 4.77667 19.375 4.97559 19.375C5.1745 19.375 5.36526 19.296 5.50592 19.1553C5.64657 19.0147 5.72559 18.8239 5.72559 18.625V9.625C5.72559 9.42609 5.64657 9.23532 5.50592 9.09467C5.36526 8.95402 5.1745 8.875 4.97559 8.875ZM7.97559 8.125C7.77667 8.125 7.58591 8.20402 7.44526 8.34467C7.3046 8.48532 7.22559 8.67609 7.22559 8.875V18.625C7.22559 18.8239 7.3046 19.0147 7.44526 19.1553C7.58591 19.296 7.77667 19.375 7.97559 19.375C8.1745 19.375 8.36526 19.296 8.50592 19.1553C8.64657 19.0147 8.72559 18.8239 8.72559 18.625V8.875C8.72559 8.67609 8.64657 8.48532 8.50592 8.34467C8.36526 8.20402 8.1745 8.125 7.97559 8.125ZM10.9756 5.125C10.7767 5.125 10.5859 5.20402 10.4453 5.34467C10.3046 5.48532 10.2256 5.67609 10.2256 5.875V18.625C10.2256 18.8239 10.3046 19.0147 10.4453 19.1553C10.5859 19.296 10.7767 19.375 10.9756 19.375C11.1745 19.375 11.3653 19.296 11.5059 19.1553C11.6466 19.0147 11.7256 18.8239 11.7256 18.625V5.875C11.7256 5.67609 11.6466 5.48532 11.5059 5.34467C11.3653 5.20402 11.1745 5.125 10.9756 5.125ZM21.3668 10.5944C21.0651 8.85303 20.1581 7.27418 18.8058 6.13632C17.4535 4.99845 15.7429 4.37467 13.9756 4.375H13.6006C13.5011 4.375 13.4057 4.41451 13.3354 4.48484C13.2651 4.55516 13.2256 4.65054 13.2256 4.75V19C13.2256 19.0995 13.2651 19.1948 13.3354 19.2652C13.4057 19.3355 13.5011 19.375 13.6006 19.375H19.9015C22.2996 19.375 24.3331 17.5263 24.4681 15.1319C24.5241 14.1394 24.2504 13.1562 23.6894 12.3355C23.1285 11.5148 22.3119 10.9026 21.3668 10.5944Z" fill="#1A1918"/>
</g>
<defs>
<clipPath id="clip0_1484_10469">
<rect width="24" height="24" fill="white" transform="translate(0.475586 0.625)"/>
</clipPath>
</defs>
</svg>
