<?xml version="1.0" encoding="UTF-8"?>
<!-- Generated by Pixelmator Pro 3.7 -->
<svg width="390" height="730" viewBox="0 0 390 730" xmlns="http://www.w3.org/2000/svg">
    <path id="path2" fill="#ff5646" stroke="#ff5646" stroke-width="32" d="M 312.621002 43.381287 C 297.279999 46.167969 283.674011 44.51001 271.804993 38.40741 C 259.934998 32.30481 255.453003 26.585083 258.359985 21.248291 C 261.266998 15.911377 255.373993 14.736877 240.681 17.724792 C 225.988007 20.712585 210.944 23.970398 195.548004 27.498169 C 180.151993 31.026123 167.082001 30.520508 156.339005 25.981506 C 145.595993 21.442627 135.740997 24.841797 126.774002 36.179077 C 117.807999 47.516418 105.807999 51.200928 90.776703 47.232483 C 75.744797 43.264099 62.622799 46.681274 51.410599 57.484131 C 40.198399 68.286804 30.872601 78.368774 23.4331 87.730103 C 15.9937 97.091309 8.44777 103.361023 0.795479 106.541016 C -6.8568 109.719971 -11.7884 118.783997 -13.9994 133.734009 C -16.2103 148.684021 -25.4067 157.942017 -41.588699 161.507996 C -57.770599 165.075012 -63.708401 174.479004 -59.402302 189.721008 C -55.0961 204.963013 -56.1595 216.135986 -62.592499 223.23999 C -69.025398 230.343018 -74.879799 243.778992 -80.155602 263.546997 C -85.431297 283.315002 -82.576698 297.424011 -71.591797 305.873993 C -60.6068 314.324005 -57.2439 324.625 -61.503101 336.774994 C -65.762299 348.925995 -63.746899 359.927002 -55.456902 369.778992 C -47.166901 379.631012 -43.799999 390.335999 -45.3564 401.895996 C -46.9128 413.454987 -42.625702 424.626007 -32.495201 435.408997 C -22.3647 446.191986 -11.6842 454.645996 -0.45359 460.772003 C 10.777 466.89801 18.2868 477.204987 22.0756 491.694 C 25.864401 506.182007 35.2229 512.393982 50.151001 510.329987 C 65.079102 508.265991 74.231598 514.353027 77.608299 528.591003 C 80.9851 542.828979 89.728699 547.583984 103.838997 542.856995 C 117.948997 538.130005 131.906006 537.369019 145.707993 540.573975 C 159.511002 543.778992 173.656006 548.781006 188.145996 555.577026 C 202.634995 562.374023 214.653 559.393982 224.199005 546.638 C 233.746002 533.880981 245.309998 531.515991 258.890015 539.541016 C 272.470001 547.567017 284.674011 545.911987 295.501007 534.578003 C 306.32901 523.244019 315.608002 516.557007 323.337006 514.518982 C 331.066986 512.47998 342.475006 507.697998 357.55899 500.171997 C 372.644012 492.645996 380.949005 482.024994 382.473999 468.30899 C 384 454.592987 391.442993 445.505005 404.803986 441.044006 C 418.164001 436.583008 424.472992 427.509003 423.729004 413.821991 C 422.984985 400.13501 427.078003 387.519989 436.007996 375.977997 C 444.937988 364.436005 450.886993 353.639008 453.852997 343.585999 C 456.820007 333.532013 457.207001 322.973999 455.015015 311.908997 C 452.822998 300.843994 456.665985 287.977997 466.54599 273.312012 C 476.424988 258.644989 474.454987 246.658997 460.63501 237.354004 C 446.813995 228.049011 443.28299 217.669006 450.040009 206.212036 C 456.798004 194.755005 453.712006 183.28302 440.782013 171.794006 C 427.852997 160.304993 415.613007 149.312012 404.063995 138.812988 C 392.514008 128.313965 386.700012 117.658997 386.622009 106.848999 C 386.544006 96.038025 378.105011 91.387024 361.303986 92.895691 C 344.502991 94.404297 336.023987 85.832397 335.868011 67.179993 C 335.710999 48.527527 327.962006 40.594604 312.621002 43.381287 Z"/>
    <path id="path4" fill="#fff8ec" stroke="none" d="M 361.877991 415 L 365.119995 415 C 365.600006 416.588013 366.046997 418.165009 366.225006 419.80899 C 366.509003 422.421997 366.19101 425.071991 366.134003 427.69101 C 366.09201 429.614014 366.259003 431.514008 366.440002 433.427002 C 369.230011 433.339996 372.027008 433.427002 374.816986 433.330994 C 378.091003 433.217987 381.437988 432.769989 384.701996 433.105988 C 384.753998 433.747986 384.894012 434.393005 385 435.028992 C 382.029999 435.028015 379.052002 435.431 376.085999 435.584015 C 372.882996 435.75 369.658997 435.678009 366.453003 435.648987 C 366.686005 442.105011 367.045013 448.539001 367.161987 455 C 366.259003 454.540009 365.362 454.117004 364.414001 453.739014 C 364.303986 450.756989 364.109985 447.778015 363.829987 444.804993 C 363.566986 442.039001 362.890015 439.333008 363.333008 436.566986 C 361.403992 436.666992 359.432007 436.427002 357.496002 436.40799 C 355.026001 436.381989 352.553009 436.55899 350.07901 436.532013 C 348.325989 436.511993 342.278992 436.529999 341.26001 435.191986 C 340.966003 434.806 340.96701 434.174988 341.041992 433.729004 C 344.645996 433.444 349.567993 433.734985 353.359985 433.681 C 357.06601 433.627014 359.165009 433.03299 363.10199 433.425995 C 362.63501 431.432007 362.076996 429.404999 361.770996 427.385986 C 361.209991 423.68399 361.300995 418.695007 361.877991 415 Z"/>
    <path id="path6" fill="#fff8ec" stroke="none" d="M 90.219101 104.187012 C 90.232201 103.697021 90.207397 103.115967 90.383003 102.655029 C 90.510498 102.320007 90.757301 101.953003 91.101501 101.848022 C 91.723701 101.658997 92.517899 102.339966 92.980598 102.708008 L 93.085098 102.695007 C 93.490303 103.640991 93.579201 103.97998 93.305397 105.000977 C 93.371498 105.464966 93.612099 106.776978 93.495399 107.197998 C 93.3517 107.716003 92.884201 107.804016 92.9496 108.437012 C 93.094597 108.601013 93.213402 108.747986 93.3218 108.942017 C 93.3153 109.562012 92.988197 110.190979 92.768402 110.759033 C 93.258301 112.468018 93.074997 114.106018 92.760803 115.830017 C 95.216103 116.089966 101.745003 116.255005 103.612 117.794006 C 103.865997 118.002991 103.934998 118.125 103.977997 118.457031 L 103.847 118.609985 C 103.069 118.898987 102.208 118.820984 101.400002 118.97998 C 98.447701 119.557983 95.9077 120.268005 92.848 119.762024 C 92.757103 122.153992 92.806801 124.564026 92.860199 126.957031 C 92.895203 128.515015 93.037903 130.164978 92.833801 131.710999 C 92.758904 132.276978 92.565102 132.791016 92.363701 133.315979 C 92.584702 134.389038 92.814697 135.434998 93.139198 136.479004 L 92.778702 137.684021 C 93.069 138.481018 93.506897 139.390015 93.399399 140.265015 C 93.362503 140.563965 93.299202 140.684998 93.069702 140.848022 C 92.924202 140.81897 92.814903 140.781982 92.699997 140.677002 C 91.274399 139.377991 91.686401 135.760986 91.415901 133.950989 C 91.318802 133.301025 90.887398 132.749023 90.857498 132.103027 C 90.667801 128.01001 91.016296 123.851013 90.889702 119.742981 C 89.5662 119.513 88.216797 119.617004 86.880699 119.567993 C 85.198799 119.507019 83.515999 119.379028 81.832802 119.36499 C 79.4916 119.346008 77.130402 119.457031 74.792198 119.348999 C 73.963997 119.310974 72.429199 119.120972 71.892303 118.388 C 71.7211 118.153015 71.668404 117.89502 71.743401 117.606995 C 71.918602 116.934998 72.581802 116.655029 73.151802 116.497986 C 74.932198 116.007996 77.5093 116.330017 79.376999 116.330017 C 80.841103 116.330017 82.311798 116.255005 83.774597 116.302002 C 84.443802 116.323975 85.200401 116.521973 85.853104 116.483032 C 86.178101 116.463013 86.6493 116.083984 86.931099 115.903992 C 88.221603 116.174011 89.419403 116.281982 90.721397 116.062988 C 90.696297 114.578003 90.5644 112.976013 90.679703 111.502014 C 90.713402 111.072998 91.0821 110.744019 91.098701 110.384033 C 91.140099 109.487 90.587402 109.700989 90.955299 108.093994 C 90.671204 107.721008 90.395203 107.34198 90.1157 106.964966 C 90.427002 106.580994 90.768799 106.219971 91.097298 105.85199 C 90.718903 105.335999 90.328697 104.846985 90.219101 104.187012 Z"/>
    <path id="path8" fill="#fff8ec" stroke="none" d="M 91.194199 94.320496 C 91.434799 94.175781 91.545898 94.037231 91.8339 94.131409 C 92.219101 94.257202 92.4925 94.750488 92.6558 95.111511 C 92.915703 95.685669 93.041603 96.207397 93.083 96.842896 C 93.084396 96.865967 93.0867 96.888977 93.088303 96.912109 C 93.326797 97.996887 93.683899 101.286987 93.442398 102.302979 L 93.085602 102.695984 L 92.981003 102.708984 C 92.518303 102.339966 91.724098 101.660034 91.101898 101.848999 C 90.757698 101.953003 90.510902 102.320984 90.3834 102.655029 C 90.207802 103.117004 90.232597 103.697998 90.219498 104.187012 C 90.033302 103.468994 90.077698 102.700012 90.123497 101.964966 C 90.101196 101.260986 90.060699 100.541016 90.095901 99.837219 C 90.114098 99.476379 90.142899 99.161804 90.412003 98.909119 C 91.049896 97.36438 90.059097 96.075378 91.194199 94.320496 Z"/>
    <path id="path139" fill="#feae3b" stroke="none" d="M 191.212509 657.677551 C 189.487503 656.03656 187.967514 653.140503 187.116501 650.920532 C 185.955505 647.890503 186.063507 639.294556 186.784515 635.917542 C 187.181503 634.062561 187.962509 632.279541 188.724503 630.551514 C 193.091507 620.643555 204.160507 613.267944 214.740509 611.837341 C 217.024506 611.528625 219.387512 611.652039 221.692505 611.651245 C 224.990509 611.649963 228.293518 611.62915 231.591507 611.673828 C 232.455505 611.685425 236.001511 612.190125 236.485504 611.967346 C 236.550507 611.937439 236.612518 611.902344 236.675507 611.869873 C 239.112518 612.926636 241.452515 616.936523 242.410507 619.356567 C 242.887512 620.561523 243.267517 622.142517 244.361511 622.927551 L 244.636505 622.882568 C 245.337509 621.548523 244.422516 619.877563 244.915512 618.537537 C 245.356506 618.515564 245.868515 618.91156 246.184509 619.202515 C 248.29451 621.142517 249.836517 627.981567 250.94751 628.647522 C 251.712509 627.816528 251.187515 626.094543 252.390518 625.645508 C 253.437515 625.992554 254.234512 627.458557 254.712509 628.405518 C 255.384506 629.737549 257.040497 634.137573 257.894501 634.968567 L 259.370514 635.646545 C 261.472504 637.858521 263.658508 639.642517 266.348511 641.102539 C 274.579498 645.57251 285.607513 646.104553 291.777496 653.90155 C 293.374512 655.918518 294.239502 658.14856 295.329498 660.445557 C 295.600494 660.804565 295.725494 661.188538 295.872498 661.608521 C 298.612518 662.948547 306.357513 666.417542 308.310516 668.41156 L 308.420502 668.793518 C 308.354492 668.896545 308.317505 669.027527 308.222504 669.103516 C 308.05249 669.237549 306.440491 669.708557 306.041504 669.89856 C 303.513489 671.099548 300.77951 671.969543 298.175507 673.008545 C 295.820496 673.949524 293.53949 675.066528 291.227509 676.104553 C 289.8125 677.139526 288.3815 678.296509 286.848511 679.145508 C 282.813507 681.379517 277.742493 681.724548 273.257507 681.029541 C 268.9245 680.357544 264.650513 679.374512 260.2995 678.805542 C 256.455505 678.302551 252.588516 678.221558 248.73851 677.848511 C 246.618515 677.642578 242.555511 676.558533 240.692505 677.639526 L 240.698517 677.938538 L 240.352509 677.338562 C 239.240509 676.738525 238.500519 677.744507 237.409515 677.862549 C 234.829514 678.143555 232.716507 677.921509 230.178513 677.538574 C 230.769516 676.856567 231.619507 676.11853 231.636505 675.163574 C 231.344513 674.941528 231.301514 674.930542 230.936508 674.935547 C 230.090515 674.946533 229.087509 675.333557 228.243515 675.495544 C 227.121506 675.709534 225.982513 675.820557 224.844513 675.913574 C 222.689514 676.088562 221.416519 675.984558 219.729507 674.545532 C 220.089508 674.182556 220.713516 673.667542 220.914505 673.194519 C 221.053513 672.86853 221.051514 672.804565 220.907516 672.491577 C 219.847519 672.08252 218.014511 672.63855 216.838516 672.663574 C 215.610504 672.689575 212.611511 672.444519 211.735504 671.600525 C 211.769516 670.963562 212.690506 670.212524 213.126511 669.760559 L 213.120514 669.417542 C 212.341507 668.816528 208.380508 668.77356 207.052505 668.394531 C 205.93251 668.075562 203.870514 666.85553 203.293503 665.818542 C 203.632507 665.108521 204.446503 664.973511 204.909515 664.318542 C 204.639511 663.106567 200.456512 664.173523 198.553513 662.494507 C 197.62851 661.678528 198.435501 661.086548 198.357513 660.178528 L 197.937515 659.897522 C 195.246506 659.841553 194.323502 658.876526 192.142502 657.688538 C 191.783508 657.492554 191.577515 657.58252 191.212509 657.677551 Z"/>
    <path id="path141" fill="#000000" stroke="none" d="M 257.894501 634.968567 L 259.370514 635.646545 C 261.472504 637.858521 263.658508 639.642517 266.348511 641.102539 C 274.579498 645.57251 285.607513 646.104553 291.777496 653.900513 C 293.374512 655.918518 294.239502 658.147522 295.329498 660.444519 C 295.600494 660.804565 295.725494 661.188538 295.872498 661.607544 C 298.612518 662.94751 306.357513 666.417542 308.310516 668.41156 L 308.420502 668.793518 C 308.354492 668.896545 308.317505 669.027527 308.222504 669.102539 C 308.05249 669.237549 306.440491 669.70752 306.041504 669.897522 C 303.513489 671.098511 300.77951 671.969543 298.175507 673.008545 C 295.820496 673.949524 293.53949 675.065552 291.227509 676.103516 C 289.8125 677.139526 288.3815 678.295532 286.848511 679.145508 C 282.813507 681.379517 277.742493 681.724548 273.257507 681.029541 C 268.9245 680.356567 264.650513 679.374512 260.2995 678.805542 C 256.455505 678.302551 252.588516 678.221558 248.73851 677.847534 C 246.619507 677.642578 242.555511 676.558533 240.692505 677.63855 C 240.625519 677.44751 240.57251 677.203552 240.677505 677.010559 C 240.951508 676.507568 243.899506 674.319519 244.558517 673.652527 C 246.615509 671.570557 247.374512 668.48053 248.135513 665.756531 C 247.574509 664.366577 248.327515 662.47052 248.19751 660.966553 C 248.00351 658.723511 246.696518 656.951538 247.16951 654.604553 C 248.535507 653.60553 249.830505 652.391541 250.98851 651.158569 C 251.495514 650.617554 252.049515 649.632568 252.636505 649.241577 C 252.971512 649.018555 253.434509 649.179565 253.813507 649.236572 L 253.702515 648.849548 C 254.884506 647.065552 256.130493 645.060547 256.752502 642.995544 C 257.193512 641.52655 257.509491 635.484558 257.894501 634.968567 Z"/>
    <path id="path143" fill="#fefefe" stroke="none" d="M 248.135513 665.757568 C 251.774506 666.815552 255.688507 667.249512 259.401489 668.074524 C 264.134491 669.125549 268.921509 669.969543 273.643494 671.035522 C 275.077515 671.359558 276.435516 671.967529 277.862518 672.268555 C 282.565491 673.257568 287.327515 674.053528 292.037506 674.994507 C 291.907501 675.499512 291.581512 675.733521 291.227509 676.104553 C 289.8125 677.139526 288.3815 678.296509 286.848511 679.145508 C 282.813507 681.379517 277.742493 681.725525 273.257507 681.029541 C 268.9245 680.357544 264.650513 679.375549 260.2995 678.806519 C 256.455505 678.303528 252.588516 678.221558 248.73851 677.848511 C 246.619507 677.642578 242.555511 676.55957 240.692505 677.639526 C 240.625519 677.44751 240.57251 677.204529 240.677505 677.011536 C 240.951508 676.507568 243.899506 674.319519 244.558517 673.652527 C 246.615509 671.570557 247.374512 668.481567 248.135513 665.757568 Z"/>
    <path id="path145" fill="#fefefe" stroke="none" d="M 257.894501 634.968567 L 259.370514 635.646545 C 261.472504 637.858521 263.658508 639.642517 266.348511 641.102539 C 274.579498 645.57251 285.607513 646.104553 291.777496 653.900513 C 293.374512 655.918518 294.239502 658.147522 295.329498 660.444519 C 295.161499 660.693542 295.136505 660.700562 294.855499 660.808533 C 292.211517 659.871521 289.365509 659.19751 286.659515 658.445557 C 282.591492 657.313538 278.530518 656.139526 274.448517 655.062561 C 273.145508 654.719543 271.770508 654.486572 270.48349 654.106567 C 269.462494 653.805542 268.519501 653.256531 267.500519 652.940552 C 263.026489 651.552551 258.389496 650.234558 253.813507 649.236572 L 253.702515 648.849548 C 254.884506 647.065552 256.130493 645.060547 256.752502 642.995544 C 257.193512 641.52655 257.509491 635.484558 257.894501 634.968567 Z"/>
    <path id="path147" fill="#fefefe" stroke="none" d="M 284.523499 661.549561 C 285.386505 661.673523 286.060516 661.823547 286.796509 662.30957 C 288.051514 663.137573 288.645508 664.219543 288.94751 665.656555 C 288.820496 666.182556 288.6875 666.727539 288.445496 667.214539 C 287.864502 668.379517 286.853516 669.232544 285.634491 669.652527 C 284.666504 669.718506 283.973511 669.681519 283.094513 669.238525 C 282.070496 668.72052 281.363495 667.897522 281.01651 666.800537 C 280.605499 665.505554 280.895508 664.024536 281.530518 662.850525 C 282.081512 661.833557 283.482513 661.866577 284.523499 661.549561 Z"/>
    <path id="path149" fill="#000000" stroke="none" d="M 284.454498 662.927551 C 284.831512 662.954529 285.204498 663.029541 285.563507 663.15155 C 286.254517 663.392578 286.9245 663.910522 287.225494 664.588562 C 287.489502 665.187561 287.457489 665.839539 287.227509 666.443542 C 286.813507 667.528564 285.90451 667.958557 284.921509 668.39856 C 284.176514 668.233521 283.478516 667.999512 282.763489 667.738525 C 282.558502 667.34552 282.355499 666.951538 282.176514 666.546509 C 281.917511 665.962524 281.791504 665.245544 282.063507 664.644531 C 282.284515 664.155518 282.810516 663.614563 283.317505 663.43457 C 283.718506 663.293518 284.074493 663.11853 284.454498 662.927551 Z"/>
    <path id="path151" fill="#06100b" stroke="none" d="M 297.760498 666.472534 C 298.267517 666.487549 298.685516 666.460571 299.09549 666.790527 C 299.081512 667.468506 297.980499 667.733521 297.838501 668.478516 C 297.718506 669.109558 298.385498 669.076538 298.661499 669.508545 C 297.912506 670.372559 296.530518 669.543518 295.772491 670.109558 C 295.716492 670.150513 295.666504 670.195557 295.612518 670.238525 C 295.359497 670.228516 295.41449 670.227539 295.25351 670.065552 C 295.560516 669.716553 295.770508 669.439575 295.923492 668.997559 C 295.732513 668.448547 295.482513 668.285522 295.057495 667.908569 L 295.084503 667.617554 C 295.508514 667.404541 295.652496 667.512573 296.107513 667.61554 C 296.537506 667.712524 296.78949 667.74054 297.218506 667.617554 C 297.695496 667.212524 297.66449 667.064575 297.760498 666.472534 Z"/>
    <path id="path153" fill="#000000" stroke="none" d="M 187.633514 523.123535 C 188.222504 522.716858 188.848511 522.234192 189.545502 522.037964 C 193.896515 520.813965 205.515503 521.2901 210.144516 522.138428 C 211.524506 522.391296 212.889511 522.735901 214.274506 522.962891 C 215.714508 523.199036 217.181519 523.317871 218.607513 523.631226 C 231.814514 526.533936 245.98851 531.846741 253.930511 543.456055 C 256.656494 547.442139 259.250519 553.843933 260.117493 558.620422 C 260.542511 560.967041 260.648499 563.400024 260.867493 565.773926 C 261.019501 567.439941 261.341492 569.149231 261.349518 570.817627 C 261.363495 573.904236 260.882507 577.044739 260.771515 580.138123 C 260.705505 582.011719 260.768494 583.889404 260.681519 585.761475 C 260.535492 588.897461 260.23349 592.028259 260.044495 595.162109 C 259.953491 596.644409 259.978516 598.142517 259.851501 599.620544 C 259.693512 601.461426 259.287506 603.276917 259.130493 605.120544 C 258.896515 607.890137 259.14151 610.666321 258.9505 613.427063 C 258.776489 615.927734 258.33551 618.397522 258.1185 620.890564 C 257.988495 622.384521 258.080505 623.924561 258.089508 625.422546 C 258.110504 629.298523 258.229492 631.881531 259.370514 635.646545 L 257.894501 634.968567 C 257.040497 634.137573 255.384506 629.737549 254.712509 628.405518 C 254.235504 627.458557 253.437515 625.992554 252.390518 625.645508 C 251.188507 626.094543 251.712509 627.816528 250.94751 628.647522 C 249.836517 627.981567 248.29451 621.142517 246.184509 619.201538 C 245.868515 618.91156 245.357513 618.515564 244.915512 618.537537 C 244.422516 619.877563 245.337509 621.548523 244.636505 622.882568 L 244.361511 622.927551 C 243.267517 622.142517 242.887512 620.561523 242.410507 619.356567 C 241.452515 616.935547 239.112518 612.926514 236.675507 611.869629 C 235.227509 611.104736 233.814514 610.262817 232.328506 609.572266 C 230.922516 608.918335 229.409515 608.451843 227.961517 607.894836 C 225.367508 606.897217 222.848511 605.856018 220.200516 604.988464 C 217.393509 604.068726 212.577515 603.210571 210.171509 601.783569 C 209.783508 599.618652 205.136505 598.681946 208.62851 593.667725 C 209.296509 592.709473 211.005508 592.048706 212.120514 591.858643 C 212.824509 591.738647 213.464508 592.002625 214.146515 591.717224 L 214.119507 591.530518 C 210.241516 589.930359 204.994507 588.235046 203.215515 584.08075 C 202.52951 582.480957 202.614502 580.716064 203.286514 579.126831 C 204.446503 576.38446 207.119507 574.168945 209.676514 572.780762 C 206.466507 573.301636 200.640503 573.911926 197.828506 571.908447 C 197.015503 571.328735 196.620514 570.344543 195.860504 569.73053 C 195.231506 567.751953 195.341507 566.163208 196.316513 564.314575 C 197.699509 561.692017 200.156509 559.257629 202.6035 557.659302 L 202.727509 557.579529 C 199.735504 557.778137 195.856506 558.358521 193.401505 556.217834 C 192.801514 555.694824 192.760513 554.832275 192.102509 554.248901 C 192.362503 550.173218 195.030502 547.119507 197.971512 544.533142 C 199.952515 542.790833 202.005508 541.837158 204.440506 540.93457 C 204.259506 540.402832 203.521515 540.043945 203.041504 539.810669 C 199.778503 538.224426 188.487503 531.541321 187.39151 528.353638 C 187.049515 527.346619 186.797501 526.311523 186.636505 525.260132 C 186.962509 524.546997 187.273514 523.81958 187.633514 523.123535 Z"/>
    <path id="path155" fill="#fefefe" stroke="none" d="M 240.748505 534.59436 C 241.107513 534.598145 241.485504 534.600525 241.83551 534.683716 C 246.558517 535.801453 252.369507 543.987732 254.73851 547.930542 L 253.033508 549.145142 C 252.812515 549.922852 252.500519 550.677856 252.212509 551.433105 C 250.047516 548.747253 247.146515 547.215759 243.751511 546.747925 C 242.677505 547.280457 241.372513 547.479004 240.229507 547.876953 C 239.849518 548.359253 239.523514 548.833862 239.258514 549.390137 C 238.763504 550.427246 238.070511 552.023315 238.480515 553.166626 C 238.598511 553.495056 238.68251 553.830627 238.777512 554.166321 L 238.590515 554.30304 C 236.848511 554.123535 235.161514 553.118347 233.469513 552.660767 C 231.017517 551.997925 228.209518 553.181946 226.088516 554.353455 C 225.520508 555.237427 224.980515 556.150818 224.744507 557.188049 C 224.456512 558.456055 224.675507 559.990112 225.360504 561.100464 L 225.578506 561.413147 C 225.206512 561.816406 224.536514 561.874512 224.017517 562.068604 C 221.533508 562.996033 219.35051 564.024536 218.130508 566.530823 C 217.889511 567.024719 217.784515 567.565857 217.552505 568.066345 L 217.221512 568.069641 C 215.601517 566.78125 214.369507 562.984253 213.498505 561.025269 C 212.868515 559.607727 213.135513 557.676453 213.596512 556.231567 C 214.10051 554.653625 215.676514 552.092773 217.534515 551.914551 C 218.611511 551.81134 219.630508 552.672974 220.696518 552.113647 C 221.665512 550.935242 220.560516 548.332275 220.990509 546.754822 C 221.560516 544.660522 222.818512 543.018311 224.713516 541.95105 C 226.422516 540.98822 229.51651 540.387573 231.412506 540.958618 C 232.244507 541.209229 232.953506 541.752441 233.809509 541.987305 C 234.961517 541.549438 235.098511 538.984009 235.778519 537.877441 C 236.925507 536.007751 238.672516 535.084534 240.748505 534.59436 Z"/>
    <path id="path157" fill="#000000" stroke="none" d="M 191.212509 657.677551 C 191.577515 657.58252 191.783508 657.492554 192.142502 657.688538 C 194.323502 658.876526 195.246506 659.840576 197.937515 659.896545 L 198.357513 660.178528 C 198.435501 661.086548 197.62851 661.678528 198.553513 662.494507 C 200.456512 664.173523 204.639511 663.106567 204.909515 664.318542 C 204.446503 664.972534 203.632507 665.108521 203.293503 665.817505 C 203.870514 666.854553 205.93251 668.074524 207.052505 668.394531 C 208.380508 668.772522 212.341507 668.816528 213.120514 669.417542 L 213.126511 669.760559 C 212.690506 670.211548 211.769516 670.963562 211.735504 671.600525 C 212.611511 672.444519 215.610504 672.688538 216.838516 672.663574 C 218.014511 672.63855 219.847519 672.08252 220.907516 672.491577 C 221.051514 672.803528 221.053513 672.86853 220.914505 673.194519 C 220.713516 673.667542 220.089508 674.181519 219.729507 674.545532 C 221.416519 675.984558 222.689514 676.088562 224.844513 675.912537 C 225.982513 675.820557 227.121506 675.709534 228.243515 675.494507 C 229.087509 675.333557 230.090515 674.946533 230.936508 674.93457 C 231.301514 674.930542 231.344513 674.941528 231.636505 675.163574 C 231.619507 676.11853 230.769516 676.856567 230.178513 677.538574 C 232.716507 677.921509 234.829514 678.143555 237.409515 677.862549 C 238.500519 677.74353 239.240509 676.738525 240.352509 677.338562 L 240.698517 677.938538 C 240.65451 678.338562 240.592514 678.498535 240.362518 678.827515 C 239.396515 679.353516 238.341507 679.427551 237.316513 679.766541 C 235.717514 680.294556 234.16951 681.022522 232.65451 681.75354 C 229.76651 683.145508 227.127518 684.875549 224.411514 686.567505 C 220.801514 688.816528 217.184509 691.069519 213.752518 693.588562 C 210.377518 696.064575 206.361511 699.709534 203.312515 702.616577 C 201.539505 704.308533 199.826508 706.11554 197.953506 707.694519 C 194.55751 710.556519 190.953506 713.511536 187.16951 715.852539 C 182.038513 719.028503 176.594101 721.214539 170.892212 723.099548 C 168.505905 723.889526 166.11261 724.824524 163.685104 725.469543 C 157.493011 727.11554 149.644409 728.062561 143.238708 728.297546 C 139.683609 728.428528 133.906708 728.222534 130.689713 726.727539 C 129.559906 726.200562 128.722107 725.445557 127.821709 724.609558 C 127.494308 723.464539 127.158707 722.346558 127.450905 721.156555 C 127.869804 719.450562 129.536011 718.567505 130.914505 717.718506 C 128.925003 717.696533 126.891808 717.706543 124.956604 717.181519 C 123.295609 716.732544 121.648109 715.831543 120.787903 714.282532 C 119.702103 712.323547 120.084709 709.682556 120.691406 707.635559 C 122.051506 703.047546 127.118103 700.909546 130.978607 698.784546 C 130.240005 697.659546 129.834106 696.636536 129.494812 695.341553 C 129.848999 693.812561 130.676605 692.18457 131.655304 690.958557 C 134.728302 687.106567 142.456406 682.94751 147.141403 681.620544 C 148.310913 681.289551 149.563507 681.190552 150.768402 681.055542 C 149.297913 680.371521 147.531006 679.751526 146.908203 678.111572 C 146.370209 676.695557 146.432907 675.121521 147.082001 673.75354 C 147.842804 672.11554 149.356903 670.698547 150.870102 669.759521 C 154.026306 667.801514 157.646103 666.780518 161.167206 665.719543 C 165.881409 664.289551 170.628311 662.969543 175.404114 661.761536 C 178.916 660.856567 182.429504 660.097534 185.843506 658.84552 C 185.886505 658.873535 185.927505 658.906555 185.973511 658.929565 C 186.924515 659.412537 190.234512 658.117554 191.212509 657.677551 Z"/>
    <path id="path159" fill="#fefefe" stroke="none" d="M 171.788605 663.829529 C 172.008606 663.829529 172.051712 663.86554 172.235504 663.973511 C 172.035706 664.691528 170.695709 665.711548 170.211914 666.415527 C 169.028015 668.136536 168.341507 669.589539 167.416702 671.413574 C 167.828308 672.852539 168.827805 674.396545 169.975204 675.364563 C 172.009811 677.081543 176.074112 678.100525 178.721115 677.881531 C 177.132004 678.831543 175.793106 680.055542 175.215302 681.874512 C 174.836502 683.067505 174.906815 684.400513 175.498413 685.511536 C 177.624207 689.507568 180.598709 687.474548 183.608505 688.373535 C 183.809509 689.070557 182.851501 690.574524 182.82251 691.468506 C 185.327515 695.585571 189.617508 692.93457 191.610504 694.508545 L 191.539505 694.635559 C 191.500504 694.705566 191.464508 694.77655 191.423508 694.844543 C 191.188507 695.239563 191.009506 695.578552 190.922501 696.033569 C 190.703506 697.188538 190.985504 698.461548 191.665512 699.416504 C 193.115509 701.454529 197.504501 702.016541 199.875504 702.058533 C 200.41951 702.068542 200.856506 701.764526 201.380508 701.858521 C 201.389511 702.039551 201.43251 702.096558 201.319504 702.247559 C 199.123505 705.19751 195.026505 707.209534 191.470505 707.710571 C 190.275513 707.879517 188.179504 708.085571 187.159515 707.312561 C 186.602509 707.343506 186.007507 707.38855 185.473511 707.199524 C 184.7285 706.932556 183.984512 706.132568 183.655502 705.428528 C 183.758514 704.790527 184.231506 704.600525 184.651505 704.134521 C 184.987503 703.760559 185.204514 703.506531 185.163513 702.999512 L 184.829514 702.74353 C 183.208511 703.129517 181.681503 703.781555 180.026703 704.044556 C 177.361313 704.466553 172.544907 704.614563 170.363312 702.873535 C 169.924408 702.524536 169.404907 700.717529 169.388214 700.13855 C 169.322113 697.825562 172.461105 696.174561 173.776703 694.654541 C 174.066605 694.319519 174.167206 694.125549 174.129501 693.691528 C 173.276306 693.160522 171.351303 693.905518 170.31871 693.943542 C 169.0466 693.988525 167.621902 693.875549 166.400909 693.50354 C 162.89801 692.433533 162.227905 690.101563 160.705811 687.256531 C 160.821213 686.348511 160.910507 685.39856 161.1884 684.52356 C 161.502701 683.533569 162.179611 682.318542 163.266815 682.041504 C 163.630814 681.949524 164.149414 681.955566 164.464401 681.737549 C 164.838013 681.478516 165.032913 681.192505 165.141312 680.760559 L 164.922714 680.495544 C 164.26001 680.163574 163.655106 680.217529 162.934814 680.24353 L 162.264801 679.424561 C 161.940903 679.325562 161.53981 679.227539 161.253204 679.044556 C 159.597809 677.987549 159.129013 675.018555 158.825912 673.265503 C 162.395004 665.524536 162.126801 667.478516 169.134811 664.798523 C 169.968109 664.479553 170.923309 664.39856 171.660309 663.916504 C 171.703705 663.88855 171.745911 663.858521 171.788605 663.829529 Z"/>
    <path id="path161" fill="#fefefe" stroke="none" d="M 120.310005 541.753662 C 122.392105 540.082336 123.336403 539.526123 126.018906 539.765442 C 128.117111 541.13446 129.869202 543.13501 131.102402 545.307861 C 131.606705 546.196533 131.632111 547.604553 132.505508 548.220459 C 133.303299 547.949463 133.80661 546.325439 134.483902 545.69812 C 135.41391 544.836426 136.980408 545.014832 138.1409 545.104004 C 139.356506 545.902161 140.446503 546.944031 141.2173 548.183716 C 142.238205 549.825256 142.670502 551.659302 143.26561 553.47345 C 144.346603 556.768066 145.732407 561.586426 147.248413 564.621704 C 150.488403 571.108459 153.9841 576.328735 158.942215 581.638672 C 160.9216 583.758667 163.606415 586.156006 166.114014 587.635132 C 168.605804 589.104736 174.669113 589.988525 175.932709 592.30072 C 178.696808 592.646606 183.11351 594.155518 185.909515 594.990417 C 193.536514 597.268066 202.444504 600.321167 210.171509 601.783325 C 212.577515 603.210327 217.393509 604.068542 220.200516 604.98822 C 222.848511 605.855835 225.367508 606.897034 227.961517 607.894653 C 229.409515 608.451721 230.922516 608.918152 232.328506 609.572021 C 233.814514 610.262634 235.227509 611.104553 236.675507 611.869446 C 236.612518 611.901917 236.550507 611.937134 236.485504 611.967041 C 236.001511 612.189758 232.455505 611.68512 231.591507 611.673462 C 228.293518 611.628723 224.990509 611.649658 221.692505 611.650818 C 219.387512 611.651733 217.024506 611.528259 214.740509 611.836914 C 204.160507 613.267517 193.091507 620.643555 188.724503 630.551514 C 187.962509 632.279541 187.181503 634.062561 186.784515 635.917542 C 186.063507 639.294556 185.955505 647.890503 187.116501 650.920532 C 187.967514 653.140503 189.487503 656.03656 191.213501 657.677551 C 190.234512 658.117554 186.924515 659.412537 185.973511 658.929565 C 185.927505 658.905518 185.886505 658.873535 185.843506 658.84552 C 185.192505 657.927551 184.263504 657.113525 183.510513 656.268555 C 182.245514 654.849548 181.077515 653.338562 179.778214 651.950562 C 178.515915 650.602539 177.104706 649.391541 175.826111 648.054565 C 173.700104 645.830566 171.726303 643.454529 169.692612 641.146545 C 167.613602 638.788574 165.464706 636.475525 163.440704 634.069519 C 161.069 631.250549 158.483505 627.281555 156.275314 624.171509 C 155.283615 622.774536 154.360306 621.176514 153.111908 620.000549 C 149.121002 616.57251 146.869904 613.046448 143.559799 609.129456 C 142.48111 607.852966 141.190109 606.769165 140.095413 605.505432 C 138.669403 603.859558 137.384109 602.077942 136.013199 600.384399 C 135.008408 599.143311 133.898407 597.990417 132.907608 596.739502 C 131.104111 594.462158 129.408203 591.985229 127.812706 589.558105 C 123.204308 582.548523 114.771507 565.294861 116.483307 556.917969 C 117.050308 556.527161 117.623306 556.101257 118.305107 555.944702 C 118.376205 555.928467 118.448303 555.914856 118.519508 555.898315 C 119.647308 555.636475 120.502708 556.407104 121.582703 556.602173 C 121.714203 556.228271 121.668503 555.850464 121.585205 555.468506 C 120.884109 552.255737 119.607506 549.36853 119.571205 545.990845 C 119.555305 544.50592 119.909103 543.165955 120.310005 541.753662 Z"/>
    <path id="path163" fill="#000000" stroke="none" d="M 120.310005 541.753662 C 122.392105 540.082336 123.336403 539.526123 126.018906 539.765442 C 128.117111 541.13446 129.869202 543.13501 131.102402 545.307861 C 131.606705 546.196533 131.632111 547.604553 132.505508 548.220459 C 133.303299 547.949463 133.80661 546.325439 134.483902 545.69812 C 135.41391 544.836426 136.980408 545.014832 138.1409 545.104004 C 139.356506 545.902161 140.446503 546.944031 141.2173 548.183716 C 142.238205 549.825256 142.670502 551.659302 143.26561 553.47345 C 144.346603 556.768066 145.732407 561.586426 147.248413 564.621826 C 150.488403 571.108459 153.9841 576.328735 158.942215 581.638672 C 160.9216 583.758667 163.606308 586.156006 166.114014 587.635254 C 168.605804 589.104736 174.669113 589.988525 175.932709 592.30072 C 175.900909 592.311523 175.869812 592.324219 175.837509 592.333252 C 175.011414 592.565918 171.791412 591.173645 170.790512 590.867554 C 168.226913 590.083557 162.04071 588.476746 159.572906 588.54895 C 158.867004 588.569641 157.965607 588.725464 157.552902 589.36377 C 157.307114 589.744019 157.296814 590.101257 157.413315 590.536255 C 158.087509 593.052429 161.178513 595.020264 161.518311 597.068542 L 161.124207 597.369263 C 159.61441 597.104919 158.621902 595.768066 157.36441 594.990356 C 156.193512 594.26593 153.576309 593.335327 152.307312 594.196716 C 151.908203 594.467773 151.694809 594.905151 151.617401 595.37207 C 151.193115 597.931335 155.000412 604.051819 156.393204 606.23291 C 156.812302 606.889465 158.605408 609.191345 158.65451 609.814331 C 158.686111 610.21521 158.59671 610.532227 158.349609 610.82666 C 155.925308 610.547119 152.824509 603.532959 149.316101 606.150818 C 148.812607 606.52655 148.5755 607.049622 148.507813 607.665649 C 147.996002 612.320068 153.239609 617.058533 153.111908 620.000549 C 149.121002 616.57251 146.869904 613.046509 143.559799 609.129456 C 142.48111 607.852966 141.190109 606.769165 140.095413 605.505432 C 138.669403 603.859558 137.384109 602.077942 136.013199 600.384399 C 135.008408 599.143311 133.898407 597.99054 132.907608 596.739502 C 131.104111 594.462158 129.408203 591.985229 127.812706 589.558105 C 123.204308 582.548523 114.771507 565.294861 116.483307 556.917969 C 117.050308 556.527161 117.623306 556.101257 118.305107 555.944702 C 118.376205 555.928467 118.448303 555.914856 118.519508 555.898315 C 119.647308 555.636475 120.502708 556.407104 121.582703 556.602173 C 121.714203 556.228271 121.668503 555.850464 121.585205 555.468506 C 120.884109 552.255737 119.607506 549.36853 119.571205 545.990845 C 119.555305 544.50592 119.909103 543.165955 120.310005 541.753662 Z"/>
    <path id="path348" fill="#000100" stroke="none" d="M 39.227921 -11.039001 C 40.239319 -10.768066 42.189018 -10.450256 43.037121 -10.006104 C 45.042221 -8.956116 47.87492 -7.056274 49.30682 -5.314087 C 51.320919 -2.86377 54.003422 -0.119507 55.53632 2.613708 C 57.36462 5.873779 59.274521 9.00769 60.63002 12.494385 C 61.234718 14.058289 62.366322 15.718384 62.761921 17.443726 C 63.201019 19.196106 63.091518 19.169495 63.997318 20.695801 C 63.804119 22.230713 63.59042 21.988098 64.275719 23.441589 C 64.692017 24.324585 65.014816 25.902527 64.274818 26.720825 C 64.58152 27.014709 64.900917 27.30072 65.160423 27.635803 C 65.055321 28.058899 64.92662 28.602234 64.781418 29.002319 C 64.465919 29.871216 64.478119 30.000305 65.036819 30.672119 C 64.902122 32.214111 64.940117 33.72583 64.833817 35.085815 C 64.690521 36.917603 63.994122 37.576904 64.125221 39.866028 L 63.552921 40.786133 C 63.81152 43.711609 63.093418 43.562805 62.315418 46.070435 C 61.65892 48.186279 60.79702 52.328918 59.313019 54.060303 C 59.437618 55.23938 58.944221 55.970032 58.71122 57.077087 C 58.106319 59.953186 56.138222 62.523987 55.97662 65.466125 C 56.479919 64.959717 57.288921 64.0849 57.844318 63.690918 C 60.890018 61.530212 64.138023 59.178284 65.546722 55.566528 C 66.494621 53.275391 66.528519 52.915283 66.082024 50.388916 L 66.526619 49.692688 C 66.05452 48.601318 66.320419 47.671082 66.29792 46.531006 C 66.281616 45.696411 66.329323 44.930725 66.71312 44.199585 C 67.13282 42.976685 66.724617 41.756836 68.435623 41.166992 C 69.660217 40.616028 70.952316 41.226929 71.342117 41.11261 L 71.325722 41.049988 C 71.188118 40.507385 71.571922 40.177185 71.91362 39.753113 L 71.521019 38.888 C 71.843018 36.840515 72.22802 35.023315 73.707718 33.471802 C 76.986519 32.476807 78.06472 34.47522 80.545219 36.135315 C 81.082817 32.809631 81.858322 31.503418 83.87822 28.876282 C 84.343422 28.949402 84.813316 29.027222 85.278618 29.094604 L 85.958817 28.528809 C 88.87072 29.24823 89.457321 29.593201 91.106018 32.167603 C 91.559624 32.875732 91.855118 33.676636 92.064621 34.497314 C 92.831421 33.817139 94.561523 32.059326 95.64782 32.25592 C 97.444122 32.581116 98.833519 33.493408 99.896423 35.011719 C 101.444122 37.216614 102.446121 40.099609 103.162117 42.691895 C 103.550117 44.097229 103.611122 45.580811 103.90712 46.937317 C 104.376122 49.091125 104.126122 50.736023 104.191116 52.876282 C 104.474121 53.160278 104.507118 53.098328 104.55912 53.416931 C 104.376122 53.638184 104.234123 53.657532 103.953117 53.762512 C 104.100121 54.712891 104.089119 55.686279 103.811119 56.616821 C 103.583122 57.383911 103.317123 57.168335 103.178123 58.108704 C 102.98912 58.497925 102.679123 58.779236 102.339119 59.043518 C 101.57412 59.699829 100.92012 60.37262 100.12262 60.990479 C 99.401817 61.549316 98.46862 61.719238 97.790619 62.154602 C 96.879318 62.73938 96.137016 63.306213 95.172417 63.849182 C 94.035721 64.489319 92.993423 64.931091 91.840523 65.492615 L 84.635719 69.066528 C 83.316521 69.724121 82.576424 69.978821 81.477119 71.019104 C 81.16082 71.318604 79.917519 71.768799 79.539322 72.096497 C 77.941223 73.025696 76.383621 73.987305 74.818718 74.96814 C 72.88652 76.127197 70.83252 77.092285 68.940521 78.315125 C 68.549217 78.568237 68.18882 79.371338 67.96402 79.506287 C 67.238724 79.942017 66.666122 79.500305 66.324921 80.47583 C 66.150017 80.975525 64.812523 81.875122 64.315521 82.28064 C 63.847118 82.564331 63.673119 82.65564 63.295021 83.045105 L 63.045021 83.371521 C 62.776821 83.716797 62.57132 84.0177 62.233521 84.296631 C 61.72242 84.755127 61.23122 85.167297 60.802818 85.707031 C 58.872822 87.822815 56.917019 90.049133 55.63512 92.647095 C 55.495419 92.929077 55.352821 93.187134 55.161621 93.43811 C 55.11182 93.525085 54.987518 93.758118 54.931519 93.82312 C 54.87022 93.898132 54.535721 94.319092 54.520321 94.384094 C 54.236721 95.576111 53.739021 96.636108 53.265621 97.766113 C 53.727821 98.928101 53.765221 101.739136 54.179321 103.305115 C 54.54842 104.700134 55.40012 106.125122 55.709019 107.153076 C 56.879921 108.038086 62.537819 115.464111 62.666519 116.641113 C 63.24802 117.201111 64.547623 119.295105 65.169823 119.516113 C 65.824417 119.424133 69.012222 123.178101 69.51902 123.983093 C 70.22892 125.110107 71.205322 126.156128 71.87912 127.319092 C 73.452019 130.098145 74.649521 133.565125 75.045723 136.734131 C 75.169617 137.725098 75.60582 140.808105 75.224617 141.59314 C 75.24202 141.619141 75.259216 141.645142 75.276917 141.671143 C 76.057716 142.815125 77.343422 143.537109 78.081322 144.753113 C 78.955322 146.194092 79.06852 147.965088 79.63662 149.519104 C 79.937721 150.34314 80.416718 151.125122 80.789223 151.922119 C 81.156723 152.706116 81.444618 153.5271 81.764923 154.332092 C 81.920319 154.722107 82.136917 155.133118 82.233917 155.539124 C 82.312119 155.867126 82.206917 156.332092 82.162422 156.6651 C 80.510323 156.585083 78.638618 156.488098 77.020821 156.172119 C 74.61232 155.69812 71.714417 154.562134 69.329018 153.772095 C 68.565521 154.51709 67.527618 154.548096 66.516418 154.610107 C 66.275017 154.441101 66.027618 154.234131 65.769119 154.095093 C 63.342522 155.520142 59.825119 155.262085 56.907318 155.131104 C 51.59692 154.891113 45.303719 152.972107 41.545422 149.001099 C 40.984718 148.409119 40.099419 147.836121 39.50502 147.248108 C 33.151718 140.956116 28.574619 133.184082 24.292919 125.409119 C 23.852119 124.609131 23.57992 123.697144 23.188919 122.89209 C 19.140221 114.56311 18.097019 105.365112 14.79992 96.782104 C 14.22442 95.284119 13.73222 93.504089 12.95922 92.103088 C 10.92402 88.415588 8.50934 84.942688 6.36672 81.318604 C 4.17438 77.699341 2.14328 73.871399 -0.13777 70.321899 C -2.40264 66.797729 -4.20728 63.148132 -6.72262 59.778198 C -6.71462 59.690125 -6.70592 59.601929 -6.69762 59.513916 C -6.77952 59.608215 -6.76642 59.557007 -6.76092 59.659302 L -6.71052 59.513611 C -6.56869 59.501526 -6.06164 59.553894 -6.08956 59.563599 C -5.42075 59.330994 -5.65521 59.277222 -4.99577 59.42041 C -5.37904 58.41333 -9.94387 54.099609 -10.68157 52.495422 C -12.05247 49.514709 -17.089769 44.852234 -17.454571 41.704712 C -18.47617 40.910889 -20.54067 37.775085 -20.97817 36.418396 C -21.10647 36.020691 -21.11187 31.80304 -20.877171 31.184998 C -20.748871 30.846985 -19.87837 30.732605 -19.452669 30.672485 C -20.02397 29.684631 -21.271971 26.986084 -21.34107 25.961914 C -21.38747 25.27301 -21.395269 23.835327 -21.44047 23.018921 C -20.81497 22.106384 -20.99427 22.450989 -20.951571 21.549988 C -20.01627 21.217285 -19.10807 20.770203 -18.200871 21.395935 C -16.84487 22.330994 -15.10567 25.523987 -14.77147 27.03363 C -14.28667 26.992004 -13.99587 26.974304 -13.52247 26.854797 L -13.43347 26.681335 C -13.74707 26.392517 -13.91917 26.808838 -14.38647 26.657593 C -14.39447 26.338196 -13.61517 24.969604 -12.95087 25.262817 C -12.27617 25.560608 -12.03197 25.731506 -11.52227 26.289795 C -9.13135 28.908936 -7.55265 32.325134 -5.66117 35.282837 C -3.94694 37.762207 -1.89694 39.963684 -0.0024 42.291931 C 2.86283 45.812805 5.21233 49.538635 7.73021 53.280701 L 15.06573 64.260132 C 15.41313 63.169922 15.55013 62.90802 15.41483 61.759888 C 16.90383 58.809204 16.28183 58.802002 19.601431 58.090698 C 19.25993 57.716797 18.71933 57.298096 18.78433 56.737732 C 18.871731 55.983337 18.048429 54.776489 17.78933 54.075317 C 17.375429 52.955627 16.479429 50.445129 16.377529 49.397339 C 16.26803 48.273804 15.53583 42.445313 15.80793 41.758789 C 15.97123 41.711121 15.98483 41.71521 16.126129 41.624329 C 16.08773 41.046387 15.86753 40.47644 15.60603 39.965637 L 16.52853 38.986023 C 16.241631 38.971924 16.200029 38.97998 15.93753 38.878906 C 15.72913 38.449707 16.16563 36.81073 16.279631 36.275635 C 16.924931 35.614929 16.737631 35.397522 17.115231 34.958435 C 17.64613 34.341003 18.05583 33.905823 18.54093 33.223633 C 20.09663 32.808533 21.37883 32.408813 22.84523 33.290527 C 23.140631 33.468201 24.00943 33.89679 24.31003 33.651917 L 24.267731 33.49292 C 23.34613 32.676819 24.021429 32.582336 23.792231 32.096924 C 23.20993 30.863892 23.30283 30.042786 23.09433 28.828735 C 22.793631 27.079895 22.52973 26.479492 22.811131 24.689026 C 22.43923 24.203186 21.84333 23.607117 21.93483 22.979004 C 22.21553 22.726318 22.382429 22.784912 22.820129 22.695679 L 22.85663 22.534302 C 22.47933 21.895996 20.99493 21.878296 22.47863 20.65863 L 22.42613 20.557312 L 22.06213 20.493103 C 21.941429 20.366516 21.83803 18.91394 21.78763 18.534912 C 21.94553 18.275818 22.12483 18.463806 22.47933 18.183533 L 22.39843 18.070435 C 22.22053 18.077393 22.11573 18.027893 21.948231 17.971924 C 21.822531 17.427002 21.682631 17.046021 21.49313 16.518005 L 22.03093 15.522888 C 22.001829 15.219727 22.014931 14.855286 22.017229 14.545837 C 21.828529 13.147888 22.64753 13.866821 22.96093 13.202209 C 22.90703 12.876282 22.75613 12.738098 22.550631 12.475525 C 22.869829 11.977783 22.979231 11.803528 23.192829 11.259094 L 23.25923 10.874512 C 23.529831 9.939819 24.07143 8.881409 24.61903 8.070435 C 24.905729 7.645813 25.14143 7.707703 25.63043 7.646606 C 25.74823 7.47821 25.694229 7.325806 25.64043 7.122925 C 25.360531 6.055481 26.35733 5.93988 27.00823 5.595581 C 29.765631 4.137329 31.397829 5.489929 33.682232 7.279419 C 33.117031 5.41748 33.115829 4.03479 33.085831 2.11322 C 33.057232 0.285583 33.448132 -0.117981 32.726028 -1.863342 C 33.44173 -2.075134 33.49213 -2.095459 33.91983 -2.673035 C 33.54353 -2.691345 33.67543 -2.670044 33.326931 -2.906616 C 33.229328 -3.947754 34.16843 -4.891907 34.548729 -5.881897 C 34.576031 -5.84906 34.806229 -5.005188 35.107929 -4.594727 L 35.188431 -4.487 C 35.124931 -6.071228 34.34103 -6.029602 35.376629 -7.45282 L 36.11673 -8.378174 C 36.27203 -8.56781 36.771729 -9.181335 36.94043 -9.302429 C 38.023529 -10.078796 38.420231 -9.938599 39.22813 -11.039001 Z"/>
    <path id="path350" fill="#fefefe" stroke="none" d="M 65.769119 154.095093 C 63.342522 155.520142 59.825218 155.263123 56.907318 155.131104 C 51.59692 154.891113 45.303719 152.972107 41.545521 149.001099 C 40.984821 148.409119 40.099419 147.837097 39.50502 147.248108 C 33.151718 140.957092 28.574619 133.184082 24.29302 125.410095 C 23.852221 124.610107 23.57992 123.697144 23.18902 122.893127 C 19.140221 114.56311 18.097019 105.365112 14.80002 96.782104 C 14.22452 95.284119 13.73232 93.504089 12.95922 92.103088 C 10.92412 88.416016 8.50938 84.943115 6.36676 81.319031 C 4.17442 77.699707 2.14332 73.871826 -0.13772 70.322205 C -2.40259 66.798096 -4.20724 63.148438 -6.72257 59.778503 C -6.71457 59.690491 -6.70587 59.602295 -6.69757 59.514282 C -6.77947 59.608582 -6.76637 59.557434 -6.76087 59.659729 L -6.71047 59.514038 C -6.56864 59.501892 -6.06159 59.554321 -6.08951 59.564026 C -5.42071 59.331421 -5.65517 59.277588 -4.99573 59.420837 C -3.21884 60.948608 -1.75523 62.535034 -0.36536 64.460327 C 0.03255 65.011536 0.83587 65.072327 1.3453 65.463501 C 2.28755 66.536377 3.05374 67.80542 3.82539 69.002319 C 4.37773 69.859314 4.9837 70.177185 5.179 71.227722 C 6.23601 72.123291 7.34852 74.253235 8.23493 75.342712 C 9.55091 76.960205 10.24389 78.609131 11.34453 80.309814 C 12.94213 82.778503 14.52143 85.248596 16.108629 87.72168 L 18.06093 90.798096 C 18.709129 91.830078 19.740829 93.667114 21.21273 93.866089 C 22.028629 93.977112 21.85323 92.633118 21.79743 92.130127 L 21.265329 91.610107 C 21.130831 90.151123 20.85503 89.281128 20.318029 87.905029 L 20.33213 87.846802 C 20.55843 86.891479 20.393431 86.703979 20.34523 85.794617 C 20.18503 82.764893 19.684231 81.740234 21.572029 79.106934 C 21.901331 78.647522 22.122431 77.866943 22.627831 77.611511 C 23.244631 77.30011 23.81793 77.188477 24.439631 76.842712 C 26.22863 77.729614 26.94693 78.174438 27.358829 80.162109 C 28.294029 81.077698 28.60153 80.881104 29.431629 81.489136 C 29.39703 81.728699 29.363131 81.664124 29.434629 81.844788 L 29.89123 81.740234 C 30.26963 80.718628 29.44223 79.138184 29.41213 78.369324 C 29.33453 76.379883 29.186331 75.148438 29.62903 73.224915 C 29.74873 73.02832 29.83963 73.005798 30.075331 72.916138 L 30.18873 72.873535 C 30.44803 71.981506 30.44083 71.910095 31.037331 71.175781 C 31.24983 68.779541 34.472931 66.143188 36.392731 64.843384 C 39.95533 65.13562 39.995331 64.926697 42.47163 67.806702 C 42.735432 68.113586 43.239929 68.762817 43.399429 69.135742 C 43.808632 70.091736 44.087631 71.059326 44.486931 72.045715 C 44.832932 72.994385 45.29723 73.884888 45.680531 74.815002 C 45.861832 75.25531 45.905731 75.886719 46.074532 76.326721 C 46.625332 77.762329 46.943329 79.23822 47.386028 80.697205 C 46.418732 80.726135 45.398731 80.854919 44.443329 81.017517 C 44.14793 81.756592 44.00563 82.043823 43.588631 82.715332 C 42.208229 80.339844 40.127831 78.861084 37.400829 80.108826 C 36.591431 80.479126 35.95953 83.564819 35.90863 84.393311 C 34.41843 83.542236 33.53363 82.636902 31.79653 83.115479 C 30.744431 83.405396 29.570629 84.114624 29.03533 85.080322 C 28.63063 85.810608 28.62463 86.673706 28.189329 87.631287 L 28.52203 88.227539 C 28.34903 88.824097 28.24663 89.09314 27.989929 89.661133 C 28.10243 90.189087 28.20853 90.705078 28.35033 91.227112 C 28.08013 90.995117 27.81143 90.772095 27.46563 90.667114 C 25.89533 90.190125 24.497231 90.159119 23.401131 91.494141 C 23.293131 92.492126 23.19503 93.378113 22.94293 94.353088 L 23.50613 95.228088 C 23.062429 96.888123 23.597031 97.42511 23.846331 99.01709 C 24.26573 99.506104 24.67503 100.272095 25.279631 100.499084 C 26.003229 100.314087 25.71633 98.914124 25.64123 98.312134 C 25.54623 97.551086 25.620331 96.743103 25.36343 96.048096 C 25.688129 95.428101 25.980129 94.825134 26.70833 94.571106 C 27.029631 94.45813 27.322929 94.442139 27.673929 94.590088 C 29.081829 95.186096 28.95723 100.421143 30.60433 100.01709 C 30.81493 99.966125 30.758129 99.970093 30.89023 99.795105 C 30.96513 98.749084 30.63563 97.839111 30.51193 96.82312 C 30.271931 94.857117 30.336729 93.186096 30.583229 91.226135 C 31.07103 90.847107 31.822929 90.227112 32.328629 89.919128 C 33.357231 89.940125 34.39563 89.886108 35.126228 90.744141 C 36.11153 91.901123 36.59943 92.954102 36.767632 94.427124 C 37.371529 94.416138 37.97393 94.421143 38.57093 94.330078 C 38.060131 92.989136 37.737431 91.92511 37.808128 90.461121 C 37.84203 89.760132 38.13723 88.832092 37.64513 88.268677 C 38.288429 87.049011 38.55233 86.629639 39.695129 85.885925 C 40.132431 85.874634 40.604031 85.853882 41.037731 85.860535 C 42.330231 86.716614 42.57933 87.564941 43.185631 88.923096 C 43.602428 89.857117 44.805828 93.866089 45.97863 93.809082 C 46.69463 93.293091 45.881031 91.782104 45.97863 91.054077 C 46.14053 89.845093 46.599232 88.111938 47.18483 87.022705 C 47.49913 86.572205 48.276329 85.900208 48.694729 85.328613 C 49.696529 87.019226 49.519829 87.78302 49.57143 89.628113 C 49.672729 90.836121 49.71693 92.070129 49.821232 93.276123 C 49.86813 93.819092 50.22813 94.820129 50.367531 95.369141 C 50.751129 96.877136 51.14283 98.331116 51.355831 99.875122 C 51.437531 100.467102 51.778728 101.18512 51.880531 101.791138 C 52.02293 102.485107 51.913029 102.479126 52.226528 103.153076 C 52.497631 103.299133 52.452431 103.223083 52.559029 103.455078 C 52.524529 103.552124 52.482128 103.673096 52.43153 103.816101 C 52.56673 104.496094 53.04723 105.709106 53.31863 106.295105 C 53.943531 107.64209 55.02993 108.921143 55.747829 110.09613 C 57.04763 112.223083 58.192928 113.830078 59.83873 115.705078 C 61.223831 117.283081 62.773331 118.401123 64.150032 119.897095 C 64.486031 120.119141 64.770531 120.376099 65.176933 120.249084 C 65.297928 119.931091 65.230728 119.883118 65.16993 119.516113 C 65.824631 119.424133 69.012329 123.179077 69.519234 123.984131 C 70.229027 125.111084 71.205528 126.156128 71.879227 127.319092 C 73.452133 130.098145 74.649628 133.565125 75.04583 136.734131 C 75.16983 137.725098 75.606033 140.808105 75.224831 141.59314 C 75.242126 141.619141 75.259331 141.646118 75.277031 141.672119 C 76.05793 142.815125 77.343628 143.537109 78.081528 144.754089 C 78.955528 146.194092 79.068733 147.965088 79.636726 149.519104 C 79.937927 150.34314 80.416832 151.126099 80.789429 151.922119 C 81.15683 152.707092 81.444733 153.5271 81.76503 154.332092 C 81.920532 154.722107 82.137032 155.133118 82.234131 155.5401 C 82.312233 155.867126 82.207031 156.332092 82.162628 156.666138 C 80.510529 156.586121 78.638832 156.489136 77.020927 156.172119 C 74.612534 155.699097 71.71463 154.562134 69.329231 153.773132 C 68.565727 154.518127 67.527733 154.548096 66.516533 154.611084 C 66.275131 154.441101 66.027733 154.235107 65.769234 154.095093 Z"/>
    <path id="path352" fill="#000100" stroke="none" d="M 65.169724 119.515137 C 65.824417 119.423096 69.012123 123.178101 69.51902 123.983093 C 70.228821 125.110107 71.205322 126.15509 71.879021 127.319092 C 73.45192 130.097107 74.649422 133.564087 75.045624 136.733093 C 75.169617 137.724121 75.60582 140.807129 75.224617 141.592102 C 75.24192 141.618103 75.259117 141.645142 75.276817 141.671143 C 76.057716 142.814087 77.343422 143.536133 78.081322 144.753113 C 78.955322 146.194092 79.06852 147.964111 79.63652 149.518127 C 79.937721 150.34314 80.416718 151.125122 80.789223 151.921143 C 81.156616 152.706116 81.444618 153.5271 81.764816 154.331116 C 81.920319 154.722107 82.136917 155.13208 82.233917 155.539124 C 82.312119 155.866089 82.206818 156.331116 82.162422 156.6651 C 80.510323 156.585083 78.638618 156.488098 77.020721 156.171143 C 74.61232 155.69812 71.714417 154.561096 69.329018 153.772095 C 68.565521 154.51709 67.527618 154.547119 66.516418 154.610107 C 66.274918 154.441101 66.027519 154.234131 65.769119 154.095093 C 65.05162 153.542114 64.657921 152.766113 64.079521 152.090088 L 58.324421 145.279114 C 57.789719 144.656128 57.164719 144.111084 56.623119 143.490112 C 55.830818 142.582092 55.104622 141.58313 54.27002 140.716125 C 53.39402 139.807129 52.486519 139.057129 51.70602 138.041138 C 51.56892 137.690125 51.448521 137.229126 51.511421 136.855103 C 51.787022 136.680115 52.39402 136.82312 52.733021 136.803101 C 53.733822 136.742126 54.362621 136.148132 55.225922 136.022095 C 55.609322 135.966125 56.013519 136.131104 56.384918 136.010132 C 56.390919 135.932129 56.39592 135.855103 56.405521 135.778076 C 56.478222 135.190125 57.28492 135.256104 57.714821 134.95813 C 59.056019 134.031128 59.31142 132.89209 60.243919 131.793091 C 60.500221 131.491089 60.854519 131.249146 61.171719 131.013123 C 61.217522 129.917114 61.469021 128.826111 61.939621 127.835083 C 62.687119 128.018127 63.138821 128.230103 63.73682 128.719116 C 63.720322 128.035095 64.040222 126.464111 64.125519 125.670105 C 64.347519 123.604126 64.361023 121.949097 64.149818 119.896118 C 64.485817 120.118103 64.770317 120.375122 65.17672 120.248108 C 65.297821 119.931091 65.230522 119.88208 65.169724 119.515137 Z"/>
    <path id="path354" fill="#fefefe" stroke="none" d="M 65.169823 119.515137 C 65.824417 119.423096 69.012123 123.178101 69.51902 123.983093 C 70.22892 125.110107 71.205322 126.15509 71.87912 127.319092 C 73.452019 130.097107 74.649521 133.564087 75.045723 136.733093 C 75.169617 137.724121 75.60582 140.807129 75.224617 141.592102 C 74.665321 140.682129 73.940117 139.9021 73.28212 139.066101 C 72.811821 138.46814 72.408318 137.808105 71.898819 137.243103 C 71.442017 136.736084 70.897324 136.31311 70.444923 135.803101 C 68.27372 133.355103 66.146118 130.939087 63.73682 128.719116 C 63.720322 128.035095 64.040222 126.464111 64.125519 125.670105 C 64.347618 123.604126 64.361023 121.949097 64.149918 119.896118 C 64.485817 120.118103 64.770317 120.375122 65.17672 120.248108 C 65.297821 119.931091 65.230522 119.88208 65.169724 119.515137 Z"/>
    <path id="path356" fill="#fefefe" stroke="none" d="M 69.01252 140.93811 C 69.141922 140.931091 69.272621 140.927124 69.401718 140.940125 C 70.450722 141.047119 71.673721 142.265137 72.318718 143.048096 C 72.312721 144.575073 72.163116 145.694092 71.099319 146.888123 C 70.33992 147.741089 69.431717 148.094116 68.312019 148.154114 C 67.532021 148.015137 66.789818 147.734131 66.172623 147.228088 C 65.49942 146.67511 64.973122 145.838135 64.920219 144.954102 C 64.858521 143.928101 65.503319 142.9021 66.155418 142.160095 C 66.994522 141.205078 67.777519 141.024109 69.01252 140.93811 Z"/>
    <path id="path358" fill="#000100" stroke="none" d="M 68.450722 142.531128 C 69.540619 142.570129 70.18782 142.982117 70.986519 143.686096 C 70.966721 144.303101 71.004517 144.878113 71.106522 145.487122 C 70.78392 145.864136 70.464417 146.26709 70.10762 146.611084 C 69.752419 146.953125 69.407921 147.105103 68.916023 147.105103 C 68.228523 147.042114 67.53302 146.789124 66.983421 146.366089 C 66.513924 146.005127 66.165619 145.522095 66.098022 144.920105 C 66.036919 144.377075 66.191818 143.799072 66.541321 143.375122 C 67.058418 142.747131 67.691521 142.626099 68.450722 142.531128 Z"/>
    <path id="path360" fill="#298d57" stroke="none" d="M 73.098717 151.116089 C 73.246819 151.118103 73.427818 151.112122 73.569717 151.1521 C 74.293823 151.355103 76.176819 152.528076 76.55542 153.150146 L 76.472717 153.286133 C 76.254417 153.287109 76.032623 153.279114 75.825523 153.203125 C 75.091316 152.933105 73.337418 152.034119 72.99382 151.366089 Z"/>
    <path id="path362" fill="#3ab174" stroke="none" d="M 72.360817 152.097107 C 73.026718 152.536133 73.761917 152.746094 74.277618 153.384094 C 74.185417 153.56012 74.111618 153.737122 73.952621 153.863098 C 73.127823 153.531128 72.260323 153.301147 71.393219 153.111084 Z"/>
    <path id="path364" fill="#298d57" stroke="none" d="M 74.277618 153.383118 C 74.98912 153.89209 75.813118 154.222107 76.488319 154.78009 C 75.609619 154.569092 74.773117 154.238098 73.952621 153.863098 C 74.111618 153.736084 74.185318 153.559082 74.277618 153.383118 Z"/>
    <path id="path366" fill="#feae3b" stroke="none" d="M 52.226318 103.1521 C 52.497421 103.299133 52.45232 103.222107 52.558922 103.454102 C 52.524319 103.552124 52.481918 103.672119 52.43132 103.815125 C 52.566521 104.495117 53.04702 105.709106 53.31842 106.294128 C 53.943321 107.64209 55.029819 108.920105 55.74762 110.095093 C 57.047421 112.222107 58.192822 113.830078 59.838619 115.705078 C 61.223721 117.283081 62.773121 118.400085 64.149918 119.896118 C 64.361023 121.950134 64.347519 123.604126 64.125519 125.671143 C 64.040222 126.464111 63.720322 128.035095 63.73682 128.719116 C 63.138821 128.230103 62.687119 128.018127 61.939621 127.835083 C 61.469021 128.826111 61.217522 129.917114 61.171719 131.013123 C 60.854519 131.249146 60.500221 131.491089 60.244019 131.793091 C 59.31142 132.893127 59.056019 134.031128 57.71492 134.959106 C 57.28492 135.256104 56.478222 135.190125 56.405521 135.778076 C 56.395519 135.855103 56.39072 135.933105 56.384918 136.010132 C 56.013618 136.13208 55.609322 135.966125 55.225922 136.022095 C 54.36272 136.148132 53.733921 136.742126 52.733021 136.803101 C 52.394119 136.82312 51.787121 136.681091 51.511421 136.855103 C 51.44862 137.229126 51.56892 137.690125 51.70602 138.042114 C 49.546921 138.034119 48.095921 137.809082 46.226021 136.456116 C 44.44762 135.143127 42.60062 132.831116 42.417919 130.50708 C 42.038319 125.682129 42.901421 120.536133 44.06982 115.855103 C 44.31562 114.870117 44.754421 113.900085 45.044922 112.937134 C 45.90852 110.074097 46.90382 107.186096 48.603321 104.704102 C 49.247921 103.918091 49.985119 102.929077 51.135422 103.098083 C 51.462719 103.146118 51.934021 103.210083 52.226318 103.1521 Z"/>
</svg>
