<?xml version="1.0" encoding="UTF-8" standalone="no"?>
<svg
   width="1440"
   height="780"
   viewBox="0 0 1440 780"
   fill="none"
   version="1.1"
   id="svg113"
   sodipodi:docname="homepage-hero-blob-birds.svg"
   inkscape:version="1.2.2 (b0a84865, 2022-12-01)"
   xmlns:inkscape="http://www.inkscape.org/namespaces/inkscape"
   xmlns:sodipodi="http://sodipodi.sourceforge.net/DTD/sodipodi-0.dtd"
   xmlns="http://www.w3.org/2000/svg"
   xmlns:svg="http://www.w3.org/2000/svg">
  <sodipodi:namedview
     id="namedview115"
     pagecolor="#ffffff"
     bordercolor="#000000"
     borderopacity="0.25"
     inkscape:showpageshadow="2"
     inkscape:pageopacity="0.0"
     inkscape:pagecheckerboard="0"
     inkscape:deskcolor="#d1d1d1"
     showgrid="false"
     inkscape:zoom="0.63446243"
     inkscape:cx="676.16296"
     inkscape:cy="308.92294"
     inkscape:window-width="1419"
     inkscape:window-height="662"
     inkscape:window-x="372"
     inkscape:window-y="1158"
     inkscape:window-maximized="0"
     inkscape:current-layer="svg113" />
  <path
     d="M871.943 28.1205C852.057 31.8265 834.42 29.6215 819.034 21.5057C793.255 3.92997 761.405 -2.527 731.001 4.48C727.411 5.30741 723.806 6.14664 720.186 6.99768C700.229 11.6893 683.287 11.017 669.361 4.98065C655.435 -1.05568 642.661 3.46486 631.038 18.5423C619.415 33.6197 603.861 38.5197 584.376 33.2422C564.89 27.9647 547.881 32.5092 533.347 46.8757C518.813 61.2422 506.725 74.6502 497.081 87.0996C487.438 99.5491 477.656 107.888 467.737 112.116C457.818 116.343 451.425 128.398 448.559 148.28C445.693 168.162 433.772 180.475 412.796 185.217C391.82 189.96 384.123 202.466 389.705 222.736C395.287 243.007 393.909 257.866 385.57 267.313C377.231 276.76 369.643 294.628 362.804 320.917C355.965 347.206 359.665 365.97 373.905 377.208C388.144 388.446 392.503 402.144 386.982 418.304C381.461 434.463 384.074 449.093 394.82 462.195C405.566 475.296 409.93 489.534 407.912 504.907C405.895 520.279 411.452 535.136 424.584 549.476C437.715 563.816 451.56 575.059 466.118 583.206C480.676 591.353 490.41 605.061 495.321 624.329C500.233 643.597 512.364 651.858 531.714 649.113C551.065 646.368 562.929 654.463 567.306 673.397C571.683 692.333 583.017 698.657 601.308 692.37C619.598 686.083 637.689 685.071 655.581 689.334C673.472 693.597 691.809 700.248 710.59 709.287C729.372 718.326 744.95 714.363 757.325 697.398C769.7 680.434 784.69 677.288 802.293 687.961C819.897 698.634 835.716 696.433 849.751 681.36C863.786 666.287 875.814 657.394 885.834 654.683C895.854 651.972 910.64 645.612 930.194 635.604C949.747 625.595 960.513 611.471 962.49 593.23C964.468 574.989 974.116 562.902 991.434 556.969C1008.75 551.036 1016.93 538.969 1015.97 520.767C1015 502.565 1020.31 485.789 1031.88 470.439C1043.46 455.09 1051.17 440.73 1055.02 427.36C1058.86 413.991 1059.36 399.949 1056.52 385.234C1053.68 370.519 1058.66 353.409 1071.47 333.903C1084.27 314.398 1081.72 298.458 1063.81 286.084C1045.89 273.71 1041.31 259.904 1050.07 244.668C1058.83 229.432 1054.83 214.175 1038.07 198.896C1021.31 183.617 1005.45 168.996 990.475 155.034C975.504 141.072 967.968 126.902 967.867 112.525C967.766 98.1483 956.826 91.963 935.048 93.9693C913.27 95.9757 902.279 84.576 902.076 59.7702C901.873 34.9644 891.828 24.4145 871.943 28.1205Z"
     fill="#FF5646"
     id="path2" />
  <path
     d="M968.022 106.414C968.542 108.254 968.817 110.323 968.837 112.519C968.286 126.268 978.986 143.534 991.153 154.308C996.224 159.044 1000.93 163.42 1004.8 167.005C1005.06 167.25 1005.33 167.497 1005.59 167.742C1009.02 170.92 1012.27 173.92 1016.08 177.43C1021.64 182.552 1028.4 188.766 1038.72 198.19C1044.99 204.235 1053.87 212.544 1055.41 226.749C1055.96 233.189 1054.06 239.644 1050.87 245.126C1048.96 248.446 1047.51 252.029 1046.94 255.761C1044.8 268.1 1054.42 278.629 1064.33 285.33C1071.95 290.532 1078.96 298.189 1080.16 307.874C1081.4 317.507 1077.27 326.68 1072.22 334.4C1062.46 349.392 1054.06 367.139 1057.39 385.066C1060.13 399.089 1059.86 413.822 1055.85 427.599C1051.18 443.538 1042.4 457.824 1032.55 470.943C1021.68 485.052 1015.65 502.9 1016.77 520.725C1017.72 532.563 1013.16 545.652 1002.76 552.281C1001.59 553.085 1000.37 553.823 999.09 554.511C996.766 555.761 994.276 556.82 991.687 557.707C976.121 562.081 964.072 577.64 963.271 593.314C962.293 602.934 958.491 611.384 954.041 617.305C947.041 626.672 938.326 632.217 930.524 636.248C919.765 641.728 910.817 645.95 902.68 649.355C897.241 651.622 891.724 653.755 886.005 655.317C871.675 659.749 860.541 671.013 850.209 681.787C838.909 696.007 816.713 699.085 801.986 688.468C794.758 684.047 786.138 681.061 777.797 682.918C769.447 684.701 762.773 690.874 757.782 697.731C748.22 713.376 726.208 719.101 710.355 709.775C698.363 703.999 686.021 698.939 673.352 694.863C667.456 692.966 661.484 691.282 655.459 689.845C637.677 685.499 618.73 686.83 601.476 692.86C598.921 693.738 596.293 694.447 593.617 694.861C587.387 695.916 580.275 694.88 575.458 690.368C570.612 685.946 568.248 679.668 566.799 673.515C564.545 661.454 555.472 649.985 542.702 649.323C539.03 648.938 535.373 649.136 531.79 649.646C521.347 651.34 509.923 649.148 503.31 641.588C498.704 636.573 496.26 630.377 494.733 624.479C492.165 614.371 488.078 605.62 483.068 598.934C478.581 592.872 472.662 587.58 465.804 583.767C449.668 574.782 435.401 562.267 424.127 549.894C419.741 545.103 416.05 540.065 413.289 534.968C411.161 531.051 409.59 527.102 408.572 523.334C406.925 517.334 406.493 510.998 407.312 504.828C409.543 489.717 404.159 474.236 394.376 462.647C394.362 462.629 394.348 462.612 394.333 462.594C393.43 461.482 392.569 460.343 391.734 459.138C384.925 449.685 380.484 434.893 386.482 418.133C389.743 409.125 390.259 396.765 382.403 386.538C380.017 383.31 377.018 380.335 373.578 377.621C363.357 370.083 357.804 355.408 359.086 339.877C359.681 331.181 361.176 325.339 362.333 320.795C363.015 318.214 363.611 316.068 364.181 314.075C364.643 312.46 365.088 310.949 365.547 309.428C367.134 304.198 368.862 298.712 371.285 292.345C374.209 285.087 377.479 276.154 385.187 266.975C386.124 265.917 387 264.757 387.794 263.497C396.4 248.061 391.69 233.141 389.282 222.853C384.073 206.208 391.134 194.09 399.098 189.893C402.88 187.584 406.666 186.22 410.608 185.165C411.273 184.989 411.954 184.822 412.67 184.659C425.302 182.484 441.118 172.239 445.225 159.2C446.345 156.352 447.424 152.587 448.049 148.207C449.73 136.931 453.253 120.709 464.173 113.39C465.165 112.732 466.278 112.114 467.511 111.586C472.875 109.318 479.052 105.305 485.089 99.5963C488.993 95.926 492.867 91.5872 496.617 86.74C500.234 82.0662 504.182 77.2735 508.386 72.4338C517.97 61.4323 526.092 53.1758 532.892 46.4148C541.635 37.7633 550.184 33.6393 557.94 31.7498C561.912 30.791 565.73 30.4033 569.522 30.4195C574.219 30.4368 579.346 31.1409 584.562 32.5542C592.469 34.7096 601.633 35.5619 610.158 32.91C618.458 30.4304 625.459 24.634 630.438 18.0802C635.684 11.2107 642.094 5.58982 648.895 3.16981C655.608 0.641725 663.25 1.39638 669.668 4.27355C685.42 11.1327 703.438 10.1745 720.017 6.28093C723.622 5.4361 727.229 4.59908 730.838 3.77009C738.448 2.02093 746.244 1.09302 754.05 0.999258C772.53 0.681515 789.913 5.6736 801.64 11.1828C813.424 16.7081 819.119 21.4076 819.066 21.4579C818.933 21.6777 813.064 17.2532 801.274 11.9952C789.535 6.74959 772.324 1.96816 754.067 2.30765C746.354 2.41124 738.653 3.33898 731.139 5.07723C727.534 5.91085 723.93 6.75247 720.328 7.60187C703.6 11.5511 685.281 12.5954 669.101 5.58164C661.802 2.26237 653.127 2.14403 646.067 5.99546C640.302 9.00331 635.579 13.7756 631.576 18.9576C621.351 33.7946 601.016 39.3716 584.192 33.9198C566.498 28.4815 546.543 33.9645 533.848 47.3823C532.219 48.9922 530.6 50.6109 528.992 52.2393C517.931 63.4484 507.289 75.104 497.642 87.5342C489.653 97.7608 480.201 107.477 468.013 112.762C465.658 113.762 463.517 115.238 461.677 117.031C459.42 119.225 457.603 121.86 456.114 124.667C452.273 132.046 450.461 140.358 449.288 148.385C447.513 166.335 433.774 179.541 421.671 183.399C418.677 184.535 415.76 185.359 412.971 185.99C402.5 188.286 394.707 193.075 391.31 199.65C388.325 205.307 388.301 211.335 389.198 217.019C389.451 218.582 389.841 220.446 390.42 222.54C390.98 224.571 391.556 226.848 392.083 229.358C393.939 239.18 396.781 255.229 386.14 267.816C375.867 280.063 370.334 297.414 365.593 313.469C364.889 315.935 364.193 318.484 363.508 321.1C360.371 333.186 358.311 347.486 362.562 360.098C364.815 366.873 369.114 372.692 374.283 376.728C386.438 385.681 390.681 399.345 389.836 406.89C389.668 410.756 388.838 414.68 387.535 418.493C381.982 432.841 385.268 450.62 395.255 461.838C395.717 462.403 396.16 462.96 396.602 463.533C408.53 478.249 409.976 495.937 408.464 504.979C408.459 505.017 408.454 505.054 408.45 505.092C407.235 515.865 408.952 525.675 416.122 537.528C418.41 541.227 421.301 545.086 424.98 549.113C429.446 553.991 434.748 559.392 441.432 565.158C450.697 573.123 458.956 578.612 466.357 582.779C470.288 584.987 473.629 587.46 476.514 590.072C486.838 599.716 491.968 610.117 495.755 624.218C496.226 626.051 496.793 627.912 497.508 629.798C501.764 644.495 518.5 651.526 531.642 648.601C536.184 647.953 540.639 647.866 544.73 648.549C552.158 649.529 560.23 654.745 564.114 662.864C565.794 666.13 566.966 669.658 567.806 673.282C569.561 681.071 573.313 689.146 580.279 692.395C587.875 695.844 595.353 693.823 601.166 691.959C601.726 691.769 602.279 691.586 602.826 691.41C604.832 690.764 606.776 690.2 608.67 689.704C615.777 687.812 623.093 686.668 630.449 686.406C631.64 686.358 632.893 686.33 634.201 686.33C640.101 686.334 647.265 686.865 655.697 688.848C656.628 689.068 657.579 689.299 658.545 689.54C673.844 693.397 686.895 698.158 700.265 703.996C703.743 705.523 707.241 707.135 710.8 708.852C717.759 712.19 726.025 714.696 734.801 712.964C743.284 711.424 751.324 704.983 756.922 697.104C757.305 696.576 757.691 696.062 758.08 695.561C762.807 689.407 769.063 684.114 776.106 682.199C783.136 680.195 789.968 681.696 794.9 683.661C797.804 684.811 800.266 686.137 802.551 687.536C803.21 687.94 803.846 688.315 804.506 688.687C804.519 688.694 804.532 688.701 804.545 688.709C804.744 688.821 804.945 688.932 805.144 689.041C819.437 698.02 838.837 693.911 849.377 681.012C855.713 674.225 862.397 667.723 869.956 662.251C871.781 660.934 873.69 659.669 875.639 658.529C878.861 656.647 882.25 655.072 885.685 654.133C892.249 652.306 898.019 649.912 902.236 648.135C907.295 646.01 917.799 641.222 929.88 634.991C934.323 632.71 938.826 629.948 942.977 626.608C953.264 618.688 960.063 606.338 961.424 595.533C961.547 594.732 961.648 593.945 961.734 593.148C962.342 587.552 963.693 582.198 966.15 577.17C968.766 571.806 972.73 566.865 978.159 562.931C980.866 560.96 984.044 559.162 987.587 557.669C988.752 557.177 989.951 556.719 991.201 556.287C993.243 555.582 995.308 554.741 997.352 553.711C1000.24 552.192 1007.49 548.511 1011.87 539.804C1014.53 534.589 1015.68 527.826 1015.28 520.803C1015.28 520.69 1015.27 520.576 1015.26 520.462C1014.18 502.415 1020.35 484.264 1031.31 470.006C1032.08 468.98 1032.84 467.953 1033.59 466.919C1035.92 463.688 1037.83 460.813 1039.29 458.504C1040.33 456.85 1041.2 455.415 1042.06 453.937C1043.22 451.92 1044.4 449.822 1045.93 446.875C1047.12 444.578 1048.45 441.819 1049.29 439.954C1049.69 439.083 1049.98 438.417 1050.25 437.805C1050.56 437.11 1050.83 436.48 1051.13 435.711C1051.35 435.153 1051.57 434.573 1051.84 433.852C1052.25 432.702 1052.79 431.205 1053.51 428.899C1053.7 428.303 1053.88 427.693 1054.05 427.084C1056.44 418.908 1057.67 409.384 1057.27 400.066C1057.07 395.041 1056.46 390.088 1055.55 385.42C1054.42 379.544 1054.64 373.865 1055.39 369.03C1056.78 359.079 1062.44 345.824 1070.23 334.07C1070.38 333.842 1070.53 333.614 1070.68 333.386C1075.88 325.607 1079.41 316.468 1078.41 308.549C1077.63 300.536 1072.11 293.434 1065.65 288.57C1064.86 287.966 1064.09 287.409 1063.28 286.849C1055.88 281.78 1049.45 275.441 1046.62 268.292C1045.99 266.708 1045.34 264.658 1045.05 262.002C1044.85 260.126 1044.85 257.93 1045.24 255.501C1045.85 251.502 1047.39 247.724 1049.38 244.268C1052.56 238.804 1054.33 232.461 1053.64 226.198C1053.6 225.846 1053.55 225.484 1053.49 225.121C1053.49 225.115 1053.49 225.11 1053.49 225.104C1052.46 217.792 1047.48 208.687 1037.43 199.597C1036.18 198.456 1034.9 197.279 1033.58 196.058C1030.51 193.238 1028.6 191.446 1026.88 189.83C1025.18 188.244 1023.67 186.825 1021.44 184.769C1018.9 182.435 1015.9 179.693 1012.62 176.699C1008.02 172.496 1002.9 167.794 997.798 163.023C997.45 162.697 997.077 162.348 996.686 161.982C994.808 160.224 992.471 158.033 989.919 155.631C987.429 153.288 984.842 150.642 982.436 147.841C973.906 138.126 967.154 125.854 967.144 112.53C967.789 103.192 959.899 95.8713 950.86 94.9321C945.711 94.0702 940.365 94.1828 935.111 94.6528C925.956 95.5786 915.37 93.9572 909.087 86.3833C902.862 78.9525 901.564 68.9918 901.442 59.7754C901.459 47.482 898.448 31.4611 884.967 28.6158C880.707 27.6271 876.259 27.9164 872.047 28.6832C859.197 31.1101 846.845 30.715 837.525 28.5821C825.053 25.708 819.013 21.4506 819.061 21.4545C819.168 21.1708 825.34 25.1248 837.707 27.7225C846.954 29.6513 859.12 29.9101 871.816 27.4441C876.13 26.6373 880.737 26.3034 885.264 27.3415C899.799 30.4645 902.817 47.4078 902.826 59.7641C902.931 67.7645 903.996 76.0358 908.204 82.7731C912.315 89.6265 920.307 93.1049 928.208 93.3458C929.724 93.4188 931.217 93.4066 932.734 93.3277C933.485 93.2882 934.216 93.2338 934.973 93.1625C945.292 92.3848 956.635 91.9796 964.334 99.685C966.09 101.582 967.333 103.942 968.022 106.414Z"
     fill="#1A1918"
     id="path4" />
  <path
     d="M1019.17 300.5C1019.6 301.962 1019.99 303.389 1020.15 304.863C1020.43 307.434 1020.11 309.993 1020.06 312.68C1020.01 314.635 1020.18 316.563 1020.36 318.475L1020.41 318.941L1020.88 318.927C1022.26 318.884 1023.65 318.884 1025.05 318.883C1026.45 318.882 1027.85 318.879 1029.26 318.83C1032.46 318.72 1035.58 318.309 1038.67 318.567C1038.71 318.894 1038.77 319.22 1038.83 319.533C1036.04 319.58 1033.19 319.945 1030.48 320.085C1027.3 320.25 1024.1 320.178 1020.88 320.149L1020.36 320.145L1020.38 320.667C1020.6 326.861 1020.93 333.006 1021.06 339.184C1020.49 338.906 1019.92 338.645 1019.32 338.399C1019.22 335.889 1019.07 333.381 1018.85 330.877L1018.75 329.758L1018.7 329.231C1018.64 328.707 1018.57 328.187 1018.5 327.673C1018.4 326.984 1018.31 326.308 1018.24 325.633C1018.09 324.284 1018.04 322.966 1018.25 321.646L1018.35 321.035L1017.73 321.067C1016.79 321.116 1015.84 321.083 1014.86 321.033C1013.9 320.984 1012.9 320.917 1011.92 320.907C1010.68 320.895 1009.43 320.933 1008.2 320.971C1006.96 321.008 1005.73 321.046 1004.51 321.032C1003.62 321.022 1001.69 321.022 999.86 320.858C998.942 320.777 998.066 320.656 997.366 320.479C997.016 320.39 996.723 320.29 996.497 320.182C996.266 320.071 996.139 319.967 996.079 319.889C996.009 319.796 995.954 319.644 995.932 319.432C995.924 319.355 995.922 319.276 995.923 319.197C997.608 319.088 999.557 319.09 1001.54 319.118C1003.69 319.148 1005.88 319.208 1007.79 319.181C1009.66 319.154 1011.14 318.989 1012.6 318.885C1014.06 318.78 1015.54 318.731 1017.47 318.924L1018.17 318.993L1018.01 318.312C1017.54 316.292 1016.99 314.304 1016.69 312.311C1016.16 308.804 1016.22 304.103 1016.73 300.5H1019.17Z"
     fill="#FFF8EC"
     stroke="#FF5646"
     id="path6" />
  <path
     d="M500.729 116.3C501.089 116.197 501.524 116.327 501.972 116.57C502.415 116.811 502.831 117.139 503.151 117.379L503.202 117.417L503.266 117.409L503.291 117.405C503.539 117.956 503.682 118.325 503.729 118.698C503.777 119.091 503.722 119.503 503.537 120.15L503.527 120.184L503.532 120.218C503.579 120.525 503.682 121.083 503.755 121.646C503.791 121.925 503.82 122.199 503.829 122.436C503.839 122.677 503.828 122.861 503.796 122.969C503.71 123.261 503.534 123.422 503.347 123.653C503.256 123.765 503.166 123.892 503.106 124.051C503.047 124.211 503.022 124.396 503.047 124.621L503.052 124.674L503.089 124.713C503.272 124.908 503.418 125.08 503.551 125.295C503.539 125.651 503.436 126.017 503.295 126.387C503.144 126.782 502.967 127.142 502.811 127.523L502.789 127.576L502.806 127.631C503.462 129.785 503.219 131.855 502.791 134.063L502.758 134.234L502.932 134.252C503.771 134.336 504.959 134.411 506.302 134.509C507.646 134.606 509.15 134.725 510.628 134.896C512.106 135.066 513.555 135.287 514.791 135.588C515.877 135.852 516.783 136.174 517.4 136.566L517.646 136.739C517.815 136.87 517.905 136.961 517.964 137.061C518.015 137.147 518.046 137.251 518.073 137.414L517.975 137.521C517.475 137.691 516.947 137.757 516.398 137.803C515.843 137.849 515.259 137.875 514.698 137.979C510.659 138.723 507.229 139.627 503.091 138.982L502.914 138.955L502.907 139.133C502.783 142.209 502.851 145.306 502.924 148.377C502.972 150.393 503.165 152.487 502.889 154.453C502.79 155.157 502.534 155.8 502.259 156.476L502.239 156.521L502.25 156.57C502.548 157.93 502.859 159.263 503.296 160.595L502.82 162.094L502.803 162.147L502.823 162.2C503.026 162.723 503.269 163.254 503.447 163.809C503.625 164.359 503.729 164.906 503.66 165.434C503.636 165.619 503.605 165.728 503.555 165.812C503.512 165.885 503.447 165.951 503.334 166.032C503.184 165.999 503.079 165.958 502.968 165.862C502.512 165.472 502.195 164.899 501.974 164.209C501.752 163.519 501.63 162.724 501.557 161.899C501.483 161.075 501.457 160.229 501.428 159.439C501.398 158.653 501.364 157.917 501.271 157.325C501.2 156.884 501.009 156.477 500.844 156.1C500.674 155.713 500.53 155.353 500.511 154.972C500.382 152.352 500.436 149.709 500.501 147.059C500.566 144.41 500.641 141.752 500.555 139.109L500.551 138.979L500.422 138.958L500.08 138.907C498.371 138.677 496.62 138.789 494.935 138.731C492.65 138.653 490.344 138.489 488.047 138.472C484.842 138.447 481.639 138.589 478.453 138.451C477.894 138.427 477.099 138.354 476.357 138.173C475.607 137.989 474.948 137.703 474.617 137.277C474.413 137.015 474.354 136.735 474.442 136.416C474.548 136.033 474.802 135.757 475.132 135.549C475.464 135.339 475.866 135.204 476.249 135.104C477.441 134.796 478.908 134.741 480.406 134.766C481.154 134.778 481.906 134.81 482.632 134.839C483.357 134.868 484.057 134.894 484.697 134.895C486.706 134.895 488.696 134.798 490.689 134.858C491.136 134.872 491.612 134.941 492.1 135.002C492.583 135.063 493.076 135.116 493.537 135.09C493.801 135.075 494.102 134.928 494.365 134.774C494.501 134.696 494.633 134.61 494.755 134.531C494.856 134.466 494.949 134.406 495.03 134.355C496.777 134.695 498.413 134.831 500.191 134.55L500.328 134.527L500.325 134.39C500.291 132.467 500.112 130.433 500.269 128.552C500.288 128.317 500.405 128.104 500.542 127.867C500.67 127.646 500.826 127.388 500.84 127.111C500.87 126.494 500.675 126.226 500.566 125.922C500.462 125.628 500.393 125.215 500.64 124.201L500.658 124.124L500.609 124.063C500.25 123.62 499.902 123.17 499.548 122.72C499.945 122.268 500.372 121.84 500.794 121.396L500.889 121.297L500.805 121.188C500.284 120.519 499.785 119.929 499.641 119.136C499.649 118.818 499.646 118.492 499.669 118.163C499.692 117.831 499.742 117.516 499.853 117.242C500.02 116.828 500.33 116.414 500.729 116.3Z"
     fill="#FFF8EC"
     stroke="#FF5646"
     stroke-width="0.31821"
     id="path8" />
  <path
     d="M501.284 106.396C501.376 106.359 501.474 106.344 501.637 106.395C501.855 106.462 502.055 106.632 502.232 106.857C502.409 107.08 502.552 107.342 502.661 107.569C502.963 108.198 503.129 108.774 503.202 109.441L503.229 109.733C503.23 109.761 503.234 109.804 503.235 109.823L503.236 109.836L503.239 109.848C503.399 110.533 503.602 111.929 503.723 113.318C503.783 114.012 503.823 114.701 503.827 115.297C503.831 115.872 503.8 116.347 503.729 116.653L503.314 117.083L503.292 117.086C502.985 116.855 502.567 116.532 502.124 116.291C501.661 116.04 501.129 115.855 500.642 115.994C500.102 116.149 499.739 116.678 499.559 117.123C499.517 117.226 499.484 117.334 499.457 117.443C499.461 117.066 499.485 116.686 499.51 116.308L499.511 116.3V116.292C499.48 115.382 499.425 114.469 499.473 113.574C499.498 113.109 499.538 112.77 499.851 112.494L499.876 112.471L499.891 112.438C500.344 111.406 500.218 110.451 500.183 109.525C500.148 108.605 500.196 107.676 500.924 106.603C500.995 106.561 501.06 106.521 501.114 106.487C501.18 106.447 501.233 106.418 501.284 106.396Z"
     fill="#FFF8EC"
     stroke="#FF5646"
     stroke-width="0.31821"
     id="path10" />
  <g
     clip-path="url(#clip0_1293_22701)"
     id="g46">
    <path
       d="M339.152 662.222C336.555 659.753 334.269 655.396 332.988 652.056C331.241 647.497 331.404 634.564 332.49 629.484C333.086 626.693 334.262 624.01 335.408 621.41C341.978 606.503 358.632 595.406 374.55 593.253C377.986 592.789 381.542 592.974 385.01 592.973C389.972 592.971 394.94 592.94 399.902 593.007C401.203 593.025 406.539 593.784 407.266 593.449C407.363 593.404 407.457 593.351 407.553 593.302C411.218 594.892 414.739 600.924 416.181 604.566C416.899 606.38 417.47 608.758 419.116 609.939L419.53 609.872C420.585 607.864 419.208 605.35 419.949 603.334C420.614 603.301 421.383 603.897 421.859 604.334C425.034 607.253 427.353 617.543 429.025 618.545C430.176 617.294 429.387 614.704 431.196 614.029C432.772 614.55 433.971 616.756 434.69 618.18C435.7 620.185 438.192 626.805 439.478 628.055L441.698 629.076C444.861 632.403 448.15 635.087 452.196 637.284C464.58 644.009 481.172 644.81 490.456 656.54C492.859 659.575 494.16 662.93 495.8 666.386C496.207 666.927 496.395 667.505 496.617 668.136C500.739 670.152 512.392 675.372 515.331 678.371L515.495 678.947C515.396 679.102 515.341 679.298 515.197 679.412C514.941 679.614 512.517 680.323 511.917 680.608C508.113 682.415 503.999 683.725 500.081 685.289C496.539 686.704 493.107 688.384 489.628 689.946C487.499 691.503 485.346 693.244 483.04 694.521C476.969 697.883 469.339 698.402 462.592 697.356C456.072 696.345 449.641 694.866 443.095 694.01C437.312 693.254 431.495 693.131 425.702 692.57C422.513 692.26 416.398 690.63 413.595 692.255L413.605 692.705L413.085 691.802C411.411 690.9 410.297 692.413 408.657 692.591C404.775 693.014 401.596 692.68 397.778 692.104C398.666 691.078 399.946 689.968 399.971 688.53C399.531 688.197 399.467 688.179 398.917 688.187C397.644 688.204 396.136 688.787 394.867 689.029C393.178 689.352 391.465 689.519 389.753 689.658C386.509 689.922 384.594 689.766 382.057 687.6C382.598 687.054 383.536 686.279 383.839 685.569C384.049 685.077 384.045 684.98 383.829 684.51C382.234 683.895 379.476 684.732 377.706 684.769C375.859 684.807 371.347 684.44 370.029 683.17C370.08 682.212 371.465 681.081 372.122 680.401L372.112 679.885C370.941 678.981 364.982 678.916 362.984 678.346C361.298 677.866 358.196 676.03 357.327 674.47C357.838 673.402 359.062 673.198 359.759 672.214C359.353 670.39 353.059 671.996 350.196 669.469C348.804 668.241 350.018 667.351 349.901 665.984L349.27 665.561C345.22 665.477 343.832 664.026 340.55 662.238C340.01 661.944 339.701 662.079 339.152 662.222Z"
       fill="#FFAC3E"
       id="path20" />
    <path
       d="M439.477 628.055L441.698 629.075C444.861 632.403 448.149 635.087 452.196 637.284C464.58 644.009 481.172 644.809 490.455 656.54C492.858 659.575 494.159 662.929 495.8 666.385C496.207 666.927 496.395 667.504 496.617 668.135C500.739 670.151 512.392 675.372 515.33 678.371L515.495 678.946C515.396 679.101 515.341 679.298 515.197 679.412C514.941 679.613 512.517 680.322 511.916 680.608C508.113 682.415 503.999 683.724 500.081 685.288C496.539 686.703 493.107 688.383 489.627 689.945C487.498 691.503 485.346 693.243 483.039 694.521C476.969 697.882 469.339 698.402 462.592 697.356C456.072 696.344 449.641 694.866 443.095 694.01C437.312 693.253 431.494 693.131 425.701 692.569C422.512 692.26 416.398 690.629 413.595 692.255C413.494 691.966 413.415 691.6 413.573 691.309C413.985 690.552 418.421 687.26 419.413 686.256C422.507 683.124 423.649 678.476 424.794 674.377C423.95 672.285 425.083 669.432 424.887 667.169C424.596 663.796 422.628 661.13 423.341 657.598C425.396 656.096 427.344 654.269 429.086 652.413C429.85 651.6 430.682 650.118 431.565 649.529C432.071 649.193 432.766 649.436 433.337 649.522L433.17 648.94C434.948 646.256 436.823 643.239 437.758 640.131C438.422 637.921 438.897 628.831 439.477 628.055Z"
       fill="black"
       id="path22" />
    <path
       d="M424.794 674.375C430.269 675.967 436.157 676.62 441.745 677.861C448.865 679.442 456.067 680.712 463.172 682.316C465.329 682.803 467.372 683.719 469.519 684.171C476.595 685.66 483.76 686.857 490.847 688.273C490.651 689.033 490.16 689.385 489.627 689.943C487.498 691.5 485.346 693.241 483.039 694.518C476.969 697.88 469.339 698.399 462.592 697.353C456.072 696.342 449.641 694.864 443.095 694.007C437.312 693.251 431.494 693.128 425.701 692.567C422.512 692.257 416.398 690.627 413.595 692.252C413.494 691.964 413.415 691.598 413.573 691.307C413.985 690.55 418.421 687.257 419.413 686.254C422.507 683.121 423.649 678.473 424.794 674.375Z"
       fill="white"
       id="path24" />
    <path
       d="M439.477 628.055L441.697 629.075C444.86 632.403 448.149 635.087 452.195 637.284C464.579 644.009 481.171 644.809 490.455 656.54C492.858 659.575 494.159 662.929 495.799 666.385C495.546 666.759 495.509 666.77 495.086 666.933C491.108 665.523 486.827 664.509 482.754 663.376C476.634 661.674 470.524 659.907 464.383 658.288C462.422 657.771 460.353 657.42 458.417 656.85C456.881 656.396 455.463 655.57 453.93 655.094C447.198 653.007 440.221 651.023 433.336 649.522L433.17 648.94C434.947 646.256 436.823 643.239 437.758 640.131C438.422 637.921 438.897 628.831 439.477 628.055Z"
       fill="white"
       id="path26" />
    <path
       d="M479.543 668.047C480.841 668.233 481.854 668.459 482.962 669.191C484.85 670.437 485.744 672.065 486.198 674.226C486.008 675.017 485.807 675.838 485.443 676.57C484.568 678.324 483.048 679.607 481.214 680.239C479.757 680.338 478.715 680.282 477.393 679.615C475.852 678.836 474.789 677.598 474.266 675.947C473.647 673.999 474.083 671.771 475.039 670.004C475.867 668.475 477.975 668.524 479.543 668.047Z"
       fill="white"
       id="path28" />
    <path
       d="M479.438 670.117C480.005 670.158 480.566 670.271 481.107 670.455C482.147 670.817 483.155 671.597 483.607 672.617C484.004 673.519 483.957 674.499 483.609 675.408C482.988 677.04 481.619 677.687 480.14 678.348C479.02 678.101 477.97 677.749 476.894 677.355C476.585 676.765 476.28 676.171 476.011 675.563C475.621 674.684 475.431 673.605 475.841 672.701C476.173 671.965 476.964 671.151 477.727 670.881C478.33 670.668 478.866 670.404 479.438 670.117Z"
       fill="black"
       id="path30" />
    <path
       d="M499.457 675.449C500.219 675.473 500.849 675.432 501.465 675.928C501.445 676.949 499.788 677.346 499.574 678.468C499.394 679.418 500.397 679.367 500.812 680.017C499.687 681.317 497.607 680.07 496.466 680.922C496.382 680.983 496.306 681.051 496.226 681.116C495.844 681.101 495.928 681.099 495.685 680.855C496.147 680.33 496.463 679.913 496.693 679.249C496.406 678.422 496.03 678.177 495.39 677.61L495.431 677.172C496.069 676.852 496.286 677.015 496.97 677.169C497.618 677.315 497.997 677.357 498.642 677.173C499.36 676.564 499.313 676.341 499.457 675.449Z"
       fill="#2D2B29"
       id="path32" />
    <path
       d="M333.766 459.776C334.653 459.164 335.593 458.438 336.643 458.143C343.189 456.301 360.671 457.018 367.634 458.294C369.711 458.675 371.765 459.193 373.848 459.535C376.015 459.89 378.223 460.069 380.368 460.54C400.238 464.907 421.564 472.901 433.512 490.367C437.615 496.365 441.517 505.996 442.821 513.183C443.461 516.713 443.62 520.374 443.949 523.946C444.179 526.452 444.662 529.024 444.675 531.534C444.696 536.178 443.973 540.903 443.805 545.557C443.706 548.376 443.8 551.201 443.67 554.018C443.45 558.736 442.996 563.446 442.711 568.162C442.575 570.392 442.612 572.646 442.421 574.87C442.183 577.639 441.572 580.371 441.337 583.145C440.984 587.311 441.353 591.488 441.065 595.642C440.804 599.404 440.141 603.12 439.814 606.872C439.618 609.119 439.757 611.436 439.77 613.69C439.801 619.522 439.981 623.407 441.697 629.072L439.477 628.052C438.192 626.801 435.7 620.181 434.69 618.177C433.971 616.752 432.771 614.547 431.195 614.026C429.387 614.701 430.175 617.291 429.025 618.542C427.353 617.54 425.034 607.25 421.858 604.331C421.383 603.893 420.614 603.298 419.949 603.33C419.207 605.347 420.585 607.861 419.529 609.869L419.116 609.936C417.47 608.755 416.898 606.377 416.181 604.563C414.739 600.921 411.218 594.889 407.552 593.299C405.373 592.148 403.247 590.881 401.012 589.842C398.895 588.858 396.619 588.157 394.44 587.319C390.538 585.818 386.748 584.251 382.764 582.946C378.541 581.562 371.296 580.271 367.675 578.124C367.092 574.867 360.1 573.457 365.354 565.913C366.358 564.471 368.931 563.477 370.608 563.191C371.667 563.011 372.629 563.408 373.656 562.979L373.615 562.698C367.78 560.29 359.887 557.739 357.209 551.489C356.178 549.082 356.305 546.427 357.316 544.036C359.062 539.91 363.084 536.576 366.931 534.488C362.101 535.271 353.335 536.19 349.105 533.175C347.881 532.303 347.287 530.822 346.143 529.899C345.198 526.922 345.362 524.531 346.83 521.75C348.911 517.804 352.607 514.142 356.289 511.737L356.475 511.617C351.974 511.916 346.138 512.789 342.445 509.568C341.542 508.781 341.48 507.483 340.49 506.606C340.881 500.474 344.895 495.879 349.32 491.988C352.301 489.367 355.39 487.932 359.053 486.574C358.781 485.774 357.67 485.234 356.948 484.883C352.039 482.496 335.051 472.441 333.402 467.645C332.888 466.13 332.508 464.573 332.266 462.991C332.756 461.918 333.224 460.823 333.766 459.776Z"
       fill="black"
       id="path34" />
    <path
       d="M413.681 477.035C414.221 477.041 414.789 477.045 415.316 477.17C422.421 478.851 431.164 491.168 434.729 497.1L432.163 498.927C431.83 500.098 431.362 501.233 430.929 502.37C427.671 498.329 423.307 496.025 418.199 495.321C416.582 496.122 414.62 496.421 412.9 497.019C412.328 497.745 411.838 498.459 411.438 499.296C410.694 500.856 409.652 503.258 410.268 504.978C410.445 505.472 410.572 505.977 410.715 506.482L410.434 506.688C407.812 506.418 405.275 504.905 402.728 504.217C399.039 503.22 394.816 505.001 391.623 506.764C390.769 508.094 389.957 509.468 389.602 511.028C389.168 512.936 389.498 515.244 390.529 516.915L390.856 517.385C390.296 517.992 389.289 518.079 388.507 518.371C384.77 519.767 381.487 521.314 379.65 525.085C379.288 525.828 379.13 526.642 378.781 527.395L378.283 527.4C375.845 525.462 373.992 519.749 372.682 516.802C371.734 514.669 372.135 511.763 372.829 509.589C373.587 507.215 375.958 503.362 378.754 503.094C380.374 502.939 381.908 504.235 383.511 503.394C384.969 501.621 383.307 497.704 383.953 495.331C384.811 492.18 386.704 489.709 389.555 488.104C392.126 486.655 396.781 485.751 399.634 486.611C400.886 486.988 401.953 487.805 403.241 488.158C404.974 487.499 405.18 483.64 406.202 481.975C407.928 479.162 410.557 477.773 413.681 477.035Z"
       fill="white"
       id="path36" />
    <path
       d="M339.152 662.221C339.701 662.078 340.01 661.943 340.55 662.238C343.832 664.025 345.22 665.476 349.27 665.561L349.902 665.984C350.019 667.35 348.805 668.241 350.196 669.469C353.059 671.995 359.353 670.389 359.759 672.213C359.062 673.198 357.838 673.402 357.328 674.469C358.196 676.029 361.298 677.865 362.984 678.345C364.982 678.915 370.941 678.98 372.112 679.884L372.123 680.4C371.466 681.08 370.08 682.211 370.029 683.17C371.348 684.439 375.86 684.807 377.706 684.768C379.476 684.731 382.235 683.894 383.829 684.509C384.045 684.98 384.049 685.076 383.839 685.568C383.536 686.279 382.598 687.053 382.057 687.6C384.594 689.765 386.51 689.921 389.753 689.657C391.465 689.518 393.178 689.351 394.867 689.029C396.137 688.786 397.645 688.203 398.917 688.186C399.467 688.179 399.531 688.196 399.971 688.529C399.946 689.967 398.667 691.077 397.778 692.103C401.597 692.679 404.776 693.014 408.657 692.591C410.298 692.412 411.411 690.9 413.085 691.802L413.605 692.705C413.539 693.306 413.446 693.548 413.099 694.043C411.647 694.833 410.06 694.945 408.516 695.455C406.111 696.25 403.783 697.345 401.502 698.445C397.158 700.54 393.187 703.142 389.1 705.688C383.669 709.072 378.228 712.462 373.064 716.251C367.986 719.977 361.943 725.461 357.357 729.834C354.689 732.379 352.112 735.098 349.293 737.474C344.184 741.781 338.761 746.227 333.068 749.748C325.349 754.526 317.157 757.815 308.579 760.652C304.988 761.84 301.387 763.248 297.735 764.218C288.419 766.694 276.61 768.12 266.973 768.473C261.624 768.669 252.932 768.36 248.092 766.11C246.392 765.317 245.132 764.182 243.777 762.923C243.284 761.201 242.779 759.519 243.219 757.729C243.849 755.162 246.356 753.833 248.43 752.556C245.437 752.522 242.378 752.538 239.466 751.748C236.967 751.072 234.489 749.717 233.194 747.386C231.561 744.439 232.136 740.465 233.049 737.385C235.095 730.482 242.718 727.267 248.527 724.069C247.415 722.376 246.805 720.838 246.294 718.888C246.827 716.588 248.072 714.139 249.545 712.294C254.168 706.498 265.796 700.242 272.844 698.245C274.604 697.746 276.489 697.598 278.301 697.394C276.089 696.365 273.431 695.433 272.494 692.965C271.684 690.835 271.778 688.467 272.755 686.408C273.9 683.944 276.178 681.812 278.454 680.399C283.203 677.454 288.649 675.918 293.947 674.321C301.04 672.17 308.182 670.184 315.367 668.367C320.651 667.004 325.937 665.863 331.073 663.978C331.138 664.021 331.2 664.07 331.269 664.105C332.7 664.832 337.679 662.883 339.152 662.221Z"
       fill="black"
       id="path38" />
    <path
       d="M309.927 671.477C310.258 671.476 310.323 671.531 310.599 671.694C310.299 672.773 308.283 674.308 307.555 675.367C305.773 677.957 304.741 680.143 303.349 682.887C303.968 685.052 305.472 687.375 307.199 688.832C310.26 691.415 316.375 692.947 320.357 692.619C317.966 694.048 315.952 695.89 315.082 698.626C314.512 700.42 314.618 702.426 315.508 704.099C318.707 710.11 323.182 707.051 327.71 708.404C328.013 709.453 326.572 711.716 326.528 713.061C330.297 719.254 336.751 715.266 339.75 717.634L339.643 717.825C339.585 717.93 339.53 718.037 339.468 718.139C339.114 718.733 338.845 719.244 338.715 719.929C338.386 721.667 338.81 723.582 339.833 725.018C342.014 728.085 348.618 728.93 352.184 728.993C353.003 729.009 353.662 728.551 354.449 728.692C354.463 728.964 354.527 729.051 354.358 729.278C351.053 733.716 344.89 736.743 339.539 737.497C337.741 737.751 334.587 738.062 333.053 736.898C332.216 736.945 331.32 737.013 330.516 736.728C329.395 736.327 328.276 735.124 327.781 734.064C327.936 733.104 328.648 732.819 329.28 732.117C329.785 731.555 330.112 731.173 330.05 730.409L329.547 730.024C327.109 730.605 324.811 731.586 322.321 731.981C318.311 732.617 311.065 732.84 307.782 730.22C307.122 729.694 306.34 726.976 306.315 726.104C306.216 722.624 310.939 720.141 312.918 717.854C313.354 717.349 313.505 717.059 313.449 716.405C312.165 715.607 309.269 716.726 307.715 716.784C305.801 716.852 303.658 716.682 301.821 716.122C296.551 714.513 295.542 711.004 293.252 706.724C293.426 705.357 293.56 703.927 293.978 702.611C294.451 701.122 295.47 699.293 297.105 698.877C297.653 698.738 298.433 698.748 298.907 698.419C299.469 698.03 299.763 697.6 299.926 696.95L299.597 696.552C298.6 696.051 297.69 696.132 296.606 696.171L295.598 694.939C295.11 694.79 294.507 694.644 294.076 694.368C291.585 692.777 290.88 688.311 290.424 685.673C295.794 674.027 295.39 676.967 305.934 672.934C307.188 672.454 308.625 672.332 309.734 671.608C309.799 671.565 309.863 671.52 309.927 671.477Z"
       fill="white"
       id="path40" />
    <path
       d="M232.475 487.809C235.608 485.295 237.029 484.458 241.065 484.818C244.221 486.878 246.857 489.888 248.713 493.157C249.472 494.494 249.51 496.612 250.824 497.539C252.024 497.131 252.781 494.688 253.8 493.744C255.2 492.447 257.557 492.716 259.303 492.85C261.132 494.051 262.771 495.618 263.931 497.484C265.467 499.953 266.118 502.713 267.013 505.442C268.639 510.399 270.724 517.649 273.005 522.215C277.88 531.975 283.139 539.829 290.599 547.818C293.577 551.008 297.617 554.615 301.389 556.84C305.138 559.051 314.261 560.381 316.162 563.86C320.321 564.38 326.965 566.65 331.172 567.907C342.648 571.333 356.05 575.927 367.676 578.127C371.296 580.274 378.541 581.565 382.764 582.949C386.749 584.254 390.539 585.821 394.441 587.321C396.62 588.16 398.896 588.861 401.012 589.845C403.247 590.884 405.374 592.151 407.553 593.302C407.457 593.351 407.364 593.403 407.266 593.448C406.539 593.784 401.203 593.024 399.903 593.007C394.941 592.94 389.972 592.971 385.01 592.973C381.542 592.974 377.986 592.788 374.55 593.253C358.632 595.405 341.978 606.502 335.408 621.409C334.262 624.01 333.087 626.692 332.49 629.483C331.404 634.563 331.241 647.497 332.989 652.056C334.269 655.396 336.555 659.753 339.152 662.221C337.679 662.884 332.7 664.833 331.269 664.105C331.2 664.07 331.138 664.021 331.073 663.979C330.093 662.598 328.697 661.374 327.563 660.102C325.659 657.968 323.902 655.694 321.948 653.606C320.049 651.577 317.925 649.756 316.002 647.744C312.803 644.398 309.833 640.823 306.774 637.351C303.646 633.802 300.413 630.323 297.367 626.703C293.799 622.461 289.909 616.49 286.587 611.811C285.095 609.709 283.705 607.305 281.827 605.536C275.823 600.378 272.436 595.073 267.455 589.179C265.833 587.259 263.89 585.628 262.243 583.727C260.098 581.25 258.164 578.57 256.101 576.022C254.59 574.155 252.92 572.42 251.429 570.538C248.715 567.112 246.164 563.385 243.763 559.733C236.83 549.187 224.142 523.228 226.718 510.625C227.571 510.037 228.433 509.396 229.459 509.16C229.566 509.136 229.674 509.115 229.781 509.091C231.478 508.697 232.765 509.856 234.39 510.15C234.588 509.587 234.519 509.019 234.394 508.444C233.339 503.61 231.418 499.266 231.364 494.184C231.34 491.95 231.872 489.934 232.475 487.809Z"
       fill="white"
       id="path42" />
    <path
       d="M232.475 487.809C235.608 485.295 237.029 484.458 241.065 484.818C244.221 486.878 246.857 489.888 248.713 493.157C249.472 494.494 249.51 496.612 250.824 497.539C252.024 497.131 252.781 494.688 253.8 493.744C255.2 492.447 257.557 492.716 259.303 492.85C261.132 494.051 262.771 495.618 263.931 497.484C265.467 499.953 266.118 502.713 267.013 505.442C268.639 510.399 270.724 517.649 273.005 522.215C277.88 531.975 283.139 539.829 290.599 547.818C293.577 551.008 297.617 554.615 301.389 556.84C305.138 559.051 314.261 560.381 316.162 563.86C316.114 563.876 316.067 563.895 316.019 563.909C314.776 564.259 309.931 562.164 308.425 561.703C304.568 560.524 295.261 558.106 291.548 558.215C290.486 558.246 289.13 558.48 288.509 559.441C288.139 560.013 288.124 560.55 288.299 561.205C289.313 564.991 293.964 567.951 294.475 571.033L293.882 571.486C291.61 571.088 290.117 569.076 288.225 567.906C286.464 566.816 282.526 565.416 280.617 566.712C280.016 567.12 279.695 567.778 279.579 568.481C278.94 572.331 284.669 581.54 286.764 584.821C287.395 585.809 290.092 589.272 290.166 590.21C290.214 590.813 290.079 591.29 289.708 591.733C286.06 591.312 281.395 580.759 276.116 584.698C275.359 585.263 275.002 586.05 274.9 586.977C274.13 593.98 282.019 601.11 281.827 605.536C275.823 600.378 272.436 595.073 267.455 589.179C265.833 587.259 263.89 585.628 262.243 583.727C260.098 581.25 258.164 578.57 256.101 576.022C254.59 574.155 252.92 572.42 251.429 570.538C248.715 567.112 246.164 563.385 243.763 559.733C236.83 549.187 224.142 523.228 226.718 510.625C227.571 510.037 228.433 509.396 229.459 509.16C229.566 509.136 229.674 509.115 229.781 509.091C231.478 508.697 232.765 509.856 234.39 510.15C234.588 509.587 234.519 509.019 234.394 508.444C233.339 503.61 231.418 499.266 231.364 494.184C231.34 491.95 231.872 489.934 232.475 487.809Z"
       fill="black"
       id="path44" />
  </g>
  <path
     d="m 100.9632,28.8086 c 1.6185,0.4336 4.7387,0.9422 6.0959,1.6529 3.2087,1.6804 7.742,4.7207 10.0335,7.5088 3.2232,3.9213 7.5161,8.313 9.9693,12.6871 2.9259,5.2172 5.9821,10.2324 8.1511,15.8123 0.968,2.5027 2.779,5.1594 3.412,7.9204 0.703,2.8044 0.528,2.7619 1.977,5.2044 -0.309,2.4564 -0.651,2.0681 0.446,4.3943 0.666,1.4131 1.183,3.9381 -0.002,5.2477 0.491,0.4703 1.002,0.928 1.418,1.4643 -0.169,0.6771 -0.375,1.5466 -0.607,2.1869 -0.505,1.3905 -0.485,1.597 0.409,2.6722 -0.216,2.4676 -0.155,4.8871 -0.325,7.0631 -0.23,2.932 -1.344,3.987 -1.134,7.65 l -0.916,1.473 c 0.414,4.681 -0.735,4.443 -1.98,8.456 -1.051,3.386 -2.43,10.016 -4.805,12.787 0.199,1.887 -0.59,3.056 -0.963,4.827 -0.9683,4.603 -4.1179,8.717 -4.3765,13.425 0.8055,-0.81 2.1,-2.21 2.9888,-2.84 4.8737,-3.458 10.0717,-7.222 12.3267,-13.002 1.517,-3.667 1.571,-4.243 0.856,-8.286 l 0.712,-1.114 c -0.756,-1.747 -0.33,-3.235 -0.366,-5.06 -0.026,-1.335 0.05,-2.561 0.664,-3.731 0.672,-1.957 0.019,-3.909 2.757,-4.853 1.96,-0.882 4.027,0.096 4.651,-0.087 l -0.026,-0.1 c -0.22,-0.869 0.394,-1.397 0.941,-2.076 l -0.628,-1.384 c 0.515,-3.277 1.131,-6.185 3.499,-8.668 5.247,-1.5921 6.973,1.606 10.942,4.263 0.86,-5.3224 2.102,-7.4128 5.334,-11.6169 0.744,0.1169 1.497,0.2414 2.241,0.3493 l 1.089,-0.9055 c 4.66,1.1513 5.598,1.7033 8.237,5.8232 0.726,1.1333 1.199,2.4149 1.534,3.7279 1.227,-1.088 3.996,-3.9012 5.734,-3.5865 2.875,0.5205 5.098,1.9805 6.799,4.4105 2.477,3.528 4.081,8.142 5.227,12.29 0.621,2.249 0.718,4.624 1.191,6.794 0.752,3.447 0.351,6.08 0.455,9.505 0.453,0.454 0.506,0.355 0.59,0.865 -0.294,0.354 -0.521,0.385 -0.971,0.553 0.235,1.521 0.217,3.079 -0.226,4.568 -0.366,1.227 -0.791,0.882 -1.014,2.387 -0.303,0.623 -0.798,1.073 -1.342,1.496 -1.224,1.051 -2.272,2.127 -3.548,3.116 -1.153,0.894 -2.647,1.166 -3.732,1.863 -1.458,0.936 -2.646,1.843 -4.19,2.712 -1.819,1.024 -3.487,1.731 -5.332,2.63 l -11.53,5.719 c -2.111,1.053 -3.295,1.46 -5.054,3.125 -0.507,0.479 -2.496,1.2 -3.102,1.724 -2.557,1.487 -5.05,3.026 -7.554,4.596 -3.092,1.855 -6.379,3.399 -9.407,5.356 -0.626,0.405 -1.203,1.69 -1.563,1.906 -1.161,0.698 -2.077,-0.009 -2.623,1.552 -0.28,0.8 -2.42,2.239 -3.216,2.888 -0.749,0.454 -1.028,0.6 -1.633,1.224 l -0.4,0.522 c -0.429,0.553 -0.758,1.034 -1.298,1.48 -0.818,0.734 -1.604,1.394 -2.29,2.258 -3.089,3.385 -6.2186,6.948 -8.2701,11.105 -0.2234,0.453 -0.4518,0.864 -0.7578,1.267 -0.0795,0.139 -0.2784,0.513 -0.3681,0.616 -0.0981,0.121 -0.6335,0.793 -0.658,0.897 -0.454,1.908 -1.2504,3.604 -2.0079,5.412 0.7395,1.86 0.7994,6.359 1.4621,8.865 0.5907,2.233 1.9537,4.512 2.448,6.158 1.8738,1.417 10.9288,13.3 11.1348,15.184 0.93,0.897 3.01,4.248 4.006,4.601 1.047,-0.148 6.149,5.861 6.96,7.149 1.136,1.804 2.698,3.477 3.777,5.338 2.517,4.448 4.433,9.996 5.067,15.067 0.199,1.586 0.897,6.52 0.287,7.776 0.027,0.042 0.055,0.084 0.083,0.126 1.25,1.83 3.307,2.985 4.488,4.932 1.399,2.305 1.58,5.139 2.489,7.626 0.482,1.319 1.249,2.571 1.845,3.845 0.588,1.256 1.049,2.57 1.561,3.857 0.249,0.625 0.595,1.283 0.751,1.933 0.125,0.524 -0.044,1.268 -0.115,1.802 -2.644,-0.128 -5.639,-0.283 -8.228,-0.79 -3.854,-0.758 -8.492,-2.576 -12.309,-3.84 -1.222,1.193 -2.883,1.241 -4.501,1.341 -0.387,-0.271 -0.783,-0.601 -1.196,-0.824 -3.884,2.28 -9.513,1.868 -14.1821,1.657 -8.4984,-0.383 -18.5695,-3.455 -24.584,-9.81 -0.8973,-0.947 -2.3142,-1.864 -3.2654,-2.805 -10.1673,-10.068 -17.4921,-22.507 -24.3442,-34.948 -0.7054,-1.281 -1.1411,-2.741 -1.7667,-4.029 -6.4793,-13.329 -8.1488,-28.05 -13.4251,-41.785 -0.921,-2.397 -1.7087,-5.246 -2.9458,-7.488 -3.2569,-5.901 -7.1213,-11.459 -10.5501,-17.258 -3.5085,-5.792 -6.75891,-11.918 -10.40933,-17.599 -3.62452,-5.639 -6.512538,-11.48 -10.53788,-16.873 0.01335,-0.141 0.0267,-0.282 0.04005,-0.423 -0.13106,0.151 -0.11008,0.069 -0.10136,0.233 l 0.08065,-0.233 c 0.22698,-0.02 1.03842,0.064 0.99374,0.08 1.0703,-0.373 0.69509,-0.459 1.75041,-0.229 -0.61336,-1.612 -7.91854,-8.515 -9.09918,-11.083 -2.1938,-4.77 -10.2552,-12.231 -10.839,-17.268 C 8.6179,111.945 5.314,106.927 4.6139,104.756 4.4086,104.119 4.3999,97.3697 4.7755,96.3806 4.9809,95.8398 6.3739,95.6567 7.0552,95.5605 6.1409,93.9795 4.1437,89.661 4.0332,88.022 3.9588,86.9196 3.9463,84.6188 3.874,83.3122 4.875,81.852 4.5881,82.4035 4.6564,80.9615 c 1.4969,-0.5324 2.9502,-1.2479 4.4021,-0.2466 2.17,1.4965 4.9532,6.6063 5.4882,9.0221 0.7758,-0.0665 1.2412,-0.0948 1.9987,-0.2861 l 0.1425,-0.2776 c -0.502,-0.4622 -0.7774,0.2041 -1.5252,-0.0379 -0.012,-0.5112 1.2344,-2.7014 2.2974,-2.2322 1.0798,0.4766 1.4705,0.7502 2.2863,1.6436 3.82621,4.1913 6.35264,9.6584 9.37962,14.3912 2.743332,3.968 6.02399,7.491 9.05588,11.217 4.5853,5.635 8.3452,11.597 12.3747,17.586 l 11.7392,17.571 c 0.5559,-1.745 0.7752,-2.164 0.5586,-4.002 2.3829,-4.722 1.3875,-4.733 6.7,-5.872 -0.5466,-0.598 -1.4117,-1.268 -1.3076,-2.165 0.1398,-1.207 -1.1777,-3.138 -1.5924,-4.26 -0.6624,-1.792 -2.0962,-5.81 -2.2594,-7.487 -0.1752,-1.798 -1.3469,-11.125 -0.9114,-12.224 0.2613,-0.076 0.2831,-0.07 0.5092,-0.215 -0.0615,-0.925 -0.4139,-1.837 -0.8324,-2.655 l 1.4763,-1.567 c -0.4591,-0.023 -0.5256,-0.01 -0.9458,-0.172 -0.3335,-0.686 0.3651,-3.309 0.5474,-4.166 1.0327,-1.057 0.733,-1.405 1.3374,-2.108 0.8496,-0.988 1.5052,-1.684 2.2814,-2.776 2.4897,-0.6643 4.5417,-1.3038 6.8883,0.1071 0.4728,0.2849 1.8633,0.9699 2.3442,0.5789 l -0.0676,-0.255 c -1.4749,-1.3059 -0.3943,-1.4571 -0.761,-2.234 -0.9319,-1.9733 -0.7831,-3.2872 -1.1169,-5.2302 -0.4812,-2.7987 -0.9036,-3.7594 -0.4532,-6.6248 -0.5951,-0.7774 -1.5487,-1.7314 -1.4024,-2.7365 0.4493,-0.4044 0.7163,-0.3107 1.4169,-0.4535 l 0.0583,-0.2583 C 74.1599,81.5152 71.7844,81.4869 74.1588,79.5351 L 74.0749,79.373 73.4923,79.2703 c -0.1932,-0.2028 -0.3586,-2.5273 -0.4392,-3.1338 0.2526,-0.4148 0.5395,-0.1139 1.1068,-0.5624 l -0.1295,-0.181 C 73.7457,75.4043 73.5781,75.325 73.31,75.2354 73.1089,74.3634 72.8849,73.7536 72.5817,72.9087 l 0.8607,-1.5924 c -0.0466,-0.4853 -0.0256,-1.0684 -0.022,-1.5638 -0.3019,-2.237 1.0087,-1.0866 1.5103,-2.1501 -0.0864,-0.5215 -0.3278,-0.7428 -0.6567,-1.163 0.5109,-0.7964 0.6859,-1.0754 1.0278,-1.9466 l 0.1063,-0.6155 c 0.433,-1.4959 1.2997,-3.1896 2.176,-4.4875 0.4589,-0.6795 0.836,-0.5803 1.6186,-0.6782 0.1885,-0.2694 0.1021,-0.5133 0.0158,-0.8381 -0.448,-1.7082 1.1471,-1.8932 2.1888,-2.4442 4.4128,-2.3337 7.0248,-0.1692 10.6807,2.6946 -0.9047,-2.9796 -0.9066,-5.1924 -0.9545,-8.2675 -0.0458,-2.9248 0.5798,-3.5706 -0.5758,-6.3638 1.1453,-0.3389 1.2259,-0.3714 1.9104,-1.2958 -0.6022,-0.0293 -0.391,0.0044 -0.9488,-0.3737 -0.1561,-1.6663 1.3466,-3.1771 1.9553,-4.7615 0.0436,0.0525 0.412,1.4031 0.8948,2.0599 l 0.1289,0.1724 c -0.1016,-2.5353 -1.3561,-2.4686 0.3011,-4.7463 l 1.1845,-1.4808 c 0.2485,-0.3036 1.0482,-1.2853 1.3182,-1.4791 1.7333,-1.2425 2.3682,-1.0181 3.6611,-2.7791 z"
     fill="#000100"
     id="path48" />
  <path
     d="m 143.438,293.078 c -3.884,2.28 -9.513,1.868 -14.1821,1.657 -8.4983,-0.383 -18.5695,-3.455 -24.5839,-9.809 -0.8973,-0.948 -2.3142,-1.864 -3.2654,-2.806 -10.1673,-10.068 -17.4922,-22.507 -24.3442,-34.948 -0.7055,-1.281 -1.1412,-2.741 -1.7668,-4.028 -6.4793,-13.33 -8.1488,-28.051 -13.4251,-41.785 -0.9209,-2.398 -1.7087,-5.247 -2.9457,-7.488 -3.257,-5.902 -7.1213,-11.459 -10.5502,-17.259 -3.5084,-5.792 -6.75886,-11.918 -10.40927,-17.598 -3.62453,-5.64 -6.512545,-11.481 -10.53789,-16.874 0.01335,-0.141 0.0267,-0.282 0.04005,-0.423 -0.13106,0.151 -0.11008,0.069 -0.10136,0.233 l 0.08065,-0.233 c 0.22698,-0.02 1.03843,0.064 0.99374,0.08 1.0703,-0.372 0.6951,-0.458 1.75041,-0.229 2.8436,2.445 5.18584,4.983 7.4101,8.065 0.63678,0.882 1.92234,0.979 2.7376,1.605 1.50791,1.717 2.73407,3.748 3.96897,5.663 0.8839,1.372 1.8537,1.88 2.1662,3.562 1.6915,1.433 3.4719,4.841 4.8905,6.585 2.106,2.588 3.215,5.227 4.9763,7.949 2.5566,3.951 5.0842,7.904 7.6242,11.861 l 3.1243,4.923 c 1.0373,1.651 2.6883,4.591 5.0438,4.911 1.3058,0.177 1.0251,-1.973 0.9358,-2.779 l -0.8515,-0.833 c -0.2153,-2.333 -0.6567,-3.727 -1.5161,-5.928 l 0.0226,-0.093 c 0.3621,-1.529 0.0981,-1.829 0.021,-3.285 -0.2564,-4.848 -1.0578,-6.488 1.9632,-10.702 0.527,-0.735 0.8809,-1.985 1.6896,-2.393 0.9872,-0.499 1.9047,-0.677 2.8995,-1.231 2.8629,1.42 4.0125,2.132 4.6717,5.312 1.4967,1.466 1.9888,1.151 3.3171,2.124 -0.0553,0.384 -0.1095,0.28 0.005,0.569 l 0.7308,-0.167 c 0.6054,-1.635 -0.7186,-4.164 -0.7668,-5.394 -0.1243,-3.184 -0.3613,-5.155 0.3471,-8.233 0.1916,-0.315 0.3371,-0.351 0.7142,-0.494 l 0.1815,-0.069 c 0.415,-1.427 0.4035,-1.541 1.358,-2.716 0.3401,-3.835 5.4981,-8.054 8.5703,-10.134 5.7014,0.467 5.7654,0.133 9.7284,4.742 0.4221,0.491 1.2294,1.53 1.4847,2.127 0.6548,1.53 1.1014,3.078 1.7404,4.657 0.5536,1.518 1.2967,2.943 1.91,4.432 0.2902,0.704 0.3605,1.714 0.6306,2.419 0.8814,2.297 1.3904,4.659 2.0989,6.994 -1.548,0.046 -3.1804,0.252 -4.7093,0.512 -0.4727,1.183 -0.7005,1.643 -1.3678,2.718 -2.209,-3.802 -5.5385,-6.169 -9.9025,-4.172 -1.2954,0.593 -2.3066,5.531 -2.388,6.857 -2.3848,-1.362 -3.8008,-2.811 -6.5807,-2.045 -1.6836,0.464 -3.5621,1.599 -4.4188,3.144 -0.6477,1.169 -0.6572,2.55 -1.3539,4.083 l 0.5324,0.954 c -0.2769,0.955 -0.4406,1.385 -0.8515,2.294 0.1801,0.846 0.3498,1.67 0.5768,2.506 -0.4324,-0.372 -0.8624,-0.728 -1.4158,-0.896 -2.5131,-0.763 -4.7504,-0.814 -6.5046,1.323 -0.1728,1.598 -0.3297,3.015 -0.7333,4.576 l 0.9014,1.4 c -0.7101,2.657 0.1455,3.516 0.5444,6.063 0.6711,0.783 1.3262,2.009 2.2937,2.373 1.1581,-0.297 0.6989,-2.538 0.5788,-3.501 -0.1521,-1.217 -0.0335,-2.511 -0.4447,-3.623 0.5196,-0.992 0.9869,-1.957 2.1523,-2.364 0.5142,-0.18 0.9837,-0.206 1.5453,0.032 2.2531,0.953 2.0536,9.331 4.6896,8.684 0.3371,-0.082 0.2461,-0.075 0.4575,-0.355 0.1199,-1.675 -0.4074,-3.13 -0.6054,-4.756 -0.384,-3.147 -0.2804,-5.821 0.1141,-8.957 0.7807,-0.607 1.9839,-1.6 2.7932,-2.092 1.6461,0.034 3.3079,-0.053 4.4771,1.32 1.5769,1.852 2.3575,3.537 2.6267,5.894 0.9665,-0.018 1.9306,-0.009 2.8859,-0.155 -0.8175,-2.147 -1.3338,-3.848 -1.2207,-6.191 0.0542,-1.122 0.5267,-2.607 -0.2608,-3.509 1.0294,-1.952 1.4518,-2.623 3.2807,-3.814 0.6997,-0.018 1.4545,-0.051 2.1485,-0.04 2.0684,1.37 2.467,2.727 3.4373,4.901 0.667,1.494 2.5929,7.911 4.4698,7.819 1.1457,-0.825 -0.1562,-3.243 0,-4.408 0.2591,-1.935 0.9932,-4.709 1.9302,-6.452 0.503,-0.721 1.7469,-1.797 2.4164,-2.711 1.6032,2.705 1.3204,3.927 1.403,6.88 0.1621,1.934 0.2329,3.909 0.3997,5.839 0.0752,0.869 0.6512,2.471 0.8744,3.348 0.6139,2.414 1.2406,4.742 1.5815,7.212 0.1307,0.948 0.6768,2.096 0.8397,3.065 0.2278,1.112 0.0521,1.101 0.5537,2.18 0.4338,0.234 0.3616,0.112 0.5322,0.483 -0.0553,0.157 -0.1232,0.349 -0.2041,0.578 0.2163,1.089 0.9853,3.031 1.4196,3.967 1,2.157 2.7387,4.203 3.8875,6.083 2.0801,3.404 3.9131,5.977 6.5469,8.977 2.217,2.525 4.696,4.314 6.899,6.708 0.538,0.356 0.993,0.767 1.644,0.564 0.193,-0.509 0.086,-0.587 -0.011,-1.173 1.047,-0.148 6.149,5.861 6.96,7.149 1.136,1.804 2.698,3.477 3.777,5.339 2.517,4.447 4.433,9.995 5.067,15.066 0.199,1.586 0.897,6.52 0.287,7.776 0.027,0.042 0.055,0.084 0.083,0.126 1.25,1.83 3.307,2.985 4.488,4.932 1.399,2.306 1.58,5.139 2.489,7.626 0.482,1.319 1.249,2.571 1.845,3.846 0.588,1.256 1.049,2.569 1.561,3.857 0.249,0.624 0.595,1.282 0.751,1.933 0.125,0.523 -0.044,1.267 -0.115,1.801 -2.644,-0.128 -5.639,-0.283 -8.228,-0.79 -3.854,-0.758 -8.492,-2.576 -12.309,-3.84 -1.222,1.193 -2.883,1.241 -4.501,1.342 -0.387,-0.272 -0.783,-0.602 -1.196,-0.825 z"
     fill="#fefefe"
     id="path50" />
  <path
     d="m 142.479,237.737 c 1.048,-0.147 6.149,5.861 6.96,7.149 1.136,1.804 2.699,3.477 3.777,5.339 2.517,4.447 4.434,9.995 5.068,15.066 0.198,1.586 0.896,6.52 0.286,7.777 0.028,0.041 0.055,0.084 0.084,0.125 1.249,1.83 3.307,2.985 4.488,4.932 1.398,2.306 1.579,5.14 2.488,7.627 0.482,1.319 1.249,2.571 1.845,3.845 0.588,1.256 1.049,2.569 1.561,3.857 0.249,0.625 0.596,1.282 0.751,1.933 0.125,0.523 -0.043,1.267 -0.114,1.801 -2.644,-0.128 -5.64,-0.283 -8.229,-0.79 -3.854,-0.757 -8.491,-2.576 -12.309,-3.839 -1.222,1.192 -2.883,1.24 -4.501,1.341 -0.386,-0.271 -0.782,-0.602 -1.196,-0.825 -1.148,-0.884 -1.778,-2.127 -2.704,-3.208 l -9.2099,-10.9 c -0.8555,-0.997 -1.8558,-1.869 -2.7226,-2.863 -1.2678,-1.454 -2.4299,-3.052 -3.7656,-4.438 -1.4019,-1.456 -2.8543,-2.656 -4.1033,-4.281 -0.2194,-0.562 -0.412,-1.301 -0.3115,-1.899 0.4412,-0.279 1.4126,-0.051 1.9551,-0.084 1.6016,-0.097 2.6079,-1.048 3.9894,-1.25 0.6136,-0.089 1.2605,0.176 1.8547,-0.018 0.009,-0.124 0.0178,-0.248 0.033,-0.372 0.1164,-0.941 1.4074,-0.836 2.0954,-1.311 2.1463,-1.484 2.5553,-3.307 4.0473,-5.066 0.41,-0.483 0.977,-0.87 1.485,-1.248 0.073,-1.754 0.476,-3.5 1.229,-5.086 1.196,0.293 1.919,0.632 2.876,1.414 -0.027,-1.094 0.485,-3.608 0.622,-4.878 0.355,-3.307 0.377,-5.955 0.039,-9.24 0.537,0.355 0.993,0.767 1.643,0.563 0.194,-0.508 0.086,-0.586 -0.011,-1.173 z"
     fill="#000100"
     id="path52" />
  <path
     d="m 142.479,237.737 c 1.047,-0.147 6.149,5.861 6.96,7.149 1.136,1.804 2.699,3.477 3.777,5.339 2.517,4.447 4.433,9.995 5.067,15.066 0.199,1.586 0.897,6.52 0.287,7.777 -0.895,-1.457 -2.056,-2.705 -3.109,-4.044 -0.753,-0.957 -1.398,-2.013 -2.214,-2.917 -0.731,-0.811 -1.602,-1.488 -2.326,-2.304 -3.475,-3.918 -6.88,-7.784 -10.735,-11.338 -0.027,-1.094 0.485,-3.608 0.622,-4.878 0.355,-3.307 0.376,-5.955 0.039,-9.24 0.537,0.355 0.993,0.767 1.643,0.563 0.194,-0.508 0.086,-0.586 -0.011,-1.173 z"
     fill="#fefefe"
     id="path54" />
  <path
     d="m 148.628,272.021 c 0.207,-0.01 0.416,-0.016 0.623,0.005 1.679,0.17 3.636,2.12 4.668,3.373 -0.01,2.444 -0.249,4.233 -1.952,6.145 -1.215,1.365 -2.668,1.93 -4.46,2.025 -1.248,-0.221 -2.436,-0.671 -3.424,-1.482 -1.077,-0.883 -1.919,-2.223 -2.004,-3.638 -0.099,-1.642 0.933,-3.284 1.977,-4.472 1.342,-1.528 2.596,-1.817 4.572,-1.956 z"
     fill="#fefefe"
     id="path56" />
  <path
     d="m 147.729,274.57 c 1.744,0.062 2.78,0.721 4.058,1.849 -0.031,0.987 0.029,1.907 0.192,2.882 -0.516,0.603 -1.027,1.247 -1.598,1.798 -0.569,0.548 -1.12,0.791 -1.907,0.79 -1.1,-0.1 -2.213,-0.505 -3.093,-1.182 -0.751,-0.578 -1.309,-1.351 -1.417,-2.313 -0.098,-0.871 0.15,-1.795 0.71,-2.474 0.827,-1.005 1.84,-1.199 3.055,-1.35 z"
     fill="#000100"
     id="path58" />
  <path
     d="m 155.168,288.309 c 0.237,0.002 0.527,-0.007 0.754,0.057 1.158,0.325 4.172,2.202 4.778,3.198 l -0.133,0.216 c -0.349,0.003 -0.704,-0.01 -1.035,-0.132 -1.175,-0.433 -3.982,-1.87 -4.532,-2.94 z"
     fill="#298d57"
     id="path60" />
  <path
     d="m 153.986,289.879 c 1.066,0.703 2.242,1.038 3.068,2.059 -0.148,0.282 -0.266,0.566 -0.521,0.768 -1.319,-0.532 -2.708,-0.9 -4.095,-1.204 z"
     fill="#3ab174"
     id="path62" />
  <path
     d="m 157.054,291.938 c 1.139,0.815 2.458,1.342 3.538,2.236 -1.406,-0.338 -2.745,-0.867 -4.058,-1.469 0.255,-0.202 0.373,-0.485 0.52,-0.767 z"
     fill="#298d57"
     id="path64" />
  <path
     d="m 121.7646,211.55 c 0.4338,0.235 0.3616,0.113 0.5322,0.484 -0.0554,0.156 -0.1232,0.349 -0.2041,0.577 0.2163,1.089 0.9852,3.031 1.4196,3.968 1,2.157 2.7387,4.203 3.8875,6.083 2.0801,3.403 3.913,5.976 6.5472,8.977 2.216,2.525 4.696,4.314 6.899,6.708 0.338,3.285 0.316,5.933 -0.039,9.241 -0.136,1.269 -0.648,3.783 -0.622,4.878 -0.957,-0.783 -1.68,-1.121 -2.876,-1.414 -0.753,1.585 -1.156,3.331 -1.229,5.086 -0.507,0.377 -1.075,0.764 -1.485,1.248 -1.492,1.759 -1.901,3.581 -4.047,5.065 -0.688,0.476 -1.979,0.37 -2.0954,1.311 -0.0152,0.124 -0.0237,0.248 -0.033,0.372 -0.5942,0.194 -1.2411,-0.071 -1.8547,0.019 -1.3815,0.201 -2.3878,1.153 -3.9894,1.25 -0.5425,0.033 -1.5139,-0.196 -1.955,0.083 -0.1006,0.599 0.0921,1.337 0.3114,1.899 -3.4553,-0.012 -5.7774,-0.372 -8.7698,-2.538 -2.846,-2.101 -5.8019,-5.801 -6.0943,-9.52 -0.6073,-7.721 0.7739,-15.957 2.6436,-23.448 0.3935,-1.577 1.0957,-3.129 1.5605,-4.67 1.3821,-4.581 2.975,-9.203 5.6946,-13.175 1.0316,-1.257 2.2114,-2.84 4.0523,-2.57 0.5237,0.077 1.2779,0.18 1.7458,0.086 z"
     fill="#feae3b"
     id="path66" />
  <path
     d="M1439.72 183.504H1444.73C1444.33 183.524 1443.88 183.536 1443.49 183.652C1441.77 184.174 1440.05 185.337 1438.49 186.219C1435.81 187.724 1431.33 189.465 1429.89 192.356C1429.73 192.679 1429.86 193.215 1430.01 193.521C1431.02 195.66 1432.81 197.072 1433.68 199.663C1434.62 202.48 1433.52 206.045 1432.19 208.585C1431.56 209.781 1427.11 213.237 1425.9 214.113C1422.18 216.816 1418.11 219.377 1413.91 221.248C1412.93 221.683 1411.79 221.729 1410.8 222.126C1400.01 226.446 1388.72 229.469 1377.34 231.762C1373.53 232.53 1369.65 232.938 1365.85 233.783C1363.66 234.272 1361.52 235.043 1359.33 235.585C1357.4 236.064 1355.42 236.02 1353.51 236.582C1352.62 236.844 1351 237.063 1350.17 236.605C1350.29 236.482 1350.44 236.298 1350.61 236.235C1352.84 235.382 1355.58 234.938 1357.92 234.378C1363.47 233.051 1369.02 232.093 1374.61 230.986C1376.39 230.634 1378.12 230.082 1379.91 229.754C1381.78 229.41 1383.71 229.351 1385.58 228.973C1387 228.687 1388.38 228.147 1389.77 227.74C1392.44 226.956 1395.05 226.203 1397.7 225.332C1398.41 225.099 1399.36 225.036 1400.01 224.753C1400.23 224.66 1400.4 224.257 1400.62 224.152C1401.22 223.855 1402.36 223.759 1403.05 223.553C1405.87 222.709 1408.83 221.89 1411.56 220.78C1415.97 218.984 1419.6 216.657 1423.48 213.946C1424.54 213.206 1425.7 212.546 1426.7 211.731C1428.08 210.605 1429.1 208.738 1430.72 207.957C1430.74 207.947 1430.76 207.937 1430.78 207.928C1432.21 204.655 1432.6 202.997 1432.37 199.402C1430.71 197.616 1429.68 195.34 1428.22 193.407C1428.29 192.706 1428.32 192.001 1428.4 191.302C1428.57 189.754 1435.62 185.975 1437.28 185.183C1438.37 184.667 1439.54 184.539 1440.52 183.759L1440.47 183.578L1439.72 183.504Z"
     fill="black"
     id="path68" />
  <path
     d="M1394.17 183.5L1398.64 183.502C1396.64 183.512 1394.38 185.221 1393.03 186.592C1392.04 187.606 1390.63 189.217 1390.68 190.732C1390.7 191.399 1391.03 191.934 1391.52 192.369C1393.91 194.512 1402.63 194.71 1406.04 194.859C1407.48 194.922 1409.31 194.761 1410.65 195.289C1411.68 195.694 1412.6 196.899 1412.7 198C1412.79 199.027 1412.25 200.071 1411.59 200.827C1409.35 203.414 1405.64 205.399 1402.56 206.81C1401.03 207.508 1399.4 207.851 1397.86 208.469C1390.62 211.411 1383.25 214.029 1375.78 216.316C1372.05 217.475 1368.24 218.395 1364.5 219.551C1361.5 220.476 1358.51 221.356 1355.49 222.21C1354.52 222.486 1353.76 222.945 1352.72 223.007C1352.03 223.048 1351.21 223.076 1350.6 222.723L1350.65 222.503C1352.02 221.9 1353.8 221.829 1355.27 221.362C1359.38 220.059 1363.5 218.677 1367.64 217.481C1371.89 216.253 1376.32 215.27 1380.36 213.426C1382.67 213.249 1387.07 211.073 1389.47 210.247C1392.72 209.129 1396.12 208.594 1399.21 206.983C1399.77 206.485 1401.21 206.108 1401.95 205.759C1402.9 204.67 1405.13 203.911 1406.5 203.548C1408.27 203.001 1409.91 200.96 1411.48 199.912L1411.69 197.454C1411.22 196.844 1410.67 196.465 1409.92 196.271C1408.29 195.848 1406.38 196.032 1404.7 195.975C1400.34 195.825 1394.01 195.269 1390.3 193.025C1389.7 191.863 1389.35 190.926 1389.59 189.589C1390.13 186.473 1392.27 185.363 1394.66 183.693L1394.17 183.5Z"
     fill="black"
     id="path70" />
  <path
     d="M1255.78 192.28C1256.94 191.404 1261.55 191.93 1263.08 192.17C1263.42 192.225 1263.77 192.337 1264.09 192.474C1265.83 194.383 1267.14 196.011 1267.03 198.742C1266.97 200.3 1266.46 201.839 1265.68 203.179C1265.18 204.032 1262.62 206.597 1262.77 207.382C1265.3 207.996 1267.55 207.933 1269.06 210.415C1270.4 212.603 1270.54 215.929 1269.94 218.389C1269.56 219.935 1266.7 223.421 1265.41 224.401L1265.32 224.746C1263.97 226.689 1260.26 229.501 1259.7 230.749C1259.67 230.83 1259.62 230.886 1259.57 230.953L1258.43 231.445L1258.37 231.766C1258.99 232.229 1259.8 232.061 1260.49 232.378C1262.81 233.451 1263.63 236.962 1263.94 239.263C1263.97 239.499 1263.94 239.682 1263.8 239.885C1263.22 240.784 1263.2 241.503 1262.84 242.49C1262.4 243.701 1261.78 244.833 1261.08 245.909C1260.17 247.292 1259.25 248.736 1258.22 250.025C1257.07 251.462 1253.18 254.918 1252.89 256.469C1254.02 257.51 1255.48 257.48 1256.61 258.774C1258.64 259.056 1263.98 255.293 1266.02 254.338C1267.24 253.77 1268.29 253.913 1269.47 253.017C1270.33 252.366 1271.18 251.612 1272.09 251.045C1275.25 249.088 1280.99 246.72 1284.55 245.139C1285.67 244.645 1286.94 244.384 1288 243.794C1290.48 242.413 1292.83 240.778 1295.33 239.438C1296.51 238.806 1297.87 238.513 1299.04 237.869C1300.15 237.257 1301.81 235.727 1303.04 235.59C1304.64 234.788 1311.36 231.086 1312.47 231.073C1312.51 231.072 1312.55 231.074 1312.59 231.074L1312.97 230.602C1316.86 228.444 1320.72 225.972 1324.82 224.206C1326.2 223.611 1327.7 223.209 1329.13 222.74C1330.47 222.298 1331.17 221.643 1332.65 222.066C1333.32 222.259 1333.9 222.544 1334.31 223.13L1334.35 223.521C1333.79 224.222 1332.53 224.773 1332.25 225.527C1332.64 225.649 1332.99 225.623 1333.38 225.498C1334.23 225.231 1335.08 224.7 1335.9 224.332C1338.03 223.366 1340.6 222.718 1342.94 222.908C1343.87 223.571 1344.51 224.164 1344.69 225.372C1344.75 225.776 1344.7 226.219 1344.44 226.55C1342.65 228.918 1337.41 230.638 1335.85 232.873C1336.98 233.496 1339.65 232.279 1340.25 234.303C1340.37 234.739 1340.28 235.176 1340.05 235.566C1338.25 238.625 1329.09 242.62 1325.89 244.401C1324.75 245.036 1323.74 245.877 1322.6 246.53C1319.69 248.209 1316.45 249.812 1313.4 251.213C1310.72 252.443 1307.92 253.377 1305.18 254.476C1302.18 255.686 1299.2 257.063 1296.25 258.399C1294.2 259.325 1292.34 260.637 1290.3 261.541C1288.48 262.344 1286.52 262.76 1284.72 263.62C1282.7 264.583 1280.75 265.744 1278.77 266.787C1277.34 267.538 1275.81 268.195 1274.43 269.002C1273.27 269.676 1272.2 270.501 1271.04 271.167C1269.93 271.799 1268.69 272.181 1267.6 272.834C1266.55 273.457 1265.6 274.244 1264.58 274.911C1262.85 276.048 1261 277.102 1259.22 278.154C1256.98 279.468 1254.25 280.338 1252.21 281.92C1251.42 282.533 1246.25 289.848 1245.38 291.05C1245.07 291.48 1243.8 291.945 1243.75 292.053C1243.64 292.273 1243.8 292.835 1243.7 293.105C1243.34 294.036 1241.3 295.983 1240.58 296.768C1239.19 298.295 1237.63 299.627 1236.18 301.09C1234.81 302.468 1233.55 303.982 1232.24 305.409C1231.48 306.225 1230.62 306.851 1230.08 307.839C1228.92 308.714 1227.89 309.859 1226.88 310.901C1225.45 312.344 1223.23 315.483 1221.73 316.477C1221.43 316.429 1220.8 316.294 1220.52 316.402C1219.63 316.747 1218.36 317.919 1217.55 318.507C1216.05 319.592 1212.96 322.096 1211.03 321.81C1210.73 321.766 1210.45 321.516 1210.27 321.273C1210.23 321.213 1210.19 321.147 1210.16 321.083C1210.14 321.246 1210.13 321.411 1210.08 321.567C1209.9 322.099 1208.82 322.633 1208.31 322.864C1204.65 324.542 1199.95 324.737 1196.01 324.292C1194.02 324.068 1192.06 323.629 1190.07 323.45C1187.23 323.195 1184.34 323.255 1181.55 322.572C1175.31 321.042 1169.43 318.54 1163.15 317.098C1161.76 316.777 1160.47 316.89 1159.09 316.698C1156.11 316.283 1150.1 315.014 1147.37 313.996C1147.29 314.112 1147.2 314.306 1147.07 314.354C1145.89 314.794 1142.64 312.988 1141.48 312.434C1141.61 312.189 1142.13 312.108 1142.4 312.019C1141.96 311.901 1141.54 311.678 1141.15 311.462C1140.19 310.934 1138.44 309.705 1138.13 308.625C1138.12 308.642 1138.11 308.66 1138.1 308.675C1137.95 308.825 1137.74 308.906 1137.53 308.892C1135.04 308.732 1123.52 307.488 1122.23 306.014C1122.26 305.757 1122.32 305.533 1122.42 305.298C1123.23 303.542 1130.38 293.655 1131.82 293.132C1131.74 292.899 1131.66 292.601 1131.7 292.356C1132.01 290.339 1133.77 288.193 1135.3 286.957C1145.55 278.659 1157.4 280.848 1169.45 282.099C1169.32 281.911 1169.28 281.755 1169.24 281.533C1170.54 280.708 1173.62 281.633 1175.24 281.319L1174.98 281.881L1175.22 282.401C1175.67 282.796 1176.32 283.32 1176.96 283.263C1177.69 283.198 1178.74 282.709 1179.51 282.528C1185.91 281.012 1187.11 277.573 1190.42 272.511C1190.95 271.697 1191.39 270.871 1192.02 270.125C1192.46 269.428 1193.04 268.894 1193.04 268.027C1192.75 268.494 1192.72 268.681 1192.19 268.871C1191.81 268.598 1191.77 268.463 1191.6 268.04C1192.24 266.553 1192.84 265.023 1193.54 263.57C1194.14 262.351 1194.92 261.227 1195.57 260.039C1196.46 258.426 1197.21 256.722 1198.06 255.083C1198.51 254.193 1199.24 252.207 1199.93 251.559C1200.3 251.216 1200.77 251.643 1201.28 251.396C1201.2 251.176 1201.13 250.954 1201.07 250.73C1201.01 250.476 1200.88 249.95 1200.91 249.695C1200.93 249.56 1203.3 246.057 1203.66 245.432L1203.26 245.481L1203.07 245.258C1204.37 241.845 1212.75 225.652 1215.09 223.286L1215.46 223.381L1215.51 222.676C1216.66 221.673 1215.86 221.281 1216.44 220.252L1216.49 220.158C1217.28 218.737 1218.54 217.623 1219.52 216.33C1220.94 214.452 1222.24 212.482 1223.77 210.688C1227.17 206.7 1232.49 202.318 1237.02 199.678C1239.76 198.084 1242.85 197.14 1245.52 195.429C1245.12 195.438 1244.78 195.487 1244.44 195.258C1244.62 194.799 1244.9 194.564 1245.33 194.297C1245.95 193.902 1247.11 193.349 1247.82 193.516L1247.98 194.034C1250.07 192.713 1253.4 192.805 1255.78 192.28Z"
     fill="black"
     id="path72" />
  <path
     d="M1193.04 268.031C1194.98 265.989 1196.03 263.034 1197.49 260.62C1199.18 257.815 1203.22 253.104 1206.68 252.754C1207.11 252.958 1207.32 253.107 1207.5 253.563C1208.39 255.78 1206.16 260.041 1205.18 262.074C1203.63 265.291 1202.1 268.553 1200.5 271.744C1200.06 272.616 1199.28 273.512 1198.93 274.362C1198.73 274.824 1198.78 275.038 1198.92 275.496C1199.35 275.976 1199.91 276.204 1200.49 276.474C1202.43 273.709 1205.08 270.954 1208.57 270.336C1209.39 270.189 1210.27 270.219 1210.97 270.719C1211.9 271.374 1212.25 272.537 1212.41 273.61C1212.68 275.432 1212.34 277.041 1212.19 278.835C1212.15 279.255 1212.32 279.656 1212.31 280.039C1212.28 280.659 1211.64 281.862 1211.42 282.489C1210.46 285.21 1209.56 287.868 1208.47 290.549C1207.94 291.874 1206.67 294.219 1206.41 295.479C1206.33 295.858 1206.5 296.062 1206.68 296.368C1207.09 296.665 1207.35 296.704 1207.85 296.693C1210.15 295.934 1212.45 288.023 1217.64 288.905C1218.34 289.264 1218.85 290.342 1219.08 291.069C1220.23 294.769 1216.58 301.675 1214.83 305C1214.3 305.991 1213.28 307.374 1213.06 308.425C1212.95 308.974 1213.19 309.424 1213.51 309.836C1213.92 310.015 1214.17 310.127 1214.62 309.972C1215.24 309.754 1215.72 308.757 1216.07 308.214C1218.07 307.443 1219.89 305.08 1222.25 305.955C1222.76 306.342 1222.84 306.668 1222.92 307.288C1223.17 309.184 1222.56 310.827 1221.39 312.306C1219.82 314.298 1217.33 316.517 1215.18 317.876C1213.58 319.058 1211.71 319.917 1210.16 321.087C1210.14 321.25 1210.13 321.415 1210.08 321.571C1209.9 322.103 1208.82 322.637 1208.31 322.868C1204.65 324.546 1199.95 324.741 1196.01 324.296C1194.02 324.072 1192.06 323.632 1190.07 323.453C1187.23 323.199 1184.34 323.259 1181.55 322.576C1175.31 321.045 1169.43 318.544 1163.15 317.102C1161.76 316.781 1160.47 316.893 1159.09 316.701C1156.11 316.287 1150.1 315.018 1147.37 314C1147.29 314.115 1147.2 314.31 1147.07 314.358C1145.89 314.798 1142.64 312.992 1141.48 312.437C1141.61 312.193 1142.13 312.112 1142.4 312.023C1141.96 311.905 1141.54 311.682 1141.15 311.465C1140.19 310.938 1138.44 309.709 1138.13 308.629C1138.12 308.646 1138.11 308.664 1138.1 308.679C1137.95 308.829 1137.74 308.909 1137.53 308.896C1135.04 308.736 1123.52 307.492 1122.23 306.017C1122.26 305.761 1122.32 305.537 1122.42 305.302C1123.23 303.545 1130.38 293.659 1131.82 293.135C1131.74 292.903 1131.66 292.605 1131.7 292.359C1132.01 290.343 1133.77 288.197 1135.3 286.961C1145.55 278.663 1157.4 280.852 1169.45 282.102C1169.32 281.914 1169.28 281.759 1169.24 281.537C1170.54 280.711 1173.62 281.637 1175.24 281.323L1174.98 281.885L1175.22 282.404C1175.67 282.8 1176.32 283.323 1176.96 283.267C1177.69 283.201 1178.74 282.713 1179.51 282.532C1185.91 281.015 1187.11 277.577 1190.42 272.514C1190.95 271.701 1191.39 270.875 1192.02 270.129C1192.46 269.431 1193.04 268.898 1193.04 268.031Z"
     fill="#FEFEFE"
     id="path74" />
  <path
     d="M1131.82 293.135C1136.43 292.32 1141.06 291.559 1145.66 290.682C1148.61 290.121 1151.5 289.386 1154.47 288.956C1156.18 288.708 1157.91 288.711 1159.62 288.508C1161.05 288.339 1162.59 287.743 1163.99 287.7C1164.45 287.686 1164.97 287.845 1165.41 287.967C1165.98 288.022 1166.84 288.053 1167.22 288.532C1168.06 289.585 1167.57 291.454 1168.04 292.676C1168.63 294.201 1172.57 297.97 1172.43 299.116C1170.88 300.561 1168 299.954 1166.18 300.82C1165.09 301.565 1162.64 301.776 1161.34 301.897C1159.57 302.763 1157.15 302.988 1155.21 303.451C1153.55 303.848 1152.05 304.745 1150.41 305.185C1147.1 306.071 1141.1 306.651 1138.27 308.015L1138.13 308.628C1138.12 308.645 1138.11 308.663 1138.1 308.678C1137.95 308.828 1137.74 308.909 1137.53 308.895C1135.04 308.735 1123.52 307.491 1122.23 306.017C1122.26 305.76 1122.32 305.536 1122.42 305.301C1123.23 303.545 1130.38 293.658 1131.82 293.135Z"
     fill="black"
     id="path76" />
  <path
     d="M1144.52 293.76C1144.64 293.73 1144.74 293.723 1144.86 293.728C1146.22 293.787 1147.55 295.282 1148.38 296.222C1148.36 297.197 1148.37 298.171 1148.38 299.146C1147.94 299.788 1147.49 300.557 1146.87 301.038L1146.79 301.098C1146.1 301.633 1145.22 301.7 1144.38 301.833C1143.84 301.955 1142.93 301.56 1142.45 301.295C1141.5 300.775 1140.85 299.992 1140.55 298.944C1140.27 297.976 1140.41 296.934 1140.93 296.074C1141.77 294.664 1143.02 294.147 1144.52 293.76Z"
     fill="#FEFEFE"
     id="path78" />
  <path
     d="M1143.66 295.406C1144.04 295.415 1144.47 295.443 1144.83 295.557C1145.99 295.917 1146.56 297.143 1147.11 298.117C1146.49 299.056 1145.89 299.866 1144.91 300.445C1144.59 300.421 1144.26 300.391 1143.95 300.316C1142.72 300.018 1142.28 299.173 1141.67 298.161C1142.12 296.943 1142.68 296.232 1143.66 295.406Z"
     fill="black"
     id="path80" />
  <path
     d="M1138.27 308.012C1138.45 309.056 1139.37 309.896 1140.2 310.487C1144.4 313.478 1151.43 314.749 1156.42 315.783C1157.58 316.023 1159.42 316.631 1160.58 316.419C1160.67 316.402 1160.77 316.375 1160.86 316.345C1160.73 314.434 1159.37 313.788 1161.1 311.783C1162.47 310.199 1164.63 310.036 1166.6 309.909C1169.33 309.733 1172.07 309.374 1174.79 309.249C1184.56 308.799 1194.71 309.714 1204.05 312.714C1206.25 313.42 1209.06 314.224 1210.79 315.795C1211.25 316.208 1211.62 316.701 1211.65 317.335C1211.67 317.825 1211.54 318.501 1211.83 318.912C1212.83 319.119 1214.14 317.988 1215.18 317.872C1213.59 319.054 1211.71 319.913 1210.16 321.083C1210.15 321.246 1210.13 321.411 1210.08 321.567C1209.9 322.099 1208.82 322.633 1208.31 322.864C1204.65 324.542 1199.95 324.737 1196.01 324.292C1194.02 324.068 1192.06 323.629 1190.07 323.45C1187.23 323.195 1184.34 323.255 1181.55 322.572C1175.32 321.042 1169.43 318.54 1163.15 317.098C1161.76 316.777 1160.47 316.89 1159.09 316.697C1156.11 316.283 1150.11 315.014 1147.37 313.996C1147.29 314.112 1147.2 314.306 1147.07 314.354C1145.89 314.794 1142.65 312.988 1141.48 312.434C1141.61 312.189 1142.13 312.108 1142.4 312.019C1141.96 311.901 1141.55 311.678 1141.15 311.462C1140.19 310.934 1138.44 309.705 1138.13 308.625L1138.27 308.012Z"
     fill="#FFC982"
     id="path82" />
  <path
     d="M1142.39 312.02C1144.01 312.744 1145.65 313.552 1147.37 313.996C1147.29 314.112 1147.2 314.306 1147.07 314.355C1145.89 314.794 1142.64 312.989 1141.48 312.434C1141.6 312.189 1142.13 312.108 1142.39 312.02Z"
     fill="#FFAC3E"
     id="path84" />
  <path
     d="M1167.75 285.227C1171.92 283.862 1176.61 285.275 1180.37 287.178C1182.62 288.317 1185.06 290.212 1185.87 292.708C1186.36 294.195 1186.3 295.993 1185.58 297.393C1184.99 298.528 1183.4 300.353 1182.16 300.718C1178.05 301.931 1173.57 298.939 1172.43 299.117C1172.57 297.97 1168.63 294.202 1168.04 292.677C1167.57 291.455 1168.06 289.585 1167.22 288.533C1166.84 288.053 1165.98 288.023 1165.41 287.968C1166.46 287.43 1166.76 286 1167.75 285.227Z"
     fill="#FFAC3E"
     id="path86" />
  <path
     d="M1169.45 282.102C1169.32 281.914 1169.28 281.758 1169.24 281.536C1170.54 280.711 1173.62 281.636 1175.24 281.322L1174.98 281.885L1175.22 282.404C1173.35 282.573 1171.33 282.213 1169.45 282.102Z"
     fill="#FFAC3E"
     id="path88" />
  <path
     d="M1215.46 223.383C1215.84 223.375 1216.32 223.378 1216.68 223.233C1217.46 222.915 1218.27 222.131 1218.94 221.625C1222.01 219.318 1226.31 216.221 1229.83 219.694C1231.53 221.374 1232.49 225.926 1232.46 228.269C1232.44 230.319 1231.93 232.476 1231.11 234.349C1230.73 235.204 1228.17 238.923 1228.26 239.388C1228.31 239.682 1228.33 239.817 1228.55 240.036C1229.05 240.53 1230.12 240.834 1230.76 241.18C1232.91 242.346 1232.89 245.747 1232.97 247.898C1233.14 252.956 1232.13 257.313 1230.72 262.117C1230.33 263.454 1230.04 264.823 1229.52 266.119C1228.41 268.887 1226.98 271.522 1225.84 274.258C1225.55 274.933 1225.45 275.68 1225.16 276.351C1224.98 276.801 1224.57 277.206 1224.33 277.652C1223.86 278.549 1223.58 279.986 1222.88 280.695C1222.38 281.197 1221.76 281.056 1221.12 281.043L1220.77 280.798C1220.87 280.247 1224.67 271.932 1224.81 271.778L1224.85 271.41C1224.84 271.005 1225.58 268.633 1225.82 268.289C1225.83 265.143 1227.67 262.45 1225.89 259.069C1225.17 257.712 1223.53 256.236 1222.06 255.801C1220.85 255.443 1220 255.514 1218.91 256.118C1218.82 255.961 1218.79 255.767 1218.74 255.597C1219.03 254.762 1219.35 252.877 1219.92 252.273C1220.14 249.555 1220.43 246.668 1218.89 244.248C1218.41 243.494 1217.76 242.808 1217.25 242.061C1217.14 242.003 1217.02 241.947 1216.91 241.893C1214.47 240.738 1211.51 240.468 1208.94 241.392C1207.26 242.001 1204.44 243.776 1203.66 245.434L1203.26 245.482L1203.07 245.26C1204.37 241.846 1212.75 225.654 1215.09 223.288L1215.46 223.383Z"
     fill="#FEFEFE"
     id="path90" />
  <path
     d="M1226.88 310.904C1226.95 310.5 1227.29 309.205 1227.02 308.875C1226.79 308.595 1226.6 308.621 1226.42 308.234C1226.88 307.398 1227.82 306.622 1228.66 306.184C1229.37 306.667 1229.24 307.407 1230.08 307.843C1228.92 308.718 1227.89 309.862 1226.88 310.904Z"
     fill="#221609"
     id="path92" />
  <path
     d="M1227.27 283.875C1226.93 283.552 1226.46 283.182 1226.22 282.769C1226.04 282.444 1226.07 282.343 1226.16 281.99C1226.42 281.867 1226.64 281.826 1226.92 281.858C1228.7 282.064 1229.64 283.121 1230.71 284.434C1230.72 285.036 1230.74 285.578 1230.91 286.158C1231.01 286.834 1231.41 292.387 1231.32 292.745C1231.25 292.998 1231 293.372 1230.86 293.599C1230.89 293.69 1230.88 293.676 1230.9 293.757C1230.9 293.787 1230.91 293.816 1230.91 293.845C1230.93 293.959 1230.95 294.07 1230.96 294.186C1230.97 294.376 1230.09 297.776 1230 297.885C1229.24 298.174 1226.85 297.246 1226.04 296.922C1225.96 295.987 1227.86 293.575 1228.07 292.302C1228.6 289.116 1227.75 286.827 1227.27 283.875Z"
     fill="#FEFEFE"
     id="path94" />
  <path
     d="M1187.43 206.18C1190.4 206.219 1192.82 206.247 1195.03 208.536C1198.05 211.661 1199.26 220.346 1199.16 224.564C1199.11 226.678 1199 229.025 1198.57 231.091C1197.98 233.907 1194.79 243.401 1195.03 245.21C1194.78 245.474 1194.52 245.737 1194.27 245.999C1194.14 246.719 1194.05 247.629 1193.8 248.308C1193.38 249.419 1192.77 250.315 1192.42 251.523C1191.8 253.649 1191.96 256.067 1190.81 258.025L1190.56 258.142C1190.19 257.888 1189.92 257.703 1189.83 257.222C1189.67 256.315 1190.84 253.96 1190.73 253.639C1190.7 253.56 1190.5 253.389 1190.43 253.317C1190.34 253.807 1190.08 253.979 1189.9 254.4C1189.61 255.085 1188.82 257.448 1188.94 258.139C1189.08 258.892 1189.75 259.048 1188.79 259.682C1188.76 259.706 1188.72 259.726 1188.69 259.749C1188.13 260.102 1187.69 261.442 1187.41 262.065L1187.72 263.089C1187.03 264.056 1186.62 264.605 1186.44 265.807C1186.85 265.13 1187.54 264.704 1187.82 263.973C1188.07 263.302 1187.74 262.888 1187.77 262.25C1187.81 261.511 1189.63 259.263 1190.22 258.801L1190.51 258.917C1190.63 259.443 1190.56 259.772 1190.39 260.28C1190.07 260.6 1189.65 260.857 1189.34 261.171C1189.23 261.292 1187.95 269.038 1187.5 269.618C1187.37 269.781 1187.25 269.946 1187.12 270.106C1187.38 272.256 1186.18 275.184 1185.32 277.16C1185.92 276.48 1186.7 275.756 1187.19 274.999C1188.2 273.43 1189.46 269.716 1191.17 269.05C1191.52 269.246 1191.92 269.591 1192.01 270.005C1192.01 270.045 1192.02 270.086 1192.03 270.127C1191.4 270.873 1190.96 271.699 1190.42 272.512C1187.11 277.574 1185.91 281.013 1179.51 282.529C1178.75 282.711 1177.69 283.199 1176.96 283.264C1176.33 283.321 1175.67 282.797 1175.23 282.402L1174.99 281.883L1175.24 281.32C1175.33 281.228 1175.53 281.064 1175.58 280.959C1175.79 280.505 1175.79 279.526 1175.9 278.997C1177.36 271.898 1178.26 264.656 1179.31 257.485C1179.41 256.799 1179.5 254.269 1179.7 253.845C1179.76 253.705 1180.03 253.48 1180.14 253.357L1179.47 253.27C1179.41 253.189 1179.35 253.107 1179.3 253.014C1178.86 252.209 1179.08 250.054 1179.34 249.188L1179.39 249.813L1179.53 249.863C1179.69 249.471 1179.74 249.423 1180.09 249.179C1179.95 248.161 1180.92 247.155 1180.85 246.114C1180.69 243.744 1179.16 238.298 1177.98 236.326C1177.63 235.74 1177.12 235.284 1176.62 234.828C1175.87 234.706 1175.04 234.484 1174.31 234.761C1169.86 236.437 1160.86 243.522 1156.57 246.465C1154.72 247.734 1152.63 248.504 1150.73 249.659C1149.17 250.611 1147.79 251.906 1146.23 252.894C1144.93 253.714 1143.7 254.176 1142.15 253.799C1141.5 253.638 1140.9 253.335 1140.55 252.731C1138.8 249.721 1143.55 244.774 1144.12 242.75C1142.86 242.756 1141.6 242.772 1140.34 242.797C1139.74 242.33 1138.75 241.655 1138.47 240.938C1137.98 239.702 1139.01 238.056 1139.52 236.931C1140.1 235.695 1143.3 233.03 1144.57 232.391C1145.29 232.407 1148.74 229.2 1149.63 228.603C1150.66 227.908 1151.83 227.499 1152.82 226.73C1152.85 226.664 1153 226.425 1152.99 226.37C1152.99 226.3 1152.39 225.685 1152.31 225.592C1151.8 224.998 1151.47 224.47 1151.22 223.733L1151.19 223.645C1151.94 222.816 1152.55 221.936 1153.39 221.177C1155.77 219.035 1161.76 215.172 1164.69 213.783C1166.01 213.155 1167.45 212.8 1168.77 212.189C1169.57 211.823 1170.15 211.137 1170.95 210.759C1174.57 209.058 1178.75 207.38 1182.7 206.646C1184.16 206.374 1185.65 206.339 1187.13 206.121L1187.43 206.18Z"
     fill="black"
     id="path96" />
  <path
     d="M1184.36 240.553C1184.55 241.901 1184.34 245.065 1185.32 245.988C1185.64 246.29 1185.77 246.321 1186.21 246.311C1187.19 245.132 1186.74 241.239 1187.13 239.509C1187.49 237.934 1188.65 236.29 1190.08 235.5C1190.39 235.329 1190.69 235.272 1191.03 235.377C1191.88 235.642 1192.42 237.092 1192.82 237.848C1192.72 239.084 1192.12 242.263 1192.25 243.137C1192.49 243.44 1192.65 243.701 1192.79 244.058C1192.69 245.156 1192.78 247.167 1192.29 248.111L1191.63 248.106C1191.35 248.359 1191.3 248.519 1191.19 248.877C1190.92 249.708 1191 250.082 1191.38 250.848C1192.04 252.17 1190.77 252.284 1190.43 253.321C1190.34 253.81 1190.08 253.982 1189.9 254.404C1189.61 255.089 1188.82 257.451 1188.94 258.142C1189.08 258.895 1189.75 259.051 1188.79 259.686C1188.76 259.709 1188.72 259.729 1188.68 259.752C1188.13 260.105 1187.69 261.445 1187.41 262.069L1187.72 263.092C1187.03 264.06 1186.62 264.608 1186.43 265.811C1185.3 271.199 1186.02 269.173 1182.53 273.192C1181.85 272.924 1181.23 272.54 1180.59 272.18C1180.28 271.487 1179.06 269.191 1179.29 268.444C1179.43 268.02 1180.03 267.65 1180.18 267.25C1180.43 266.606 1180.54 264.326 1180.68 263.444C1181.46 258.271 1182.65 253.029 1182.6 247.768C1182.59 246.789 1182.41 245.817 1182.34 244.841C1182.21 242.932 1183.2 241.912 1184.36 240.553Z"
     fill="#FEFEFE"
     id="path98" />
  <defs
     id="defs111">
    <clipPath
       id="clip0_1293_22701">
      <rect
         width="342"
         height="331"
         fill="white"
         transform="translate(173.515 449)"
         id="rect108" />
    </clipPath>
  </defs>
</svg>
