<?xml version="1.0" encoding="UTF-8" standalone="no"?>
<svg
   width="1440"
   height="81"
   viewBox="0 0 1440 81"
   fill="none"
   version="1.1"
   id="svg6"
   sodipodi:docname="footer-wave-bottom.svg"
   inkscape:version="1.2.2 (b0a84865, 2022-12-01)"
   xmlns:inkscape="http://www.inkscape.org/namespaces/inkscape"
   xmlns:sodipodi="http://sodipodi.sourceforge.net/DTD/sodipodi-0.dtd"
   xmlns="http://www.w3.org/2000/svg"
   xmlns:svg="http://www.w3.org/2000/svg">
  <defs
     id="defs10" />
  <sodipodi:namedview
     id="namedview8"
     pagecolor="#ffffff"
     bordercolor="#000000"
     borderopacity="0.25"
     inkscape:showpageshadow="2"
     inkscape:pageopacity="0.0"
     inkscape:pagecheckerboard="0"
     inkscape:deskcolor="#d1d1d1"
     showgrid="false"
     inkscape:zoom="1.2646927"
     inkscape:cx="282.28202"
     inkscape:cy="60.09365"
     inkscape:window-width="1309"
     inkscape:window-height="456"
     inkscape:window-x="410"
     inkscape:window-y="1297"
     inkscape:window-maximized="0"
     inkscape:current-layer="svg6" />
  <path
     d="M71.4493 35.4625L-2.00251 73.3779C-2.00251 73.3779 312.507 76.812 799.416 78.8815C1130.19 78.8815 1440.11 72.8218 1440.11 72.8218L1399.51 44.2128C1395.59 41.4472 1390.05 42.7146 1386.99 46.4188C1383.03 51.2196 1376.93 56.9513 1369.18 59.0264C1358.37 61.9244 1333.13 48.8915 1321.59 42.442C1318.14 40.5116 1313.76 41.2395 1310.88 43.9525C1304.79 49.6896 1293.56 58.4459 1281.23 59.0264C1269.35 59.5858 1256.11 51.1082 1248.19 45.011C1244.31 42.0209 1238.46 42.5748 1234.99 46.0385C1229.83 51.1928 1221.79 57.5407 1212.4 59.0264C1200.58 60.8965 1180.97 46.3389 1170.94 38.0653C1167.42 35.1639 1162.11 35.4808 1158.75 38.5617C1152.26 44.5082 1141.25 52.7092 1130.19 52.308C1121.37 51.988 1113.57 46.8482 1108.06 41.8983C1103.7 37.9819 1096.02 38.344 1092.05 42.6537C1085.68 49.5553 1075.91 56.7331 1065.18 52.308L1022.84 34.8484C1019.59 33.5121 1015.85 34.4329 1013.34 36.8748C1007.43 42.6071 995.752 52.0962 982.966 52.308C970.641 52.5122 958.482 43.5485 951.827 37.6419C948.751 34.9113 944.111 34.4382 940.672 36.6944C930.962 43.0638 911.725 54.4094 900.751 52.308C893.026 50.8289 886.703 45.7115 882.368 41.0623C878.729 37.1594 872.108 36.3796 867.894 39.6534C860.613 45.3095 849.26 52.308 837.656 52.308C824.838 52.308 812.327 43.7697 805.272 37.933C801.89 35.1349 796.805 34.9842 793.302 37.6285C785.82 43.275 772.508 51.7309 759.262 52.308C744.84 52.9364 727.016 42.4142 718.192 36.4933C714.963 34.3262 710.603 34.496 707.51 36.8544C700.596 42.1261 687.748 50.6219 674.888 52.308C659.941 54.2677 631.4 40.8384 620.061 35.1059C617.128 33.6228 613.59 33.9762 610.927 35.9023C603.588 41.2087 588.018 51.1579 573.057 52.308C558.06 53.461 535.458 42.4021 524.377 36.3652C520.631 34.3248 515.851 35.3554 512.937 38.4694C507.833 43.9223 499.096 51.3437 488.683 52.308C476.879 53.4012 462.143 43.1068 454.514 36.9738C451.479 34.5343 447.137 34.2928 443.907 36.4675C434.536 42.7781 415.408 54.3903 404.309 52.308C396.514 50.8456 390.179 45.6464 385.873 40.9554C382.304 37.0672 375.808 36.1941 371.592 39.3685C364.085 45.02 352.245 52.1775 340.301 52.308C328.4 52.4381 316.077 45.2793 308.146 39.5541C303.729 36.3653 296.973 37.623 293.429 41.7604C289.489 46.3594 283.716 51.1906 276.293 52.308C265.739 53.8967 251.331 43.5109 243.703 37.2021C240.621 34.6524 236.121 34.4345 232.823 36.698C223.981 42.7657 206.523 53.3236 193.373 52.308C181.246 51.3715 169.901 43.0667 163.6 37.5406C160.542 34.8593 155.963 34.3708 152.529 36.5485C142.833 42.6965 123.378 53.7167 110.454 52.308C98.3786 50.9919 87.2924 42.3955 81.4081 36.9995C78.7042 34.5199 74.7093 33.7797 71.4493 35.4625Z"
     fill="#5AA6E4"
     id="path2" />
  <path
     d="M46.3212 50.1044C32.0002 57.5383 13.4378 67.0805 -1.34469 74.6523L-1.98685 71.9439C-2.08146 71.9445 -0.803717 71.9598 -0.67207 71.9628C-0.285907 71.9685 0.181701 71.9751 0.725688 71.9825C5.92814 72.0553 3.47669 72.1089 7.10006 72.1626C14.634 72.2717 20.8229 72.2952 28.1114 72.4046C30.6171 72.4421 27.4791 72.5369 30.1356 72.5736C43.6111 72.7627 56.1396 72.8509 70.2131 73.0095C137.789 73.7725 204.141 74.3697 272.779 74.9484C295.021 75.1362 322.936 75.4549 345.978 75.5674C348.695 75.5806 347.077 75.4586 347.594 75.4532C355.734 75.371 353.028 75.5751 358.386 75.6422C379.337 75.9057 402.824 76.0746 423.064 76.1644C431.774 76.2028 423.026 75.9262 431.829 76.1067C432.442 76.119 430.217 76.222 432.621 76.2501C437.879 76.3125 447.978 76.3563 452.15 76.3921C460.176 76.4616 461.536 76.469 469.197 76.5183C479.379 76.5849 491.665 76.7189 502.925 76.7603C505.329 76.7688 502.145 76.6292 505.983 76.6319C509.706 76.634 519.628 76.7034 523.008 76.7517C526.38 76.8 524.944 76.8861 525.541 76.9113C530.44 77.1233 542.135 76.938 543.657 76.9404C570.568 76.9892 593.965 77.2632 619.563 77.3992C638.809 77.5012 659.756 77.5611 678.001 77.6583C699.888 77.7752 718.543 77.9296 739.847 78.0165C742.107 78.0259 739.458 77.8722 742.22 77.8833C761.562 77.9613 780.116 78.0461 799.42 78.1582C809.49 78.1741 819.541 78.1919 829.574 78.2141C832.489 78.2205 828.727 78.349 831.647 78.3628C849.513 78.4477 877.739 78.6248 888.291 78.0488C900.395 78.0333 915.037 78.0006 925.847 78.0632C932.839 78.1032 926.055 78.2684 934.63 78.1725C936.562 78.1509 934.05 78.0438 936.945 78.0202C949.079 77.9213 962.488 77.8906 974.497 77.7607C976.939 77.734 976.271 77.6316 976.963 77.6085C982.727 77.4207 992.581 77.6163 994.675 77.6214C1010.72 77.6588 1022.69 77.521 1037.59 77.4135C1041.05 77.3884 1036.93 77.2767 1040.31 77.247C1057.82 77.0944 1075.87 76.9571 1092.81 76.8687C1096.56 76.8495 1093.1 77.002 1094.91 76.9989C1102.99 76.9822 1104.76 76.7362 1112.41 76.7138C1114.01 76.7088 1113.11 76.8214 1113.4 76.83C1118 76.9658 1121.92 76.6736 1123.16 76.6559C1138.34 76.4309 1147.71 76.6 1162.33 76.4064C1164.05 76.3831 1160.16 76.2934 1165.01 76.2358C1197.5 75.8495 1231.85 75.4722 1263.93 75.1518C1268.89 75.1022 1265.35 75.2481 1265.65 75.2564C1270.9 75.3769 1274.21 75.0768 1275.85 75.0451C1288.45 74.8052 1300.74 74.8458 1309.4 74.417C1352.89 73.872 1396.96 73.083 1440.11 72.37L1439.85 73.1912C1431.18 67.0499 1422.52 60.9037 1413.88 54.7479C1413.32 54.3498 1414.4 54.9558 1413.28 54.1622C1404.14 47.6612 1402.36 46.4995 1399.31 44.5052C1397.95 43.6641 1395.95 42.7569 1392.71 43.5139C1391.45 43.7804 1388.92 44.8393 1387.35 46.7189C1385.69 48.6462 1384.01 50.2054 1383.74 50.4579C1381.73 52.2849 1383.63 50.2018 1382.97 50.8187C1377.22 55.4314 1378.85 56.0553 1369.32 59.5448C1369.28 59.5565 1369.24 59.568 1369.19 59.5793C1369.07 59.6083 1369.18 59.5661 1369.31 59.5092C1369.54 59.4127 1369.84 59.2782 1369.32 59.415C1369.31 59.4175 1369.3 59.4201 1369.29 59.4226C1366.65 60.0668 1363.95 59.8818 1361.41 59.4551C1355.59 58.2513 1353.65 57.3721 1345.22 54.2366C1344.17 53.7886 1345.58 54.9374 1337.37 51.167C1335.02 50.0941 1326.97 46.0855 1321.34 42.8884C1319.26 41.7097 1317.1 41.7786 1315.96 41.9701C1313.89 42.3768 1313.63 42.6861 1313.75 42.5486C1313.88 42.4487 1314.49 42.1918 1314.35 42.2434C1312.9 42.7426 1311.85 43.4794 1311.09 44.1725C1305.79 48.7866 1307.79 46.9385 1303.55 49.9562C1298.51 53.197 1300.12 52.6289 1298.05 53.9566C1296.04 55.4333 1287.72 58.5961 1285.51 58.6898C1283.37 59.0249 1286.02 58.501 1284.11 58.7867C1283.02 58.9348 1282.06 59.0062 1281.23 59.0397C1276.9 59.0897 1276.15 58.7514 1275.97 58.881C1275.8 58.9385 1276.23 59.1527 1274.32 58.8306C1264.47 56.797 1257.89 52.1857 1250.56 46.9774C1248.6 45.5199 1250.14 46.7791 1248.39 45.4723C1248.27 45.382 1248.16 45.2928 1248.04 45.2047C1243.69 42.1073 1238.53 42.9616 1235.14 46.1916C1233.3 48.0298 1231.21 49.9515 1228.52 52.0034C1227.32 53.0395 1220.64 57.7141 1215.44 58.7284C1214.72 58.8677 1216.73 58.3503 1213.11 59.1104C1212.89 59.1489 1212.67 59.1861 1212.43 59.2214C1206.63 60.2931 1197.72 56.3158 1192.81 53.5826C1189 51.4421 1193.25 54.1119 1188.55 51.2456C1186.48 49.9305 1190.37 52.2658 1186.51 49.7805C1182.94 47.5402 1174.69 41.4272 1170.85 38.1712C1170.52 37.9035 1170.21 37.6848 1169.92 37.5056C1168.02 36.4251 1167.44 36.5476 1167.46 36.5367C1167.46 36.5664 1167.93 36.7349 1167.76 36.691C1167 36.4711 1165.29 36.1727 1163.49 36.5493C1161.69 36.8828 1159.95 37.9089 1159 38.8326C1158.36 39.4191 1157.9 39.8303 1157.76 39.9509C1149.93 46.7213 1140.65 52.8711 1130.18 52.6565C1121.57 52.2989 1113.99 47.6132 1107.86 42.1172C1103.57 38.2883 1096.18 38.616 1092.24 42.8291C1085.69 50.0802 1075.24 56.9361 1065.09 52.5351C1063.31 51.8034 1061.53 51.0721 1059.74 50.3396C1057.06 49.2417 1058.8 50.0946 1058.39 49.9283C1049.21 46.2029 1056.56 48.8644 1050.21 46.1221C1051.03 46.7439 1047.28 45.1432 1040.82 42.5106C1037.7 41.2421 1039.36 42.033 1039.07 41.9256C1034.4 40.1658 1031.27 38.6614 1030.46 38.2829C1027.79 37.0388 1024.82 35.9492 1022.75 35.0529C1022.5 34.9448 1022.26 34.8529 1022.03 34.7725C1020.99 34.4439 1021.69 34.5626 1021.87 34.5605C1021.96 34.563 1021.92 34.5168 1021.45 34.3944C1020.97 34.2925 1020.03 34.051 1018.36 34.2959C1017.44 34.5142 1018.22 34.4401 1018.59 34.472C1018.98 34.5635 1018.88 34.3691 1016.57 35.1716C1015.51 35.5979 1014.48 36.2517 1013.58 37.1289C1006.69 43.815 995.672 52.3747 982.972 52.666C969.951 52.538 959.834 44.4653 954.226 40.0422C953.307 39.2866 952.452 38.552 951.651 37.8399C947.889 34.6111 943.353 35.1913 940.812 36.909C936.549 39.6862 933.303 41.6581 928.869 44.0744C914.353 51.2879 919.778 48.9717 910.172 52.118C905.19 53.305 903.797 52.8856 903.586 52.8369C903.369 52.7247 904.239 52.5883 903.509 52.5414C902.653 52.477 901.72 52.4259 900.762 52.2506C900.146 52.1375 899.51 51.9935 898.854 51.7918C897.187 51.2379 900.825 52.31 896.912 51.028C892.771 50.0649 883.828 42.9292 882.94 41.7252C882.627 41.4416 882.417 41.2596 882.275 41.1492C881.82 40.8082 882.004 41.1017 881.473 40.6819C880.908 40.4061 879.758 38.7066 875.172 38.0478C874.559 38.0014 876.566 38.0076 874.208 37.8678C872.019 37.8415 869.787 38.4843 868.038 39.8389C859.334 46.4613 848.975 52.3615 837.656 52.4543C831.475 52.4317 825.506 50.4802 820.12 47.8166C817.765 46.6179 819.929 47.5726 818.569 46.8602C806.798 39.8939 808.932 40.6611 805.135 38.0994C804.534 37.6491 803.736 37.1371 802.588 36.7191C803.373 36.9276 803.135 36.5761 801.577 36.0366C800.096 35.586 796.746 34.9423 793.187 37.4767C791.968 38.3847 790.575 39.3885 789.028 40.4393C782.93 44.4266 784.03 43.8174 779.93 46.1617C778.703 46.8874 773.948 48.9028 773.078 49.2495C770.189 50.3011 775.147 49.851 762.77 52.3798C762.221 52.4505 763.95 52.095 762.055 52.3422C761.065 52.4597 760.14 52.5313 759.273 52.5686C749.435 52.3246 747.034 51.6568 735.76 46.9855C730.86 44.782 724.276 41.1386 717.959 36.8409C714.915 34.7199 710.511 34.9743 707.731 37.1447C705.191 39.0647 702.693 40.78 700.433 42.2216C700.498 41.8685 690.94 47.6675 686.694 49.3944C683.006 50.8668 679.006 52.0721 674.927 52.6046C671.051 53.0844 667.216 52.6039 663.663 51.9458C661.153 51.4469 662.824 51.6632 662.51 51.5913C657.702 50.4104 654.459 49.6055 652.867 49.1309C640.541 45.2406 630.354 40.4817 619.957 35.3111C617.206 33.8958 613.642 34.2168 611.085 36.1218C609.919 36.9785 608.715 37.8317 607.484 38.6735C606.966 39.0094 606.327 39.8236 602.286 42.0481C602.024 42.1773 606.848 39.2084 599.875 43.2879C594.079 46.568 583.333 51.7165 573.071 52.4888C570.985 52.6551 568.948 52.5851 567.042 52.4165C564.329 52.2639 557.492 51.0815 552.312 49.1369C551.621 48.8859 552.406 49.0712 551.415 48.6967C548.22 47.4645 546.375 47.046 542.737 45.3104C539.463 43.7326 532.98 40.7332 524.471 36.1933C523.522 35.6857 522.45 35.3472 521.328 35.2214C521.003 35.1922 518.082 34.9405 515.025 36.8236C514.309 37.2615 513.602 37.8179 512.965 38.4957C509.338 42.4155 504.161 46.6106 499.66 48.9019C497.127 50.1701 498.801 49.4702 498.361 49.6915C495.18 51.2069 491.922 52.1561 488.696 52.4551C475.544 52.7389 465.642 45.5615 454.484 37.0113C453.296 36.0487 451.823 35.3754 450.232 35.1236C448.881 34.8912 446.295 34.9139 443.949 36.5304C440.087 39.1885 435.069 42.3217 431.054 44.4027C423.84 47.6958 431.274 44.6423 414.302 50.9072C411.427 51.6783 408.11 52.5672 404.355 52.0641C398.985 51.2937 392.896 48.2146 387.565 42.5444C387.015 42.0009 386.479 41.4456 385.956 40.8798C382.309 36.9435 375.777 36.1074 371.536 39.2951C362.348 46.0945 351.883 51.8927 340.299 52.1722C332.786 52.2211 325.443 49.5692 318.594 46.0062C317.562 45.4837 314.262 43.8657 311.983 42.3545C310.389 41.3128 309.177 40.4353 308.095 39.6247C306.878 38.7217 305.603 38.1858 304.097 37.926C300.106 37.2817 295.964 38.8426 293.448 41.7767C288.998 46.9914 283.232 51.3341 276.303 52.3762C275.496 52.4979 274.668 52.5479 273.846 52.5376C269.427 52.177 270.924 52.3697 265.89 50.8331C260.961 48.9754 257.739 47.4186 251.831 43.3762C249.151 41.4975 246.6 39.4255 243.847 37.0289C242.014 35.4199 239.281 34.4447 236.361 34.9103C236.264 35.1084 234.807 35.2154 232.767 36.6174C230.855 37.977 228.038 39.8778 224.344 42.092C222.893 42.955 224.509 42.127 223.822 42.5399C221.042 44.2086 218.346 45.5482 215.584 46.9137C214.911 47.2442 214.918 47.3456 214.367 47.6146C209.723 50.0704 201.288 52.1595 199.798 52.1588C197.164 52.4942 195.172 52.5251 193.367 52.3957C191.312 52.234 189.491 51.9452 187.264 51.3253C183.131 50.0456 189.329 51.8691 184.532 50.3166C177.521 47.8703 169.933 42.9451 163.688 37.44C161.068 35.1189 157.298 34.4946 154.333 35.5351C153.268 35.9077 152.739 36.2727 152.467 36.4521C152.024 36.7585 152.303 36.6228 152.51 36.5199C152.651 36.4496 152.762 36.3973 152.611 36.4905C152.582 36.5081 152.554 36.526 152.526 36.544C145.184 41.2735 137.26 45.1957 132.908 47.3308C126.994 48.8474 128.25 50.2399 115.837 52.3381C114.839 52.4047 113.603 52.2936 117.318 51.7733C121.034 51.2028 126.572 49.6189 131.371 47.4938C132.54 47.0536 138.832 43.7393 139.661 43.234C146.309 39.5679 147.391 39.2905 147.774 39.1313C149.096 38.4529 150.763 37.4718 152.437 36.404C156.109 33.8824 161.142 35.3086 162.377 36.23C162.898 36.5332 163.386 36.8825 163.836 37.271C171.206 43.5648 178.454 48.1631 186.34 50.5093C190.004 51.5289 191.543 51.5045 193.429 51.5934C194.351 51.6171 195.388 51.6187 196.832 51.5333C211.329 49.4746 216.244 46.3583 228.079 38.9891C229.982 37.6889 228.875 38.1965 232.285 35.915C233.443 35.1412 235.341 34.1764 238.167 34.2858C238.532 34.2984 241.612 34.4359 244.165 36.6436C246.049 38.2501 248.225 39.9446 249.954 41.1131C250.434 41.4373 250.474 41.348 251.105 41.7862C255.338 44.6616 258.19 46.5992 263.24 48.8749C266.977 50.4818 271.648 52.0168 276.151 51.365C277.729 51.1267 279.28 50.7047 280.758 50.1359C284.277 48.8806 288.246 45.9829 289.582 44.7489C290.776 43.7082 291.906 42.5364 292.93 41.3332C295.441 38.3707 299.115 37.1926 301.459 37.1638C303.184 37.1754 302.354 37.3187 302.237 37.3992C302.177 37.4488 302.289 37.4745 302.959 37.544C303.614 37.6429 304.898 37.6855 306.869 38.6337C307.268 38.5413 308.068 38.6924 308.673 38.8246C308.673 38.8246 308.673 38.8247 308.673 38.8247C318.091 45.5152 328.782 51.3976 340.292 51.47C347.11 51.3951 353.798 49.0527 359.948 45.836C361.985 44.7417 359.845 45.7566 362.006 44.5492C365.235 42.7015 368.193 40.7188 371.019 38.6077C375.67 35.1924 382.474 36.0057 386.549 40.335C387.461 41.3266 388.431 42.3021 389.461 43.2427C393.562 47.0004 398.773 50.248 404.507 51.2529C407.201 51.7194 410.08 51.3293 412.825 50.6827C418.116 50.0275 430.038 44.3137 438.047 39.1699C440.877 37.4009 440.717 37.5815 442.72 36.2904C442.987 36.1166 443.233 35.955 443.461 35.8044C447.191 33.6566 448.541 34.3184 448.825 34.1139C449.17 34.0735 448.768 33.9405 450.086 34.0474C452.251 34.293 453.934 35.1657 455.163 36.1657C460.07 39.9976 461.697 42.0626 470.548 46.9219C471.085 47.3505 478.537 50.211 479.623 50.3051C486.331 51.7358 480.685 50.8146 484.92 51.4781C486.209 51.6047 487.435 51.6187 488.61 51.5179C494.575 50.8986 499.535 48.8126 505.677 44.0603C507.111 42.9392 509.748 40.5784 512.269 37.8441C513.655 36.3409 515.539 35.2644 517.417 34.816C518.166 34.6491 517.776 34.8441 518.377 34.732C521.108 34.2881 523.245 34.942 524.725 35.7259C528.871 37.901 530.084 38.2947 534.065 40.1537C539.351 42.6686 547.635 46.2422 549.362 46.8703C553.83 48.64 545.874 45.6899 545.645 45.5539C542.734 44.5793 548.84 47.0999 553.644 48.6004C554.227 49.1879 561.049 50.9586 558.651 50.0454C558.372 49.9661 554.598 48.942 553.644 48.6004C557.792 49.524 564.925 51.8191 573.002 51.5982C573.278 51.5858 573.556 51.5706 573.835 51.5527C577.736 51.0022 574.249 52.572 585.837 48.999C590.985 47.0393 588.93 47.6214 593.322 45.5696C598.735 42.9249 604.805 39.3465 610.479 35.2835C613.339 33.1956 617.348 32.8737 620.386 34.4629C622.631 35.6075 624.904 36.7199 627.022 37.7154C630.802 39.4761 627.169 37.648 629.762 38.8394C636.646 41.9608 642.773 44.6296 649.955 47.0533C650.606 47.2687 649.055 46.6184 651.29 47.3654C659.244 49.901 667.091 52.1386 674.764 51.365C683.464 50.181 691.774 46.2783 700.024 41.0064C702.043 39.7052 704.453 38.0385 706.953 36.1232C710.085 33.6371 715.149 33.259 718.72 35.7076C723.182 38.6934 727.717 41.3264 731.243 43.1709C739.426 47.4132 749.451 51.7487 759.225 51.4703C766.404 51.1702 773.009 48.6488 778.209 46.0906C786.143 41.9049 784.262 42.5651 787.479 40.4736C789.001 39.4208 790.811 38.142 792.647 36.7614C796.925 33.3857 803.349 34.7339 805.867 37.2139C807.069 38.2483 807.977 38.9804 808.314 39.2537C808.336 39.274 806.886 38.1637 805.809 37.2848C804.517 36.3014 803.549 35.7927 805.456 37.0955C805.558 37.1825 805.657 37.2685 805.752 37.3534C807.345 38.7852 808.253 39.2035 808.314 39.2537C809.018 40.2708 822.127 48.4739 825.219 49.0253C826.775 49.5782 825.946 49.1528 826.759 49.4284C830.293 50.5925 833.976 51.3079 837.656 51.2933C848.478 51.1428 858.573 45.4516 867.237 38.8075C872.008 35.1574 879.116 36.0583 883.136 40.3462C883.62 40.8673 884.114 41.3786 884.619 41.8793C884.878 42.1358 884.393 41.8484 885.006 42.4469C890.296 47.5376 895.54 50.3521 900.935 51.3446C904.242 51.9051 907.766 51.2583 911.409 50.199C920.847 47.2347 927.766 43.1202 933.009 40.3652C935.189 39.0648 937.661 37.5367 940.159 35.913C944.064 33.2835 949.541 34.276 952.392 37.0051C953.552 38.0535 954.661 38.9976 955.636 39.7944C960.504 43.6794 961.49 43.7696 961.925 44.0969C969.387 48.7563 976.065 51.26 982.948 51.2341C989.303 51.1186 995.779 48.8196 1002.81 44.167C1005.54 42.3594 1009.15 39.5513 1012.63 36.1505C1015.27 33.5111 1019.67 32.3843 1023.23 33.898C1027.18 35.5192 1030.9 37.04 1033.8 38.2258C1040.54 40.9789 1044.57 42.7056 1050.78 45.225C1051.62 45.5667 1050.82 45.1117 1051.07 45.2134C1058.04 47.9393 1054.62 46.8271 1056.02 47.4604C1059.3 48.9381 1061.77 50.0422 1065.48 51.5937C1067.46 52.4144 1069.98 53.103 1073.27 52.8177C1075.44 52.8579 1081.2 50.4087 1084.26 47.9604C1088.25 44.8507 1086.91 46.2037 1090.69 42.4061C1090.84 42.2411 1090.89 42.1588 1091.16 41.8354C1091.5 41.4637 1092.09 40.7036 1093.75 39.7078C1098.33 37.0804 1104.61 37.2329 1108.88 40.9851C1114.81 46.3284 1122.24 50.825 1130.23 51.1178C1133.28 51.2321 1136.34 50.6432 1139.24 49.6462C1141.27 48.9052 1138.64 49.7695 1141.53 48.6134C1147.37 46.1119 1152.88 42.1006 1157.84 37.5732C1161.58 34.0779 1167.84 33.7173 1171.78 37.0449C1175.13 39.8242 1178.55 42.4778 1181.91 44.9007C1184.84 46.9896 1182.94 45.7678 1183.56 46.2404C1187.38 49.174 1193.39 52.3694 1194.38 52.8399C1200.31 55.9074 1206.51 58.5398 1212.21 57.7839C1220.75 56.3646 1227.99 51.2383 1234.14 45.1847C1237.87 41.4398 1244.38 40.6021 1248.92 44.0663C1252.6 46.8949 1256.59 49.6098 1260.99 51.9889C1262.21 52.8495 1272.65 57.3448 1277.6 57.6566C1277.77 57.6758 1279.22 57.9288 1281.18 57.8801C1282.92 57.8417 1285.08 57.541 1287.03 56.9572C1287.28 56.8485 1284.33 57.6143 1289.45 56.1215C1294.57 54.5607 1302.11 49.9847 1307.78 45.0958C1308.34 44.6333 1309.14 43.9657 1310.09 43.1118C1312.31 41.0127 1317.23 38.9085 1322.14 41.4599C1322.32 41.5518 1322.5 41.6455 1322.68 41.7409C1323.09 42.0061 1333.01 46.8193 1336.45 48.725C1337.01 49.0121 1336.22 49.1553 1344.09 52.4132C1345.6 53.009 1342.9 51.8278 1346.88 53.4039C1352.87 55.5887 1361.57 59.2769 1368.81 57.7234C1368.82 57.7212 1368.83 57.7191 1368.83 57.7168C1370.2 57.4451 1375.42 55.1439 1379.08 52.2612C1379.66 51.8176 1378.67 52.8021 1380.56 51.2148C1382.51 49.5354 1384.33 47.6424 1386.01 45.6126C1389.24 41.6029 1395.67 39.9261 1400.24 43.178C1404.4 46.1121 1408.57 49.0512 1412.66 51.9729C1416.22 54.51 1414.29 53.3632 1417.99 56.0234C1421.69 58.6843 1429.16 64.0051 1433.1 66.6861C1437.04 69.3678 1432.94 66.1461 1438.79 70.2412C1439.49 70.7321 1440.19 71.2231 1440.89 71.7141L1444.27 74.0978L1440.14 74.1767C1410.2 74.8237 1379.88 75.1716 1350.08 75.6127C1345.44 75.6809 1349.35 75.7183 1342.38 75.8271C1317.56 76.2196 1274.36 76.9156 1252.71 76.984C1235.13 77.0446 1257.3 76.6336 1243.81 76.7391C1237.54 76.7869 1230.6 77.1897 1229.04 77.2189C1213.83 77.5079 1203.33 77.4919 1189.84 77.6893C1187.04 77.73 1189.78 77.8271 1187.41 77.8603C1179.26 77.975 1170.56 78.0137 1162.87 78.1067C1159.38 78.1491 1160.02 78.2402 1156.79 78.2668C1148.99 78.3324 1142.27 78.3603 1134.77 78.3438C1134.09 78.3423 1138.7 78.1742 1133 78.2267C1123.67 78.313 1112.38 78.3312 1101.7 78.5226C1098.55 78.5795 1098.34 78.8057 1091.63 78.7111C1090.21 78.6913 1092.03 78.4069 1084.18 78.708C1082.9 78.7582 1069.5 79.1863 1063.07 79.0361C1061.37 78.9969 1057.02 78.8121 1053.23 78.8766C1052.72 78.8861 1054.78 78.9902 1051.64 79.0267C1040.49 79.1535 1029.04 79.2256 1017.62 79.3423C1014.57 79.3737 1019.11 79.4668 1014.56 79.5095C1002.16 79.6263 986.567 79.6924 974.461 79.722C969.994 79.7327 973.081 79.6121 972.756 79.6028C967.525 79.4498 964.419 79.7127 962.676 79.7364C951.778 79.8806 943.624 79.8047 933.624 79.8805C930.866 79.9009 932.823 80.0096 932.273 80.0225C926.575 80.1499 930.82 79.9204 927.21 79.9128C917.08 79.8906 905.941 79.9425 895.688 79.9913C891.929 80.0093 896.155 80.1317 892.78 80.1461C872.944 80.2335 852.24 80.2667 832.804 80.2146C829.138 80.2045 831.444 80.097 830.68 80.0739C825.441 79.9126 817.755 80.1468 815.983 80.1694C808.619 80.2645 805.369 80.1953 799.416 80.1962C798.85 80.1939 798.266 80.1921 797.653 80.1909C762.639 80.1286 720.213 79.872 687.149 79.6708C644.517 79.4116 611.253 79.1361 570.553 78.9339C567.953 78.9208 570.573 79.075 568.334 79.0655C539.709 78.9378 511.341 78.716 482.278 78.577C479.92 78.5655 483.315 78.7187 479.535 78.7047C471.869 78.6774 461.868 78.6075 453.944 78.5149C450.089 78.4701 455.259 78.3895 451.381 78.3467C442.315 78.2464 432.967 78.1766 423.474 78.1357C419.503 78.1189 425.49 78.2935 420.333 78.2612C385.66 78.0468 351.121 77.8316 315.889 77.4003C313.476 77.3707 311.355 77.0804 306.282 77.0959C305.9 77.1694 305.92 77.2593 305.753 77.3396C254.922 77.0099 204.921 76.5213 153.655 76.0698C151.522 76.051 155.2 76.2281 151.081 76.1925C126.945 75.9839 103.662 75.8181 79.0032 75.4452C76.5711 75.4085 77.7197 75.1631 70.7501 75.1368C69.5902 75.1332 58.3379 75.0612 55.8387 75.0928C55.4514 75.0975 57.4414 75.2361 53.957 75.2063C35.4796 75.0457 16.3785 74.8373 -2.01566 74.5823L-2.55494 72.3077C-0.821461 71.4198 0.905574 70.5357 2.62469 69.6561C5.53634 68.1667 2.49994 69.8774 4.57426 68.8175C19.2882 61.2983 35.2146 52.9682 49.2979 45.8287C58.725 41.0501 55.349 43.0405 60.4389 40.657C61.1587 40.3198 66.9764 37.3222 67.3349 37.279C68.2524 37.1622 65.5949 38.9247 66.9057 38.6284C67.1832 38.567 74.9356 34.4771 70.4051 37.0136C70.0884 37.1904 64.4686 40.157 63.1052 40.9279C62.1558 41.4644 63.9595 40.6776 62.0081 41.7444C60.0569 42.811 57.8368 43.836 54.59 45.5818C51.345 47.3275 52.8514 46.7141 46.3212 50.1044ZM980.454 51.6828C981.434 51.7843 982.274 51.803 982.957 51.7846C985.697 51.6303 985.894 51.4053 982.953 51.5319C982.375 51.5382 981.674 51.5341 980.844 51.4926C980.549 51.4788 980.162 51.6517 980.454 51.6828ZM342.317 51.7485C349.858 51.2197 354.549 48.6164 349.473 50.2008C344.361 51.5173 340.033 51.7706 342.317 51.7485ZM271.492 51.9635C273.463 52.2726 275.085 52.1928 276.245 51.9871C279.279 51.3283 279.41 51.0617 276.191 51.6335C275.227 51.7614 273.927 51.845 272.275 51.7026C271.751 51.6601 270.984 51.8807 271.492 51.9635ZM37.3241 52.6582C37.3982 52.6266 41.5812 50.4739 41.6784 50.4171C43.839 49.1415 35.4747 53.4461 37.3241 52.6582ZM201.739 51.4714C204.514 51.1422 211.969 48.2411 208.698 49.3286C206.118 50.3696 198.361 52.0672 201.739 51.4714ZM1250.49 46.6565C1250.55 46.7247 1253.31 48.6693 1253.28 48.5909C1253.14 48.3818 1249.32 45.674 1250.49 46.6565ZM81.5826 36.94C88.7965 43.6204 95.7529 47.5175 98.2057 48.7731C100.766 49.883 98.111 49.7535 89.193 43.706C85.9675 41.5407 96.2997 48.1515 92.1659 45.4314C87.835 42.615 84.5277 40.0414 81.2722 37.1478C78.9353 35.0552 75.2447 33.9314 71.6799 35.5483C70.9653 35.9577 72.8261 34.5297 75.5175 34.5632C78.2197 34.474 80.9553 36.2717 81.5175 36.8802C81.5536 36.9127 81.5841 36.9403 81.6084 36.9626C81.5997 36.955 81.5912 36.9475 81.5826 36.94ZM983.757 52.2803C983.882 52.3743 988.513 51.7536 988.606 51.6384C989.821 51.2784 988.148 51.6811 986.383 51.9255C984.621 52.1858 982.766 52.236 983.757 52.2803ZM1424.16 61.8435C1424.36 62.0023 1433.21 68.2529 1433.51 68.4469C1438.27 71.5122 1420.37 58.8746 1424.16 61.8435ZM700.271 42.3136C696.056 45.2122 690.589 48.0671 686.716 49.3859C691.441 47.4969 695.961 45.0503 700.271 42.3136Z"
     fill="#1A1918"
     id="path4"
     style="stroke:#000000;stroke-opacity:1" />
</svg>
