<?xml version="1.0" encoding="UTF-8" standalone="no"?><!DOCTYPE svg PUBLIC "-//W3C//DTD SVG 1.1//EN" "http://www.w3.org/Graphics/SVG/1.1/DTD/svg11.dtd"><svg width="100%" height="100%" viewBox="0 0 1440 81" version="1.1" xmlns="http://www.w3.org/2000/svg" xmlns:xlink="http://www.w3.org/1999/xlink" xml:space="preserve" xmlns:serif="http://www.serif.com/" style="fill-rule:evenodd;clip-rule:evenodd;"><path id="path2" d="M71.449,35.462l-73.452,37.916c0,0 314.51,3.434 801.419,5.504c330.774,0 640.694,-6.06 640.694,-6.06l-40.6,-28.609c-3.92,-2.766 -9.46,-1.498 -12.52,2.206c-3.96,4.801 -10.06,10.532 -17.81,12.607c-10.81,2.898 -36.05,-10.134 -47.59,-16.584c-3.45,-1.93 -7.83,-1.203 -10.71,1.511c-6.09,5.737 -17.32,14.493 -29.65,15.073c-11.88,0.56 -25.12,-7.918 -33.04,-14.015c-3.88,-2.99 -9.73,-2.436 -13.2,1.027c-5.16,5.155 -13.2,11.503 -22.59,12.988c-11.82,1.871 -31.43,-12.687 -41.46,-20.961c-3.52,-2.901 -8.83,-2.584 -12.19,0.497c-6.49,5.946 -17.5,14.147 -28.56,13.746c-8.82,-0.32 -16.62,-5.46 -22.13,-10.41c-4.36,-3.916 -12.04,-3.554 -16.01,0.756c-6.37,6.901 -16.14,14.079 -26.87,9.654l-42.34,-17.46c-3.25,-1.336 -6.99,-0.415 -9.5,2.027c-5.91,5.732 -17.588,15.221 -30.374,15.433c-12.325,0.204 -24.484,-8.76 -31.139,-14.666c-3.076,-2.731 -7.716,-3.204 -11.155,-0.948c-9.71,6.37 -28.947,17.715 -39.921,15.614c-7.725,-1.479 -14.048,-6.596 -18.383,-11.246c-3.639,-3.903 -10.26,-4.682 -14.474,-1.409c-7.281,5.656 -18.634,12.655 -30.238,12.655c-12.818,0 -25.329,-8.538 -32.384,-14.375c-3.382,-2.798 -8.467,-2.949 -11.97,-0.304c-7.482,5.646 -20.794,14.102 -34.04,14.679c-14.422,0.628 -32.246,-9.894 -41.07,-15.815c-3.229,-2.167 -7.589,-1.997 -10.682,0.361c-6.914,5.272 -19.762,13.768 -32.622,15.454c-14.947,1.96 -43.488,-11.47 -54.827,-17.202c-2.933,-1.483 -6.471,-1.13 -9.134,0.796c-7.339,5.307 -22.909,15.256 -37.87,16.406c-14.997,1.153 -37.599,-9.906 -48.68,-15.943c-3.746,-2.04 -8.526,-1.01 -11.44,2.104c-5.104,5.453 -13.841,12.875 -24.254,13.839c-11.804,1.093 -26.54,-9.201 -34.169,-15.334c-3.035,-2.44 -7.377,-2.681 -10.607,-0.506c-9.371,6.31 -28.499,17.922 -39.598,15.84c-7.795,-1.462 -14.13,-6.662 -18.436,-11.353c-3.569,-3.888 -10.065,-4.761 -14.281,-1.587c-7.507,5.652 -19.347,12.81 -31.291,12.94c-11.901,0.13 -24.224,-7.029 -32.155,-12.754c-4.417,-3.189 -11.173,-1.931 -14.717,2.206c-3.94,4.599 -9.713,9.431 -17.136,10.548c-10.554,1.589 -24.962,-8.797 -32.59,-15.106c-3.082,-2.55 -7.582,-2.768 -10.88,-0.504c-8.842,6.068 -26.3,16.626 -39.45,15.61c-12.127,-0.937 -23.472,-9.241 -29.773,-14.767c-3.058,-2.682 -7.637,-3.17 -11.071,-0.993c-9.696,6.149 -29.151,17.169 -42.075,15.76c-12.075,-1.316 -23.162,-9.913 -29.046,-15.309c-2.704,-2.479 -6.699,-3.219 -9.959,-1.537Z" style="fill:#58a5e4;fill-rule:nonzero;"/><path id="path4" d="M46.321,50.104c-14.321,7.434 -32.883,16.977 -47.666,24.548l-0.642,-2.708c-0.094,0.001 1.183,0.016 1.315,0.019c0.386,0.006 0.854,0.012 1.398,0.02c5.202,0.072 2.751,0.126 6.374,0.18c7.534,0.109 13.723,0.132 21.011,0.242c2.506,0.037 -0.632,0.132 2.025,0.169c13.475,0.189 26.004,0.277 40.077,0.436c67.576,0.762 133.928,1.36 202.566,1.938c22.242,0.188 50.157,0.507 73.199,0.619c2.717,0.014 1.099,-0.108 1.616,-0.114c8.14,-0.082 5.434,0.122 10.792,0.189c20.951,0.264 44.438,0.433 64.678,0.522c8.71,0.039 -0.038,-0.238 8.765,-0.057c0.613,0.012 -1.612,0.115 0.792,0.143c5.258,0.062 15.357,0.106 19.529,0.142c8.026,0.07 9.386,0.077 17.047,0.126c10.182,0.067 22.468,0.201 33.728,0.242c2.404,0.009 -0.78,-0.131 3.058,-0.128c3.723,0.002 13.645,0.071 17.025,0.12c3.372,0.048 1.936,0.134 2.533,0.159c4.899,0.212 16.594,0.027 18.116,0.029c26.911,0.049 50.308,0.323 75.906,0.459c19.246,0.102 40.193,0.162 58.438,0.259c21.887,0.117 40.542,0.272 61.846,0.358c2.26,0.01 -0.389,-0.144 2.373,-0.133c19.342,0.078 37.896,0.163 57.2,0.275c10.07,0.016 20.121,0.034 30.154,0.056c2.915,0.007 -0.847,0.135 2.073,0.149c17.866,0.085 46.092,0.262 56.644,-0.314c12.104,-0.016 26.746,-0.048 37.556,0.014c6.992,0.04 0.208,0.205 8.783,0.109c1.932,-0.021 -0.58,-0.128 2.315,-0.152c12.134,-0.099 25.543,-0.129 37.552,-0.259c2.442,-0.027 1.774,-0.129 2.466,-0.152c5.764,-0.188 15.618,0.007 17.712,0.012c16.045,0.038 28.015,-0.1 42.915,-0.208c3.46,-0.025 -0.66,-0.136 2.72,-0.166c17.51,-0.153 35.56,-0.29 52.5,-0.378c3.75,-0.019 0.29,0.133 2.1,0.13c8.08,-0.017 9.85,-0.263 17.5,-0.285c1.6,-0.005 0.7,0.107 0.99,0.116c4.6,0.136 8.52,-0.156 9.76,-0.174c15.18,-0.225 24.55,-0.056 39.17,-0.25c1.72,-0.023 -2.17,-0.113 2.68,-0.17c32.49,-0.386 66.84,-0.764 98.92,-1.084c4.96,-0.05 1.42,0.096 1.72,0.104c5.25,0.121 8.56,-0.179 10.2,-0.211c12.6,-0.24 24.89,-0.199 33.55,-0.628c43.49,-0.545 87.56,-1.334 130.71,-2.047l-0.26,0.821c-8.67,-6.141 -17.33,-12.287 -25.97,-18.443c-0.56,-0.398 0.52,0.208 -0.6,-0.586c-9.14,-6.501 -10.92,-7.663 -13.97,-9.657c-1.36,-0.841 -3.36,-1.748 -6.6,-0.991c-1.26,0.266 -3.79,1.325 -5.36,3.205c-1.66,1.927 -3.34,3.486 -3.61,3.739c-2.01,1.827 -0.11,-0.256 -0.77,0.361c-5.75,4.612 -4.12,5.236 -13.65,8.726c-0.04,0.011 -0.08,0.023 -0.13,0.034c-0.12,0.029 -0.01,-0.013 0.12,-0.07c0.23,-0.096 0.53,-0.231 0.01,-0.094c-0.01,0.002 -0.02,0.005 -0.03,0.008c-2.64,0.644 -5.34,0.459 -7.88,0.032c-5.82,-1.204 -7.76,-2.083 -16.19,-5.218c-1.05,-0.448 0.36,0.7 -7.85,-3.07c-2.35,-1.073 -10.4,-5.081 -16.03,-8.279c-2.08,-1.178 -4.24,-1.109 -5.38,-0.918c-2.07,0.407 -2.33,0.716 -2.21,0.579c0.13,-0.1 0.74,-0.357 0.6,-0.306c-1.45,0.5 -2.5,1.236 -3.26,1.929c-5.3,4.615 -3.3,2.766 -7.54,5.784c-5.04,3.241 -3.43,2.673 -5.5,4.001c-2.01,1.476 -10.33,4.639 -12.54,4.733c-2.14,0.335 0.51,-0.189 -1.4,0.097c-1.09,0.148 -2.05,0.219 -2.88,0.253c-4.33,0.05 -5.08,-0.289 -5.26,-0.159c-0.17,0.057 0.26,0.272 -1.65,-0.05c-9.85,-2.034 -16.43,-6.645 -23.76,-11.854c-1.96,-1.457 -0.42,-0.198 -2.17,-1.505c-0.12,-0.09 -0.23,-0.179 -0.35,-0.267c-4.35,-3.098 -9.51,-2.243 -12.9,0.987c-1.84,1.838 -3.93,3.76 -6.62,5.811c-1.2,1.036 -7.88,5.711 -13.08,6.725c-0.72,0.14 1.29,-0.378 -2.33,0.382c-0.22,0.039 -0.44,0.076 -0.68,0.111c-5.8,1.072 -14.71,-2.905 -19.62,-5.638c-3.81,-2.141 0.44,0.529 -4.26,-2.337c-2.07,-1.315 1.82,1.02 -2.04,-1.465c-3.57,-2.241 -11.82,-8.354 -15.66,-11.61c-0.33,-0.267 -0.64,-0.486 -0.93,-0.665c-1.9,-1.081 -2.48,-0.958 -2.46,-0.969c0,0.029 0.47,0.198 0.3,0.154c-0.76,-0.22 -2.47,-0.518 -4.27,-0.142c-1.8,0.334 -3.54,1.36 -4.49,2.284c-0.64,0.586 -1.1,0.997 -1.24,1.118c-7.83,6.77 -17.11,12.92 -27.58,12.706c-8.61,-0.358 -16.19,-5.044 -22.32,-10.54c-4.29,-3.829 -11.68,-3.501 -15.62,0.712c-6.55,7.251 -17,14.107 -27.15,9.706c-1.78,-0.732 -3.56,-1.463 -5.35,-2.195c-2.68,-1.098 -0.94,-0.245 -1.35,-0.412c-9.18,-3.725 -1.83,-1.064 -8.18,-3.806c0.82,0.622 -2.93,-0.979 -9.39,-3.611c-3.12,-1.269 -1.46,-0.478 -1.75,-0.585c-4.67,-1.76 -7.8,-3.265 -8.61,-3.643c-2.67,-1.244 -5.64,-2.334 -7.71,-3.23c-0.25,-0.108 -0.49,-0.2 -0.72,-0.28c-1.04,-0.329 -0.34,-0.21 -0.16,-0.213c0.09,0.003 0.05,-0.043 -0.42,-0.166c-0.48,-0.102 -1.42,-0.343 -3.09,-0.098c-0.92,0.218 -0.14,0.144 0.23,0.176c0.39,0.091 0.29,-0.103 -2.02,0.7c-1.06,0.426 -2.09,1.08 -2.99,1.957c-6.89,6.686 -17.908,15.246 -30.608,15.537c-13.021,-0.128 -23.138,-8.201 -28.746,-12.624c-0.919,-0.755 -1.774,-1.49 -2.575,-2.202c-3.762,-3.229 -8.298,-2.649 -10.839,-0.931c-4.263,2.777 -7.509,4.749 -11.943,7.165c-14.516,7.214 -9.091,4.898 -18.697,8.044c-4.982,1.187 -6.375,0.768 -6.586,0.719c-0.217,-0.112 0.653,-0.249 -0.077,-0.296c-0.856,-0.064 -1.789,-0.115 -2.747,-0.29c-0.616,-0.113 -1.252,-0.258 -1.908,-0.459c-1.667,-0.554 1.971,0.518 -1.942,-0.764c-4.141,-0.963 -13.084,-8.099 -13.972,-9.303c-0.313,-0.283 -0.523,-0.465 -0.665,-0.576c-0.455,-0.341 -0.271,-0.047 -0.802,-0.467c-0.565,-0.276 -1.715,-1.975 -6.301,-2.634c-0.613,-0.047 1.394,-0.04 -0.964,-0.18c-2.189,-0.026 -4.421,0.616 -6.17,1.971c-8.704,6.622 -19.063,12.522 -30.382,12.615c-6.181,-0.022 -12.15,-1.974 -17.536,-4.637c-2.355,-1.199 -0.191,-0.244 -1.551,-0.957c-11.771,-6.966 -9.637,-6.199 -13.434,-8.761c-0.601,-0.45 -1.399,-0.962 -2.547,-1.38c0.785,0.209 0.547,-0.143 -1.011,-0.682c-1.481,-0.451 -4.831,-1.095 -8.39,1.44c-1.219,0.908 -2.612,1.912 -4.159,2.962c-6.098,3.988 -4.998,3.378 -9.098,5.723c-1.227,0.725 -5.982,2.741 -6.852,3.087c-2.889,1.052 2.069,0.602 -10.308,3.131c-0.549,0.07 1.18,-0.285 -0.715,-0.038c-0.99,0.118 -1.915,0.189 -2.782,0.227c-9.838,-0.244 -12.239,-0.912 -23.513,-5.583c-4.9,-2.204 -11.484,-5.847 -17.801,-10.145c-3.044,-2.121 -7.448,-1.867 -10.228,0.304c-2.54,1.92 -5.038,3.635 -7.298,5.077c0.065,-0.354 -9.493,5.445 -13.739,7.172c-3.688,1.473 -7.688,2.678 -11.767,3.211c-3.876,0.479 -7.711,-0.001 -11.264,-0.659c-2.51,-0.499 -0.839,-0.283 -1.153,-0.355c-4.808,-1.181 -8.051,-1.986 -9.643,-2.46c-12.326,-3.89 -22.513,-8.649 -32.91,-13.82c-2.751,-1.415 -6.315,-1.094 -8.872,0.811c-1.166,0.856 -2.37,1.71 -3.601,2.551c-0.518,0.336 -1.157,1.151 -5.198,3.375c-0.262,0.129 4.562,-2.84 -2.411,1.24c-5.796,3.28 -16.542,8.429 -26.804,9.201c-2.086,0.166 -4.123,0.096 -6.029,-0.073c-2.713,-0.152 -9.55,-1.335 -14.73,-3.279c-0.691,-0.251 0.094,-0.066 -0.897,-0.44c-3.195,-1.232 -5.04,-1.651 -8.678,-3.387c-3.274,-1.577 -9.757,-4.577 -18.266,-9.117c-0.949,-0.507 -2.021,-0.846 -3.143,-0.972c-0.325,-0.029 -3.246,-0.28 -6.303,1.603c-0.716,0.437 -1.423,0.994 -2.06,1.672c-3.627,3.92 -8.804,8.115 -13.305,10.406c-2.533,1.268 -0.859,0.568 -1.299,0.789c-3.181,1.516 -6.439,2.465 -9.665,2.764c-13.152,0.284 -23.054,-6.893 -34.212,-15.444c-1.188,-0.962 -2.661,-1.636 -4.252,-1.887c-1.351,-0.233 -3.937,-0.21 -6.283,1.406c-3.862,2.658 -8.88,5.792 -12.895,7.873c-7.214,3.293 0.22,0.239 -16.752,6.504c-2.875,0.771 -6.192,1.66 -9.947,1.157c-5.37,-0.77 -11.459,-3.849 -16.79,-9.52c-0.55,-0.543 -1.086,-1.098 -1.609,-1.664c-3.647,-3.936 -10.179,-4.773 -14.42,-1.585c-9.188,6.799 -19.653,12.598 -31.237,12.877c-7.513,0.049 -14.856,-2.603 -21.705,-6.166c-1.032,-0.522 -4.332,-2.14 -6.611,-3.651c-1.594,-1.042 -2.806,-1.92 -3.888,-2.73c-1.217,-0.903 -2.492,-1.439 -3.998,-1.699c-3.991,-0.644 -8.133,0.917 -10.649,3.851c-4.45,5.214 -10.216,9.557 -17.145,10.599c-0.807,0.122 -1.635,0.172 -2.457,0.162c-4.419,-0.361 -2.922,-0.168 -7.956,-1.705c-4.929,-1.858 -8.151,-3.414 -14.059,-7.457c-2.68,-1.878 -5.231,-3.951 -7.984,-6.347c-1.833,-1.609 -4.566,-2.584 -7.486,-2.119c-0.097,0.198 -1.554,0.305 -3.594,1.707c-1.912,1.36 -4.729,3.261 -8.423,5.475c-1.451,0.863 0.165,0.035 -0.522,0.448c-2.78,1.669 -5.476,3.008 -8.238,4.374c-0.673,0.33 -0.666,0.432 -1.217,0.701c-4.644,2.455 -13.079,4.545 -14.569,4.544c-2.634,0.335 -4.626,0.366 -6.431,0.237c-2.055,-0.162 -3.876,-0.451 -6.103,-1.071c-4.133,-1.279 2.065,0.544 -2.732,-1.008c-7.011,-2.447 -14.599,-7.372 -20.844,-12.877c-2.62,-2.321 -6.39,-2.945 -9.355,-1.905c-1.065,0.373 -1.594,0.738 -1.866,0.917c-0.443,0.306 -0.164,0.171 0.043,0.068c0.141,-0.07 0.252,-0.123 0.101,-0.03c-0.029,0.018 -0.057,0.036 -0.085,0.054c-7.342,4.729 -15.266,8.652 -19.618,10.787c-5.914,1.516 -4.658,2.909 -17.071,5.007c-0.998,0.067 -2.234,-0.044 1.481,-0.565c3.716,-0.57 9.254,-2.154 14.053,-4.279c1.169,-0.44 7.461,-3.755 8.29,-4.26c6.648,-3.666 7.73,-3.943 8.113,-4.103c1.322,-0.678 2.989,-1.659 4.663,-2.727c3.672,-2.522 8.705,-1.095 9.94,-0.174c0.521,0.303 1.009,0.653 1.459,1.041c7.37,6.294 14.618,10.892 22.504,13.238c3.664,1.02 5.203,0.996 7.089,1.084c0.922,0.024 1.959,0.026 3.403,-0.06c14.497,-2.058 19.412,-5.175 31.247,-12.544c1.903,-1.3 0.796,-0.792 4.206,-3.074c1.158,-0.774 3.056,-1.739 5.882,-1.629c0.365,0.012 3.445,0.15 5.998,2.358c1.884,1.606 4.06,3.301 5.789,4.469c0.48,0.324 0.52,0.235 1.151,0.673c4.233,2.876 7.085,4.813 12.135,7.089c3.737,1.607 8.408,3.142 12.911,2.49c1.578,-0.238 3.129,-0.66 4.607,-1.229c3.519,-1.255 7.488,-4.153 8.824,-5.387c1.194,-1.041 2.324,-2.213 3.348,-3.416c2.511,-2.962 6.185,-4.14 8.529,-4.169c1.725,0.011 0.895,0.155 0.778,0.235c-0.06,0.05 0.052,0.075 0.722,0.145c0.655,0.099 1.939,0.141 3.91,1.09c0.399,-0.093 1.199,0.058 1.804,0.191c9.418,6.69 20.109,12.573 31.619,12.645c6.818,-0.075 13.506,-2.417 19.656,-5.634c2.037,-1.094 -0.103,-0.079 2.058,-1.287c3.229,-1.847 6.187,-3.83 9.013,-5.941c4.651,-3.416 11.455,-2.602 15.53,1.727c0.912,0.992 1.882,1.967 2.912,2.908c4.101,3.757 9.312,7.005 15.046,8.01c2.694,0.466 5.573,0.076 8.318,-0.57c5.291,-0.655 17.213,-6.369 25.222,-11.513c2.83,-1.769 2.67,-1.589 4.673,-2.88c0.267,-0.173 0.513,-0.335 0.741,-0.486c3.73,-2.147 5.08,-1.486 5.364,-1.69c0.345,-0.04 -0.057,-0.173 1.261,-0.067c2.165,0.246 3.848,1.119 5.077,2.119c4.907,3.832 6.534,5.897 15.385,10.756c0.537,0.428 7.989,3.289 9.075,3.383c6.708,1.431 1.062,0.51 5.297,1.173c1.289,0.127 2.515,0.141 3.69,0.04c5.965,-0.619 10.925,-2.705 17.067,-7.458c1.434,-1.121 4.071,-3.482 6.592,-6.216c1.386,-1.503 3.27,-2.58 5.148,-3.028c0.749,-0.167 0.359,0.028 0.96,-0.084c2.731,-0.444 4.868,0.21 6.348,0.994c4.146,2.175 5.359,2.569 9.34,4.428c5.286,2.515 13.57,6.088 15.297,6.716c4.468,1.77 -3.488,-1.18 -3.717,-1.316c-2.911,-0.975 3.195,1.546 7.999,3.046c0.583,0.588 7.405,2.359 5.007,1.445c-0.279,-0.079 -4.053,-1.103 -5.007,-1.445c4.148,0.924 11.281,3.219 19.358,2.998c0.276,-0.012 0.554,-0.027 0.833,-0.045c3.901,-0.551 0.414,1.019 12.002,-2.554c5.148,-1.96 3.093,-1.378 7.485,-3.429c5.413,-2.645 11.483,-6.224 17.157,-10.287c2.86,-2.087 6.869,-2.409 9.907,-0.82c2.245,1.145 4.518,2.257 6.636,3.252c3.78,1.761 0.147,-0.067 2.74,1.124c6.884,3.122 13.011,5.791 20.193,8.214c0.651,0.216 -0.9,-0.435 1.335,0.312c7.954,2.536 15.801,4.774 23.474,4c8.7,-1.184 17.01,-5.087 25.26,-10.359c2.019,-1.301 4.429,-2.968 6.929,-4.883c3.132,-2.486 8.196,-2.864 11.767,-0.415c4.462,2.985 8.997,5.618 12.523,7.463c8.183,4.242 18.208,8.578 27.982,8.299c7.179,-0.3 13.784,-2.821 18.984,-5.379c7.934,-4.186 6.053,-3.526 9.27,-5.617c1.522,-1.053 3.332,-2.332 5.168,-3.713c4.278,-3.375 10.702,-2.027 13.22,0.453c1.202,1.034 2.11,1.766 2.447,2.04c0.022,0.02 -1.428,-1.09 -2.505,-1.969c-1.292,-0.984 -2.26,-1.492 -0.353,-0.189c0.102,0.086 0.201,0.173 0.296,0.257c1.593,1.432 2.501,1.85 2.562,1.901c0.704,1.017 13.813,9.22 16.905,9.771c1.556,0.553 0.727,0.128 1.54,0.403c3.534,1.165 7.217,1.88 10.897,1.865c10.822,-0.15 20.917,-5.841 29.581,-12.486c4.771,-3.65 11.879,-2.749 15.899,1.539c0.484,0.521 0.978,1.033 1.483,1.533c0.259,0.257 -0.226,-0.031 0.387,0.568c5.29,5.091 10.534,7.905 15.929,8.898c3.307,0.56 6.831,-0.087 10.474,-1.146c9.438,-2.964 16.357,-7.079 21.6,-9.834c2.18,-1.3 4.652,-2.828 7.15,-4.452c3.905,-2.63 9.382,-1.637 12.233,1.092c1.16,1.048 2.269,1.993 3.244,2.789c4.868,3.885 5.854,3.976 6.289,4.303c7.462,4.659 14.14,7.163 21.023,7.137c6.355,-0.115 12.831,-2.414 19.862,-7.067c2.73,-1.808 6.34,-4.616 9.82,-8.016c2.64,-2.64 7.04,-3.767 10.6,-2.253c3.95,1.621 7.67,3.142 10.57,4.328c6.74,2.753 10.77,4.48 16.98,6.999c0.84,0.342 0.04,-0.113 0.29,-0.012c6.97,2.726 3.55,1.614 4.95,2.247c3.28,1.478 5.75,2.582 9.46,4.134c1.98,0.82 4.5,1.509 7.79,1.224c2.17,0.04 7.93,-2.409 10.99,-4.858c3.99,-3.109 2.65,-1.756 6.43,-5.554c0.15,-0.165 0.2,-0.247 0.47,-0.571c0.34,-0.371 0.93,-1.131 2.59,-2.127c4.58,-2.628 10.86,-2.475 15.13,1.277c5.93,5.343 13.36,9.84 21.35,10.133c3.05,0.114 6.11,-0.475 9.01,-1.472c2.03,-0.741 -0.6,0.124 2.29,-1.033c5.84,-2.501 11.35,-6.512 16.31,-11.04c3.74,-3.495 10,-3.856 13.94,-0.528c3.35,2.779 6.77,5.433 10.13,7.856c2.93,2.089 1.03,0.867 1.65,1.339c3.82,2.934 9.83,6.129 10.82,6.6c5.93,3.067 12.13,5.7 17.83,4.944c8.54,-1.419 15.78,-6.546 21.93,-12.599c3.73,-3.745 10.24,-4.583 14.78,-1.119c3.68,2.829 7.67,5.544 12.07,7.923c1.22,0.86 11.66,5.356 16.61,5.668c0.17,0.019 1.62,0.272 3.58,0.223c1.74,-0.038 3.9,-0.339 5.85,-0.923c0.25,-0.108 -2.7,0.657 2.42,-0.836c5.12,-1.56 12.66,-6.136 18.33,-11.025c0.56,-0.463 1.36,-1.13 2.31,-1.984c2.22,-2.099 7.14,-4.204 12.05,-1.652c0.18,0.092 0.36,0.185 0.54,0.281c0.41,0.265 10.33,5.078 13.77,6.984c0.56,0.287 -0.23,0.43 7.64,3.688c1.51,0.596 -1.19,-0.585 2.79,0.991c5.99,2.185 14.69,5.873 21.93,4.319c0.01,-0.002 0.02,-0.004 0.02,-0.006c1.37,-0.272 6.59,-2.573 10.25,-5.456c0.58,-0.443 -0.41,0.541 1.48,-1.046c1.95,-1.68 3.77,-3.573 5.45,-5.602c3.23,-4.01 9.66,-5.687 14.23,-2.435c4.16,2.934 8.33,5.873 12.42,8.795c3.56,2.537 1.63,1.39 5.33,4.05c3.7,2.661 11.17,7.982 15.11,10.663c3.94,2.682 -0.16,-0.54 5.69,3.555c0.7,0.491 1.4,0.982 2.1,1.473l3.38,2.384l-4.13,0.079c-29.94,0.647 -60.26,0.995 -90.06,1.436c-4.64,0.068 -0.73,0.105 -7.7,0.214c-24.82,0.393 -68.02,1.089 -89.67,1.157c-17.58,0.061 4.59,-0.35 -8.9,-0.245c-6.27,0.048 -13.21,0.451 -14.77,0.48c-15.21,0.289 -25.71,0.273 -39.2,0.47c-2.8,0.041 -0.06,0.138 -2.43,0.171c-8.15,0.115 -16.85,0.154 -24.54,0.247c-3.49,0.042 -2.85,0.133 -6.08,0.16c-7.8,0.065 -14.52,0.093 -22.02,0.077c-0.68,-0.002 3.93,-0.17 -1.77,-0.117c-9.33,0.086 -20.62,0.104 -31.3,0.296c-3.15,0.056 -3.36,0.283 -10.07,0.188c-1.42,-0.02 0.4,-0.304 -7.45,-0.003c-1.28,0.05 -14.68,0.478 -21.11,0.328c-1.7,-0.039 -6.05,-0.224 -9.84,-0.159c-0.51,0.009 1.55,0.113 -1.59,0.15c-11.15,0.126 -22.6,0.199 -34.02,0.315c-3.05,0.032 1.49,0.125 -3.06,0.168c-12.4,0.116 -27.993,0.182 -40.099,0.212c-4.467,0.011 -1.38,-0.11 -1.705,-0.119c-5.231,-0.153 -8.337,0.11 -10.08,0.133c-10.898,0.145 -19.052,0.069 -29.052,0.144c-2.758,0.021 -0.801,0.13 -1.351,0.142c-5.698,0.128 -1.453,-0.102 -5.063,-0.109c-10.13,-0.022 -21.269,0.029 -31.522,0.078c-3.759,0.018 0.467,0.141 -2.908,0.155c-19.836,0.088 -40.54,0.121 -59.976,0.069c-3.666,-0.011 -1.36,-0.118 -2.124,-0.141c-5.239,-0.161 -12.925,0.073 -14.697,0.095c-7.364,0.095 -10.614,0.026 -16.567,0.027c-0.566,-0.002 -1.15,-0.004 -1.763,-0.005c-35.014,-0.062 -77.44,-0.319 -110.504,-0.52c-42.632,-0.259 -75.896,-0.535 -116.596,-0.737c-2.6,-0.013 0.02,0.141 -2.219,0.132c-28.625,-0.128 -56.993,-0.35 -86.056,-0.489c-2.358,-0.011 1.037,0.142 -2.743,0.128c-7.666,-0.028 -17.667,-0.097 -25.591,-0.19c-3.855,-0.045 1.315,-0.126 -2.563,-0.168c-9.066,-0.101 -18.414,-0.17 -27.907,-0.211c-3.971,-0.017 2.016,0.157 -3.141,0.125c-34.673,-0.214 -69.212,-0.429 -104.444,-0.861c-2.413,-0.029 -4.534,-0.32 -9.607,-0.304c-0.382,0.073 -0.362,0.163 -0.529,0.244c-50.831,-0.33 -100.832,-0.819 -152.098,-1.27c-2.133,-0.019 1.545,0.158 -2.574,0.122c-24.136,-0.208 -47.419,-0.374 -72.078,-0.747c-2.432,-0.036 -1.283,-0.282 -8.253,-0.308c-1.16,-0.004 -12.412,-0.076 -14.911,-0.044c-0.388,0.004 1.602,0.143 -1.882,0.113c-18.477,-0.16 -37.579,-0.369 -55.973,-0.624l-0.539,-2.274c1.734,-0.888 3.461,-1.772 5.18,-2.652c2.911,-1.489 -0.125,0.221 1.949,-0.839c14.714,-7.519 30.641,-15.849 44.724,-22.988c9.427,-4.779 6.051,-2.788 11.141,-5.172c0.72,-0.337 6.537,-3.335 6.896,-3.378c0.917,-0.117 -1.74,1.646 -0.429,1.349c0.277,-0.061 8.03,-4.151 3.499,-1.614c-0.317,0.176 -5.936,3.143 -7.3,3.914c-0.949,0.536 0.854,-0.25 -1.097,0.816c-1.951,1.067 -4.171,2.092 -7.418,3.838c-3.245,1.746 -1.739,1.132 -8.269,4.522Zm934.133,1.579c0.98,0.101 1.82,0.12 2.503,0.102c2.74,-0.155 2.937,-0.38 -0.004,-0.253c-0.578,0.006 -1.279,0.002 -2.109,-0.039c-0.295,-0.014 -0.682,0.159 -0.39,0.19Zm-638.137,0.065c7.541,-0.528 12.232,-3.132 7.156,-1.547c-5.112,1.316 -9.44,1.57 -7.156,1.547Zm-70.825,0.216c1.971,0.309 3.593,0.229 4.753,0.023c3.034,-0.659 3.165,-0.925 -0.054,-0.354c-0.964,0.128 -2.264,0.212 -3.916,0.07c-0.524,-0.043 -1.291,0.178 -0.783,0.261Zm-234.168,0.694c0.074,-0.031 4.257,-2.184 4.354,-2.241c2.161,-1.275 -6.203,3.029 -4.354,2.241Zm164.415,-1.187c2.775,-0.329 10.23,-3.23 6.959,-2.142c-2.58,1.041 -10.337,2.738 -6.959,2.142Zm1048.751,-4.814c0.06,0.068 2.82,2.012 2.79,1.934c-0.14,-0.209 -3.96,-2.917 -2.79,-1.934Zm-1168.907,-9.717c7.213,6.68 14.17,10.577 16.623,11.833c2.56,1.11 -0.095,0.981 -9.013,-5.067c-3.225,-2.165 7.107,4.445 2.973,1.725c-4.331,-2.816 -7.638,-5.39 -10.894,-8.283c-2.337,-2.093 -6.027,-3.217 -9.592,-1.6c-0.715,0.41 1.146,-1.018 3.837,-0.985c2.703,-0.089 5.438,1.709 6,2.317c0.037,0.033 0.067,0.06 0.091,0.083c-0.008,-0.008 -0.017,-0.016 -0.025,-0.023Zm902.174,15.34c0.125,0.094 4.756,-0.526 4.849,-0.642c1.215,-0.36 -0.458,0.043 -2.223,0.287c-1.762,0.261 -3.617,0.311 -2.626,0.355Zm440.403,9.563c0.2,0.159 9.05,6.41 9.35,6.604c4.76,3.065 -13.14,-9.572 -9.35,-6.604Zm-723.889,-19.529c-4.215,2.898 -9.682,5.753 -13.555,7.072c4.725,-1.889 9.245,-4.336 13.555,-7.072Z" style="fill:#6ab7fb;fill-rule:nonzero;stroke:#000;stroke-width:1px;"/><g><rect x="-12" y="71" width="1454" height="12" style="fill:#58a5e4;"/></g><path d="M26.543,66l25.081,6" style="fill:none;"/><g><rect x="7" y="71" width="28" height="2" style="fill:#58a5e4;"/></g></svg>