<?xml version="1.0" encoding="UTF-8" standalone="no"?><!DOCTYPE svg PUBLIC "-//W3C//DTD SVG 1.1//EN" "http://www.w3.org/Graphics/SVG/1.1/DTD/svg11.dtd"><svg width="100%" height="100%" viewBox="0 0 390 81" version="1.1" xmlns="http://www.w3.org/2000/svg" xmlns:xlink="http://www.w3.org/1999/xlink" xml:space="preserve" xmlns:serif="http://www.serif.com/" style="fill-rule:evenodd;clip-rule:evenodd;stroke-linejoin:round;stroke-miterlimit:2;"><path d="M-453.154,36.074l-73.452,37.916c0,0 314.51,3.434 801.419,5.504c330.773,0 640.698,-6.06 640.698,-6.06l-40.602,-28.609c-3.925,-2.766 -9.467,-1.498 -12.522,2.206c-3.959,4.801 -10.063,10.532 -17.805,12.608c-10.814,2.898 -36.054,-10.135 -47.591,-16.584c-3.453,-1.93 -7.834,-1.203 -10.713,1.511c-6.088,5.737 -17.319,14.493 -29.647,15.074c-11.881,0.559 -25.127,-7.918 -33.042,-14.015c-3.882,-2.99 -9.736,-2.436 -13.202,1.027c-5.157,5.154 -13.198,11.502 -22.587,12.988c-11.818,1.87 -31.435,-12.688 -41.467,-20.961c-3.518,-2.901 -8.826,-2.585 -12.188,0.496c-6.488,5.946 -17.503,14.148 -28.56,13.746c-8.82,-0.32 -16.614,-5.46 -22.128,-10.41c-4.362,-3.916 -12.04,-3.554 -16.014,0.755c-6.365,6.902 -16.132,14.079 -26.865,9.654l-42.345,-17.46c-3.241,-1.336 -6.983,-0.416 -9.498,2.026c-5.906,5.732 -17.586,15.221 -30.372,15.433c-12.325,0.204 -24.484,-8.76 -31.139,-14.666c-3.076,-2.731 -7.716,-3.204 -11.155,-0.947c-9.71,6.369 -28.947,17.715 -39.921,15.614c-7.725,-1.479 -14.048,-6.597 -18.383,-11.246c-3.639,-3.903 -10.26,-4.683 -14.474,-1.409c-7.281,5.656 -18.634,12.655 -30.238,12.655c-12.818,0 -25.329,-8.538 -32.384,-14.375c-3.382,-2.798 -8.467,-2.949 -11.97,-0.304c-7.482,5.646 -20.794,14.102 -34.04,14.68c-14.422,0.628 -32.246,-9.894 -41.07,-15.815c-3.229,-2.167 -7.589,-1.997 -10.682,0.361c-6.914,5.272 -19.762,13.767 -32.622,15.454c-14.947,1.96 -43.488,-11.47 -54.827,-17.202c-2.934,-1.483 -6.471,-1.13 -9.135,0.796c-7.339,5.306 -22.909,15.256 -37.87,16.406c-14.997,1.153 -37.599,-9.906 -48.68,-15.943c-3.745,-2.04 -8.526,-1.01 -11.44,2.104c-5.104,5.453 -13.841,12.874 -24.254,13.839c-11.804,1.093 -26.54,-9.201 -34.169,-15.334c-3.034,-2.439 -7.377,-2.681 -10.607,-0.506c-9.371,6.311 -28.499,17.923 -39.598,15.841c-7.795,-1.462 -14.13,-6.662 -18.436,-11.353c-3.569,-3.888 -10.065,-4.761 -14.281,-1.587c-7.507,5.652 -19.347,12.809 -31.291,12.94c-11.901,0.13 -24.224,-7.029 -32.155,-12.754c-4.417,-3.189 -11.173,-1.931 -14.717,2.206c-3.94,4.599 -9.713,9.43 -17.136,10.548c-10.554,1.589 -24.962,-8.797 -32.59,-15.106c-3.082,-2.55 -7.582,-2.768 -10.881,-0.504c-8.841,6.068 -26.299,16.626 -39.449,15.61c-12.127,-0.937 -23.472,-9.241 -29.773,-14.768c-3.058,-2.681 -7.637,-3.17 -11.071,-0.992c-9.696,6.148 -29.151,17.168 -42.075,15.76c-12.075,-1.316 -23.162,-9.913 -29.046,-15.309c-2.704,-2.48 -6.699,-3.22 -9.959,-1.537l0.001,-0.002Z" style="fill:#5aa6e4;fill-rule:nonzero;"/><path d="M-478.282,50.716c-14.321,7.434 -32.883,16.976 -47.666,24.548l-0.642,-2.708c-0.094,0.001 1.183,0.016 1.315,0.019c0.386,0.006 0.854,0.012 1.398,0.02c5.202,0.073 2.751,0.126 6.374,0.18c7.534,0.109 13.723,0.133 21.011,0.242c2.506,0.037 -0.632,0.132 2.025,0.169c13.475,0.189 26.004,0.277 40.077,0.436c67.576,0.763 133.928,1.36 202.566,1.939c22.242,0.188 50.157,0.506 73.199,0.619c2.717,0.013 1.099,-0.109 1.616,-0.114c8.14,-0.082 5.434,0.122 10.792,0.189c20.951,0.263 44.438,0.432 64.678,0.522c8.71,0.038 -0.038,-0.238 8.765,-0.058c0.613,0.012 -1.612,0.115 0.792,0.143c5.258,0.062 15.357,0.106 19.529,0.142c8.026,0.07 9.386,0.077 17.047,0.126c10.181,0.067 22.467,0.201 33.728,0.242c2.404,0.008 -0.78,-0.131 3.058,-0.128c3.724,0.002 13.645,0.072 17.025,0.12c3.372,0.048 1.936,0.134 2.533,0.16c4.899,0.212 16.594,0.027 18.116,0.029c26.911,0.049 50.307,0.323 75.905,0.459c19.246,0.102 40.193,0.162 58.438,0.259c21.887,0.117 40.542,0.271 61.846,0.358c2.26,0.009 -0.389,-0.144 2.373,-0.133c19.342,0.078 37.896,0.163 57.199,0.275c10.07,0.016 20.122,0.034 30.155,0.056c2.915,0.007 -0.847,0.135 2.073,0.149c17.866,0.085 46.092,0.262 56.644,-0.314c12.104,-0.016 26.746,-0.048 37.556,0.014c6.992,0.04 0.208,0.205 8.783,0.109c1.931,-0.022 -0.58,-0.129 2.315,-0.152c12.134,-0.099 25.543,-0.13 37.552,-0.26c2.442,-0.027 1.774,-0.129 2.466,-0.152c5.764,-0.188 15.618,0.008 17.712,0.013c16.046,0.037 28.013,-0.1 42.912,-0.208c3.465,-0.025 -0.656,-0.137 2.719,-0.167c17.514,-0.153 35.56,-0.29 52.502,-0.378c3.753,-0.019 0.294,0.133 2.102,0.13c8.076,-0.017 9.851,-0.263 17.496,-0.285c1.608,-0.005 0.703,0.108 0.997,0.116c4.598,0.136 8.514,-0.157 9.755,-0.174c15.18,-0.225 24.552,-0.056 39.168,-0.25c1.728,-0.023 -2.168,-0.113 2.686,-0.171c32.487,-0.386 66.843,-0.764 98.923,-1.084c4.957,-0.05 1.415,0.096 1.712,0.105c5.254,0.121 8.568,-0.18 10.201,-0.211c12.605,-0.24 24.895,-0.199 33.552,-0.628c43.493,-0.545 87.558,-1.334 130.705,-2.047l-0.251,0.821c-8.673,-6.141 -17.333,-12.287 -25.976,-18.443c-0.559,-0.398 0.519,0.208 -0.598,-0.586c-9.142,-6.501 -10.921,-7.663 -13.974,-9.657c-1.353,-0.841 -3.357,-1.748 -6.597,-0.991c-1.255,0.267 -3.787,1.325 -5.355,3.205c-1.666,1.927 -3.343,3.486 -3.616,3.739c-2.007,1.827 -0.108,-0.256 -0.772,0.361c-5.743,4.613 -4.121,5.236 -13.642,8.726c-0.044,0.012 -0.088,0.023 -0.132,0.034c-0.118,0.029 -0.011,-0.013 0.122,-0.07c0.225,-0.097 0.53,-0.231 0.007,-0.094c-0.01,0.003 -0.02,0.005 -0.03,0.008c-2.643,0.644 -5.342,0.459 -7.883,0.032c-5.817,-1.204 -7.762,-2.083 -16.191,-5.218c-1.045,-0.448 0.358,0.701 -7.844,-3.07c-2.358,-1.073 -10.403,-5.081 -16.029,-8.279c-2.086,-1.179 -4.243,-1.11 -5.385,-0.918c-2.069,0.407 -2.33,0.716 -2.208,0.578c0.131,-0.1 0.737,-0.357 0.594,-0.305c-1.445,0.499 -2.493,1.236 -3.257,1.929c-5.301,4.614 -3.297,2.766 -7.538,5.784c-5.036,3.241 -3.428,2.673 -5.5,4c-2.014,1.477 -10.326,4.639 -12.543,4.733c-2.141,0.335 0.508,-0.189 -1.392,0.097c-1.099,0.148 -2.053,0.219 -2.88,0.253c-4.337,0.05 -5.09,-0.288 -5.264,-0.159c-0.17,0.057 0.255,0.272 -1.654,-0.051c-9.847,-2.034 -16.428,-6.645 -23.757,-11.853c-1.964,-1.457 -0.42,-0.198 -2.166,-1.505c-0.119,-0.09 -0.236,-0.179 -0.352,-0.268c-4.351,-3.097 -9.511,-2.243 -12.899,0.987c-1.847,1.838 -3.934,3.76 -6.62,5.812c-1.199,1.036 -7.884,5.711 -13.084,6.725c-0.721,0.139 1.292,-0.378 -2.333,0.382c-0.216,0.038 -0.441,0.076 -0.672,0.111c-5.806,1.072 -14.717,-2.906 -19.621,-5.639c-3.81,-2.14 0.432,0.529 -4.268,-2.337c-2.062,-1.315 1.82,1.02 -2.039,-1.465c-3.566,-2.24 -11.813,-8.353 -15.657,-11.609c-0.325,-0.268 -0.64,-0.486 -0.93,-0.666c-1.899,-1.081 -2.481,-0.958 -2.461,-0.969c0.002,0.03 0.475,0.198 0.307,0.154c-0.762,-0.22 -2.477,-0.518 -4.274,-0.142c-1.804,0.333 -3.539,1.36 -4.495,2.283c-0.631,0.587 -1.095,0.998 -1.232,1.118c-7.829,6.77 -17.116,12.92 -27.588,12.706c-8.604,-0.358 -16.19,-5.043 -22.312,-10.539c-4.297,-3.829 -11.681,-3.501 -15.628,0.712c-6.55,7.251 -16.998,14.107 -27.148,9.706c-1.781,-0.732 -3.561,-1.463 -5.347,-2.196c-2.677,-1.098 -0.944,-0.245 -1.353,-0.411c-9.176,-3.725 -1.828,-1.064 -8.18,-3.806c0.827,0.622 -2.932,-0.979 -9.392,-3.612c-3.113,-1.268 -1.459,-0.478 -1.746,-0.585c-4.669,-1.76 -7.8,-3.264 -8.612,-3.643c-2.671,-1.244 -5.64,-2.334 -7.706,-3.23c-0.249,-0.108 -0.489,-0.2 -0.717,-0.28c-1.047,-0.329 -0.346,-0.21 -0.162,-0.212c0.09,0.002 0.05,-0.044 -0.428,-0.166c-0.474,-0.102 -1.419,-0.343 -3.089,-0.098c-0.918,0.218 -0.137,0.144 0.233,0.176c0.387,0.091 0.294,-0.103 -2.02,0.7c-1.057,0.426 -2.091,1.08 -2.985,1.957c-6.899,6.686 -17.912,15.246 -30.612,15.537c-13.021,-0.128 -23.138,-8.201 -28.746,-12.624c-0.919,-0.756 -1.774,-1.49 -2.575,-2.202c-3.762,-3.229 -8.298,-2.649 -10.839,-0.931c-4.263,2.777 -7.509,4.749 -11.943,7.165c-14.516,7.214 -9.091,4.897 -18.697,8.044c-4.982,1.187 -6.375,0.768 -6.586,0.719c-0.217,-0.112 0.653,-0.249 -0.077,-0.295c-0.856,-0.065 -1.789,-0.116 -2.747,-0.291c-0.616,-0.113 -1.252,-0.257 -1.908,-0.459c-1.667,-0.554 1.971,0.518 -1.942,-0.764c-4.141,-0.963 -13.084,-8.099 -13.972,-9.303c-0.313,-0.284 -0.523,-0.466 -0.665,-0.576c-0.456,-0.341 -0.271,-0.047 -0.802,-0.467c-0.565,-0.276 -1.715,-1.975 -6.301,-2.634c-0.613,-0.046 1.394,-0.04 -0.964,-0.18c-2.189,-0.026 -4.421,0.617 -6.17,1.971c-8.704,6.622 -19.063,12.523 -30.382,12.615c-6.181,-0.023 -12.15,-1.974 -17.537,-4.638c-2.354,-1.199 -0.19,-0.244 -1.55,-0.956c-11.771,-6.966 -9.637,-6.199 -13.434,-8.761c-0.601,-0.45 -1.399,-0.962 -2.547,-1.38c0.785,0.208 0.547,-0.143 -1.011,-0.682c-1.481,-0.451 -4.831,-1.094 -8.39,1.44c-1.219,0.908 -2.612,1.912 -4.159,2.963c-6.098,3.987 -4.998,3.378 -9.098,5.722c-1.227,0.726 -5.982,2.741 -6.852,3.088c-2.889,1.052 2.068,0.602 -10.308,3.13c-0.549,0.071 1.18,-0.285 -0.715,-0.038c-0.99,0.117 -1.915,0.189 -2.782,0.226c-9.838,-0.244 -12.239,-0.912 -23.513,-5.583c-4.9,-2.203 -11.484,-5.847 -17.801,-10.145c-3.044,-2.121 -7.448,-1.867 -10.228,0.304c-2.54,1.92 -5.038,3.635 -7.298,5.077c0.065,-0.353 -9.493,5.446 -13.739,7.173c-3.688,1.472 -7.688,2.678 -11.767,3.21c-3.876,0.48 -7.712,-0.001 -11.264,-0.659c-2.51,-0.499 -0.839,-0.283 -1.153,-0.355c-4.808,-1.181 -8.051,-1.986 -9.643,-2.46c-12.326,-3.89 -22.513,-8.649 -32.91,-13.82c-2.752,-1.415 -6.315,-1.094 -8.872,0.811c-1.167,0.857 -2.37,1.71 -3.601,2.552c-0.518,0.336 -1.158,1.15 -5.198,3.375c-0.262,0.129 4.562,-2.84 -2.411,1.24c-5.796,3.28 -16.542,8.429 -26.804,9.201c-2.086,0.166 -4.123,0.096 -6.029,-0.072c-2.713,-0.153 -9.55,-1.335 -14.73,-3.279c-0.691,-0.251 0.094,-0.066 -0.897,-0.44c-3.195,-1.232 -5.039,-1.651 -8.677,-3.386c-3.274,-1.578 -9.758,-4.577 -18.267,-9.117c-0.948,-0.508 -2.02,-0.846 -3.143,-0.972c-0.325,-0.029 -3.246,-0.281 -6.303,1.602c-0.716,0.438 -1.422,0.994 -2.06,1.672c-3.627,3.92 -8.804,8.115 -13.305,10.406c-2.534,1.268 -0.859,0.568 -1.299,0.79c-3.182,1.516 -6.44,2.465 -9.665,2.764c-13.153,0.284 -23.054,-6.894 -34.213,-15.444c-1.187,-0.963 -2.66,-1.636 -4.252,-1.888c-1.35,-0.232 -3.936,-0.21 -6.282,1.407c-3.862,2.658 -8.881,5.791 -12.895,7.872c-7.214,3.293 0.22,0.24 -16.752,6.505c-2.875,0.771 -6.192,1.66 -9.948,1.157c-5.369,-0.77 -11.458,-3.85 -16.789,-9.52c-0.55,-0.544 -1.086,-1.099 -1.609,-1.665c-3.647,-3.936 -10.179,-4.772 -14.42,-1.585c-9.188,6.799 -19.653,12.598 -31.237,12.877c-7.513,0.049 -14.856,-2.603 -21.705,-6.166c-1.032,-0.522 -4.332,-2.141 -6.611,-3.652c-1.594,-1.042 -2.806,-1.919 -3.888,-2.73c-1.217,-0.903 -2.492,-1.439 -3.998,-1.699c-3.991,-0.644 -8.133,0.917 -10.649,3.851c-4.45,5.215 -10.216,9.557 -17.145,10.6c-0.807,0.122 -1.635,0.172 -2.457,0.161c-4.419,-0.361 -2.922,-0.168 -7.957,-1.704c-4.928,-1.858 -8.15,-3.415 -14.058,-7.457c-2.68,-1.879 -5.231,-3.951 -7.984,-6.347c-1.833,-1.609 -4.566,-2.584 -7.486,-2.118c-0.097,0.198 -1.554,0.305 -3.594,1.707c-1.912,1.36 -4.729,3.26 -8.423,5.475c-1.451,0.863 0.165,0.035 -0.522,0.448c-2.78,1.669 -5.476,3.008 -8.238,4.374c-0.673,0.331 -0.666,0.432 -1.217,0.701c-4.644,2.456 -13.079,4.545 -14.569,4.544c-2.635,0.335 -4.626,0.366 -6.431,0.237c-2.055,-0.162 -3.876,-0.45 -6.103,-1.07c-4.133,-1.28 2.065,0.544 -2.732,-1.009c-7.011,-2.446 -14.599,-7.372 -20.844,-12.877c-2.62,-2.321 -6.39,-2.945 -9.355,-1.905c-1.065,0.373 -1.594,0.738 -1.866,0.917c-0.443,0.306 -0.164,0.171 0.043,0.068c0.141,-0.07 0.252,-0.123 0.1,-0.029c-0.028,0.018 -0.056,0.036 -0.084,0.053c-7.342,4.73 -15.266,8.652 -19.618,10.787c-5.914,1.517 -4.658,2.909 -17.071,5.007c-0.998,0.067 -2.234,-0.044 1.481,-0.565c3.716,-0.571 9.254,-2.154 14.053,-4.28c1.169,-0.44 7.461,-3.755 8.29,-4.26c6.648,-3.666 7.73,-3.944 8.113,-4.103c1.322,-0.678 2.989,-1.66 4.663,-2.727c3.672,-2.522 8.705,-1.095 9.94,-0.174c0.52,0.303 1.009,0.652 1.459,1.041c7.37,6.294 14.618,10.892 22.504,13.238c3.664,1.02 5.203,0.995 7.089,1.084c0.922,0.024 1.959,0.025 3.403,-0.06c14.497,-2.059 19.412,-5.175 31.247,-12.544c1.903,-1.3 0.796,-0.793 4.206,-3.074c1.158,-0.774 3.056,-1.739 5.882,-1.629c0.365,0.013 3.445,0.15 5.998,2.358c1.884,1.607 4.06,3.301 5.789,4.47c0.48,0.324 0.52,0.235 1.151,0.673c4.233,2.875 7.085,4.813 12.135,7.089c3.737,1.607 8.408,3.142 12.911,2.49c1.578,-0.238 3.129,-0.66 4.607,-1.229c3.519,-1.255 7.488,-4.153 8.824,-5.387c1.194,-1.041 2.324,-2.212 3.348,-3.416c2.511,-2.962 6.185,-4.141 8.529,-4.169c1.725,0.012 0.895,0.155 0.778,0.235c-0.06,0.05 0.052,0.075 0.722,0.145c0.655,0.099 1.939,0.142 3.91,1.09c0.399,-0.092 1.199,0.059 1.804,0.191c9.418,6.691 20.109,12.573 31.619,12.645c6.818,-0.075 13.506,-2.417 19.656,-5.634c2.037,-1.094 -0.103,-0.079 2.058,-1.287c3.229,-1.848 6.187,-3.831 9.013,-5.942c4.651,-3.415 11.455,-2.602 15.53,1.727c0.912,0.992 1.882,1.967 2.912,2.908c4.101,3.758 9.312,7.005 15.046,8.01c2.694,0.467 5.573,0.077 8.318,-0.57c5.291,-0.655 17.213,-6.369 25.222,-11.513c2.83,-1.769 2.67,-1.588 4.672,-2.88c0.267,-0.174 0.513,-0.335 0.741,-0.486c3.73,-2.148 5.08,-1.486 5.365,-1.691c0.344,-0.04 -0.057,-0.173 1.261,-0.066c2.165,0.246 3.847,1.118 5.077,2.118c4.906,3.832 6.534,5.897 15.384,10.756c0.537,0.429 7.989,3.289 9.075,3.383c6.708,1.431 1.062,0.509 5.297,1.173c1.289,0.127 2.516,0.141 3.69,0.04c5.965,-0.619 10.926,-2.705 17.067,-7.458c1.434,-1.121 4.071,-3.482 6.592,-6.216c1.386,-1.503 3.271,-2.58 5.148,-3.028c0.749,-0.167 0.359,0.028 0.96,-0.084c2.731,-0.444 4.868,0.21 6.348,0.994c4.146,2.175 5.359,2.569 9.34,4.428c5.286,2.515 13.569,6.088 15.297,6.717c4.468,1.77 -3.489,-1.18 -3.717,-1.316c-2.911,-0.974 3.195,1.546 7.999,3.047c0.582,0.587 7.405,2.358 5.006,1.445c-0.279,-0.079 -4.052,-1.103 -5.006,-1.445c4.147,0.924 11.281,3.219 19.358,2.998c0.276,-0.012 0.554,-0.028 0.833,-0.045c3.901,-0.55 0.414,1.019 12.002,-2.554c5.148,-1.96 3.093,-1.378 7.485,-3.429c5.413,-2.645 11.483,-6.223 17.157,-10.286c2.86,-2.088 6.868,-2.41 9.907,-0.82c2.245,1.145 4.518,2.257 6.636,3.252c3.78,1.761 0.147,-0.067 2.74,1.124c6.884,3.122 13.011,5.79 20.193,8.214c0.651,0.215 -0.9,-0.435 1.335,0.312c7.954,2.536 15.801,4.773 23.474,4c8.7,-1.184 17.01,-5.087 25.26,-10.359c2.019,-1.301 4.429,-2.968 6.928,-4.883c3.133,-2.486 8.197,-2.864 11.768,-0.416c4.462,2.986 8.997,5.619 12.523,7.463c8.183,4.242 18.208,8.578 27.982,8.299c7.179,-0.3 13.784,-2.821 18.984,-5.38c7.934,-4.186 6.053,-3.526 9.27,-5.617c1.522,-1.053 3.332,-2.332 5.168,-3.712c4.278,-3.376 10.702,-2.028 13.22,0.453c1.202,1.034 2.11,1.766 2.447,2.04c0.022,0.02 -1.428,-1.09 -2.505,-1.969c-1.292,-0.983 -2.26,-1.492 -0.353,-0.189c0.102,0.087 0.201,0.173 0.296,0.258c1.593,1.432 2.501,1.85 2.562,1.9c0.704,1.017 13.812,9.22 16.905,9.772c1.556,0.553 0.727,0.127 1.54,0.403c3.534,1.164 7.217,1.879 10.897,1.865c10.822,-0.151 20.917,-5.842 29.581,-12.486c4.771,-3.65 11.879,-2.749 15.899,1.539c0.484,0.521 0.978,1.032 1.483,1.533c0.259,0.256 -0.226,-0.031 0.387,0.568c5.29,5.091 10.534,7.905 15.929,8.898c3.307,0.56 6.831,-0.086 10.474,-1.146c9.438,-2.964 16.357,-7.079 21.6,-9.834c2.18,-1.3 4.652,-2.828 7.15,-4.452c3.905,-2.63 9.382,-1.637 12.233,1.092c1.16,1.048 2.269,1.993 3.244,2.789c4.868,3.885 5.853,3.975 6.289,4.303c7.462,4.659 14.139,7.163 21.023,7.137c6.355,-0.115 12.831,-2.414 19.858,-7.067c2.73,-1.808 6.346,-4.616 9.829,-8.017c2.637,-2.639 7.036,-3.766 10.593,-2.253c3.956,1.621 7.672,3.142 10.573,4.328c6.736,2.753 10.768,4.48 16.978,6.999c0.842,0.342 0.037,-0.113 0.295,-0.012c6.968,2.726 3.542,1.614 4.948,2.247c3.28,1.478 5.746,2.582 9.454,4.133c1.986,0.821 4.509,1.509 7.794,1.224c2.174,0.04 7.933,-2.409 10.985,-4.857c3.995,-3.11 2.651,-1.757 6.431,-5.554c0.154,-0.165 0.203,-0.247 0.473,-0.571c0.336,-0.372 0.932,-1.132 2.592,-2.128c4.576,-2.627 10.856,-2.475 15.129,1.277c5.93,5.343 13.363,9.84 21.352,10.133c3.047,0.114 6.111,-0.475 9.01,-1.472c2.023,-0.741 -0.6,0.123 2.286,-1.033c5.841,-2.502 11.353,-6.513 16.314,-11.04c3.741,-3.495 9.997,-3.856 13.936,-0.528c3.355,2.779 6.769,5.433 10.129,7.856c2.931,2.089 1.031,0.867 1.654,1.34c3.817,2.934 9.824,6.129 10.823,6.599c5.931,3.068 12.129,5.7 17.823,4.944c8.543,-1.419 15.78,-6.546 21.93,-12.599c3.737,-3.745 10.246,-4.583 14.782,-1.118c3.682,2.828 7.671,5.543 12.074,7.922c1.22,0.861 11.657,5.356 16.608,5.668c0.173,0.019 1.622,0.272 3.579,0.224c1.745,-0.038 3.897,-0.339 5.854,-0.923c0.248,-0.109 -2.705,0.657 2.411,-0.836c5.129,-1.561 12.666,-6.137 18.339,-11.026c0.551,-0.462 1.352,-1.13 2.305,-1.984c2.222,-2.099 7.144,-4.203 12.054,-1.652c0.174,0.092 0.353,0.186 0.536,0.281c0.415,0.265 10.327,5.078 13.77,6.984c0.563,0.287 -0.227,0.43 7.644,3.688c1.511,0.596 -1.188,-0.585 2.788,0.991c5.988,2.185 14.687,5.873 21.93,4.319c0.008,-0.002 0.015,-0.004 0.023,-0.006c1.368,-0.272 6.586,-2.573 10.247,-5.456c0.582,-0.444 -0.415,0.541 1.484,-1.046c1.95,-1.679 3.769,-3.572 5.448,-5.602c3.232,-4.01 9.658,-5.687 14.228,-2.435c4.164,2.934 8.325,5.873 12.419,8.795c3.556,2.537 1.632,1.39 5.328,4.051c3.697,2.661 11.172,7.982 15.112,10.663c3.942,2.682 -0.158,-0.54 5.692,3.555c0.701,0.491 1.402,0.982 2.103,1.473l3.379,2.384l-4.133,0.079c-29.941,0.647 -60.257,0.995 -90.06,1.436c-4.64,0.068 -0.734,0.106 -7.703,0.214c-24.815,0.392 -68.019,1.088 -89.667,1.157c-17.585,0.061 4.586,-0.35 -8.905,-0.245c-6.261,0.048 -13.207,0.451 -14.767,0.48c-15.205,0.289 -25.713,0.273 -39.204,0.47c-2.791,0.041 -0.05,0.138 -2.429,0.171c-8.142,0.115 -16.848,0.153 -24.54,0.246c-3.491,0.042 -2.846,0.133 -6.074,0.16c-7.803,0.066 -14.519,0.093 -22.02,0.077c-0.685,-0.002 3.929,-0.17 -1.771,-0.117c-9.333,0.086 -20.623,0.104 -31.303,0.296c-3.148,0.057 -3.362,0.283 -10.072,0.189c-1.412,-0.02 0.4,-0.304 -7.449,-0.003c-1.277,0.05 -14.674,0.478 -21.102,0.328c-1.702,-0.039 -6.055,-0.224 -9.842,-0.16c-0.514,0.01 1.545,0.114 -1.594,0.15c-11.151,0.127 -22.603,0.199 -34.023,0.316c-3.049,0.031 1.495,0.124 -3.052,0.167c-12.402,0.117 -27.997,0.183 -40.103,0.212c-4.467,0.011 -1.38,-0.11 -1.705,-0.119c-5.231,-0.153 -8.337,0.11 -10.08,0.134c-10.898,0.144 -19.052,0.068 -29.052,0.144c-2.758,0.02 -0.801,0.129 -1.351,0.142c-5.698,0.127 -1.453,-0.102 -5.063,-0.11c-10.13,-0.022 -21.269,0.03 -31.522,0.078c-3.759,0.018 0.467,0.14 -2.908,0.155c-19.836,0.087 -40.54,0.121 -59.976,0.069c-3.666,-0.01 -1.36,-0.118 -2.124,-0.141c-5.239,-0.161 -12.926,0.073 -14.697,0.095c-7.364,0.095 -10.614,0.026 -16.567,0.027c-0.566,-0.002 -1.15,-0.004 -1.763,-0.005c-35.015,-0.062 -77.44,-0.319 -110.504,-0.52c-42.632,-0.259 -75.896,-0.535 -116.596,-0.737c-2.6,-0.013 0.02,0.141 -2.219,0.132c-28.625,-0.128 -56.992,-0.349 -86.056,-0.489c-2.357,-0.011 1.038,0.142 -2.743,0.128c-7.666,-0.027 -17.667,-0.097 -25.591,-0.19c-3.855,-0.045 1.315,-0.126 -2.563,-0.168c-9.065,-0.1 -18.414,-0.17 -27.907,-0.211c-3.971,-0.017 2.016,0.158 -3.141,0.126c-34.673,-0.214 -69.212,-0.43 -104.444,-0.861c-2.413,-0.03 -4.534,-0.32 -9.607,-0.304c-0.382,0.073 -0.362,0.163 -0.529,0.244c-50.831,-0.33 -100.832,-0.818 -152.098,-1.27c-2.133,-0.019 1.545,0.158 -2.574,0.123c-24.136,-0.209 -47.419,-0.374 -72.078,-0.747c-2.432,-0.037 -1.283,-0.282 -8.253,-0.308c-1.16,-0.004 -12.412,-0.075 -14.911,-0.044c-0.388,0.005 1.602,0.143 -1.882,0.114c-18.477,-0.161 -37.579,-0.369 -55.973,-0.624l-0.539,-2.275c1.734,-0.888 3.461,-1.772 5.18,-2.652c2.911,-1.489 -0.125,0.221 1.949,-0.839c14.714,-7.519 30.641,-15.849 44.724,-22.989c9.427,-4.779 6.051,-2.788 11.141,-5.172c0.72,-0.337 6.537,-3.335 6.896,-3.378c0.917,-0.117 -1.74,1.646 -0.429,1.349c0.277,-0.061 8.03,-4.151 3.499,-1.615c-0.317,0.177 -5.936,3.143 -7.3,3.914c-0.949,0.536 0.854,-0.25 -1.097,0.816c-1.951,1.067 -4.171,2.092 -7.418,3.837c-3.245,1.746 -1.739,1.132 -8.269,4.523l0.002,0.001Zm934.133,1.578c0.98,0.102 1.82,0.12 2.503,0.102c2.74,-0.154 2.937,-0.379 -0.004,-0.253c-0.578,0.006 -1.279,0.002 -2.109,-0.039c-0.295,-0.014 -0.682,0.159 -0.39,0.19Zm-638.137,0.066c7.541,-0.529 12.232,-3.132 7.156,-1.548c-5.112,1.316 -9.44,1.57 -7.156,1.548Zm-70.825,0.215c1.971,0.309 3.593,0.229 4.753,0.024c3.034,-0.659 3.165,-0.925 -0.054,-0.354c-0.964,0.128 -2.264,0.212 -3.916,0.069c-0.524,-0.042 -1.291,0.178 -0.783,0.261Zm-234.168,0.695c0.074,-0.032 4.257,-2.184 4.354,-2.241c2.161,-1.276 -6.203,3.029 -4.354,2.241Zm164.415,-1.187c2.775,-0.329 10.23,-3.23 6.959,-2.143c-2.58,1.041 -10.337,2.739 -6.959,2.143Zm1048.752,-4.815c0.06,0.068 2.815,2.013 2.79,1.934c-0.139,-0.209 -3.961,-2.917 -2.79,-1.934Zm-1168.908,-9.717c7.213,6.68 14.17,10.578 16.623,11.833c2.56,1.11 -0.095,0.98 -9.013,-5.067c-3.225,-2.165 7.107,4.446 2.973,1.725c-4.331,-2.816 -7.638,-5.39 -10.894,-8.284c-2.337,-2.093 -6.027,-3.216 -9.592,-1.599c-0.715,0.409 1.146,-1.019 3.837,-0.985c2.703,-0.089 5.438,1.709 6,2.317c0.037,0.032 0.067,0.06 0.091,0.082c-0.008,-0.008 -0.017,-0.015 -0.025,-0.023l-0,0.001Zm902.174,15.34c0.125,0.094 4.756,-0.527 4.849,-0.642c1.215,-0.36 -0.458,0.043 -2.223,0.287c-1.762,0.26 -3.617,0.31 -2.626,0.355Zm440.404,9.563c0.204,0.159 9.054,6.409 9.349,6.603c4.755,3.065 -13.138,-9.572 -9.349,-6.603Zm-723.89,-19.53c-4.215,2.899 -9.682,5.754 -13.555,7.072c4.725,-1.889 9.245,-4.336 13.555,-7.072Z" style="fill:#1a1918;fill-rule:nonzero;"/></svg>