<svg width="390"
     height="81"
     viewBox="0 0 390 81"
     fill="none"
     xmlns="http://www.w3.org/2000/svg">
    <path d="M-453.154 36.0738L-526.606 73.9893C-526.606 73.9893 -212.096 77.4233 274.813 79.4928C605.586 79.4928 915.511 73.4332 915.511 73.4332L874.909 44.8241C870.984 42.0585 865.442 43.3259 862.387 47.0302C858.428 51.831 852.324 57.5626 844.582 59.6377C833.768 62.5357 808.528 49.5029 796.991 43.0533C793.538 41.123 789.157 41.8508 786.278 44.5639C780.19 50.3009 768.959 59.0572 756.631 59.6377C744.75 60.1971 731.504 51.7196 723.589 45.6223C719.707 42.6322 713.853 43.1861 710.387 46.6498C705.23 51.8041 697.189 58.152 687.8 59.6377C675.982 61.5078 656.365 46.9502 646.333 38.6767C642.815 35.7752 637.507 36.0921 634.145 39.1731C627.657 45.1195 616.642 53.3206 605.585 52.9194C596.765 52.5993 588.971 47.4596 583.457 42.5097C579.095 38.5932 571.417 38.9553 567.443 43.265C561.078 50.1666 551.311 57.3444 540.578 52.9194L498.233 35.4598C494.992 34.1234 491.25 35.0443 488.735 37.4861C482.829 43.2185 471.149 52.7075 458.363 52.9194C446.038 53.1236 433.879 44.1598 427.224 38.2532C424.148 35.5226 419.508 35.0495 416.069 37.3057C406.359 43.6751 387.122 55.0207 376.148 52.9194C368.423 51.4402 362.1 46.3229 357.765 41.6736C354.126 37.7707 347.505 36.9909 343.291 40.2647C336.01 45.9208 324.657 52.9194 313.053 52.9194C300.235 52.9194 287.724 44.3811 280.669 38.5443C277.287 35.7463 272.202 35.5956 268.699 38.2399C261.217 43.8863 247.905 52.3422 234.659 52.9194C220.237 53.5477 202.413 43.0255 193.589 37.1046C190.36 34.9375 186 35.1073 182.907 37.4657C175.993 42.7374 163.145 51.2332 150.285 52.9194C135.338 54.879 106.797 41.4497 95.4581 35.7172C92.5245 34.2341 88.9872 34.5875 86.3235 36.5136C78.9849 41.8201 63.4145 51.7692 48.4538 52.9194C33.4571 54.0723 10.8549 43.0135 -0.226196 36.9766C-3.97156 34.9361 -8.75171 35.9668 -11.6663 39.0807C-16.7702 44.5336 -25.5074 51.955 -35.9202 52.9194C-47.7242 54.0126 -62.4602 43.7181 -70.0892 37.5851C-73.1237 35.1457 -77.4664 34.9041 -80.6959 37.0788C-90.0673 43.3894 -109.195 55.0017 -120.294 52.9194C-128.089 51.457 -134.424 46.2578 -138.73 41.5667C-142.299 37.6785 -148.795 36.8054 -153.011 39.9798C-160.518 45.6313 -172.358 52.7889 -184.302 52.9194C-196.203 53.0494 -208.526 45.8906 -216.457 40.1655C-220.874 36.9766 -227.63 38.2343 -231.174 42.3717C-235.114 46.9707 -240.887 51.802 -248.31 52.9194C-258.864 54.5081 -273.272 44.1222 -280.9 37.8134C-283.982 35.2638 -288.482 35.0458 -291.781 37.3093C-300.622 43.377 -318.08 53.9349 -331.23 52.9194C-343.357 51.9828 -354.702 43.678 -361.003 38.1519C-364.061 35.4706 -368.64 34.9821 -372.074 37.1599C-381.77 43.3078 -401.225 54.328 -414.149 52.9194C-426.224 51.6032 -437.311 43.0069 -443.195 37.6108C-445.899 35.1312 -449.894 34.391 -453.154 36.0738Z"
          fill="#5AA6E4" />
    <path d="M-478.282 50.7157C-492.603 58.1496 -511.165 67.6919 -525.948 75.2636L-526.59 72.5552C-526.684 72.5558 -525.407 72.5711 -525.275 72.5741C-524.889 72.5798 -524.421 72.5864 -523.877 72.5938C-518.675 72.6666 -521.126 72.7202 -517.503 72.7739C-509.969 72.8831 -503.78 72.9066 -496.492 73.0159C-493.986 73.0534 -497.124 73.1482 -494.467 73.1849C-480.992 73.374 -468.463 73.4622 -454.39 73.6208C-386.814 74.3838 -320.462 74.981 -251.824 75.5597C-229.582 75.7475 -201.667 76.0662 -178.625 76.1787C-175.908 76.1919 -177.526 76.07 -177.009 76.0645C-168.869 75.9823 -171.575 76.1864 -166.217 76.2536C-145.266 76.5171 -121.779 76.6859 -101.539 76.7757C-92.8285 76.8141 -101.577 76.5375 -92.774 76.7181C-92.1611 76.7304 -94.3862 76.8333 -91.9819 76.8615C-86.7243 76.9238 -76.6248 76.9677 -72.4528 77.0034C-64.4269 77.0729 -63.0667 77.0803 -55.4058 77.1297C-45.2243 77.1962 -32.9384 77.3302 -21.6781 77.3716C-19.2742 77.3801 -22.4581 77.2406 -18.6203 77.2432C-14.8965 77.2453 -4.97546 77.3147 -1.59491 77.363C1.77661 77.4113 0.34137 77.4974 0.938049 77.5226C5.83673 77.7346 17.532 77.5493 19.0543 77.5518C45.9651 77.6005 69.3615 77.8745 94.9595 78.0106C114.206 78.1125 135.153 78.1724 153.398 78.2696C175.285 78.3865 193.94 78.5409 215.244 78.6279C217.504 78.6372 214.855 78.4835 217.617 78.4947C236.959 78.5726 255.513 78.6575 274.816 78.7695C284.886 78.7854 294.938 78.8033 304.971 78.8254C307.886 78.8319 304.124 78.9603 307.044 78.9741C324.91 79.059 353.136 79.2361 363.688 78.6602C375.792 78.6446 390.434 78.6119 401.244 78.6746C408.236 78.7145 401.452 78.8797 410.027 78.7838C411.958 78.7622 409.447 78.6551 412.342 78.6315C424.476 78.5327 437.885 78.5019 449.894 78.372C452.336 78.3453 451.668 78.2429 452.36 78.2198C458.124 78.032 467.978 78.2276 470.072 78.2328C486.118 78.2701 498.085 78.1324 512.984 78.0249C516.449 77.9997 512.328 77.888 515.703 77.8583C533.217 77.7057 551.263 77.5685 568.205 77.4801C571.958 77.4608 568.499 77.6134 570.307 77.6102C578.383 77.5935 580.158 77.3475 587.803 77.3252C589.411 77.3201 588.506 77.4327 588.8 77.4414C593.398 77.5771 597.314 77.2849 598.555 77.2673C613.735 77.0422 623.107 77.2113 637.723 77.0177C639.451 76.9944 635.555 76.9047 640.409 76.8471C672.896 76.4609 707.252 76.0835 739.332 75.7631C744.289 75.7135 740.747 75.8594 741.044 75.8677C746.298 75.9883 749.612 75.6881 751.245 75.6564C763.85 75.4166 776.14 75.4571 784.797 75.0283C828.29 74.4834 872.355 73.6943 915.502 72.9814L915.251 73.8025C906.578 67.6612 897.918 61.515 889.275 55.3593C888.716 54.9612 889.794 55.5672 888.677 54.7735C879.535 48.2725 877.756 47.1108 874.703 45.1165C873.35 44.2754 871.346 43.3682 868.106 44.1252C866.851 44.3917 864.319 45.4506 862.751 47.3302C861.085 49.2576 859.408 50.8167 859.135 51.0692C857.128 52.8963 859.027 50.8131 858.363 51.4301C852.62 56.0427 854.242 56.6666 844.721 60.1562C844.677 60.1679 844.633 60.1793 844.589 60.1906C844.471 60.2196 844.578 60.1774 844.711 60.1206C844.936 60.024 845.241 59.8895 844.718 60.0263C844.708 60.0289 844.698 60.0314 844.688 60.0339C842.045 60.6781 839.346 60.4932 836.805 60.0664C830.988 58.8627 829.043 57.9834 820.614 54.8479C819.569 54.3999 820.972 55.5487 812.77 51.7783C810.412 50.7054 802.367 46.6969 796.741 43.4997C794.655 42.321 792.498 42.3899 791.356 42.5815C789.287 42.9881 789.026 43.2974 789.148 43.1599C789.279 43.06 789.885 42.8032 789.742 42.8547C788.297 43.3539 787.249 44.0908 786.485 44.7839C781.184 49.3979 783.188 47.5499 778.947 50.5675C773.911 53.8083 775.519 53.2402 773.447 54.5679C771.433 56.0446 763.121 59.2074 760.904 59.3012C758.763 59.6362 761.412 59.1123 759.512 59.398C758.413 59.5462 757.459 59.6175 756.632 59.651C752.295 59.7011 751.542 59.3628 751.368 59.4924C751.198 59.5498 751.623 59.764 749.714 59.4419C739.867 57.4083 733.286 52.797 725.957 47.5887C723.993 46.1313 725.537 47.3904 723.791 46.0836C723.672 45.9933 723.555 45.9041 723.439 45.816C719.088 42.7186 713.928 43.5729 710.54 46.8029C708.693 48.6411 706.606 50.5628 703.92 52.6147C702.721 53.6508 696.036 58.3254 690.836 59.3397C690.115 59.479 692.128 58.9616 688.503 59.7218C688.287 59.7602 688.062 59.7974 687.831 59.8328C682.025 60.9045 673.114 56.9271 668.21 54.1939C664.4 52.0534 668.642 54.7232 663.942 51.8569C661.88 50.5418 665.762 52.8772 661.903 50.3918C658.337 48.1515 650.09 42.0386 646.246 38.7825C645.921 38.5148 645.606 38.2961 645.316 38.1169C643.417 37.0364 642.835 37.1589 642.855 37.148C642.857 37.1777 643.33 37.3462 643.162 37.3023C642.4 37.0824 640.685 36.784 638.888 37.1607C637.084 37.4941 635.349 38.5202 634.393 39.4439C633.762 40.0304 633.298 40.4416 633.161 40.5623C625.332 47.3327 616.045 53.4824 605.573 53.2678C596.969 52.9102 589.383 48.2245 583.261 42.7285C578.964 38.8996 571.58 39.2273 567.633 43.4404C561.083 50.6915 550.635 57.5474 540.485 53.1465C538.704 52.4147 536.924 51.6834 535.138 50.9509C532.461 49.8531 534.194 50.7059 533.785 50.5396C524.609 46.8143 531.957 49.4757 525.605 46.7334C526.432 47.3552 522.673 45.7545 516.213 43.1219C513.1 41.8535 514.754 42.6443 514.467 42.537C509.798 40.7772 506.667 39.2727 505.855 38.8942C503.184 37.6501 500.215 36.5606 498.149 35.6642C497.9 35.5561 497.66 35.4643 497.432 35.3838C496.385 35.0552 497.086 35.1739 497.27 35.1719C497.36 35.1743 497.32 35.1281 496.842 35.0057C496.368 34.9038 495.423 34.6624 493.753 34.9072C492.835 35.1255 493.616 35.0515 493.986 35.0833C494.373 35.1748 494.28 34.9805 491.966 35.7829C490.909 36.2092 489.875 36.863 488.981 37.7402C482.082 44.4264 471.069 52.986 458.369 53.2773C445.348 53.1494 435.231 45.0767 429.623 40.6535C428.704 39.8979 427.849 39.1634 427.048 38.4513C423.286 35.2225 418.75 35.8026 416.209 37.5203C411.946 40.2975 408.7 42.2694 404.266 44.6857C389.75 51.8993 395.175 49.583 385.569 52.7294C380.587 53.9164 379.194 53.497 378.983 53.4482C378.766 53.336 379.636 53.1996 378.906 53.1528C378.05 53.0883 377.117 53.0372 376.159 52.8619C375.543 52.7489 374.907 52.6048 374.251 52.4031C372.584 51.8492 376.222 52.9213 372.309 51.6394C368.168 50.6762 359.225 43.5406 358.337 42.3365C358.024 42.0529 357.814 41.8709 357.672 41.7605C357.216 41.4196 357.401 41.713 356.87 41.2933C356.305 41.0174 355.155 39.3179 350.569 38.6591C349.956 38.6127 351.963 38.6189 349.605 38.4791C347.416 38.4528 345.184 39.0957 343.435 40.4503C334.731 47.0726 324.372 52.9728 313.053 53.0656C306.872 53.043 300.903 51.0915 295.516 48.428C293.162 47.2292 295.326 48.1839 293.966 47.4715C282.195 40.5052 284.329 41.2725 280.532 38.7107C279.931 38.2604 279.133 37.7484 277.985 37.3305C278.77 37.5389 278.532 37.1875 276.974 36.648C275.493 36.1973 272.143 35.5537 268.584 38.0881C267.365 38.996 265.972 39.9998 264.425 41.0507C258.327 45.038 259.427 44.4287 255.327 46.773C254.1 47.4987 249.345 49.5141 248.475 49.8608C245.586 50.9124 250.543 50.4623 238.167 52.9911C237.618 53.0619 239.347 52.7063 237.452 52.9536C236.462 53.0711 235.537 53.1426 234.67 53.1799C224.832 52.9359 222.431 52.2682 211.157 47.5968C206.257 45.3934 199.673 41.7499 193.356 37.4522C190.312 35.3312 185.908 35.5856 183.128 37.756C180.588 39.676 178.09 41.3914 175.83 42.833C175.895 42.4798 166.337 48.2788 162.091 50.0057C158.403 51.4781 154.403 52.6834 150.324 53.216C146.448 53.6957 142.612 53.2152 139.06 52.5572C136.55 52.0582 138.221 52.2746 137.907 52.2027C133.099 51.0218 129.856 50.2168 128.264 49.7423C115.938 45.8519 105.751 41.093 95.3542 35.9225C92.6025 34.5071 89.039 34.8281 86.4822 36.7331C85.3155 37.5899 84.1118 38.443 82.8813 39.2848C82.3634 39.6207 81.7237 40.435 77.6829 42.6594C77.4211 42.7886 82.2451 39.8198 75.272 43.8992C69.4764 47.1793 58.7302 52.3278 48.4677 53.1001C46.3815 53.2665 44.345 53.1964 42.4386 53.0278C39.7258 52.8752 32.8889 51.6928 27.7089 49.7483C27.0181 49.4972 27.8032 49.6825 26.8117 49.308C23.6167 48.0759 21.7722 47.6573 18.1342 45.9218C14.8597 44.344 8.37665 41.3445 -0.132507 36.8046C-1.08069 36.2971 -2.15271 35.9585 -3.27509 35.8327C-3.59991 35.8035 -6.5213 35.5518 -9.57855 37.4349C-10.2944 37.8728 -11.001 38.4292 -11.6381 39.1071C-15.2651 43.0268 -20.4418 47.222 -24.9428 49.5132C-27.4764 50.7815 -25.8018 50.0815 -26.2415 50.3028C-29.4233 51.8183 -32.6814 52.7674 -35.9066 53.0664C-49.0591 53.3503 -58.9607 46.1729 -70.1194 37.6226C-71.3066 36.66 -72.7796 35.9867 -74.3713 35.7349C-75.7216 35.5026 -78.3078 35.5252 -80.6536 37.1417C-84.5161 39.7998 -89.5344 42.933 -93.5491 45.014C-100.763 48.3072 -93.3294 45.2536 -110.301 51.5185C-113.176 52.2896 -116.493 53.1786 -120.249 52.6754C-125.618 51.905 -131.707 48.8259 -137.038 43.1557C-137.588 42.6122 -138.124 42.0569 -138.647 41.4911C-142.294 37.5549 -148.826 36.7187 -153.067 39.9065C-162.255 46.7059 -172.72 52.5041 -184.304 52.7835C-191.817 52.8324 -199.16 50.1805 -206.009 46.6175C-207.041 46.0951 -210.341 44.477 -212.62 42.9658C-214.214 41.9242 -215.426 41.0467 -216.508 40.236C-217.725 39.333 -219 38.7971 -220.506 38.5373C-224.497 37.893 -228.639 39.4539 -231.155 42.388C-235.605 47.6028 -241.371 51.9454 -248.3 52.9876C-249.107 53.1092 -249.935 53.1593 -250.757 53.1489C-255.176 52.7883 -253.679 52.9811 -258.714 51.4445C-263.642 49.5867 -266.864 48.0299 -272.772 43.9875C-275.452 42.1089 -278.003 40.0369 -280.756 37.6402C-282.589 36.0313 -285.322 35.056 -288.242 35.5217C-288.339 35.7197 -289.796 35.8267 -291.836 37.2287C-293.748 38.5884 -296.565 40.4892 -300.259 42.7033C-301.71 43.5663 -300.094 42.7383 -300.781 43.1512C-303.561 44.8199 -306.257 46.1596 -309.019 47.525C-309.692 47.8555 -309.685 47.9569 -310.236 48.2259C-314.88 50.6818 -323.315 52.7708 -324.805 52.7702C-327.44 53.1056 -329.431 53.1364 -331.236 53.007C-333.291 52.8453 -335.112 52.5565 -337.339 51.9366C-341.472 50.6569 -335.274 52.4804 -340.071 50.9279C-347.082 48.4816 -354.67 43.5564 -360.915 38.0513C-363.535 35.7302 -367.305 35.1059 -370.27 36.1464C-371.335 36.5191 -371.864 36.8841 -372.136 37.0635C-372.579 37.3698 -372.3 37.2341 -372.093 37.1312C-371.952 37.061 -371.841 37.0086 -371.993 37.1018C-372.021 37.1195 -372.049 37.1373 -372.077 37.1553C-379.419 41.8848 -387.343 45.807 -391.695 47.9422C-397.609 49.4587 -396.353 50.8512 -408.766 52.9494C-409.764 53.016 -411 52.905 -407.285 52.3847C-403.569 51.8141 -398.031 50.2302 -393.232 48.1051C-392.063 47.6649 -385.771 44.3506 -384.942 43.8453C-378.294 40.1792 -377.212 39.9018 -376.829 39.7426C-375.507 39.0642 -373.84 38.0831 -372.166 37.0153C-368.494 34.4937 -363.461 35.9199 -362.226 36.8414C-361.706 37.1445 -361.217 37.4939 -360.767 37.8823C-353.397 44.1762 -346.149 48.7745 -338.263 51.1206C-334.599 52.1403 -333.06 52.1159 -331.174 52.2047C-330.252 52.2284 -329.215 52.23 -327.771 52.1446C-313.274 50.0859 -308.359 46.9696 -296.524 39.6005C-294.621 38.3002 -295.728 38.8078 -292.318 36.5264C-291.16 35.7525 -289.262 34.7878 -286.436 34.8971C-286.071 34.9097 -282.991 35.0472 -280.438 37.2549C-278.554 38.8614 -276.378 40.5559 -274.649 41.7245C-274.169 42.0486 -274.129 41.9593 -273.498 42.3975C-269.265 45.2729 -266.413 47.2105 -261.363 49.4862C-257.626 51.0932 -252.955 52.6281 -248.452 51.9763C-246.874 51.7381 -245.323 51.316 -243.845 50.7472C-240.326 49.4919 -236.357 46.5942 -235.021 45.3602C-233.827 44.3196 -232.697 43.1477 -231.673 41.9445C-229.162 38.9821 -225.488 37.8039 -223.144 37.7751C-221.419 37.7868 -222.249 37.9301 -222.366 38.0105C-222.426 38.0601 -222.314 38.0858 -221.644 38.1553C-220.989 38.2542 -219.705 38.2968 -217.734 39.245C-217.335 39.1526 -216.535 39.3038 -215.93 39.4359C-215.93 39.4359 -215.93 39.436 -215.93 39.436C-206.512 46.1265 -195.821 52.009 -184.311 52.0814C-177.493 52.0065 -170.805 49.6641 -164.655 46.4473C-162.618 45.353 -164.758 46.3679 -162.597 45.1606C-159.368 43.3128 -156.41 41.3301 -153.584 39.219C-148.933 35.8038 -142.129 36.617 -138.054 40.9463C-137.142 41.9379 -136.172 42.9134 -135.142 43.854C-131.041 47.6117 -125.83 50.8593 -120.096 51.8642C-117.402 52.3307 -114.523 51.9407 -111.778 51.294C-106.487 50.6388 -94.5649 44.925 -86.5557 39.7812C-83.726 38.0122 -83.886 38.1928 -81.8832 36.9017C-81.6165 36.7279 -81.3704 36.5663 -81.1424 36.4157C-77.4121 34.268 -76.0622 34.9297 -75.7777 34.7252C-75.4332 34.6848 -75.8346 34.5518 -74.5168 34.6587C-72.3523 34.9043 -70.6695 35.777 -69.4396 36.777C-64.5332 40.6089 -62.906 42.674 -54.0554 47.5332C-53.5185 47.9619 -46.0661 50.8224 -44.9799 50.9164C-38.2719 52.3471 -43.9181 51.4259 -39.6833 52.0894C-38.3945 52.2161 -37.1676 52.23 -35.9934 52.1292C-30.0281 51.51 -25.0677 49.4239 -18.9261 44.6716C-17.4921 43.5505 -14.8548 41.1897 -12.3344 38.4554C-10.9482 36.9522 -9.0639 35.8758 -7.18616 35.4273C-6.43713 35.2604 -6.82672 35.4554 -6.22614 35.3434C-3.49469 34.8995 -1.35834 35.5533 0.122131 36.3372C4.26788 38.5123 5.48071 38.906 9.4621 40.765C14.7482 43.28 23.0315 46.8535 24.7592 47.4816C29.2272 49.2514 21.2705 46.3012 21.0423 46.1652C18.1314 45.1907 24.2372 47.7112 29.0414 49.2118C29.6236 49.7992 36.446 51.57 34.0475 50.6567C33.7686 50.5774 29.9955 49.5534 29.0414 49.2118C33.1888 50.1353 40.3221 52.4304 48.3992 52.2095C48.6753 52.1971 48.9529 52.1819 49.2318 52.164C53.1328 51.6135 49.6458 53.1833 61.2341 49.6103C66.382 47.6506 64.327 48.2327 68.7187 46.1809C74.1321 43.5362 80.2018 39.9578 85.8761 35.8948C88.7363 33.8069 92.7445 33.4851 95.7831 35.0743C98.0284 36.2188 100.301 37.3312 102.419 38.3268C106.199 40.0874 102.566 38.2593 105.159 39.4507C112.043 42.5722 118.17 45.2409 125.352 47.6647C126.003 47.88 124.452 47.2297 126.687 47.9767C134.641 50.5123 142.488 52.7499 150.161 51.9764C158.861 50.7924 167.171 46.8896 175.421 41.6177C177.44 40.3165 179.85 38.6498 182.349 36.7345C185.482 34.2484 190.546 33.8704 194.117 36.3189C198.579 39.3047 203.114 41.9377 206.64 43.7822C214.823 48.0245 224.848 52.36 234.622 52.0816C241.801 51.7815 248.406 49.2602 253.606 46.7019C261.54 42.5162 259.659 43.1764 262.876 41.085C264.398 40.0321 266.208 38.7533 268.044 37.3727C272.322 33.9971 278.746 35.3452 281.264 37.8253C282.466 38.8597 283.374 39.5917 283.711 39.865C283.733 39.8853 282.283 38.775 281.206 37.8961C279.914 36.9127 278.946 36.404 280.853 37.7069C280.955 37.7938 281.054 37.8799 281.149 37.9648C282.742 39.3965 283.65 39.8148 283.711 39.865C284.415 40.8821 297.523 49.0852 300.616 49.6366C302.172 50.1895 301.343 49.7641 302.156 50.0398C305.69 51.2038 309.373 51.9192 313.053 51.9047C323.875 51.7541 333.97 46.0629 342.634 39.4188C347.405 35.7688 354.513 36.6696 358.533 40.9575C359.017 41.4786 359.511 41.99 360.016 42.4907C360.275 42.7471 359.79 42.4598 360.403 43.0583C365.693 48.149 370.937 50.9634 376.332 51.9559C379.639 52.5164 383.163 51.8696 386.806 50.8103C396.244 47.846 403.163 43.7316 408.406 40.9765C410.586 39.6762 413.058 38.148 415.556 36.5243C419.461 33.8948 424.938 34.8874 427.789 37.6164C428.949 38.6648 430.058 39.609 431.033 40.4057C435.901 44.2907 436.886 44.3809 437.322 44.7083C444.784 49.3676 451.461 51.8713 458.345 51.8454C464.7 51.73 471.176 49.4309 478.203 44.7784C480.933 42.9708 484.549 40.1627 488.032 36.7619C490.669 34.1225 495.068 32.9956 498.625 34.5093C502.581 36.1306 506.297 37.6513 509.198 38.8371C515.934 41.5902 519.966 43.3169 526.176 45.8364C527.018 46.178 526.213 45.723 526.471 45.8247C533.439 48.5507 530.013 47.4384 531.419 48.0717C534.699 49.5494 537.165 50.6535 540.873 52.2051C542.859 53.0257 545.382 53.7143 548.667 53.4291C550.841 53.4692 556.6 51.0201 559.652 48.5717C563.647 45.462 562.303 46.815 566.083 43.0174C566.237 42.8524 566.286 42.7701 566.556 42.4468C566.892 42.075 567.488 41.3149 569.148 40.3191C573.724 37.6918 580.004 37.8442 584.277 41.5964C590.207 46.9398 597.64 51.4364 605.629 51.7291C608.676 51.8434 611.74 51.2545 614.639 50.2576C616.662 49.5165 614.039 50.3808 616.925 49.2247C622.766 46.7232 628.278 42.712 633.239 38.1845C636.98 34.6892 643.236 34.3287 647.175 37.6563C650.53 40.4355 653.944 43.0891 657.304 45.512C660.235 47.6009 658.335 46.3791 658.958 46.8517C662.775 49.7853 668.782 52.9807 669.781 53.4512C675.712 56.5187 681.91 59.1511 687.604 58.3952C696.147 56.9759 703.384 51.8496 709.534 45.796C713.271 42.0511 719.78 41.2134 724.316 44.6777C727.998 47.5062 731.987 50.2211 736.39 52.6002C737.61 53.4608 748.047 57.9561 752.998 58.2679C753.171 58.2871 754.62 58.5401 756.577 58.4914C758.322 58.453 760.474 58.1523 762.431 57.5685C762.679 57.4598 759.726 58.2256 764.842 56.7328C769.971 55.172 777.508 50.5961 783.181 45.7071C783.732 45.2446 784.533 44.577 785.486 43.7231C787.708 41.6241 792.63 39.5198 797.54 42.0713C797.714 42.1632 797.893 42.2569 798.076 42.3522C798.491 42.6174 808.403 47.4306 811.846 49.3363C812.409 49.6234 811.619 49.7666 819.49 53.0245C821.001 53.6203 818.302 52.4392 822.278 54.0153C828.266 56.2001 836.965 59.8882 844.208 58.3347C844.216 58.3326 844.223 58.3304 844.231 58.3282C845.599 58.0564 850.817 55.7553 854.478 52.8725C855.06 52.4289 854.063 53.4135 855.962 51.8262C857.912 50.1467 859.731 48.2537 861.41 46.2239C864.642 42.2142 871.068 40.5374 875.638 43.7893C879.802 46.7234 883.963 49.6625 888.057 52.5842C891.613 55.1214 889.689 53.9746 893.385 56.6348C897.082 59.2957 904.557 64.6164 908.497 67.2975C912.439 69.9791 908.339 66.7575 914.189 70.8526C914.89 71.3435 915.591 71.8344 916.292 72.3254L919.671 74.7091L915.538 74.788C885.597 75.435 855.281 75.7829 825.478 76.224C820.838 76.2923 824.744 76.3297 817.775 76.4384C792.96 76.8309 749.756 77.5269 728.108 77.5954C710.523 77.6559 732.694 77.2449 719.203 77.3504C712.942 77.3982 705.996 77.801 704.436 77.8302C689.231 78.1192 678.723 78.1032 665.232 78.3006C662.441 78.3413 665.182 78.4384 662.803 78.4716C654.661 78.5863 645.955 78.625 638.263 78.718C634.772 78.7604 635.417 78.8515 632.189 78.8782C624.386 78.9437 617.67 78.9717 610.169 78.9551C609.484 78.9536 614.098 78.7855 608.398 78.8381C599.065 78.9243 587.775 78.9425 577.095 79.1339C573.947 79.1908 573.733 79.417 567.023 79.3225C565.611 79.3026 567.423 79.0182 559.574 79.3193C558.297 79.3695 544.9 79.7977 538.472 79.6474C536.77 79.6082 532.417 79.4235 528.63 79.4879C528.116 79.4975 530.175 79.6015 527.036 79.638C515.885 79.7649 504.433 79.8369 493.013 79.9537C489.964 79.985 494.508 80.0782 489.961 80.1208C477.559 80.2376 461.964 80.3037 449.858 80.3333C445.391 80.3441 448.478 80.2235 448.153 80.2141C442.922 80.0611 439.816 80.324 438.073 80.3478C427.175 80.4919 419.021 80.416 409.021 80.4918C406.263 80.5122 408.22 80.6209 407.67 80.6339C401.972 80.7613 406.217 80.5318 402.607 80.5242C392.477 80.5019 381.338 80.5538 371.085 80.6026C367.326 80.6206 371.552 80.743 368.177 80.7575C348.341 80.8449 327.637 80.878 308.201 80.826C304.535 80.8159 306.841 80.7083 306.077 80.6853C300.838 80.5239 293.151 80.7581 291.38 80.7807C284.016 80.8758 280.766 80.8066 274.813 80.8075C274.247 80.8052 273.663 80.8034 273.05 80.8023C238.035 80.7399 195.61 80.4833 162.546 80.2821C119.914 80.0229 86.6495 79.7474 45.9497 79.5452C43.3501 79.5321 45.9697 79.6864 43.7305 79.6768C15.1057 79.5491 -13.2617 79.3274 -42.3255 79.1883C-44.6829 79.1768 -41.2876 79.3301 -45.0681 79.316C-52.7343 79.2887 -62.7355 79.2189 -70.659 79.1263C-74.5145 79.0814 -69.3439 79.0008 -73.2222 78.958C-82.2875 78.8577 -91.6361 78.788 -101.129 78.747C-105.1 78.7303 -99.1131 78.9048 -104.27 78.8725C-138.943 78.6581 -173.482 78.443 -208.714 78.0116C-211.127 77.982 -213.248 77.6917 -218.321 77.7072C-218.703 77.7807 -218.683 77.8706 -218.85 77.9509C-269.681 77.6213 -319.682 77.1326 -370.948 76.6811C-373.081 76.6623 -369.403 76.8394 -373.522 76.8038C-397.658 76.5952 -420.941 76.4294 -445.6 76.0565C-448.032 76.0198 -446.883 75.7744 -453.853 75.7481C-455.013 75.7445 -466.265 75.6726 -468.764 75.7041C-469.152 75.7088 -467.162 75.8474 -470.646 75.8176C-489.123 75.657 -508.225 75.4487 -526.619 75.1936L-527.158 72.9191C-525.424 72.0312 -523.697 71.147 -521.978 70.2675C-519.067 68.778 -522.103 70.4887 -520.029 69.4288C-505.315 61.9097 -489.388 53.5796 -475.305 46.44C-465.878 41.6614 -469.254 43.6518 -464.164 41.2683C-463.444 40.9311 -457.627 37.9336 -457.268 37.8904C-456.351 37.7735 -459.008 39.536 -457.697 39.2397C-457.42 39.1783 -449.667 35.0884 -454.198 37.625C-454.515 37.8017 -460.134 40.7683 -461.498 41.5392C-462.447 42.0757 -460.644 41.289 -462.595 42.3557C-464.546 43.4223 -466.766 44.4473 -470.013 46.1931C-473.258 47.9389 -471.752 47.3254 -478.282 50.7157ZM455.851 52.2941C456.831 52.3957 457.671 52.4143 458.354 52.3959C461.094 52.2416 461.291 52.0166 458.35 52.1432C457.772 52.1495 457.071 52.1454 456.241 52.1039C455.946 52.0901 455.559 52.263 455.851 52.2941ZM-182.286 52.3598C-174.745 51.8311 -170.054 49.2277 -175.13 50.8122C-180.242 52.1286 -184.57 52.382 -182.286 52.3598ZM-253.111 52.5748C-251.14 52.8839 -249.518 52.8041 -248.358 52.5984C-245.324 51.9396 -245.193 51.673 -248.412 52.2448C-249.376 52.3727 -250.676 52.4564 -252.328 52.3139C-252.852 52.2715 -253.619 52.492 -253.111 52.5748ZM-487.279 53.2695C-487.205 53.2379 -483.022 51.0852 -482.925 51.0284C-480.764 49.7528 -489.128 54.0574 -487.279 53.2695ZM-322.864 52.0828C-320.089 51.7535 -312.634 48.8524 -315.905 49.9399C-318.485 50.9809 -326.242 52.6785 -322.864 52.0828ZM725.888 47.2678C725.948 47.3361 728.703 49.2806 728.678 49.2022C728.539 48.9931 724.717 46.2853 725.888 47.2678ZM-443.02 37.5513C-435.807 44.2317 -428.85 48.1289 -426.397 49.3844C-423.837 50.4944 -426.492 50.3648 -435.41 44.3173C-438.635 42.152 -428.303 48.7629 -432.437 46.0427C-436.768 43.2263 -440.075 40.6527 -443.331 37.7591C-445.668 35.6665 -449.358 34.5428 -452.923 36.1597C-453.638 36.5691 -451.777 35.1411 -449.086 35.1745C-446.383 35.0853 -443.648 36.883 -443.086 37.4915C-443.049 37.524 -443.019 37.5516 -442.995 37.5739C-443.003 37.5663 -443.012 37.5588 -443.02 37.5513ZM459.154 52.8916C459.279 52.9856 463.91 52.3649 464.003 52.2497C465.218 51.8898 463.545 52.2924 461.78 52.5368C460.018 52.7971 458.163 52.8473 459.154 52.8916ZM899.558 62.4549C899.762 62.6136 908.612 68.8642 908.907 69.0582C913.662 72.1235 895.769 59.4859 899.558 62.4549ZM175.668 42.9249C171.453 45.8236 165.986 48.6784 162.113 49.9972C166.838 48.1083 171.358 45.6616 175.668 42.9249Z"
          fill="#1A1918" />
</svg>
