<svg width="654" height="276" viewBox="0 0 654 276" fill="none" xmlns="http://www.w3.org/2000/svg">
<path d="M25.0178 8.51007C2.04091 19.4864 17.1015 33.7678 17.1015 33.7678C17.1015 33.7678 0.574219 40.0634 0.574219 49.3173C0.574219 59.5665 17.1015 61.1519 17.1015 61.1519C17.1015 61.1519 3.74019 64.9393 3.74019 80.4187C3.74019 93.0894 17.9922 96.3489 17.9922 96.3489C17.9922 96.3489 3.74019 106.562 3.74019 113.855C3.74019 124.545 11.344 128.403 11.344 128.403C11.344 128.403 5.42895 136.753 3.74019 144.033C1.46891 153.825 17.9922 166.713 17.9922 166.713C17.9922 166.713 0.574219 171.45 0.574219 185.009C0.574219 198.568 17.9922 208.197 17.9922 208.197C17.9922 208.197 0.573849 209.853 0.574219 223.94C0.574589 238.026 25.0198 244.602 25.0198 244.602C25.0198 244.602 3.59263 261.25 29.0165 269.176C46.2382 274.544 65.3796 246.831 65.3796 246.831C65.3796 246.831 76.3797 272.085 87.7337 272.085C105.894 272.085 112.597 251.399 112.597 251.399C112.597 251.399 124.082 272.085 142.043 272.085C160.749 272.085 168.107 249.241 168.107 249.241C168.107 249.241 170.459 272.085 197.838 272.085C225.217 272.085 230.883 249.969 230.883 249.969C230.883 249.969 247.463 272.085 269.708 272.085C291.954 272.085 307.494 251.399 307.494 251.399C307.494 251.399 313.079 274.324 333.716 274.324C358.044 274.324 368.973 251.399 368.973 251.399C368.973 251.399 389.075 274.324 402.288 274.324C417.425 274.324 419.987 251.399 419.987 251.399C419.987 251.399 437.38 278.965 453.112 274.324C463.17 271.356 471.655 251.399 471.655 251.399C471.655 251.399 480.211 274.324 495.908 274.324C510.243 274.324 523.323 249.969 523.323 249.969C523.323 249.969 531.461 272.085 545.614 272.085C565.672 272.085 573.545 251.399 573.545 251.399C573.545 251.399 586.74 277.42 606.618 269.176C629.094 259.853 612.185 246.831 612.185 246.831C612.185 246.831 644.05 253.969 645.87 237.549C647.69 221.129 629.963 215.965 629.963 215.965C629.963 215.965 652.996 211.573 652.996 196.795C652.996 182.017 637.089 177.914 637.089 177.914C637.089 177.914 652.996 169.529 652.996 156.549C652.996 143.569 637.089 136.204 637.089 136.204C637.089 136.204 650.475 135.26 652.996 124.351C655.518 113.443 637.089 106.202 637.089 106.202C637.089 106.202 652.996 103.294 652.996 92.1544C652.996 81.0143 637.089 75.4684 637.089 75.4684C637.089 75.4684 655.032 65.5696 652.996 54.8349C650.96 44.1002 637.089 43.2713 637.089 43.2713C637.089 43.2713 657.021 22.1489 645.87 15.0959C634.72 8.04289 624.492 19.4864 624.492 19.4864C624.492 19.4864 628.626 8.90205 611.131 8.51007C593.636 8.11808 579.114 23.8768 579.114 23.8768C579.114 23.8768 582.181 5.3609 560.358 3.38779C538.535 1.41469 531.014 23.8768 531.014 23.8768C531.014 23.8768 516.87 2.63265 504.242 3.38779C492.688 4.07865 485.141 19.4864 485.141 19.4864C485.141 19.4864 469.4 2.82143 457.032 3.38779C445.465 3.91745 437.932 19.4864 437.932 19.4864C437.932 19.4864 424.472 5.28643 413.385 3.38779C398.726 0.877482 381.368 23.8768 381.368 23.8768C381.368 23.8768 380.427 6.828 358.586 6.828C345.34 6.828 328.687 19.4864 328.687 19.4864C328.687 19.4864 312.017 0.419969 297.482 0.419922C278.414 0.41986 270.494 19.4864 270.494 19.4864C270.494 19.4864 256.646 4.59679 245.924 3.38779C233.379 1.97331 221.797 19.4864 221.797 19.4864C221.797 19.4864 209.972 4.40175 198.714 3.38779C185.85 2.22919 173.696 19.4864 173.696 19.4864C173.696 19.4864 163.863 3.58986 153.286 3.38779C142.466 3.18108 135.394 19.4864 135.394 19.4864C135.394 19.4864 132.216 4.29498 118.547 3.38779C101.761 2.27383 98.1096 23.8768 98.1096 23.8768C98.1096 23.8768 93.629 3.38781 75.7906 3.38779C57.9522 3.38777 52.6813 23.8768 52.6813 23.8768C52.6813 23.8768 47.9947 -2.46623 25.0178 8.51007Z" fill="#F3E8D6"/>
<path d="M16.5635 34.1608C12.7469 30.2758 10.086 24.2046 12.4264 18.7207C14.7266 13.3739 19.794 10.2317 24.6947 7.83363C29.1186 5.72581 34.2447 4.2838 39.2963 5.58752C42.9495 6.75168 42.4739 6.93515 43.817 7.71284C46.3149 9.2208 49.1661 13.108 49.4445 13.7005C51.4846 17.2779 50.5317 15.9568 50.8027 16.438C52.7746 21.0939 52.5812 20.7958 53.3406 23.7595L52.0328 23.71C52.2016 23.0586 52.4311 22.3227 52.7901 21.3455C55.2852 14.3534 61.486 5.16022 70.9894 3.23009C73.3589 2.78286 73.2103 2.83658 75.7906 2.78361C76.7216 2.79709 77.9675 2.82468 79.7836 3.1487C82.202 3.49965 87.2606 5.26846 90.9254 9.1995C94.6728 13.0079 97.0102 18.159 98.0337 21.4685C98.0109 21.5143 97.6907 20.7 97.5228 20.3668C97.9789 21.5516 98.3537 22.6802 98.6246 23.7642L97.5898 23.789C98.2921 20.0887 99.2608 17.3045 100.853 14.1157C102.527 11.0747 104.703 7.02554 110.418 4.22161C112.477 3.33672 114.611 2.5385 118.588 2.76747C118.612 2.76924 118.637 2.77106 118.661 2.77293C120.655 2.9488 121.68 3.23093 123.142 3.73774C124.556 4.29953 126.611 5.01086 129.514 7.7782C131.466 9.8073 132.673 11.1454 134.491 15.0593C135.048 16.3392 135.576 17.7511 135.954 19.3692L134.869 19.2586C137.986 12.8829 143.797 3.03962 153.296 2.86792C159.745 3.23414 164.022 7.54679 166.642 9.97918C169.738 13.0555 172.136 16.1651 174.124 19.222L173.285 19.197C180.157 10.68 186.888 2.81477 198.765 2.81898C200.309 2.9594 201.857 3.35435 203.38 3.93327C204.648 4.429 201.835 3.41473 204.155 4.33119C206.473 5.29497 208.714 6.64273 209.224 6.98002C213.003 9.35872 218.667 14.6726 222.201 19.1698L221.369 19.2033C222.986 16.8737 224.501 15.134 225.29 14.219C228.26 10.8912 228.376 10.9568 228.678 10.5994C229.06 10.3424 229.423 9.37467 234.607 5.89377C237.647 4.00277 241.651 2.3093 245.989 2.81361C255.776 4.54736 263.526 12.1565 269.31 17.6262C269.848 18.1625 270.339 18.6622 270.825 19.1785L270.076 19.3129C275.587 8.90452 279.356 5.30495 288.216 1.61915C291.18 0.530278 294.319 -0.00115412 297.482 0.000474155C310.515 0.847356 320.481 10.3447 329.011 19.2033L328.427 19.144C337.373 12.8711 347.28 6.85834 358.586 6.38954C367.436 6.1079 377.523 10.1921 380.675 19.1485C380.598 19.0612 380.52 18.9719 380.437 18.8733C381.091 20.4618 381.569 22.1152 381.743 23.8561L381.069 23.6508C381.734 22.7647 382.45 21.8798 383.167 21.0203C383.036 21.1962 382.916 21.3616 382.802 21.5208C382.674 21.6964 382.547 21.8723 382.429 22.0384C390.42 13.2345 398.501 2.40669 413.464 2.92746C414.404 3.08949 415.36 3.33971 416.285 3.64566C416.576 3.74117 415.785 3.56946 416.026 3.64925C419.394 4.72408 422.836 6.65323 425.371 8.37228C431.661 12.3925 440.303 21.5588 436.532 17.5019C437.097 18.051 437.682 18.6314 438.229 19.2042L437.562 19.3077C441.456 12.1716 447.561 3.73179 457.013 2.9793C466.249 3.03103 473.61 8.95284 479.58 13.7775C482.424 16.2027 484.075 17.8804 485.372 19.2686L484.857 19.3469C485.672 17.831 486.402 16.703 487.292 15.3657C489.241 12.5717 488.168 13.9411 488.887 12.9563C492.146 8.07196 499.987 2.68728 504.223 3.07578C505.187 3.03606 505.848 3.12815 506.092 3.17339C507.572 3.26727 509.113 3.64754 510.521 4.17238C510.088 4.01892 515.225 6.15928 519.798 10.459C524.473 14.6188 528.826 20.2083 530.528 22.6218C530.922 23.1761 531.076 23.4421 531.245 23.7232L530.751 23.7888C530.817 23.627 530.906 23.4076 531.015 23.1294C534.788 14.9382 536.262 12.961 542.2 7.95446C544.485 6.46055 540.812 8.55213 546.971 5.18901C547.249 5.06526 547.306 4.99552 548.266 4.58964C549.236 4.22921 551.137 3.32727 555.329 2.92399C556.886 2.79316 558.551 2.78391 560.398 2.94942C564.781 3.35603 570.203 4.53234 574.353 8.36832C578.538 12.1618 580.261 18.374 579.56 23.9507L578.782 23.5705C583.313 18.9159 588.448 15.2918 593.029 12.8647C594.195 12.2887 590.677 14.1043 596.019 11.4901C598.011 10.6735 596.949 10.7887 601.965 9.25816C604.917 8.45302 608.011 8.01128 611.141 8.08506C614.579 8.19429 618.113 8.54592 621.279 10.2862C624.553 11.8928 626.183 16.1771 624.865 19.6317L624.194 19.2201C629.525 13.4419 639.055 9.86932 646.083 14.7602C648.711 16.2612 649.996 19.5206 649.631 22.3828C649.676 21.9902 649.571 19.9024 649.346 19.3608C649.257 19.0923 649.309 19.1762 649.449 20.0445C649.567 20.8963 649.705 22.6112 648.931 25.2916C648.401 26.9979 648.878 25.751 648.624 26.5072C646.305 32.575 642.887 37.0632 638.417 42.3599C637.997 42.8423 637.681 43.2046 637.377 43.5431L637.113 42.8759C638.113 42.9425 638.917 43.0053 640.649 43.388C644.317 44.3763 646.041 44.9386 649.513 47.7722C652.218 50.3053 652.984 52.4299 653.485 54.7422C653.88 56.8797 653.709 59.5947 651.543 63.1016C648.067 68.6387 642.771 72.566 637.289 75.8314L637.226 75.077C644.553 78.0152 653.156 83.1776 653.42 92.1544C653.377 100.81 644.337 105.044 637.167 106.625L637.246 105.802C644.666 109.223 654.943 114.529 653.416 124.449C651.851 131.932 644.098 135.929 637.119 136.626L637.267 135.82C645.172 139.898 653.307 146.864 653.394 156.549C653.393 157.369 653.33 158.18 653.209 158.98C651.646 167.951 644.58 174.018 637.31 178.333L637.208 177.455C642.089 178.931 646.81 181.651 650.094 186.075C652.297 189.59 653.057 190.546 653.432 196.795C653.433 197.026 653.429 197.261 653.418 197.501C653.424 198.252 653.088 201.549 651.31 204.245C649.628 206.978 647.048 208.915 646.362 209.303C643.924 211.13 642.208 212.02 639.848 213.124C641.66 212.343 643.483 211.397 645.083 210.363C640.124 213.573 635.063 215.306 630.054 216.443L630.099 215.498C634.419 216.926 638.353 219.21 641.539 222.573C643.957 225.305 643.996 225.949 644.113 226.073C644.164 226.245 644.157 226.054 645.084 228.094C646.459 231.607 646.712 233.743 646.322 237.599C646.224 238.357 646.07 239.108 645.772 239.966C644.351 244.091 641.497 246.838 633.692 248.286C632.855 248.488 627.905 249.066 623.784 248.791C620.811 248.604 619.954 248.509 615.292 247.824C615.05 247.783 613.742 247.597 612.089 247.259L612.453 246.484C615.258 248.553 618.281 252.999 618.575 255.271C619.302 257.796 618.286 261.381 616.357 263.396C614.495 265.505 612.555 266.571 612.132 266.864C610.255 268.036 608.509 268.851 606.783 269.574C597.538 273.1 591.372 270.762 584.926 265.828C583.191 264.795 577.208 258.987 573.935 253.111C573.681 252.678 573.371 252.132 573.109 251.62L574.003 251.573C571.13 260.301 559.032 269.912 556.747 270.241C551.01 272.519 549.005 272.379 545.614 272.53C543.584 272.508 540.807 272.218 537.115 269.859C532.398 267.057 526.307 258.947 522.926 250.115L523.694 250.169C519.235 258.168 513.435 264.911 510.31 267.703C503.785 273.175 506.999 270.571 504.172 272.46C501.713 273.808 501.021 273.888 500.626 274.032C500.213 274.129 500.034 274.262 498.131 274.617C497.392 274.738 496.649 274.802 495.908 274.802C485.489 274.515 479.106 266.319 474.424 258.39C474.212 257.893 473.972 257.327 473.766 256.809C473.496 256.339 473.246 255.892 472.992 255.423C472.39 254.199 471.781 252.873 471.267 251.544L472.036 251.561C471.702 252.332 471.351 253.082 471.02 253.768C471.456 252.895 471.797 252.181 472.071 251.576L471.23 251.557C472.494 254.747 472.236 254.2 471.164 251.582L472.137 251.604C469.869 257.189 461.352 271.903 454.481 274.237C454.091 274.405 453.658 274.566 453.222 274.695C443.914 277.85 432.409 267.838 426.89 261.356C425.393 259.635 426.467 260.779 426.162 260.427C423.136 256.802 422.32 255.83 419.536 251.683L420.516 251.458C420.418 252.268 420.273 253.133 420.072 254.141C419.291 257.984 417.989 261.796 416.183 265.181C413.569 270.361 408.413 274.963 402.288 274.775C387.879 272.79 378.06 261.406 368.593 251.732L369.429 251.616C365.782 258.543 360.428 264.617 353.786 268.932C349.787 271.495 345.887 272.931 342.013 273.825C338.864 274.534 336.304 274.765 333.716 274.797C331.724 274.809 329.72 274.641 327.453 274.078C322.051 273.033 315.922 267.829 313.844 264.89C311.677 261.994 315.173 267.113 311.447 261.625C309.892 259.017 312.709 263.579 310.789 260.355C309.338 257.789 307.983 254.81 307.074 251.501L307.841 251.659C301.552 259.598 292.134 266.85 283.315 269.973C283.84 269.801 284.548 269.543 285.17 269.301C280.131 271.428 274.922 272.553 269.708 272.539C262.263 272.521 255.022 270.067 248.186 265.908C244.034 263.532 237.358 258.022 234.218 254.544C232.579 252.802 231.515 251.53 230.532 250.232L231.308 250.078C230.847 251.619 230.259 252.991 229.417 254.664C228.689 256.048 229.032 255.526 228.509 256.437C221.422 267.318 213.695 271.259 200.335 272.374C199.523 272.416 198.691 272.438 197.838 272.439C184.114 273.273 169.502 263.711 167.72 249.281L168.477 249.36C164.42 260.646 155.297 272.621 142.043 272.504C128.867 272.379 118.653 262.127 112.205 251.617L113.024 251.537C109.378 261.537 101.372 271.403 90.1 272.441C89.2366 272.527 88.5357 272.571 87.7337 272.59C86.5772 272.606 85.2925 272.429 83.6391 271.686C79.4641 269.454 79.6558 268.864 79.1229 268.532C76.2738 265.717 77.2683 266.991 73.9448 262.784C70.8851 258.682 67.6071 253.078 64.8867 247.046L65.822 247.137C60.7553 254.166 54.4133 260.595 48.9757 264.462C43.1152 268.688 35.8011 271.863 28.8597 269.679C23.5522 267.938 16.9039 265.294 16.064 258.813C15.8055 252.544 20.3617 247.87 24.6631 244.143L24.8688 245.163C18.4496 243.238 12.0642 240.571 6.50183 236.01C5.06647 234.71 6.00596 235.626 3.7323 233.14C1.29033 230.3 0.0227755 226.99 0.0524278 223.94C0.264566 213.332 8.82082 209.049 17.9382 207.63L17.7164 208.696C12.924 205.73 6.96939 201.875 2.33988 193.813C1.02191 191.332 0.00216413 188.32 0.00863701 185.009C-0.306553 176.172 8.49587 168.953 17.8503 166.191L17.6596 167.14C11.1918 161.337 2.29671 154.393 3.23741 143.917C4.70852 138.085 7.70996 132.909 10.9344 128.113L11.1169 128.851C5.70346 125.679 3.15228 119.46 3.25028 113.855C4.24977 106.693 9.94095 102.656 14.0063 98.8838C14.0065 98.884 14.0066 98.8841 14.0067 98.8843C15.1465 97.893 16.365 96.889 17.678 95.9104L17.8719 96.8747C10.8565 95.2772 2.74813 88.9078 3.18897 80.4187C3.20426 77.5941 3.68291 74.8403 4.65246 72.3786C3.69116 74.9564 3.29349 77.6911 3.30964 80.4187C3.0669 88.76 10.5581 94.8345 17.9204 96.6627L17.8046 96.0871C11.9348 100.874 4.79865 105.771 3.48751 113.855C3.40431 119.627 6.12199 125.623 11.2434 128.601L11.1625 128.274C7.92758 133.106 4.97348 138.26 3.53888 143.987C2.5777 153.879 11.1222 160.9 17.867 166.874L17.9388 166.517C9.66422 169.073 0.299109 175.2 0.359597 185.009C0.636287 195.5 9.38381 203.178 17.8818 208.397L17.9706 207.97C10.0678 208.878 0.557029 213.871 0.367841 223.055C0.352599 223.344 0.344856 223.639 0.34494 223.94C1.28766 236.255 14.6634 241.412 24.9671 244.798L24.8953 244.442C20.7046 248.054 16.173 252.743 16.4348 258.769C17.2044 264.972 23.7465 267.621 28.9716 269.32C44.8022 272.681 56.6509 258.161 65.4336 246.868L65.3195 246.857C70.4727 256.789 75.7601 269.763 87.7337 272.088C99.772 272.32 108.796 261.887 112.558 251.386L112.587 251.297L112.633 251.379C119.049 261.855 129.241 271.931 142.043 272.031C144.094 272.033 146.137 271.753 148.095 271.183C154.731 268.911 156.982 266.719 160.858 262.304C161.48 261.52 159.817 263.508 161.71 261.08C164.375 257.502 166.539 253.453 168.031 249.216L168.186 249.233C169.886 263.119 183.999 272.812 197.838 272.009C212.135 272.599 226.767 263.742 230.851 249.961L230.868 249.896L230.909 249.95C237.607 258.256 246.03 265.238 255.643 269.178C262.314 271.743 265.732 271.908 269.708 271.974C271.988 271.944 274.5 271.774 277.98 270.981C276.307 271.398 275.197 271.619 273.695 271.832C287.226 270.296 299.024 261.762 307.524 251.421L307.458 251.408C310.626 263.218 320.578 274.839 333.716 274.375C348.719 274.66 362.197 264.398 369.018 251.42L368.935 251.432C371.901 254.742 375.12 257.952 378.435 260.958C379.971 262.336 380.109 262.568 381.763 263.963C385.078 266.732 388.497 269.108 391.785 270.96C396.137 273.213 396.933 273.794 401.46 274.404C401.794 274.426 402.06 274.431 402.288 274.428C403.6 274.287 403.842 274.698 407.704 273.267C408.039 273.049 408.472 273.247 411.022 271.255C415.465 267.819 419.092 259.076 420.036 251.404L419.944 251.425C422.526 255.364 425.27 258.719 427.075 260.786C433.124 267.847 439.388 272.176 442.683 273.455C448.136 275.631 450.599 275.014 453.127 274.373C454.726 273.865 456.452 272.993 458.782 270.934C464.579 265.526 468.44 258.462 471.677 251.408L471.631 251.407C476.074 261.812 483.475 273.941 495.908 274.374C509.133 273.072 516.985 260.471 523.4 250.011L523.24 250C527.363 259.649 533.729 271.53 545.614 272.202C558.183 272.52 568.908 262.794 573.669 251.446L573.428 251.458C573.924 252.408 574.48 253.34 575.058 254.257C576.713 257.501 585.885 268.253 592.868 269.839C593.739 270.132 596.203 270.862 599.01 270.826C601.829 270.84 604.801 270.009 606.639 269.226C607.512 268.866 608.113 268.589 608.404 268.454C615.095 265.73 619.671 259.765 618.249 255.51C617.49 251.935 614.898 248.888 612.262 246.732L612.157 246.954C616.113 247.755 619.685 248.093 621.963 248.257C625.651 248.523 630.851 248.604 635.358 247.553C639.924 246.64 643.261 243.888 644.06 242.547C645.78 240.036 645.79 238.504 645.978 237.561C646.114 236.124 646.361 235.732 645.971 232.48C645.845 231.696 645.811 231.713 645.686 231.243C645.526 230.796 645.423 229.761 644.207 227.232C641.937 223.095 640.348 221.822 637.84 219.838C635.954 218.401 632.52 216.64 629.981 215.904L629.975 216.028C630.897 215.83 631.678 215.617 632.203 215.479C641.73 212.239 648.114 211.046 652.67 200.354C652.909 199.474 653.139 198.277 653.138 196.795C653.952 190.473 647.154 180.293 637.118 177.802L637.143 178.016C648.839 172.031 653.722 159.658 653.013 157.784C653.044 157.344 653.054 156.933 653.051 156.549C652.953 153.404 652.408 152.431 652.516 152.676C652.561 152.929 652.983 154.446 652.981 156.549C653.387 161.698 648.639 168.433 648.049 168.897C642.67 174.652 643.047 174.051 637.09 177.914C637.376 177.986 637.721 178.092 638.038 178.195C642.062 179.326 653.612 186.227 652.959 196.795C653.042 203.121 648.412 207.213 646.467 208.576C641.547 212.568 636.252 214.474 629.946 215.877L629.938 216.051C630.348 216.179 630.802 216.346 631.236 216.517C635.782 218.47 636.125 219.074 636.384 219.125C636.581 219.275 636.662 219.048 639.441 221.341C641.903 222.912 646.314 230.278 645.879 234.723C645.908 235.773 645.86 236.672 645.774 237.538C645.435 240.017 644.907 242.425 641.405 244.979C632.347 250.06 623.337 248.362 615.04 247.222C614.086 247.09 613.098 246.936 612.199 246.768L612.145 246.883C612.571 247.2 613.024 247.588 613.441 247.969C617.777 251.776 620.254 259.221 615.44 263.475C616.122 262.801 616.709 262.092 617.201 261.27C616.373 262.79 615.14 264.064 613.792 265.135C611.568 266.843 609.118 268.045 606.578 269.08C603.865 270.18 600.909 270.771 597.885 270.578C589.868 269.803 587.692 267.049 586.077 266.134C584.544 264.927 583.643 264.307 580.604 261.047C577.41 257.468 575.346 254.362 573.673 251.334L573.527 251.045L573.412 251.348C572.297 254.098 570.885 256.594 569.017 259.181C563.304 266.379 559.522 269.508 550.417 271.584C548.958 271.845 547.247 271.992 545.614 271.98C543.428 271.981 541.566 271.355 540.907 271.12C540.26 270.831 540.668 271.263 543.362 271.873C533.894 270.135 527.228 259.546 523.316 249.971L523.328 249.972C518.921 257.776 513.499 264.702 508.071 269.088C504.513 271.817 509.205 268.115 508.579 268.555C505.65 270.939 502.954 272.868 499.146 273.85C498.207 274.076 497.105 274.245 495.908 274.239C488.627 274.686 481.012 267.131 478.677 263.618C476.121 260.25 473.335 255.276 471.777 251.353L471.663 251.046L471.534 251.348C470.296 254.226 469.152 256.367 468.925 256.811C465.778 262.669 464.514 263.988 463.281 265.719C459.118 271.281 455.68 273.486 453.084 274.228C451.118 274.768 449.662 274.761 448.072 274.533C444.599 275.28 433.323 267.871 431.479 265.193C431.236 265.335 423.714 257.321 420.116 251.579C420.094 251.544 420.076 251.513 420.06 251.487C420.055 251.476 419.994 251.377 420.003 251.389L419.974 251.344L419.968 251.397C419.789 252.532 419.533 253.706 419.247 254.841C417.936 260.884 414.302 274.069 402.288 274.316C390.836 273.198 381.919 263.858 375.153 257.68C374.819 257.349 374.136 256.856 372.213 254.852C372.09 254.719 372.318 254.902 371.038 253.547C370.509 252.982 369.817 252.239 369.032 251.347L368.953 251.257L368.902 251.365C365.623 259.685 350.7 271.066 348.111 271.15C340.53 274.181 337.735 273.998 333.716 274.191C332.833 274.194 331.944 274.162 330.878 274.05C323.133 272.677 321.887 271.763 316.331 266.804C313.912 264.266 311.802 261.706 309.486 256.644C308.308 253.884 308.2 253.296 307.662 251.358L307.576 251.003L307.356 251.295C307.293 251.378 307.26 251.419 307.173 251.529C307.12 251.595 307.054 251.678 306.972 251.779C300.975 258.832 295.523 263.258 288.228 267.064C286.432 268.262 282.745 269.773 278.79 270.735C275.929 271.445 272.858 271.865 269.708 271.86C254.828 271.98 241.048 261.293 233.445 252.717C232.616 251.789 231.773 250.8 231.045 249.848L230.792 249.51L230.687 249.919C226.352 264.149 211.631 272.354 197.838 271.797C184.071 272.535 170.199 263.067 168.484 249.202L167.746 249.125C163.761 260.051 154.959 271.771 142.043 271.652C141.124 271.651 140.222 271.596 139.312 271.487C132.527 270.264 130.807 269.437 124.892 265.164C122.325 263.096 119.85 260.709 116.525 256.443C115.406 254.986 114.101 253.172 112.951 251.202L112.499 250.388L112.212 251.274C111.21 254.169 109.629 257.241 107.903 259.798C107.079 260.984 106.968 261.054 105.632 262.688C101.224 268.074 94.6884 271.746 87.7337 271.649C78.8094 270.541 73.7225 261.123 69.1753 253.564C67.4715 250.498 66.3234 247.99 65.7325 246.677L65.4566 246.043L65.0629 246.612C64.4796 247.448 64.2262 247.815 64.549 247.509C63.1405 249.344 61.6952 251.064 60.2358 252.684C54.7488 258.788 49.9984 264.328 39.5972 268.453C38.7868 268.776 33.4938 270.42 29.1088 268.879C27.7776 268.461 26.6604 268.042 25.6482 267.597C25.3138 267.526 25.9735 267.86 25.8246 267.861C23.6315 266.973 20.8977 265.583 19.0033 263.488C17.0529 261.451 16.6151 258.682 16.8457 257.148C17.2581 254.006 18.5653 252.155 19.0344 251.341C21.1378 248.332 20.8211 249.17 20.9681 248.933C22.456 247.201 23.9165 245.853 25.197 244.83L25.6556 244.474L25.0948 244.323C14.8409 240.754 14.8055 240.82 7.43013 235.808C6.3596 234.984 0.561739 230.216 0.722903 223.94C0.61686 219.646 2.80692 216.214 3.73958 215.121C3.87853 215.03 3.30055 215.818 3.19192 216.078C6.27638 211.791 11.5618 209.615 16.6969 208.668C15.5767 208.813 14.2613 209.087 13.2637 209.343C14.8631 208.863 16.4477 208.513 18.005 208.332L18.4398 208.29L18.0575 208.079C10.6659 203.593 4.65379 198.179 1.81669 191.166C0.432908 187.073 0.829664 186.776 0.72067 185.009C0.722435 184.691 0.730553 184.328 0.758179 183.896C0.811917 183.324 0.602575 184.278 0.826215 182.577C3.3527 172.265 10.7762 169.428 18.0134 166.791L18.1693 166.749L18.0419 166.649C15.7921 164.824 13.413 162.651 10.8942 159.883C7.47171 155.68 2.88407 151.478 3.7761 144.042C4.0591 142.843 4.46259 141.602 4.96648 140.324C5.15521 139.59 8.20303 133.09 11.4036 128.445L11.4525 128.376L11.377 128.338C10.6428 127.952 9.9732 127.465 9.38967 126.997C8.03603 125.76 7.05951 124.447 6.39079 123.271C3.66025 118.666 3.87887 116.155 3.78846 113.855C3.96425 111.133 5.25175 108.095 11.3483 102.187C12.7856 100.823 15.1318 98.7215 18.1177 96.524L18.5065 96.2457L18.0402 96.1388C11.6057 94.7077 3.41703 88.3066 3.93139 80.4187C3.85166 75.1595 5.75897 70.8079 7.36539 68.5973C10.5777 64.449 10.8623 64.8081 11.52 64.1467C14.2339 62.1791 15.5913 61.7361 17.1226 61.2265L17.1089 61.0747C16.0198 60.9332 14.7564 60.7368 12.7079 60.2319C7.8733 59.1347 0.64345 55.7616 0.567896 49.8159C0.558763 49.6388 0.555566 49.4726 0.556307 49.3173C0.626896 47.6333 0.830707 47.501 0.951155 47.0578C1.14985 46.647 1.18826 45.7946 2.88106 43.4424C3.26253 42.9453 2.88158 43.3863 2.90065 43.3263C2.94786 43.2951 3.22528 42.5836 5.63652 40.4679C6.20098 39.5142 15.0825 34.3865 17.1513 33.8985C13.2376 35.4748 0.741977 41.5963 0.877349 49.3173C0.881022 50.4479 1.1056 51.4235 1.38438 52.1675C3.67487 57.7729 10.7804 59.8989 17.1393 60.7584L17.2093 61.5322C9.80024 63.9125 3.86377 71.6785 4.21535 80.4187C3.91033 87.9326 10.7216 93.9733 18.1111 95.829L19.265 96.0935L18.3028 96.7823C12.6965 101.283 5.49965 106.463 4.32099 113.855C4.22578 119.32 6.83315 125.068 11.6203 127.858L12.2513 128.179L11.8422 128.756C8.69877 133.449 5.74627 138.606 4.36038 144.177C3.37067 153.028 11.6817 160.357 18.405 166.184L19.4623 167.01L18.1683 167.361C10.1103 169.851 1.14093 175.872 1.27159 185.009C1.49875 194.934 10.1131 202.552 18.3403 207.567L20.3765 208.694L18.0603 208.913C9.99164 209.818 0.879372 215.166 1.30745 223.94C2.09717 235.388 15.276 240.657 25.2133 243.883L26.6591 244.273L25.4768 245.19C21.3279 248.707 16.946 253.541 17.3766 258.858C18.1221 264.233 24.1835 266.833 29.2396 268.46C44.6887 271.701 56.4829 257.004 64.7652 246.407L65.529 245.302L66.0642 246.533C71.2523 256.925 77.2201 269.596 87.7337 271.348C97.5331 271.523 105.118 264.425 109.181 257.08C110.343 255.03 111.275 253.02 111.926 251.181L112.427 249.637L113.214 251.056C116.46 256.518 119.77 260.325 123.41 263.578C128.425 267.609 124.121 264.311 128.951 267.548C133.449 270.193 137.36 271.415 142.043 271.482C142.566 271.484 143.088 271.467 143.612 271.43C155.471 270.673 163.702 259.68 167.573 249.069L168.665 249.183C170.366 262.954 184.247 272.335 197.838 271.564C209.602 271.84 221.666 266.422 227.565 256.152C228.807 254.073 229.8 251.912 230.393 249.844L230.655 248.821L231.288 249.666C235.326 254.69 239.713 258.768 244.91 262.553C247.674 264.492 247.722 264.603 249.788 265.83C255.96 269.39 262.803 271.619 269.708 271.593C284.603 271.495 297.738 262.366 307.044 251.061L307.76 250.108L308.042 251.265C308.919 254.467 310.341 257.701 312.102 260.641C316.349 268.158 324.738 274.124 333.716 273.849C335.727 273.854 337.661 273.703 339.587 273.392C348.229 272.102 356.167 266.909 361.404 261.149C364.272 258.018 365.561 256.153 366.424 254.893C368.07 252.374 368.344 251.629 368.547 251.196L368.856 250.549L369.328 251.088C369.607 251.374 369.831 251.602 370.648 252.484C375.869 257.985 378.551 260.69 384.088 265.153C386.305 266.847 386.027 266.624 389.388 268.867C393.745 271.522 392.097 270.642 395.373 272.213C395.579 272.292 394.921 271.996 396.72 272.696C398.464 273.338 400.357 273.826 402.288 273.827C413.341 274.014 418.257 260.268 419.449 251.339L419.621 249.804L420.444 251.11C420.961 251.915 421.535 252.748 422.079 253.518C429.696 263.57 439.818 276.484 452.977 273.868C462.304 270.016 467.108 259.794 471.272 251.236L471.68 250.278L472.044 251.254C472.429 252.255 472.899 253.314 473.374 254.315C476.011 259.565 475.451 258.091 476.377 259.706C481.36 266.935 483.379 270.378 492.1 273.409C492.703 273.556 494.077 273.862 495.908 273.845C498.554 273.877 502.037 272.677 504.98 270.742C507.694 269.026 510.435 266.544 512.321 264.528C514.191 262.497 514.425 262.101 516.463 259.486C519.837 254.841 519.27 255.963 522.922 249.754L523.401 248.863L523.75 249.812C523.879 250.156 524.04 250.552 524.208 250.952C525.492 254.046 530.729 265.177 538.605 269.599C540.672 270.778 543.074 271.56 545.614 271.557C557.088 272.062 568.41 262.702 573.122 251.238L573.487 250.281L573.949 251.194C574.841 252.888 575.933 254.604 577.053 256.192C580.494 260.852 585.669 267.313 594.505 269.72C597.749 270.559 602.151 270.497 606.413 268.68C610.941 266.759 616.361 263.9 617.581 258.939C618.603 253.935 614.714 249.64 611.868 247.243L612.299 246.324C612.616 246.394 613.055 246.481 613.374 246.542C619.177 247.562 619.642 247.523 620.317 247.632C624.818 248.023 623.003 247.781 626.02 247.876C630.151 247.916 634.062 247.643 637.59 246.434C639.816 245.614 640.049 245.249 640.493 245.016C643.281 243.411 645.101 240.6 645.381 237.495C646.893 227.461 638.733 219.27 629.822 216.449L629.869 215.469C635.13 214.303 640.499 212.364 645.16 209.122C649.275 206.289 652.582 201.85 652.48 196.795C652.81 187.858 645.146 180.763 636.957 178.427L635.629 178.084L636.842 177.445C644.52 172.969 652.339 165.818 652.451 156.549C652.404 147.497 644.545 140.654 636.854 136.713L637.05 135.644C643.729 134.96 651.029 131.135 652.438 124.222C653.955 115.505 644.166 110.022 636.875 106.748L634.957 105.995L636.984 105.625C643.951 104.107 652.456 99.9202 652.398 92.1544C652.248 84.0254 644.01 78.8604 636.889 76.0424L635.603 75.5934L636.796 74.9362C644.079 70.4015 653.345 63.9869 652.391 54.9497C651.243 47.9911 643.666 44.4835 637.052 43.8895L635.729 43.8097L636.639 42.8462C640.266 38.8487 643.649 34.4339 646.155 29.6424C648.564 25.1316 650.423 18.4484 645.539 15.6191C638.953 11.0238 630.077 14.3876 624.95 19.8955L623.92 19.263C624.59 17.2919 624.412 14.8743 623.124 13.1924C621.85 11.4734 619.743 10.4905 617.571 9.91768C614.742 9.21179 612.755 9.16239 611.118 9.08938C608.087 9.069 606.203 9.07294 601.487 10.3822C594.269 12.5452 588.199 16.8423 583.346 20.6303C583.219 20.8 583.256 20.8126 583.131 20.9765C581.9 22.0257 580.655 23.1633 579.572 24.2987L578.159 25.8314L578.5 23.7751C579.112 18.7955 577.739 13.2771 574.164 9.66944C570.602 5.99543 565.371 4.46507 560.301 4.02286C556.924 3.72105 553.561 3.99884 550.369 4.96716C540.911 7.90005 534.863 15.8244 531.626 24.0818L531.207 25.3325L530.476 24.2346C529.834 23.2853 529.103 22.2853 528.378 21.3298C522.576 14.1478 523.154 14.6013 517.101 9.44644C513.377 6.48911 508.973 3.80674 504.28 4.02939C495.778 4.73762 489.662 12.4914 485.695 19.7575L485.303 20.556L484.693 19.9096C477.017 12.4777 467.912 4.28647 457.059 3.97311C448.459 4.58434 442.363 12.4584 438.425 19.7253L438.079 20.4399L437.533 19.8637C432.827 15.0778 427.613 10.6319 421.842 7.24947C419.135 5.77884 416.327 4.50638 413.284 3.97497C407.202 2.99471 400.614 6.24723 394.079 11.532C392.878 12.5514 394.153 11.439 390.681 14.5832C387.381 17.7283 385.31 19.7725 381.772 24.1819L380.938 25.2862L380.863 23.9047C380.733 22.3875 380.285 20.5197 379.405 18.5493C378.98 17.5827 377.097 13.6356 372.886 10.986C368.757 8.23613 362.874 7.35026 358.586 7.39377C357.176 7.39256 355.925 7.53084 354.919 7.67816C347.812 8.61486 338.332 13.4629 332.111 17.5904C333.021 17.0359 334.178 16.3452 335.213 15.765C333.091 17.0655 330.989 18.454 329.018 19.9224L328.611 20.2318L328.275 19.8469C327.479 18.955 326.597 18.0379 325.725 17.1625C325.365 16.7286 325.026 16.323 324.687 15.9226C323.099 14.4468 321.458 13.0225 319.754 11.6565C316.196 8.57286 320.193 11.2351 311.432 5.51215C306.921 2.93203 303.001 1.0464 297.688 0.872915C297.618 0.872385 297.55 0.872404 297.482 0.872935C295.663 0.903152 294.461 1.06313 292.467 1.43774C287.451 2.70108 290.327 1.82345 287.322 2.92137C284.353 4.16615 280.347 6.72717 276.526 11.1037C279.702 7.29663 272.411 15.1943 270.93 19.6677L270.648 20.3466L270.147 19.8083C269.4 19.0498 268.811 18.5099 268.679 18.4209C267.189 16.9471 265.899 15.7315 264.145 14.2112C266.073 15.2821 257.452 8.28408 253.447 6.51159C249.56 4.60811 249.673 4.79217 248.734 4.44037C245.932 3.71868 247.973 4.2389 245.992 3.89756C245.951 3.8925 245.909 3.88765 245.868 3.88302C235.538 3.33871 227.867 12.0528 222.171 19.7337L221.827 20.2524L221.444 19.7629C219.422 17.255 217.16 14.8664 214.738 12.6393C213.292 11.3415 214.549 12.5224 212.839 11.045C211.103 9.6016 209.443 8.18538 206.556 6.52827C205.775 6.09981 205.509 6.00012 204.253 5.42387C202.467 4.6256 200.58 4.03924 198.671 3.86641C188.254 3.45479 180.112 12.0183 174.074 19.7521L173.671 20.3232L173.304 19.7291C168.461 12.6895 162.217 4.62353 153.277 3.82643C145.393 3.93272 140.035 11.5071 136.422 18.325C136.198 18.7676 135.973 19.2397 135.793 19.6595L135.248 20.9152L134.968 19.5754C134.432 17.6139 133.768 15.4368 131.559 11.901C129.391 8.24583 124.286 4.0004 118.518 3.81795C117.364 3.73673 116.265 3.76481 115.2 3.89902C113.544 4.15843 113.076 4.29446 111.027 5.13626C104.094 8.44589 100.746 15.1625 98.7535 22.8256C98.6687 23.1877 98.5798 23.5952 98.5172 23.9457L97.7057 23.9651C95.3017 13.9403 87.0926 3.37651 75.7906 3.80405C73.1085 3.79824 70.4703 4.27824 68.0202 5.28071C65.6787 6.36623 65.927 6.00277 62.901 8.22722C58.0877 12.5884 60.0951 11.1398 59.1865 12.077C56.6143 15.5156 55.8549 16.6864 54.201 20.5208C53.9705 21.0996 54.3751 20.3083 54.1674 20.8229C53.6911 22.0149 53.3247 23.0817 53.0748 23.978L52.2813 23.948C50.8003 18.4817 50.8251 16.4232 45.543 10.4164C44.0641 8.95863 43.4354 8.63035 43.5886 8.68741C43.7236 8.76198 44.5622 9.32153 45.514 10.2277C47.494 11.99 49.4544 15.376 49.7706 16.0218C51.4136 19.2819 47.8834 10.0434 42.5183 7.46148C38.1738 5.34596 37.9864 5.96278 36.1141 5.70087C32.6592 5.51453 28.6758 6.57821 24.9536 8.37575C17.7463 11.4502 11.2915 18.231 12.0929 23.7307C12.3158 26.0627 12.1919 25.1348 12.0614 23.9095C11.9499 22.6769 12.1722 21.161 12.0258 22.3545C11.8748 24.7552 12.2926 26.3072 13.1819 28.5744C13.9574 30.9382 17.24 34.8193 16.5635 34.1608ZM645.766 14.782C641.309 11.4017 631.086 12.1127 624.503 19.496L624.479 19.4811C625.607 16.4163 624.391 12.4603 621.259 10.8078C618.243 9.06411 614.647 8.67435 611.13 8.57437C598.462 8.38999 587.564 16.0881 580.993 22.0956C580.36 22.6845 579.72 23.3022 579.147 23.9072L579.046 24.0175L579.07 23.8695C580.323 15.2468 574.898 7.89257 570.108 5.90561C565.407 3.66957 562.642 3.71561 564.396 4.13219C574.204 5.65993 580.368 15.0119 578.994 23.8568L578.926 24.2615L579.205 23.9598C585.56 17.6143 593.364 11.9054 603.548 9.42178C604.487 9.20875 607.567 8.53992 611.128 8.64007C615.498 8.64346 620.474 9.92738 622.275 11.6524C623.215 12.4487 623.566 13.0062 623.922 13.6522C624.244 14.31 624.644 15.1062 624.699 16.7823C624.708 17.1209 624.708 18.2781 624.324 19.4205L624.627 19.6071C625.52 18.6121 626.656 17.6453 627.279 17.1683C628.893 15.9195 632.112 13.8005 635.915 13.1904C639.726 12.47 643.636 13.8786 645.734 15.3115C646.792 15.988 647.354 16.6693 647.609 16.9936C649.245 19.3638 648.899 20.4925 649.041 20.919C649.075 21.4079 649.152 21.4713 649.026 22.7423C647.029 31.0788 645.634 31.7045 640.767 38.6393C640.212 39.35 638.938 41.064 637.015 43.2015L636.866 43.3597L637.083 43.3728C639.071 43.519 641.469 43.9879 643.891 44.944C646.355 45.7724 649.914 48.4827 650.91 50.2C651.881 51.5668 652.55 53.1571 652.875 54.858C653.882 64.7062 643.703 71.2658 637.069 75.4232C637.067 75.4245 637.065 75.4252 637.065 75.4252L636.968 75.4786L637.073 75.5151C644.428 78.7414 642.368 78.1086 645.884 80.4545C649.361 82.9138 652.483 87.2912 652.775 90.2648C652.879 90.8734 652.933 91.5047 652.932 92.1544C653.099 96.5357 649.665 99.9963 648.743 100.707C645.397 103.574 641.214 105.188 637.071 106.1L636.712 106.165L637.051 106.299C644.585 109.705 654.46 115.153 652.934 124.337C651.449 131.548 643.949 135.466 637.087 136.177L637.078 136.229C643.234 139.389 649.25 144.056 651.942 150.852C649.326 144.147 643.346 139.383 637.11 136.16L637.093 136.253C643.968 135.574 651.565 131.651 653.091 124.373C654.259 119.742 651.217 115.367 647.854 112.511C639.232 106.368 643.563 109.302 637.368 106.15C637.274 106.111 637.227 106.091 637.146 106.059L637.117 106.353C642.201 104.981 643.895 104.786 649.417 100.284C649.413 100.288 649.409 100.292 649.404 100.296C650.833 98.9558 653.111 96.129 653.091 92.1544C653.181 88.809 651.412 85.2254 648.802 82.6514C648.539 82.5341 648.286 81.678 643.269 78.461C641.448 77.3616 639.365 76.3017 637.092 75.4595L637.094 75.4767C643.717 71.2908 653.954 64.8029 652.977 54.8386C652.12 49.6694 647.664 46.2128 643.537 44.7529C640.028 43.5816 640.043 43.5874 637.094 43.1926L637.147 43.3254C637.521 42.9324 637.994 42.4102 638.55 41.7701C641.012 38.8671 643.798 35.377 646.643 30.1197C649.959 23.7362 650.746 18.4428 646.267 15.3611C646.026 15.1257 646.099 15.1123 645.958 14.9573C645.917 14.9129 645.858 14.8568 645.766 14.782ZM322.576 13.34C322.015 12.384 310.716 3.9166 313.972 6.56878C319.26 10.1756 324.194 14.5866 328.663 19.5073L328.682 19.5297L328.706 19.5117C337.472 13.3717 347.496 7.30729 358.586 6.89217C360.841 6.89675 363.079 7.08159 365.263 7.5223C363.424 7.08763 361.166 6.80045 358.586 6.77882C351.838 6.70914 343.371 10.0971 334.806 15.3348C334.801 15.3378 334.796 15.3409 334.791 15.3439C334.231 15.6926 336.542 14.1844 333.36 16.1772C332.602 16.6662 330.768 17.8582 328.657 19.4475L328.724 19.4543C326.942 17.4875 324.663 15.253 322.576 13.34Z" fill="#1A1918"/>
</svg>
