<svg width="386" height="276" viewBox="0 0 386 276" fill="none" xmlns="http://www.w3.org/2000/svg">
<path d="M14.6922 8.32514C1.13402 19.3102 10.021 33.6031 10.021 33.6031C10.021 33.6031 0.268555 39.9037 0.268555 49.1651C0.268555 59.4225 10.021 61.0092 10.021 61.0092C10.021 61.0092 2.13673 64.7996 2.13673 80.2914C2.13673 92.9722 10.5465 96.2343 10.5465 96.2343C10.5465 96.2343 2.13673 106.455 2.13673 113.754C2.13673 124.453 6.6236 128.314 6.6236 128.314C6.6236 128.314 3.13323 136.671 2.13673 143.957C0.796493 153.756 10.5465 166.655 10.5465 166.655C10.5465 166.655 0.268555 171.396 0.268555 184.966C0.268555 198.536 10.5465 208.172 10.5465 208.172C10.5465 208.172 0.268337 209.83 0.268555 223.927C0.268773 238.025 14.6934 244.606 14.6934 244.606C14.6934 244.606 2.04966 261.268 17.0517 269.2C27.2139 274.573 35.9418 254.395 35.9418 254.395C35.9418 254.395 42.0884 272.198 48.7882 272.198C59.5039 272.198 63.8039 258.966 63.8039 258.966C63.8039 258.966 70.2364 272.198 80.835 272.198C91.8729 272.198 96.5591 256.807 96.5591 256.807C96.5591 256.807 97.6025 272.198 113.758 272.198C129.914 272.198 133.602 257.536 133.602 257.536C133.602 257.536 143.041 272.198 156.168 272.198C169.294 272.198 178.809 258.966 178.809 258.966C178.809 258.966 181.76 274.439 193.937 274.439C208.292 274.439 215.086 258.966 215.086 258.966C215.086 258.966 226.603 274.439 234.4 274.439C243.332 274.439 245.188 258.966 245.188 258.966C245.188 258.966 255.107 279.084 264.39 274.439C270.325 271.469 275.676 258.966 275.676 258.966C275.676 258.966 280.381 274.439 289.643 274.439C298.102 274.439 306.164 257.536 306.164 257.536C306.164 257.536 310.622 272.198 318.974 272.198C330.81 272.198 335.8 258.966 335.8 258.966C335.8 258.966 346.153 277.451 357.883 269.2C371.145 259.87 361.167 246.837 361.167 246.837C361.167 246.837 379.97 253.981 381.044 237.548C382.118 221.114 372.395 217.239 372.395 217.239C372.395 217.239 385.249 211.551 385.249 196.761C385.249 181.971 376.6 179.157 376.6 179.157C376.6 179.157 385.249 169.473 385.249 156.482C385.249 143.492 376.6 137.414 376.6 137.414C376.6 137.414 383.762 135.176 385.249 124.259C386.737 113.342 376.6 107.388 376.6 107.388C376.6 107.388 385.249 103.185 385.249 92.0365C385.249 80.8875 376.6 76.6298 376.6 76.6298C376.6 76.6298 386.451 65.4304 385.249 54.6871C384.048 43.9438 376.6 44.4068 376.6 44.4068C376.6 44.4068 387.624 21.9749 381.044 14.9163C374.465 7.85759 368.43 19.3102 368.43 19.3102C368.43 19.3102 370.869 8.71744 360.546 8.32514C350.222 7.93285 340.601 17.7234 340.601 17.7234C340.601 17.7234 343.463 5.17345 330.586 3.19876C317.708 1.22408 312.217 17.7234 312.217 17.7234C312.217 17.7234 304.924 2.44302 297.472 3.19876C290.655 3.89017 285.149 13.3294 285.149 13.3294C285.149 13.3294 276.913 2.63195 269.615 3.19876C262.79 3.72885 257.292 13.3294 257.292 13.3294C257.292 13.3294 250.402 5.09892 243.86 3.19876C235.21 0.686442 223.915 17.7234 223.915 17.7234C223.915 17.7234 224.412 6.64173 211.524 6.64173C203.707 6.64173 192.829 13.3294 192.829 13.3294C192.829 13.3294 184.044 0.228563 175.467 0.228516C164.216 0.228454 158.49 13.3294 158.49 13.3294C158.49 13.3294 151.371 4.40873 145.044 3.19876C137.642 1.78315 129.755 13.3294 129.755 13.3294C129.755 13.3294 123.83 4.21353 117.187 3.19876C109.596 2.03923 101.372 13.3294 101.372 13.3294C101.372 13.3294 96.6217 3.40099 90.3805 3.19876C83.9959 2.99189 78.7704 13.3294 78.7704 13.3294C78.7704 13.3294 77.9477 4.10668 69.8816 3.19876C59.977 2.08391 56.7696 17.7234 56.7696 17.7234C56.7696 17.7234 55.1782 3.19878 44.6522 3.19876C34.1261 3.19875 29.9633 17.7234 29.9633 17.7234C29.9633 17.7234 28.2504 -2.65995 14.6922 8.32514Z" fill="#F3E8D6"/>
<path d="M9.71597 33.7009C4.7859 25.5885 6.4002 13.8229 14.4694 8.05014C15.5929 7.14494 16.7268 6.35642 18.0113 5.7243C20.3837 4.68814 20.2392 4.95475 21.2768 4.7867C22.252 4.68399 23.6354 4.89968 24.63 5.48108C25.637 6.03757 26.27 6.76731 26.4229 6.93142C27.3534 8.02223 27.4957 8.44554 27.5627 8.54981C27.6151 8.66411 27.5118 8.51446 27.6072 8.67938C29.4226 12.4704 28.9817 11.3795 29.9256 15.2535C30.0738 16.0218 30.2086 16.8612 30.2891 17.696L29.6491 17.6333C31.1069 13.1446 33.7607 7.85238 38.3074 4.81139C39.2503 4.21376 39.546 4.1029 40.1259 3.84731C40.7126 3.63984 41.5932 3.12503 44.0018 2.93516C44.1942 2.92419 44.4112 2.91654 44.6522 2.91616C46.5978 2.81444 50.1841 3.75058 52.4408 6.46673C54.7545 9.07065 55.9051 12.4763 56.4451 14.635C56.436 14.6669 56.2619 14.0911 56.1713 13.8544C56.5957 15.2611 56.8709 16.5181 57.0312 17.6947L56.5118 17.6705C57.6971 13.6778 57.9299 9.97752 63.565 4.71604C64.8046 3.83973 66.1567 2.88627 68.942 2.84747C69.3012 2.85159 69.6179 2.87647 69.9138 2.91218C70.8543 3.03647 71.4995 3.19108 72.4427 3.56207C73.355 3.95639 74.6958 4.55011 76.2186 6.39332C77.3772 7.93519 78.0529 8.98178 78.7888 11.8495C78.8929 12.3087 78.9856 12.785 79.0412 13.3052L78.5277 13.2067C80.6704 9.55074 84.1371 3.28008 90.3886 2.94723C96.0962 3.60539 98.8384 8.80682 100.483 11.234C100.883 11.9019 101.256 12.5672 101.582 13.2289L101.183 13.1922C105.981 7.31353 110.703 2.49627 117.227 2.93535C120.666 3.50857 123.59 5.78008 126.333 8.64623C126.962 9.31932 125.55 7.86581 126.705 9.10294C127.86 10.358 128.97 11.7452 129.217 12.0842C129.456 12.4057 129.728 12.7832 129.989 13.1774L129.525 13.1721C132.178 9.06934 138.552 3.70669 140.998 3.32267C143.044 2.67794 143.786 2.86045 144.098 2.83356C144.423 2.85109 144.385 2.81775 145.095 2.93278C145.718 3.06334 147.008 3.28914 149.316 4.64931C152.583 6.6162 155.836 9.71071 158.693 13.1671L158.251 13.2252C160.464 8.61068 163.92 4.52572 167.602 2.30186C170.564 0.504371 173.223 0.0152521 175.467 -6.54161e-05C179.367 0.148715 181.996 1.80629 185.324 4.61414C188.242 7.13037 190.789 10.0725 192.995 13.218L192.724 13.159C198.505 9.86831 204.701 6.71534 211.524 6.43793C217.886 5.8883 224.485 11.0498 224.122 17.7327L223.742 17.6089C228.199 11.5535 233.11 4.78016 240.839 2.83026C240.772 2.86004 240.693 2.89251 240.613 2.92673C241.693 2.71834 242.834 2.72198 243.909 3.0294C244.736 3.26385 245.533 3.58512 246.302 3.95711C246.03 3.83911 245.774 3.73594 245.496 3.63145C250.311 5.81826 253.967 9.29538 257.457 13.1906L257.104 13.222C259.137 9.94839 261.665 6.5676 265.631 4.25019C265.815 4.14802 265.352 4.45147 265.504 4.36691C266.718 3.67371 268.157 3.12174 269.6 3.00937C270.646 2.92293 271.654 3.07205 272.519 3.30676C277.712 4.58693 283.568 11.3432 280.927 8.51269C282.459 9.93397 283.937 11.499 285.3 13.2132L284.984 13.2334C287.855 8.80477 291.747 3.84922 297.452 3.00417C302.821 2.93024 306.002 7.71441 308.528 11.091C310.822 14.4881 311.528 16.0607 312.33 17.6698L312.099 17.6841C312.21 17.3698 312.348 17.0173 312.488 16.6745C313.412 14.5265 312.906 15.5929 313.247 14.847C315.079 10.0675 321.373 4.40566 322.412 4.42919C323.295 3.93675 324.283 3.52135 325.276 3.24463C325.032 3.3667 327.406 2.53613 330.608 3.0515C332.943 3.39166 335.689 4.33681 337.556 6.07477C339.459 7.77783 340.267 9.9909 340.563 11.1435C340.746 11.8685 340.731 11.9776 340.823 12.5283C341.14 14.7265 340.99 16.3711 340.736 17.7543L340.502 17.626C342.332 15.8556 343.741 14.6354 346.596 12.7254C348.188 11.7539 345.677 13.1969 349.866 10.8579C350.277 10.7686 349.877 10.3674 355.387 8.69456C356.867 8.32406 358.623 8.04412 360.553 8.11603C362.856 8.18348 365.726 8.90393 367.358 11.2339C368.978 13.5314 369.157 16.5916 368.639 19.3584L368.24 19.2103C369.686 16.687 371.556 14.2702 374.104 12.9963C376.733 11.5684 379.731 13.0275 381.194 14.7772C381.243 14.8301 381.291 14.8836 381.337 14.9377C381.632 15.2894 381.323 14.9366 381.274 14.9018C381.179 14.8916 381.63 15.0279 382.493 16.9211C382.934 18.3311 383.066 17.6211 383.335 21.2178C383.288 29.2314 380.157 37.0686 376.768 44.4892L376.588 44.2204C382.078 44.1795 385.106 49.9307 385.439 54.6659C385.577 55.8811 385.575 57.1046 385.464 58.3106C385.482 58.0511 385.528 56.6537 385.494 56.2749C385.408 55.8894 385.731 56.5556 385.118 60.3108C384.879 61.501 385.097 60.6208 384.982 61.1537C383.956 65.4572 382.205 68.9336 379.604 72.9171C378.816 74.0825 378.647 74.3852 377.572 75.786C377.289 76.1474 377.011 76.4886 376.763 76.7733L376.696 76.4347C378.282 77.3383 379.266 78.0877 380.971 79.8978C383.864 83.5801 384.543 84.3633 385.359 90.1565C385.416 90.7788 385.443 91.4001 385.444 92.0365C385.573 98.2781 382.208 104.538 376.687 107.566L376.7 107.217C382.333 110.798 386.537 117.44 385.45 124.287C384.767 129.702 382.017 135.433 376.661 137.609L376.718 137.247C382.474 141.824 385.514 149.227 385.45 156.482C385.449 163.234 383.108 169.81 379.526 175.459C378.669 176.809 377.764 178.098 376.747 179.289L376.661 178.969C383.351 181.973 385.505 189.711 385.486 196.761C385.487 197.667 385.44 198.568 385.341 199.465C384.886 202.367 384.938 203.022 382.949 207.264C382.737 208.383 377.93 214.202 376.806 214.596C375.182 215.89 374.072 216.61 372.468 217.403L372.461 217.073C372.462 217.073 372.464 217.074 372.468 217.075C372.464 217.074 372.462 217.073 372.461 217.072L372.468 217.403C373.705 216.834 374.888 216.091 375.946 215.333C374.818 216.156 373.684 216.871 372.484 217.439L372.476 217.035C377.798 219.775 380.194 225.073 381.044 230.368C381.59 235.26 381.224 231.789 381.359 234.804C381.367 235.865 381.335 236.714 381.28 237.563C381.148 239.104 381.029 240.588 380.019 242.837C378.748 245.399 377.201 247.667 371.718 248.48C371.14 248.607 367.698 248.742 364.913 248.103C363.392 247.776 362.679 247.579 361.097 247.022L361.324 246.717C361.646 247.156 361.974 247.661 362.365 248.338C362.837 248.681 365.423 255.161 365.013 257.469C365.308 261.062 362.143 265.811 361.6 266.16C360.419 267.52 359.187 268.527 358 269.367C352.726 272.976 348.107 271.708 343.828 268.522C342.631 267.835 338.472 263.881 336.116 259.944C335.94 259.662 335.774 259.391 335.597 259.08L336.018 259.048C334.887 261.847 332.642 265.379 330.025 267.792C327.441 270.268 324.565 271.367 323.876 271.63C321.648 272.349 320.184 272.393 318.974 272.408C316.746 272.255 314.78 272.007 311.371 268.059C309.626 265.966 307.422 262.096 305.966 257.596L306.351 257.625C302.94 264.666 297.291 271.681 293.902 273.346C291.841 274.509 290.796 274.523 290.366 274.61C289.914 274.663 289.975 274.669 289.643 274.683C289.476 274.687 289.209 274.692 288.74 274.645C286.807 274.379 286.436 274.034 286.163 273.946C285.907 273.809 285.752 273.795 284.633 273.1C279.605 269.518 277.307 264.252 275.442 259.038L275.901 259.063C275.412 260.188 274.875 261.298 274.308 262.407C274.108 262.733 273.894 263.079 273.687 263.403C273.522 263.73 273.361 264.043 273.189 264.369C272.458 265.678 271.575 267.122 270.784 268.271C273.067 264.862 272.928 264.938 271.786 266.839C270.568 268.644 268.305 272.539 264.485 274.628C260.92 276.489 257.19 274.208 255.638 272.999C251.857 270.21 247.683 264.33 244.973 259.072L245.426 258.995C245.222 260.545 244.901 261.996 244.552 263.299C244.128 264.804 244.392 263.761 244.304 264.069C243.049 267.59 243.238 268.445 239.884 272.348C238.46 273.774 236.431 274.703 234.4 274.658C233.691 274.654 232.977 274.525 232.321 274.337C224.76 271.469 219.72 265.022 214.907 259.099L215.29 259.056C211.336 267.226 203.636 274.781 193.937 274.686C192.083 274.69 190.23 274.322 188.534 273.543C185.533 272.147 183.612 269.896 182.136 267.627C180.215 264.51 179.338 262.226 178.573 259.011L179.003 259.106C178.876 259.281 178.742 259.455 178.598 259.639C176.377 262.544 172.405 266.032 170.351 267.409C168.302 268.793 171.881 266.53 168.046 268.945C166.234 269.973 169.414 268.124 167.176 269.391C164.21 271.017 160.331 272.419 156.168 272.409C150.446 272.467 145.011 269.438 141.298 266.295C141.582 266.543 141.977 266.871 142.339 267.159C138.76 264.388 135.843 261.19 133.424 257.65L133.807 257.587C132.537 261.744 130.068 265.631 126.284 268.492C123.74 270.683 117.905 272.497 114.647 272.407C114.34 272.418 114.044 272.422 113.758 272.421C111.104 272.378 109.667 272.141 107.43 271.454C106.423 271.107 106.799 271.267 106.142 271.003C99.5655 267.951 97.2837 262.912 96.3902 256.818L96.7211 256.856C96.2313 258.358 95.5672 259.942 94.716 261.611C92.0339 266.891 87.3553 272.417 80.835 272.376C72.9025 272.264 67.1523 265.553 63.6324 259.05L63.9852 259.025C61.6217 265.526 56.4113 272.455 48.7882 272.4C44.6086 271.971 42.4608 267.994 40.4942 264.88C38.5828 261.561 37.0368 258.048 35.7389 254.465L36.1389 254.48C33.5148 259.981 30.3282 265.61 25.0399 268.999C23.812 269.669 22.9383 270.215 20.8355 270.372C19.2047 270.409 18.4059 270.045 17.9319 269.881C17.4821 269.7 17.354 269.621 17.1586 269.527C17.0822 269.489 17.0089 269.451 16.9386 269.414C14.829 268.144 15.4924 268.86 12.8082 266.431C7.1169 261.687 9.83869 250.353 14.5 244.46L14.5926 244.827C12.8188 243.962 11.2939 242.949 9.97555 241.967C3.99786 237.57 -0.0901226 230.922 0.0122207 223.927C-0.232667 217.216 3.21978 209.495 10.502 207.896L10.3553 208.376C7.89803 205.932 5.80268 203.076 4.04747 199.913C3.42904 198.745 3.85167 199.539 2.87163 197.477C0.669851 192.598 0.0388209 188.586 0.0148644 184.966C0.22543 178.826 1.31578 171.961 10.4319 166.407L10.3282 166.82C9.53316 165.744 8.741 164.553 7.94382 163.264C5.15958 158.465 1.1758 151.931 1.87995 143.922C2.63138 138.735 4.31432 133.433 6.3938 128.218L6.46117 128.503C2.77494 124.514 1.93881 118.884 1.89671 113.754C2.39612 106.638 6.72736 100.934 10.3685 96.0878L10.4632 96.4493C7.66399 95.1553 5.66305 92.906 4.33956 90.5772C4.33965 90.5772 4.33974 90.5771 4.33983 90.5771C2.68065 87.7505 1.84074 84.0629 1.85627 80.2914C1.84224 75.5056 2.67228 70.4981 4.79313 66.5473C2.61003 70.8091 1.95858 75.6012 1.96278 80.2914C1.87384 86.6031 4.53086 93.5368 10.5006 96.3527L10.4485 96.1537C6.54135 101.341 2.45834 107.03 2.03418 113.754C2.08294 118.884 2.92712 124.445 6.56087 128.387L6.53485 128.277C4.54153 133.3 2.83482 138.515 2.04026 143.944C1.30855 152.264 5.79497 159.953 10.4625 166.719L10.5024 166.559C3.96774 169.984 -1.82688e-05 177.463 0.159226 184.966C0.158903 186.805 0.349191 188.651 0.715278 190.467C2.08472 197.138 5.65453 203.333 10.4788 208.245L10.5308 208.075C3.53258 209.557 -0.0856156 217.189 0.189215 223.927C0.052872 233.015 6.84591 240.733 14.6743 244.648L14.6568 244.579C11.9465 248.453 9.80986 253.001 9.68698 257.816C9.443 262.706 12.75 267.117 17.0475 269.208C21.2035 271.62 25.9839 268.775 28.8062 265.563C31.8007 262.277 34.0855 258.392 35.9264 254.388L35.9436 254.349L35.9578 254.39C38.8246 261.093 41.2432 270.03 48.7882 272.172C52.4978 272.222 56.0037 270.376 58.494 267.726C61.5654 264.287 62.4729 262.405 63.8181 258.971L63.7904 258.973C63.8615 259.117 63.9568 259.298 64.0408 259.453C64.3777 260.06 63.5395 258.49 64.5794 260.327C68.0541 266.098 73.5064 272.088 80.835 272.156C89.078 272.069 94.0608 263.862 96.5291 256.798L96.5904 256.805C97.1947 265.47 105.102 272.803 113.758 272.184C120.127 272.31 126.436 269.417 130.087 264.393C132.211 261.504 133.007 259.402 133.563 257.526L133.585 257.436L133.636 257.514C134.938 259.388 136.183 261.004 138.736 263.593C137.88 262.761 137.337 262.2 136.638 261.432C141.606 267.104 148.329 272.176 156.168 272.212C165.388 272.147 173.327 265.979 178.828 258.98L178.785 258.971C180.382 266.303 185.544 274.664 193.937 274.462C200.646 274.56 206.821 270.673 210.935 265.53C211.821 264.421 211.957 264.306 212.806 263.076C213.706 261.738 214.497 260.369 215.126 258.984L215.05 258.993C215.821 259.997 216.614 260.957 217.381 261.871C219.584 264.44 219.961 264.899 222.163 267.118C223.269 268.17 222.909 267.89 225.425 270.052C225.646 270.219 225.729 270.405 227.526 271.698C229.138 272.779 231.487 274.4 234.4 274.478C241.012 274.394 243.425 266.297 244.262 263.434C244.69 261.878 245.005 260.375 245.199 258.968L245.179 258.971C247.095 262.724 248.994 265.485 250.07 266.936C254.188 271.939 254.055 272.18 258.949 274.668C260.7 275.332 262.716 275.319 264.395 274.447C270.027 270.977 272.943 264.694 275.69 258.972L275.662 258.971C278.054 265.555 281.758 273.935 289.643 274.467C298.122 273.178 302.364 264.452 306.205 257.555L306.121 257.549C308.361 263.622 311.539 271.594 318.974 272.255C326.783 272.395 332.973 265.913 335.859 258.988L335.745 258.997C336.093 259.601 336.455 260.167 336.846 260.75C338.068 262.894 344.42 270.378 349.372 271.068C349.938 271.202 351.468 271.501 353.195 271.214C354.93 270.958 356.714 270.069 357.897 269.22C358.711 268.649 359.253 268.194 359.5 267.986C363.428 264.81 364.889 260.32 364.837 257.578C364.948 253.512 363.049 249.343 361.199 246.813L361.153 246.874C362.121 247.219 363.014 247.456 363.714 247.629C366.181 248.24 369.767 248.755 372.896 248.103C376.08 247.541 378.228 245.434 378.807 244.559C380.281 242.441 380.35 241.47 380.583 240.852C380.762 240.172 380.94 239.691 381.101 237.85C381.111 237.728 381.116 237.631 381.12 237.552C381.121 236.917 381.171 237.479 381.138 234.022C380.999 230.812 380.755 229.476 380.193 227.354C379.696 225.176 377.649 221.613 376.669 220.627C375.307 219.017 373.89 217.897 372.408 217.207L372.409 217.27C375.893 215.453 378.682 213.509 381.823 208.917C383.045 207.116 385.394 202.49 385.311 196.761C385.641 189.66 382.038 180.987 376.613 179.118L376.631 179.185C378.48 176.984 379.506 175.187 379.812 174.703C383.8 167.086 380.009 175.303 376.596 179.154C378.043 179.724 378.969 180.549 379.159 180.686C381.328 182.543 381.866 183.685 382.5 184.709C383.068 185.761 383.694 186.836 384.437 189.567C384.78 191.043 385.219 193.657 385.208 196.761C385.78 204.269 379.654 212.585 376.935 214.177C375.488 215.427 373.997 216.449 372.389 217.225L372.355 217.24L372.389 217.253C374.701 218.351 376.59 220.261 378.083 222.732C379.731 225.708 379.636 226.19 379.755 226.334C379.801 226.506 379.905 226.425 380.48 228.83C380.887 230.392 381.262 234.486 380.99 237.544C380.942 238.247 380.874 238.806 380.786 239.353C380.167 242.149 380.023 243.701 377.025 246.288C371.721 249.777 365.915 248.294 361.186 246.788L361.014 246.723L361.126 246.869C361.53 247.423 361.914 248.055 362.255 248.676C362.795 249.605 363.246 250.526 363.638 251.514C365.084 255.305 365.203 259.764 363.207 263.349C363.525 262.785 363.805 262.192 364.035 261.585C363.645 262.71 363.091 263.778 362.41 264.762C361.176 266.512 359.589 267.949 357.852 269.156C356.388 270.175 354.69 270.94 352.849 271.157C347.286 271.469 345.689 269.322 344.569 268.791C343.487 267.989 342.854 267.585 340.714 265.376C338.525 263.022 337.053 260.923 335.86 258.933L335.788 258.804L335.736 258.942C334.95 260.888 333.952 262.663 332.63 264.477C328.689 269.38 325.887 271.599 319.474 272.15C319.313 272.155 319.146 272.157 318.974 272.157C314.951 272.277 311.03 267.567 314.837 270.925C310.682 268.203 307.98 262.859 306.164 257.536C302.605 264.465 297.966 271.581 292.199 273.936C289.246 274.799 293.17 273.618 292.649 273.71C291.653 274.136 290.651 274.38 289.643 274.386C288.227 274.395 286.82 274.044 285.441 273.281C281.159 271.278 277.069 263.118 276.043 259.788C275.953 259.531 275.845 259.215 275.761 258.941L275.69 258.71L275.595 258.932C273.634 263.621 269.681 269.633 269.107 270.16C266.802 273.047 265.418 273.839 264.366 274.389C264.097 274.521 263.845 274.626 263.585 274.719C259.459 275.922 257.075 273.662 255.668 272.736C254.227 271.603 253.463 270.768 252.608 269.771C251.021 268.392 246.233 261.339 245.249 258.936L245.148 258.73L245.12 258.958C245.108 259.04 245.09 259.151 245.077 259.221C245.194 259.263 243.912 266.877 241.012 270.636C240.492 271.322 239.898 271.97 239.238 272.514C238.098 273.542 236.404 274.426 234.4 274.419C227.023 273.641 220.425 265.575 215.105 258.952L215.081 258.92L215.064 258.957C213.381 262.47 211.079 265.528 208.742 267.848C208.505 268.067 208.168 268.539 206.679 269.745C206.581 269.816 206.735 269.697 205.703 270.458C204.001 271.804 198.989 274.539 193.937 274.369C189.257 274.475 185.843 271.513 185.272 270.942C180.632 265.959 180.658 264.387 179.261 260.531C179.096 259.955 178.964 259.44 178.866 258.955L178.841 258.822L178.761 258.932C176.232 262.093 175.424 262.932 171.872 265.912C169.952 267.399 168.173 268.797 164.656 270.342C162.546 271.186 162.308 271.197 160.566 271.623C159.035 271.961 157.571 272.112 156.168 272.112C151.841 272.077 148.204 270.668 144.627 268.351C143.317 267.651 141.168 265.961 139.167 263.985C137.226 262.08 135.333 259.903 133.693 257.477L133.558 257.268L133.497 257.509C131.1 266.672 121.24 272.707 113.758 272.105C113.62 272.105 113.483 272.104 113.348 272.102C104.502 272.513 97.266 264.956 96.6848 256.798L96.4386 256.77C93.9441 263.886 88.9632 271.965 80.835 272.035C73.1447 271.925 67.4602 265.347 63.9775 258.882L63.7683 258.452L63.6203 258.907C61.7672 263.856 58.5555 268.874 53.4449 271.068C51.5252 271.846 50.1026 271.986 48.7882 272.011C47.1139 271.983 45.5909 271.062 43.7256 268.918C42.2643 267.178 41.0019 265.171 39.3234 261.834C38.3194 259.823 37.0982 257.078 36.1148 254.335L35.9611 253.89L35.7739 254.322C35.3938 255.184 34.9459 256.085 34.5125 256.907C34.0369 257.795 33.9765 257.847 33.2351 259.116C29.8438 264.688 24.1457 272.499 17.1434 269.026C13.6214 267.242 10.5837 264.036 10.0337 259.978C9.50785 255.851 10.7152 253.366 10.3571 254.032C10.7561 252.497 11.3183 251.047 11.9555 249.706C12.7777 247.883 13.7143 246.245 14.8272 244.708L14.9542 244.541L14.7631 244.454C11.6254 242.854 8.41822 240.685 5.20023 236.837C4.57538 236.286 1.27244 231.346 0.849546 227.986C0.771147 227.762 0.853186 228.272 0.806426 228.184C0.527874 226.96 0.341133 225.447 0.349902 223.927C0.337432 221.466 0.771595 219.067 1.16944 217.76C1.7802 215.649 2.53659 214.341 2.88315 213.783C4.31503 211.703 4.09946 212.283 4.19837 212.115C6.55214 209.546 8.92481 208.68 10.5697 208.316L10.8625 208.269L10.6462 208.066C7.80189 205.045 7.18317 204.361 4.55126 200.089C3.32601 198.811 -0.221578 188.353 0.318953 184.966C0.316241 184.769 0.315319 184.602 0.314483 184.465C0.333711 184.387 0.343184 184.701 0.360056 184.966C0.366905 185.075 0.374567 185.175 0.382212 185.232C0.381487 185.143 0.3812 185.055 0.381357 184.966C0.379145 181.415 1.13637 177.823 2.81243 174.685C2.43059 175.348 2.02395 176.199 1.75479 176.844C3.5795 172.151 6.84149 168.682 10.5623 166.689L10.6046 166.67L10.5765 166.632C9.35659 164.983 8.27914 163.298 7.27978 161.574C5.56814 158.518 5.85428 158.851 4.96033 157.008C4.79396 156.642 5.03459 157.28 4.5513 156.189C2.5133 151.409 1.70563 147.696 2.1646 143.961C2.62897 140.743 3.44662 137.487 4.87328 133.2C5.43366 131.539 5.99948 129.954 6.65342 128.327L6.66246 128.305L6.64468 128.29C4.67032 126.293 3.34453 123.35 2.63797 119.401C2.57029 119.047 2.17141 116.56 2.19 113.754C2.18745 111.939 2.70971 110.048 3.21664 108.574C3.67745 107.399 4.15799 106.393 4.59612 105.558C7.46602 100.038 7.70289 100.057 10.5989 96.2774L10.6584 96.2051L10.571 96.1712C9.33832 95.6103 7.81676 94.6031 6.24754 92.7599C4.50716 90.9147 2.09239 85.9373 2.23578 80.2914C2.03489 73.5312 4.49437 66.5539 6.75708 64.0444C9.10849 61.2828 9.30649 61.5607 9.7952 61.1555C9.86847 61.1115 9.96337 61.0578 10.0288 61.0254L10.0803 61.0006L10.0239 60.9914C6.5774 60.0389 6.40911 59.9127 3.72342 57.7217C1.56726 55.8003 0.1926 52.3507 0.262537 49.1651C0.259651 48.3641 0.331278 47.594 0.460228 46.86C1.15076 44.1254 0.391521 46.1977 2.05229 42.3803C2.49804 41.6426 1.09479 43.6812 3.48604 39.9805C3.71181 39.2629 8.70904 34.2642 10.057 33.6588C6.73363 35.3682 -0.239828 44.2053 0.43174 48.5935C0.424077 48.7822 0.420422 48.9727 0.42102 49.1651C0.118213 54.3963 4.22215 59.7576 10.0527 60.8143L10.6721 60.9152L10.1065 61.187C4.30715 64.8666 2.34315 72.8532 2.37758 80.2914C2.27845 86.2568 4.73282 93.1678 10.6441 95.9827L10.992 96.1179L10.7549 96.4058C6.98394 101.404 2.85033 107.128 2.4302 113.754C2.46536 118.758 3.34541 124.311 6.82482 128.08L6.99465 128.226L6.90829 128.433C4.94312 133.394 3.23681 138.616 2.45519 144.001C1.73272 152.086 6.21238 159.813 10.8149 166.452L11.0667 166.786L10.6874 166.961C4.27628 170.334 0.44698 177.716 0.614256 184.966C0.621168 193.643 4.90814 201.892 10.7877 207.915L11.3113 208.406L10.6027 208.52C3.8016 209.982 0.36885 217.422 0.623733 223.927C0.496104 233.097 7.42579 240.557 14.8408 244.283L15.2447 244.468L14.9763 244.821C12.1767 248.807 10.0613 253.489 10.0671 258.177C9.97548 262.946 13.2394 266.919 17.2158 268.889C21.3439 271.26 25.8892 268.341 28.6039 265.278C31.4712 262.127 33.5869 258.514 35.2953 254.981C35.4066 254.746 35.533 254.473 35.627 254.259L35.978 253.448L36.2661 254.283C38.4814 260.28 40.414 264.205 42.9031 267.677C44.2499 269.444 44.4551 269.491 44.5287 269.582C44.6389 269.632 44.6004 269.798 46.188 270.97C47.0288 271.536 47.9201 271.881 48.7882 271.882C51.4141 271.881 53.7309 271.148 55.9963 269.555C59.572 266.972 62.023 263.003 63.5433 258.882L63.7535 258.236L64.0502 258.847C67.4849 265.226 73.169 271.843 80.835 271.941C88.9523 271.864 93.8867 263.724 96.3267 256.736L96.8015 256.79C97.4207 262.518 100.739 268.263 106.168 270.52C108.713 271.62 111.283 271.952 113.758 271.95C117.107 271.935 120.315 271.313 123.363 269.764C125.386 268.662 125.454 268.603 126.749 267.595C129.938 264.946 132.23 261.317 133.378 257.479L133.508 256.963L133.796 257.411C139.078 264.846 146.712 271.795 156.168 271.934C160.104 271.94 163.998 270.684 167.494 268.677C171.684 266.27 175.583 262.767 178.619 258.83L178.937 258.388L179.038 258.923C179.582 261.436 180.503 263.871 181.689 266.049C184.074 270.732 188.952 274.415 193.937 274.195C194.626 274.194 195.276 274.159 195.934 274.091C198.827 273.756 200.288 273.147 201.265 272.77C204.604 271.217 203.399 271.682 204.998 270.698C209.194 267.649 210.918 265.56 213.536 261.454C214.275 260.194 214.361 259.995 214.88 258.876L215.036 258.522L215.266 258.832C215.486 259.118 215.797 259.518 216.206 260.029C218.453 262.774 217.593 261.777 219.265 263.691C219.37 263.807 219.044 263.415 219.954 264.413C223.694 268.251 228.387 273.594 234.4 274.187C237.859 274.253 240.405 271.497 241.789 268.944C243.48 265.866 244.432 262.374 244.94 258.937L245.041 258.103L245.412 258.856C247.481 262.855 249.946 266.706 252.955 269.984C255.833 273.115 260.213 276.358 264.297 274.251C268.063 272.149 270.427 268.264 272.568 264.671C274.535 261.122 273.949 262.029 274.533 260.888C274.884 260.165 275.2 259.488 275.467 258.877L275.713 258.302L275.895 258.9C277.446 263.193 278.292 265.586 281.79 269.979C282.422 270.691 285.48 274.243 289.643 274.192C289.71 274.193 289.777 274.192 289.844 274.19C292.041 274.152 294.296 272.775 295.741 271.575C297.179 270.344 297.375 270.096 298.887 268.384C301.478 265.128 300.874 266.165 304.008 261.078C304.42 260.366 305.161 259.077 305.958 257.437L306.212 256.906L306.383 257.469C307.472 260.795 309.541 265.325 312.24 268.35C313.883 270.208 316.199 271.961 318.974 271.952C326.274 272.198 332.752 265.851 335.599 258.891L335.762 258.459L335.987 258.861C336.634 259.978 337.373 261.067 338.152 262.118C340.606 265.206 344.194 269.907 350.464 270.99C352.594 271.298 355.348 270.72 357.736 268.991C360.777 266.91 363.603 263.607 364.284 259.793C365.03 255.998 363.878 252.335 362.652 249.823C361.934 248.362 361.35 247.491 360.985 246.977L360.493 246.335L361.249 246.622C362.138 246.952 362.398 247.029 362.648 247.107C365.658 247.902 364.446 247.545 366.493 247.905C369.299 248.308 372.038 248.302 374.466 247.441C375.993 246.853 376.149 246.592 376.454 246.421C379.465 244.491 380.616 240.877 380.809 237.532C381.361 229.974 379.465 221.215 372.306 217.462L371.775 217.25L372.298 217.019C373.599 216.401 374.894 215.56 376.087 214.645C381.632 210.484 385.124 203.722 385.001 196.761C385.069 190.086 382.913 182.235 376.521 179.401L376.147 179.279L376.409 178.987C381.547 172.687 384.968 164.691 384.983 156.482C385.05 149.352 382.018 142.069 376.442 137.638L375.987 137.318L376.518 137.152C381.561 135.105 384.316 129.539 384.972 124.222C386.031 117.589 381.93 111.121 376.455 107.635L375.994 107.364L376.475 107.13C381.787 104.211 385.091 98.1227 384.959 92.0365C385.087 85.9307 381.772 79.8388 376.47 76.893L376.127 76.7235L376.38 76.436C381.32 70.3179 385.668 62.7295 384.957 54.7198C384.628 50.0005 381.653 44.6545 376.618 44.6981L376.116 44.7291L376.338 44.2781C378.232 40.2856 379.871 36.1062 381.124 31.8497C382.606 26.1303 382.844 25.8743 382.861 20.7077C382.742 18.637 382.186 16.523 380.838 15.1087C378.926 12.8496 375.84 12.3239 373.71 13.7256C373.607 13.8141 373.626 13.8207 373.524 13.9096C371.474 15.2466 369.897 17.3166 368.687 19.4456L368.147 19.2451C368.617 16.7491 368.491 13.9358 367.123 11.7862C365.76 9.59142 363.084 8.68943 360.534 8.62529C357.636 8.51857 354.764 9.22905 352.108 10.3376C347.694 12.2191 343.987 14.9121 340.82 17.9393L340.058 18.7145L340.3 17.6549C340.781 15.0604 340.649 12.2644 339.623 9.79211C338.335 6.94 336.972 6.12188 335.929 5.38157C334.817 4.70399 333.685 4.07794 331.021 3.59036C330.862 3.5617 330.701 3.53471 330.538 3.50944C321.807 1.94588 315.243 10.248 312.496 17.8161L312.266 18.5068L311.952 17.8498C308.647 11.8944 304.731 3.93167 297.5 3.47756C292.102 4.26205 288.245 9.03565 285.379 13.4633L285.179 13.8046L284.938 13.4915C281.029 8.87779 276.239 3.73979 270.028 3.41648C269.896 3.42105 269.764 3.42919 269.634 3.44102C264.625 4.1201 260.869 8.24293 257.522 13.4615L257.332 13.7927L257.088 13.5C256.173 12.4269 255.135 11.3321 253.998 10.2314C253.199 9.49037 254.073 10.2601 251.641 8.14105C249.151 6.15883 247.603 4.74252 243.793 3.42875C242.798 3.13288 241.579 3.07853 240.223 3.40758C237.944 2.84201 227.825 12.0258 225.238 16.304C224.868 16.8037 224.498 17.3139 224.125 17.8627L223.622 18.621L223.663 17.7121C223.687 15.4116 222.934 12.6443 221.232 10.627C219.548 8.56813 216.992 7.49887 214.798 7.11133C215.526 7.26138 216.385 7.50232 217.141 7.81351C215.359 7.14071 213.452 6.90157 211.524 6.90226C210.891 6.90298 210.243 6.94924 209.612 7.02632C209.238 7.04733 208.874 7.07806 208.513 7.11663C207.055 7.39548 205.617 7.81167 204.199 8.30649C201.122 9.32965 204.155 7.97184 197.583 10.9977C195.891 11.8374 194.394 12.6397 192.939 13.5099L192.766 13.6165L192.653 13.4474C191.779 12.177 190.793 10.9039 189.637 9.55868C188.756 8.54505 188.152 7.93345 187.11 6.892C184.486 4.41075 186.06 5.80653 184.362 4.35969C182.615 3.02893 179.912 0.863323 175.937 0.493852C177.401 0.621015 176.844 0.472435 175.467 0.421592C172.88 0.136053 168.119 2.30442 167.919 2.66862C166.696 3.41897 165.734 4.15526 164.578 5.2475C165.421 3.98498 160.283 9.63867 159.158 12.4932C158.975 12.8513 158.819 13.1758 158.708 13.4249L158.55 13.7873L158.303 13.4782C157.066 12.0027 157.069 12.0015 156.663 11.5492C155.267 10.074 156.268 11.1557 155.275 10.1411C152.264 7.20169 148.985 4.32356 145.002 3.42092C139.981 2.68461 135.761 6.66197 132.433 10.2921C131.559 11.3019 132.341 10.42 131.347 11.6145C130.874 12.1982 130.408 12.7851 129.933 13.4512L129.75 13.7189L129.574 13.4471C129.106 12.7313 128.522 11.9262 127.781 11.0128C127.39 10.5377 127.245 10.3948 126.607 9.67652C124.01 6.82843 120.926 4.07554 117.153 3.42185C110.542 2.9372 105.472 8.6292 101.546 13.4562L101.333 13.7479L101.178 13.4223C98.8323 9.10079 95.6262 3.94698 90.3738 3.40524C85.9068 3.45926 82.7104 7.52126 80.2781 11.1544C79.8054 11.8932 79.3986 12.5867 78.969 13.4298L78.6177 14.1244L78.5487 13.3492C78.4078 12.3073 78.1444 11.0107 77.4003 9.28557C76.4293 6.78443 73.5732 3.6723 69.8584 3.40506C68.7473 3.27323 67.6363 3.36589 66.6387 3.66205C65.5373 4.03111 65.2386 4.17483 63.9718 5.05366C59.9967 8.24986 58.2493 12.7433 56.963 17.763L56.5734 17.7449C56.5479 17.5275 56.5184 17.329 56.4807 17.0948C55.517 10.9828 51.8321 3.21875 44.6522 3.3977C41.6972 3.36567 38.8804 4.692 36.7528 6.66629C35.471 7.92335 35.5942 7.65664 34.0252 9.73694C31.5668 13.5099 32.6019 12.1506 32.1363 12.937C31.0897 15.056 30.6595 16.0826 30.1116 17.7659L29.8096 17.7363C29.7721 17.3114 29.7034 16.785 29.6076 16.2116C29.5317 15.7674 29.6015 16.4103 29.534 16.0082C28.9918 12.992 28.4385 11.4587 27.7696 9.95005C27.021 8.57257 26.3565 6.55433 23.3165 5.44658C21.9499 5.08346 21.4482 5.25821 21.56 5.21135C21.6617 5.2027 22.3593 5.13725 23.2313 5.36607C25.0754 5.71974 26.7851 7.9634 27.0096 8.37697C27.6411 9.41673 27.2883 8.45341 26.1384 7.07788C25.0584 5.6186 22.3577 4.585 20.468 5.12719C17.2985 6.01772 17.4275 6.40814 16.3298 7.02248C15.7359 7.42132 15.2483 7.78403 14.647 8.26939C8.83444 12.2234 6.02524 21.5728 7.34873 26.2649C7.89873 29.4124 6.92922 23.7335 7.17785 25.348C7.37262 26.9611 7.62911 27.9713 8.09957 29.5731C8.50552 31.1933 10.0417 34.2558 9.71597 33.7009ZM384.951 52.3182C384.373 49.615 382.043 44.4726 376.6 44.4006L376.606 44.4095C379.974 36.1781 386.468 23.8404 381.022 14.9376C379.758 13.5554 378.077 12.5493 376.347 12.6505C374.623 12.7342 373.191 13.6852 372.089 14.6547C370.567 16.0198 369.367 17.671 368.439 19.3153L368.419 19.3078C369.519 14.5191 367.207 9.99769 364.466 9.12727C361.907 8.11001 360.561 8.37241 361.644 8.47555C367.262 8.6855 369.49 14.8417 368.371 19.2967L368.483 19.3384C369.782 17.0664 371.421 14.8846 373.712 13.5061C376.004 11.9682 379.194 12.7723 381.005 14.9526C382.73 16.8114 383.138 19.5832 383.079 22.2463C383.341 23.767 381.438 32.4437 380.246 35.3063C379.665 36.9446 379.634 36.9774 378.768 39.181C378.59 39.6531 377.526 42.2837 377.072 43.2439C376.927 43.5599 376.739 43.9655 376.538 44.3761L376.485 44.4836L376.604 44.4762C378.757 44.3571 381.94 46.0104 383.296 48.5902C384.741 51.0911 384.97 53.6601 385.075 54.2954C385.094 54.4353 385.11 54.5706 385.125 54.7011C385.343 58.2641 385.258 56.8738 385.17 58.5716C384.203 64.42 383.677 65.0366 380.966 70.2304C380.491 71.0454 379.025 73.6931 376.576 76.6086L376.548 76.64L376.586 76.6585C376.911 76.8255 377.248 77.033 377.573 77.2492C379.09 78.188 381.195 80.3959 381.939 81.53C384.078 84.4504 385.231 88.2773 385.21 92.0365C385.256 95.9658 384.008 99.8083 381.939 102.592C380.26 104.812 379.367 105.367 378.847 105.815C378.297 106.226 378.025 106.479 376.766 107.21C376.692 107.251 376.622 107.288 376.565 107.316L376.43 107.381L376.559 107.457C379.006 108.964 381.416 111.489 382.487 113.115C384.436 115.731 385.269 119.657 385.274 120.64C385.391 121.848 385.359 123.061 385.197 124.252C384.511 129.759 381.682 135.312 376.589 137.377L376.514 137.401L376.578 137.445C382.286 141.992 385.283 149.277 385.237 156.482C385.246 161.224 384.077 165.973 382.06 170.399C384.056 166.046 385.269 161.284 385.272 156.482C385.348 149.258 382.311 141.896 376.633 137.368L376.617 137.468C377.418 137.186 378.174 136.745 378.863 136.263C381.75 134.005 382.001 132.967 382.395 132.526C382.708 132.006 382.986 131.821 383.942 129.615C384.821 127.365 385.02 126.118 385.28 124.264C385.406 123.192 385.508 121.912 385.282 120.096C385.282 120.1 385.283 120.104 385.284 120.108C385.14 117.558 382.905 112.056 378.477 108.677C378.349 108.597 378.152 108.362 376.607 107.375L376.606 107.401C377.158 107.113 377.855 106.672 378.684 106.021C382.278 103.324 385.383 97.9416 385.245 92.0365C385.413 85.872 381.88 79.8624 377.356 77.0789C377.08 76.903 376.812 76.7458 376.597 76.6351C377.903 75.0428 377.886 75.1856 379.694 72.5353C381.114 70.3453 382.68 67.6904 384.049 63.8148C385.376 59.8354 385.572 57.3325 385.287 54.6829C385.21 54.066 385.106 53.4561 384.96 52.8262C384.932 52.5299 384.996 52.6666 384.951 52.3182ZM206.253 7.40272C205.466 7.3264 196.481 11.0151 199.181 9.99875C203.006 8.32187 207.136 6.73118 211.524 6.65617C217.748 6.12977 224.239 11.1261 223.889 17.7222L223.885 17.8156L223.936 17.7377C225.651 15.2352 227.581 12.8268 229.647 10.6117C228.03 12.2693 225.984 14.6429 223.884 17.7031L223.951 17.725C224.026 14.0119 221.905 9.14372 217.158 7.52689C217.155 7.52546 217.151 7.52404 217.147 7.52262C216.715 7.38092 218.531 7.94476 216.07 7.15301C215.405 6.96317 213.652 6.59801 211.524 6.62152C209.824 6.62478 207.925 6.9682 206.253 7.40272Z" fill="#1A1918"/>
</svg>
