<svg width="630" height="173" viewBox="0 0 630 173" fill="none" xmlns="http://www.w3.org/2000/svg" preserveAspectRatio="none">
<path d="M24.1163 5.32674C1.99049 11.9629 16.4932 20.5972 16.4932 20.5972C16.4932 20.5972 0.578125 24.4035 0.578125 29.9983C0.578125 36.1948 16.4932 37.1533 16.4932 37.1533C16.4932 37.1533 3.62683 39.4432 3.62683 48.8018C3.62683 56.4623 17.3509 58.4329 17.3509 58.4329C17.3509 58.4329 2.50836 66.7424 3.62683 79.1317C4.17611 85.2162 16.4932 94.3442 16.4932 94.3442C16.4932 94.3442 0.578125 103.838 0.578125 112.036C0.578125 120.233 17.3509 126.055 17.3509 126.055C17.3509 126.055 0.577769 127.056 0.578125 135.573C0.578481 144.089 24.1182 148.065 24.1182 148.065C24.1182 148.065 5.72629 151.622 27.9668 162.922C45.4518 171.806 63.4369 148.065 63.4369 148.065C63.4369 148.065 74.4768 170.319 85.4102 170.319C102.897 170.319 108.905 150.826 108.905 150.826C108.905 150.826 120.412 170.319 137.708 170.319C155.721 170.319 162.359 149.522 162.359 149.522C162.359 149.522 165.071 170.319 191.436 170.319C217.801 170.319 222.81 149.962 222.81 149.962C222.81 149.962 239.223 170.319 260.645 170.319C282.066 170.319 296.584 150.826 296.584 150.826C296.584 150.826 302.409 171.672 322.281 171.672C345.708 171.672 355.785 150.826 355.785 150.826C355.785 150.826 375.589 171.672 388.314 171.672C402.889 171.672 404.909 150.826 404.909 150.826C404.909 150.826 422.106 174.478 437.255 171.672C446.94 169.878 454.663 150.826 454.663 150.826C454.663 150.826 463.35 171.672 478.465 171.672C492.27 171.672 504.417 149.962 504.417 149.962C504.417 149.962 512.702 170.319 526.33 170.319C545.645 170.319 550.736 156.908 550.736 156.908C550.736 156.908 565.032 167.906 584.174 162.922C605.817 157.286 584.174 149.413 584.174 149.413C584.174 149.413 614.859 153.728 616.612 143.801C618.364 133.873 606.654 130.751 606.654 130.751C606.654 130.751 623.769 127.123 623.769 108.178C623.769 89.2334 613.516 82.5288 613.516 82.5288C613.516 82.5288 628.834 77.0807 628.834 63.6934C628.834 50.3061 613.516 45.8089 613.516 45.8089C613.516 45.8089 626.679 41.6531 626.679 33.6985C626.679 25.744 613.516 26.3429 613.516 26.3429C613.516 26.3429 632.709 13.5726 621.972 9.30846C611.235 5.04429 601.386 11.9629 601.386 11.9629C601.386 11.9629 605.367 5.56373 588.52 5.32674C571.672 5.08976 557.689 20.5972 557.689 20.5972C557.689 20.5972 560.642 3.4228 539.627 2.22988C518.613 1.03697 511.37 20.5972 511.37 20.5972C511.37 20.5972 497.75 1.77333 485.589 2.22988C474.463 2.64756 467.197 17.9428 467.197 17.9428C467.197 17.9428 452.038 1.88747 440.128 2.22988C428.99 2.55011 421.735 17.9428 421.735 17.9428C421.735 17.9428 408.775 3.37778 398.098 2.22988C383.982 0.712182 367.267 20.5972 367.267 20.5972C367.267 20.5972 366.361 4.30979 345.329 4.30979C332.573 4.30979 316.537 17.9428 316.537 17.9428C316.537 17.9428 300.485 0.435575 286.488 0.435547C268.126 0.43551 260.499 17.9428 260.499 17.9428C260.499 17.9428 247.165 2.96083 236.84 2.22988C224.76 1.37471 213.606 17.9428 213.606 17.9428C213.606 17.9428 202.22 2.84291 191.379 2.22988C178.991 1.52941 167.288 17.9428 167.288 17.9428C167.288 17.9428 157.818 2.35205 147.633 2.22988C137.214 2.10491 130.404 17.9428 130.404 17.9428C130.404 17.9428 127.344 2.77836 114.181 2.22988C98.0172 1.5564 94.5007 20.5972 94.5007 20.5972C94.5007 20.5972 90.1861 2.22989 73.0084 2.22988C55.8307 2.22987 50.7551 20.5972 50.7551 20.5972C50.7551 20.5972 46.2421 -1.30938 24.1163 5.32674Z" fill="#F3E8D6"/>
<path d="M16.0684 21.1074C14.297 19.9532 12.667 18.5484 11.6768 16.5281C10.5719 14.5063 11.3104 11.7056 12.8692 10.2268C15.9808 7.14867 19.9695 5.86712 23.9017 4.6114C29.017 3.04969 34.9435 2.59849 40.0805 5.09807C42.9464 6.61499 42.5707 6.6649 43.6219 7.45205C45.5862 8.94602 47.9974 12.2544 48.2435 12.7651C50.0017 15.8332 49.1726 14.7068 49.4052 15.1194C50.9085 18.5023 50.9257 18.8593 51.3939 20.4656L50.1265 20.4235C50.3127 19.7369 50.5849 18.8772 51.1725 17.4919C53.6093 11.5496 59.3291 4.18287 67.313 2.27034C69.7295 1.75839 69.0548 1.77527 73.0084 1.63458C73.5452 1.63631 74.1374 1.6523 74.8387 1.70536C76.9407 1.82426 81.3958 2.6207 85.1319 5.34383C88.9207 7.96878 91.6144 12.073 92.8791 14.7542C92.8602 14.7975 92.4833 14.1547 92.2921 13.8924C93.6656 16.33 94.4905 18.3813 95.066 20.4644L93.9297 20.4918C95.0145 16.2995 95.8563 11.909 101.741 6.0378C103.205 4.78664 104.654 3.48845 107.939 2.4024C110.411 1.72901 111.167 1.64845 114.202 1.71562C115.255 1.77506 116.572 1.90132 118.266 2.41052C120.548 3.1928 122.076 3.73164 124.806 6.30294C127.386 8.83584 129.812 12.9847 130.949 17.8329L129.894 17.7233C133.484 9.62686 140.983 1.22169 147.639 1.73805C148.013 1.74289 148.37 1.76731 148.708 1.80484C159.204 4.24527 163.438 11.6854 167.762 17.6545L166.835 17.6203C169.766 13.7155 173.134 9.99888 177.874 6.51532C178.816 5.84352 176.795 7.38477 178.522 6.15605C180.267 4.92218 182.214 3.80497 182.701 3.58413C184.736 2.59326 187.982 1.44048 191.41 1.67218C196.64 2.04908 200.913 5.28478 202.438 6.3136C208.414 11.0783 202.905 5.97207 210.473 13.3667C211.673 14.6521 212.894 16.0453 214.08 17.5857L213.114 17.6116C218.411 10.2476 227.003 1.79812 235.872 1.74283C236.211 1.74224 236.544 1.75418 236.872 1.7779C247.681 4.11805 250.267 7.84584 256.51 13.3163C257.995 14.7139 259.444 16.1593 260.812 17.6644L260.116 17.7756C264.898 7.8007 275.041 -0.24012 286.488 0.00582555C298.868 0.73644 308.561 9.40395 316.862 17.6452L316.252 17.6073C320.524 14.1067 325.11 11.0071 330.004 8.43638C329.945 8.51231 329.874 8.5948 329.801 8.67889C331.925 7.52984 334.119 6.49295 336.396 5.65206C336.061 5.80297 335.746 5.952 335.415 6.11135C338.623 4.84672 341.918 3.93897 345.329 3.90214C352.748 3.7951 361.992 6.04055 366.137 14.9116C366.249 15.151 365.879 14.5561 365.971 14.7554C366.815 16.5386 367.474 18.5586 367.672 20.5747L366.957 20.3366C367.624 19.5446 368.315 18.7879 368.944 18.1262C373.19 13.3658 381.978 7.07184 378.069 9.77788C383.513 5.69064 390.344 1.189 398.142 1.82571C406.816 3.21751 413.37 9.31028 418.767 14.3213C420.149 15.6676 421.191 16.7748 422.004 17.7037L421.41 17.7895C422.662 15.4037 423.537 14.1855 424.665 12.5477C426.385 10.1863 425.432 11.3276 426.058 10.5009C429.138 5.82695 437.164 1.27011 440.12 1.93793C440.478 1.93903 440.733 1.95775 440.86 1.975C442.127 1.95659 443.472 2.12295 444.728 2.39711C444.339 2.34144 448.933 3.51909 453.468 6.40262C458.06 9.17134 462.653 13.1486 464.497 14.8707C465.164 15.49 465.21 15.6164 465.724 16.1083C466.343 16.7038 466.879 17.2318 467.389 17.7612L466.958 17.8293C469.736 12.6801 470.902 10.7634 475.153 6.60356C476.987 5.1377 474.015 7.24049 479.012 3.85083C479.237 3.72621 479.275 3.66181 480.012 3.27333C480.756 2.94928 482.195 2.00282 485.573 1.79121C485.771 1.78365 485.975 1.78085 486.186 1.78358C494.707 1.82568 504.813 11.1832 511.736 20.3324L510.946 20.4404C512.997 15.4998 516.209 11.4305 519.418 8.61953C520.289 7.91731 517.677 10.0995 521.684 6.9153C523.237 5.8963 522.324 6.11228 526.379 4.11125C530.46 2.26751 535.075 1.53343 539.651 1.81239C544.516 2.09989 549.717 3.30311 553.481 6.80531C557.267 10.2833 558.702 15.7028 558.076 20.6638L557.397 20.3341C559.777 17.8016 562.393 15.5642 565.14 13.5288C564.674 13.9984 559.67 17.7598 567.278 12.1842C568.54 11.3451 567.554 11.9035 568.121 11.5333C572.759 8.6014 577.184 6.52595 583.062 5.39901C584.805 5.11217 585.235 4.97815 587.447 4.8765C587.828 4.86475 588.185 4.86258 588.526 4.86743C591.075 4.93821 592.581 4.99617 595.881 5.57169C598.096 6.01875 599.588 6.56537 600.808 7.52457C602 8.41943 602.882 10.3055 601.796 12.218L601.108 11.5676C602.126 10.9027 603.373 10.2421 605.021 9.57386C610.352 7.27018 616.641 6.69431 622.125 8.9229C623.995 9.56446 626.046 11.3965 625.614 13.6878C625.275 15.8228 623.995 17.4716 622.722 18.9911C620.094 21.9823 616.985 24.4553 613.751 26.6964L613.497 25.9188C616.357 25.8683 619.216 26.1625 621.936 27.1702C624.611 28.068 627.263 30.582 627.109 33.6985C626.587 40.8735 619.327 44.0588 613.646 46.2202L613.638 45.395C621.551 47.9679 629.475 54.656 629.254 63.6934C629.396 71.0962 624.055 77.3337 617.983 80.7888C616.58 81.6166 615.16 82.3393 613.654 82.9175L613.742 82.1836C621.49 88.3643 624.216 98.2226 624.27 108.178C624.271 108.772 624.255 109.354 624.223 109.925C623.826 113.588 623.984 114.436 621.536 119.802C621.243 120.397 619.928 122.778 618.019 124.708C616.148 126.679 613.829 128.112 613.187 128.365C610.944 129.7 609.408 130.345 607.245 130.992C608.904 130.563 610.552 129.904 612.008 129.172C610.288 130.064 608.542 130.768 606.75 131.204L606.773 130.304C612.866 132.027 618.564 137.337 617.143 143.894C617.041 144.484 616.846 145.038 616.558 145.559C615.69 147.028 614.822 147.495 614.393 147.813C613.932 148.111 613.8 148.162 613.727 148.196C613.576 148.233 613.734 148.247 611.95 148.986C608.324 150.233 606.577 150.452 601.883 150.666C598.206 150.933 595.724 150.91 588.98 150.378C588.478 150.333 586.425 150.185 584.107 149.887L584.338 148.963C585.438 149.369 586.599 149.878 587.643 150.401C589.844 151.682 590.798 151.697 593.548 154.924C593.628 155.082 594.116 155.649 594.216 156.748C594.345 157.865 593.511 159.184 592.458 159.977C590.323 161.625 587.608 162.435 586.279 162.868C585.696 163.048 585.045 163.233 584.304 163.423C580.331 164.525 575.323 164.678 574.626 164.647C562.711 164.259 558.17 162.033 551.052 157.566C550.917 157.484 550.725 157.362 550.506 157.208L551.09 157.042C550.333 159.444 546.427 164.694 541.737 167.132C538.114 169.336 531.548 170.863 526.33 170.721C522.39 170.708 519.564 169.056 518.798 168.757C511.963 163.891 512.551 164.311 507.065 156.143C506.179 154.643 505.038 152.582 503.998 150.133L504.812 150.183C499.669 159.759 487.238 171.928 480.611 171.899C479.766 172.03 479.057 172.069 478.465 172.074C473.959 171.797 476.452 172.098 473.897 171.581C469.334 170.003 471.786 170.847 468.891 169.313C461.708 164.677 457.545 158.134 454.178 151.029L455.15 151.024C454.871 151.707 454.581 152.361 454.271 153.038C454.014 153.451 453.742 153.882 453.481 154.282C453.295 154.706 453.121 155.1 452.927 155.524C452.08 157.188 451.045 159.032 450.122 160.507C453.342 155.223 452.593 156.576 450.288 160.436C447.931 164.118 443.391 170.876 437.329 172.073C435.179 172.461 433.242 172.279 431.881 172.043C424.294 171.01 414.575 162.911 409.299 156.955C407.994 155.512 408.936 156.464 408.668 156.167C406.716 153.961 405.81 152.872 404.486 151.134L405.43 150.877C405.288 152.173 405.045 153.731 404.459 156.002C403.601 159.257 402.258 162.465 400.418 165.212C397.835 169.274 393.218 172.258 388.314 172.123C374.581 170.387 364.814 160.085 355.415 151.178L356.244 151.049C353.6 156.036 349.906 160.409 345.499 163.986C342.322 166.533 339.194 168.186 336.031 169.472C331.494 171.232 328.409 171.901 323.839 172.148C323.347 172.168 322.826 172.178 322.281 172.176C317.806 172.302 312.414 170.46 310.046 168.999C307.386 167.379 311.795 170.383 307.089 167.152C305.038 165.516 308.706 168.337 306.182 166.319C302.016 162.857 298.162 157.256 296.147 150.948L296.947 151.097C293.431 155.571 289.159 159.391 285.132 162.221C285.523 161.969 286.059 161.6 286.527 161.269C278.831 167.047 270.344 170.707 260.645 170.739C258.964 170.736 257.277 170.611 255.555 170.36C251.447 169.921 244.414 167.408 240.929 165.37C237.408 163.414 235.937 162.299 233.358 160.393C232.297 159.585 232.684 159.954 231.982 159.403C227.977 156.187 225.082 153.302 222.497 150.215L223.2 150.058C221.764 154.588 219.333 158.789 214.628 162.975C208.324 168.49 199.752 170.732 191.436 170.695C178.512 171.372 164.182 163.269 161.949 149.575L162.754 149.648C159 160.286 149.969 170.988 137.708 170.764C127.003 170.756 118.025 163.53 111.734 155.646C110.654 154.26 109.872 153.396 108.486 151.224C108.474 151.206 108.465 151.19 108.456 151.176C108.434 151.14 108.419 151.115 108.419 151.114L109.446 150.993C108.159 154.604 107.834 154.693 107.647 155.156C106.006 158.17 106.863 157.056 104.211 160.846C100.812 165.703 93.4624 171.135 85.4102 170.844C79.5825 170.567 75.7331 166.215 72.9938 163.304C68.8549 158.583 65.6679 153.47 62.9651 148.299L63.8567 148.383C55.3487 158.559 42.2592 170.214 27.6938 163.459C26.0513 162.625 24.5574 161.812 22.9746 160.823C21.6331 159.941 22.532 160.518 20.2462 158.806C18.9278 157.749 17.7592 156.652 16.9998 155.242C16.1762 153.873 16.3569 151.899 17.3756 150.83C19.3689 148.702 21.7964 148.092 24.0166 147.54L24.0291 148.592C20.0223 147.86 16.402 146.988 12.2323 145.571C10.1581 144.845 7.93543 143.985 5.60095 142.657C3.44497 141.304 0.22942 139.525 0.00110817 135.573C-0.0235382 133.93 0.679178 132.191 1.9219 130.901C5.55139 127.308 11.3039 126.075 17.3178 125.5L17.1685 126.581C10.9842 123.834 1.67759 121.129 0.0460959 112.036C1.391 103.196 9.631 98.4202 16.2332 93.9083L16.191 94.752C10.8459 90.3397 4.81257 86.041 3.13858 79.1758C2.56963 73.0556 5.8935 67.806 9.3109 64.2299C9.31105 64.2301 9.31121 64.2302 9.31136 64.2304C11.4051 61.9539 14.0188 59.7499 17.0658 57.9236L17.268 59.0107C11.7208 57.9316 3.54937 55.8616 3.11519 48.8018C3.12472 47.8301 3.27114 46.877 3.55231 45.9831C3.28402 46.8988 3.16087 47.8503 3.16776 48.8018C3.86602 55.9626 11.7639 57.6453 17.3012 58.7791L17.1801 58.1278C9.91389 62.6582 2.6212 69.9385 3.37631 79.1543C5.15442 86.0628 11.2151 90.2656 16.3655 94.5166L16.3833 94.16C9.84902 98.6374 1.71477 103.399 0.375917 112.036C1.64865 120.246 10.5047 123.371 17.2822 126.253L17.3384 125.846C13.8686 126.13 10.4024 126.768 7.1127 128.046C3.96054 129.266 0.306499 131.672 0.356262 135.573C0.868065 140.749 6.32457 142.755 10.4136 144.54C14.8008 146.241 19.4062 147.43 24.0798 148.292L24.0744 147.839C21.8552 148.355 19.5644 149.079 17.837 150.754C16.6765 151.808 16.4448 153.75 17.241 155.074C17.9738 156.449 19.078 157.471 20.2453 158.428C22.5491 160.27 25.2257 161.768 27.8682 163.116C41.4248 169.787 55.1927 158.405 63.557 148.156L63.302 148.132C68.5102 157.104 74.1514 168.585 85.4102 170.398C96.7847 170.668 105.507 160.892 108.915 150.829L108.897 150.831C115.359 160.751 125.355 170.18 137.708 170.275C149.743 170.494 158.579 159.96 162.296 149.55C162.306 149.521 162.311 149.506 162.311 149.506L162.41 149.515C163.697 155.308 165.026 157.603 168.253 161.462C168.841 162.09 167.371 160.424 169.193 162.327C174.893 168.065 183.314 170.282 191.436 170.23C204.659 170.738 218.888 163.126 222.757 149.949L222.783 149.843L222.852 149.928C232.571 161.05 246.029 170.23 260.645 170.286C261.285 170.285 261.919 170.267 262.545 170.233C272.065 169.189 273.553 168.188 280.941 164.265C279.68 165.049 278.84 165.542 277.702 166.148C285.032 162.549 291.48 157.203 296.603 150.841L296.56 150.833C299.968 161.964 309.975 172.155 322.281 171.723C336.273 172.011 349.307 163.037 355.83 150.848L355.749 150.861C359.179 154.387 362.842 157.724 366.674 160.833C368.052 161.939 368.176 162.142 369.656 163.26C372.622 165.481 375.65 167.349 378.534 168.827C382.336 170.634 383.007 171.065 386.874 171.699C387.563 171.772 387.938 171.77 388.314 171.762C388.998 171.7 389.745 171.845 392.301 171.152C392.612 171.003 392.955 171.215 395.353 169.823C400.325 167.131 404.257 157.929 404.95 150.83L404.876 150.85C406.607 153.153 408.318 155.103 409.508 156.419C414.829 162.339 419.92 166.288 422.492 167.863C429.565 171.732 429.718 171.906 436.522 171.807C436.768 171.775 437.013 171.736 437.258 171.691C446.557 168.763 450.84 158.959 454.691 150.838L454.635 150.838C459.202 160.553 466.76 171.417 478.465 171.736C490.652 170.806 498.42 159.63 504.508 150.013L504.321 150.001C508.539 159.046 515.049 169.894 526.33 170.447C532.003 170.459 537.828 169.256 542.705 166.127C544.358 165.13 548.765 161.715 550.789 156.928L550.702 156.953C553.197 158.738 555.935 160.048 557.935 160.899C559.632 161.977 569.596 164.379 571.181 164.167C576.34 164.568 580.934 163.892 584.209 163.056C584.911 162.878 585.516 162.71 586.041 162.555C589.069 161.509 593.251 160.522 593.91 157.027C593.911 155.326 592.622 154.193 591.658 153.372C590.634 152.544 589.64 151.962 588.852 151.518C587.545 150.789 585.931 150.02 584.192 149.363L584.167 149.465C590.144 150.278 597.243 150.465 599.271 150.397C605.698 150.15 603.603 150.429 608.178 149.697C609.497 149.322 608.191 149.907 612.694 148.199C615.247 147.007 616.4 145.501 616.73 143.822C616.869 143.088 616.951 142.369 616.932 141.516C616.927 140.133 616.415 138.138 615.365 136.623C614.346 135.084 612.989 134.017 612.306 133.508C610.371 132.085 608.475 131.24 606.672 130.685L606.668 130.819C611.563 129.395 615.672 127.572 619.987 121.789C621.489 119.758 624.014 114.63 623.9 108.178C624.277 98.4048 619.601 86.4903 613.562 82.4586L613.544 82.6079C616.354 81.5038 618.11 80.3273 618.657 79.9909C626.597 73.6927 619.626 80.2822 613.512 82.5168L613.488 82.5254L613.509 82.5395C615.488 83.977 616.723 85.6366 616.955 85.9C620.944 91.7032 620.402 90.9423 622.565 97.6121C623.004 99.7066 623.695 103.648 623.685 108.178C624.482 117.312 616.833 126.457 613.305 127.693C611.181 129.127 608.957 130.143 606.648 130.72L606.646 130.782C609.497 131.672 612.324 133.158 614.499 135.773C615.809 137.428 616.122 138.605 616.324 139.239C616.507 139.897 616.528 140.066 616.563 140.173C616.545 140.388 616.932 140.304 616.647 143.382C616.629 143.506 616.607 143.644 616.58 143.795C616.556 147.23 609.573 149.472 606.255 149.732C602.629 150.192 601.083 150.355 596.173 150.304C591.816 150.205 587.903 149.871 584.18 149.369L584.159 149.454C587.593 150.887 591.209 152.42 593.236 155.475C593.974 156.578 593.779 158.011 592.833 158.99C590.497 161.164 587.241 161.987 584.148 162.823C582.318 163.283 580.467 163.614 578.608 163.811C579.414 163.755 580.227 163.672 581.029 163.565C579.564 163.831 578.088 164.013 576.604 164.111C571.672 164.36 566.925 163.729 562.104 162.195C553.358 159.311 552.538 157.903 550.815 156.806L550.678 156.701L550.616 156.863C550.195 157.778 549.623 158.932 548.063 160.91C543.092 166.688 538.556 168.458 532.848 169.662C530.372 170.109 528.274 170.224 526.33 170.23C522.178 170.155 518.732 168.679 514.682 165.008C511.16 161.904 507.031 155.08 510.585 160.53C508.298 157.516 506.13 153.89 504.424 149.959L504.418 149.945L504.411 149.958C498.345 160.151 488.672 171.61 478.465 171.641C478.424 171.641 478.383 171.641 478.342 171.64C475.605 171.484 477.431 171.587 478.465 171.571C478.873 171.563 479.151 171.539 478.966 171.545C478.798 171.55 478.631 171.552 478.465 171.551C475.438 171.51 472.808 170.858 470.013 169.329C464.795 166.904 458.218 157.878 456.376 153.92C455.865 152.953 455.319 151.875 454.833 150.756L454.661 150.343L454.493 150.757C452.259 156.267 448.505 162.206 447.98 162.851C444.661 167.489 443.228 168.277 441.831 169.409C440.24 170.595 438.66 171.308 437.236 171.573C431.121 172.326 429.15 170.802 426.818 169.793C424.123 169.165 415.001 162.354 413.337 160.148C413.199 160.213 408.251 155.307 404.927 150.813L404.892 150.765L404.887 150.824C404.793 151.714 404.64 152.626 404.49 153.424C404.246 154.462 403.955 155.516 403.626 156.535C402.363 161.648 398.195 171.791 388.314 171.666C378.298 170.894 369.959 163.298 363.721 158.172C363.418 157.905 362.805 157.53 361.055 155.908C360.948 155.806 361.152 155.938 359.99 154.851C359.084 153.996 357.552 152.538 355.854 150.761L355.759 150.662L355.699 150.785C352.227 158.12 342.478 165.767 340.834 166.363C333.409 170.435 331.717 170.445 326.656 171.298C324.88 171.505 323.492 171.546 322.281 171.543C318.964 171.425 317.114 171.336 312.683 169.625C309.931 168.413 307.409 167.103 304.104 163.637C302.224 161.533 302.139 161.228 300.883 159.391C298.974 156.451 297.633 153.579 296.759 150.777L296.659 150.42L296.438 150.718C294.143 153.636 291.57 156.21 288.557 158.712C287.306 160.08 284.534 162.058 281.535 163.851C275.668 167.43 268.176 170.14 260.645 170.1C252.66 170.141 245.239 167.157 239.866 164.006C233.381 160.193 227.684 155.302 222.999 149.81L222.691 149.428L222.574 149.904C218.572 163.197 204.509 170.465 191.436 169.971C178.766 170.543 165.005 162.802 162.782 149.467L161.953 149.392C161.141 151.733 160.014 154.06 158.715 156.255C155.477 161.248 154.677 162.639 149.652 166.357C147.297 167.867 144.623 169.228 140.072 169.773C139.333 169.852 138.566 169.899 137.708 169.902C134.31 169.956 130.207 168.988 126.883 167.337C125.786 166.788 125.714 166.684 124.163 165.757C118.069 161.969 113.096 156.569 109.273 150.609L108.782 149.777L108.497 150.701C106.368 156.76 102.676 162.576 97.2325 166.339C92.9473 169.218 89.6002 169.378 90.534 169.435C88.8078 169.817 87.0858 169.966 85.4102 169.927C85.2346 169.923 85.0598 169.912 84.8856 169.896C77.956 168.886 73.8363 163.518 68.4181 155.807C67.9692 155.154 65.4594 151.401 63.7147 147.927L63.4926 147.479L63.1898 147.878C62.4933 148.773 61.7329 149.638 61.0866 150.33C60.9388 150.591 61.4063 150.15 61.3689 150.279C58.7236 153.403 53.921 157.5 51.6172 159.008C49.3613 160.579 47.7632 161.503 47.028 161.883C44.1949 163.261 44.7877 162.778 44.5746 162.891C33.8471 166.422 31.8209 163.952 28.0729 162.713C26.8802 162.132 25.5713 161.489 23.7949 160.452C23.0622 159.886 19.1002 158.074 17.3347 154.367C16.4516 152.338 18.324 150.48 19.9253 149.699C21.5665 148.829 23.1674 148.404 24.1385 148.17L24.136 147.959C23.9189 147.928 23.6777 147.89 23.5 147.864C23.405 147.807 23.8317 147.853 24.151 147.871L24.1555 148.258C24.0651 148.289 23.9362 148.332 23.8911 148.356C23.9675 148.339 24.0881 148.313 24.1633 148.298L24.1578 147.83C19.8311 147.022 15.4513 145.892 11.298 144.336C12.1828 144.724 13.2593 145.145 14.0871 145.46C8.26468 143.361 1.43098 141.302 0.654046 135.573C0.589324 133.181 2.17828 131.143 4.0715 129.911C7.83148 127.742 7.52628 128.314 9.91904 127.488C10.4016 127.354 9.56043 127.488 10.9972 127.117C13.3023 126.554 15.4141 126.245 17.3534 126.096L17.3645 126.016C13.6396 124.635 10.6343 123.153 7.66966 121.24C4.9412 119.278 1.05802 116.941 0.680877 112.036C0.680942 111.987 0.681582 111.938 0.6828 111.888C1.35786 106.232 5.51993 102.376 11.901 97.5286C12.2123 97.3082 14.13 95.9116 16.55 94.4394L16.6928 94.3543L16.5592 94.2552C14.4682 92.6694 12.1212 90.6696 10.3564 89.0811C9.26226 87.9511 8.3305 86.9231 7.59893 86.008C4.76538 82.8561 3.87456 80.9658 3.66922 79.1279C3.68051 76.7189 3.10526 73.792 7.5237 67.4201C9.06639 65.2802 12.59 61.512 17.4547 58.6183L18.0022 58.3121L17.3811 58.2227C11.774 57.2656 3.83482 54.5397 3.80874 48.8018C3.77725 46.0898 5.00305 43.9981 6.0259 42.8164C9.17055 39.6277 9.42636 40.0093 10.047 39.5199C13.4008 37.816 14.3086 37.7525 16.5099 37.247L16.499 37.0584C15.8688 37.0108 15.0887 36.9365 14.1009 36.819C9.85011 36.1636 3.44558 35.6194 0.88409 31.472C0.579751 30.7941 0.57247 30.3178 0.576045 29.9983C0.617313 29.3983 0.685737 29.3295 0.83778 28.9202C1.02221 28.5355 1.29448 27.7206 2.87643 26.4044C3.29899 26.0654 2.88529 26.3541 2.91193 26.3052C2.95631 26.2802 3.34054 25.7607 5.76984 24.478C6.44822 23.8704 14.7524 20.9795 16.5258 20.7332C14.7456 21.2058 11.553 22.1347 8.26456 23.5567C5.14031 24.9649 1.02158 27.006 0.874704 29.9983C0.876716 31.3584 1.76023 32.3211 2.4505 32.8893C6.17545 35.6159 11.4213 36.3063 16.5166 36.7648L16.5614 37.5365C11.1374 38.718 4.03116 42.11 4.08808 48.8018C4.39019 54.6543 11.789 56.8715 17.4245 57.9209L18.9368 58.1386L17.6036 58.8843C10.8239 63.0913 3.4759 70.1249 4.20622 79.0794C5.67515 85.1079 11.7041 89.6756 16.8633 93.8449L17.6125 94.401L16.8116 94.878C10.4752 99.1493 2.36333 104.25 1.23822 112.036C2.199 119.153 10.9114 122.686 17.5767 125.405L17.392 126.742C14.0286 127.022 10.5813 127.667 7.43126 128.904C4.35512 130.1 1.20701 132.326 1.28696 135.573C1.58432 139.758 6.80248 142.024 10.8503 143.692C15.1568 145.349 19.7236 146.516 24.2396 147.346L24.2566 148.781C20.6857 149.456 15.5814 152.114 18.6115 155.446C21.0216 158.429 24.7088 160.381 28.3024 162.261C41.4417 168.73 54.872 157.319 62.8393 147.612L63.5714 146.647L64.1086 147.732C69.2864 156.94 75.4617 168.172 85.4102 169.571C96.8984 169.813 105.024 159.848 108.2 150.609L108.693 149.012L109.541 150.451C114.665 158.444 121.606 165.066 129.353 168.024C132.386 169.169 135.177 169.613 137.708 169.635C141.725 169.659 145.032 168.685 147.952 167.079C152.532 164.129 148.746 166.737 152.571 163.603C156.168 160.184 158.244 157.098 160.321 152.893C160.874 151.731 161.391 150.526 161.793 149.341L162.948 149.445C165.045 162.396 178.633 170.396 191.436 169.774C204.656 170.287 218.54 162.691 222.32 149.842L222.564 148.852L223.203 149.645C225.936 152.886 229.085 155.852 232.415 158.524C238.84 163.576 244.748 166.737 251.897 168.626C254.695 169.288 254.773 169.364 256.806 169.632C258.082 169.776 259.362 169.849 260.645 169.848C275.063 169.763 287.499 161.085 296.142 150.497L296.813 149.597L297.114 150.678C299.007 156.475 302.456 162.099 307.407 166.042C311.463 169.313 316.844 171.193 322.281 171.168C326.298 171.193 330.262 170.56 333.873 169.327C340.973 166.973 347.179 161.902 351.314 156.658C353.566 153.801 354.554 152.174 355.203 151.009C355.27 150.886 355.349 150.733 355.396 150.639L355.668 150.077L356.098 150.529C358.91 153.4 358.009 152.343 359.638 153.913C364.404 158.348 366.804 160.545 371.745 164.111C373.715 165.462 373.48 165.273 376.442 167.054C380.276 169.168 378.822 168.473 381.671 169.735C381.849 169.799 381.283 169.547 382.838 170.117C384.553 170.715 386.415 171.174 388.314 171.174C398.571 171.525 403.399 159.006 404.337 151.065C404.342 151.022 404.349 150.967 404.356 150.909C404.361 150.866 404.369 150.792 404.371 150.774L404.509 149.355L405.347 150.508C413.473 160.557 423.93 172.496 437.171 171.222C444.359 169.308 448.437 161.924 451.868 155.774C454.142 151.27 453.429 152.415 454.087 150.962C454.127 150.867 454.183 150.732 454.218 150.646L454.658 149.563L455.106 150.642C458.324 157.207 459.723 159.854 465.283 165.409C466.224 166.284 470.433 169.951 475.454 170.865C476.416 171.056 477.433 171.17 478.465 171.182C480.265 171.21 482.042 170.819 483.442 170.317C485.609 169.471 485.926 169.226 488.289 167.708C492.382 164.622 491.421 165.74 496.451 160.315C497.798 158.786 501.176 154.568 503.962 149.707L504.492 148.76L504.901 149.765C505.9 152.083 507.167 154.422 508.425 156.464C512.094 162.273 517.829 169.657 526.33 169.837C532.651 169.888 539.279 168.279 544.257 164.311C546.452 162.571 548.816 160.047 550.266 156.73L550.507 156.096L551.043 156.509C553.352 158.153 556.197 159.635 559.383 160.876C565.23 163.324 575.465 164.86 584.041 162.413C588.164 161.288 593.096 159.745 593.272 156.848C593.215 155.83 592.549 155.078 592.087 154.567C591.596 154.047 591.19 153.717 590.886 153.468C590.282 152.984 590.084 152.838 589.839 152.674C586.557 150.71 587.83 151.588 585.507 150.489C585.006 150.27 584.473 150.049 584.007 149.872L584.242 148.929C587.13 149.33 589.923 149.624 592.662 149.783C594.724 149.893 595.051 149.811 595.501 149.826C599.56 149.926 603.529 149.826 607.333 149.18C610.949 148.513 615.398 147.302 616.117 143.713C617.491 137.775 612.138 132.829 606.524 131.241L606.549 130.256C608.423 129.796 610.338 128.992 612.116 127.997C619.254 124.209 623.472 116.231 623.246 108.178C623.277 98.8891 620.539 88.777 613.22 82.9815L612.307 82.3839L613.335 82.0192C620.976 78.9999 628.443 72.3318 628.276 63.6934C628.498 55.2319 620.973 48.8432 613.354 46.3605L611.543 45.8283L613.343 45.2607C618.858 43.2277 625.78 39.8364 626.092 33.6985C626.068 27.989 618.582 26.8746 613.543 26.9385L611.398 27.0355L613.186 25.8466C616.339 23.6633 619.434 21.1925 621.952 18.3199C623.177 16.878 624.348 15.2612 624.601 13.5521C624.902 11.8236 623.502 10.5293 621.748 9.87301C615.232 7.21506 607.553 8.75042 601.739 12.4661L600.864 11.638C602.196 9.37806 599.342 7.41168 596.783 6.85728C594.124 6.1674 591.341 5.99516 588.511 5.94543C576.83 5.90344 566.153 12.8535 558.148 21.0115L556.716 22.5984L557.079 20.4924C557.661 15.9064 556.315 10.7991 552.86 7.60844C549.419 4.35704 544.503 3.13869 539.752 2.84694C539.698 2.84368 539.646 2.84053 539.593 2.83751C532.491 2.81289 532.027 2.88094 526.182 5.25066C520.365 8.03947 516.296 12.9943 513.493 17.4335C513.449 17.6046 513.487 17.6068 513.443 17.7718C512.89 18.751 512.355 19.8089 511.956 20.8142L511.549 21.9118L510.863 20.9636C504.339 12.7434 496.16 3.33309 485.613 2.87538C484.365 2.92329 483.13 3.1748 481.95 3.59174C475.138 6.24925 470.898 12.3724 467.781 18.2207L467.374 19.0754L466.726 18.3873C465.359 16.9691 463.884 15.5862 462.377 14.2564C456.305 9.1855 456.879 9.47284 450.969 6.08811C447.599 4.27224 443.897 2.79613 440.147 2.87359C431.869 3.33097 426.027 11.1194 422.291 18.2047L421.894 19.0458L421.277 18.3511C414.783 11.6127 407.288 4.41216 398.036 2.80903C385.722 2.4138 375.705 12.3052 367.652 20.9202L366.836 21.8897L366.766 20.6251C366.766 20.6199 366.762 20.5623 366.759 20.5335C365.71 12.9556 359.641 5.87408 348.665 4.99915C347.407 4.913 348.623 4.96963 345.329 4.90607C345.161 4.90613 344.982 4.90843 344.788 4.91405C339.903 5.29699 337.192 5.8265 329.656 9.68698C328.378 10.3265 322.017 14.0649 316.9 18.3695L316.488 18.7188L316.125 18.3213C313.551 15.6032 310.816 13.2042 309.125 11.7733C304.474 7.76319 296.904 2.65715 290.637 1.32457C291.505 1.55678 292.595 1.90942 293.524 2.27946C291.254 1.49549 288.863 0.979851 286.488 0.985277C285.719 0.98746 285.001 1.01789 284.239 1.08166C283.774 1.06926 283.331 1.06627 282.873 1.07609C281.061 1.36695 279.281 1.84896 277.564 2.52658C275.657 3.11476 275.675 3.12167 275.141 3.35839C274.644 3.65676 273.425 4.00272 269.915 6.75078C266.493 9.60384 264.134 12.3593 261.837 16.3368C261.465 17.0043 261.189 17.5726 260.953 18.1404L260.643 18.8493L260.13 18.2716C259.625 17.7468 259.073 17.1971 258.375 16.4913C255.172 13.3431 257.109 15.1002 255.086 13.2001C253.008 11.3248 249.914 8.7141 245.69 6.07069C249.715 8.36306 240.224 2.21693 236.805 2.7267C236.355 2.71194 236.057 2.73184 235.971 2.7507C234.237 2.76044 232.77 3.02665 230.94 3.6758C231.738 3.20868 229.897 3.67227 227.657 4.96592C225.4 6.22916 222.887 8.36126 221.539 9.64976C218.859 12.2435 218.967 12.1272 218.353 12.7622C216.685 14.6398 217.926 13.3051 216.78 14.6404C215.805 15.8026 214.849 17.0239 214.02 18.2211L213.629 18.8009L213.209 18.2428C207.39 11.2276 200.573 3.80817 191.354 2.66584C190.702 2.62827 190.05 2.63957 189.396 2.69609C187.784 2.89159 189.212 2.72301 187.353 3.0717C185.508 3.49847 183.738 4.06911 181.266 5.4841C180.609 5.87256 180.428 6.03633 179.438 6.69584C174.86 9.82936 170.95 13.8744 167.674 18.2183L167.255 18.8045L166.882 18.1891C162.216 11.2876 156.218 3.40449 147.628 2.67999C139.51 2.93076 134.241 11.0455 130.799 18.1125L130.255 19.3765L129.983 18.0278C129.417 15.5899 128.435 13.1636 127.136 10.9593C125.902 9.06469 124.946 7.3751 121.338 4.92081C119.554 3.77752 116.993 2.82104 114.161 2.70238C111.176 2.53016 108.054 3.17086 105.599 4.5259C104.341 5.24536 104.038 5.50592 102.578 6.74388C98.4631 10.5027 96.1935 15.2998 94.9163 20.674L94.0894 20.6939C93.8677 19.8045 93.548 18.8516 93.1847 17.9113C90.2107 9.63664 82.351 2.28245 73.0084 2.64789C70.1929 2.64149 67.4131 3.1576 64.8664 4.23385C62.8646 5.1731 63.0765 4.8673 60.4476 6.71081C56.2022 10.3091 57.9606 9.12589 57.1574 9.89955C54.8337 12.744 54.1188 13.6932 52.5453 16.911C52.323 17.3995 52.7147 16.7399 52.5139 17.1745C51.8774 18.5681 51.4445 19.7124 51.1404 20.7037L50.3637 20.6779C49.2138 16.718 48.9808 14.87 44.8368 9.97109C42.3294 7.44616 43.2176 8.22387 44.8303 9.79575C46.449 11.3911 48.1428 14.2616 48.4228 14.8153C49.8903 17.5423 46.7051 9.86947 42.5021 7.17466C39.0783 4.86657 38.8977 5.25024 37.3763 4.6816C33.5736 3.48578 28.5817 3.78526 24.0737 5.1846C18.8178 6.78313 13.3674 9.04203 11.9359 12.6479C11.5957 13.6185 11.6657 13.9537 11.6449 13.8636C11.6439 13.7773 11.6763 13.294 11.8453 12.7801C12.1655 11.7313 13.0435 10.7042 12.4061 11.5405C11.2539 13.2974 11.3331 15.0145 12.3089 16.8871C13.199 18.925 16.79 21.5027 16.0684 21.1074ZM559.513 18.4706C558.913 19.0669 558.237 19.7516 557.575 20.4949L557.839 20.6231C558.223 17.1268 557.691 12.2056 554.363 8.28916C551.052 4.32595 545.305 2.5548 539.624 2.28535C526.729 0.94456 515.527 11.0072 512.002 19.273C511.787 19.724 511.579 20.1858 511.414 20.6135L511.383 20.6959L511.332 20.6247C502.596 8.33562 490.878 2.58002 493.564 4.42357C501.116 8.51961 506.469 14.485 511.271 20.6686L511.405 20.8534L511.484 20.6395C514.409 13.8198 519.673 7.33326 527.775 4.11514C528.947 3.52645 534.877 1.91411 539.619 2.37447C541.509 2.48478 543.075 2.72803 544.168 2.95304C546.249 3.44291 546.349 3.43819 549.005 4.56548C549.629 4.75746 552.657 6.55003 553.491 7.56284C555.787 9.36827 558.375 15.8615 557.458 20.5576L557.321 21.3537L557.862 20.7538C559.598 18.927 561.172 17.6057 561.655 17.1783C565.55 13.9227 564.026 15.1083 565.764 13.7699C571.855 9.61486 572.675 9.20949 579.551 6.79989C580.637 6.49061 583.999 5.35383 588.519 5.39537C589.191 5.40343 589.791 5.42006 590.494 5.45517C592.701 5.52554 596.44 6.10178 598.001 6.72829C599.1 7.11953 600.228 7.65507 600.994 8.57477C601.783 9.47119 601.878 10.8674 601.291 11.9036L601.45 12.0547C607.34 8.18989 615.182 6.84826 621.101 9.0381C621.401 9.14231 621.685 9.24905 621.953 9.35633C624.707 10.4755 624.979 11.9011 625.084 12.575C625.129 13.3235 625.166 13.8533 624.469 15.4059C622.845 18.6632 619.436 21.6614 617.537 23.2517C616.261 24.3005 614.803 25.3881 613.472 26.2767L613.234 26.4353L613.52 26.4223C615.835 26.3743 617.811 26.6949 618.522 26.8202C622.276 27.3771 626.745 29.5413 626.575 33.6985C626.122 40.4414 619 43.6542 613.495 45.7424L613.277 45.8113L613.496 45.8758C621.277 48.4082 628.997 54.868 628.815 63.6934C628.883 68.3427 626.728 72.8835 623.359 76.1919C626.696 72.9417 628.921 68.4091 628.872 63.6934C629.114 54.8639 621.34 48.2691 613.545 45.7089L613.547 45.9083C616.346 44.9594 619.032 43.6822 621.458 41.9906C625.03 39.2939 625.383 37.9449 625.811 37.3517C626.091 36.6692 626.637 36.4612 626.829 33.6985C626.83 33.5724 626.828 33.4434 626.821 33.3116C626.668 30.8758 625.434 29.5938 624.101 28.6698C622.707 27.758 620.952 27.0428 617.882 26.5712C617.887 26.5719 617.892 26.5727 617.897 26.5734C616.825 26.417 615.306 26.247 613.513 26.2777L613.552 26.3973C616.434 24.4391 620.146 21.69 623.003 18.1643C623.072 18.0712 623.207 17.8901 623.663 17.2116C624.013 16.5172 625.242 15.3619 625.235 12.7567C625.125 11.1243 623.62 9.91901 621.976 9.29869C615.947 6.73037 607.612 7.91159 601.396 11.9772L601.371 11.9536C602.05 10.7893 601.834 9.19698 600.874 8.27795C599.947 7.3269 598.674 6.80776 597.463 6.43227C594.989 5.7016 592.494 5.499 590.145 5.38825C589.494 5.36077 588.975 5.34616 588.519 5.33427C586.469 5.34424 586.321 5.16485 582.668 5.76274C579.453 6.37724 575.815 7.61331 571.317 10.041C565.729 13.188 563.25 15.1357 560.107 18.2046C559.784 18.4066 559.87 18.2307 559.513 18.4706ZM280.029 1.16649C279.578 1.24835 276.43 2.06804 274.038 3.35921C271.645 4.60061 269.975 5.9533 271.5 4.99872C275.801 2.08678 281.077 0.425485 286.488 0.465752C298.18 1.08636 307.922 9.50204 316.016 17.5083C312.071 13.3205 304.898 5.97807 293.613 1.69771C293.608 1.69605 293.603 1.6944 293.599 1.69274C293.059 1.52048 295.334 2.18359 292.262 1.21832C291.421 0.986317 289.182 0.37676 286.488 0.393937C284.4 0.401759 282.083 0.672216 280.029 1.16649Z" fill="#1A1918"/>
</svg>
