<svg width="1292" height="323" viewBox="0 0 1292 323" fill="none" xmlns="http://www.w3.org/2000/svg">
<path d="M43.1887 13.4361C-2.45749 40.2485 27.4621 75.1345 27.4621 75.1345C27.4621 75.1345 0.918314 90.9237 0.918314 113.529C0.918314 138.565 35.7682 149.243 35.7682 149.243C35.7682 149.243 3.54489 167.318 0.918314 189.091C-1.55906 209.627 21.8071 230.318 21.8071 230.318C21.8071 230.318 0.920237 253.922 21.8071 279.707C42.6939 305.491 88.5316 255.4 88.5316 255.4C88.5316 255.4 76.9309 299.116 130.272 308.09C172.509 315.196 177.543 268.549 177.543 268.549C177.543 268.549 197.457 308.09 220.013 308.09C256.089 308.09 269.869 268.549 269.869 268.549C269.869 268.549 295.814 308.09 331.496 308.09C368.657 308.09 388.256 268.549 388.256 268.549C388.256 268.549 416.791 308.09 452.608 308.09C488.425 308.09 506.334 276.214 506.334 276.214C506.334 276.214 515.202 308.68 567.581 315.196C630.053 322.969 658.532 279.707 658.532 279.707C658.532 279.707 668.219 320.665 709.216 320.665C757.546 320.665 780.665 279.707 780.665 279.707C780.665 279.707 819.193 320.665 845.443 320.665C875.514 320.665 882.01 279.707 882.01 279.707C882.01 279.707 915.158 332.003 946.411 320.665C966.391 313.417 984.655 279.707 984.655 279.707C984.655 279.707 1000.25 320.665 1031.43 320.665C1059.91 320.665 1087.3 276.214 1087.3 276.214C1087.3 276.214 1102.06 315.196 1130.18 315.196C1170.02 315.196 1187.07 279.707 1187.07 279.707C1187.07 279.707 1214.6 316.362 1242.87 308.09C1273.9 299.013 1262.43 253.508 1262.43 253.508C1262.43 253.508 1290.74 244.971 1290.74 217.758C1290.74 190.546 1262.43 178.433 1262.43 178.433C1262.43 178.433 1294.78 152.818 1290.74 126.596C1286.7 100.374 1262.43 99.7838 1262.43 99.7838C1262.43 99.7838 1298.73 46.7524 1276.58 29.5237C1254.43 12.2949 1233.23 46.6838 1233.23 46.6838C1233.23 46.6838 1242.33 14.3936 1207.57 13.4361C1172.81 12.4786 1141.21 46.6838 1141.21 46.6838C1141.21 46.6838 1143.15 18.256 1099.8 13.4362C1056.44 8.61638 1045.65 46.6838 1045.65 46.6838C1045.65 46.6838 1025.28 7.48263 1000.19 9.32725C977.238 11.0148 950.098 46.6838 950.098 46.6838C950.098 46.6838 926.004 -0.459781 901.434 0.92369C878.456 2.21752 856.311 46.6838 856.311 46.6838C856.311 46.6838 846.45 0.923695 814.725 0.92369C777.563 0.923684 748.366 46.6838 748.366 46.6838C748.366 46.6838 749.25 9.32725 705.859 9.32725C679.545 9.32725 642.192 46.6838 642.192 46.6838C642.192 46.6838 618.037 13.4363 589.16 13.4362C551.28 13.436 520.091 46.6838 520.091 46.6838C520.091 46.6838 503.463 9.32725 479.173 9.32725C454.013 9.32725 429.842 46.6838 429.842 46.6838C429.842 46.6838 410.622 3.40053 388.256 0.92369C362.701 -1.90649 334.285 46.6838 334.285 46.6838C334.285 46.6838 319.02 1.41729 298.008 0.92369C276.513 0.418747 258.193 46.6838 258.193 46.6838C258.193 46.6838 256.15 3.13971 228.994 0.92369C195.649 -1.79744 185.641 46.6838 185.641 46.6838C185.641 46.6838 179.493 0.923734 144.055 0.92369C108.617 0.923646 95.392 46.6838 95.392 46.6838C95.392 46.6838 88.8349 -13.3762 43.1887 13.4361Z" fill="#FFA1DA"/>
<path d="M26.6694 75.552C19.0455 65.8284 14.5617 52.6591 18.0952 40.2794C21.5985 27.8514 31.9011 18.8997 42.6868 12.5816C44.65 11.4365 46.3246 10.5454 48.3967 9.58133C54.1927 7.0644 53.6711 7.57867 56.2482 6.80395C60.8673 5.25066 69.096 5.69627 70.1989 6.25019C73.6686 7.13118 74.5703 7.82812 74.8521 7.95404C75.1188 8.12244 74.6939 7.95866 75.1212 8.16927C79.8167 10.6778 81.0177 12.2688 82.3649 13.4733C83.6203 14.7784 84.9831 15.9909 87.6366 20.2594C91.9182 27.3644 94.9562 36.6879 96.2967 46.585L94.5177 46.4311C96.2519 40.8956 98.6164 35.5455 101.333 30.5063C104.13 25.8017 102.51 27.6255 109.611 18.185C113.403 12.2597 130.146 -1.23701 144.055 0.0904905C146.312 0.0998406 148.304 0.297349 150.002 0.579052C150.065 0.634726 148.578 0.479452 147.93 0.477633C164.372 3.18312 171.964 8.29037 181.774 29.8813C183.146 33.4438 184.484 36.798 185.88 43.3558C186.136 44.618 186.315 45.6626 186.434 46.5772L184.856 46.5219C185.887 42.668 186.219 40.3577 190.347 30.3039C192.31 25.963 193.36 23.232 197.458 17.1347C202.574 9.21464 214.599 -1.51871 229.053 0.205311C246.404 1.56228 253.12 19.7838 255.467 27.7413C257.426 34.4481 258.451 40.7687 258.861 46.6525L257.572 46.4378C261.872 36.1124 266.416 27.5269 271.945 19.3861C277.628 11.7358 283.93 2.10291 296.425 0.21644C298.805 0.0909079 293.592 0.456948 297.946 0.279817C297.971 0.280306 297.997 0.280854 298.023 0.281461C302.468 0.315546 306.542 2.62774 307.404 3.1699C318.063 8.95315 328.747 30.9477 331.021 36.6333C335.256 46.7042 333.468 42.3847 335.01 46.4392L333.624 46.2974C334.478 44.8503 336.059 42.1927 339.403 37.3241C349.916 22.8748 366.938 -0.599795 388.324 0.311503C389.784 0.476841 391.181 0.803764 392.51 1.24023C413.378 11.9292 415.735 21.1846 424.764 35.5412C426.755 39.0961 428.651 42.735 430.353 46.4572L429.374 46.3805C441.545 29.5663 456.665 10.4093 479.173 8.75469C500.018 10.0099 512.129 29.7991 520.625 46.4462L519.665 46.2841C530.988 34.9621 544.316 25.5686 559.089 19.3038C558.948 19.4207 558.783 19.5487 558.611 19.6797C563.034 17.7602 567.604 16.16 572.289 14.9827C571.593 15.1931 570.926 15.4061 570.235 15.6348C576.518 13.8847 582.812 12.9306 589.16 12.8979C605.171 12.9989 619.656 22.0562 632.931 35.1941C633.295 35.5588 632.259 34.6765 632.56 34.9805C636.091 38.51 639.797 42.5791 642.637 46.3601L641.802 46.2944C642.444 45.6563 643.072 45.0547 643.698 44.4646C652.758 35.5697 670.281 23.1406 662.508 28.5454C674.674 19.7645 689.015 9.52007 705.859 8.78245C721.117 8.34331 737.26 14.9516 743.737 27.537C748.762 37.3661 748.443 41.8414 748.708 46.6919L748.078 46.4999C748.346 46.0914 748.76 45.4808 749.064 45.0414C752.436 40.2827 750.599 42.65 751.833 40.951C758.923 30.731 774.124 16.872 776.121 15.959C778.049 14.3682 780.146 12.7675 782.229 11.3162C781.175 12.0881 799.164 -0.218695 814.725 0.505814C820.028 0.473835 824.441 1.88921 826.843 2.9217C828.539 3.6611 828.732 3.86819 829.957 4.52929C842.877 13.1398 844.488 17.4734 850.675 29.0279C852.524 33.2943 849.808 26.6226 854.14 37.7264C854.372 38.6073 854.698 38.2207 856.876 46.562L855.793 46.4261C856.486 45.0454 857.323 43.4788 858.384 41.5892C866.049 29.6117 877.851 4.76089 901.4 0.321678C913.752 0.0399759 922.736 8.9753 928.998 15.4005C930.477 17.0574 925.912 12.0761 932.646 19.6744C934.963 22.521 934.082 20.9848 939.341 28.1793C943.431 33.9497 947.236 40.0542 950.599 46.4278L949.651 46.3432C962.967 30.5476 978.249 12.396 1000.15 8.80507C1007.35 8.24452 1014.26 11.1466 1019.95 15.0838C1019.4 14.7307 1016.42 12.9367 1015.55 12.5582C1014.6 12.284 1016.45 12.3816 1023.86 18.2847C1026.15 20.2446 1024.51 18.6974 1025.53 19.5908C1033.64 27.0177 1039.33 34.7879 1045.32 45.0212C1045.6 45.5219 1045.91 46.0684 1046.11 46.447L1045.16 46.5438C1045.84 44.36 1046.22 43.1472 1047.79 39.9016C1050.82 34.1376 1052.45 31.7251 1057.62 26.2176C1066.33 18.4687 1068.08 16.6388 1082.28 13.3589C1088.05 12.296 1094.02 12.2409 1099.86 12.8906C1118.51 14.3241 1141.72 25.1294 1141.77 46.7222L1140.8 46.3006C1158.62 28.5935 1181.44 12.6859 1207.59 12.8611C1215.85 13.0541 1225.07 15.2937 1230.3 22.3713C1235.48 29.4098 1235.69 38.6934 1233.77 46.8359L1232.75 46.3894C1240.59 34.9731 1252.43 21.7226 1267.92 24.6634C1271.26 25.4223 1274.3 27.0529 1276.92 29.0888C1285.57 35.7043 1285.19 47.6364 1283.05 57.0281C1280.8 66.7778 1276.69 76.123 1271.73 85.4908C1268.59 91.2191 1267.65 92.8071 1262.9 100.109L1262.44 99.2075C1263.43 99.2477 1264.52 99.3807 1265.67 99.5751C1266.96 99.7721 1272.3 100.84 1276.94 103.677C1281.67 106.381 1285.05 110.792 1285.66 111.999C1288.6 116.324 1289.7 119.52 1290.74 123.873C1290.06 120.547 1288.89 117.19 1287.31 114.324C1289.51 118.25 1290.71 122.4 1291.35 126.502C1293.22 140.123 1286.9 151.726 1279.47 161.773C1271.78 171.279 1277.25 164.53 1272.24 170.132C1268.69 173.846 1266.33 176.083 1262.82 178.936L1262.68 177.844C1264.59 178.723 1266.67 179.885 1269.15 181.518C1275.15 185.61 1279.98 188.225 1286.95 200.05C1287.72 201.256 1291.38 209.205 1291.36 216.428C1291.38 216.895 1291.38 217.336 1291.38 217.758C1291.19 221.865 1291.33 223.946 1288.83 230.898C1288.6 231.51 1286.86 235.88 1283.57 239.889C1280.38 243.958 1275.82 247.413 1273.51 248.872C1270.51 250.825 1266.54 252.875 1262.62 254.136L1263.06 253.348C1264.31 258.828 1264.66 263.746 1264.75 264.696C1266.06 287.806 1261.72 300.204 1246.2 307.419C1245.54 307.72 1244.51 308.148 1243.02 308.608C1237.54 310.725 1226.15 310.249 1217.96 306.155C1207.4 301.907 1192.72 288.167 1186.64 280.033L1187.56 279.942C1186.25 282.552 1185.05 284.401 1184.65 285.135C1174.51 298.215 1176.16 297.843 1159.59 308.478C1153.54 311.869 1142.49 315.928 1130.18 315.777C1109.19 315.742 1096.26 294.432 1092.19 287.419C1085.81 275.421 1088.33 280.117 1086.64 276.465L1087.9 276.586C1087.9 276.587 1087.89 276.608 1087.86 276.649C1087.83 276.698 1087.81 276.737 1087.8 276.755C1087.77 276.803 1087.73 276.862 1087.69 276.934C1087.58 277.111 1087.52 277.205 1087.42 277.361C1082.18 285.21 1084.93 280.97 1081.16 286.153C1070.05 300.43 1058.94 312.816 1042.43 319.363C1041.5 319.607 1040.5 319.838 1039.54 320.014C1038.67 320.278 1037.79 320.508 1036.9 320.7C1035.15 321.026 1033.29 321.219 1031.43 321.218C1029.3 321.22 1027.24 321.022 1025.41 320.704C1028.09 321.193 1030.07 321.27 1031.43 321.296C1034.6 321.245 1034.17 321.29 1031.43 321.365C1027.15 321.583 1016.75 319.788 1008.46 313.262C1000.04 307.041 993.821 297.959 990.772 292.902C988.583 289.284 986.185 284.902 984.145 279.901L985.135 279.966C978.708 291.539 969.499 304.278 961.015 311.99C958.11 314.591 960.055 312.742 959.457 313.274C954.252 317.607 951.99 319.167 946.651 321.328C944.525 322.093 941.917 322.815 938.318 322.964C931.479 323.241 924.758 320.809 919.072 317.695C903.22 308.657 891.401 294.597 881.486 280.039L882.624 279.804C879.101 298.548 867.579 321.585 845.443 321.352C836.118 321.214 827.553 317.075 819.685 312.522C812.747 308.402 807.25 304.142 801.974 299.928C794.468 293.834 789.909 289.833 783.406 283.459C782.396 282.457 781.252 281.3 780.18 280.163L781.246 280.034C776.889 287.336 769.91 294.699 766.153 298.167C761.593 302.289 769.619 295.46 761.026 302.774C756.975 305.956 764.066 300.244 759.049 304.184C747.114 313.732 727.53 321.686 709.216 321.271C703.709 321.273 698.377 320.488 693.648 319.028C694.551 319.331 695.781 319.688 696.898 319.968C676.813 315.421 663.557 299.042 657.989 279.835L658.997 280.013C657.609 282.029 655.977 283.988 654.284 285.874C648.991 292.139 637.299 301.303 630.111 304.933C623.03 308.694 619.549 309.931 613.464 311.956C610.927 312.745 611.962 312.507 610.255 312.999C593.671 317.361 582.25 317.32 567.522 315.672C563.132 315.112 558.525 314.336 553.412 313.073C533.698 308.301 513.342 296.582 505.841 276.349L506.779 276.465C495.383 294.909 474.969 308.929 452.608 308.642C425.66 308.114 403.672 288.982 387.77 268.9L388.794 268.815C380.423 284.086 367.986 297.702 351.785 304.614C348.56 305.914 346.359 306.862 341.357 307.904C333.599 309.213 333.154 308.653 332.11 308.768C331.897 308.77 331.692 308.771 331.496 308.77C325.431 308.476 327.679 309.073 318.957 307.252C301.439 303.522 280.334 285.349 269.301 268.922L270.51 268.773C269.435 271.675 268.127 274.375 266.868 276.756C257.368 295.139 239.799 309.257 220.013 308.819C198.615 306.509 186.993 286.39 176.824 268.911L178.342 268.635C177.916 271.976 177.117 275.347 176.113 278.61C175.065 281.728 175.804 279.623 173.653 284.907C163.74 307.345 146.374 311.557 130.147 308.83C119.496 306.604 103.944 304.298 92.4872 287.097C87.4544 278.919 85.1932 267.234 87.8145 255.21L89.079 255.901C80.8615 264.504 71.1002 273.267 59.5215 280.252C48.8154 286.942 30.8941 292.923 21.2735 280.139C8.32516 265.909 9.89394 242.968 21.3167 229.884L21.373 230.809C12.2548 222.199 5.06132 212.366 1.72883 202.108C1.7291 202.108 1.72937 202.107 1.72964 202.107C0.425308 198.166 -0.366859 193.658 0.172225 189.001C2.58655 172.531 17.7728 160.374 30.0839 152.046C17.0907 161.219 3.17789 172.489 0.477066 189.038C-0.843059 205.712 10.3989 219.707 21.5873 230.566L21.5588 230.099C9.7552 243.942 9.17132 266.167 21.5922 279.881C30.3415 291.661 47.0825 287.197 57.8442 280.712C69.3312 274.078 79.5147 265.233 88.7379 255.589L88.2613 255.329C85.5855 267.585 87.7595 281.522 96.1617 291.421C104.528 301.423 117.468 306.253 130.221 308.392C141.607 310.502 154.462 308.287 163.099 299.805C171.579 291.671 176.113 280.139 177.832 268.58L177.283 268.68C186.945 285.308 198.695 306.019 220.013 308.321C243.444 308.83 262.053 289.351 269.997 268.594L269.755 268.624C284.251 288.7 305.483 307.791 331.496 308.116C356.488 308.268 376.929 289.248 388.21 268.526L388.248 268.448L388.299 268.518C404.185 288.612 426.14 307.451 452.448 308.022C452.501 308.022 452.555 308.022 452.608 308.022C464.516 307.673 469.423 306.232 478.547 302.004C480.076 301.212 476.09 303.182 480.751 300.717C491.075 294.939 499.926 286.365 506.233 276.158L506.371 275.914L506.445 276.184C515.614 300.478 542.803 312.251 567.592 315.11C601.866 320.139 638.695 306.712 658.497 279.684L658.55 279.603L658.572 279.697C659.093 281.726 659.81 283.771 660.594 285.753C668.76 302.948 671.378 305.855 685.396 314.807C682.783 313.453 681.119 312.414 679.029 310.912C687.564 317.52 698.429 320.735 709.216 320.678C738.143 321.161 765.544 304.035 780.724 279.74L780.616 279.753C798.927 297.414 818.884 317.79 845.443 320.732C857.686 321.089 868.338 312.531 874.005 302.15C875.716 299.074 876.019 298.701 877.508 295.312C879.709 290.089 881.212 284.797 882.098 279.72L881.935 279.754C882.758 281.014 883.679 282.336 884.555 283.57C889.547 290.418 890.398 291.579 895.516 297.426C898.095 300.198 897.267 299.449 903.18 305.192C903.699 305.645 903.891 306.11 908.108 309.636C915.505 316.035 932.465 326.462 946.431 320.72C952.656 318.382 957.215 314.454 960.167 311.834C971.82 300.97 978.543 289.904 981.778 284.879C982.974 282.94 983.976 281.23 984.776 279.772L984.526 279.756C988.782 289.284 989.508 290.629 996.351 300.231C1004.7 311.362 1017.12 320.86 1031.43 320.699C1057.04 318.583 1073.82 295.787 1087.37 276.256L1087.23 276.242C1094.96 294.238 1108.46 314.801 1130.18 315.322C1153.83 315.831 1176.07 300.714 1187.22 279.779L1186.94 279.807C1195.93 290.956 1206.93 301.22 1220.62 306.743C1223.92 308.084 1233.56 311.119 1242.9 308.171C1249.56 306.334 1255.1 301.718 1257.79 297.693C1258.98 296.163 1262.03 290.775 1263.23 284.887C1264.57 279.046 1264.58 273.129 1264.58 271.607C1264.54 264.911 1263.74 258.699 1262.57 253.473L1262.47 253.645C1266.81 252.218 1270.34 250.289 1273.01 248.607C1284.97 241.895 1291.19 226.849 1290.78 219.618C1290.8 219.028 1290.82 218.408 1290.82 217.758C1292.25 203.923 1277.52 187.228 1273.13 184.896C1265.68 179.473 1265.05 179.59 1262.51 178.238L1262.56 178.6C1263.45 177.899 1264.62 176.927 1266.56 175.125C1268.51 173.209 1266.52 175.272 1273.14 168.313C1278.51 162.311 1280.47 159.688 1283.45 155.066C1286.59 150.502 1290.18 140.969 1290.54 137.53C1291.31 133.498 1291.32 129.863 1290.83 126.583C1288.96 115.938 1284.75 106.452 1270.4 101.182C1268.55 100.575 1265.85 99.7998 1262.43 99.5956L1262.58 99.8902C1271.94 85.4571 1295.82 45.2345 1276.65 29.4349C1271.69 25.5287 1267.13 24.8922 1265.87 24.7491C1260.76 24.2622 1258.21 25.4493 1257.42 25.624C1256.61 25.9105 1257.47 25.5671 1259.37 25.1533C1263.11 23.9671 1271.63 25.1617 1276.57 29.5369C1280.4 32.4615 1281.83 36.2625 1282.09 36.8724C1284.41 43.5558 1283.64 46.8009 1283.54 49.7371C1283.22 52.717 1282.92 55.737 1280.94 62.5093C1278.76 69.598 1271.35 86.4127 1262.38 99.7528L1262.32 99.8361L1262.43 99.8386C1273.85 100.492 1282.26 107.813 1284.58 111.667C1288.1 116.159 1289.88 121.316 1290.7 126.603C1291.53 132.052 1290.79 137.739 1288.71 143.57C1281.72 158.922 1287.58 147.528 1281.2 158.069C1278.63 162.224 1269.17 172.764 1263.45 177.38C1263.1 177.684 1262.65 178.057 1262.33 178.316L1262.14 178.472L1262.37 178.571C1267.94 181.317 1271.02 182.874 1277.74 189.016C1286.43 197.283 1290.79 207.684 1290.65 217.758C1290.62 222.401 1289.75 226.948 1287.92 231.167C1286.93 233.65 1285.71 235.867 1284.19 238.041C1278.77 245.283 1270.83 250.451 1262.37 253.335L1262.21 253.385L1262.25 253.552C1262.49 254.58 1262.72 255.724 1262.91 256.835C1262.74 255.719 1262.55 254.571 1262.33 253.533L1262.31 253.439L1262.4 253.411C1262.86 253.281 1263.33 253.129 1263.8 252.967C1263.33 253.144 1262.87 253.31 1262.41 253.456L1262.36 253.471L1262.37 253.521C1262.94 255.888 1263.37 258.358 1263.7 260.814C1264.85 270.556 1264.87 280.289 1261.49 289.84C1257.88 299.83 1252.74 303.001 1250.03 304.817C1247.06 306.567 1245.66 307.047 1242.82 307.9C1241.09 308.365 1238.88 308.916 1235.33 309.042C1220.01 308.677 1212.08 302.637 1202.86 295.631C1195.74 289.707 1191.39 284.95 1187.16 279.639L1187.05 279.491L1186.97 279.658C1184.7 284.023 1181.78 288.358 1177.33 293.393C1171.33 300.67 1157.82 309.076 1168.56 301.778C1158.89 309.652 1144.76 315.374 1130.18 315.2C1109.74 314.945 1097.08 295.795 1090.57 283.241C1087.18 276.332 1091.81 285.524 1091.24 284.297C1089.81 281.54 1088.5 278.818 1087.43 276.165L1087.33 275.902L1087.18 276.142C1085.54 278.782 1083.79 281.362 1081.73 284.158C1075.36 293.401 1060.05 309.114 1052.26 313.377C1046.71 317.011 1038.5 320.58 1031.43 320.481C1025.11 320.534 1020.4 318.76 1019.51 318.464C1008.95 314.182 1007.18 311.092 1004.38 308.866C989.87 293.942 989.242 288.545 986.347 282.794C986.005 282.092 985.468 280.967 984.912 279.609L984.699 279.048L984.413 279.575C980.659 286.986 970.784 300.819 967.434 304.034C967.487 304.078 957.455 316.685 946.402 320.642C945.308 321.042 944.259 321.348 943.246 321.584C941.137 322.015 938.97 322.181 936.844 322.098C919.048 322.774 896.29 301.489 882.057 279.677L881.979 279.555L881.956 279.698C879.813 290.807 875.386 301.219 869.375 308.582C868.839 309.158 868.2 310.512 864.591 313.631C864.343 313.802 864.748 313.536 862.165 315.401C859.394 317.402 853.12 320.655 845.443 320.518C829.716 320.097 813.996 307.531 811.537 306.081C797.828 296.049 795.762 293.81 788.112 286.845C784.944 283.852 782.621 281.515 780.795 279.584L780.629 279.408L780.51 279.619C777.517 284.389 775.284 287.492 769.329 293.899C765.116 298.216 761.165 302.206 753.201 307.472C748.409 310.48 747.859 310.612 743.846 312.611C731.512 318.404 720.811 320.362 709.216 320.382C707.242 320.37 705.348 320.267 703.334 320.044C699.658 320.008 692.928 318.566 686.718 315.411C673.513 309.063 663.024 294.783 658.813 279.64L658.659 278.988L658.29 279.548C649.509 291.644 637.425 300.336 626.873 305.624C608.192 315.049 587.313 317.389 567.624 314.847C542.64 311.91 515.912 300.182 506.802 276.086L506.49 274.945L505.911 275.977C494.741 293.903 474.844 307.808 452.608 307.521C447.544 307.519 442.469 306.702 437.557 305.234C426.256 301.371 423.562 299.927 413.24 292.719C408.72 289.322 404.213 285.498 397.788 278.836C395.032 275.946 391.714 272.268 388.687 268.238L388.172 267.525L387.781 268.313C385.77 272.204 383.176 276.14 380.578 279.597C379.056 281.58 378.882 281.683 376.516 284.458C365.177 297.706 349.124 307.684 331.496 307.539C321.586 307.581 311.826 304.392 303.102 299.36C294.177 294.131 289.653 289.456 290.79 290.853C287.786 288.278 285.012 285.606 282.464 282.911C277.842 278.24 273.895 273.579 270.268 268.287L269.737 267.477L269.418 268.392C266.717 275.288 262.772 282.652 256.024 290.429C254.923 292.158 244.211 302.383 236.13 304.712C235.616 305 236.835 304.61 236.639 304.767C232.083 306.65 225.64 307.925 220.013 307.833C216.349 307.819 213.202 306.718 211.22 305.866C206.208 303.639 203.341 301.254 202.033 300.248C197.25 296.158 198.552 296.905 198.176 296.606C182.654 279.61 182.399 275.816 177.815 268.412L177.351 267.491L177.24 268.516C176.97 270.875 176.472 273.677 175.443 277.379C174.862 279.453 172.276 287.943 166.794 294.96C161.526 302.223 152.986 306.218 150.103 307.027C149.813 307.052 151.409 306.459 151.82 306.216C145.029 308.805 137.553 308.974 130.332 307.735C128.5 307.423 126.8 307.082 125.066 306.68C126.706 307.121 128.611 307.558 130.303 307.902C130.524 307.947 130.738 307.99 130.944 308.03C130.73 307.996 130.515 307.96 130.3 307.923C112.414 305.006 97.3071 296.781 91.1383 282.75C87.9611 274.67 88.8167 275.484 87.9486 270.494C87.8464 269.502 87.8766 271.219 87.6351 268.246C87.3415 263.476 87.7045 259.226 88.585 255.415L88.4909 255.363C77.3181 266.58 69.4549 274.427 52.117 283.188C43.3393 286.993 31.2291 290.897 21.8521 279.67C20.9473 278.541 20.1304 277.436 19.2783 276.154C18.0834 275.279 10.648 260.393 12.9312 250.274C13.4643 247.174 14.2938 244.528 15.1667 242.362C17.5174 235.991 19.8796 232.772 21.8419 230.349L21.8726 230.314L21.8379 230.284C17.6802 225.904 13.9469 223.892 5.28465 208.401C3.49761 204.656 0.249458 197.65 1.20265 189.125C4.01354 169.874 26.6203 155.046 35.8762 149.435L36.3261 149.183L35.8328 149.032C35.3079 148.868 34.8755 148.719 34.3787 148.543C25.9543 145.315 26.1936 145.129 24.7081 144.467C16.3224 139.731 16.2507 139.631 9.77889 133.545C5.01966 128.787 0.776132 121.216 0.906589 113.529C0.89367 111.135 1.19252 108.81 1.70317 106.664C3.84511 99.9921 1.64249 105.001 6.41321 95.8249C7.64564 94.0656 3.80481 98.8862 10.3678 90.1092C11.0666 88.3987 24.1931 76.6956 27.5574 75.2947C19.2868 79.2954 0.336675 99.9636 1.45688 110.968C1.38375 111.821 1.34827 112.661 1.35108 113.529C1.23521 130.508 18.6044 142.786 35.9403 148.681L37.2529 149.084L36.0555 149.755C22.043 158.63 5.09522 170.408 1.61538 189.175C0.218474 204.536 10.9048 218.754 22.3235 229.735L22.9065 230.252L22.3904 230.835C11.2322 243.926 10.0718 265.461 22.4647 279.174C30.552 290.154 46.3462 286.25 57.1205 279.794C68.4718 273.263 78.6962 264.381 87.8544 254.781L89.4188 255.636C86.8216 267.583 89.0407 281.308 97.2523 290.795C105.417 300.418 118.027 305.068 130.432 307.14C154.473 313.352 174.495 290.845 176.561 268.443L176.92 265.116L178.425 268.105C188.037 284.948 200.377 305.226 220.013 307.092C243.538 307.566 261.351 287.851 268.925 268.22L269.593 266.306L270.704 268.001C285.715 289.034 307.533 307.027 331.496 307.103C354.668 307.204 372.551 290.998 383.18 275.143C384.801 272.72 386.235 270.373 387.404 268.126L388.105 266.712L389.028 267.992C396.59 277.889 403.407 284.417 410.521 290.177C419.407 296.846 411.83 291.31 420.197 296.886C428.761 302.089 435.628 305.083 444.848 306.674C447.416 307.081 450.001 307.295 452.608 307.298C474.325 307.64 494.453 293.97 505.691 275.853L506.572 274.287L507.045 276.02C516.142 300.087 543.147 311.697 567.665 314.519C581.691 316.285 595.961 315.633 609.515 311.88C625.228 307.405 636.842 300.475 647.814 290.544C652.028 286.544 652.205 286.453 654.895 283.387C656.018 282.055 657.065 280.741 658.009 279.362L658.807 278.15L659.141 279.562C665.2 302.398 685.71 320.994 709.216 319.952C727.142 320.039 745.003 313.748 759.472 302.186C767.313 295.955 774.644 288.172 780.076 279.374L780.529 278.572L781.159 279.242C787.039 285.393 793.396 291.267 799.676 296.516C811.2 306.05 824.226 315.181 837.166 318.783C840.596 319.702 843.316 320 845.443 320.027C847.711 320.05 849.333 319.867 850.624 319.651C855.089 318.806 856.385 317.944 857.218 317.6C858.031 317.184 858.383 317.048 860.368 315.87C870.868 308.6 874.022 302.117 878.418 290.979C879.905 286.442 879.782 287.036 881.243 280.284C881.282 280.072 881.334 279.782 881.363 279.604L881.635 277.889L882.564 279.355C886.963 285.834 885.293 283.531 888.937 288.39C889.166 288.678 888.477 287.708 890.528 290.295C902.985 305.924 925.464 327.63 946.164 319.987C946.568 319.84 946.97 319.684 947.368 319.517C964.07 311.436 974.881 294.82 984.077 279.394L984.76 278.135L985.268 279.473C993.648 299.291 1009.36 320.041 1031.43 320.113C1032.73 320.114 1034.04 320.02 1035.32 319.841C1045.05 317.792 1042.33 317.8 1045.29 316.748C1058.81 309.684 1062.87 305.426 1073.64 293.543C1075.29 291.639 1081.52 284.019 1086.71 275.85L1087.45 274.646L1087.95 275.968C1088.15 276.493 1088.36 276.999 1088.6 277.573C1090.76 282.648 1093.79 288.241 1096.42 292.175C1099.09 296.071 1099.59 296.667 1103.34 300.916C1106.86 304.683 1108.33 305.795 1110.18 307.281C1112.1 308.622 1114.31 310.818 1121.25 313.206C1123.01 313.758 1126.16 314.576 1130.18 314.558C1139.01 314.737 1151.65 311.86 1160.63 306.367C1170.61 300.573 1180.17 291.166 1186.48 279.421L1186.95 278.442L1187.6 279.31C1197.25 291.297 1209.96 303.068 1225.26 307.454C1230.22 308.798 1236.32 309.359 1242.69 307.455C1248.73 305.726 1254.84 301.678 1258.57 295.063C1264.28 285.767 1265.18 268.684 1261.74 253.68L1261.58 253.027L1262.22 252.833C1273.27 249.091 1282.39 241.104 1286.19 233.631C1290.41 224.624 1289.47 223.526 1289.89 222.424C1290.2 219.993 1290.17 218.648 1290.17 217.758C1290.09 215.906 1290.14 216.216 1289.75 212.775C1288.82 205.796 1285.98 199.65 1282.06 194.575C1279.51 191.369 1278.88 191.071 1278.28 190.411C1273.53 185.626 1268 181.761 1262.17 179.039L1261.15 178.603L1262.02 177.917C1277.02 164.74 1292.33 147.7 1290.07 126.699C1289.38 122.197 1287.97 117.789 1285.52 113.858C1280.69 105.918 1271.54 101.114 1262.41 100.473L1261.14 100.441L1261.86 99.3945C1268.84 88.7622 1275.01 77.3378 1279.27 65.2942C1283.17 53.7896 1286.53 38.3629 1276.14 30.0928C1261.14 17.3457 1242.5 33.3614 1233.86 47.0747L1232.51 46.4818C1234.35 38.7038 1234.09 29.68 1229.24 23.1674C1224.39 16.5879 1215.64 14.3842 1207.55 14.2027C1182.09 13.9989 1159.36 29.747 1141.8 47.2245L1140.26 48.8848L1140.42 46.6296C1140.4 26.3436 1118.18 15.6501 1099.71 14.2456C1076.85 10.4763 1053.19 24.9439 1046.45 46.909L1045.88 48.9114L1044.92 47.0646C1035.04 30.2171 1021.11 9.9816 1000.25 10.1498C981.19 12.9652 966.85 28.7156 954.3 42.8004C952.901 44.4545 951.704 45.9226 950.737 47.1696L949.964 48.1845L949.384 47.0489C944.876 38.7714 943.902 36.8905 937.542 27.847C929.926 17.4324 921.016 8.17937 911.526 3.62448C911.192 3.54814 911.205 3.6023 910.874 3.52732C907.886 2.28275 904.675 1.57073 901.481 1.74955C879.565 5.90599 867.435 28.8931 857.085 47.0693L855.984 49.2775L855.465 46.866C855.227 45.8065 854.907 44.6087 854.587 43.4874C849.085 25.4415 839.941 8.02379 822.7 2.83996C819.425 1.95183 816.867 1.78469 814.725 1.76677C807.141 2.09223 805.46 2.02177 795.534 5.80198C776.22 13.985 760.937 29.9508 749.063 47.1281L747.47 49.6234L747.541 46.6643C748.086 24.9548 727.043 8.48308 705.859 10.1079C680.882 12.3333 660.647 30.8062 642.67 47.162L642.109 47.7219L641.645 47.0813C641.001 46.2055 640.234 45.2377 639.522 44.364C629.059 32.8584 618.084 20.3116 596.807 14.926C594.17 14.5582 597.012 14.6156 589.16 14.2309C589.147 14.2308 589.134 14.2308 589.12 14.2308C579.18 14.6144 573.636 14.7241 557.938 21.1642C553.977 22.1557 530.286 36.3812 520.639 47.1977L519.864 48.0227L519.405 46.9892C518.757 45.5636 518.08 44.2293 517.508 43.1247C511.972 32.2725 501.125 17.0069 489.166 12.023C490.798 12.7753 492.779 13.9137 494.412 15.0686C489.877 12.0634 484.592 10.0328 479.173 10.0632C478.331 10.0644 477.489 10.109 476.651 10.1934C475.745 10.2151 474.824 10.287 473.951 10.3907C470.37 11.1651 466.944 12.5891 463.701 14.385C456.776 18.3457 463.087 13.1417 449.37 24.6609C442.815 30.8329 438.093 36.2278 432.639 43.7107C431.784 44.9051 431.028 46.0304 430.395 47.0412L429.734 48.0618L429.241 46.9508C428.583 45.5739 427.895 44.2261 426.979 42.4251C422.759 34.4354 425.355 39.0311 422.63 34.174C419.79 29.3495 415.503 22.4684 408.95 14.9166C412.418 18.823 409.47 14.8204 404.8 10.4063C400.229 5.79514 393.018 2.48707 392.276 2.57811C390.872 2.10813 389.538 1.80715 388.176 1.65362C386.29 1.4463 384.339 1.50373 382.136 1.91804C383.899 1.40819 380.05 1.62807 375.377 3.84315C370.645 5.9813 365.46 10.081 362.686 12.5768C357.18 17.6107 357.436 17.4622 356.191 18.6871C352.744 22.3784 355.294 19.7216 352.919 22.3486C346.047 30.1461 340.045 38.4584 334.835 47.0053L334.128 48.2129L333.682 46.8873C329.409 35.074 324.112 23.4625 316.255 13.3135C314.159 10.7698 315.999 13.0234 313.45 10.1538C310.798 7.41726 308.178 4.55381 302.957 2.46819C301.543 1.99662 301.073 1.85224 298.785 1.60646C298.522 1.58553 298.258 1.57185 297.993 1.56561C276.594 4.95357 267.266 28.9971 258.765 46.91L257.579 46.7126C255.96 28.6814 250.088 3.81979 228.947 1.49924C220.249 0.641429 211.451 4.06726 205.071 10.2491C201.81 13.4713 199.337 16.2132 194.936 23.9824C191.745 29.7298 188.184 38.2958 186.216 46.8025L185.058 46.762C184.617 43.7622 183.894 40.71 183.096 37.9112C182.254 35.0815 181.943 34.3574 180.545 30.7031C175.635 18.596 168.592 7.98919 155.522 3.30409C151.876 2.05585 147.984 1.46817 144.055 1.47123C123.585 1.02419 107.926 18.8337 99.9791 36.388C98.1385 40.5285 98.2391 39.7492 96.0636 45.8938C96.0042 46.0749 95.9685 46.1845 95.9135 46.3582C95.8535 46.5484 95.8159 46.6698 95.7785 46.7955L94.992 46.7275C93.433 36.9407 93.7905 40.7812 93.364 38.6603C91.4088 31.5106 90.8259 29.1887 87.5529 22.8351C87.0207 21.8771 87.6826 23.2956 87.2083 22.4364C83.449 15.854 80.4009 13.0766 77.0929 10.7414C73.7311 8.60977 69.6389 6.37703 61.5784 7.15429C58.0444 7.5476 56.9134 7.97636 57.1605 7.85323C57.4 7.77336 59.0924 7.30382 61.307 7.03043C65.7746 6.20572 72.368 7.8652 73.4146 8.48058C76.1651 9.73922 74.1176 8.19323 69.807 7.05265C65.4987 5.83932 58.8865 6.46543 54.4022 7.99184C46.7068 10.7073 46.9787 11.199 44.0804 12.6878C43.7544 12.8727 43.423 13.0639 43.0863 13.2617C35.6482 17.6225 27.0598 24.1002 22.0626 32.8867C16.8877 41.5505 17.0311 51.7265 18.6585 57.8576C19.6854 61.6997 19.2363 60.1707 18.6767 58.1601C18.1293 56.1308 17.7555 53.5931 18.0645 55.6091C18.7972 59.5802 19.7059 62.0627 21.3195 65.8752C22.7684 69.7783 27.6862 76.7916 26.6694 75.552ZM1006.14 9.3507C1004.36 9.07249 1002.36 8.94255 1000.18 9.12807C984.308 10.5367 965.279 27.7779 950.162 46.7326L950.085 46.8345L950.026 46.7205C939.036 26.7502 924.251 6.14625 907.356 1.55393C905.409 1.08321 903.402 0.872138 901.437 0.98005C886.922 2.73097 878.337 14.5582 872.92 20.7187C867.592 27.4337 865.439 31.1448 867.284 28.7502C876.454 16.064 886.442 2.93886 901.443 1.08779C918.075 1.27936 929.732 16.1167 940.211 30.6879C941.442 32.4574 946.181 39.5575 949.935 46.7674L950.067 47.0274L950.244 46.795C953.788 42.2546 957.545 38.1181 959.72 35.7986C962.706 32.6672 962.812 32.6083 967.052 28.5533C967.953 27.646 973.174 22.8851 975.253 21.3376C979.616 17.864 990.629 10.1224 1000.21 9.63647C1005.47 9.27847 1009.5 10.8168 1010.7 11.2251C1019.94 15.3136 1016.37 13.8332 1020.1 16.1115C1031.63 25.3035 1032.32 27.1707 1040.79 39.0317C1041.57 40.2391 1043.4 42.9067 1045.53 46.7508L1045.69 47.0757L1045.79 46.7234C1046.84 43.2678 1048.74 39.088 1051.42 34.9658C1053.72 31.1847 1058.88 25.6808 1061.58 23.6351C1071.68 14.9826 1086.65 11.8517 1099.79 13.5123C1105.01 14.0811 1110.03 15.056 1114.61 16.4996C1127.53 21.386 1123.93 20.47 1129.89 24.5556C1135.74 29.0022 1140.06 37.1177 1140.73 42.0822C1141 43.55 1141.19 45.139 1141.12 46.6778L1141.11 46.9256L1141.28 46.7432C1145.91 41.888 1151.24 37.5706 1152.8 36.3103C1168.96 23.3165 1187.67 13.1621 1207.57 13.5301C1215.77 13.71 1224.74 15.9254 1229.79 22.7375C1234.81 29.5001 1235.09 38.6469 1233.2 46.6763L1233.25 46.6982C1238.51 38.7903 1245.2 31.1915 1254.13 26.9009C1245.3 31.1035 1238.53 38.6616 1233.18 46.6563L1233.28 46.698C1235.18 38.6855 1234.97 29.489 1229.91 22.6368C1224.82 15.7345 1215.76 13.5005 1207.57 13.2959C1201.92 13.1286 1196.28 13.8955 1190.83 15.3239C1173.69 21.1337 1182.13 18.0884 1171.4 23.2472C1163.22 27.936 1161.32 29.3055 1151.63 37.0129C1151.64 37.0066 1151.65 37.0002 1151.66 36.9938C1149.22 39.0155 1145.27 42.3127 1141.12 46.6026L1141.33 46.6919C1141.48 40.6967 1139.02 33.8497 1134.58 28.6607C1134.13 28.5043 1133.96 26.6767 1125.43 21.1476C1118.66 17.0772 1109.59 14.4926 1099.8 13.4375C1080.9 10.3224 1059.34 20.4268 1050.98 35.5165C1047.58 41.3351 1047.68 40.8536 1045.55 46.6534L1045.75 46.6324C1045.42 46.0003 1045 45.226 1044.54 44.4248C1041.24 38.7889 1037.06 32.4191 1030.19 24.8432C1021.38 15.6313 1015.88 11.8473 1007.29 9.86352C1006.6 9.62024 1006.98 9.59826 1006.14 9.3507ZM468.396 11.3895C467.529 11.6236 461.527 14.2082 457.166 17.3702C452.757 20.4444 449.645 23.3571 452.458 21.1365C459.912 15.0819 468.937 9.44344 479.173 9.36495C499.194 10.4324 511.634 30.0703 520.015 46.7174L520.066 46.8312L520.151 46.7404C523.287 43.5171 526.698 40.5261 530.23 37.6729C527.249 39.9668 523.703 42.9011 520.034 46.6301L520.162 46.6519C515.355 36.7892 508.113 23.6378 494.659 14.3071C494.65 14.3015 494.641 14.296 494.633 14.2904C493.666 13.7031 497.752 16.0878 492.24 12.7779C490.551 11.8639 485.455 9.226 479.173 9.28027C475.543 9.279 471.721 10.1411 468.396 11.3895Z" fill="#1A1918"/>
</svg>
