<svg width="363" height="446" viewBox="0 0 363 446" fill="none" xmlns="http://www.w3.org/2000/svg">
<path d="M15.3787 50.8566C15.3787 50.8566 0.48604 38.262 12.8075 20.2983C25.129 2.33454 36.7574 27.4837 36.7574 27.4837C36.7574 27.4837 32.5161 5.99404 55.9181 1.13684C79.3202 -3.72036 81.1125 20.2983 81.1125 20.2983C81.1125 20.2983 86.6613 8.37793 92.3773 6.76706C109.612 1.90986 111.946 20.2983 111.946 20.2983C111.946 20.2983 120.564 1.13684 130.648 1.13684C148.772 1.13684 153.56 20.2983 153.56 20.2983C153.56 20.2983 163.875 4.07104 183.341 4.07104C202.808 4.07104 213.219 23.0492 213.219 23.0492C213.219 23.0492 217.245 6.76706 225.525 6.76706C238.62 6.76706 243.35 20.2983 243.35 20.2983C243.35 20.2983 257.179 4.07104 267.247 4.07104C285.371 4.07104 293.265 27.4837 293.265 27.4837C293.265 27.4837 296.435 3.53789 308.138 6.76706C319.84 9.99623 319.06 27.4837 319.06 27.4837C319.06 27.4837 324.548 8.8784 333.93 9.51992C343.312 10.1614 341.095 27.4837 341.095 27.4837C341.095 27.4837 349.458 8.01072 354.164 27.4837C358.871 46.9566 348.52 68.5237 348.52 68.5237C348.52 68.5237 357.409 70.6788 357.409 88.3983C357.409 106.118 346.414 114.099 346.414 114.099C346.414 114.099 362.113 119.973 362.113 143.369C362.113 166.765 348.52 171.516 348.52 171.516C348.52 171.516 363.465 182.776 362.113 200.628C360.761 218.48 348.52 226.505 348.52 226.505C348.52 226.505 362.113 228.936 362.113 250.179C362.113 271.422 348.52 275.505 348.52 275.505C348.52 275.505 362.113 279.949 362.113 304.135C362.113 314.45 342.958 324.046 342.958 324.046C342.958 324.046 357.376 328.359 357.409 349.281C357.443 370.203 346.414 370.203 346.414 370.203C346.414 370.203 355.108 384.764 350.443 392.104C346.756 397.906 334.495 399.555 334.495 399.555C334.495 399.555 343.563 420.867 331.51 436.124C320.85 449.617 309.796 425.628 309.796 425.628C309.796 425.628 298.293 441.812 284.525 441.812C266.938 441.812 255.156 425.628 255.156 425.628C255.156 425.628 245.253 444.691 223.486 444.691C210.178 444.691 200.092 425.628 200.092 425.628C200.092 425.628 195.565 444.691 182.519 444.691C171.452 444.691 167.124 425.628 167.124 425.628C167.124 425.628 160.124 441.027 148.195 441.027C136.265 441.027 126.041 423.288 126.041 423.288C126.041 423.288 118.967 441.027 99.9075 441.027C90.2757 441.027 74.4949 425.628 74.4949 425.628C74.4949 425.628 67.313 441.027 53.5018 441.027C42.729 441.027 36.7574 425.628 36.7574 425.628C36.7574 425.628 14.6121 432.074 5.37688 423.288C-8.25677 410.317 12.8075 392.104 12.8075 392.104C12.8075 392.104 0.318558 384.787 0.318359 361.734C0.318161 338.68 15.8563 336.327 15.8563 336.327C15.8563 336.327 0.318359 312.215 0.318359 298.678C0.318359 285.142 12.8075 278.374 12.8075 278.374C12.8075 278.374 3.82147 263.397 3.82147 253.937C3.82147 241.436 12.8075 240.556 12.8075 235.354C12.8075 228.291 3.82147 223.33 3.82147 212.922C3.82147 202.515 14.3485 204.374 15.3787 195.164L14.14 192.19C11.4515 188.874 5.37688 184.305 5.37688 171.146C5.37688 156.096 15.8563 153.276 15.8563 153.276C15.8563 153.276 3.82147 138.63 3.82147 125.491C3.82147 107.177 15.3787 95.6732 15.3787 95.6732C15.3787 95.6732 6.51586 93.0786 6.51586 76.3047C6.51586 61.1598 15.3787 50.8566 15.3787 50.8566Z" fill="#FFA1DA"/>
<path d="M15.8029 195.31C15.1959 203.975 3.17778 204.547 4.31905 212.922C4.22898 217.889 6.80047 222.376 9.67803 226.563C11.2637 228.991 11.0611 228.808 11.6483 229.859C12.5108 231.339 13.352 233.936 13.2718 235.354C13.2748 235.789 13.2217 236.093 13.1987 236.221C12.7777 237.954 12.2399 238.26 12.1884 238.39C12.0866 238.5 12.1982 238.315 12.0635 238.497C8.84586 242.174 9.51257 240.879 6.85312 244.469C5.16543 246.927 4.25108 250.323 4.27884 253.937C4.30159 257.293 5.30407 260.775 6.45874 264.012C7.35508 266.345 6.79807 265.367 9.02488 270.297C9.76885 271.889 11.2917 274.979 13.1675 278.158L13.3933 278.533L13.0076 278.743C9.28723 280.898 5.95666 284.459 4.37151 286.859C4.33144 286.87 4.68828 286.296 4.83753 286.051C1.83945 290.573 0.882721 293.59 0.724191 298.678C0.723693 300.76 1.08729 303.27 1.92169 306.341C2.3856 308.013 2.90646 309.576 3.98704 312.44C5.11833 315.285 5.02835 315.469 7.6924 321.035C8.66314 322.999 9.29328 324.158 10.9027 327.122C12.2737 329.627 14.0955 332.837 16.1699 336.125L16.4823 336.609L15.9122 336.695C6.5739 338.429 1.66407 349.518 1.19601 354.713C0.78116 357.191 0.648688 359.52 0.649752 361.734C0.920974 372.794 2.63615 381.208 10.3256 389.587C11.0719 390.316 9.38732 388.752 10.7668 390.085C11.5011 390.769 12.3192 391.403 12.9878 391.796L13.4176 392.048L13.0408 392.374C12.5209 392.854 12.0819 393.305 11.9296 393.453C7.96967 396.849 1.91741 406.082 1.67847 409.053C0.91536 412.421 1.2155 412.48 1.1562 412.828C1.31153 413.142 0.596469 414.008 2.29988 418.418C3.03424 420.036 4.18428 421.609 5.64843 423.003C11.8519 428.705 22.5802 427.885 29.6146 426.842C32.4376 426.394 34.7231 425.876 36.6703 425.329L36.9444 425.249L37.0479 425.515C39.3093 430.484 41.0881 433.557 45.3087 437.485C47.612 439.418 50.4858 440.769 53.5018 440.747C62.7718 440.808 70.1967 433.365 74.2352 425.507L74.4057 425.141L74.695 425.423C82.0358 431.961 89.9782 439.544 99.9075 440.734C105.797 440.774 111.648 438.85 116.281 435.248C116.235 435.317 116.179 435.393 116.119 435.472C117.87 434.133 119.471 432.58 120.893 430.886C120.686 431.159 120.498 431.402 120.287 431.665C122.582 429.082 124.464 426.23 125.784 423.186L125.995 422.656L126.28 423.15C129.857 428.757 134.063 434.543 141.011 438.672C141.218 438.787 140.648 438.532 140.819 438.628C143.061 439.934 145.879 440.784 148.195 440.751C148.316 440.752 148.436 440.75 148.553 440.748C154.745 441.17 162.021 433.444 158.68 436.444C162.007 433.588 164.817 429.722 166.881 425.517L167.209 424.794L167.385 425.569C169.571 433.664 173.916 444.119 182.519 444.418C183.39 444.419 184.228 444.335 185.045 444.169C190.379 442.714 191.429 440.895 193.261 439.061C194.946 436.988 194.023 437.995 194.589 437.236C196.856 434.12 199.024 428.932 199.873 425.576L200.011 424.992L200.292 425.522C201.068 426.966 201.74 428.024 201.878 428.297C202.527 429.252 203.239 430.238 203.95 431.16C203.735 430.895 206.099 434.459 209.664 437.85C213.141 441.355 218.249 443.863 220.541 444.167C221.363 444.331 221.472 444.379 222.104 444.449C222.587 444.497 223.045 444.517 223.486 444.517C229.449 444.319 231.392 443.849 236.662 441.842C238.585 440.947 235.695 442.533 240.531 439.977C240.893 439.653 240.895 440.105 246.03 436.048C248.825 433.694 252.301 430.072 254.892 425.49L255.113 425.063L255.397 425.452C261.292 433.162 271.137 439.699 279.114 441.01C280.118 441.166 277.039 440.808 281.65 441.435C282.955 441.542 282.758 441.52 284.525 441.533C285.03 441.528 285.691 441.509 286.592 441.405C295.918 440.14 303.745 433.02 309.582 425.476L309.844 425.107L310.034 425.518C313.066 431.356 316.868 438.083 323.315 439.844C323.02 439.857 321.535 439.388 321.157 439.179C320.961 439.087 321.02 439.143 321.621 439.412C322.22 439.634 323.426 440.261 325.545 439.967C326.859 439.684 325.865 439.855 326.453 439.696C328.464 439.052 330.039 437.564 331.312 435.967C332.986 433.851 334.394 431.471 335.473 428.599C336.015 427.083 336.112 426.697 336.58 424.752C337.183 421.864 337.415 420.565 337.479 417.121C337.316 411.752 337.252 410.903 335.795 404.378C335.368 402.801 334.848 401.151 334.243 399.662L334.102 399.332L334.459 399.283C340.185 398.243 346.683 396.749 350.208 391.955C353.715 384.987 349.592 376.861 346.169 370.349L345.911 369.918L346.414 369.917C355.421 368.493 357.148 357.308 357.122 349.281C357.357 339.176 352.703 327.981 342.879 324.308L342.217 324.11L342.835 323.801C345.999 322.156 349.058 320.237 351.919 318.098C356.579 314.437 361.546 310.072 361.802 304.135C361.782 299.415 361.301 294.626 359.768 289.861C358.617 286.757 358.67 285.956 355.627 281.615C355.167 280.781 351.115 276.635 348.429 275.782L347.545 275.493L348.436 275.226C349.045 275.037 349.548 274.809 349.772 274.732C351.861 273.65 353.044 272.702 354.502 271.289C353.39 272.363 352.123 273.323 350.854 274.051C358.207 269.48 360.792 261.956 361.54 254.563C361.879 249.392 361.722 252.411 361.786 250.179C361.786 249.988 361.785 249.761 361.781 249.491C361.658 246.055 361.603 244.49 360.63 240.308C359.507 237.191 359.146 234.674 354.781 230.282C354.358 229.851 351.475 227.469 348.463 226.823L347.662 226.68L348.343 226.234C348.388 226.204 348.422 226.18 348.481 226.139C348.521 226.111 348.568 226.078 348.623 226.038C350.436 224.627 351.04 224.253 353.479 221.478C354.026 221.137 358.33 214.608 359.049 212.193C360.658 208.664 361.716 202.574 361.716 201.823C361.759 201.413 361.796 201.008 361.827 200.606C362.155 190.634 359.88 186.547 356.142 180.251C355.347 179.114 352.109 174.752 348.321 171.779L347.829 171.408L348.411 171.204C348.873 171.029 349.365 170.778 349.814 170.524C356.334 167.793 361.183 154.725 360.905 152.93C361.853 147.837 361.756 146.518 361.815 143.369C361.802 141.874 361.779 140.037 361.409 137.191C361.189 131.231 355.43 117.805 346.32 114.349L345.855 114.175L346.257 113.883C348.832 111.834 350.526 109.479 351.498 108.044C354.907 102.33 353.128 105.059 354.275 102.691C355.805 98.6631 355.059 100.865 355.896 98.0359C356.747 94.7567 357.085 91.5589 357.084 88.3983C357.053 83.7694 356.554 79.1759 354.5 74.9194C354.352 74.5271 354.165 74.093 353.98 73.702C353.754 73.3465 353.527 73.0189 353.279 72.6905C352.312 71.2967 350.903 69.9559 349.526 69.2407C352.13 70.8444 352.499 71.905 352.249 71.509C351.955 71.2384 350.713 69.6481 348.44 68.8533L348.033 68.7549L348.214 68.3769C350.78 63.072 353.442 53.8039 354.085 49.5967C355.206 43.8695 355.672 34.4833 353.828 27.5649C353.565 26.4936 353.3 25.5655 353.003 24.679C352.411 23.0011 352.856 24.1403 352.732 23.7963C351.961 21.8165 351.334 20.7351 350.344 19.8473C349.411 18.9379 347.583 18.7711 345.629 20.9079C343.841 22.8143 342.457 25.2468 341.371 27.6024L340.796 27.4455C340.84 27.1026 340.876 26.7141 340.906 26.339C341.149 22.9744 341.075 19.5301 340.244 16.3008C339.493 13.1263 337.304 9.90901 333.909 9.82516C325.403 10.3618 322.002 20.3481 319.381 27.5785L318.725 27.4687C318.724 21.0548 317.486 13.8346 312.489 9.43445C311.121 8.28063 309.598 7.51622 308.053 7.07477C306.496 6.61795 304.892 6.6667 303.495 7.25647C299.598 9.20923 298.356 12.1662 296.692 15.8775C295.232 19.3374 293.957 24.5263 293.546 27.5208L292.997 27.574C292.906 27.3079 292.789 26.9976 292.701 26.7717C291.618 24.1638 293.459 28.6229 291.403 23.8856C290.387 21.7427 292.239 25.5001 290.972 22.8613C287.308 14.6946 277.604 3.81006 267.312 4.3514C267.746 4.3657 268.329 4.39859 268.839 4.45299C268.314 4.4116 267.784 4.3904 267.247 4.38997C257.611 5.51748 250.951 12.7516 244.035 19.9361C243.898 20.0894 243.703 20.3102 243.56 20.4775L243.248 20.8441L243.089 20.3895C241.843 16.7948 237.977 11.7765 235.041 9.99651C231.987 8.02867 230.317 7.53481 227.44 7.13738C226.237 7.02905 226.713 7.11037 225.907 7.07864C225.78 7.07589 225.653 7.07445 225.525 7.0743C221.344 7.24348 219.095 10.6603 217.406 13.3712C215.734 16.2588 214.476 19.3518 213.448 23.1058L213.303 23.692L213.013 23.1626C212.337 21.9777 211.499 20.7397 210.54 19.4625C204.199 10.9731 194.336 4.19662 183.341 4.32895C171.615 4.19941 160.463 10.9315 153.798 20.4494L153.446 21.0033L153.287 20.3666C150.501 10.2886 141.619 0.995834 130.648 1.43983C124.092 1.83327 119.734 7.96133 116.247 13.1609C115.396 14.5078 114.876 15.4507 113.776 17.4934C112.911 19.1239 112.509 19.9708 112.277 20.4472L111.748 21.6231L111.586 20.344C111.528 19.8795 111.494 19.6767 111.454 19.4677C110.692 16.4785 111.157 17.6181 109.46 13.8461C108.221 11.4097 106.107 8.68149 102.927 7.31871C99.7529 5.91004 95.9195 6.11795 92.472 7.10328C88.19 8.704 85.727 13.0571 83.8184 16.0132C82.9429 17.4698 82.1326 18.9556 81.4219 20.4423L80.8698 21.6291L80.7721 20.3237C80.0374 14.1406 77.5158 8.09391 72.8541 4.4027C68.1827 0.651927 61.7859 0.257447 55.9962 1.51311C50.1949 2.70563 44.313 5.42076 40.6983 10.6182C39.8905 11.8598 40.3073 10.9328 39.0992 13.2021C36.5236 18.6715 36.5404 23.4674 37.1073 27.4146L36.4337 27.6333C34.6017 24.0013 32.5673 20.6921 29.256 17.5338C27.5827 16.0216 25.4459 14.44 22.6451 14.2287C19.8418 13.9821 16.8299 15.7978 14.4885 18.6947C14.0072 19.2778 13.5913 19.8314 13.1214 20.5136C7.43967 27.4332 5.74296 41.9449 15.6079 50.5856L15.8811 50.8164L15.6478 51.088C10.1668 58.0635 6.83022 67.3326 6.85133 76.3047C6.76555 83.9702 9.0509 92.6527 15.4694 95.3633L15.9934 95.5165L15.6065 95.902C13.9712 97.6184 12.5741 99.5338 11.3706 101.39C11.3705 101.39 11.3704 101.39 11.3703 101.389C7.27843 107.732 4.1005 117.054 4.16445 125.491C4.15712 126.409 4.20899 127.319 4.30422 128.205C4.19361 127.303 4.13094 126.395 4.1263 125.491C4.05263 114.591 8.29559 103.797 15.5091 95.8041L15.7305 95.5835L15.4306 95.4958C8.38987 92.3457 6.66802 83.5194 6.66291 76.3047C6.65917 67.23 9.86967 58.1491 15.4809 50.9445L15.5696 50.8413L15.4658 50.7536C6.94301 43.3572 5.82109 29.4878 12.9272 20.3804C15.6494 15.9958 21.2867 11.9692 26.293 15.0931C31.0148 17.8058 34.1415 22.6718 36.6179 27.5482L36.9082 27.4539C36.5674 25.4137 36.5346 23.2697 36.7246 21.1638C37.1835 11.0083 45.955 2.85403 55.9451 1.26686C61.7751 -0.00678632 68.4138 0.404871 73.1637 4.33094C77.9071 8.19412 80.3128 14.3027 81.03 20.3044L81.0537 20.6206L81.1874 20.3332C83.9036 15.1731 86.7793 9.18713 92.3918 6.8188C96.7503 5.52829 101.838 5.575 105.533 8.46149C109.206 11.2833 111.167 15.8235 111.935 20.2997L111.94 20.3389L111.956 20.3028C116.095 12.3936 120.962 2.38071 130.648 1.11463C141.865 0.670665 150.819 10.1783 153.596 20.2894L153.529 20.2788C155.127 17.9177 157.084 15.7734 159.18 13.8403C163.387 10.1446 165.394 9.00315 169.635 6.98648C170.366 6.66942 168.444 7.43113 170.705 6.47314C174.672 4.8629 178.987 4.01303 183.341 4.01594C195.841 3.85608 206.97 12.5387 213.259 23.0274L213.175 23.0383C215.241 16.5281 217.82 7.70676 225.525 6.74137C233.832 6.52964 240.599 13.1108 243.367 20.2921L243.336 20.2862C244.902 18.486 246.581 16.749 248.295 15.0941C254.89 9.15567 255.887 7.89115 263.089 4.74267C261.787 5.22989 260.986 5.64188 259.929 6.22094C262.198 5.04162 264.661 4.07808 267.247 4.06545C280.313 4.09711 288.984 16.2978 293.236 27.4937L293.296 27.4878C294.02 22.8298 295.205 18.1564 297.256 13.8743C299.131 9.75105 303.186 5.1947 308.129 6.79957C316.77 9.20602 319.093 19.4745 319.026 27.4822L319.092 27.4932C320.009 24.5716 321.188 21.7064 322.626 18.9816C323.407 17.5474 323.553 17.3887 324.488 15.9573C326.377 13.1516 328.731 10.5663 331.664 9.7755C332.548 9.54181 333.286 9.51402 333.927 9.55936C335.965 9.81234 337.144 10.2366 338.795 12.4116C339.658 13.9136 339.722 13.3521 340.693 17.0476C340.739 17.3638 340.838 17.5615 341.11 20.0889C341.295 22.0728 341.339 24.6831 341.037 27.4763L341.148 27.5065C342.624 24.4209 344.433 20.625 347.632 19.0654C349.357 18.315 350.921 19.6914 351.661 20.9072C352.471 22.1695 352.898 23.3399 353.256 24.3531C353.609 25.3846 353.896 26.4196 354.153 27.4863C355.507 33.1871 355.356 37.8616 355.293 40.2079C354.818 47.7144 354.764 47.5812 353.462 53.806C352.253 58.8826 350.635 63.8244 348.506 68.517L348.498 68.5341L348.516 68.5386C356.025 71.7532 357.329 81.0647 357.382 88.3983C357.439 97.9756 353.83 107.873 346.384 114.058L346.308 114.113L346.396 114.147C357.244 119.111 362.264 131.739 362.036 143.369C362.093 153.803 359.009 166.129 348.846 171.287C348.735 171.336 348.602 171.393 348.491 171.433L348.336 171.487L348.467 171.586C351.283 173.467 357.958 181.345 359.69 186.311C360.768 187.873 362.567 197.206 362.159 198.662C362.151 199.332 362.122 199.973 362.071 200.625C361.7 205.539 360.398 209.6 359.325 212.168C357.072 217.923 352.542 223.289 349.932 225.367C349.507 225.725 349.008 226.126 348.499 226.473L348.42 226.525L348.513 226.542C354.815 227.658 359.692 235.873 360.117 237.959C361.887 243.638 361.196 241.796 361.814 246.012C361.898 247.26 361.992 245.974 362.075 250.179C362.075 250.252 362.075 250.327 362.075 250.404C362.018 254.147 361.75 255.638 361.288 258.135C360.891 260.633 359.289 265.073 358.434 266.407C355.586 271.3 352.653 273.764 348.497 275.428L348.25 275.502L348.495 275.582C350.404 276.331 352.374 277.699 354.313 279.751C357.497 282.311 362.515 293.49 362.039 304.135C360.872 313.623 351.91 317.901 351.317 318.818C340.677 326.181 358.555 314.054 358.592 312.272C361.732 308.08 361.827 307.435 362.131 304.135C362.124 303.28 362.105 302.345 362.027 301.028C361.975 298.297 361.465 292.213 358.928 286.602C356.537 280.912 351.629 276.555 348.543 275.433L348.542 275.578C348.917 275.466 349.255 275.332 349.541 275.218C354.367 272.702 357.543 269.022 359.782 263.803C362.271 256.328 360.544 262.038 361.697 256.445C361.885 255.232 362.165 252.745 362.169 250.179C362.19 247.999 362.023 245.773 361.795 244.237C361.214 240.898 360.976 239.411 359.002 235.323C356.594 230.723 352.797 227.554 348.527 226.463L348.543 226.54C350.581 225.113 352.328 223.386 353.937 221.507C354.718 220.526 355.397 219.571 356.064 218.528C358.717 214.629 360.572 210.181 361.535 205.547C361.36 206.292 361.167 207.012 360.949 207.739C361.303 206.395 361.578 205.055 361.785 203.681C361.948 202.667 362.07 201.658 362.156 200.631C362.445 197.123 362.14 193.639 361.17 190.094C359.202 183.963 357.613 182.171 356.87 180.813C356.014 179.507 355.627 178.725 353.326 176.002C351.682 174.117 350.115 172.619 348.589 171.425L348.558 171.623C351.885 170.147 354.126 167.951 356.253 165.109C360.341 158.928 361.137 155.326 361.984 147.96C362.104 146.568 362.182 144.873 362.187 143.369C362.171 140.272 362.011 138.212 362.118 142.297C362.34 132.286 356.908 118.538 346.413 114.101C349.24 111.84 351.299 109.036 352.821 106.455C354.564 103.323 352.291 107.532 352.575 106.984C354.146 104.391 355.125 101.984 356.012 98.9965C356.806 96.3755 357.512 92.2884 357.498 88.3983C357.53 84.8977 357.104 81.6405 356.661 79.7467C355.945 75.1565 351.886 69.1155 348.535 68.4605L348.578 68.5518C348.943 67.7567 349.151 67.239 349.242 67.0254C351.221 62.1086 351.595 60.7565 352.119 59.1337C354.774 49.8235 354.666 47.6096 355.223 44.6135C355.679 42.1166 355.344 31.6 354.633 29.1223C354.604 29.1101 354.471 28.48 354.216 27.4712C353.851 26.0688 353.321 24.0038 352.325 21.9846C351.807 20.965 351.164 19.9458 350.227 19.3071C349.286 18.6249 348.03 18.7411 347.191 19.2206C346.293 19.6607 345.527 20.3673 344.854 21.1029C343.495 22.74 342.203 24.9453 341.075 27.4751L341.116 27.4864C341.425 24.3915 341.486 20.8591 340.783 17.287C340.172 13.8531 338.021 9.62877 333.931 9.50332C326.541 9.63118 323.244 17.5079 320.943 22.2645C320.801 22.6089 320.575 23.2242 319.79 25.2957C319.741 25.4349 319.779 25.1934 319.293 26.6039C319.205 26.8662 319.112 27.1476 319.014 27.4702L319.107 27.4858C319.197 24.5385 318.806 18.6942 316.481 13.965C314.309 9.03075 309.521 6.91578 308.581 6.75554C308.445 6.71312 308.309 6.67329 308.174 6.63592C304.349 5.62981 302.114 7.37779 300.778 8.58206C299.414 9.90212 298.514 11.2059 297.416 13.2952C294.777 19.0593 294.638 20.0462 293.4 25.9288C293.307 26.4533 293.222 26.9798 293.158 27.4694L293.368 27.4489C292.574 25.3148 291.596 23.133 289.823 19.9737C288.502 17.712 288.374 17.46 287.181 15.7549C282.807 9.8194 278.248 6.07258 271.815 4.41998C270.742 4.2699 269.134 3.99196 267.247 3.97274C266.117 3.95764 264.904 4.15103 263.725 4.50238C255.899 7.1033 248.959 13.8678 243.244 20.2081L243.481 20.2524C241.461 15.1576 237.899 11.0129 234.032 8.84177C231.433 7.35257 228.467 6.61826 225.525 6.62411C217.516 7.719 215.116 16.6263 213.045 23.0061L213.377 22.9627C207.005 12.3783 196.031 3.74035 183.341 3.822C172.086 3.68273 161.232 9.73073 154.183 18.9213C153.86 19.3486 153.563 19.7631 153.316 20.1433L153.841 20.2282C152.467 15.9906 151.775 14.4441 148.69 10.061C147.058 7.97998 145.256 5.75981 141.447 3.56035C138.789 2.00977 134.608 0.817676 130.648 0.88268C130.056 0.883412 129.476 0.948219 128.915 1.06325C127.77 1.34389 127.623 1.29055 126.057 2.04859C119.085 6.1342 115.12 13.2873 111.692 20.1841L112.222 20.2632C111.362 15.3114 109.07 10.1673 104.504 7.4363C100.119 5.0158 96.7939 5.81274 97.6919 5.76506C95.8265 5.75211 94.0266 6.05475 92.3222 6.5024C92.3162 6.50416 92.3102 6.50592 92.3042 6.50768C86.695 9.02639 84.2501 13.8639 80.8798 20.19L81.3684 20.2792C81.282 19.3263 81.1043 18.2934 80.8776 17.2683C80.7907 16.2962 78.6708 9.69673 76.0277 6.72811C75.8221 6.54215 76.1719 7.0333 76.0704 6.96978C73.8614 3.75521 68.4133 0.951361 65.8172 0.700476C63.2698 0.227945 61.5283 0.394272 60.7659 0.413976C57.8379 0.61012 58.5013 0.557445 58.277 0.561573C57.4191 0.671114 56.6487 0.803213 55.8811 0.958462C50.3815 2.13244 48.0828 3.52247 46.2262 4.63635C44.4304 5.84391 42.8991 6.84508 40.5588 9.95832C39.97 10.7265 37.8984 13.8282 37.0437 17.662C36.1025 21.4406 36.3039 25.6579 36.6877 27.4974L36.8218 27.4539C36.7675 27.3425 36.74 27.2907 36.6795 27.1719C36.6422 27.1009 36.6012 27.0235 36.5601 26.9469C36.5392 26.85 36.7393 27.1937 36.8747 27.4294L36.6305 27.5087C36.6011 27.4061 36.5693 27.2663 36.5526 27.222C36.5675 27.3185 36.5836 27.4179 36.6018 27.5144L36.9013 27.4171C35.0873 23.7258 32.7967 20.1497 29.7881 17.2582C30.4274 17.9017 31.1399 18.7215 31.6421 19.3705C28.9124 16.1196 25.3212 13.3734 21.423 13.799C17.5496 14.2807 14.9436 17.2376 12.9165 20.078C12.8693 20.1455 12.8231 20.2122 12.7779 20.278C10.7034 23.4551 10.9165 23.1156 9.92038 25.202C9.7361 25.6367 10.0829 24.9296 9.55706 26.2074C6.02174 36.6181 7.96271 43.0753 15.3347 50.9087L15.327 50.8121C15.2493 50.9029 15.1432 51.0339 15.0615 51.1368C11.9135 55.3715 9.61731 59.5166 7.63014 66.8246C7.47508 67.3407 6.35282 72.0331 6.4539 76.3047C6.46322 77.4363 6.52084 78.5025 6.61403 79.4417C6.68252 80.8963 6.84318 82.1939 7.01208 83.2597C7.90277 87.312 8.80568 88.9051 9.66777 90.4831C10.6579 91.9319 11.424 93.9648 15.3454 95.7871L15.295 95.5891C14.5517 96.3444 13.7456 97.295 12.8926 98.4119C9.44471 102.19 3.08539 115.803 3.69978 125.491C3.70912 128.134 4.17145 130.356 4.53617 131.851C5.64287 135.927 5.85185 135.777 6.08148 136.491C7.78257 140.642 7.7729 140.666 9.76154 144.308C11.3845 147.16 13.6058 150.47 15.8624 153.271L15.8701 153.281L15.8584 153.284C14.9364 153.572 14.0932 154.004 13.3239 154.466C11.9393 155.342 11.8399 155.485 11.531 155.698C11.2656 155.937 10.7104 156.202 9.20337 158.096C8.90258 158.497 9.19679 158.141 9.18126 158.186C9.19478 158.247 8.72308 158.618 7.53559 160.863C7.34836 161.207 6.36672 163.257 5.88831 165.545C5.36224 167.854 5.28642 170.291 5.28365 171.146C5.25639 169.004 5.45686 164.717 7.35796 160.849C9.15127 156.934 12.8177 154.178 15.0235 153.349C15.278 153.244 15.536 153.146 15.8005 153.069L15.6903 153.413C10.1662 146.108 3.99468 136.94 3.51338 125.491C3.45746 115.16 7.31945 104.042 15.1143 95.4076L15.2734 96.0329C7.88813 92.7523 6.13036 83.7882 6.10722 76.3047C6.10111 67.2509 9.24576 58.0277 15.0449 50.5694L15.0944 51.1928C6.32492 43.6651 5.19024 29.2595 12.4214 20.0334C13.9822 17.7736 15.8857 15.5614 18.4357 14.2719C20.9897 12.9021 24.2717 13.1753 26.7106 14.6036C31.64 17.5179 34.7081 22.3974 37.1985 27.2797L36.2806 27.5778C33.6969 14.9601 43.4765 2.16375 55.8171 0.650212C61.9364 -0.69383 68.9243 -0.144476 73.7869 4.05446C78.6189 8.17267 80.9083 14.3182 81.6111 20.2611L80.6592 20.0873C83.5111 14.7313 86.2935 8.7905 92.242 6.28708C96.8829 4.90369 102.33 5.09824 106.105 8.23814C109.849 11.2993 111.686 15.8434 112.435 20.2362L111.496 20.0959C115.956 11.5028 121.111 1.71515 130.648 0.653518C130.895 0.653624 131.139 0.657219 131.38 0.664165C139.575 0.981623 144.321 4.73129 147.727 8.58637C150.948 12.747 148.425 9.09446 150.993 13.1213C152.405 15.6182 153.317 17.8374 153.967 20.1966L153.206 20.0733C154.123 18.7173 155.155 17.468 156.363 16.1426C163.182 8.64063 173.045 3.58368 183.341 3.69928C196.137 3.59106 207.215 12.4008 213.519 22.8845L212.887 22.967C215 16.4187 217.425 7.52264 225.525 6.43662C225.591 6.43665 225.657 6.43702 225.723 6.43772C233.641 6.53111 239.143 11.413 242.464 17.4773C243.206 18.8711 243.447 19.5441 243.669 20.1865L243.092 20.0786C243.413 19.7274 243.76 19.3551 244.314 18.7509C250.851 12.0947 257.69 4.71362 267.247 3.72608C278.741 3.62156 287.179 13.3264 291.882 23.2267C292.516 24.5629 293.11 25.9267 293.616 27.3655L292.899 27.4351C294.169 20.3714 295.902 12.3607 301.616 7.6377C303.452 6.25305 305.99 5.79762 308.222 6.46314C313.137 7.69511 316.329 12.1482 317.691 16.2064C318.807 19.4855 318.912 21.3361 319.086 22.555C319.48 26.8167 319.379 25.4067 319.398 27.4988L318.734 27.3877C318.732 27.3935 318.755 27.3178 318.757 27.3104C320.733 21.5486 322.013 18.7165 325.397 14.0937C326.875 12.4014 326.498 12.403 329.202 10.4681C330.853 9.47873 331.645 9.41796 332.133 9.31063C332.635 9.24166 332.915 9.17622 333.95 9.22941C334.17 9.24538 334.417 9.27166 334.695 9.31902C334.868 9.37702 334.311 9.12175 335.874 9.59189C342.209 12.5057 341.909 21.2049 341.444 27.5284L340.771 27.3446C341.681 25.3169 342.757 23.3736 344.054 21.6579C345.33 20.0548 347.019 18.1056 349.348 18.5448C353.079 20.1548 353.538 24.1747 354.508 27.4007C357.729 41.6595 354.159 56.2238 348.773 68.645L348.586 68.251C350.581 68.8981 352.113 70.2923 353.328 71.8327C355.987 75.8045 355.127 74.8415 355.793 76.1915C357.611 81.3107 357.615 84.2119 357.701 88.3983C357.697 89.856 357.633 91.4588 357.404 93.3832C357.282 94.6236 356.556 99.7309 354.406 104.123C353.297 106.505 351.639 109.002 350.206 110.711C348.772 112.365 348.593 112.733 346.612 114.372L346.532 113.783C346.581 113.802 346.625 113.82 346.687 113.845C350.993 116.212 350.047 115.244 354.915 120.245C356.991 122.181 361.721 130.663 362.179 138.002C362.374 139.748 362.467 141.497 362.466 143.369C362.561 153.2 359.558 166.689 348.619 171.799L348.701 171.276C349.176 171.644 349.625 172.032 350.07 172.431C353.573 175.641 357.801 180.357 360.504 187.329C361.809 190.697 362.888 195.538 362.468 200.655C362.022 208.382 358.523 216.207 355.014 220.564C352.029 224.276 351.529 224.293 351.16 224.712C349.275 226.389 349.186 226.382 348.694 226.77L348.576 226.193C348.852 226.24 349.255 226.328 349.969 226.588C353.163 227.79 355.628 229.952 357.46 232.392C358.602 233.965 358.743 234.251 358.963 234.607C361.694 239.512 362.427 244.971 362.446 250.179C362.501 259.414 359.662 269.808 350.647 274.922C349.997 275.274 349.338 275.592 348.618 275.831L348.626 275.182C359.496 280.192 362.5 293.251 362.467 304.135C361.127 314.438 351.135 319.707 343.122 324.375L343.063 323.693C353.325 327.513 358.016 339.033 357.792 349.28C357.759 357.353 356.319 368.945 346.414 370.597L346.752 370.001C350.199 376.663 354.531 384.696 350.783 392.32C346.916 397.503 340.398 398.867 334.549 399.959L334.87 399.395C339.359 411.248 340.13 425.949 331.834 436.38C330.25 438.382 328.15 440.239 325.458 440.596C322.758 440.96 320.224 439.622 318.28 438.02C314.36 434.691 311.655 430.298 309.423 425.8L310.13 425.866C306.819 430.264 302.904 434.188 298.379 437.319C292.481 440.937 292.082 441.122 286.048 442.096C285.54 442.14 285.034 442.163 284.525 442.165C278.927 442.215 273.634 440.574 269.645 438.303C269.487 438.255 269.49 438.282 269.333 438.231C263.695 435.159 258.764 430.89 254.824 425.87L255.521 425.818C252.448 431.198 248.132 435.763 243.103 439.161C236.984 443.273 230.229 445.136 223.486 445.122C221.822 445.123 220.165 444.827 218.584 444.299C211.671 441.275 212.414 441.118 207.672 436.773C204.572 433.472 201.922 429.79 199.715 425.827L200.508 425.726C198.086 434.278 192.856 444.907 182.519 445.096C172.631 444.338 169.037 433.652 166.752 425.712L167.472 425.786C163.657 433.27 157.331 441.223 148.195 441.367C147.337 441.365 146.486 441.274 145.652 441.106C138.144 439.413 132.707 433.768 126.928 425.376C126.348 424.473 126.734 425.176 125.698 423.486L126.409 423.435C126.27 423.777 126.072 424.209 125.802 424.744C123.45 428.859 122.296 431.269 115.992 436.246C114.923 437.3 106.985 441.784 99.9075 441.404C97.2165 441.37 94.9967 440.436 93.5416 439.816C88.1646 437.487 81.4897 432.338 77.0367 428.333C77.6654 428.926 78.4485 429.637 79.1659 430.273C77.48 428.863 75.8216 427.403 74.2392 425.89L74.8266 425.783C74.479 426.505 74.0791 427.217 73.6687 427.905C73.4089 428.271 73.1496 428.62 72.8951 428.949C71.9645 430.435 70.9363 431.849 69.7916 433.191C68.4482 434.545 68.4184 434.474 68.0209 434.871C67.586 435.204 66.9402 436.244 63.3601 438.527C60.1774 440.411 57.1162 441.291 53.5018 441.323C52.9503 441.324 52.4008 441.287 51.8298 441.206C50.2599 440.955 49.2496 440.676 47.6857 439.875C44.0435 437.602 46.1686 438.91 44.1366 437.24C42.1863 435.456 39.6905 432.503 37.5819 428.272C38.7935 430.37 37.6559 428.464 36.506 425.725L36.8327 425.887C33.916 426.723 30.1386 427.392 29.8119 427.491C28.1405 427.756 26.7335 427.934 24.8696 428.094C26.5742 427.736 17.7312 428.57 14.2299 427.702C10.7533 427.016 10.9561 426.8 10.1679 426.556C7.9625 425.632 9.53597 426.37 8.03505 425.617C6.9861 425.043 6.00874 424.349 5.14768 423.529C-3.11178 416.435 1.24239 404.542 7.24433 397.594C8.23987 396.379 7.30929 397.425 8.50043 396.035C9.64042 394.747 10.7965 393.532 12.6216 391.889L12.6638 392.35C12.553 392.283 12.4292 392.201 12.3078 392.118C11.7135 391.696 11.5027 391.594 10.6383 390.837C2.56642 383.352 0.00322512 372.117 0.0123727 361.734C-0.269442 351.392 4.25661 338.663 15.8135 336.044L15.6161 336.481C14.6024 334.887 13.6164 333.242 12.6391 331.561C11.5669 329.697 10.6371 328.237 8.69924 324.533C6.75536 320.814 4.06666 315.035 2.38622 310.092C1.94349 308.779 1.76587 308.442 1.26279 306.671C0.521856 303.968 0.00973544 301.332 0.00963789 298.678C0.0228495 295.418 0.753728 292.128 2.38788 288.917C4.6577 284.494 8.30915 280.742 12.6753 278.13L12.5695 278.516C9.47866 273.17 6.72831 267.527 4.92125 261.66C4.35386 259.624 4.4081 259.958 3.87287 256.953C3.64318 255.427 3.62642 254.486 3.61886 253.937C3.62511 252.575 3.57768 253.363 3.602 252.603C3.87745 249.121 4.20667 247.977 5.7486 244.969C6.00996 244.515 5.58796 245.134 5.82562 244.728C8.9873 239.603 11.8257 239.894 12.598 235.354C12.5969 234.47 12.4425 233.459 12.0339 232.33C9.93248 227.887 12.6794 231.987 12.6815 235.354C12.7014 236.531 12.1653 237.415 12.0264 237.669C11.6304 238.327 11.6363 238.33 11.9498 237.93C12.2417 237.529 12.8398 236.626 12.8556 235.354C12.9507 233.317 11.9087 230.847 10.9017 229.169C8.9273 225.927 8.82986 226.033 8.02367 224.76C5.9768 221.681 3.8337 217.414 3.92042 212.922C3.52817 207.537 8.21075 204.358 10.7408 202.635C13.6794 200.409 8.38978 204.425 9.90607 203.312C11.4189 202.233 12.4168 201.505 13.6754 200.02C15.1632 198.607 15.89 194.543 15.8029 195.31ZM317.478 436.565C315.092 434.362 312.225 430.533 309.807 425.622L309.798 425.602L309.785 425.62C304.365 432.759 295.301 441.685 284.525 441.858C277.957 441.882 272.073 439.487 267.888 436.962C262.267 433.589 257.869 429.133 255.181 425.61L255.152 425.57L255.129 425.614C252.4 430.267 250.158 432.32 251.381 431.205C252.854 429.431 254.181 427.586 255.237 425.67L255.083 425.681C262.359 434.558 271.777 441.617 284.525 441.887C285.613 441.887 286.708 441.787 287.81 441.59C289.685 441.814 298.993 437.218 301.491 434.571C303.014 433.265 303.108 433.265 305.053 431.342C305.485 430.939 307.689 428.473 308.432 427.529C308.814 427.066 309.348 426.41 309.878 425.686L309.704 425.67C311.732 430.511 317.542 437.691 319.002 438.287C320.96 439.7 321.747 439.811 322.117 439.953C322.504 440.052 322.555 440.1 323.577 440.267C325.948 440.57 327.551 439.723 328.705 438.963C329.886 438.144 330.68 437.339 331.605 436.199C332.453 435.128 333.372 433.862 334.4 431.898C334.967 430.822 336.733 427.1 337.438 422.069C337.777 420.037 337.922 416.534 337.822 414.961C337.597 409.842 336.462 404.407 334.538 399.537L334.501 399.601C337.992 399.049 341.34 398.119 344.237 396.848C347.118 395.541 348.022 394.704 348.654 394.224C349.252 393.697 349.633 393.482 350.537 392.164C350.57 392.113 350.603 392.06 350.636 392.006C352.527 388.967 351.854 384.579 351.357 382.371C350.595 378.712 348.743 374.547 348.236 373.513C347.691 372.376 347.101 371.231 346.478 370.164L346.414 370.277C356.144 368.566 357.412 357.118 357.454 349.281C357.64 339.144 353.121 327.878 342.958 324.042C344.202 323.409 345.443 322.698 346.674 321.952C345.447 322.691 344.203 323.4 342.954 324.038L342.934 324.048L342.955 324.054C352.974 327.816 357.592 339.16 357.342 349.281C357.336 352.409 357.111 355.473 356.428 358.515C355.471 362.597 354.742 363.461 354.46 364.085C354.081 364.663 354.073 365.074 352.243 367.125C350.165 369.142 348.739 369.871 346.414 370.164L346.346 370.164L346.381 370.222C346.961 371.194 347.628 372.421 348.413 374.12C348.411 374.115 348.409 374.111 348.407 374.107C349.525 376.764 352.533 382.917 351.501 389.238C351.404 389.387 351.648 389.892 350.429 392.095C350.082 392.648 349.582 393.279 348.857 393.936C345.49 396.915 340.095 398.641 334.496 399.559C337.372 406.9 338.463 415.506 337.357 422.381C336.704 425.822 336.888 425.158 335.502 429.054C334.643 431.201 333.485 433.558 331.492 436.11C330.86 436.911 330.171 437.665 329.322 438.356C324.34 442.13 320.713 439.373 317.796 437.055C317.58 436.792 317.735 436.874 317.478 436.565ZM71.1354 430.938C70.8931 431.273 68.9954 433.628 67.1237 435.257C65.2752 436.909 63.5849 437.94 65.0028 437.068C68.9542 434.192 72.2033 430.151 74.5134 425.637L74.4806 425.643C81.7664 432.131 89.7052 439.823 99.9075 441.076C100.55 441.077 101.17 441.059 101.793 441.021C101.211 441.041 100.592 441.049 99.9075 441.036C94.2802 440.849 86.9 436.186 79.3388 429.914C79.3352 429.911 79.3317 429.908 79.3281 429.905C78.929 429.567 80.6225 430.95 78.3491 429.03C77.7657 428.529 76.2147 427.221 74.5152 425.607L74.4858 425.578L74.4685 425.616C73.6064 427.399 72.3792 429.324 71.1354 430.938ZM14.9434 195.114C14.9068 194.959 14.8847 194.825 14.8932 194.675C14.8949 194.641 14.9359 194.64 14.9409 194.625C14.95 194.597 14.8995 194.56 14.8985 194.554C14.8919 194.517 14.9652 194.519 14.9671 194.514C14.9855 194.45 14.9079 194.482 14.8892 194.43C14.8645 194.363 14.8554 194.27 14.8314 194.183C14.8231 194.153 14.8797 194.148 14.853 194.085C14.8344 194.04 14.7217 193.927 14.752 193.834C14.7748 193.823 14.8039 193.82 14.8292 193.813C14.6888 193.759 14.6822 193.733 14.6356 193.591C14.6281 193.568 14.5798 193.57 14.5735 193.526C14.5671 193.482 14.6231 193.446 14.5801 193.375C14.5648 193.35 14.5156 193.359 14.4904 193.322C14.4203 193.217 14.3239 192.973 14.2628 192.886C14.1395 192.71 14.0019 192.663 13.906 192.498C13.8983 192.485 13.9589 192.479 13.9426 192.457C13.9262 192.435 13.8551 192.455 13.8496 192.451C13.7908 192.406 13.7584 192.223 13.7258 192.202C13.6422 192.144 13.6816 192.237 13.5838 192.142C13.4919 192.052 13.4324 191.848 13.363 191.743C13.2789 191.617 13.1498 191.666 13.173 191.49C12.8979 191.193 12.6191 190.895 12.3421 190.598C12.3628 190.581 12.3836 190.564 12.4044 190.547C12.3689 190.536 12.3333 190.524 12.2977 190.512C12.3158 190.502 12.3338 190.492 12.3518 190.483C12.1894 190.418 12.0751 190.35 11.9721 190.203C11.9701 190.2 12.0161 190.171 12.0152 190.168C11.9962 190.131 11.9357 190.125 11.9194 190.092C11.8801 190.013 11.8703 189.826 11.8062 189.969C11.697 189.801 11.5112 189.661 11.4068 189.497C11.3619 189.427 11.4099 189.353 11.3878 189.319C11.3662 189.287 11.3239 189.349 11.3129 189.34C11.2477 189.289 11.1622 189.183 11.2152 189.119C11.1797 189.128 11.1432 189.135 11.1073 189.143C11.1828 189.093 10.9891 188.919 10.9471 188.864C10.9395 188.854 10.9689 188.828 10.9626 188.821C10.8914 188.742 10.8286 188.763 10.7572 188.707C10.7321 188.688 10.8163 188.681 10.7432 188.639C10.7368 188.635 10.6905 188.677 10.6311 188.603C10.5375 188.485 10.3302 188.261 10.2477 188.102C10.2406 188.089 10.322 188.083 10.2684 188.039C10.2491 188.023 10.2178 188.062 10.1814 188.015C10.0411 187.834 9.93198 187.592 9.76012 187.432C9.80955 187.407 9.90785 187.439 9.80705 187.357C9.79078 187.344 9.75977 187.384 9.75306 187.378C9.69909 187.327 9.69078 187.255 9.6296 187.2C9.61144 187.184 9.57667 187.201 9.5523 187.182C9.51623 187.154 9.55008 187.107 9.50207 187.078C9.42681 187.033 9.37681 187.052 9.4048 186.913C9.09123 186.462 8.76949 186.006 8.52954 185.503C8.42209 185.375 8.32297 185.266 8.23279 185.126C8.2063 185.085 8.26256 185.043 8.20492 184.986C8.19213 184.973 8.06673 184.897 8.18164 184.815C8.15447 184.79 8.14368 184.77 8.12294 184.747C8.1155 184.777 8.10825 184.808 8.10028 184.837C8.06005 184.714 7.96758 184.644 7.89445 184.553C7.84213 184.489 7.92191 184.513 7.89385 184.471C7.86599 184.43 7.84355 184.415 7.87969 184.327C7.78344 184.321 7.82073 184.265 7.78231 184.183C7.77816 184.174 7.72416 184.137 7.70904 184.091C7.69818 184.059 7.74031 184.027 7.70939 183.981C7.70442 183.974 7.59652 183.897 7.57537 183.866C7.5422 183.818 7.56332 183.706 7.55937 183.696C7.50182 183.544 7.4186 183.519 7.47065 183.372C7.40288 183.377 7.33022 183.306 7.30523 183.234C7.27336 183.142 7.31752 182.911 7.17961 182.941C7.19255 182.812 7.16218 182.838 7.10948 182.714C7.06255 182.604 6.99581 182.291 6.95396 182.202C6.91204 182.113 6.85708 182.185 6.83359 182.152C6.79492 182.099 6.86033 182.111 6.84412 182.07C6.79822 181.955 6.75061 181.857 6.68658 181.752C6.72195 181.733 6.75736 181.712 6.79268 181.693C6.77806 181.691 6.76345 181.69 6.74883 181.689C6.7407 181.665 6.73077 181.639 6.72422 181.617C6.62396 181.858 6.67362 181.437 6.64134 181.325C6.61338 181.232 6.48295 181.103 6.43234 181.005C6.42 180.981 6.46663 180.985 6.46402 180.98C6.43275 180.923 6.40169 180.923 6.37946 180.84C6.3678 180.795 6.40539 180.735 6.39316 180.692C6.30549 180.384 6.16899 180.108 6.07854 179.796C6.06321 179.743 6.11465 179.68 6.10419 179.635C6.08928 179.571 6.02616 179.543 6.01008 179.484C5.99438 179.426 6.03576 179.326 6.01634 179.289C5.99709 179.252 5.9533 179.335 5.95189 179.258C5.95127 179.223 6.01104 179.271 6.00222 179.229C5.9747 179.1 5.87473 178.93 5.89711 178.777C5.88497 178.787 5.87471 178.798 5.86348 178.808C5.83447 178.658 5.83762 178.518 5.80884 178.36C5.79856 178.304 5.73878 178.218 5.72831 178.166C5.71783 178.114 5.75648 178.082 5.74927 178.04C5.74641 178.022 5.7088 178.037 5.70728 178.025C5.68869 177.879 5.74267 177.786 5.70601 177.635C5.57009 177.068 5.45654 176.509 5.3542 175.926C5.35012 175.903 5.29673 175.894 5.28474 175.86C5.26624 175.808 5.31135 175.8 5.31206 175.793C5.31627 175.745 5.27657 175.769 5.26889 175.707C5.25236 175.573 5.26546 175.358 5.24803 175.225C5.20781 174.919 5.14287 174.662 5.09693 174.352C5.09349 174.33 5.15581 174.34 5.15347 174.301C5.1389 174.034 5.07625 173.988 5.07129 173.655C5.06591 173.326 5.07303 172.672 5.07245 172.298C5.07259 172.298 5.07273 172.298 5.07288 172.298C4.9562 172.18 4.98074 172.02 5.06413 171.886C5.35683 172.627 5.26503 173.376 5.33683 174.164C5.41489 175.029 5.71871 175.896 5.82451 176.741C5.83429 176.82 5.77564 176.862 5.79968 176.925C5.80375 176.936 5.84814 176.899 5.8587 176.932C6.00594 177.412 5.98901 177.928 6.12162 178.39C6.15775 178.516 6.21635 178.524 6.25536 178.632C6.22539 178.618 6.19578 178.611 6.16617 178.6C6.20033 179.124 6.36265 179.613 6.49686 180.122C6.50277 180.145 6.45148 180.163 6.45641 180.187C6.46609 180.235 6.53661 180.264 6.55068 180.304C6.56903 180.357 6.53044 180.378 6.5479 180.427C6.55651 180.45 6.59404 180.431 6.60304 180.485C6.60378 180.489 6.563 180.505 6.57891 180.538C6.62327 180.63 6.72139 180.82 6.75762 180.896C6.80382 180.994 6.76852 181.095 6.77727 181.135C6.80092 181.241 6.86383 181.218 6.89334 181.304C7.10597 181.921 7.25908 182.529 7.53333 183.153C7.5503 183.192 7.68152 183.303 7.71055 183.374C7.72013 183.399 7.75766 183.528 7.76535 183.548C7.7953 183.628 7.78551 183.713 7.79688 183.759C7.81881 183.849 7.92593 183.908 7.95347 183.949C8.0019 184.02 8.06032 184.158 8.07461 184.19C8.10894 184.268 8.0184 184.283 8.06424 184.328C8.07785 184.341 8.12891 184.294 8.15771 184.351C8.18159 184.398 8.14673 184.44 8.15609 184.478C8.16541 184.516 8.26629 184.54 8.27535 184.562C8.32227 184.674 8.30242 184.745 8.36258 184.862C8.4119 184.96 8.68673 185.374 8.72674 185.404C8.89242 185.525 8.70279 185.273 8.6965 185.255C8.66237 185.163 8.69794 185.162 8.59968 185.11C8.72074 184.949 8.32707 184.831 8.48492 184.659C8.31899 184.66 8.35298 184.566 8.34063 184.479C8.32358 184.358 8.28836 184.475 8.24906 184.401C8.23339 184.371 8.25088 184.259 8.22076 184.22C8.19072 184.182 8.136 184.187 8.10436 184.13C8.04778 184.028 8.02759 183.933 8.03976 183.817C8.00759 183.813 7.97591 183.809 7.94381 183.805C7.9404 183.731 7.93697 183.656 7.93392 183.581C7.91721 183.601 7.90035 183.622 7.88369 183.642C7.87201 183.625 7.86049 183.608 7.84902 183.591C7.85249 183.514 7.85618 183.444 7.86207 183.369C7.66286 183.26 7.79218 183.259 7.76718 183.159C7.7423 183.06 7.64631 183.037 7.61442 182.964C7.57156 182.866 7.54317 182.825 7.50627 182.722C7.48484 182.663 7.51434 182.534 7.43641 182.662C7.35163 182.483 7.22493 182.255 7.20804 182.073C7.20304 182.02 7.26305 182.07 7.26433 182.06C7.26968 182.012 7.19897 181.999 7.19127 181.954C7.17844 181.878 7.17255 181.723 7.16288 181.663C7.14837 181.576 7.02956 181.48 7.01967 181.469C6.96422 181.409 7.02029 181.368 7.00808 181.347C6.93809 181.226 6.90196 181.205 7.02064 181.12C6.95191 181.106 6.80765 180.994 6.89312 180.927C6.80542 180.955 6.78112 180.83 6.73561 180.763C6.75658 180.741 6.77735 180.719 6.79856 180.697C6.5905 180.586 6.61477 180.253 6.57585 180.044C6.57479 180.039 6.50592 180.049 6.51215 180.014C6.51282 180.012 6.5435 180.006 6.54155 179.985C6.53448 179.914 6.53773 179.633 6.53061 179.602C6.50349 179.49 6.44871 179.483 6.42623 179.416C6.39721 179.33 6.43939 179.307 6.4121 179.226C6.39948 179.188 6.33138 179.168 6.32467 179.104C6.32065 179.067 6.36639 179.052 6.36315 179.022C6.35182 178.916 6.30437 178.847 6.34386 178.741C6.18961 178.752 6.28898 178.682 6.28978 178.634C6.29352 178.439 6.17829 178.21 6.16101 178.056C6.10471 177.563 6.11389 177.077 6.06205 176.603C6.05341 176.524 5.97477 176.517 5.96724 176.433C5.96394 176.396 6.01318 176.349 6.00519 176.288C5.99891 176.239 5.96099 176.172 5.95266 176.11C5.95039 176.093 6.00174 176.085 5.99883 176.06C5.97696 175.878 5.9164 175.694 5.8697 175.516C5.85236 175.45 5.91608 175.401 5.79822 175.426C5.82448 175.397 5.84709 175.369 5.87319 175.341C5.78756 175.257 5.85746 175.172 5.82493 175.047C5.8212 175.034 5.72877 174.946 5.78291 174.885C5.74 174.885 5.70473 174.897 5.66605 174.899C5.64437 174.847 5.68544 174.758 5.68702 174.72C5.68857 174.683 5.63101 174.663 5.62944 174.652C5.62414 174.61 5.69777 174.613 5.69868 174.61C5.75063 174.406 5.71396 174.43 5.59473 174.318C5.56438 174.288 5.62876 174.083 5.53975 174.05C5.57479 174.046 5.60657 174.055 5.64037 174.055C5.64499 173.996 5.64996 173.935 5.65484 173.875C5.62193 173.89 5.58917 173.907 5.556 173.921C5.57672 173.797 5.49037 173.7 5.48667 173.599C5.48471 173.541 5.55987 173.543 5.54152 173.51C5.53789 173.504 5.48808 173.518 5.48286 173.499C5.44058 173.339 5.49007 173.264 5.49205 173.1C5.49315 173.023 5.39816 172.96 5.4539 172.846C5.45913 172.836 5.53609 172.72 5.41697 172.663C5.45308 172.641 5.4718 172.622 5.50229 172.606C5.32424 172.481 5.49535 172.511 5.53034 172.332C5.54832 172.24 5.5108 171.929 5.49092 171.826C5.47864 171.766 5.41046 171.768 5.40756 171.757C5.39091 171.692 5.45706 171.691 5.44547 171.631C5.43388 171.57 5.35835 171.494 5.3648 171.432C5.36977 171.384 5.45217 171.421 5.42317 171.35C5.41691 171.336 5.34733 171.378 5.37438 171.303C5.37853 171.291 5.45372 171.171 5.4701 171.146C5.51376 171.21 5.5715 171.392 5.58986 171.46C5.88851 172.606 6.03708 174.904 6.18526 176.112C6.19749 176.225 6.13706 176.309 6.14159 176.383C6.14617 176.456 6.20211 176.385 6.20654 176.452C6.21082 176.518 6.17225 176.573 6.17779 176.635C6.2135 177.043 6.26382 177.493 6.33226 177.897C6.35038 178.003 6.41965 178.074 6.44011 178.171C6.44825 178.21 6.3811 178.225 6.38755 178.253C6.45622 178.547 6.58256 178.798 6.64418 179.081C6.66988 179.199 6.64464 179.335 6.67143 179.458C6.69278 179.557 6.75834 179.648 6.78303 179.734C6.79659 179.781 6.75293 179.82 6.7537 179.838C6.75705 179.901 6.81301 179.863 6.82149 179.893C6.84472 179.976 6.78211 180.039 6.81037 180.114C6.82152 180.144 6.86773 180.126 6.88795 180.167C6.91356 180.22 6.86387 180.213 6.87404 180.252C6.87455 180.255 6.90606 180.237 6.91365 180.258C6.96196 180.387 7.0419 180.552 7.08193 180.685C7.16445 180.96 7.18961 181.245 7.26438 181.494C7.28431 181.559 7.32156 181.527 7.33095 181.547C7.37618 181.641 7.33728 181.695 7.3935 181.789C7.40283 181.805 7.48771 181.85 7.49698 181.92C7.502 181.957 7.47993 182.011 7.4826 182.043C7.48528 182.076 7.54164 182.06 7.55531 182.095C7.58038 182.158 7.53534 182.155 7.57799 182.243C7.59524 182.279 7.69447 182.378 7.72943 182.474C7.78759 182.633 7.82246 182.846 7.90091 183.025C7.9277 183.087 8.01753 183.141 8.0606 183.235C8.11156 183.346 8.20215 183.572 8.25836 183.69C8.2872 183.75 8.23274 183.782 8.23387 183.791C8.24064 183.845 8.29477 183.795 8.30736 183.827C8.32463 183.871 8.29753 183.933 8.31347 183.973C8.32363 183.999 8.37195 183.979 8.37494 183.984C8.48661 184.17 8.57189 184.345 8.68058 184.536C9.25775 185.553 9.95107 186.505 10.6251 187.455C10.6818 187.534 10.6318 187.576 10.6917 187.638C10.7515 187.7 10.9128 187.679 10.8321 187.829C10.8585 187.812 10.8761 187.798 10.9001 187.782C10.9758 187.952 11.1228 188.064 11.235 188.195C11.3182 188.291 11.3846 188.381 11.4595 188.477C11.5248 188.561 11.4768 188.589 11.5904 188.614C11.8433 188.988 12.154 189.329 12.4018 189.719C12.5602 189.721 12.5727 189.846 12.6564 189.965C12.6666 189.979 12.6857 189.937 12.7182 189.978C12.7611 190.033 12.7367 190.103 12.8165 190.186C12.8379 190.208 13.0417 190.326 13.0686 190.411C13.0944 190.495 13.1623 190.602 13.1941 190.69C13.2066 190.662 13.2159 190.632 13.2271 190.604C13.26 190.633 13.2927 190.662 13.3252 190.691C13.3045 190.718 13.2837 190.745 13.2626 190.772C13.3031 190.769 13.3434 190.767 13.3843 190.764C13.2921 190.92 13.2971 190.841 13.4097 190.901C13.4663 190.931 13.4737 190.984 13.5304 191.021C13.5505 191.034 13.5983 191.011 13.62 191.026C13.673 191.061 13.5967 191.081 13.6223 191.109C13.6483 191.137 13.7424 191.127 13.7617 191.201C13.6122 191.239 13.7807 191.362 13.8668 191.299C13.8829 191.317 13.8928 191.335 13.9125 191.353C13.693 191.511 13.9217 191.482 13.984 191.498C14.0458 191.513 13.9895 191.558 13.9996 191.566C14.0282 191.587 14.0345 191.548 14.0511 191.566C14.1619 191.686 14.2178 191.82 14.32 191.952C14.3342 191.97 14.3529 191.928 14.3669 191.951C14.3808 191.975 14.3655 192.021 14.3924 192.05C14.3996 192.057 14.4297 192.038 14.4401 192.05C14.6506 192.316 14.8264 192.6 15.019 192.911C15.036 192.939 15.1039 192.927 15.1347 192.981C15.1648 193.035 15.1656 193.15 15.2 193.222C15.2092 193.241 15.2587 193.22 15.2709 193.246C15.3124 193.333 15.3099 193.424 15.3453 193.517C15.4073 193.678 15.5012 193.826 15.5235 194.005C15.5276 194.038 15.4838 194.046 15.4847 194.094C15.4854 194.178 15.5396 194.132 15.5523 194.145C15.5931 194.191 15.5134 194.228 15.5462 194.273C15.5512 194.28 15.5986 194.258 15.601 194.265C15.6326 194.373 15.5162 194.4 15.5965 194.506C15.5419 194.619 15.4962 194.45 15.4563 194.44C15.362 194.414 15.2775 194.538 15.2504 194.6C15.2276 194.654 15.2821 194.648 15.2841 194.669C15.2952 194.78 15.3059 194.943 15.2735 195.026C15.2547 195.075 15.2372 194.983 15.2176 195.008C15.1981 195.032 15.2384 195.051 15.1911 195.073C15.1439 195.096 15.0057 195.131 14.9434 195.114ZM9.92963 187.432C10.2097 187.449 10.4707 187.837 10.6063 188.044C10.7221 188.222 10.7027 188.466 10.8662 188.281C10.728 188.105 10.5943 187.973 10.4594 187.783C10.4453 187.763 10.375 187.632 10.3476 187.588C10.3321 187.564 10.3638 187.539 10.34 187.508C10.3348 187.501 10.2642 187.494 10.255 187.479C10.2229 187.428 10.1836 187.237 10.1686 187.219C10.1239 187.169 10.0882 187.226 10.0621 187.209C9.97464 187.152 10.0448 187.088 9.96381 187.026C9.94934 187.015 9.84905 187.015 9.81609 186.949C9.80278 186.922 9.80868 186.856 9.79411 186.838C9.71449 186.742 9.59027 186.658 9.53683 186.561C9.49255 186.481 9.5588 186.466 9.5392 186.421C9.51946 186.376 9.42607 186.367 9.40426 186.341C9.36949 186.3 9.36904 186.223 9.35954 186.209C9.16884 185.934 8.98167 185.721 8.80452 185.453C8.88919 185.655 8.97674 185.85 9.06317 186.045C9.18419 186.116 9.09955 186.096 9.12568 186.175C9.14643 186.238 9.24807 186.192 9.28281 186.269C9.28278 186.269 9.28274 186.269 9.2827 186.269C9.30047 186.308 9.2868 186.428 9.36358 186.487C9.36638 186.489 9.41882 186.464 9.45779 186.52C9.5442 186.643 9.70138 186.823 9.79061 186.972C9.81666 187.016 9.76126 187.042 9.78962 187.095C9.81037 187.134 9.88506 187.144 9.91423 187.206C9.95056 187.285 9.8966 187.374 10.0387 187.343C10.0029 187.375 9.96387 187.4 9.92963 187.432ZM13.0701 190.997C13.0745 191.01 13.0708 191.228 13.1572 191.087C13.0663 190.883 12.8756 190.723 12.7561 190.534C12.6919 190.697 12.8228 190.749 12.9419 190.864C12.942 190.864 12.942 190.864 12.9421 190.864C12.9476 190.869 12.8957 190.873 12.9304 190.9C12.9472 190.913 13.0479 190.931 13.0701 190.997ZM14.9737 195.332C14.8583 195.193 14.7712 195.043 14.7244 194.87C14.7137 194.831 14.7532 194.819 14.7529 194.801C14.7525 194.768 14.6919 194.738 14.6891 194.731C14.6714 194.69 14.7446 194.678 14.7449 194.672C14.7462 194.599 14.6778 194.648 14.646 194.592C14.6045 194.519 14.577 194.415 14.5421 194.321C14.5301 194.288 14.5867 194.281 14.5532 194.213C14.5295 194.164 14.4083 194.036 14.4407 193.94C14.4638 193.93 14.4932 193.928 14.5187 193.922C14.3798 193.861 14.3691 193.824 14.3333 193.671C14.3276 193.647 14.2789 193.642 14.277 193.596C14.2752 193.55 14.3359 193.523 14.3018 193.443C14.2896 193.415 14.2391 193.416 14.2192 193.373C14.1623 193.252 14.118 192.994 14.0776 192.892C13.998 192.69 13.8788 192.612 13.8306 192.424C13.8267 192.409 13.8867 192.42 13.8772 192.394C13.8676 192.369 13.7938 192.368 13.7897 192.363C13.7455 192.302 13.7707 192.126 13.745 192.092C13.6823 192.012 13.6918 192.113 13.6275 191.992C13.5663 191.877 13.5793 191.678 13.5459 191.552C13.5072 191.407 13.3698 191.412 13.4508 191.257C13.2921 190.896 13.1356 190.533 12.9776 190.171C13.0027 190.162 13.028 190.153 13.0533 190.144C13.0242 190.122 12.995 190.101 12.9661 190.079C12.9863 190.075 13.0065 190.072 13.0265 190.069C12.8991 189.963 12.8122 189.858 12.7659 189.692C12.765 189.688 12.8178 189.676 12.818 189.673C12.8124 189.633 12.7579 189.609 12.7538 189.574C12.7437 189.49 12.7978 189.316 12.6898 189.428C12.6435 189.24 12.5128 189.052 12.4683 188.873C12.449 188.796 12.5179 188.741 12.5079 188.705C12.4979 188.668 12.4383 188.714 12.4306 188.702C12.3848 188.635 12.3367 188.511 12.4064 188.467C12.3702 188.465 12.3333 188.462 12.2969 188.459C12.3837 188.433 12.2539 188.218 12.2309 188.157C12.2267 188.146 12.2625 188.13 12.2587 188.121C12.2156 188.031 12.149 188.032 12.0971 187.961C12.0788 187.936 12.161 187.952 12.1036 187.893C12.0986 187.887 12.0422 187.915 12.0071 187.83C11.9511 187.693 11.8199 187.443 11.781 187.269C11.7777 187.255 11.8575 187.269 11.8175 187.215C11.8032 187.195 11.7629 187.224 11.7404 187.171C11.6526 186.965 11.6123 186.724 11.482 186.531C11.5357 186.518 11.6235 186.569 11.5449 186.47C11.5322 186.454 11.4927 186.486 11.4877 186.479C11.4474 186.419 11.456 186.349 11.4091 186.285C11.3952 186.266 11.3577 186.276 11.3384 186.253C11.3099 186.22 11.3533 186.182 11.3132 186.146C11.2504 186.09 11.1981 186.099 11.2557 185.973C11.045 185.484 10.8147 185.005 10.6519 184.498C10.5661 184.367 10.4817 184.249 10.4099 184.106C10.3888 184.063 10.4494 184.028 10.3993 183.968C10.3882 183.954 10.2733 183.872 10.3959 183.802C10.3719 183.776 10.3634 183.756 10.3455 183.733C10.3349 183.761 10.3243 183.79 10.3132 183.817C10.2872 183.696 10.2036 183.624 10.1407 183.534C10.0946 183.468 10.1716 183.496 10.1474 183.454C10.1234 183.411 10.1024 183.396 10.1456 183.313C10.0506 183.301 10.0922 183.249 10.0605 183.167C10.0571 183.158 10.0064 183.12 9.99485 183.076C9.98654 183.044 10.0306 183.015 10.0032 182.97C9.99882 182.963 9.89729 182.886 9.87843 182.856C9.8489 182.809 9.87688 182.703 9.87357 182.693C9.82544 182.547 9.74222 182.518 9.79997 182.376C9.73233 182.38 9.66277 182.311 9.64032 182.241C9.61195 182.152 9.66152 181.93 9.52389 181.96C9.53961 181.837 9.50893 181.863 9.45891 181.746C9.41328 181.64 9.34435 181.336 9.30121 181.252C9.25826 181.169 9.20471 181.241 9.18089 181.21C9.14167 181.16 9.20681 181.169 9.19002 181.131C9.14241 181.023 9.09294 180.932 9.02674 180.838C9.06125 180.817 9.09578 180.795 9.13021 180.774C9.11569 180.774 9.10116 180.774 9.08664 180.773C9.0777 180.751 9.0665 180.726 9.05899 180.705C8.97004 180.947 9.00064 180.531 8.96177 180.426C8.92888 180.338 8.79186 180.225 8.73552 180.136C8.72179 180.115 8.76824 180.114 8.76534 180.11C8.73069 180.059 8.69997 180.061 8.67237 179.985C8.65786 179.944 8.69081 179.883 8.67562 179.844C8.56387 179.556 8.39946 179.303 8.27638 179.022C8.25544 178.975 8.29904 178.908 8.28353 178.867C8.26133 178.808 8.1963 178.793 8.17294 178.739C8.14968 178.685 8.17678 178.582 8.1524 178.549C8.12819 178.516 8.09661 178.603 8.08448 178.529C8.07892 178.496 8.14457 178.532 8.13001 178.493C8.08459 178.373 7.96148 178.227 7.96032 178.079C7.94981 178.09 7.94143 178.103 7.93199 178.115C7.88086 177.978 7.86215 177.846 7.80864 177.704C7.79002 177.655 7.71573 177.583 7.69598 177.535C7.67624 177.487 7.70812 177.448 7.69329 177.41C7.68729 177.394 7.65317 177.415 7.64951 177.404C7.60417 177.268 7.63929 177.168 7.57423 177.033C7.33593 176.537 7.09477 176.024 6.8558 175.52C6.84621 175.499 6.79261 175.505 6.77295 175.478C6.74261 175.436 6.78391 175.416 6.78281 175.409C6.77521 175.365 6.743 175.398 6.72031 175.343C6.67036 175.223 6.62442 175.015 6.57166 174.897C6.45003 174.624 6.31633 174.408 6.18502 174.146C6.17542 174.127 6.23751 174.117 6.22419 174.083C6.13102 173.842 6.05587 173.814 5.94777 173.512C5.83966 173.209 5.64107 172.636 5.50447 172.286C5.5046 172.286 5.50473 172.286 5.50486 172.285C5.35479 172.22 5.32199 172.068 5.35226 171.918C5.89188 172.486 6.04649 173.181 6.35748 173.899C6.6842 174.654 7.20865 175.385 7.50349 176.165C7.53118 176.238 7.48369 176.292 7.52153 176.348C7.52793 176.357 7.56275 176.311 7.58059 176.341C7.82431 176.75 7.91283 177.258 8.11976 177.673C8.17554 177.785 8.23426 177.781 8.28967 177.877C8.25806 177.869 8.22791 177.868 8.19706 177.863C8.31405 178.357 8.54058 178.806 8.72485 179.279C8.73308 179.3 8.68412 179.324 8.69149 179.347C8.70605 179.393 8.77883 179.412 8.79684 179.45C8.82031 179.5 8.78411 179.525 8.80612 179.57C8.81693 179.593 8.85239 179.57 8.8665 179.622C8.86766 179.626 8.82861 179.646 8.8475 179.677C8.89936 179.761 9.00976 179.931 9.05089 180.001C9.10341 180.091 9.07472 180.193 9.0858 180.231C9.11574 180.332 9.17687 180.305 9.21121 180.387C9.45592 180.974 9.61897 181.564 9.86964 182.164C9.88538 182.202 10.0125 182.313 10.0388 182.384C10.0474 182.408 10.0802 182.537 10.0863 182.556C10.1115 182.633 10.0965 182.715 10.1049 182.76C10.1209 182.846 10.223 182.908 10.2476 182.949C10.2908 183.02 10.3385 183.158 10.3501 183.191C10.3781 183.27 10.2869 183.278 10.3287 183.325C10.3412 183.339 10.3958 183.296 10.4198 183.354C10.4397 183.402 10.4013 183.441 10.4066 183.478C10.412 183.514 10.5091 183.545 10.5158 183.566C10.5505 183.677 10.5231 183.744 10.5693 183.862C10.6079 183.96 10.8276 184.395 10.8601 184.425C11.0053 184.561 10.8556 184.297 10.8516 184.28C10.831 184.189 10.8652 184.189 10.7746 184.128C10.9141 183.981 10.538 183.828 10.7128 183.676C10.5486 183.663 10.5923 183.576 10.5888 183.491C10.5841 183.374 10.5376 183.484 10.5061 183.41C10.4938 183.381 10.5199 183.27 10.4931 183.23C10.4662 183.19 10.4114 183.191 10.3843 183.133C10.3358 183.03 10.3225 182.936 10.3422 182.825C10.3105 182.819 10.2793 182.814 10.2477 182.809C10.2491 182.737 10.2503 182.664 10.2516 182.592C10.2338 182.611 10.2159 182.63 10.1982 182.649C10.1876 182.632 10.1772 182.616 10.1668 182.599C10.1749 182.526 10.1817 182.457 10.1902 182.382C9.99526 182.269 10.1243 182.272 10.1024 182.173C10.0805 182.074 9.98535 182.051 9.95538 181.98C9.91496 181.885 9.88755 181.845 9.85256 181.746C9.83225 181.689 9.86311 181.565 9.78405 181.689C9.70238 181.518 9.57169 181.292 9.55188 181.117C9.54587 181.065 9.6066 181.112 9.60769 181.102C9.61204 181.055 9.54138 181.045 9.53272 181.002C9.51836 180.929 9.50825 180.78 9.49668 180.723C9.48009 180.64 9.35656 180.551 9.34608 180.541C9.28766 180.486 9.34128 180.442 9.32791 180.422C9.25132 180.307 9.21412 180.29 9.3269 180.197C9.25759 180.188 9.10719 180.091 9.18754 180.02C9.10232 180.054 9.06979 179.936 9.01975 179.875C9.03897 179.852 9.05796 179.829 9.07737 179.806C8.86534 179.725 8.85594 179.391 8.79488 179.194C8.79327 179.189 8.72611 179.207 8.72854 179.172C8.72896 179.17 8.75877 179.161 8.75449 179.14C8.7401 179.072 8.71111 178.801 8.70018 178.773C8.66007 178.67 8.60515 178.672 8.5748 178.612C8.53477 178.532 8.57269 178.503 8.53414 178.427C8.51617 178.392 8.44596 178.382 8.43004 178.322C8.42055 178.286 8.46344 178.264 8.45581 178.236C8.4288 178.135 8.37157 178.076 8.3939 177.967C8.24378 178.003 8.33072 177.92 8.32383 177.873C8.29611 177.684 8.14798 177.496 8.09982 177.345C7.9499 176.871 7.86804 176.429 7.70167 175.975C7.67464 175.901 7.59662 175.913 7.56943 175.835C7.55727 175.8 7.59382 175.743 7.57127 175.687C7.55329 175.642 7.50043 175.588 7.47723 175.532C7.47102 175.517 7.5185 175.496 7.50972 175.474C7.44315 175.306 7.34132 175.158 7.24782 174.999C7.21313 174.94 7.26071 174.875 7.15436 174.932C7.17161 174.897 7.18563 174.864 7.20312 174.83C7.09759 174.774 7.14117 174.673 7.07499 174.565C7.06765 174.553 6.9546 174.497 6.98916 174.425C6.94824 174.438 6.91795 174.459 6.88162 174.473C6.8461 174.43 6.86026 174.335 6.85111 174.3C6.84197 174.265 6.78149 174.265 6.77684 174.255C6.75975 174.217 6.83084 174.198 6.83075 174.195C6.82175 173.991 6.79359 174.025 6.64808 173.96C6.61145 173.944 6.60997 173.732 6.51486 173.728C6.54673 173.713 6.5796 173.711 6.61189 173.701C6.59757 173.643 6.58331 173.585 6.56891 173.527C6.54246 173.551 6.51696 173.578 6.4899 173.602C6.47058 173.479 6.35823 173.417 6.32258 173.324C6.30233 173.272 6.37407 173.249 6.34622 173.225C6.34073 173.22 6.29828 173.25 6.28712 173.233C6.1963 173.101 6.21912 173.017 6.16787 172.867C6.14393 172.797 6.03424 172.773 6.04936 172.652C6.05088 172.641 6.08627 172.514 5.95365 172.499C5.97986 172.466 5.99083 172.442 6.01364 172.416C5.8034 172.363 5.97429 172.331 5.94397 172.153C5.92836 172.061 5.78269 171.79 5.72752 171.706C5.69443 171.656 5.63184 171.683 5.62528 171.675C5.58661 171.623 5.64766 171.597 5.61528 171.548C5.58289 171.498 5.48558 171.459 5.46896 171.401C5.45626 171.357 5.54599 171.359 5.4936 171.308C5.4825 171.297 5.43348 171.361 5.43135 171.284C5.43094 171.272 5.45683 171.138 5.46294 171.111C5.52637 171.149 5.64585 171.287 5.68734 171.341C6.40262 172.261 7.27644 174.351 7.70254 175.475C7.74224 175.579 7.70399 175.674 7.72617 175.743C7.74835 175.813 7.78544 175.731 7.80578 175.794C7.82593 175.857 7.80156 175.919 7.82157 175.978C7.95619 176.372 8.09055 176.771 8.23747 177.156C8.27565 177.256 8.35789 177.315 8.39533 177.405C8.40987 177.44 8.34669 177.467 8.3576 177.492C8.47417 177.758 8.63861 177.98 8.7421 178.25C8.785 178.362 8.78116 178.503 8.82177 178.615C8.8551 178.707 8.93074 178.785 8.96532 178.866C8.98423 178.91 8.94545 178.954 8.94827 178.971C8.95873 179.032 9.00986 178.988 9.02168 179.016C9.05408 179.095 8.99882 179.163 9.03494 179.234C9.04916 179.262 9.09317 179.24 9.11767 179.278C9.14869 179.328 9.0985 179.326 9.11276 179.364C9.11353 179.367 9.143 179.346 9.15268 179.365C9.21508 179.491 9.30797 179.641 9.35767 179.767C9.46061 180.027 9.50389 180.308 9.59168 180.553C9.61398 180.615 9.64973 180.581 9.6598 180.6C9.70811 180.688 9.67113 180.743 9.72983 180.832C9.73955 180.847 9.82543 180.888 9.83642 180.956C9.84237 180.993 9.82157 181.046 9.82491 181.079C9.82825 181.111 9.88416 181.093 9.8985 181.127C9.92474 181.19 9.87974 181.187 9.92371 181.274C9.94132 181.309 10.0426 181.408 10.0774 181.502C10.1342 181.656 10.1657 181.864 10.2394 182.043C10.2646 182.104 10.3529 182.16 10.393 182.255C10.4422 182.371 10.5187 182.59 10.5676 182.71C10.5926 182.771 10.5363 182.799 10.5369 182.808C10.5401 182.861 10.5972 182.815 10.6077 182.847C10.622 182.892 10.5908 182.952 10.6038 182.992C10.6121 183.018 10.6616 183.002 10.6643 183.007C10.7631 183.2 10.8319 183.378 10.9196 183.573C11.3895 184.624 11.8975 185.671 12.3112 186.743C12.346 186.832 12.2871 186.861 12.3291 186.935C12.3709 187.009 12.5326 187.03 12.4155 187.155C12.4454 187.145 12.466 187.136 12.4933 187.127C12.5196 187.305 12.6292 187.449 12.7001 187.605C12.7527 187.72 12.7912 187.825 12.833 187.935C12.8698 188.032 12.8158 188.044 12.9163 188.1C13.0464 188.529 13.2297 188.941 13.331 189.377C13.479 189.428 13.4491 189.548 13.4882 189.687C13.493 189.704 13.5252 189.67 13.542 189.72C13.5632 189.783 13.516 189.839 13.5621 189.94C13.5743 189.967 13.7248 190.14 13.7216 190.229C13.7183 190.318 13.7431 190.434 13.7425 190.525C13.7638 190.503 13.7827 190.479 13.8031 190.456C13.8237 190.493 13.8441 190.53 13.8646 190.566C13.8359 190.585 13.8071 190.603 13.778 190.622C13.817 190.632 13.8555 190.642 13.8949 190.652C13.7554 190.767 13.7868 190.696 13.8723 190.787C13.915 190.833 13.905 190.888 13.9444 190.937C13.9587 190.954 14.0111 190.948 14.0263 190.967C14.0635 191.016 13.9856 191.011 13.9999 191.044C14.0145 191.078 14.1058 191.097 14.0993 191.17C13.9463 191.16 14.0636 191.325 14.1657 191.293C14.175 191.315 14.1784 191.335 14.1912 191.357C13.9333 191.439 14.1572 191.479 14.21 191.51C14.2629 191.541 14.1953 191.567 14.2023 191.576C14.2222 191.604 14.2407 191.57 14.2505 191.591C14.315 191.73 14.3296 191.88 14.3839 192.021C14.3917 192.041 14.4221 192.008 14.4281 192.033C14.4342 192.058 14.4059 192.096 14.4229 192.129C14.4274 192.138 14.4618 192.127 14.4679 192.142C14.5926 192.446 14.6842 192.745 14.8086 193.056C14.8199 193.084 14.888 193.082 14.9085 193.136C14.929 193.191 14.9099 193.296 14.9337 193.364C14.9401 193.383 14.9912 193.367 14.9997 193.391C15.0287 193.473 15.0175 193.559 15.0458 193.646C15.0936 193.791 15.185 193.926 15.2156 194.082C15.2215 194.111 15.1787 194.124 15.1835 194.168C15.1917 194.244 15.2409 194.193 15.2546 194.204C15.2991 194.238 15.2255 194.285 15.2639 194.319C15.2699 194.325 15.313 194.296 15.3162 194.301C15.3627 194.39 15.2544 194.441 15.3543 194.514C15.327 194.627 15.2449 194.491 15.205 194.49C15.1079 194.488 15.0518 194.624 15.0445 194.694C15.0383 194.754 15.0891 194.732 15.0972 194.752C15.1403 194.854 15.2139 195.004 15.2223 195.092C15.2275 195.146 15.1707 195.069 15.164 195.1C15.1573 195.131 15.2021 195.131 15.1705 195.173C15.1388 195.215 15.0365 195.317 14.9737 195.332ZM11.6462 186.568C11.913 186.642 12.0663 187.069 12.1407 187.302C12.2024 187.495 12.1144 187.72 12.3229 187.588C12.2404 187.386 12.15 187.233 12.0681 187.017C12.0596 186.994 12.0254 186.853 12.01 186.806C12.0012 186.779 12.038 186.763 12.0229 186.728C12.0196 186.72 11.9534 186.698 11.9483 186.682C11.9304 186.627 11.9388 186.437 11.9275 186.416C11.8956 186.357 11.8478 186.405 11.8263 186.383C11.7547 186.308 11.8372 186.263 11.7724 186.186C11.7608 186.173 11.6636 186.152 11.6463 186.082C11.6394 186.054 11.6595 185.993 11.6492 185.973C11.5931 185.867 11.49 185.765 11.4564 185.66C11.4289 185.574 11.4965 185.572 11.486 185.525C11.4753 185.478 11.3857 185.453 11.3693 185.424C11.3431 185.379 11.3572 185.305 11.3504 185.29C11.2167 185.001 11.0634 184.758 10.9294 184.481C10.9829 184.685 11.0385 184.887 11.0906 185.09C11.1961 185.173 11.1171 185.143 11.128 185.222C11.1367 185.285 11.2446 185.256 11.2642 185.335C11.2642 185.335 11.2642 185.335 11.2641 185.335C11.2741 185.376 11.238 185.488 11.3016 185.558C11.3039 185.56 11.36 185.545 11.3873 185.606C11.4486 185.741 11.5634 185.94 11.6164 186.1C11.632 186.146 11.5724 186.16 11.5879 186.217C11.5992 186.258 11.6696 186.282 11.6836 186.348C11.7009 186.431 11.6277 186.505 11.7727 186.506C11.7306 186.529 11.6868 186.545 11.6462 186.568ZM13.5212 190.769C13.5208 190.781 13.4437 190.983 13.5725 190.879C13.5552 190.658 13.4361 190.461 13.3867 190.242C13.2707 190.372 13.3771 190.467 13.4474 190.606C13.4474 190.606 13.4474 190.606 13.4475 190.606C13.4508 190.612 13.4011 190.6 13.424 190.635C13.4351 190.653 13.523 190.7 13.5212 190.769Z" fill="#1A1918"/>
</svg>
