<svg width="1298" height="673" viewBox="0 0 1298 673" fill="none" xmlns="http://www.w3.org/2000/svg" preserveAspectRatio="none">
<path d="M49.2631 20.3325C3.61688 47.1449 33.5365 82.0308 33.5365 82.0308C33.5365 82.0308 6.99269 97.82 6.99269 120.425C6.99269 145.461 41.8426 156.139 41.8426 156.139C41.8426 156.139 9.61926 174.214 6.99269 195.987C4.51532 216.523 27.8815 237.215 27.8815 237.215C27.8815 237.215 6.99269 259.848 6.99269 277.663C6.99269 303.778 27.8815 311.534 27.8815 311.534C27.8815 311.534 10.3476 333.598 6.99269 351.382C2.48053 375.3 27.8815 403.419 27.8815 403.419C27.8815 403.419 6.99269 420.34 6.99269 453.461C6.99269 486.582 41.8426 492.602 41.8426 492.602C41.8426 492.602 0.70239 512.164 0.703125 546.573C0.70386 580.982 41.8426 604.384 41.8426 604.384C41.8426 604.384 -1.24425 650.289 49.2631 669.649C83.4762 682.763 130.854 617.532 130.854 617.532C130.854 617.532 150.768 657.073 173.323 657.073C209.4 657.073 223.18 617.532 223.18 617.532C223.18 617.532 249.125 657.073 284.807 657.073C321.968 657.073 333.456 612.261 333.456 612.261C333.456 612.261 370.102 657.073 405.919 657.073C441.736 657.073 459.645 625.198 459.645 625.198C459.645 625.198 468.513 657.663 520.892 664.18C583.364 671.952 611.843 628.69 611.843 628.69C611.843 628.69 621.53 669.649 662.527 669.649C710.857 669.649 733.976 628.69 733.976 628.69C733.976 628.69 772.504 669.649 798.754 669.649C828.825 669.649 835.321 628.69 835.321 628.69C835.321 628.69 868.469 680.987 899.722 669.649C919.702 662.401 937.966 628.69 937.966 628.69C937.966 628.69 953.557 669.649 984.74 669.649C1013.22 669.649 1040.61 625.198 1040.61 625.198C1040.61 625.198 1055.37 664.18 1083.49 664.18C1123.33 664.18 1140.38 628.69 1140.38 628.69C1140.38 628.69 1177.59 677.921 1205.86 669.649C1236.88 660.572 1215.74 602.491 1215.74 602.491C1215.74 602.491 1279.04 619.928 1282.66 579.817C1286.27 539.706 1254.34 528.528 1254.34 528.528C1254.34 528.528 1296.81 516.365 1296.81 480.266C1296.81 444.166 1268.5 435.578 1268.5 435.578C1268.5 435.578 1296.81 413.661 1296.81 381.954C1296.81 350.247 1268.5 333.691 1268.5 333.691C1268.5 333.691 1291.81 329.95 1296.81 303.304C1301.82 276.658 1268.5 260.404 1268.5 260.404C1268.5 260.404 1296.81 251.867 1296.81 224.655C1296.81 197.442 1268.5 185.33 1268.5 185.33C1268.5 185.33 1300.86 159.715 1296.81 133.493C1292.77 107.27 1268.5 106.68 1268.5 106.68C1268.5 106.68 1304.81 53.6488 1282.66 36.4201C1260.51 19.1913 1239.3 53.5802 1239.3 53.5802C1239.3 53.5802 1248.4 21.29 1213.64 20.3325C1178.89 19.375 1147.29 53.5802 1147.29 53.5802C1147.29 53.5802 1156.13 12.6399 1112.78 7.82008C1069.42 3.00027 1051.73 53.5802 1051.73 53.5802C1051.73 53.5802 1026.38 5.97546 1001.3 7.82008C978.343 9.50766 956.173 53.5802 956.173 53.5802C956.173 53.5802 932.078 6.43661 907.508 7.82008C884.531 9.1139 862.385 53.5802 862.385 53.5802C862.385 53.5802 842.825 12.458 820.799 7.82008C791.677 1.68802 754.441 53.5802 754.441 53.5802C754.441 53.5802 755.325 16.2236 711.934 16.2236C685.619 16.2236 648.266 53.5802 648.266 53.5802C648.266 53.5802 619.42 0.570427 590.544 0.570312C552.663 0.570162 526.165 53.5802 526.165 53.5802C526.165 53.5802 509.419 10.7734 488.118 7.82008C463.197 4.36486 435.917 53.5802 435.917 53.5802C435.917 53.5802 416.696 10.2969 394.331 7.82008C368.775 4.9899 340.359 53.5802 340.359 53.5802C340.359 53.5802 325.094 8.31368 304.082 7.82008C282.587 7.31514 264.268 53.5802 264.268 53.5802C264.268 53.5802 262.225 10.0361 235.069 7.82008C201.723 5.09895 191.715 53.5802 191.715 53.5802C191.715 53.5802 185.567 7.82012 150.129 7.82008C114.691 7.82003 101.466 53.5802 101.466 53.5802C101.466 53.5802 94.9093 -6.47984 49.2631 20.3325Z" fill="#FFA1DA"/>
<path d="M32.7179 82.4168C25.0857 72.6479 20.635 59.4474 24.2112 47.0772C27.7562 34.664 38.0494 25.7616 48.7566 19.4703C56.1129 15.1996 64.4237 11.713 73.3276 12.6046C81.2053 13.9956 80.2793 14.6294 83.1697 16.0565C88.6342 18.9729 94.1823 27.5511 94.6901 28.8027C98.5595 36.5134 96.785 33.6149 97.3021 34.6514C101.334 46.116 100.602 43.5778 102.37 53.4815L100.593 53.3278C100.753 52.7825 100.956 52.154 101.175 51.5079C106.358 36.7624 117.094 16.9528 135.781 9.58494C141.628 7.7606 139.817 7.60988 150.129 7.02706C151.31 7.02942 152.567 7.07365 154.044 7.21698C159.172 7.47224 170.163 10.6951 177.512 19.3675C185.044 27.7101 189.111 38.9484 190.893 45.9569C190.874 46.0675 190.325 44.2777 190.053 43.5706C191.151 47.1266 191.947 50.4371 192.434 53.4836L191.004 53.4335C194.994 40.2838 195.777 28.8638 214.489 12.6697C218.393 10.0984 222.522 7.43532 230.962 6.91284C232.629 6.849 233.893 6.91263 235.134 7.02268C239.783 7.98008 244.299 7.12809 253.255 17.449C256.755 22.2334 258.68 25.4172 261.471 34.0275C263.126 39.4794 264.52 46.1251 265.022 53.5448L263.565 53.3021C271.721 35.1952 284.101 8.64265 304.098 7.15603C308.826 7.28999 312.577 9.462 315.265 11.4315C330.457 24.5056 335.691 39.9072 341.038 53.3514L339.741 53.2188C348.335 39.5373 357.202 26.4868 372.644 14.5814C374.973 12.9186 369.924 16.6518 374.191 13.6245C378.488 10.577 383.647 8.3943 384.919 8.07723C387.476 7.27843 390.796 6.63637 394.416 7.04563C410.692 9.37821 422.164 28.7975 425.553 33.5084C434.787 48.7633 427.272 34.8968 436.639 53.2595L435.225 53.1971C435.74 52.2754 436.375 51.1931 437.057 50.0595C447.7 34.0825 463.472 6.89642 488.206 7.18823C493.342 7.93368 497.611 10.7003 501.031 13.5695C517.516 29.7712 520.875 40.431 526.779 53.3402L525.576 53.2856C527.204 50.1704 529.076 47.0253 531.372 43.4946C544.846 22.8994 563.843 0.674858 590.544 0.00082469C619.119 3.66629 634.892 31.0939 648.778 53.3016L647.854 53.1681C664.324 37.8086 682.264 22.3598 704.624 16.4626C704.423 16.5607 704.182 16.6694 703.949 16.7788C706.567 16.1534 709.239 15.7582 711.934 15.7404C715.309 15.7234 718.503 15.9095 721.832 16.3994C720.948 16.3031 720.04 16.2255 719.164 16.1712C738.545 17.0835 755.062 33.2183 755.062 53.5949L753.936 53.2179C759.297 45.958 765.518 38.629 772.759 31.3699C773.211 30.9187 772.102 32.1815 772.477 31.8094C777.672 26.5804 783.825 21.0839 789.133 17.3544C795.44 12.7423 805.087 7.80178 812.355 7.11415C819.568 6.4296 823.296 7.87567 817.417 6.80941C818.581 6.88191 819.752 7.0369 820.912 7.28292C841.24 13.5585 852.998 34.9303 862.88 53.3446L861.894 53.3357C869.482 38.9463 878.484 25.4664 889.543 15.8383C897.262 9.33244 902.892 7.69451 907.487 7.43544C909.812 7.34071 911.939 7.6187 914.275 8.25387C921.099 10.6227 917.683 9.36537 920.017 10.387C934.348 17.3926 948.283 39.306 949.486 41.5135C951.215 44.0813 952.932 46.7811 954.557 49.5089C954.33 49.2 955.193 50.6972 956.576 53.3741L955.768 53.3767C960.705 42.6764 979.495 16.3607 988.98 11.9213C990.912 10.7179 991.259 10.6393 992.789 9.87631C995.798 8.42775 998.657 7.65802 1001.27 7.461C1013.78 7.67051 1018.88 12.2161 1028.7 21.17C1032.63 25.3508 1026.73 18.7042 1036.37 29.8376C1037.06 30.9407 1037.32 29.862 1047.06 44.5628C1048.72 47.1869 1050.51 50.1144 1052.25 53.3044L1051.17 53.3864C1058.24 32.6249 1083.22 2.16619 1112.84 7.22633C1120.98 8.11658 1128.43 10.5095 1134.12 14.4821C1135.24 15.2709 1134.08 14.4929 1133.91 14.421C1133.67 14.4342 1134.87 14.6264 1139.35 19.1419C1142.1 22.7394 1141.93 20.3972 1146.29 30.6429C1148.8 37.9487 1149.2 45.9805 1147.84 53.6994L1146.87 53.197C1164.44 35.7457 1187.47 19.6123 1213.66 19.8117C1224.22 19.7605 1236.5 24.6064 1239.59 35.5767C1239.39 34.7918 1237.49 30.8461 1236.68 29.9669C1236.31 29.4961 1236.48 29.6438 1237.43 31.1934C1238.31 32.7497 1240.09 35.9038 1240.65 41.7734C1240.88 45.5241 1240.83 42.726 1240.88 44.4075C1240.91 47.6323 1240.56 50.7144 1239.8 53.7191L1238.87 53.3113C1244.41 45.182 1250.81 37.4297 1261.27 32.7913C1265.38 31.3566 1266.54 30.7495 1272.06 31.1332C1276.98 31.8278 1279.94 33.6366 1283.01 35.9685C1285.02 37.5681 1287.03 39.7075 1288.54 43.1508C1292.43 57.3288 1290.71 60.3787 1284.84 77.0969C1280.62 87.6082 1275.16 97.5875 1268.96 106.992L1268.51 106.129C1283.11 106.769 1295.92 118.938 1297.37 133.407C1299.78 154.995 1283.89 172.637 1268.86 185.779L1268.73 184.803C1284.06 192.021 1297.69 206.808 1297.39 224.655C1297.95 241.754 1284.07 255.845 1268.66 260.946L1268.75 259.896C1284.42 268.245 1301.08 283.855 1297.34 303.403C1296.69 306.835 1295.68 310.217 1294.23 313.408C1289.54 324.106 1279.71 331.876 1268.6 334.279L1268.8 333.178C1283.21 342.536 1295.11 357.511 1297.19 376.305C1297.42 378.513 1297.48 380.293 1297.47 381.954C1297.26 386.959 1297.39 390.793 1294 401.137C1293.8 404.602 1281.77 424.398 1278.72 426.248C1275.03 430.445 1272.32 433.085 1268.81 435.973L1268.65 435.101C1269.27 435.299 1269.91 435.545 1270.57 435.823C1269.93 435.546 1269.3 435.29 1268.65 435.077L1268.82 435.992C1271.6 433.805 1274.18 431.347 1276.51 428.928C1274.04 431.526 1271.55 433.921 1268.88 436.066L1268.68 434.988C1286.54 441.674 1296.37 458.315 1297.38 475.576C1297.52 477.578 1297.55 479.026 1297.55 480.266C1297.13 488.352 1297.77 481.253 1296.55 489.289C1294.27 498.289 1292.37 502.579 1284.46 511.085C1278.02 517.456 1273.2 521.745 1257.62 528.046C1257.15 528.217 1256.09 528.628 1254.51 529.111L1254.55 527.956C1258.54 529.402 1264.84 533.189 1269.33 537.686C1273.61 542.274 1275.19 543.617 1279.47 552.661C1280.77 553.786 1284.92 571.784 1283.34 579.879C1283.28 580.559 1283.21 581.155 1283.14 581.66C1282.56 586.885 1279.75 593.579 1275.36 597.482C1271.08 601.492 1266.5 603.053 1265.58 603.449C1242.39 610.248 1229.84 605.912 1215.59 603.027L1216.26 602.301C1217.36 605.488 1218.35 608.89 1219.28 612.608C1220.43 616.573 1224.94 633.698 1222.92 647.857C1222.27 655.316 1217.08 667.62 1206.02 670.189C1192.06 673.802 1180.5 665.422 1178.2 664.61C1161.23 653.132 1162.86 654.339 1146.25 636.743C1144.42 634.647 1142.22 632.07 1139.9 629.057L1140.93 628.954C1132.8 646.882 1105.3 666.549 1083.49 664.71C1075.87 664.718 1069.93 661.821 1066.44 659.693C1058.87 654.738 1057.66 652.558 1056.88 652.024C1056.2 651.354 1056.39 651.732 1054.04 649.033C1046.8 639.823 1050.71 644.803 1046.36 638.095C1043.87 633.931 1041.72 629.707 1040.01 625.425L1041.16 625.534C1031.9 639.609 1021.8 652.024 1007.95 661.928C1006.94 662.525 1005.86 663.134 1004.78 663.696C1003.84 664.3 1002.89 664.875 1001.91 665.426C997.821 667.634 992.819 669.434 988.496 669.953C997.004 668.596 999.185 666.711 998.034 667.431C996.84 667.877 991.96 670.277 984.74 670.326C967.13 671.845 948.413 650.789 943.537 640.978C941.517 637.556 939.316 633.441 937.467 628.88L938.435 628.944C929.989 643.834 917.068 662.003 902.837 669.097C898.372 671.075 901.412 669.642 900.493 670.038C900.306 670.111 900.121 670.181 899.939 670.247C889.251 673.051 886.138 673.299 872.307 666.768C865.014 662.772 858.608 657.164 852.98 651.482C846.169 644.551 840.096 637.002 834.816 629.01L835.912 628.784C832.369 647.649 820.707 670.565 798.754 670.29C771.879 667.33 752.068 647.075 733.466 629.17L734.586 629.034C733.472 630.936 732.182 632.8 730.866 634.584C724.871 642.608 718.515 648.512 711.85 653.559C702.204 660.595 695.284 664.133 684.496 667.346C678.116 669.186 669.842 670.329 662.527 670.248C657.428 670.241 652.854 669.512 649.799 668.782C642.463 666.672 654.846 670.888 641.654 666.192C635.835 663.475 646.148 668.19 638.973 664.797C626.733 658.78 615.666 644.819 611.254 628.829L612.348 629.023C604.299 640.156 593.188 648.655 582.737 654.208C583.755 653.696 585.173 652.93 586.394 652.234C566.076 664.216 543.839 667.591 520.823 664.736C516.405 664.181 512.055 663.424 507.59 662.354C497.7 660.417 480.752 652.882 473.509 645.828C466.182 639.11 463.533 635.191 460.108 627.982C459.309 626.079 459.237 625.794 459.073 625.354L460.162 625.488C460.064 625.685 459.86 626.055 459.454 626.695C444.964 646.915 430.32 656.59 405.919 657.541C403.721 657.541 401.449 657.374 399.103 657.029C372.179 652.108 350.854 632.597 333.059 612.586L333.953 612.388C327.618 634.514 310.25 658.167 284.807 657.623C258.53 657.253 237.269 638.075 222.689 617.854L223.734 617.726C215.74 638.548 197.045 658.204 173.323 657.694C165.417 657.656 158.508 653.192 152.89 648.225C149.71 645.329 147.583 643.336 143.604 638.479C137.665 630.874 137.724 630.236 136.964 629.202C132.939 622.838 133.87 624.604 130.189 617.867L131.456 617.97C131.004 618.59 130.31 619.511 129.644 620.375C114.735 639.365 85.829 671.452 59.1254 672.068C55.6528 672.095 52.2253 671.516 49.0193 670.285C35.6899 665.658 22.8417 654.387 24.0296 639.803C24.8904 625.857 32.6226 613.935 41.297 603.872L41.4726 605.034C22.9579 593.307 4.10403 576.725 0.2515 552.223C-0.107627 548.814 0.0576767 550.207 0.000647843 546.573C0.00670201 545.864 0.0246702 544.971 0.0956267 543.837C5.08613 512.475 23.1069 503.046 41.5191 491.922L41.7143 493.344C29.516 490.462 9.99161 482.873 6.54041 458.793C6.33406 457.066 6.23061 455.319 6.23093 453.461C6.10953 437.542 11.6829 417.303 27.4221 402.852L27.3399 403.908C15.9779 390.005 3.40562 371.958 6.30775 351.253C9.65611 336.166 18.393 323.105 27.3544 311.115L27.6471 312.165C13.7588 306.279 5.89893 291.343 6.33862 277.663C7.21596 262.332 16.4615 250.549 24.0389 240.726C24.0391 240.726 24.0393 240.726 24.0395 240.727C25.0905 239.411 26.1974 238.07 27.3776 236.75L27.4269 237.728C17.0599 227.837 4.71697 213.217 6.24104 195.897C7.29121 187.803 11.9118 181.019 16.7012 175.575C11.7249 181.345 7.38704 188.156 6.44283 195.921C5.12896 212.693 16.4193 226.679 27.6043 237.528L27.5742 236.931C17.7306 248.621 7.5681 261.785 6.65877 277.663C6.26461 291.85 14.5135 306.206 27.7803 311.806L27.654 311.353C18.6771 323.398 10.0487 336.35 6.72608 351.331C3.87778 370.967 15.6147 388.93 27.678 403.603L27.7089 403.206C13.9491 415.763 6.61001 434.656 6.70214 453.461C5.65673 473.171 22.9732 489.362 41.7906 492.903L41.7115 492.326C28.2437 499.354 15.6309 509.207 7.40353 522.56C3.04366 529.728 0.364582 538.077 0.403979 546.573C0.807873 572.036 21.1474 591.716 41.7194 604.6L41.6609 604.213C32.9197 614.335 25.0608 626.588 24.5122 640.446C23.7234 654.912 36.5882 665.365 49.2054 669.799C84.9839 677.075 110.272 642.239 130.885 617.555L130.818 617.55C140.519 634.303 152.431 654.868 173.323 657.052C196.825 657.547 215.235 638.01 223.118 617.511L223.162 617.386L223.234 617.497C236.756 636.301 255.711 653.617 279.147 656.675C281.181 656.912 283.044 657.009 284.807 657.014C295.738 656.718 301.881 654.639 310.604 648.315C312.26 646.986 307.944 650.373 312.966 646.227C322.893 637.378 329.544 625.059 333.347 612.233L333.402 612.016L333.544 612.189C352.41 633.182 376.007 655.487 405.919 656.979C428.038 657.308 448.326 643.381 459.601 625.173L459.661 625.067L459.693 625.185C469.18 650.096 496.717 661.345 520.897 664.136C522.17 664.294 523.428 664.43 524.669 664.545C548.257 665.722 552.403 664.811 572.052 658.287C568.631 659.659 566.366 660.446 563.331 661.364C582.374 656.061 600.046 644.678 611.869 628.707L611.812 628.697C617.646 651.203 638.324 670.78 662.527 669.714C691.454 670.163 718.851 653.03 734.034 628.723L733.928 628.735C750.558 645.183 768.665 662.237 791.784 668.875C795.121 669.587 796.234 669.736 798.754 669.819C799.457 669.827 800.259 669.813 801.216 669.741C810.529 669.165 818.284 663.577 823.134 657.32C829.239 648.882 829.856 647.033 833.109 638.007C834.251 634.183 834.227 634.567 835.394 628.701L835.259 628.729C835.81 629.585 836.563 630.701 837.43 631.943C837.928 632.609 838.093 633.2 842.261 638.578C851.837 652.42 881.86 679.013 899.731 669.676C900.524 669.387 901.283 669.066 901.96 668.753C919.428 659.292 927.563 644.583 931.924 638.805C934.701 634.627 936.619 631.402 938.079 628.751L937.845 628.736C941.55 637.036 942.8 639.879 950.346 650.099C958.629 660.825 970.818 669.838 984.74 669.679C1010.35 667.562 1027.13 644.741 1040.66 625.23L1040.55 625.22C1048.3 643.26 1061.86 663.78 1083.49 664.279C1107.25 664.783 1129.43 649.558 1140.51 628.751L1140.27 628.775C1156.9 648.048 1177.19 673.975 1205.91 669.815C1216.97 667.093 1222.33 655.136 1222.79 644.512C1223.83 637.995 1221.09 616.716 1215.78 602.477L1215.73 602.531C1218.51 603.26 1221.29 603.825 1223.6 604.253C1228.24 605.824 1253.55 607.017 1257.22 605.266C1272.95 603.3 1282.23 590.408 1282.61 581.929C1282.71 581.252 1282.79 580.554 1282.86 579.835C1285.01 563.779 1277.71 546.951 1271.61 540.926C1267.71 536.394 1261.53 531.299 1254.37 528.463L1254.36 528.594C1266.25 524.914 1276.38 517.744 1279.42 515.093C1285.48 509.946 1286.95 507.622 1288.3 506.032C1289.54 504.343 1290.68 503.21 1293.18 498.048C1294.27 494.886 1293.89 498.404 1296.41 486.8C1296.78 484.329 1296.89 482.197 1296.91 480.266C1296.89 474.643 1296.53 471.092 1295.38 466.144C1294.21 459.334 1287.43 448.531 1284.17 445.791C1279.05 440.554 1273.76 437.363 1268.53 435.48L1268.56 435.659C1277.06 428.368 1284.18 421.164 1291.31 406.662C1293.34 402.248 1297 393.379 1297 381.954C1297.8 364.076 1284.52 343.254 1268.57 333.574L1268.52 333.826C1287.48 329.641 1294.08 313.196 1294.77 310.974C1296.02 307.595 1296.53 305.068 1296.86 303.312C1297.47 298.876 1297.35 299.767 1296.8 303.301C1296.09 307.48 1293.66 315.304 1289.04 320.909C1284.59 326.635 1278.77 329.734 1277.91 330.198C1274.01 332.263 1270.91 333.189 1268.5 333.655L1268.39 333.671L1268.48 333.723C1274.45 337.888 1276.41 338.725 1284.86 348.568C1288.97 353.83 1296.94 366.665 1296.72 381.954C1297.13 401.719 1284.14 419.495 1278.94 424.958C1275.64 428.956 1272.2 432.493 1268.47 435.54L1268.4 435.597L1268.49 435.624C1276.49 438.53 1283.55 443.96 1288.9 451.99C1294.27 460.933 1293.77 462.569 1294.16 462.978C1294.25 463.499 1294.68 463.203 1296.06 470.738C1296.38 472.767 1296.77 476.247 1296.74 480.266C1296.92 487.879 1293.85 497.078 1290.63 502.02C1285.69 509.496 1283.12 512.627 1273.19 519.528C1266.97 523.557 1260.6 526.52 1254.33 528.49L1254.21 528.524L1254.33 528.565C1266.01 533.455 1274.67 542.615 1279.07 553.622C1280.36 556.669 1281.28 559.66 1281.94 562.874C1282.97 568.423 1283.09 574.151 1282.55 579.808C1281.97 586.701 1279.08 593.412 1273.76 597.791C1275.31 596.54 1276.71 595.081 1277.89 593.489C1275.8 596.487 1272.96 598.949 1269.78 600.771C1258.94 606.61 1246.65 606.649 1234.3 605.492C1225.6 604.666 1219.73 603.371 1215.77 602.37L1215.54 602.305L1215.62 602.535C1219.26 613.928 1218.85 612.269 1221.37 626.049C1223.7 644.23 1223.66 657.987 1211.62 666.918C1209.73 668.137 1207.8 668.951 1205.82 669.531C1190.49 672.629 1181.24 666.453 1167.45 656.249C1158.3 649.213 1145.22 634.609 1156.18 646.33C1150.89 641.123 1145.47 635.187 1140.4 628.681L1140.38 628.661L1140.37 628.683C1129.83 649.287 1105.82 665.096 1083.49 664.18C1075.06 664.219 1067.66 660.457 1062.27 656.063C1055.1 649.848 1064.72 658.058 1063.56 656.918C1057.2 652 1052.74 646.742 1048.24 639.753C1045.87 635.996 1043.01 630.855 1040.74 625.148L1040.64 624.882L1040.49 625.124C1033.52 636.094 1023.68 647.226 1018.29 652.198C1009.66 661.168 993.23 670.451 984.74 669.521C982.641 669.53 981.251 669.368 980.732 669.314C966.815 666.937 964.289 662.755 960.64 660.398C941.91 642.929 941.648 635.532 938.275 628.572L938.019 627.897L937.674 628.532C937.674 628.531 937.66 628.554 937.635 628.598C935.011 634.735 918.581 657.522 912.691 661.198C912.64 661.205 907.76 666.476 899.702 669.595C892.941 672.283 884.214 671.23 878.253 668.756C875.796 667.739 873.429 666.494 871.172 665.109C859.875 658.752 846.404 645.369 835.325 628.688C832.077 647.353 819.147 670.44 798.754 669.55C792.868 669.505 787.386 667.632 782.571 665.536C781.697 665.119 779.965 664.646 774.836 661.739C774.518 661.542 775.056 661.839 771.677 659.786C764.393 655.681 745.901 641.116 734.14 628.536L733.931 628.314L733.781 628.58C728.786 636.719 723.201 642.213 721.82 643.671C706.58 658.057 702.573 659.212 690.968 664.329C677.389 669.022 673.32 669.067 662.527 669.418C660.648 669.414 658.667 669.338 656.347 669.092C649.028 668.143 641.895 666.809 632.36 659.814C626.94 655.415 626.629 654.71 623.101 650.477C617.571 643.336 614.094 635.92 612.079 628.634L611.95 628.086L611.64 628.556C606.417 635.793 600.114 641.676 592.441 647.138C588.943 650.046 581.711 654.341 573.678 657.566C558.169 664.026 539.11 666.256 520.928 663.889C501.062 661.628 482.277 653.845 471.237 642.489C466.304 637.526 462.083 631.62 459.918 625.123L459.736 624.457L459.398 625.059C447.8 643.708 427.445 657.055 405.919 656.707C376.052 655.135 352.766 633.055 333.836 611.951L333.222 611.199L332.981 612.139C326.692 633.792 309.835 657.037 284.807 656.508C276.754 656.517 268.738 654.394 261.37 650.857C248.322 643.915 245.365 641.525 234.337 630.535C230.885 626.835 227.447 622.823 223.63 617.237L223.031 616.323L222.671 617.355C221.786 619.721 220.591 622.311 219.117 625.098C214.916 633.23 206.805 644.125 196.858 649.994C194.229 651.514 193.976 651.642 189.865 653.364C184.584 655.457 178.983 656.468 173.323 656.466C152.983 654.367 140.992 634.025 131.328 617.293L130.936 616.515L130.424 617.22C125.591 623.729 120.168 630.164 114.539 636.246C105.794 645.665 99.5732 650.579 101.39 649.358C97.6945 652.576 93.9722 655.542 90.219 658.182C78.6487 666.117 66.2028 674.473 49.4464 669.171C45.9987 667.837 42.6803 666.322 39.2057 664.144C38.2411 663.502 33.6288 660.792 30.0292 655.986C26.2279 651.209 24.7001 644.073 25.2339 639.051C25.1937 638.331 25.0262 639.895 24.9681 639.598C25.0078 629.281 33.2527 615.515 37.4319 610.25C39.1527 607.95 40.6865 606.068 42.0342 604.564L42.2626 604.32L41.9725 604.155C39.5352 602.754 37.859 601.638 36.8431 600.949C30.5057 596.46 32.1237 597.296 31.6339 596.966C17.4321 585.609 12.9777 578.501 9.48331 573.332C6.30383 567.952 3.54612 564.057 1.41303 553.303C1.23415 552.206 0.875227 549.807 0.875206 546.573C-0.842442 533.087 14.5776 512.014 19.4116 508.556C19.703 508.372 18.2571 509.846 17.8841 510.328C24.9038 503.343 33.1599 497.427 41.9991 492.931L43.0363 492.438L41.9046 492.243C40.6976 492.013 39.474 491.693 38.2608 491.337C39.3957 491.704 40.6632 492.072 41.8883 492.337L42.7219 492.482L41.9579 492.845C40.8531 493.345 39.6879 493.94 38.7472 494.429C39.7941 493.845 40.9046 493.25 41.9175 492.76L42.4142 492.524L41.8723 492.43C21.0846 488.216 6.17861 471.594 7.06409 453.461C7.06411 453.377 7.06426 453.292 7.06456 453.208C7.43344 442.474 7.78928 443.8 8.87415 437.61C9.14859 436.407 8.5382 438.428 9.41844 434.857C13.4362 420.21 19.9367 410.815 27.929 403.478L27.9908 403.428L27.9375 403.369C21.2112 395.315 14.678 386.543 9.51424 372.759C7.15578 365.92 5.72408 358.993 7.05703 351.394C8.3904 344.409 11.569 337.086 16.4264 328.738C17.0419 327.655 21.9722 319.388 27.995 311.624L28.1194 311.468L27.9319 311.398C23.743 309.668 19.9456 306.81 17.2004 304.118C14.5282 301.296 12.6514 298.411 11.3712 295.823C6.98067 287.133 7.18806 281.938 7.04392 277.663C7.50037 271.167 8.07584 265.04 19.4285 248.325C21.3537 245.61 24.2511 241.694 28.0922 237.409L28.2908 237.194L28.0716 237C18.8249 228.18 5.6207 212.705 7.25192 196.019C9.31413 182.524 19.3915 173.854 24.1603 169.281C32.6335 161.972 32.672 162.332 34.233 161.099C37.6308 158.709 39.9621 157.283 41.8747 156.197L42.0087 156.122L41.8618 156.076C37.962 154.696 35.5557 153.811 29.2024 150.423C19.6344 145.406 8.02295 135.178 7.12674 123.338C6.99022 122.074 6.97477 121.157 6.97977 120.425C7.0283 118.309 7.12979 118.126 7.25811 117.09C7.46673 116.083 7.43822 114.12 9.3438 108.978C9.83421 107.748 9.33651 108.873 9.35656 108.747C9.45436 108.665 9.6006 107.057 13.2498 101.34C13.7039 98.9466 29.3674 83.8255 33.6318 82.1911C25.8264 86.5698 6.2666 104.301 7.39083 120.425C7.39653 123.619 8.00759 126.37 8.68624 128.41C13.308 141.812 27.4421 150.555 41.9999 155.626L43.2 155.994L42.1053 156.608C28.0647 165.499 11.1251 177.261 7.63168 196.064C6.23287 211.448 16.9121 225.668 28.3573 236.677L28.9058 237.163L28.4089 237.701C18.9384 248.913 8.66713 262.12 7.76958 277.663C7.37284 291.276 15.2536 305.287 28.1676 310.763L29.2304 311.158L28.525 312.045C19.7424 323.824 11.0878 336.821 7.84048 351.542C5.04227 370.29 16.5509 388.313 28.553 402.813L29.1931 403.522L28.4511 404.122C15.0803 416.339 7.79602 435.036 7.9296 453.461C6.9444 472.768 23.8752 488.21 42.0063 491.654L44.9918 492.17L42.2556 493.471C21.9694 504.137 1.73171 522.648 1.68681 546.573C2.09091 571.698 22.4848 591.061 42.3352 603.518L43.435 604.144L42.5691 605.066C33.7496 615.231 25.9494 627.72 25.7153 641.034C25.2967 654.836 37.57 664.386 49.621 668.715C66.6215 674.677 83.4505 663.168 96.207 652.977C109.255 642.152 120.453 629.649 130.053 616.951L131.008 615.637L131.737 617.087C141.652 634.635 154.377 654.504 173.323 656.098C184.018 656.18 194.048 652.229 201.756 646.007C213.054 636.694 218.665 626.378 222.384 617.255L222.947 615.642L223.884 617.07C226.254 620.586 228.854 623.835 231.522 626.902C240.89 636.96 232.84 628.603 241.846 637.184C251.197 645.328 258.987 650.442 270.007 654.003C274.798 655.471 279.793 656.284 284.807 656.285C309.288 656.911 326.442 633.957 332.74 612.077L333.104 610.66L334.029 611.793C352.967 632.955 376.594 654.979 405.919 656.386C427.135 656.7 446.69 643.725 458.105 626.434C458.444 625.911 458.781 625.375 459.069 624.874L459.858 623.471L460.282 625.024C467.296 642.974 482.225 652.515 498.633 658.385C505.418 660.61 505.678 660.698 510.6 661.828C514.039 662.558 517.451 663.12 520.969 663.557C555.317 668.37 591.028 655.483 611.229 628.286L612.166 626.865L612.557 628.521C616.806 643.375 626.584 657.689 641.274 664.455C647.768 667.477 655.069 668.925 662.527 668.93C678.501 669.087 694.542 664.003 707.202 655.404C717.729 648.347 727.029 638.75 733.392 628.36L733.841 627.567L734.465 628.231C738.316 632.233 742.316 636.018 746.207 639.527C752.938 645.558 756.683 648.563 759.261 650.575C768.388 657.395 765.293 654.886 770.124 658.118C781.133 664.887 788.402 668.611 798.754 669.105C801.181 669.109 803.702 668.856 806.392 668.139C811.852 666.244 811.465 666.821 818.077 661.622C825.535 653.94 822.868 656.784 827.024 650.33C827.235 649.915 826.51 651.243 828.382 647.603C831.191 641.9 833.411 635.372 834.659 628.585L834.937 626.83L835.888 628.331C847.981 646.128 864.929 665.078 883.863 669.76C889.036 670.962 894.5 670.806 899.478 668.977C916.893 661.383 927.96 644.134 937.394 628.38L938.07 627.134L938.573 628.459C946.93 648.173 962.55 668.981 984.74 669.087C990.004 669.095 995.152 667.534 999.85 665.241C1010.68 659.243 1007.54 660.401 1010.78 658.182C1024.98 646.194 1029.44 640.571 1040.11 624.889L1040.74 623.872L1041.16 624.99C1041.15 624.977 1041.19 625.073 1041.21 625.11C1041.22 625.141 1041.23 625.178 1041.25 625.221C1041.28 625.303 1041.34 625.436 1041.36 625.495C1041.42 625.639 1041.52 625.878 1041.58 626.028C1042.82 629.049 1048.54 641.337 1057.31 650.583C1061.92 655.621 1068.36 660.226 1073.89 662.006C1078.16 663.358 1079.79 663.454 1083.49 663.52C1084.59 663.51 1085.85 663.481 1087.4 663.388C1099.91 661.661 1096.92 663.619 1113.36 655.812C1118.46 653.247 1132.4 642.792 1139.74 628.383L1140.25 627.336L1140.95 628.263C1143.47 631.517 1146.22 634.738 1148.85 637.664C1162.36 651.508 1181.05 673.371 1205.68 669.045C1218.57 665.86 1222.65 650.836 1222.16 638.758C1221.98 628.755 1219.74 616.377 1215.07 602.733L1214.6 601.445L1215.93 601.809C1219.4 602.712 1223.11 603.45 1226.95 604.066C1235.55 605.374 1247.17 606.641 1259.04 604.086C1271.06 602.106 1281.7 591.771 1281.96 579.754C1282.76 571.276 1281.82 563.379 1279.85 557.26C1275.59 545.659 1273.92 545.422 1273.33 544.114C1267.35 536.77 1269.67 539.779 1264.97 535.567C1261.57 532.857 1257.9 530.592 1254.15 529.096L1252.36 528.47L1254.18 527.95C1258.07 526.774 1261.83 525.191 1265.39 523.415C1269.9 521.09 1270.48 520.476 1271.44 519.915C1285.91 511.233 1296.53 496.474 1296.15 480.266C1296.7 461.856 1286.47 442.76 1268.31 436.225L1267.05 435.845L1268.09 435.044C1271.07 432.642 1273.98 429.782 1276.65 426.851C1287.83 414.563 1296.17 398.77 1296.12 381.954C1296.36 362.512 1284.15 344.603 1268.14 334.307L1266.42 333.302L1268.39 332.987C1282.57 330.078 1293.86 317.548 1296.1 303.169C1299.72 284.576 1283.57 269.256 1268.17 261.078L1266.45 260.239L1268.29 259.687C1283.22 254.7 1296.61 241.097 1296.05 224.655C1296.36 207.485 1283.11 193.078 1268.19 186.05L1266.98 185.532L1268.02 184.715C1282.86 171.802 1298.42 154.149 1296.02 133.615C1294.59 119.595 1282.37 108.154 1268.48 107.492L1266.99 107.455L1267.83 106.222C1274.82 95.5839 1280.99 84.1536 1285.24 72.1246C1289.15 60.6266 1292.46 45.2619 1282.15 37.0706C1267.22 24.3664 1248.64 40.3314 1240.01 54.0141L1238.51 53.356C1240.35 45.5943 1240.08 36.5817 1235.25 30.0977C1230.42 23.5447 1221.7 21.342 1213.62 21.1563C1191.69 20.8023 1171.68 32.999 1155.35 47.0375C1152.15 49.8387 1149.73 52.1651 1147.87 54.1169L1145.9 56.2445L1146.51 53.4131C1147.62 44.7835 1148.35 40.9881 1144.54 29.5715C1139.34 15.6715 1124.61 9.81904 1112.69 8.57636C1111.39 8.41213 1110.14 8.29596 1108.92 8.21993C1108.5 8.26792 1108.54 8.31367 1108.11 8.36066C1081.41 7.23157 1061.38 30.878 1052.53 53.8611L1051.89 55.694L1050.98 53.9799C1047.58 47.8183 1043.7 41.8228 1039.55 36.1457C1029.28 22.7069 1017.37 8.49578 1001.36 8.68194C995.642 9.1194 990.363 12.1608 985.763 15.8139C971.475 28.9784 973.045 28.4013 963.606 42.4256C961.244 46.1838 958.98 50.0527 956.952 53.9721L956.178 55.5084L955.396 53.977C944.266 35.0048 930.88 10.5684 907.555 8.64228C885.801 12.7564 873.586 35.5272 863.088 53.9305L862.368 55.3754L861.675 53.9177C851.98 35.8745 840.696 14.9342 820.649 8.53384C807.047 6.00851 794.263 14.5848 783.855 22.9584C773.607 31.7605 764.513 41.5163 755.067 54.0296L753.611 56.0586L753.67 53.562C753.544 46.728 751.633 38.9921 746.905 32.1864C745.946 30.8474 745.949 30.9269 745.464 30.3466C744.942 29.8275 744.112 28.4389 740.329 25.3547C732.081 19.4346 725.796 17.2687 711.934 16.8927C709.199 16.8866 706.14 17.3018 702.777 18.201C696.501 17.5427 661.693 40.4218 651.272 51.7104C650.439 52.4863 649.564 53.313 648.775 54.0886L648.094 54.7689L647.634 53.9239C640.39 40.8448 628.589 24.327 617.691 14.4578C619.322 16.0133 621.314 18.0443 622.994 19.9011C617.559 14.2118 611.533 8.88938 604.623 5.21556C603.666 4.63314 602.649 4.07021 601.679 3.58277C598.135 2.12439 594.354 1.21288 590.544 1.26987C589.83 1.27988 589.12 1.30905 588.414 1.35678C583.49 1.55931 583.551 1.71072 582.119 1.94551C580.772 2.40267 577.515 2.3118 567.774 7.57325C558.214 13.1715 551.624 19.3001 544.196 27.949C541.561 31.1007 540.005 33.2497 537.36 36.9264C531.065 46.1035 534.611 40.6377 530.901 46.4791C529.623 48.5834 528.174 51.0821 526.76 53.8773L526.091 55.2147L525.546 53.8223C523.35 48.5274 520.315 42.1696 516.373 35.2616C519.633 40.8595 516.907 35.3539 512.501 28.7157C508.219 21.9579 501.187 15.0999 500.351 14.7541C496.99 11.9642 493.831 9.81432 489.19 8.7527C490.306 8.88336 489.735 8.59562 488.052 8.29778C482.766 6.28907 469.117 13.2451 464.373 18.2602C457.584 24.5022 457.986 24.397 456.47 25.9385C452.348 30.6221 455.381 27.2367 452.56 30.5783C446.481 37.9961 441.137 45.828 436.485 53.8952L435.852 55.0366L435.323 53.8439C427.133 37.2684 417.749 19.6001 401 10.3745C397.268 8.85068 400.621 10.0477 396.128 8.77397C395.506 8.63897 394.885 8.53461 394.26 8.46186C390.276 8.02584 385.943 8.64363 380.488 11.3138C378.817 12.1695 378.307 12.493 375.829 14.0755C361.013 24.2479 350.204 39.0173 340.901 53.8969L340.205 55.0866L339.765 53.7807C332.468 35.9592 324.438 12.3989 304.068 8.4151C283.109 11.5162 273.469 35.3323 264.797 53.7899L263.698 53.6069C263.563 51.3176 263.278 48.9216 262.929 46.6072C261.919 41.0157 261.36 36.3899 256.986 26.2885C253.864 19.0704 246.197 8.97634 235.021 8.40566C231.19 8.0709 227.369 8.45877 223.952 9.49545C220.544 10.6425 219.622 11.0605 215.623 13.642C202.506 23.3448 196.456 37.5002 192.257 53.692L191.167 53.6538C191.17 53.6772 191.145 53.5018 191.143 53.4919C187.907 32.8016 174.139 7.59196 150.129 8.37768C142.966 8.34267 135.926 10.3951 129.904 14.0901C125.323 17.1516 125.807 16.3883 120.052 21.9466C110.957 32.3536 114.715 28.7174 112.992 30.8948C108.072 38.6095 106.64 41.1985 103.369 49.4097C102.883 50.7196 103.683 48.8792 103.242 50.0613C102.766 51.3487 102.317 52.6513 101.993 53.7324L100.922 53.6397C97.9383 39.0969 98.8305 35.4698 87.3713 21.1081C84.2413 17.9923 82.8265 17.4075 83.1567 17.5194C83.4373 17.6777 85.259 18.8164 87.249 20.7697C91.4117 24.5677 95.1298 32.0319 95.7066 33.4305C98.6308 40.6886 92.4867 20.1727 80.5819 15.3658C75.9203 13.2518 73.2705 13.3201 71.5265 13.2078C69.7969 13.1798 68.7354 13.2503 66.7892 13.4917C61.1041 14.2262 54.9424 16.7489 49.1621 20.1606C32.6906 28.4758 20.967 47.9592 23.9107 60.202C24.6379 65.0624 24.2995 63.1256 23.9007 60.575C23.5279 58.0165 23.5752 54.8118 23.5808 57.3457C23.7961 62.337 24.6275 65.5357 26.3535 70.3443C27.8445 75.2988 33.939 83.9884 32.7179 82.4168ZM1226.97 22.5453C1223.4 21.1326 1218.84 20.2797 1213.65 20.185C1193.6 19.2445 1166.99 33.3739 1147.35 53.6367L1147.14 53.8607L1147.2 53.5626C1149.17 42.207 1147.32 29.5558 1140.15 20.8999C1132.99 12.1318 1122.02 8.91164 1112.77 7.89443C1109.38 7.51614 1106.21 7.47612 1103.15 7.71567C1083.49 9.07435 1069.61 23.3471 1062.82 32.9198C1055.84 42.8212 1053.72 48.8928 1055.57 45.3597C1066.92 22.526 1087.91 4.6751 1112.76 7.97517C1126.82 9.08402 1142.81 17.3129 1146.51 33.887C1147.17 36.1147 1148.8 44.716 1147.11 53.5424L1146.97 54.1823L1147.42 53.7015C1153.09 47.7732 1159.82 42.3927 1163.47 39.6947C1167.77 36.5808 1167.92 36.4645 1174.07 32.667C1175.38 31.7877 1183.03 27.551 1186.02 26.3938C1191.31 24.0216 1202.97 20.1127 1213.64 20.6174C1223.01 20.6348 1230.44 24.6407 1231.91 26.0613C1236.71 30.0164 1237.09 32.259 1237.68 33.0525C1238.13 33.9852 1238.33 34.0703 1239.13 36.6526C1241.08 44.2441 1240.06 49.3425 1239.11 53.5256L1239.48 53.6858C1242.75 48.9595 1245.7 44.5425 1253.67 38.0723C1255.8 36.677 1266.25 27.3722 1279 34.1253C1280.11 34.7289 1281.32 35.5073 1282.59 36.5053C1286.92 39.6158 1289.04 45.7975 1289.34 48.9382C1291 69.625 1278.62 90.4382 1268.45 106.644L1268.38 106.741L1268.5 106.744C1270.7 106.86 1272.86 107.29 1274.89 107.859C1283.09 110.41 1285.27 113.084 1286.88 114.355C1288.38 115.823 1289.31 116.514 1291.81 120.24C1294.28 124.076 1295.92 128.879 1296.65 133.517C1297.4 138.022 1296.94 142.269 1296.31 145.243C1294.41 155.076 1287.18 165.075 1285.35 167.45C1280.36 174.098 1274.6 180.084 1268.41 185.219L1268.23 185.366L1268.45 185.459C1283.9 192.74 1297.02 207.438 1296.72 224.655C1297.28 241.48 1283.69 255.277 1268.49 260.367L1268.39 260.396L1268.48 260.44C1281.99 267.776 1296.07 279.543 1297.29 296.339C1296.18 279.803 1282.23 267.798 1268.53 260.342L1268.52 260.471C1283.78 255.426 1297.49 241.509 1296.95 224.655C1297 217.347 1294.79 210.11 1290.81 204.009C1284.28 194.853 1281.32 193.728 1280.06 192.41C1278.57 191.301 1278.07 190.435 1271.68 186.703C1270.58 186.094 1269.57 185.577 1268.58 185.14L1268.63 185.491C1275.32 179.642 1278.22 177.097 1286.49 166.228C1286.48 166.238 1286.47 166.248 1286.46 166.259C1290.2 160.869 1299.11 148.412 1296.97 133.469C1296.63 131.265 1296.13 129.141 1295.42 127.035C1295.32 126.772 1295.16 126.231 1294.35 124.39C1293.47 122.607 1292.13 119.152 1287.57 114.764C1282.95 110.4 1276.08 107.204 1268.5 106.672L1268.51 106.685C1275.15 96.579 1281.67 84.7402 1286.06 72.2065C1290.25 60.1937 1292.9 44.2741 1282.64 36.4409C1281.22 35.3382 1279.78 34.4208 1278.28 33.6799C1274.03 31.7005 1272.06 31.7016 1270.01 31.5474C1267.97 31.5513 1265.51 31.3981 1260.39 33.5834C1253.15 36.9098 1246.08 43.3785 1239.27 53.5578L1239.35 53.5918C1239.39 53.42 1239.45 53.1826 1239.5 52.9902C1242.52 37.6005 1238.06 28.019 1228.25 23.4222C1227.48 22.9586 1227.94 23.0558 1226.97 22.5453ZM595.228 0.968733C594.75 0.883286 592.978 0.505337 590.544 0.481894C581.551 -0.402063 566.157 7.17345 572.618 4.45483C578.198 2.02997 584.305 0.557905 590.544 0.579913C617.882 3.83661 634.349 31.1757 648.201 53.6159L648.248 53.7035L648.319 53.6329C654.444 47.6694 660.967 42.0907 667.744 36.9076C662.439 40.7971 655.58 46.3342 648.194 53.5085L648.355 53.5318C642.348 42.9678 634.336 30.8215 623.371 19.1783C623.363 19.1692 623.354 19.1601 623.345 19.151C622.368 18.1534 626.51 22.2666 620.942 16.6128C618.273 14.0495 607.265 3.20858 595.228 0.968733Z" fill="#1A1918"/>
</svg>
