<svg width="647" height="416" viewBox="0 0 647 416" fill="none" preserveAspectRatio="none" xmlns="http://www.w3.org/2000/svg">
<path d="M25.547 13.5068C2.83275 30.0567 17.7212 51.5901 17.7212 51.5901C17.7212 51.5901 1.38281 61.0824 1.38281 75.0354C1.38281 90.4891 17.7212 92.8794 17.7212 92.8794C17.7212 92.8794 4.5126 98.5901 4.5126 121.93C4.5126 141.034 18.6017 145.949 18.6017 145.949C18.6017 145.949 4.5126 161.348 4.5126 172.344C4.5126 188.463 12.0296 194.28 12.0296 194.28C12.0296 194.28 6.18207 206.87 4.5126 217.847C2.26728 232.61 18.6017 252.043 18.6017 252.043C18.6017 252.043 1.38281 259.186 1.38281 279.63C1.38281 300.074 18.6017 314.592 18.6017 314.592C18.6017 314.592 1.38245 317.09 1.38281 338.329C1.38318 359.568 25.549 369.483 25.549 369.483C25.549 369.483 4.36673 394.585 29.5 406.535C46.525 414.63 66.1478 382.128 66.1478 382.128C66.1478 382.128 76.322 410.921 87.5462 410.921C105.498 410.921 112.826 389.015 112.826 389.015C112.826 389.015 123.479 410.921 141.235 410.921C159.727 410.921 167.701 385.762 167.701 385.762C167.701 385.762 169.326 410.921 196.392 410.921C223.458 410.921 229.76 386.86 229.76 386.86C229.76 386.86 245.45 410.921 267.441 410.921C289.433 410.921 305.496 389.015 305.496 389.015C305.496 389.015 310.316 414.297 330.717 414.297C354.767 414.297 366.271 389.015 366.271 389.015C366.271 389.015 385.443 414.297 398.506 414.297C413.47 414.297 416.702 389.015 416.702 389.015C416.702 389.015 433.197 421.295 448.749 414.297C458.692 409.823 467.78 389.015 467.78 389.015C467.78 389.015 475.538 414.297 491.056 414.297C505.227 414.297 518.857 386.86 518.857 386.86C518.857 386.86 526.203 410.921 540.193 410.921C560.022 410.921 568.506 389.015 568.506 389.015C568.506 389.015 580.85 418.966 600.501 406.535C622.72 392.479 606.004 372.844 606.004 372.844C606.004 372.844 637.505 383.607 639.304 358.848C641.104 334.09 625.215 327.19 625.215 327.19C625.215 327.19 646.349 319.683 646.349 297.4C646.349 275.118 632.26 269.817 632.26 269.817C632.26 269.817 646.349 256.289 646.349 236.717C646.349 217.146 632.26 206.928 632.26 206.928C632.26 206.928 643.857 204.618 646.349 188.171C648.841 171.724 632.26 161.691 632.26 161.691C632.26 161.691 646.349 156.421 646.349 139.625C646.349 122.828 632.26 115.351 632.26 115.351C632.26 115.351 648.362 99.5404 646.349 83.3548C644.336 67.1692 632.26 66.8049 632.26 66.8049C632.26 66.8049 650.327 34.0713 639.304 23.4368C628.282 12.8024 618.171 30.0567 618.171 30.0567C618.171 30.0567 622.257 14.0978 604.962 13.5068C587.667 12.9158 572.381 30.0567 572.381 30.0567C572.381 30.0567 576.343 8.75853 554.77 5.78351C533.196 2.80849 524.83 30.0567 524.83 30.0567C524.83 30.0567 511.779 4.64492 499.294 5.78351C487.872 6.82517 479.482 23.4368 479.482 23.4368C479.482 23.4368 464.85 4.92956 452.624 5.78351C441.19 6.58212 432.812 23.4368 432.812 23.4368C432.812 23.4368 420.436 8.64625 409.476 5.78351C394.984 1.9985 376.895 30.0567 376.895 30.0567C376.895 30.0567 376.895 10.9706 355.303 10.9706C342.208 10.9706 324.815 23.4368 324.815 23.4368C324.815 23.4368 309.266 1.30866 294.897 1.30859C276.047 1.3085 267.287 23.4368 267.287 23.4368C267.287 23.4368 254.528 7.60642 243.929 5.78351C231.527 3.65078 219.147 23.4368 219.147 23.4368C219.147 23.4368 208.388 7.31234 197.258 5.78351C184.541 4.03658 171.596 23.4368 171.596 23.4368C171.596 23.4368 162.805 6.08818 152.349 5.78351C141.653 5.47183 133.732 23.4368 133.732 23.4368C133.732 23.4368 131.52 7.15135 118.007 5.78351C101.414 4.10389 96.8733 30.0567 96.8733 30.0567C96.8733 30.0567 93.3741 5.78354 75.7396 5.78351C58.105 5.78348 51.9641 30.0567 51.9641 30.0567C51.9641 30.0567 48.2613 -3.04311 25.547 13.5068Z" fill="#F3E8D6"/>
<path d="M17.291 51.7351C8.82001 39.5622 12.3183 21.1001 25.2533 13.1036C27.7483 11.3018 30.3956 9.7288 33.465 8.88141C37.5769 8.01509 37.2277 8.45505 38.949 8.60311C42.3294 8.89022 46.1897 12.942 46.4882 13.5768C49.0562 17.366 47.8996 15.9688 48.2444 16.4784C51.0559 22.6567 50.3873 20.8621 51.9434 27.1361C52.1252 28.0429 52.3002 29.0294 52.4203 30.0057L51.5191 29.9441C53.7085 22.4254 57.9847 13.1851 65.8295 8.1863C67.3784 7.25456 67.8644 7.08712 68.8068 6.70047C69.767 6.386 71.2179 5.60508 75.1083 5.39751C75.3033 5.39106 75.5138 5.38698 75.7396 5.38673C78.7398 5.24043 84.5792 6.57962 88.5135 10.8631C92.5329 14.9713 94.7468 20.5349 95.8245 24.0648C95.8175 24.1209 95.4885 23.1903 95.3303 22.824C96.2804 25.5079 96.8679 27.7955 97.2465 30.0029L96.5019 29.9917C98.0617 23.9379 98.5021 18.0634 106.488 9.39461C108.352 7.80007 110.318 6.03508 114.766 5.39271C116.13 5.24186 117.091 5.29552 118.046 5.39712C120.029 5.79897 122.485 5.56753 127.186 9.56804C129.4 11.7738 130.695 13.298 132.542 17.7247C133.182 19.3807 133.766 21.2536 134.109 23.3856L133.383 23.2831C136.821 16.5188 142.416 5.8829 152.359 5.43629C159.738 6.08092 163.934 11.9439 166.532 15.0038C168.694 17.7922 170.448 20.5629 171.892 23.2871L171.321 23.253C178.527 13.7973 185.583 5.03558 197.31 5.40598C200.691 5.8789 203.905 7.57942 206.922 9.82207C208.119 10.7266 205.459 8.78255 207.648 10.445C209.834 12.1462 211.91 14.1475 212.387 14.6353C214.396 16.6723 217.09 19.7704 219.458 23.2296L218.83 23.2388C222.391 17.7279 227.168 12.894 229.085 11.2982C232.898 8.103 233.111 8.30305 233.505 7.97344C233.727 7.83693 234.038 7.61806 235.091 7.06976C236.15 6.58656 237.943 5.48865 241.484 5.23773C242.304 5.2002 243.144 5.24444 243.996 5.39091C253.189 7.44075 261.164 15.803 267.545 23.2294L266.98 23.3151C268.635 19.4674 270.759 16.0807 272.959 13.2226C280.838 3.568 286.985 1.25438 294.897 0.983248C296.554 0.992751 298.305 1.29659 300.138 1.91121C310.728 5.79282 318.416 14.5639 325.048 23.2738L324.65 23.2063C333.855 17.1136 343.935 11.1849 355.303 10.6817C366.3 9.80218 377.234 18.7378 377.189 30.0567L376.648 29.8975C380.373 24.3398 384.602 19.0758 389.431 14.4091C389.368 14.5067 389.292 14.6171 389.213 14.7305C391.455 12.5357 393.853 10.4704 396.488 8.73973C396.102 9.01356 395.737 9.28387 395.357 9.57537C399.489 6.6627 404.461 4.2419 409.546 5.51415C418.558 8.2781 425.706 15.0552 433.048 23.2389L432.535 23.2995C432.578 23.2137 432.64 23.0953 432.684 23.0118C432.768 22.8522 432.704 23.0026 432.661 23.1154C432.594 23.2736 432.547 23.3984 432.613 23.2702C434.424 19.8111 436.873 16.2087 439.144 13.6395C442.388 9.5322 449.116 5.38761 452.609 5.57667C454.554 5.5245 455.043 5.53921 452.724 5.49942C463.746 5.70203 472.517 15.0295 479.696 23.2674L479.238 23.3137C483.726 15.2597 489.995 7.07037 498.647 5.58858C498.857 5.55935 499.065 5.5358 499.27 5.51753C503.134 5.30207 505.394 6.8318 507.064 7.81773C508.735 8.90419 509.893 9.891 511.253 11.1436C513.969 13.7905 512.63 12.4049 513.569 13.3687C517.917 17.904 522.98 25.8987 525.02 29.9593L524.626 29.9942C525.042 28.7459 525.415 27.8868 525.552 27.5871C526.124 26.0726 526.814 24.4896 527.546 23.0076C527.409 23.5078 529.889 17.8788 534.788 12.873C539.522 7.57004 547.563 5.13911 550.868 5.35379C552.049 5.33184 552.244 5.38828 553.138 5.44026C553.705 5.4794 554.256 5.53757 554.793 5.61097C563.212 7.21007 566.489 8.76137 570.659 15.7679C571.323 17.1512 571.105 16.7804 571.171 16.9478C571.173 17.1341 571.732 17.7796 572.506 21.6195C572.402 22.2538 573.399 21.9458 572.669 30.1102L572.163 29.8621C572.412 29.5858 572.652 29.3341 572.938 29.0389C579.133 22.8573 590.881 12.9409 604.972 13.2054C609.325 13.3152 614.012 14.668 616.533 18.169C619.056 21.6314 619.165 25.9025 618.614 29.3048C618.4 30.4512 618.836 27.9165 618.394 30.114L617.971 29.9399C618.277 29.4381 618.759 28.6862 619.576 27.5987C621.136 25.7793 620.037 26.3137 624.485 22.49C628.588 18.8096 635.701 18.891 639.499 23.2356C645.169 29.3132 643.115 38.2945 641.28 45.5247C639.17 52.9963 636.07 60.1631 632.494 66.9342L632.268 66.5373C634.584 66.718 636.764 67.5443 638.687 68.7673C638.334 68.5185 636.285 67.506 635.68 67.3584C635.377 67.2661 635.488 67.2849 636.374 67.6485C637.229 68.0399 638.984 68.7265 641.201 70.9221C642.549 72.374 641.588 71.2466 642.172 71.9187C644.915 75.286 646.076 79.247 646.595 83.3242C646.937 86.1054 646.773 89.0219 646.108 92.0779C645.58 94.3059 645.471 94.8758 644.463 97.5498C642.844 101.446 641.917 103.077 639.253 107.178C636.434 111.278 634.967 113.012 632.491 115.587L632.415 115.06C634.103 116.036 635.98 117.371 638.312 119.735C643.559 124.919 646.708 132.222 646.625 139.625C646.911 149.043 641.071 158.29 632.359 161.956L632.406 161.45C641.147 167.171 648.455 177.297 646.633 188.214C645.554 196.359 640.737 204.894 632.316 207.209L632.428 206.695C641.354 213.906 646.729 225.257 646.625 236.717C646.632 243.304 644.989 249.827 642.198 255.756C639.688 261.086 636.456 265.91 632.465 270.031L632.364 269.54C641.068 273.609 645.696 283.197 646.497 293.058C646.654 294.857 646.673 296.101 646.666 297.4C646.596 299.491 646.653 301.659 645.434 306.237C645.22 307.05 644.177 310.403 642.337 313.369C640.559 316.367 638.094 318.885 637.413 319.444C635.003 321.802 633.264 323.083 630.821 324.636C632.706 323.497 634.546 322.15 636.133 320.759C632.736 323.75 629.106 325.981 625.32 327.486L625.34 326.903C631.622 330.175 635.711 335.915 637.902 342.376C639.994 350.094 638.585 344.603 639.436 349.422C639.865 353.143 639.867 355.339 639.616 358.871C639.521 360.023 639.369 361.208 639.025 362.641C637.815 367.026 636.575 371.526 627.994 374.462C627.109 374.849 621.602 375.884 616.993 375.355C613.705 375.003 612.727 374.914 607.621 373.616C607.466 373.572 606.783 373.394 605.912 373.112L606.219 372.661C608.621 375.274 611.792 382.154 612.05 385C612.591 387.728 612.481 391.428 611.455 394.313C610.485 397.213 608.945 399.199 608.632 399.639C606.128 402.99 603.223 405.132 600.656 406.78C593.606 411.286 586.584 410.73 580.349 405.725C578.383 404.604 572.084 397.707 569.009 390.902C568.753 390.374 568.456 389.739 568.205 389.14L568.81 389.133C566.928 393.673 563.296 399.287 559.15 403.182C555.063 407.157 550.578 409.069 549.49 409.531C545.037 411.146 542.489 411.162 540.193 411.215C537.247 411.08 533.85 410.724 528.726 405.449C525.376 401.981 521.187 394.974 518.581 386.944L519.116 386.988C513.629 397.815 505.152 408.058 500.365 411.095C496.429 413.786 495.055 413.836 494.611 414.07C494.123 414.208 494.363 414.273 492.464 414.568C491.93 414.634 491.463 414.657 491.056 414.657C488.876 414.613 488.434 414.387 488.036 414.319C487.643 414.202 487.271 414.201 485.448 413.492C475.218 408.52 470.964 398.616 467.445 389.118L468.101 389.156C467.758 389.935 467.39 390.718 467.012 391.502C466.706 392.042 466.385 392.596 466.058 393.154C465.809 393.672 465.547 394.207 465.287 394.728C464.151 396.885 462.79 399.255 461.579 401.169C468.502 388.043 461.822 406.733 448.866 414.556C444.652 416.521 440.269 415.152 437.992 414.007C429.762 410.156 421.206 398.214 416.39 389.175L417.05 389.06C416.938 389.892 416.8 390.664 416.65 391.44C416.143 393.904 416.452 392.201 416.346 392.709C414.805 398.599 414.966 399.732 410.869 406.915C408.554 410.578 404.848 413.839 400.506 414.442C399.831 414.547 399.192 414.594 398.506 414.595C383.92 412.17 374.843 399.531 366.018 389.207L366.561 389.147C359.811 402.616 346.805 414.817 330.717 414.648C330.17 414.648 329.634 414.63 329.108 414.595C323.801 414.256 319.468 412.034 316.16 409.116C311.495 404.796 309.468 401.169 307.19 395.701C306.43 393.759 305.675 391.459 305.181 389.075L305.754 389.204C303.047 392.724 299.811 395.862 297.91 397.596C294.907 400.244 300.157 395.842 294.536 400.547C291.87 402.622 296.541 398.917 293.253 401.473C286.914 406.339 277.451 411.304 267.441 411.226C261.39 411.25 255.623 409.319 251.028 406.837C251.56 407.136 252.303 407.525 252.974 407.853C243.04 403.034 235.675 395.686 229.521 387.015L230.035 386.932C228.983 390.433 227.254 393.823 225.033 396.981C222.208 401.556 214.405 407.675 209.281 409.124C204.297 410.789 201.865 410.968 197.698 411.172C196.87 411.194 196.586 411.198 196.392 411.209C196.182 411.218 196.069 411.231 195.462 411.219C181.251 410.652 172.232 404.31 168.171 389.834C167.846 388.506 167.584 387.147 167.465 385.777L167.927 385.833C163.71 397.491 155.252 411.014 141.235 411.178C128.066 411.02 118.423 399.945 112.578 389.135L113.086 389.102C109.042 399.935 100.207 411.318 87.5462 411.213C74.5697 407.708 70.6591 393.125 65.8563 382.231L66.4125 382.288C63.8803 386.342 61.0388 390.173 57.936 393.788C56.4472 395.491 55.4855 396.668 53.1108 398.973C49.3796 402.446 49.0213 402.412 48.5033 402.853C44.8188 405.335 46.5203 404.687 41.0217 407.106C37.7766 408.336 33.3441 408.836 29.3425 406.866C23.9585 404.406 18.3918 399.682 17.2202 393.324C15.9716 387.06 18.2317 381.147 20.3601 376.907C21.7726 374.152 23.4029 371.6 25.2875 369.263L25.4191 369.8C12.4474 363.874 0.916238 352.684 1.00633 338.329C0.488318 327.929 6.99665 316.296 18.5435 314.191L18.3401 314.903C17.9017 314.527 17.4553 314.11 17.0272 313.699C15.5045 312.18 16.5371 313.222 14.0441 310.489C4.24695 298.836 1.35835 290.305 1.00865 279.63C1.03733 272.299 3.06832 262.103 14.2227 254.125C15.5116 253.238 16.882 252.395 18.4562 251.693L18.311 252.288C12.0752 243.938 3.05945 232.461 4.15753 217.793C5.45332 209.784 8.3101 201.825 11.7157 194.134L11.8178 194.553C5.78681 188.762 4.2182 180.105 4.17815 172.344C5.12795 161.226 12.4804 152.826 18.3638 145.731L18.4955 146.254C15.5751 145.078 13.1458 143.217 11.1644 141.158C11.1645 141.157 11.1646 141.157 11.1647 141.157C6.634 136.664 4.00574 129.294 4.11926 121.93C4.11084 115.31 5.26721 108.6 8.0194 103.102C5.18373 108.99 4.24706 115.509 4.25787 121.93C4.02232 131.817 9.13517 142.281 18.5403 146.125L18.4641 145.823C12.0593 153.501 5.14596 161.951 4.36387 172.344C4.41112 180.185 6.04153 188.721 11.9459 194.388L11.9056 194.222C8.58715 201.746 5.71867 209.598 4.37879 217.827C3.17524 230.658 10.8835 242.188 18.491 252.137L18.5463 251.91C8.19275 256.709 0.925545 267.871 1.22986 279.63C1.21118 286.986 3.52803 294.278 7.24591 300.731C10.2401 305.907 14.0167 310.674 18.5066 314.705L18.5805 314.446C7.71293 316.333 0.694087 327.589 1.25623 338.329C1.11506 352.744 13.0858 363.943 25.5168 369.562L25.4842 369.428C21.0048 375.193 17.2875 382.117 17.1452 389.605C16.8393 397.284 22.7616 403.611 29.4853 406.566C37.0839 410.243 45.3286 405.41 51.051 400.357C56.9866 395.089 61.9161 388.786 66.137 382.122L66.1508 382.099L66.1597 382.124C70.9155 393.038 75.0976 407.6 87.5462 410.887C99.1181 411.037 107.601 401.109 111.866 391.331C112.228 390.505 112.537 389.745 112.796 389.005L112.82 388.934L112.853 389.002C115.735 394.35 117.579 396.983 121.561 401.283C122.346 402.078 120.343 399.99 122.776 402.419C127.677 407.177 134.155 410.915 141.235 410.865C154.823 410.779 163.415 397.495 167.652 385.746L167.753 385.758C168.722 400.111 182.088 411.909 196.392 410.896C210.837 411.457 224.371 401.882 229.062 388.855C229.321 388.176 229.566 387.469 229.735 386.853L229.75 386.798L229.781 386.846C236.131 395.332 237.896 397.112 246.1 403.357C244.502 402.261 243.499 401.509 242.177 400.446C249.243 406.392 258.024 410.951 267.441 410.934C282.854 410.827 296.205 400.662 305.522 389.035L305.463 389.021C308.087 401.176 316.907 414.723 330.717 414.33C344.139 414.538 355.939 405.569 363.066 394.649C364.319 392.716 364.524 392.501 365.688 390.381C365.917 389.95 366.153 389.488 366.355 389.053L366.198 389.071C368.814 392.434 371.555 395.508 374.133 398.262C377.931 402.226 378.583 402.937 382.409 406.26C384.34 407.806 383.684 407.461 388.122 410.497C388.52 410.711 388.669 411.052 391.874 412.648C393.627 413.458 395.909 414.349 398.506 414.361C410.662 414.441 415.144 397.349 416.249 391.696C416.432 390.782 416.592 389.896 416.713 389.017L416.693 389.02C420.949 397.008 425.432 402.775 427.795 405.429C431.326 409.381 433.449 410.952 435.422 412.285C437.437 413.479 439.352 414.965 443.844 415.298C445.528 415.351 447.21 415.008 448.754 414.309C458.281 408.876 463.175 398.429 467.798 389.023L467.761 389.021C471.722 399.892 478.065 413.571 491.056 414.335C505.062 412.356 512.401 398.191 518.913 386.887L518.798 386.878C522.497 396.919 527.919 410.008 540.193 411.001C553.208 411.234 563.657 400.582 568.588 389.047L568.425 389.049C568.895 390.153 569.443 391.264 570.013 392.345C571.513 395.953 580.937 409.449 589.444 409.484C590.963 409.874 596.701 409.267 600.517 406.561C603 405.014 604.884 403.349 605.442 402.82C611.681 397.385 612.794 389.512 611.839 385.221C611.067 380.64 608.743 376.124 606.062 372.795L605.979 372.917C609.527 374.036 612.808 374.584 614.975 374.858C619.04 375.382 624.978 375.56 629.777 373.557C634.705 371.668 637.156 367.354 637.753 365.8C639.471 361.305 639.182 360.103 639.396 358.855C639.471 357.907 639.58 356.958 639.553 354.365C639.437 352.571 639.73 354.417 638.973 348.21C638.067 343.052 637.252 341.01 635.673 337.81C634.17 334.481 629.546 329.683 627.582 328.557C626.796 328.009 626.009 327.524 625.229 327.159L625.227 327.222C633.978 323.155 639.14 319.771 644.184 309.226C645.104 307.03 646.467 302.786 646.44 297.4C646.838 288.037 642.403 274.11 632.284 269.754L632.307 269.866C638.929 262.993 641.927 255.822 642.53 254.49C645.718 245.992 644.682 248.839 642.699 253.963C640.68 259.11 635.982 265.639 635.393 266.245C634.143 267.816 633.105 268.961 632.248 269.805L632.229 269.824L632.254 269.833C636.011 271.875 637.034 272.161 641.29 277.897C643.451 281.026 646.476 288.899 646.307 297.4C646.705 307.409 640.515 316.309 637.588 318.784C633.947 322.603 629.898 325.285 625.204 327.158L625.122 327.187L625.202 327.222C627.163 328.186 628.971 329.586 630.672 331.276C634.435 335.318 634.412 336.157 634.653 336.329C634.771 336.583 634.949 336.412 636.614 340.061C638.164 342.901 639.772 352.06 639.336 356.838C639.312 357.547 639.277 358.209 639.234 358.843C638.85 362.237 638.838 364.818 635.642 369.214C627.452 377.909 616.147 375.315 607.359 373.16C606.873 373.028 606.456 372.911 606.027 372.776L605.778 372.69L605.949 372.891C606.732 373.817 607.445 374.835 608.118 375.906C611.502 381.508 613.266 388.635 610.814 394.864C611.207 393.89 611.512 392.88 611.724 391.838C611.386 393.741 610.719 395.587 609.784 397.279C607.574 401.19 604.227 404.086 600.452 406.458C598.768 407.509 596.992 408.353 595.057 408.876C590.711 410.083 587.569 409.182 585.562 408.429C583.528 407.617 582.411 406.839 581.516 406.218C579.788 404.892 578.742 404.228 575.536 400.411C572.188 396.199 570.191 392.519 568.594 388.979L568.503 388.759L568.417 388.981C567.154 392.03 565.578 394.803 563.496 397.683C557.122 405.679 552.763 409.321 542.416 410.771C541.712 410.83 540.984 410.862 540.193 410.861C537.171 410.927 534.126 409.384 532.828 408.47C531.546 407.494 531.436 407.782 534.698 409.615C526.93 405.653 522.032 396.076 518.855 386.86C513.236 397.496 506.018 407.793 497.756 412.394C493.238 414.54 499.237 411.638 498.435 411.945C496.059 413.322 493.657 414.215 491.056 414.239C489.654 414.247 488.228 414.047 486.771 413.583C479.081 411.848 471.489 398.778 469.597 393.521C469.02 392.137 468.414 390.585 467.897 388.979L467.8 388.664L467.668 388.966C464.579 396.026 459.725 403.539 459.043 404.378C454.687 410.4 452.875 411.474 451.003 412.907C450.245 413.437 449.468 413.889 448.718 414.228C443.376 416.477 439.627 414.43 437.399 413.345C435.095 412.071 433.777 410.963 432.315 409.627C429.271 407.704 420.338 395.916 418.856 392.638C418.81 392.616 417.903 391.184 416.739 388.996L416.678 388.877L416.661 389.01C416.112 393.201 414.352 399.666 412.18 403.881C411.53 405.116 410.792 406.333 409.971 407.456C407.899 410.549 404.004 414.342 398.506 414.285C385.536 412.734 374.787 399.243 366.307 388.988L366.262 388.929L366.231 388.997C364.437 392.666 362.186 395.961 359.932 398.767C359.589 399.168 359.117 399.968 356.971 402.217C356.831 402.35 357.042 402.134 355.559 403.579C352.53 407.153 340.224 414.949 330.717 414.18C326.521 414.187 323.505 412.995 322.644 412.652C312.825 407.594 312.462 404.579 309.086 398.957C306.889 394.364 306.223 391.769 305.597 388.996L305.553 388.762L305.412 388.954C304.136 390.611 302.618 392.403 300.107 394.944C297.296 397.705 294.698 400.255 289.498 403.693C286.368 405.653 286.013 405.756 283.392 407.037C277.785 409.646 272.581 410.792 267.441 410.797C263.951 410.791 260.508 410.188 257 408.962C254.671 408.356 250.649 406.452 246.895 403.864C240.628 399.599 234.604 393.573 229.885 386.778L229.701 386.496L229.615 386.822C226.155 398.333 216.261 407.059 207.169 409.338C203.659 410.352 200.003 410.785 196.392 410.78C181.632 411.747 168.83 399.641 167.895 385.749L167.516 385.703C163.265 397.418 154.773 410.585 141.235 410.676C128.504 410.535 118.915 399.728 113.08 388.891L112.777 388.268L112.557 388.925C111.158 392.745 109.164 396.444 106.687 399.793C101.755 405.715 100.278 407.566 92.536 410.099C90.9873 410.479 89.3693 410.686 87.5462 410.675C85.2296 410.674 82.7451 409.301 80.3452 406.922C76.8589 403.54 73.2217 397.492 70.6036 392.005C69.9152 390.556 69.885 390.392 68.9239 388.215C68.0389 386.185 67.1762 384.07 66.4352 382.027L66.2205 381.419L65.8869 381.971C61.6929 388.587 56.8176 394.816 50.9818 400.031C45.3378 405.028 37.3146 409.882 29.7746 406.392C29.718 406.366 29.6617 406.34 29.6056 406.313C23.5236 403.474 21.1598 399.904 21.7858 400.904C20.0569 399.014 18.8041 396.801 18.155 394.504C15.9645 386.109 19.1698 378.431 25.7447 369.648L25.9714 369.38L25.6462 369.246C24.9919 368.971 24.2456 368.613 23.5626 368.268C22.309 367.803 14.0594 362.903 10.5095 358.792C10.2129 358.546 10.7702 359.174 10.6334 359.088C6.67724 355.449 2.78586 348.056 2.23903 344.479C1.59963 341.716 1.50758 339.629 1.48677 338.329C1.48291 337.978 1.48494 337.691 1.48992 337.464C1.67914 333.361 1.8087 334.34 1.80978 334.022C3.15275 324.812 6.91222 321.558 9.17909 319.411C11.6973 317.391 13.6176 315.893 18.6165 314.694L18.8424 314.661L18.6679 314.514C18.3956 314.285 18.1345 314.052 17.8401 313.783C15.0841 312.354 3.84775 295.982 3.44117 291.763C3.41654 291.581 3.79502 292.613 3.93711 292.896C2.41499 288.662 1.55026 284.155 1.56172 279.63C1.56428 278.206 1.64834 276.821 1.82353 275.427C1.6304 276.669 1.50776 278.165 1.46768 279.318C1.49017 267.081 8.3416 257.748 16.9136 252.933C17.5584 252.574 18.1295 252.288 18.617 252.08L18.667 252.059L18.6321 252.018C16.3887 249.186 16.5391 249.233 14.8525 246.875C14.4861 246.345 15.0577 247.283 13.9733 245.684C7.31331 235.11 3.72859 228.258 4.57048 217.856C4.96204 215.32 5.58139 212.603 6.44439 209.598C7.93239 204.521 9.53365 199.947 12.0492 194.289L12.0565 194.273L12.0428 194.263C10.1915 192.65 8.67082 190.339 7.44679 187.588C6.90884 186.882 4.34785 178.786 4.55601 172.344C4.54772 171.589 4.60405 170.855 4.69311 170.168C5.03516 168.154 5.63862 166.436 6.21874 165.027C11.2181 154.301 10.5674 155.987 18.6926 146.032L18.8189 145.894L18.6423 145.833C17.5085 145.393 16.2686 144.711 15.0118 143.845C10.9586 141.589 4.15715 132.516 4.64936 121.93C4.4008 112.086 7.94547 102.659 11.0386 98.9372C14.7451 94.3543 15.0387 94.7836 15.8008 94.0655C16.5027 93.5641 17.1536 93.1689 17.7308 92.9015L17.8084 92.8679L17.7247 92.8557C13.7193 91.9211 12.9535 91.742 8.69672 89.1132C4.42806 86.4486 1.14563 80.5404 1.37133 75.0354C1.36941 74.1388 1.43646 73.27 1.55816 72.4378C1.93734 70.172 2.13147 69.9676 2.2771 69.4744C2.4828 69.0056 2.57099 68.181 4.14994 65.189C4.49125 64.5771 4.15471 65.1341 4.1745 65.0694C4.22332 65.0256 4.45404 64.2338 6.62214 61.3911C7.02621 60.2299 15.541 52.5518 17.7681 51.6707C12.3911 54.1376 0.124231 67.6002 1.59405 75.0354C1.59425 75.1088 1.59482 75.1806 1.59571 75.251C1.17335 83.607 8.7023 91.1686 17.7609 92.6086L18.7148 92.7483L17.8299 93.1307C8.51445 98.2711 4.71791 110.447 4.8458 121.93C4.60361 131.267 9.30944 141.7 18.7248 145.596L19.26 145.783L18.8773 146.201C12.6974 153.596 5.69994 162.097 4.91913 172.344C4.9481 179.985 6.60312 188.486 12.2912 193.942L12.5611 194.151L12.4173 194.46C9.14877 201.879 6.2763 209.739 4.9533 217.914C3.7587 230.334 11.422 241.939 18.9596 251.743L19.3699 252.231L18.7808 252.475C8.59267 257.216 1.54654 268.233 1.86456 279.63C1.8825 293.005 9.35869 305.423 18.9194 314.216L19.758 314.923L18.6725 315.08C8.01893 316.967 1.35365 327.947 1.88075 338.329C1.76121 352.772 13.861 363.622 25.7388 369.021L26.3738 369.281L25.9311 369.806C21.3462 375.681 17.6602 382.779 17.7071 390.05C17.6262 397.497 23.3933 403.256 29.7133 406.086C37.507 409.812 45.726 404.486 51.3306 399.438C57.1434 394.137 61.8599 387.985 65.7307 381.876L66.264 380.994L66.6072 381.966C68.2749 386.508 70.2041 390.856 72.32 394.91C76.8859 403.267 81.219 409.972 87.5462 410.515C88.4377 410.517 89.2878 410.466 90.155 410.358C93.681 409.814 93.8925 409.455 94.0817 409.434C94.2437 409.318 94.4226 409.455 97.3181 407.999C102.976 404.802 106.129 400.881 109.264 395.662C110.507 393.503 111.625 391.194 112.451 388.89L112.758 387.974L113.18 388.843C118.9 399.466 128.436 410.409 141.235 410.551C154.702 410.472 163.184 397.248 167.37 385.657L168.048 385.739C169.041 399.47 181.382 411.1 195.208 410.574C195.6 410.586 195.995 410.591 196.392 410.591C206.502 410.573 214.822 407.225 221.278 400.512C223.806 397.74 223.877 397.616 225.382 395.417C227.125 392.712 228.562 389.786 229.454 386.78L229.635 386.089L230.024 386.687C238.966 399.147 251.856 410.38 267.441 410.558C276.927 410.569 286.016 406.324 293.656 400.331C297.828 397.053 301.854 393.135 305.215 388.809L305.688 388.164L305.838 388.95C307.329 395.591 310.286 402.104 314.731 406.903C318.773 411.386 324.798 414.088 330.717 413.965C334.341 413.963 337.836 413.353 340.976 412.308C345.473 410.76 347.589 409.358 349.053 408.46C353.969 405.034 352.179 406.137 354.511 404.158C360.228 398.672 362.781 395.118 366.028 388.904L366.214 388.496L366.485 388.854C366.747 389.198 367.006 389.527 367.318 389.919C369.274 392.33 369.042 392.017 372.031 395.421C375.907 399.672 374.432 398.134 377.307 401.068C377.483 401.238 376.934 400.662 378.49 402.174C383.786 407.026 390.353 413.392 398.506 413.948C406.186 414.042 410.832 406.669 413.098 401C414.658 397.141 415.735 393.059 416.35 388.97L416.496 387.832L417.018 388.854C420.524 395.387 424.684 401.638 429.74 406.948C434.604 412.031 441.78 417.171 448.626 414.024C456.056 410.089 460.388 402.287 464.365 395.286C467.407 389.465 466.515 390.942 467.406 389.071C467.438 388.997 467.466 388.936 467.487 388.887L467.833 388.096L468.086 388.921C471.555 398.046 472.883 401.819 480.081 409.276C481.105 410.187 485.348 414.012 491.056 413.949C492.06 413.949 493.078 413.803 494.059 413.545C497.529 412.66 500.934 410.157 503.19 408.09C505.437 405.973 505.744 405.575 508.141 402.739C512.274 397.378 511.291 399.093 516.351 390.808C516.845 389.952 517.677 388.498 518.575 386.72L518.928 386.011L519.159 386.768C520.942 392.206 524.751 400.725 530.092 405.892C532.682 408.426 536.192 410.594 540.193 410.573C552.339 410.99 563.339 400.558 568.225 388.906L568.498 388.202L568.785 388.9C569.641 390.891 570.721 392.929 571.84 394.795C575.243 400.044 580.685 408.783 591.18 409.195C593.979 409.189 597.213 408.211 600.309 406.232C605.605 402.993 611.044 397.346 611.597 390.423C612.249 383.595 609.001 377.381 606.078 373.492C606.012 373.406 605.96 373.34 605.908 373.275C605.831 373.178 605.794 373.133 605.74 373.069L604.923 372.109L606.116 372.516C611.859 374.213 612.425 374.078 613.153 374.266C618.135 374.979 616.136 374.65 619.493 374.833C624.089 374.932 628.526 374.258 632.074 372.035C634.279 370.559 634.417 370.068 634.83 369.685C637.573 366.718 638.699 362.735 638.976 358.825C640.031 346.702 636.09 333.376 625.081 327.499L624.297 327.159L625.102 326.873C629.131 325.275 632.997 322.798 636.324 319.7C642.504 314.052 646.121 305.796 646.002 297.4C646.166 286.782 642.071 274.849 632.134 270.151L631.604 269.952L632.013 269.56C640.342 260.785 645.987 248.958 645.98 236.717C646.083 225.457 640.744 214.265 632.036 207.236L631.33 206.724L632.185 206.554C640.147 204.364 644.92 196.117 645.964 188.113C647.744 177.55 640.606 167.632 632.054 162.032L631.35 161.606L632.12 161.318C640.524 157.77 646.226 148.81 645.944 139.625C646.123 129.885 640.334 120.585 632.068 115.714L631.573 115.451L631.972 115.059C639.946 106.519 647.171 95.3917 645.939 83.4058C645.298 75.7717 640.152 67.8406 632.247 67.2176L631.572 67.197L631.898 66.6054C637.972 53.7624 646.823 38.0968 639.912 24.7187C639.627 24.3526 639.33 24.0245 639.023 23.7283C636.053 20.9097 633.731 20.3592 631.621 20.3457C629.506 20.4148 627.287 21.0142 624.209 23.5183C621.912 25.4433 619.995 27.8254 618.507 30.2539L617.793 29.96C618.842 25.0235 617.786 19.6302 614.388 16.8345C614.199 16.7207 614.199 16.7491 614.011 16.6408C611.483 14.7123 608.19 14.0326 604.948 13.9165C592.304 13.6978 581.102 21.6825 572.703 30.3435L571.675 31.4957L571.957 29.9779C572.198 28.4889 572.268 26.867 572.219 25.3162C572.369 14.8408 564.107 6.9316 554.711 6.21065C552.598 5.91807 550.463 5.90289 548.355 6.22083C543.325 7.10368 541.332 8.58999 539.515 9.70831C537.749 10.9447 536.09 12.1332 533.247 15.5587C529.719 19.8666 527.028 24.9367 525.239 30.1824L524.93 31.1889L524.449 30.2523C518.535 20.2832 511.649 7.10369 499.331 6.18852C490.23 7.44708 484.165 15.9597 479.831 23.6133L479.555 24.1605L479.175 23.6796C472.156 15.6589 463.693 6.37617 452.649 6.14511C446.039 6.72003 440.975 11.99 437.119 17.1552C435.655 19.218 434.311 21.3724 433.161 23.6103L432.895 24.1443L432.513 23.687C427.269 17.9661 421.519 11.4044 411.729 6.91298C410.466 6.44105 411.23 6.69383 409.376 6.16435C408.827 6.02744 408.047 5.85541 406.881 5.83121C400.54 6.28341 397.051 8.15698 389.035 15.6718C387.743 16.8746 381.767 23.2773 377.207 30.2579L376.523 31.318L376.523 30.0567C376.337 24.6919 373.742 19.7759 371.612 17.5396C368.298 13.541 361.642 11.1479 355.303 11.2776C351.839 11.2775 348.513 12.0921 345.692 12.9826C346.828 12.6428 348.282 12.2595 349.574 12.007C345.521 12.9119 341.603 14.469 337.848 16.2673C337.287 16.4985 336.729 16.7362 336.192 16.97C334.04 18.0953 331.942 19.3032 329.862 20.5996C326.378 22.6136 328.214 21.4154 324.968 23.6498L324.753 23.8039L324.601 23.5875C323.901 22.6251 322.791 21.1578 321.003 19.0328C317.178 14.5667 313.938 11.1539 309.146 7.50021C307.4 6.21642 306.222 5.47214 304.135 4.33627C298.868 1.87964 301.986 3.15971 298.572 2.07974C297.506 1.82262 296.268 1.62786 294.897 1.6361C291.725 1.64733 287.815 2.35945 283.823 4.49626C286.858 2.98592 283.797 4.06903 280.422 6.56776C277.002 9.02033 273.79 13.1235 273.568 13.5329C272.137 15.3928 271.039 17.0225 269.759 19.2738C270.266 18.1657 268.833 20.3453 267.504 23.5225L267.356 23.8938L267.106 23.5829C264.969 21.0007 261.993 17.9931 260.239 16.3592C256.648 13.0552 256.763 13.2185 255.893 12.4787C253.297 10.459 255.179 11.9393 253.324 10.5769C250.411 8.53142 247.267 6.72356 243.873 6.10805C232.963 5.20367 225.289 15.2529 219.394 23.5912L219.155 23.9728L218.905 23.5983C218.487 22.9812 218.014 22.3305 217.551 21.7126C216.234 19.9957 217.378 21.517 215.812 19.5517C214.202 17.598 212.648 15.7176 209.908 13.1678C209.165 12.4947 208.914 12.3016 207.707 11.3133C204.607 8.82626 201.096 6.6588 197.215 6.09982C186.105 5.46934 178.024 15.361 171.851 23.6066L171.56 24.0422L171.323 23.5751C167.033 16.1163 161.503 7.13978 152.341 6.07565C143.569 6.43979 138.252 15.3429 134.343 22.8002C134.211 23.075 134.102 23.3073 133.993 23.5521L133.585 24.4781L133.448 23.4753C132.938 20.9281 132.466 18.4083 129.823 13.8764C127.84 10.4518 123.436 6.48499 117.977 6.07925C115.605 5.81846 113.217 6.185 111.203 7.06985C109.492 7.8822 109.038 8.16739 107.122 9.79539C101.388 15.3013 98.8832 22.315 97.148 30.1048L96.5973 30.0965C96.498 29.4453 96.3486 28.7011 96.1972 28.0226C94.0379 18.018 87.4717 5.80012 75.7396 6.06312C71.0785 6.01307 66.5915 7.98456 63.1893 11.0582C61.087 13.0732 61.287 12.6473 58.7383 16.0163C54.7715 22.14 56.4338 19.9484 55.6892 21.2134C53.8279 25.0871 53.1808 26.6668 52.1727 30.1095L51.7503 30.0806C51.6981 29.6465 51.6303 29.2004 51.5376 28.6594C51.4183 27.9839 51.5353 28.9643 51.4282 28.349C50.507 23.4407 49.5934 20.9723 48.5428 18.501C47.3626 16.1707 46.3728 13.169 41.9186 10.367C39.8758 9.27039 39.0333 9.31014 39.2227 9.29103C39.3969 9.32075 40.5111 9.52788 41.8055 10.2177C44.5257 11.4975 46.9956 15.2243 47.362 15.9169C48.3284 17.6384 47.7559 16.0953 46.0624 13.7356C44.4523 11.3347 40.7607 8.73575 37.5443 8.75768C32.1869 8.96546 32.3086 9.76625 30.3867 10.4532C28.7443 11.2358 27.168 12.2037 25.4879 13.4256C16.1685 19.1633 11.1466 32.6586 13.1427 39.8036C13.595 42.3511 13.3944 41.3397 13.1459 39.9984C12.9084 38.6624 12.7897 36.9918 12.8931 38.3127C13.1669 40.913 13.5984 42.6 14.4087 45.1495C15.1172 47.7768 17.8495 52.6187 17.291 51.7351ZM633.755 64.2312C635.702 60.1711 638.403 54.2768 640.571 47.0852C642.376 40.1943 645.427 30.3191 639.278 23.4644C636.233 20.2338 631.128 18.9529 627.207 21.1722C623.292 23.191 620.4 26.6283 618.209 30.0792L618.128 30.0457C619.674 23.7283 617.013 16.8445 612.003 15.0003C609.747 13.9836 607.316 13.6184 604.961 13.5281C587.529 13.9008 577.91 25.4432 580.847 22.6431C588.235 17.1733 596.409 13.3432 604.959 13.5906C608.947 13.7165 613.279 14.7596 615.928 18.005C618.566 21.221 618.984 25.8456 618.098 30.0382L618.235 30.0945C620.187 26.9976 622.709 23.9638 626.068 21.841C626.744 21.4478 628.648 20.2156 631.355 20.0675C634.072 19.8549 637.145 21.3949 639.238 23.5052C641.337 25.5172 642.097 28.1864 642.4 29.7529C642.818 32.5206 642.829 32.6136 642.605 36.4262C642.602 37.2464 641.913 41.8216 641.454 43.4438C640.471 49.0402 633.744 64.1876 632.105 66.7193L631.965 66.9731L632.255 66.9819C632.31 66.984 632.396 66.9903 632.443 66.9943C635.703 67.4405 636.573 68.1708 637.08 68.3314C637.573 68.5743 637.674 68.5521 638.867 69.3386C645.128 74.5486 645.076 77.45 646.222 83.3707C646.36 84.4889 646.435 85.7476 646.38 87.2096C646.373 88.881 645.82 94.6823 642.516 101.009C641.262 103.601 638.53 107.701 637.184 109.431C635.669 111.448 634.01 113.454 632.205 115.295L632.128 115.37L632.223 115.421C640.766 120.322 646.413 130.23 646.309 138.973C646.314 139.196 646.316 139.413 646.315 139.625C645.742 147.843 645.626 145.679 644.096 150.001C642.222 154.417 637.942 158.534 635.121 160.162C634.242 160.706 633.237 161.254 632.244 161.65L632.159 161.682L632.237 161.729C635.894 164.064 638.849 167.262 639.678 168.229C644.613 173.717 647.465 181.076 646.286 188.161C645.209 196.362 640.357 204.656 632.252 206.889L632.163 206.906L632.237 206.96C641.019 214.057 646.417 225.2 646.343 236.717C646.346 240.175 645.903 243.644 645.05 247.036C645.903 243.673 646.36 240.201 646.364 236.717C646.481 225.32 641.12 214.024 632.295 206.879L632.272 206.987C638.193 205.394 642.647 200.343 644.746 194.732C645.987 191.321 646.197 189.378 646.405 188.179C646.635 185.47 646.984 186.626 646.412 181.245C645.036 175.275 644.338 173.678 639.164 167.513C639.168 167.518 639.173 167.523 639.177 167.528C637.796 166.033 635.474 163.714 632.29 161.641L632.281 161.746C635.921 160.233 639.668 157.347 642.24 153.621C642.265 153.29 643.407 152.936 645.457 146.599C646.037 144.491 646.359 142.126 646.356 139.625C646.666 130.701 641.034 120.407 632.254 115.362L632.239 115.354L632.251 115.342C636.674 110.767 640.279 105.595 642.748 100.622C644.759 96.1364 644.629 97.1229 646.042 91.4609C646.517 89.0793 646.767 86.4018 646.382 83.3507C646.08 81.054 645.555 78.5519 644.379 75.9329C641.217 69.3547 636.81 67.2669 632.261 66.7629L632.297 66.8252C632.606 66.2386 632.965 65.5185 633.271 64.8785C633.543 64.4474 633.461 64.7129 633.755 64.2312ZM332.797 18.4428C332.221 18.7427 327.731 21.2678 324.764 23.3643L324.888 23.3856C323.193 21.0283 321.909 19.527 323.154 21.1933C323.731 21.9371 324.283 22.6657 324.825 23.4302L324.809 23.4274C333.725 17.5658 343.876 11.5077 355.303 11C365.336 10.3308 375.622 17.5482 376.629 27.8043C376.451 21.4351 368.944 10.0941 355.303 10.9337C353.353 10.937 351.356 11.2114 349.354 11.6603C349.348 11.6618 349.341 11.6632 349.335 11.6647C348.619 11.841 351.603 11.0641 347.537 12.0799C345.547 12.5095 338.253 15.3085 332.797 18.4428Z" fill="#1A1918"/>
</svg>
