<svg width="100%" height="100%" viewBox="0 0 184 413" version="1.1" xmlns="http://www.w3.org/2000/svg" xmlns:xlink="http://www.w3.org/1999/xlink" xml:space="preserve" xmlns:serif="http://www.serif.com/" style="fill-rule:evenodd;clip-rule:evenodd;stroke-linejoin:round;stroke-miterlimit:2;" preserveAspectRatio="none"><path d="M9.289,48.809c0,-22.091 17.909,-40 40,-40l85,-0c22.091,0 40,17.909 40,40l0,314c0,22.091 -17.909,40 -40,40l-85,0c-22.091,0 -40,-17.909 -40,-40l0,-314Z" style="fill:#f3e8d6;fill-rule:nonzero;"/><path d="M56.039,11.031l1.877,-5.699l-1.877,5.699Zm9,-2.548l-2.628,-5.394l2.628,5.394Zm4.5,-0.326l-1.944,5.676l1.944,-5.676Zm4.5,1.541l1.944,-5.676l-1.944,5.676Zm9,-0.88l-1.426,-5.828l1.426,5.828Zm4.5,0.177l-1.846,5.709l1.846,-5.709Zm2.25,0.728l1.846,-5.709l-1.846,5.709Zm2.25,0.728l1.846,-5.709l-1.846,5.709Zm4.5,-0.749l-3.293,-5.016l3.293,5.016Zm4.5,-2.954l3.293,5.016l-3.293,-5.016Zm4.5,-0.04l-3.23,5.056l3.23,-5.056Zm4.5,2.875l3.23,-5.056l-3.23,5.056Zm4.5,0.753l-1.746,-5.74l1.746,5.74Zm4.5,-1.369l1.747,5.74l-1.747,-5.74Zm4.5,-0.871l-0.496,-5.979l0.496,5.979Zm13.267,2.438l2.508,-5.451l-2.508,5.451Zm4.591,0.482l-1.256,-5.867l1.256,5.867Zm4.836,-1.035l1.255,5.867l-1.255,-5.867Zm4.339,0.813l-3.414,4.934l3.414,-4.934Zm3.844,2.66l3.415,-4.934l-3.415,4.934Zm3.215,3.226l4.957,-3.381l-4.957,3.381Zm2.587,3.792l-4.957,3.381l4.957,-3.381Zm3.449,3.063l-2.856,5.277l2.856,-5.277Zm2.155,1.167l2.856,-5.277l-2.856,5.277Zm2.156,1.167l-2.856,5.277l2.856,-5.277Zm2.529,3.508l5.925,-0.944l-5.925,0.944Zm0.745,4.682l-5.925,0.944l5.925,-0.944Zm0.209,4.56l-5.984,-0.443l5.984,0.443Zm-0.329,4.439l5.983,0.443l-5.983,-0.443Zm-0.066,4.394l-5.994,0.272l5.994,-0.272Zm0.099,2.174l5.993,-0.272l-5.993,0.272Zm0.098,2.174l5.994,-0.272l-5.994,0.272Zm0.592,4.424l-5.861,1.285l5.861,-1.285Zm0.986,4.5l5.861,-1.285l-5.861,1.285Zm0.398,4.5l-5.994,-0.253l5.994,0.253Zm-0.19,4.5l5.995,0.253l-5.995,-0.253Zm0.696,4.5l-5.66,1.99l5.66,-1.99Zm1.582,4.5l5.661,-1.99l-5.661,1.99Zm-0.554,4.5l5.149,3.079l-5.149,-3.079Zm-2.691,4.5l-5.15,-3.079l5.15,3.079Zm0.265,4.5l4.879,-3.492l-4.879,3.492Zm3.22,4.5l-4.879,3.492l4.879,-3.492Zm1.307,4.5l5.946,0.801l-5.946,-0.801Zm-0.606,4.5l-5.946,-0.801l5.946,0.801Zm-1.466,4.5l-5.33,-2.754l5.33,2.754Zm-2.324,4.5l5.331,2.754l-5.331,-2.754Zm0.324,4.5l5.006,-3.307l-5.006,3.307Zm1.486,2.25l-5.006,3.308l5.006,-3.308Zm1.487,2.25l5.006,-3.307l-5.006,3.307Zm0.837,4.5l-5.765,-1.663l5.765,1.663Zm-0.649,2.25l5.765,1.664l-5.765,-1.664Zm-0.649,2.25l-5.765,-1.663l5.765,1.663Zm-0.106,4.5l-5.832,1.41l5.832,-1.41Zm1.088,4.5l5.832,-1.409l-5.832,1.409Zm0.533,4.5l6,0.03l-6,-0.03Zm-0.022,4.5l-6,-0.029l6,0.029Zm0.038,4.5l5.998,-0.13l-5.998,0.13Zm0.097,4.5l-5.999,0.13l5.999,-0.13Zm0.268,4.5l5.972,-0.582l-5.972,0.582Zm0.219,2.25l-5.971,0.582l5.971,-0.582Zm0.219,2.25l-5.971,0.582l5.971,-0.582Zm-1.061,4.5l-5.214,-2.969l5.214,2.969Zm-2.563,4.5l5.214,2.969l-5.214,-2.969Zm-0.952,4.5l-5.937,0.868l5.937,-0.868Zm0.658,4.5l5.937,-0.867l-5.937,0.867Zm-0.342,4.5l-5.75,-1.713l5.75,1.713Zm-1.341,4.5l5.75,1.714l-5.75,-1.714Zm0.626,4.5l-5.199,2.996l5.199,-2.996Zm2.592,4.5l5.199,-2.995l-5.199,2.995Zm0.036,4.5l-5.234,-2.934l5.234,2.934Zm-1.262,2.25l5.234,2.934l-5.234,-2.934Zm-1.261,2.25l-5.234,-2.934l5.234,2.934Zm0.22,4.5l-5.012,3.299l5.012,-3.299Zm1.481,2.25l5.012,-3.299l-5.012,3.299Zm1.481,2.25l-5.011,3.299l5.011,-3.299Zm0.88,4.5l5.797,1.549l-5.797,-1.549Zm-0.601,2.25l5.796,1.549l-5.796,-1.549Zm-0.602,2.25l-5.796,-1.549l5.796,1.549Zm-1.171,4.5l-5.816,-1.474l5.816,1.474Zm-1.14,4.5l5.816,1.474l-5.816,-1.474Zm0.164,4.5l5.704,-1.862l-5.704,1.862Zm1.47,4.5l-5.704,1.863l5.704,-1.863Zm-0.368,4.5l5.387,2.641l-5.387,-2.641Zm-1.103,2.25l-5.388,-2.64l5.388,2.64Zm-2.195,6.75l-6,0.027l6,-0.027Zm0.01,2.25l6,-0.027l-6,0.027Zm0.01,2.25l-6,0.027l6,-0.027Zm0.644,4.5l-5.776,1.626l5.776,-1.626Zm1.266,4.5l5.776,-1.626l-5.776,1.626Zm1.618,4.5l-5.497,2.405l5.497,-2.405Zm1.969,4.5l5.497,-2.405l-5.497,2.405Zm0.836,4.5l-5.987,-0.395l5.987,0.395Zm-0.148,2.25l5.987,0.395l-5.987,-0.395Zm-0.149,2.25l-5.987,-0.395l5.987,0.395Zm-0.359,4.5l-5.973,-0.558l5.973,0.558Zm-0.42,4.5l-5.974,-0.558l5.974,0.558Zm-0.699,13.5l5.866,1.264l-5.866,-1.264Zm-0.97,4.5l-5.865,-1.264l5.865,1.264Zm-0.687,4.5l-5.976,-0.539l5.976,0.539Zm-0.406,4.5l5.976,0.539l-5.976,-0.539Zm-0.633,4.5l-5.893,-1.126l5.893,1.126Zm-0.429,2.25l5.893,1.126l-5.893,-1.126Zm-0.43,2.25l5.893,1.126l-5.893,-1.126Zm0.921,4.5l-5.144,3.089l5.144,-3.089Zm1.351,2.25l-5.145,3.089l5.145,-3.089Zm1.35,2.25l5.144,-3.088l-5.144,3.088Zm1.032,4.5l5.94,0.844l-5.94,-0.844Zm-0.32,2.25l5.941,0.844l-5.941,-0.844Zm-0.319,2.25l-5.941,-0.843l5.941,0.843Zm-0.183,4.6l-5.99,0.349l5.99,-0.349Zm0.274,4.7l5.99,-0.349l-5.99,0.349Zm-0.937,4.491l5.364,2.689l-5.364,-2.689Zm-2.147,4.283l-5.364,-2.689l5.364,2.689Zm-2.026,4.254l5.47,2.467l-5.47,-2.467Zm-1.905,4.226l5.469,2.466l-5.469,-2.466Zm-2.949,3.362l-3.183,-5.087l3.183,5.087Zm-1.996,1.249l-3.183,-5.087l3.183,5.087Zm-1.996,1.248l3.182,5.087l-3.182,-5.087Zm-3.39,3.17l4.855,3.525l-4.855,-3.525Zm-2.789,3.841l4.855,3.525l-4.855,-3.525Zm-3.666,2.444l-1.347,-5.847l1.347,5.847Zm-4.544,1.046l1.347,5.847l-1.347,-5.847Zm-4.499,0.675l-0.408,-5.986l0.408,5.986Zm-4.456,0.304l0.408,5.986l-0.408,-5.986Zm-4.462,-0.279l-1.135,5.892l1.135,-5.892Zm-4.469,-0.861l1.135,-5.892l-1.135,5.892Zm-4.484,0.929l3.102,5.136l-3.102,-5.136Zm-4.5,2.719l-3.103,-5.136l3.103,5.136Zm-4.5,1.566l0.549,5.975l-0.549,-5.975Zm-4.5,0.414l-0.55,-5.975l0.55,5.975Zm-4.5,-0.136l0.903,-5.932l-0.903,5.932Zm-4.5,-0.685l-0.903,5.932l0.903,-5.932Zm-4.5,-1.27l2.287,-5.547l-2.287,5.547Zm-4.5,-1.855l-2.287,5.547l2.287,-5.547Zm-4.5,-1.253l-0.857,5.939l0.857,-5.939Zm-4.5,-0.649l0.857,-5.939l-0.857,5.939Zm-4.5,-0.304l0.056,6l-0.056,-6Zm-4.5,0.043l-0.056,-6l0.056,6Zm-4.5,0.985l-2.363,-5.516l2.363,5.516Zm-4.5,1.927l2.363,5.516l-2.363,-5.516Zm-9,0.881l-0.074,6l0.074,-6Zm-4.453,-1.102l2.63,-5.393l-2.63,5.393Zm-4.406,-2.148l-2.63,5.393l2.63,-5.393Zm-4.476,-0.59l-1.25,-5.868l1.25,5.868Zm-4.546,0.968l-1.25,-5.868l1.25,5.868Zm-9.692,-0.02l-0.407,5.986l0.407,-5.986Zm-3.694,-2.429l5.279,-2.852l-5.279,2.852Zm-2.442,-4.521l-5.279,2.852l5.279,-2.852Zm-2.459,-4.041l-4.927,3.424l4.927,-3.424Zm-1.237,-1.781l4.927,-3.424l-4.927,3.424Zm-3.722,-5.331l4.904,-3.457l-4.904,3.457Zm-1.248,-1.77l-4.904,3.457l4.904,-3.457Zm-1.248,-1.77l4.904,-3.456l-4.904,3.456Zm-2.183,-3.81l5.454,-2.501l-5.454,2.501Zm-1.872,-4.082l-5.454,2.501l5.454,-2.501Zm-0.544,-4.293l5.911,1.028l-5.911,-1.028Zm0.392,-2.253l-5.911,-1.028l5.911,1.028Zm0.392,-2.252l-5.911,-1.029l5.911,1.029Zm-0.613,-4.502l5.479,-2.447l-5.479,2.447Zm-2.01,-4.5l5.479,-2.447l-5.479,2.447Zm-0.208,-4.5l5.656,2.002l-5.656,-2.002Zm1.593,-4.5l-5.656,-2.003l5.656,2.003Zm1.075,-4.5l5.955,0.736l-5.955,-0.736Zm0.556,-4.5l-5.955,-0.736l5.955,0.736Zm-0.995,-4.5l-5.221,2.955l5.221,-2.955Zm-2.547,-4.5l5.222,-2.956l-5.222,2.956Zm-1.382,-4.5l-5.993,0.29l5.993,-0.29Zm-0.218,-4.5l5.993,-0.29l-5.993,0.29Zm0.39,-4.5l-5.858,-1.3l5.858,1.3Zm0.499,-2.25l-5.858,-1.3l5.858,1.3Zm0.499,-2.25l5.858,1.299l-5.858,-1.299Zm0.297,-4.5l-5.976,0.537l5.976,-0.537Zm-0.404,-4.5l5.976,-0.537l-5.976,0.537Zm-0.027,-4.5l5.982,0.465l-5.982,-0.465Zm0.35,-4.5l-5.982,-0.466l5.982,0.466Zm1.129,-4.5l-5.524,-2.342l5.524,2.342Zm1.908,-4.5l5.524,2.342l-5.524,-2.342Zm0.423,-4.5l5.84,-1.379l-5.84,1.379Zm-1.062,-4.5l-5.839,1.378l5.839,-1.378Zm-1.374,-4.5l-5.619,2.103l5.619,-2.103Zm-0.842,-2.25l5.619,-2.104l-5.619,2.104Zm-0.842,-2.25l5.619,-2.104l-5.619,2.104Zm-0.368,-4.5l5.871,1.236l-5.871,-1.236Zm0.948,-4.5l-5.871,-1.237l5.871,1.237Zm0.415,-4.5l-5.998,0.156l5.998,-0.156Zm-0.684,-9l-5.853,1.32l5.853,-1.32Zm-0.508,-2.25l-5.853,1.32l5.853,-1.32Zm-0.508,-2.25l5.853,-1.321l-5.853,1.321Zm0.252,-4.5l5.684,1.92l-5.684,-1.92Zm1.52,-4.5l-5.684,-1.921l5.684,1.921Zm1.652,-4.5l5.578,2.211l-5.578,-2.211Zm1.784,-4.5l5.578,2.211l-5.578,-2.211Zm0.241,-4.5l-5.764,1.667l5.764,-1.667Zm-1.302,-4.5l5.764,-1.668l-5.764,1.668Zm0.067,-4.5l5.716,1.823l-5.716,-1.823Zm1.436,-4.5l-5.716,-1.824l5.716,1.824Zm-0.896,-4.5l-4.875,3.497l4.875,-3.497Zm-3.228,-4.5l4.875,-3.498l-4.875,3.498Zm-0.401,-13.5l5.292,2.828l-5.292,-2.828Zm2.405,-4.5l-5.292,-2.828l5.292,2.828Zm-0.042,-4.5l5.25,-2.904l-5.25,2.904Zm-2.489,-4.5l5.25,-2.904l-5.25,2.904Zm-0.847,-4.5l5.908,1.044l-5.908,-1.044Zm0.795,-4.5l-5.908,-1.045l5.908,1.045Zm0.791,-9l-5.99,-0.349l5.99,0.349Zm1.168,-4.5l5.449,2.512l-5.449,-2.512Zm1.037,-2.25l5.449,2.512l-5.449,-2.512Zm1.037,-2.25l5.449,2.512l-5.449,-2.512Zm-0.038,-4.5l5.414,-2.587l-5.414,2.587Zm-1.075,-2.25l-5.414,2.587l5.414,-2.587Zm-1.075,-2.25l-5.414,2.587l5.414,-2.587Zm-0.274,-4.5l-5.652,-2.013l5.652,2.013Zm1.602,-4.5l5.653,2.012l-5.653,-2.012Zm-0.229,-4.5l-5.456,2.497l5.456,-2.497Zm-2.06,-4.5l5.456,-2.498l-5.456,2.498Zm0.315,-4.5l-5.15,-3.078l5.15,3.078Zm2.689,-4.5l5.15,3.078l-5.15,-3.078Zm0.324,-4.5l5.464,-2.48l-5.464,2.48Zm-2.042,-4.5l-5.464,2.48l5.464,-2.48Zm-0.009,-4.5l-5.472,-2.461l5.472,2.461Zm2.024,-4.5l5.472,2.461l-5.472,-2.461Zm-0.348,-4.5l5.135,-3.104l-5.135,3.104Zm-2.72,-4.5l-5.135,3.104l5.135,-3.104Zm-1.547,-4.5l-5.979,0.496l5.979,-0.496Zm0.238,-9l-5.655,-2.006l5.655,2.006Zm4.168,-13.347l-5.794,-1.558l5.794,1.558Zm1.417,-6.345l-5.884,-1.172l5.884,1.172Zm1.146,-6.402l-5.94,-0.844l5.94,0.844Zm8.301,-15.29l4.032,4.443l-4.032,-4.443Zm3.342,-3.033l-4.032,-4.443l4.032,4.443Zm13.013,-2.983l-2.574,-5.42l2.574,5.42Zm3.865,-1.836l2.574,5.42l-2.574,-5.42Zm9.275,-2.275l-1.877,5.699l1.877,-5.699Zm2.25,0.741l-1.877,5.699l2.25,0.741l1.877,-5.699l1.877,-5.699l-2.25,-0.741l-1.877,5.699Zm2.25,0.741l-1.877,5.699c3.074,1.012 6.188,0.712 9.005,-0.66l-2.628,-5.394l-2.628,-5.394c-0.078,0.038 -0.121,0.051 -0.131,0.054c-0.005,0.002 -0.004,0.001 0.003,-0c0.007,-0.001 0.019,-0.003 0.034,-0.004c0.015,-0.001 0.032,-0.002 0.048,-0.001c0.017,0 0.032,0.002 0.044,0.003c0.012,0.002 0.02,0.003 0.022,0.004c0.002,0 -0.003,-0.001 -0.015,-0.005l-1.877,5.699Zm4.5,-0.355l2.628,5.394l2.25,-1.096l-2.628,-5.394l-2.628,-5.394l-2.25,1.096l2.628,5.394Zm2.25,-1.096l2.628,5.394l2.25,-1.096l-2.628,-5.394l-2.628,-5.394l-2.25,1.096l2.628,5.394Zm2.25,-1.096l2.628,5.394c0.073,-0.036 0.11,-0.046 0.114,-0.047c0.002,-0.001 -0.019,0.005 -0.059,0.008c-0.04,0.003 -0.079,0.001 -0.111,-0.003c-0.031,-0.004 -0.038,-0.009 -0.016,-0.001l1.944,-5.676l1.944,-5.676c-3.087,-1.057 -6.228,-0.778 -9.072,0.608l2.628,5.394Zm4.5,-0.326l-1.944,5.676l2.25,0.771l1.944,-5.676l1.944,-5.676l-2.25,-0.771l-1.944,5.676Zm2.25,0.771l-1.944,5.676l2.25,0.771l1.944,-5.676l1.944,-5.676l-2.25,-0.771l-1.944,5.676Zm2.25,0.771l-1.944,5.676c2.555,0.875 5.224,1.019 7.87,0.372l-2.851,-11.656c-0.354,0.087 -0.685,0.084 -1.13,-0.068l-1.944,5.676Zm3.074,-5.608l2.851,11.656l2.25,-0.55l-2.851,-11.656l-2.25,0.55Zm2.25,-0.55l2.851,11.656l2.25,-0.55l-1.426,-5.828l-1.426,-5.828l-2.25,0.55Zm3.676,5.278l1.426,5.828c0.396,-0.097 0.763,-0.092 1.228,0.058l1.846,-5.709l1.846,-5.709c-2.535,-0.82 -5.168,-0.934 -7.772,-0.297l1.426,5.828Zm4.5,0.177l-1.846,5.709l2.25,0.728l1.846,-5.709l1.846,-5.709l-2.25,-0.728l-1.846,5.709Zm2.25,0.728l-1.846,5.709l2.25,0.728l1.846,-5.709l1.846,-5.709l-2.25,-0.728l-1.846,5.709Zm2.25,0.728l-1.846,5.709c3.483,1.126 6.857,0.384 9.639,-1.443l-3.293,-5.016l-3.293,-5.016c-0.176,0.116 -0.151,0.058 0.057,0.023c0.1,-0.017 0.214,-0.023 0.33,-0.014c0.115,0.009 0.202,0.03 0.252,0.047l-1.846,5.709Zm4.5,-0.749l3.293,5.016l2.25,-1.477l-3.293,-5.016l-3.293,-5.016l-2.25,1.477l3.293,5.016Zm2.25,-1.477l3.293,5.016l2.25,-1.477l-3.293,-5.016l-3.293,-5.016l-2.25,1.477l3.293,5.016Zm2.25,-1.477l3.293,5.016c-0.022,0.014 -0.379,0.23 -0.99,0.236c-0.615,0.005 -0.989,-0.207 -1.033,-0.235l3.23,-5.056l3.23,-5.056c-1.544,-0.986 -3.418,-1.671 -5.533,-1.652c-2.111,0.019 -3.968,0.733 -5.49,1.733l3.293,5.016Zm4.5,-0.04l-3.23,5.056l2.25,1.438l3.23,-5.056l3.23,-5.056l-2.25,-1.438l-3.23,5.056Zm2.25,1.438l-3.23,5.056l2.25,1.438l3.23,-5.056l3.23,-5.056l-2.25,-1.438l-3.23,5.056Zm2.25,1.438l-3.23,5.056c2.755,1.76 6.059,2.477 9.477,1.437l-1.747,-5.74l-1.746,-5.74c0.041,-0.013 0.114,-0.029 0.211,-0.036c0.098,-0.007 0.193,-0.001 0.275,0.013c0.171,0.029 0.174,0.072 -0.01,-0.045l-3.23,5.056Zm4.5,0.753l1.747,5.74l2.25,-0.685l-1.747,-5.74l-1.746,-5.74l-2.25,0.685l1.746,5.74Zm2.25,-0.685l1.747,5.74l2.25,-0.684l-1.747,-5.74l-1.746,-5.74l-2.25,0.685l1.746,5.74Zm2.25,-0.685l1.747,5.74c1.109,-0.338 2.191,-0.544 3.25,-0.632l-0.497,-5.979l-0.496,-5.979c-1.942,0.161 -3.86,0.536 -5.75,1.111l1.746,5.74Zm4.5,-0.871l0.497,5.979l2.25,-0.187l-0.497,-5.979l-0.496,-5.979l-2.25,0.187l0.496,5.979Zm2.25,-0.187l0.497,5.979l2.25,-0.187l-0.497,-5.979l-0.496,-5.979l-2.25,0.187l0.496,5.979Zm2.25,-0.187l0.497,5.979c0.408,-0.034 0.851,0.023 1.418,0.284l2.507,-5.451l2.508,-5.451c-2.33,-1.072 -4.835,-1.556 -7.426,-1.341l0.496,5.979Zm4.422,0.813l-2.507,5.451l2.172,0.999l2.508,-5.451l2.507,-5.451l-2.172,-0.999l-2.508,5.451Zm2.173,0.999l-2.508,5.451l2.173,0.999l2.507,-5.451l2.508,-5.451l-2.173,-0.999l-2.507,5.451Zm2.172,0.999l-2.507,5.451c2.667,1.227 5.521,1.504 8.353,0.898l-1.255,-5.867l-1.256,-5.867c-0.392,0.084 -0.598,0.04 -0.827,-0.066l-2.508,5.451Zm4.591,0.482l1.255,5.867l2.418,-0.517l-1.255,-5.867l-1.256,-5.867l-2.418,0.517l1.256,5.867Zm2.418,-0.517l1.255,5.867l2.418,-0.517l-1.255,-5.867l-1.256,-5.867l-2.418,0.517l1.256,5.867Zm2.418,-0.517l1.255,5.867c0.066,-0.014 0.086,-0.013 0.068,-0.012c-0.021,0 -0.068,-0.001 -0.134,-0.013c-0.067,-0.013 -0.131,-0.032 -0.186,-0.056c-0.054,-0.023 -0.08,-0.041 -0.078,-0.04l3.414,-4.934l3.415,-4.934c-2.728,-1.888 -5.884,-2.415 -9.01,-1.747l1.256,5.867Zm4.339,0.813l-3.414,4.934l1.921,1.33l3.415,-4.934l3.415,-4.933l-1.922,-1.33l-3.415,4.934Zm1.922,1.33l-3.415,4.934l1.922,1.33l3.415,-4.933l3.415,-4.934l-1.922,-1.33l-3.415,4.933Zm1.922,1.33l-3.415,4.933c0.688,0.476 1.233,1.029 1.673,1.674l9.914,-6.762c-1.285,-1.883 -2.883,-3.481 -4.757,-4.779l-3.415,4.934Zm8.172,-0.155l-9.914,6.762l1.294,1.896l4.956,-3.381l4.957,-3.381l-1.293,-1.896Zm-3.664,5.277l-4.956,3.381l1.293,1.896l4.957,-3.381l4.956,-3.381l-1.293,-1.896l-4.957,3.381Zm1.294,1.896l-4.957,3.381c1.438,2.108 3.33,3.757 5.55,4.959l2.856,-5.277l2.855,-5.277c-0.654,-0.354 -1.061,-0.747 -1.348,-1.167l-4.956,3.381Zm3.449,3.063l-2.856,5.277l2.156,1.167l2.855,-5.277l2.856,-5.277l-2.156,-1.167l-2.855,5.277Zm2.155,1.167l-2.855,5.277l2.155,1.167l5.712,-10.554l-2.156,-1.167l-2.856,5.277Zm5.012,-4.11l-5.712,10.554c0.031,0.016 -0.127,-0.067 -0.301,-0.308c-0.178,-0.247 -0.231,-0.463 -0.24,-0.518l5.926,-0.944l5.925,-0.944c-0.554,-3.476 -2.585,-6.21 -5.598,-7.841Zm-0.327,8.784l-5.926,0.944l0.373,2.341l5.925,-0.944l5.926,-0.944l-0.373,-2.341l-5.925,0.944Zm0.372,2.341l-5.925,0.944l0.373,2.341l5.925,-0.944l5.926,-0.944l-0.373,-2.341l-5.926,0.944Zm0.373,2.341l-5.925,0.944c0.18,1.132 0.223,2.186 0.15,3.174l5.984,0.443l5.983,0.443c0.146,-1.972 0.05,-3.958 -0.266,-5.947l-5.926,0.944Zm0.209,4.56l-5.984,-0.443l-0.164,2.219l5.983,0.443l5.984,0.443l0.164,-2.219l-5.983,-0.443Zm-0.165,2.219l-5.983,-0.443l-0.165,2.219l5.984,0.443l5.983,0.443l0.165,-2.219l-5.984,-0.443Zm-0.164,2.219l-5.984,-0.443c-0.127,1.712 -0.153,3.416 -0.076,5.109l5.994,-0.272l5.994,-0.272c-0.055,-1.206 -0.037,-2.432 0.055,-3.679l-5.983,-0.443Zm-0.066,4.394l-5.994,0.272l0.099,2.174l5.994,-0.272l5.993,-0.272l-0.098,-2.174l-5.994,0.272Zm0.099,2.174l-5.994,0.272l0.098,2.174l5.994,-0.272l5.994,-0.272l-0.099,-2.174l-5.993,0.272Zm0.098,2.174l-5.994,0.272c0.082,1.809 0.328,3.623 0.725,5.437l11.722,-2.569c-0.26,-1.186 -0.41,-2.322 -0.459,-3.412l-5.994,0.272Zm6.453,3.14l-11.722,2.569l0.493,2.25l11.722,-2.569l-0.493,-2.25Zm0.493,2.25l-11.722,2.569l0.493,2.25l11.722,-2.569l-0.493,-2.25Zm0.493,2.25l-11.722,2.569c0.221,1.007 0.306,1.99 0.265,2.962l5.994,0.253l5.995,0.253c0.086,-2.028 -0.095,-4.045 -0.532,-6.038Zm-5.463,5.785l-5.994,-0.253l-0.095,2.25l5.994,0.253l5.995,0.253l0.095,-2.25l-5.995,-0.253Zm-0.095,2.25l-5.994,-0.253l-0.095,2.25l5.994,0.253l5.995,0.253l0.095,-2.25l-5.995,-0.253Zm-0.095,2.25l-5.994,-0.253c-0.098,2.306 0.265,4.566 1.03,6.743l5.66,-1.99l5.661,-1.99c-0.29,-0.823 -0.391,-1.563 -0.362,-2.257l-5.995,-0.253Zm0.696,4.5l-5.66,1.99l0.791,2.25l5.66,-1.99l5.661,-1.99l-0.791,-2.25l-5.661,1.99Zm0.791,2.25l-5.66,1.99l0.791,2.25l5.66,-1.99l5.661,-1.99l-0.791,-2.25l-5.661,1.99Zm0.791,2.25l-5.66,1.99c-0.009,-0.026 -0.028,-0.09 -0.039,-0.184c-0.011,-0.096 -0.01,-0.195 0.001,-0.289c0.025,-0.199 0.08,-0.24 -0.006,-0.095l5.15,3.079l5.149,3.079c1.709,-2.858 2.248,-6.207 1.066,-9.569l-5.661,1.99Zm-0.554,4.5l-5.15,-3.079l-1.345,2.25l5.149,3.079l5.15,3.079l1.345,-2.25l-5.149,-3.079Zm-1.346,2.25l-5.149,-3.079l-1.346,2.25l5.15,3.079l5.149,3.079l1.346,-2.25l-5.15,-3.079Zm-1.345,2.25l-5.15,-3.079c-0.963,1.61 -1.572,3.543 -1.446,5.682c0.124,2.113 0.936,3.929 1.981,5.389l4.88,-3.492l4.879,-3.492c-0.028,-0.039 0.203,0.276 0.239,0.889c0.037,0.639 -0.168,1.071 -0.234,1.182l-5.149,-3.079Zm0.265,4.5l-4.88,3.492l1.61,2.25l4.88,-3.492l4.879,-3.492l-1.61,-2.25l-4.879,3.492Zm1.61,2.25l-4.88,3.492l1.611,2.25l4.879,-3.492l4.879,-3.492l-1.61,-2.25l-4.879,3.492Zm1.61,2.25l-4.879,3.492c0.211,0.296 0.251,0.439 0.249,0.432c-0.001,-0.004 -0.009,-0.033 -0.013,-0.083c-0.004,-0.05 -0.002,-0.099 0.004,-0.142l11.892,1.602c0.449,-3.331 -0.616,-6.337 -2.374,-8.793l-4.879,3.492Zm7.253,5.301l-11.892,-1.602l-0.303,2.25l11.892,1.602l0.303,-2.25Zm-0.303,2.25l-11.892,-1.602l-0.303,2.25l11.892,1.602l0.303,-2.25Zm-0.303,2.25l-11.892,-1.602c-0.101,0.745 -0.355,1.588 -0.85,2.547l5.33,2.754l5.331,2.754c1.054,-2.041 1.777,-4.197 2.081,-6.453Zm-7.412,3.699l-5.33,-2.754l-1.163,2.25l10.662,5.508l1.162,-2.25l-5.331,-2.754Zm4.169,5.004l-10.662,-5.508l-1.162,2.25l10.662,5.508l1.162,-2.25Zm-1.162,2.25l-10.662,-5.508c-1.849,3.58 -1.444,7.394 0.649,10.562l5.006,-3.308l5.006,-3.307c-0.039,-0.059 0.121,0.166 0.154,0.626c0.035,0.483 -0.098,0.827 -0.153,0.935Zm-5.007,1.746l-5.006,3.308l1.486,2.25l5.006,-3.308l5.007,-3.307l-1.487,-2.25l-5.006,3.307Zm1.486,2.25l-5.006,3.308l1.487,2.25l5.006,-3.308l5.006,-3.307l-1.486,-2.25l-5.007,3.307Zm1.487,2.25l-5.006,3.308c0.131,0.198 0.091,0.206 0.06,0.04c-0.015,-0.081 -0.023,-0.177 -0.018,-0.28c0.005,-0.102 0.022,-0.182 0.036,-0.231l5.765,1.663l5.765,1.664c0.996,-3.454 0.2,-6.752 -1.596,-9.471l-5.006,3.307Zm0.837,4.5l-5.765,-1.663l-0.649,2.25l5.765,1.663l5.765,1.664l0.649,-2.25l-5.765,-1.664Zm-0.649,2.25l-5.765,-1.663l-0.649,2.25l5.765,1.663l5.764,1.664l0.65,-2.25l-5.765,-1.664Zm-0.649,2.25l-5.765,-1.663c-0.718,2.489 -0.783,5.048 -0.173,7.573l5.832,-1.41l5.832,-1.409c-0.114,-0.475 -0.109,-0.916 0.038,-1.427l-5.764,-1.664Zm-0.106,4.5l-5.832,1.41l0.544,2.25l5.832,-1.41l5.832,-1.409l-0.544,-2.25l-5.832,1.409Zm0.544,2.25l-5.832,1.41l0.544,2.25l5.832,-1.41l5.832,-1.409l-0.544,-2.25l-5.832,1.409Zm0.544,2.25l-5.832,1.41c0.252,1.042 0.37,2.059 0.365,3.061l6,0.029l6,0.03c0.01,-1.999 -0.228,-3.982 -0.701,-5.939l-5.832,1.409Zm0.533,4.5l-6,-0.029l-0.011,2.25l6,0.029l6,0.03l0.011,-2.25l-6,-0.03Zm-0.011,2.25l-6,-0.029l-0.011,2.25l6,0.029l6,0.03l0.011,-2.25l-6,-0.03Zm-0.011,2.25l-6,-0.029c-0.008,1.553 0.005,3.106 0.039,4.659l5.999,-0.13l5.998,-0.13c-0.031,-1.447 -0.043,-2.894 -0.036,-4.34l-6,-0.03Zm0.038,4.5l-5.999,0.13l0.049,2.25l5.998,-0.13l5.999,-0.13l-0.049,-2.25l-5.998,0.13Zm0.048,2.25l-5.998,0.13l0.048,2.25l11.998,-0.26l-0.049,-2.25l-5.999,0.13Zm6.048,2.12l-11.998,0.26c0.036,1.652 0.135,3.303 0.295,4.952l11.944,-1.164c-0.132,-1.35 -0.212,-2.699 -0.241,-4.048Zm0.241,4.048l-11.944,1.164l0.22,2.25l5.971,-0.582l5.972,-0.582l-0.219,-2.25Zm-5.753,2.832l-5.971,0.582l0.219,2.25l5.971,-0.582l5.972,-0.582l-0.219,-2.25l-5.972,0.582Zm0.219,2.25l-5.971,0.582c0.009,0.093 0.029,0.364 -0.304,0.949l10.428,5.938c1.375,-2.415 2.102,-5.144 1.819,-8.051l-5.972,0.582Zm4.153,7.469l-10.428,-5.938l-1.282,2.25l5.215,2.969l5.214,2.969l1.281,-2.25Zm-6.495,-0.719l-5.215,-2.969l-1.281,2.25l10.428,5.938l1.282,-2.25l-5.214,-2.969Zm3.932,5.219l-10.428,-5.938c-1.419,2.494 -2.114,5.333 -1.675,8.337l5.937,-0.868l5.937,-0.867c-0.006,-0.041 -0.007,-0.076 0.007,-0.141c0.015,-0.073 0.064,-0.244 0.222,-0.523Zm-6.166,1.531l-5.937,0.868l0.329,2.25l5.937,-0.868l5.937,-0.867l-0.329,-2.25l-5.937,0.867Zm0.329,2.25l-5.937,0.868l0.329,2.25l5.937,-0.868l5.937,-0.867l-0.329,-2.25l-5.937,0.867Zm0.329,2.25l-5.937,0.868c0.089,0.608 0.051,1.227 -0.155,1.919l5.75,1.713l5.75,1.714c0.688,-2.309 0.878,-4.689 0.529,-7.081l-5.937,0.867Zm-0.342,4.5l-5.75,-1.713l-0.671,2.25l5.75,1.713l5.75,1.714l0.671,-2.25l-5.75,-1.714Zm-0.671,2.25l-5.75,-1.713l-0.67,2.25l5.75,1.713l5.75,1.714l0.67,-2.25l-5.75,-1.714Zm-0.67,2.25l-5.75,-1.713c-0.97,3.255 -0.413,6.449 1.177,9.209l5.199,-2.996l5.199,-2.995c-0.053,-0.091 -0.072,-0.141 -0.075,-0.15c-0.003,-0.008 0.007,0.016 0.014,0.069c0.007,0.053 0.01,0.115 0.005,0.177c-0.005,0.061 -0.015,0.101 -0.019,0.113l-5.75,-1.714Zm0.626,4.5l-5.199,2.996l1.296,2.25l5.199,-2.996l5.199,-2.995l-1.296,-2.25l-5.199,2.995Zm1.296,2.25l-5.199,2.996l1.297,2.25l5.198,-2.996l5.199,-2.995l-1.296,-2.25l-5.199,2.995Zm1.296,2.25l-5.198,2.996c0.002,0.004 -0.035,-0.059 -0.073,-0.189c-0.039,-0.134 -0.07,-0.309 -0.071,-0.51c-0.004,-0.438 0.13,-0.706 0.144,-0.731l5.234,2.934l5.233,2.934c1.884,-3.36 1.841,-7.112 -0.07,-10.429l-5.199,2.995Zm0.036,4.5l-5.234,-2.934l-1.262,2.25l10.468,5.868l1.261,-2.25l-5.233,-2.934Zm3.972,5.184l-10.468,-5.868l-1.261,2.25l10.468,5.868l1.261,-2.25Zm-1.261,2.25l-10.468,-5.868c-0.889,1.588 -1.434,3.446 -1.334,5.477c0.098,2.015 0.809,3.786 1.776,5.256l10.024,-6.598c-0.02,-0.03 0.16,0.242 0.185,0.756c0.026,0.532 -0.134,0.89 -0.183,0.977Zm-0.002,-1.733l-10.024,6.598l1.481,2.25l10.024,-6.598l-1.481,-2.25Zm1.481,2.25l-10.024,6.598l1.482,2.25l5.011,-3.299l5.012,-3.299l-1.481,-2.25Zm-3.531,5.549l-5.011,3.299c0.138,0.21 0.11,0.24 0.083,0.102c-0.013,-0.066 -0.021,-0.149 -0.018,-0.241c0.004,-0.091 0.017,-0.163 0.029,-0.209l11.594,3.098c0.913,-3.419 0.101,-6.665 -1.665,-9.348l-5.012,3.299Zm6.677,6.049l-11.594,-3.098l-0.601,2.25l5.797,1.549l5.796,1.549l0.602,-2.25Zm-6.398,0.701l-5.797,-1.549l-0.601,2.25l5.796,1.549l5.797,1.549l0.601,-2.25l-5.796,-1.549Zm-0.602,2.25l-5.796,-1.549c-0.408,1.525 -0.805,3.05 -1.191,4.575l11.632,2.948c0.374,-1.475 0.758,-2.95 1.152,-4.425l-5.797,-1.549Zm4.645,5.974l-11.632,-2.948l-0.57,2.25l11.632,2.948l0.57,-2.25Zm-0.57,2.25l-11.632,-2.948l-0.571,2.25l5.817,1.474l5.816,1.474l0.57,-2.25Zm-6.386,0.776l-5.817,-1.474c-0.664,2.624 -0.557,5.28 0.278,7.837l5.703,-1.863l5.704,-1.862c-0.145,-0.444 -0.148,-0.787 -0.052,-1.164l-5.816,-1.474Zm0.164,4.5l-5.703,1.863l0.734,2.25l5.704,-1.863l5.704,-1.862l-0.735,-2.25l-5.704,1.862Zm0.735,2.25l-5.704,1.863l0.735,2.25l5.704,-1.863l5.703,-1.862l-0.734,-2.25l-5.704,1.862Zm0.735,2.25l-5.704,1.863c0.004,0.012 0.005,0.016 0.004,0.014c0,-0.003 -0.002,-0.01 -0.003,-0.023c-0.002,-0.012 -0.003,-0.027 -0.003,-0.044c-0.001,-0.017 0,-0.034 0.001,-0.049c0.001,-0.015 0.003,-0.026 0.004,-0.033c0.002,-0.007 0.002,-0.008 0.001,-0.002c-0.004,0.011 -0.017,0.055 -0.056,0.134l5.388,2.64l5.387,2.641c1.379,-2.812 1.69,-5.925 0.684,-9.003l-5.703,1.862Zm-0.368,4.5l-5.388,-2.64l-1.103,2.25l5.388,2.64l5.388,2.641l1.102,-2.25l-5.387,-2.641Zm-1.103,2.25l-5.388,-2.64l-1.102,2.25l5.387,2.64l5.388,2.641l1.103,-2.25l-5.388,-2.641Zm-1.103,2.25l-5.387,-2.64c-1.096,2.234 -1.717,4.642 -1.705,7.167l12,-0.054c-0.003,-0.475 0.105,-1.067 0.48,-1.832l-5.388,-2.641Zm4.908,4.473l-12,0.054l0.01,2.25l12,-0.054l-0.01,-2.25Zm0.01,2.25l-12,0.054l0.01,2.25l12,-0.054l-0.01,-2.25Zm0.01,2.25l-12,0.054c0.009,2.062 0.305,4.099 0.868,6.099l5.776,-1.626l5.775,-1.626c-0.281,-1 -0.415,-1.962 -0.419,-2.901Zm-5.356,4.527l-5.776,1.626l0.633,2.25l5.776,-1.626l5.775,-1.626l-0.633,-2.25l-5.775,1.626Zm0.633,2.25l-5.776,1.626l0.634,2.25l5.775,-1.626l5.776,-1.626l-0.634,-2.25l-5.775,1.626Zm0.633,2.25l-5.775,1.626c0.501,1.779 1.135,3.539 1.896,5.279l10.994,-4.81c-0.551,-1.26 -0.995,-2.5 -1.339,-3.721l-5.776,1.626Zm7.115,2.095l-10.994,4.81l0.985,2.25l10.994,-4.81l-0.985,-2.25Zm0.985,2.25l-10.994,4.81l0.984,2.25l10.994,-4.81l-0.984,-2.25Zm0.984,2.25l-10.994,4.81c0.306,0.7 0.376,1.243 0.346,1.7l11.974,0.79c0.168,-2.543 -0.319,-4.999 -1.326,-7.3Zm1.326,7.3l-11.974,-0.79l-0.148,2.25l11.974,0.79l0.148,-2.25Zm-0.148,2.25l-11.974,-0.79l-0.149,2.25l11.974,0.79l0.149,-2.25Zm-0.149,2.25l-11.974,-0.79c-0.095,1.445 -0.21,2.891 -0.345,4.337l5.973,0.558l5.974,0.559c0.146,-1.554 0.27,-3.109 0.372,-4.664Zm-6.346,4.105l-5.973,-0.558l-0.211,2.25l5.974,0.558l5.974,0.559l0.21,-2.25l-5.974,-0.559Zm-0.21,2.25l-5.974,-0.558l-0.21,2.25l5.974,0.558l5.974,0.559l0.21,-2.25l-5.974,-0.559Zm-0.21,2.25l-5.974,-0.558c-0.158,1.684 -0.237,3.369 -0.238,5.056l12,0.004c0.001,-1.313 0.063,-2.627 0.186,-3.943l-5.974,-0.559Zm5.788,4.502l-12,-0.004l0,2.25l12,0.004l0,-2.25Zm0,2.25l-12,-0.004l-0.001,2.25l12,0.004l0.001,-2.25Zm-0.001,2.25l-12,-0.004c-0.001,1.066 -0.115,2.143 -0.351,3.238l5.865,1.264l5.866,1.264c0.41,-1.905 0.619,-3.828 0.62,-5.762Zm-6.486,4.498l-5.865,-1.264l-0.485,2.25l5.865,1.264l5.866,1.264l0.485,-2.25l-5.866,-1.264Zm-0.485,2.25l-5.865,-1.264l-0.485,2.25l5.865,1.264l5.866,1.264l0.485,-2.25l-5.866,-1.264Zm-0.485,2.25l-5.865,-1.264c-0.374,1.735 -0.64,3.477 -0.798,5.225l5.976,0.539l5.975,0.539c0.113,-1.252 0.305,-2.51 0.578,-3.775l-5.866,-1.264Zm-0.687,4.5l-5.976,-0.539l-0.203,2.25l11.952,1.078l0.202,-2.25l-5.975,-0.539Zm5.773,2.789l-11.952,-1.078l-0.203,2.25l11.952,1.078l0.203,-2.25Zm-0.203,2.25l-11.952,-1.078c-0.117,1.301 -0.3,2.605 -0.55,3.913l5.893,1.126l5.894,1.126c0.323,-1.691 0.561,-3.387 0.715,-5.087Zm-6.609,3.961l-5.893,-1.126l-0.43,2.25l5.894,1.126l5.893,1.126l0.43,-2.25l-5.894,-1.126Zm-0.429,2.25l-5.894,-1.126l-0.43,2.25l5.894,1.126l5.893,1.126l0.43,-2.25l-5.893,-1.126Zm-0.43,2.25l-5.894,-1.126c-0.603,3.16 0.129,6.146 1.671,8.715l5.144,-3.089l5.144,-3.088c-0.076,-0.126 -0.119,-0.218 -0.142,-0.277c-0.024,-0.058 -0.03,-0.087 -0.03,-0.088c0,0 0.003,0.014 0.003,0.037c0,0.011 0,0.021 -0.001,0.029c-0.001,0.004 -0.001,0.007 -0.001,0.009c0,0.002 -0.001,0.002 -0.001,0.003l0,0.001l-5.893,-1.126Zm0.921,4.5l-5.144,3.089l1.35,2.25l5.145,-3.089l5.144,-3.088l-1.351,-2.25l-5.144,3.088Zm1.351,2.25l-5.145,3.089l1.351,2.25l5.144,-3.089l5.144,-3.088l-1.35,-2.25l-5.144,3.088Zm1.35,2.25l-5.144,3.089c0.169,0.281 0.216,0.446 0.229,0.502c0.011,0.045 0.008,0.055 0.006,0.066l5.941,0.843l5.94,0.844c0.436,-3.07 -0.334,-5.944 -1.828,-8.432l-5.144,3.088Zm1.032,4.5l-5.941,-0.843l-0.319,2.25l5.94,0.843l5.941,0.844l0.319,-2.25l-5.94,-0.844Zm-0.32,2.25l-5.94,-0.843l-0.32,2.25l5.941,0.843l5.94,0.844l0.32,-2.25l-5.941,-0.844Zm-0.319,2.25l-5.941,-0.843c-0.271,1.908 -0.345,3.841 -0.232,5.792l11.98,-0.698c-0.069,-1.182 -0.022,-2.316 0.133,-3.407l-5.94,-0.844Zm5.807,4.251l-11.98,0.698l0.137,2.35l11.98,-0.698l-0.137,-2.35Zm0.137,2.35l-11.98,0.698l0.137,2.349l5.99,-0.348l5.99,-0.349l-0.137,-2.35Zm-5.853,2.699l-5.99,0.348c0.029,0.498 -0.058,0.949 -0.311,1.454l10.728,5.378c1.178,-2.351 1.716,-4.893 1.563,-7.529l-5.99,0.349Zm4.427,7.18l-10.728,-5.378l-1.073,2.142l5.364,2.688l5.363,2.689l1.074,-2.141Zm-6.437,-0.548l-5.364,-2.688l-1.074,2.141l10.728,5.378l1.073,-2.142l-5.363,-2.689Zm4.29,4.831l-10.728,-5.378c-0.751,1.499 -1.462,2.991 -2.132,4.477l5.47,2.466l5.47,2.467c0.6,-1.332 1.24,-2.676 1.92,-4.032Zm-7.39,1.565l-5.47,-2.466l-0.953,2.113l10.94,4.932l0.953,-2.112l-5.47,-2.467Zm4.517,4.579l-10.94,-4.932l-0.952,2.113l5.47,2.466l5.469,2.466l0.953,-2.113Zm-6.422,-0.353l-5.47,-2.466c-0.14,0.31 -0.318,0.526 -0.662,0.741l3.183,5.087l3.182,5.086c2.318,-1.45 4.106,-3.475 5.236,-5.982l-5.469,-2.466Zm-2.949,3.362l-3.183,-5.087l-1.996,1.249l3.183,5.087l3.182,5.086l1.996,-1.249l-3.182,-5.086Zm-1.996,1.249l-3.183,-5.087l-1.996,1.249l3.183,5.086l3.182,5.087l1.996,-1.249l-3.182,-5.086Zm-1.996,1.248l-3.183,-5.086c-1.988,1.244 -3.685,2.833 -5.063,4.731l4.856,3.525l4.855,3.525c0.481,-0.663 1.045,-1.187 1.717,-1.608l-3.182,-5.087Zm-3.39,3.17l-4.856,-3.525l-1.394,1.921l4.855,3.525l4.856,3.525l1.394,-1.921l-4.855,-3.525Zm-1.395,1.921l-4.855,-3.525l-1.395,1.921l4.856,3.524l4.855,3.525l1.395,-1.92l-4.856,-3.525Zm-1.394,1.92l-4.856,-3.524c-0.042,0.058 -0.071,0.088 -0.082,0.099c-0.011,0.01 -0.012,0.01 -0.004,0.004c0.008,-0.005 0.013,-0.007 0.009,-0.005c-0.004,0.001 -0.028,0.011 -0.08,0.023l1.347,5.847l1.346,5.847c2.954,-0.68 5.412,-2.336 7.175,-4.766l-4.855,-3.525Zm-3.666,2.444l-1.347,-5.847l-2.271,0.523l2.692,11.694l2.272,-0.523l-1.346,-5.847Zm-0.926,6.37l-2.692,-11.694l-2.272,0.523l1.346,5.847l1.347,5.847l2.271,-0.523Zm-3.618,-5.324l-1.346,-5.847c-1.219,0.281 -2.405,0.457 -3.561,0.536l0.816,11.972c1.814,-0.123 3.628,-0.397 5.438,-0.814l-1.347,-5.847Zm-4.091,6.661l-0.816,-11.972l-2.228,0.152l0.816,11.972l2.228,-0.152Zm-2.228,0.152l-0.816,-11.972l-2.227,0.152l0.407,5.986l0.408,5.986l2.228,-0.152Zm-2.636,-5.834l-0.407,-5.986c-0.96,0.065 -1.929,0.006 -2.92,-0.185l-2.27,11.784c1.988,0.383 3.994,0.51 6.005,0.373l-0.408,-5.986Zm-5.597,5.613l2.27,-11.784l-2.234,-0.43l-1.135,5.892l-1.135,5.891l2.234,0.431Zm-1.099,-6.322l1.135,-5.892l-2.235,-0.431l-2.27,11.784l2.235,0.43l1.135,-5.891Zm-3.37,5.461l2.27,-11.784c-3.171,-0.61 -6.162,0.139 -8.722,1.686l3.103,5.135l3.102,5.136c0.253,-0.153 0.37,-0.174 0.361,-0.173c-0.003,0.001 -0.022,0.004 -0.051,0.005c-0.03,0 -0.053,-0.003 -0.063,-0.005Zm-3.349,-4.963l-3.103,-5.135l-2.25,1.359l3.103,5.135l3.102,5.136l2.25,-1.359l-3.102,-5.136Zm-2.25,1.359l-3.103,-5.135l-2.25,1.359l3.103,5.136l3.102,5.135l2.25,-1.359l-3.102,-5.136Zm-2.25,1.36l-3.103,-5.136c-0.85,0.514 -1.487,0.685 -1.947,0.727l0.55,5.975l0.549,5.975c2.54,-0.234 4.903,-1.107 7.053,-2.406l-3.102,-5.135Zm-4.5,1.566l-0.55,-5.975l-2.25,0.207l0.55,5.975l0.549,5.975l2.25,-0.207l-0.549,-5.975Zm-2.25,0.207l-0.55,-5.975l-2.25,0.207l0.55,5.975l0.549,5.975l2.25,-0.207l-0.549,-5.975Zm-2.25,0.207l-0.55,-5.975c-1.012,0.093 -2.024,0.063 -3.047,-0.093l-1.806,11.864c1.977,0.301 3.964,0.361 5.952,0.179l-0.549,-5.975Zm-5.403,5.796l1.806,-11.864l-2.25,-0.342l-0.903,5.931l-0.903,5.932l2.25,0.343Zm-1.347,-6.275l0.903,-5.931l-2.25,-0.343l-1.806,11.864l2.25,0.342l0.903,-5.932Zm-3.153,5.59l1.806,-11.864c-0.993,-0.151 -2.03,-0.438 -3.116,-0.885l-2.287,5.547l-2.287,5.547c1.914,0.789 3.877,1.349 5.884,1.655Zm-3.597,-7.202l2.287,-5.547l-2.251,-0.928l-2.287,5.547l-2.287,5.547l2.25,0.928l2.287,-5.547Zm-2.25,-0.928l2.287,-5.547l-2.25,-0.927l-2.287,5.547l-2.287,5.547l2.25,0.927l2.287,-5.547Zm-2.25,-0.927l2.287,-5.547c-1.926,-0.795 -3.905,-1.352 -5.93,-1.644l-0.857,5.938l-0.857,5.939c0.976,0.141 1.997,0.418 3.07,0.861l2.287,-5.547Zm-4.5,-1.253l0.857,-5.938l-2.25,-0.325l-0.857,5.939l-0.857,5.938l2.25,0.325l0.857,-5.939Zm-2.25,-0.324l0.857,-5.939l-2.25,-0.325l-0.857,5.939l-0.857,5.938l2.25,0.325l0.857,-5.938Zm-2.25,-0.325l0.857,-5.939c-1.799,-0.259 -3.605,-0.382 -5.414,-0.364l0.056,5.999l0.056,6c1.191,-0.011 2.386,0.069 3.586,0.242l0.857,-5.938Zm-4.5,-0.304l-0.056,-5.999l-2.25,0.021l0.056,5.999l0.056,6l2.25,-0.021l-0.056,-6Zm-2.25,0.021l-0.056,-5.999l-2.25,0.021l0.056,6l0.056,5.999l2.25,-0.021l-0.056,-6Zm-2.25,0.022l-0.056,-6c-2.361,0.022 -4.642,0.542 -6.806,1.469l2.363,5.516l2.363,5.515c0.835,-0.358 1.554,-0.495 2.194,-0.501l-0.056,-5.999Zm-4.5,0.985l-2.363,-5.516l-2.25,0.964l2.363,5.516l2.363,5.515l2.25,-0.964l-2.363,-5.515Zm-2.25,0.964l-2.363,-5.516l-2.25,0.964l2.363,5.515l2.363,5.516l2.25,-0.964l-2.363,-5.515Zm-2.25,0.963l-2.363,-5.515c-0.799,0.342 -1.472,0.459 -2.064,0.452l-0.074,6l-0.074,5.999c2.408,0.03 4.735,-0.477 6.936,-1.42l-2.363,-5.516Zm-4.5,0.937l0.074,-6l-2.25,-0.028l-0.074,6l-0.074,6l2.25,0.027l0.074,-5.999Zm-2.25,-0.028l0.074,-6l-2.25,-0.027l-0.074,5.999l-0.074,6l2.25,0.028l0.074,-6Zm-2.25,-0.028l0.074,-5.999c-0.537,-0.007 -1.153,-0.133 -1.897,-0.496l-5.26,10.786c2.193,1.07 4.546,1.679 7.009,1.709l0.074,-6Zm-7.083,4.291l5.26,-10.786l-2.203,-1.074l-2.63,5.393l-2.63,5.393l2.203,1.074Zm0.427,-6.467l2.63,-5.393l-2.203,-1.074l-5.26,10.786l2.203,1.074l2.63,-5.393Zm-4.833,4.319l5.26,-10.786c-2.602,-1.269 -5.456,-1.683 -8.356,-1.065l1.25,5.868l1.25,5.868c0.131,-0.028 0.261,-0.049 0.596,0.115Zm-1.846,-5.983l-1.25,-5.868l-2.273,0.484l2.5,11.736l2.273,-0.484l-1.25,-5.868Zm-1.023,6.352l-2.5,-11.736l-2.273,0.484l1.25,5.868l1.25,5.869l2.273,-0.485Zm-3.523,-5.384l-1.25,-5.868c-0.936,0.199 -1.959,0.275 -3.089,0.198l-0.815,11.972c2.167,0.148 4.309,0.013 6.404,-0.433l-1.25,-5.869Zm-5.153,6.302l0.815,-11.972l-2.473,-0.168l-0.815,11.972l2.473,0.168Zm-2.473,-0.168l0.815,-11.972l-2.473,-0.168l-0.407,5.986l-0.407,5.986l2.473,0.168Zm-2.066,-6.154l0.407,-5.986c0.079,0.005 0.381,0.052 0.729,0.281c0.339,0.223 0.461,0.447 0.449,0.424l-5.279,2.852l-5.279,2.852c1.749,3.238 4.774,5.305 8.566,5.563l0.407,-5.986Zm-3.694,-2.429l5.279,-2.852l-1.221,-2.26l-5.279,2.852l-5.279,2.852l1.221,2.26l5.279,-2.852Zm-1.221,-2.26l5.279,-2.852l-1.221,-2.261l-5.279,2.852l-5.279,2.852l1.221,2.261l5.279,-2.852Zm-1.221,-2.261l5.279,-2.852c-0.902,-1.669 -1.837,-3.212 -2.81,-4.613l-9.854,6.848c0.676,0.973 1.381,2.124 2.107,3.469l5.279,-2.852Zm-7.386,-0.617l9.854,-6.848l-1.237,-1.781l-9.854,6.848l1.237,1.781Zm-1.237,-1.781l9.854,-6.848l-1.237,-1.78l-4.927,3.424l-4.927,3.423l1.237,1.781Zm3.69,-5.204l4.927,-3.424c-0.833,-1.198 -1.669,-2.393 -2.508,-3.584l-4.904,3.457l-4.904,3.457c0.824,1.169 1.645,2.341 2.462,3.517l4.927,-3.423Zm-2.485,-3.551l4.904,-3.457l-1.247,-1.77l-4.904,3.457l-4.904,3.457l1.248,1.77l4.904,-3.457Zm-1.248,-1.77l4.904,-3.457l-1.248,-1.769l-4.904,3.456l-4.904,3.457l1.248,1.77l4.904,-3.457Zm-1.248,-1.77l4.904,-3.456c-0.612,-0.868 -1.157,-1.817 -1.633,-2.855l-5.454,2.501l-5.454,2.501c0.772,1.683 1.682,3.274 2.733,4.766l4.904,-3.457Zm-2.183,-3.81l5.454,-2.501l-0.936,-2.041l-5.454,2.501l-5.454,2.501l0.936,2.041l5.454,-2.501Zm-0.936,-2.041l5.454,-2.501l-0.936,-2.041l-5.454,2.501l-5.454,2.501l0.936,2.041l5.454,-2.501Zm-0.936,-2.041l5.454,-2.501c-0.108,-0.236 -0.144,-0.435 -0.087,-0.764l-5.911,-1.028l-5.911,-1.029c-0.465,2.674 -0.138,5.338 1.001,7.823l5.454,-2.501Zm-0.544,-4.293l5.911,1.028l0.392,-2.252l-5.911,-1.029l-5.911,-1.028l-0.392,2.252l5.911,1.029Zm0.392,-2.253l5.911,1.029l0.392,-2.252l-5.911,-1.029l-5.911,-1.029l-0.392,2.253l5.911,1.028Zm0.392,-2.252l5.911,1.029c0.482,-2.77 0.071,-5.477 -1.046,-7.978l-5.479,2.447l-5.478,2.446c0.223,0.5 0.221,0.794 0.18,1.027l5.911,1.029Zm-0.613,-4.502l5.479,-2.447l-1.005,-2.25l-5.478,2.447l-5.479,2.446l1.005,2.25l5.478,-2.446Zm-1.005,-2.25l5.478,-2.447l-1.005,-2.25l-5.479,2.447l-5.479,2.446l1.005,2.25l5.479,-2.446Zm-1.005,-2.25l5.479,-2.447c-0.031,-0.069 -0.041,-0.107 -0.043,-0.114c-0.001,-0.004 -0,-0.002 0.001,0.004c0.001,0.007 0.002,0.017 0.003,0.029c0.001,0.013 0.001,0.025 -0,0.038c-0.001,0.012 -0.002,0.021 -0.003,0.027c-0.002,0.014 -0.002,0.003 0.011,-0.035l-5.656,-2.002l-5.656,-2.003c-1.063,3.002 -0.889,6.094 0.386,8.949l5.479,-2.446Zm-0.208,-4.5l5.656,2.002l0.797,-2.25l-5.656,-2.002l-5.656,-2.003l-0.797,2.25l5.656,2.003Zm0.797,-2.25l5.656,2.002l0.797,-2.25l-5.656,-2.002l-5.656,-2.003l-0.797,2.25l5.656,2.003Zm0.797,-2.25l5.656,2.002c0.669,-1.888 1.132,-3.812 1.373,-5.766l-5.955,-0.736l-5.955,-0.736c-0.129,1.046 -0.382,2.122 -0.776,3.233l5.656,2.003Zm1.075,-4.5l5.955,0.736l0.278,-2.25l-5.955,-0.736l-5.955,-0.736l-0.278,2.25l5.955,0.736Zm0.278,-2.25l5.955,0.736l0.278,-2.25l-5.955,-0.736l-5.955,-0.736l-0.278,2.25l5.955,0.736Zm0.278,-2.25l5.955,0.736c0.365,-2.953 -0.338,-5.736 -1.729,-8.192l-5.222,2.956l-5.221,2.955c0.308,0.544 0.268,0.761 0.262,0.809l5.955,0.736Zm-0.995,-4.5l5.222,-2.956l-1.274,-2.25l-5.222,2.956l-5.222,2.955l1.274,2.25l5.221,-2.955Zm-1.274,-2.25l5.222,-2.956l-1.274,-2.25l-5.222,2.956l-5.222,2.955l1.274,2.25l5.222,-2.955Zm-1.274,-2.25l5.222,-2.956c-0.456,-0.805 -0.59,-1.401 -0.611,-1.834l-5.993,0.29l-5.993,0.29c0.124,2.566 0.911,4.97 2.154,7.165l5.222,-2.955Zm-1.382,-4.5l5.993,-0.29l-0.109,-2.25l-5.993,0.29l-5.993,0.29l0.109,2.25l5.993,-0.29Zm-0.109,-2.25l5.993,-0.29l-0.109,-2.25l-5.993,0.29l-5.993,0.29l0.109,2.25l5.993,-0.29Zm-0.109,-2.25l5.993,-0.29c-0.046,-0.954 0.035,-1.92 0.255,-2.911l-5.858,-1.299l-5.858,-1.3c-0.446,2.009 -0.625,4.044 -0.526,6.09l5.993,-0.29Zm0.39,-4.5l5.858,1.299l0.499,-2.25l-5.858,-1.299l-5.858,-1.3l-0.499,2.25l5.858,1.3Zm0.499,-2.25l5.858,1.299l0.499,-2.25l-5.858,-1.299l-5.858,-1.3l-0.499,2.25l5.858,1.3Zm0.499,-2.25l5.858,1.299c0.464,-2.09 0.607,-4.209 0.415,-6.336l-5.976,0.537l-5.976,0.537c0.078,0.873 0.023,1.753 -0.179,2.663l5.858,1.3Zm0.297,-4.5l5.976,-0.537l-0.202,-2.25l-5.976,0.537l-5.976,0.537l0.202,2.25l5.976,-0.537Zm-0.202,-2.25l5.976,-0.537l-0.202,-2.25l-5.976,0.537l-5.976,0.537l0.202,2.25l5.976,-0.537Zm-0.202,-2.25l5.976,-0.537c-0.105,-1.167 -0.112,-2.332 -0.021,-3.498l-5.982,-0.465l-5.982,-0.466c-0.143,1.834 -0.132,3.67 0.033,5.503l5.976,-0.537Zm-0.027,-4.5l5.982,0.465l0.175,-2.25l-5.982,-0.465l-5.982,-0.466l-0.175,2.25l5.982,0.466Zm0.175,-2.25l5.982,0.465l0.175,-2.25l-5.982,-0.465l-5.982,-0.466l-0.175,2.25l5.982,0.466Zm0.175,-2.25l5.982,0.465c0.062,-0.802 0.267,-1.671 0.671,-2.623l-5.524,-2.342l-5.524,-2.342c-0.868,2.047 -1.416,4.179 -1.587,6.376l5.982,0.466Zm1.129,-4.5l5.524,2.342l0.954,-2.25l-5.524,-2.342l-5.524,-2.342l-0.954,2.25l5.524,2.342Zm0.954,-2.25l5.524,2.342l0.954,-2.25l-11.048,-4.684l-0.954,2.25l5.524,2.342Zm-4.57,-4.592l11.048,4.684c1.104,-2.604 1.403,-5.405 0.738,-8.221l-5.84,1.379l-5.839,1.378c0.044,0.185 0.061,0.383 -0.107,0.78Zm5.947,-2.158l5.84,-1.379l-0.531,-2.25l-5.839,1.379l-5.839,1.378l0.531,2.25l5.839,-1.378Zm-0.531,-2.25l5.839,-1.379l-0.531,-2.25l-5.839,1.379l-5.839,1.378l0.531,2.25l5.839,-1.378Zm-0.531,-2.25l5.839,-1.379c-0.414,-1.756 -0.947,-3.497 -1.594,-5.225l-5.619,2.104l-5.619,2.103c0.476,1.273 0.859,2.531 1.153,3.775l5.839,-1.378Zm-1.374,-4.5l5.619,-2.104l-0.842,-2.25l-5.619,2.104l-5.619,2.103l0.842,2.25l5.619,-2.103Zm-0.842,-2.25l5.619,-2.104l-0.842,-2.25l-5.619,2.104l-5.619,2.103l0.842,2.25l5.619,-2.103Zm-0.842,-2.25l5.619,-2.104c-0.181,-0.483 -0.187,-0.826 -0.116,-1.16l-5.871,-1.236l-5.871,-1.237c-0.562,2.666 -0.322,5.324 0.62,7.84l5.619,-2.103Zm-0.368,-4.5l5.871,1.236l0.474,-2.25l-5.871,-1.236l-5.871,-1.237l-0.474,2.25l5.871,1.237Zm0.474,-2.25l5.871,1.236l0.474,-2.25l-5.871,-1.236l-5.871,-1.237l-0.474,2.25l5.871,1.237Zm0.474,-2.25l5.871,1.236c0.41,-1.948 0.594,-3.915 0.542,-5.893l-5.998,0.157l-5.998,0.156c0.027,1.023 -0.067,2.055 -0.288,3.107l5.871,1.237Zm0.415,-4.5l5.998,-0.157l-0.059,-2.25l-5.998,0.157l-5.998,0.156l0.059,2.25l5.998,-0.156Zm-0.059,-2.25l5.998,-0.157l-0.059,-2.25l-5.998,0.157l-5.998,0.156l0.059,2.25l5.998,-0.156Zm-0.059,-2.25l5.998,-0.157c-0.05,-1.902 -0.289,-3.791 -0.712,-5.664l-5.853,1.321l-5.853,1.32c0.254,1.128 0.393,2.238 0.421,3.336l5.998,-0.156Zm-0.567,-4.5l5.853,-1.321l-0.508,-2.25l-5.853,1.321l-5.853,1.32l0.508,2.25l5.853,-1.32Zm-0.508,-2.25l5.853,-1.321l-0.508,-2.25l-5.853,1.321l-5.853,1.32l0.508,2.25l5.853,-1.32Zm-0.508,-2.25l5.853,-1.321c-0.088,-0.392 -0.081,-0.771 0.084,-1.259l-5.684,-1.92l-5.684,-1.921c-0.848,2.512 -1.009,5.133 -0.421,7.741l5.853,-1.32Zm0.252,-4.5l5.684,1.92l0.76,-2.25l-5.684,-1.92l-5.684,-1.921l-0.76,2.25l5.684,1.921Zm0.76,-2.25l5.684,1.92l0.76,-2.25l-5.684,-1.92l-5.684,-1.921l-0.76,2.25l5.684,1.921Zm0.76,-2.25l5.684,1.92c0.473,-1.401 0.988,-2.804 1.545,-4.209l-5.578,-2.211l-5.578,-2.211c-0.632,1.594 -1.218,3.191 -1.759,4.79l5.684,1.921Zm1.652,-4.5l5.578,2.211l0.892,-2.25l-5.578,-2.211l-5.578,-2.211l-0.892,2.25l5.578,2.211Zm0.892,-2.25l5.578,2.211l0.892,-2.25l-5.578,-2.211l-5.578,-2.211l-0.892,2.25l5.578,2.211Zm0.892,-2.25l5.578,2.211c1.067,-2.692 1.243,-5.556 0.427,-8.379l-5.764,1.668l-5.764,1.667c0.051,0.177 0.067,0.314 -0.055,0.622l5.578,2.211Zm0.241,-4.5l5.764,-1.668l-0.651,-2.25l-5.764,1.668l-5.764,1.667l0.651,2.25l5.764,-1.667Zm-0.651,-2.25l5.764,-1.668l-0.651,-2.25l-5.764,1.668l-5.764,1.667l0.651,2.25l5.764,-1.667Zm-0.651,-2.25l5.764,-1.668c-0.101,-0.347 -0.101,-0.632 0.019,-1.009l-5.716,-1.823l-5.716,-1.824c-0.837,2.623 -0.882,5.338 -0.114,7.991l5.764,-1.667Zm0.067,-4.5l5.716,1.823l0.718,-2.25l-5.716,-1.823l-5.716,-1.824l-0.718,2.25l5.716,1.824Zm0.718,-2.25l5.716,1.823l0.718,-2.25l-5.716,-1.823l-5.716,-1.824l-0.718,2.25l5.716,1.824Zm0.718,-2.25l5.716,1.823c1.159,-3.633 0.228,-7.081 -1.737,-9.821l-4.875,3.498l-4.875,3.497c0.141,0.197 0.07,0.168 0.022,-0.075c-0.024,-0.12 -0.035,-0.259 -0.027,-0.406c0.009,-0.146 0.035,-0.263 0.06,-0.34l5.716,1.824Zm-0.896,-4.5l4.875,-3.498l-1.614,-2.25l-4.875,3.498l-4.875,3.497l1.614,2.25l4.875,-3.497Zm-1.614,-2.25l4.875,-3.498l-1.614,-2.25l-4.875,3.498l-4.875,3.497l1.614,2.25l4.875,-3.497Zm-1.614,-2.25l4.875,-3.498c-0.263,-0.367 -0.383,-0.626 -0.437,-0.775c-0.05,-0.14 -0.05,-0.204 -0.05,-0.22l-12,-0.014c-0.004,3.022 1.099,5.722 2.736,8.004l4.875,-3.497Zm-7.611,-4.507l12,0.014l0.003,-2.25l-12,-0.014l-0.003,2.25Zm0.003,-2.25l12,0.014l0.003,-2.25l-12,-0.014l-0.003,2.25Zm0.003,-2.25l12,0.014c0.001,-0.391 0.096,-0.93 0.497,-1.679l-5.292,-2.828l-5.292,-2.828c-1.203,2.25 -1.91,4.711 -1.913,7.321Zm7.205,-4.493l5.292,2.828l1.202,-2.25l-5.292,-2.828l-5.292,-2.828l-1.202,2.25l5.292,2.828Zm1.202,-2.25l5.292,2.828l1.202,-2.25l-5.292,-2.828l-5.292,-2.828l-1.202,2.25l5.292,2.828Zm1.202,-2.25l5.292,2.828c1.769,-3.312 1.721,-6.969 -0.083,-10.232l-5.25,2.904l-5.25,2.904c0.002,0.003 -0.113,-0.217 -0.117,-0.598c-0.002,-0.176 0.022,-0.332 0.054,-0.455c0.031,-0.119 0.064,-0.18 0.063,-0.179l5.292,2.828Zm-0.042,-4.5l5.25,-2.904l-1.245,-2.25l-5.25,2.904l-5.25,2.904l1.244,2.25l5.25,-2.904Zm-1.244,-2.25l5.25,-2.904l-1.244,-2.25l-10.501,5.808l1.244,2.25l5.25,-2.904Zm-6.495,0.654l10.501,-5.808c-0.143,-0.259 -0.179,-0.407 -0.188,-0.456c-0.008,-0.04 -0.007,-0.06 -0.001,-0.096l-5.908,-1.044l-5.908,-1.045c-0.534,3.022 0.099,5.906 1.505,8.449Zm4.404,-7.404l5.908,1.044l0.398,-2.25l-5.908,-1.044l-5.908,-1.045l-0.398,2.25l5.908,1.045Zm0.398,-2.25l5.908,1.044l0.398,-2.25l-5.908,-1.044l-5.908,-1.045l-0.398,2.25l5.908,1.045Zm0.398,-2.25l5.908,1.044c0.305,-1.727 0.509,-3.459 0.61,-5.196l-5.99,-0.348l-5.99,-0.349c-0.074,1.263 -0.222,2.531 -0.447,3.804l5.908,1.045Zm0.529,-4.5l5.99,0.348l0.131,-2.25l-5.99,-0.348l-5.99,-0.349l-0.131,2.25l5.99,0.349Zm0.131,-2.25l5.99,0.348l0.131,-2.25l-5.99,-0.348l-5.99,-0.349l-0.131,2.25l5.99,0.349Zm0.131,-2.25l5.99,0.348c0.04,-0.68 0.218,-1.45 0.627,-2.336l-5.449,-2.512l-5.449,-2.512c-0.974,2.113 -1.574,4.343 -1.709,6.663l5.99,0.349Zm1.168,-4.5l5.449,2.512l1.037,-2.25l-5.449,-2.512l-5.449,-2.512l-1.037,2.25l5.449,2.512Zm1.037,-2.25l5.449,2.512l1.037,-2.25l-5.449,-2.512l-5.449,-2.512l-1.037,2.25l5.449,2.512Zm1.037,-2.25l5.449,2.512c1.444,-3.133 1.407,-6.502 -0.073,-9.599l-5.414,2.587l-5.414,2.587c0.014,0.029 0.003,0.013 -0.011,-0.045c-0.014,-0.059 -0.027,-0.143 -0.028,-0.242c-0.001,-0.099 0.011,-0.185 0.025,-0.25c0.014,-0.062 0.027,-0.084 0.017,-0.062l5.449,2.512Zm-0.038,-4.5l5.414,-2.587l-1.075,-2.25l-5.414,2.587l-5.414,2.587l1.075,2.25l5.414,-2.587Zm-1.075,-2.25l5.414,-2.587l-1.075,-2.25l-5.414,2.587l-5.414,2.587l1.075,2.25l5.414,-2.587Zm-1.075,-2.25l5.414,-2.587c-0.033,-0.068 -0.041,-0.101 -0.041,-0.099c0.001,0.003 0.007,0.028 0.01,0.071c0.003,0.043 0,0.084 -0.005,0.115c-0.005,0.031 -0.009,0.037 0,0.012l-5.652,-2.012l-5.652,-2.013c-1.095,3.077 -0.858,6.23 0.513,9.1l5.414,-2.587Zm-0.274,-4.5l5.652,2.012l0.801,-2.25l-5.652,-2.012l-5.652,-2.013l-0.801,2.25l5.652,2.013Zm0.801,-2.25l5.652,2.012l0.801,-2.25l-5.653,-2.012l-5.653,-2.013l-0.801,2.25l5.652,2.013Zm0.801,-2.25l5.653,2.012c1.078,-3.03 0.885,-6.146 -0.426,-9.01l-5.456,2.498l-5.456,2.497c0.031,0.068 0.04,0.103 0.041,0.106c0.001,0.002 -0.001,-0.001 -0.002,-0.011c-0.001,-0.009 -0.003,-0.022 -0.004,-0.038c-0.001,-0.015 -0.001,-0.031 0,-0.047c0.001,-0.015 0.002,-0.028 0.004,-0.037c0.001,-0.01 0.003,-0.014 0.002,-0.012c-0.001,0.003 -0.003,0.012 -0.009,0.029l5.653,2.013Zm-0.229,-4.5l5.456,-2.498l-1.03,-2.25l-5.456,2.498l-5.456,2.497l1.03,2.25l5.456,-2.497Zm-1.03,-2.25l5.456,-2.498l-1.03,-2.25l-5.456,2.498l-5.456,2.497l1.03,2.25l5.456,-2.497Zm-1.03,-2.25l5.456,-2.498c0.033,0.072 0.118,0.32 0.094,0.666c-0.023,0.331 -0.127,0.482 -0.084,0.41l-5.15,-3.078l-5.15,-3.078c-1.838,3.076 -2.185,6.657 -0.62,10.075l5.456,-2.497Zm0.315,-4.5l5.15,3.078l1.345,-2.25l-5.15,-3.078l-5.15,-3.078l-1.345,2.25l5.15,3.078Zm1.345,-2.25l5.15,3.078l1.345,-2.25l-5.15,-3.078l-5.15,-3.078l-1.345,2.25l5.15,3.078Zm1.345,-2.25l5.15,3.078c1.833,-3.068 2.188,-6.641 0.637,-10.058l-5.464,2.48l-5.464,2.48c-0.033,-0.072 -0.116,-0.319 -0.091,-0.66c0.023,-0.326 0.126,-0.473 0.081,-0.398l5.15,3.078Zm0.324,-4.5l5.464,-2.48l-1.021,-2.25l-5.464,2.48l-5.464,2.48l1.021,2.25l5.464,-2.48Zm-1.021,-2.25l5.464,-2.48l-1.021,-2.25l-5.464,2.48l-5.464,2.48l1.021,2.25l5.464,-2.48Zm-1.021,-2.25l5.464,-2.48c-0.015,-0.033 -0.008,-0.025 0.003,0.021c0.011,0.047 0.021,0.115 0.021,0.196c0,0.081 -0.009,0.15 -0.02,0.198c-0.011,0.047 -0.018,0.056 -0.004,0.025l-5.472,-2.461l-5.472,-2.461c-1.383,3.074 -1.374,6.374 0.018,9.441l5.464,-2.48Zm-0.009,-4.5l5.472,2.461l1.012,-2.25l-5.472,-2.461l-5.472,-2.461l-1.012,2.25l5.472,2.461Zm1.012,-2.25l5.472,2.461l1.012,-2.25l-5.472,-2.461l-5.472,-2.461l-1.012,2.25l5.472,2.461Zm1.012,-2.25l5.472,2.461c1.544,-3.433 1.162,-7.009 -0.686,-10.065l-5.135,3.104l-5.135,3.104c0.048,0.08 -0.055,-0.064 -0.08,-0.391c-0.027,-0.343 0.056,-0.595 0.091,-0.674l5.472,2.461Zm-0.348,-4.5l5.135,-3.104l-1.36,-2.25l-5.135,3.104l-5.135,3.104l1.36,2.25l5.135,-3.104Zm-1.36,-2.25l5.135,-3.104l-1.36,-2.25l-5.135,3.104l-5.135,3.104l1.36,2.25l5.135,-3.104Zm-1.36,-2.25l5.135,-3.104c-0.506,-0.838 -0.666,-1.455 -0.702,-1.892l-5.979,0.496l-5.979,0.496c0.213,2.563 1.084,4.946 2.392,7.108l5.135,-3.104Zm-1.547,-4.5l5.979,-0.496l-0.187,-2.25l-5.979,0.496l-5.979,0.496l0.187,2.25l5.979,-0.496Zm-0.187,-2.25l5.979,-0.496l-0.187,-2.25l-5.979,0.496l-5.979,0.496l0.187,2.25l5.979,-0.496Zm-0.187,-2.25l5.979,-0.496c-0.05,-0.604 0.022,-1.253 0.287,-1.998l-5.655,-2.006l-5.655,-2.006c-0.8,2.255 -1.135,4.606 -0.936,7.002l5.979,-0.496Zm0.611,-4.5l5.655,2.006l0.798,-2.25l-5.655,-2.006l-5.655,-2.006l-0.798,2.25l5.655,2.006Zm0.798,-2.25l5.655,2.006l0.798,-2.25l-5.655,-2.006l-5.655,-2.006l-0.798,2.25l5.655,2.006Zm0.798,-2.25l5.655,2.006c0.582,-1.641 1.092,-3.273 1.529,-4.897l-5.794,-1.558l-5.794,-1.558c-0.352,1.308 -0.768,2.641 -1.25,4.001l5.655,2.006Zm1.389,-4.449l5.794,1.558l0.591,-2.199l-5.794,-1.558l-5.794,-1.558l-0.591,2.199l5.794,1.558Zm0.591,-2.199l5.794,1.558l0.591,-2.199l-5.794,-1.558l-5.794,-1.558l-0.591,2.199l5.794,1.558Zm0.591,-2.199l5.794,1.558c0.426,-1.584 0.791,-3.137 1.094,-4.658l-5.884,-1.172l-5.884,-1.172c-0.248,1.243 -0.552,2.539 -0.914,3.887l5.794,1.558Zm1.004,-4.272l5.884,1.172l0.413,-2.073l-5.884,-1.172l-5.884,-1.172l-0.413,2.073l5.884,1.172Zm0.413,-2.073l5.884,1.172l0.413,-2.073l-5.884,-1.172l-5.884,-1.172l-0.413,2.073l5.884,1.172Zm0.413,-2.073l5.884,1.172c0.299,-1.499 0.561,-3.052 0.789,-4.657l-5.94,-0.844l-5.94,-0.844c-0.199,1.402 -0.425,2.735 -0.677,4.001l5.884,1.172Zm0.733,-4.329l5.94,0.844l0.32,-2.256l-5.94,-0.844l-5.94,-0.844l-0.32,2.256l5.94,0.844Zm0.32,-2.256l5.94,0.844l0.32,-2.256l-5.94,-0.844l-5.94,-0.844l-0.32,2.256l5.94,0.844Zm0.32,-2.256l5.94,0.844c0.063,-0.442 0.207,-0.763 0.462,-1.077l-4.664,-3.774l-4.664,-3.774c-1.635,2.021 -2.649,4.372 -3.014,6.938l5.94,0.844Zm1.738,-4.007l4.664,3.774l1.417,-1.752l-9.329,-7.548l-1.417,1.752l4.664,3.774Zm-3.247,-5.526l9.329,7.548l1.417,-1.752l-9.329,-7.548l-1.417,1.752Zm1.417,-1.752l9.329,7.548c0.751,-0.928 1.569,-1.794 2.456,-2.599l-4.032,-4.443l-4.032,-4.443c-1.341,1.217 -2.582,2.53 -3.72,3.937Zm7.753,0.506l4.032,4.443l1.671,-1.517l-4.032,-4.443l-4.032,-4.443l-1.671,1.517l4.032,4.443Zm1.671,-1.517l4.032,4.443l1.671,-1.517l-4.032,-4.443l-4.032,-4.443l-1.671,1.517l4.032,4.443Zm1.671,-1.517l4.032,4.443c0.035,-0.032 0.057,-0.047 0.067,-0.053c0.009,-0.006 0.016,-0.009 0.023,-0.012c0.006,-0.003 0.075,-0.031 0.25,-0.042l-0.349,-5.99l-0.349,-5.99c-2.871,0.167 -5.53,1.225 -7.707,3.2l4.032,4.443Zm4.023,-1.654l0.349,5.99l2.352,-0.137l-0.349,-5.99l-0.349,-5.99l-2.352,0.137l0.349,5.99Zm2.352,-0.137l0.349,5.99l2.352,-0.137l-0.349,-5.99l-0.349,-5.99l-2.352,0.137l0.349,5.99Zm2.352,-0.137l0.349,5.99c2.261,-0.132 4.456,-0.649 6.51,-1.625l-2.574,-5.42l-2.574,-5.42c-0.523,0.248 -1.185,0.434 -2.06,0.485l0.349,5.99Zm4.285,-1.055l2.574,5.42l1.932,-0.918l-2.574,-5.42l-2.574,-5.42l-1.933,0.918l2.574,5.42Zm1.932,-0.918l2.574,5.42l1.933,-0.918l-2.574,-5.42l-2.574,-5.42l-1.932,0.918l2.574,5.42Zm1.933,-0.918l2.574,5.42c0.477,-0.227 0.832,-0.367 1.08,-0.448c0.257,-0.085 0.319,-0.082 0.225,-0.071l-0.673,-5.962l-0.673,-5.962c-1.803,0.204 -3.564,0.871 -5.107,1.604l2.574,5.42Zm3.206,-1.062l0.673,5.962l1.273,-0.144l-0.673,-5.962l-0.673,-5.962l-1.273,0.144l0.673,5.962Zm1.273,-0.144l0.673,5.962l1.273,-0.144l-0.673,-5.962l-0.673,-5.962l-1.273,0.144l0.673,5.962Zm1.273,-0.144l0.673,5.962c0.59,-0.067 1.572,-0.208 2.568,-0.618c0.536,-0.221 4.032,-1.75 4.032,-5.869l-12,0c0,-1.809 0.821,-3.202 1.656,-4.045c0.727,-0.734 1.453,-1.063 1.74,-1.181c0.571,-0.235 0.917,-0.241 0.658,-0.212l0.673,5.962Zm-4.727,-0.525l12,0l0,-0.381l-12,0l0,0.381Zm0,-0.381l12,0l0,-0.381l-12,0l0,0.381Zm0,-0.381l12,0c0,1.663 -0.712,3.324 -2.064,4.481c-1.115,0.954 -2.26,1.219 -2.741,1.305c-0.549,0.098 -0.975,0.088 -1.161,0.079c-0.214,-0.01 -0.363,-0.032 -0.419,-0.041c-0.123,-0.02 0.061,0.005 0.759,0.235l1.877,-5.699l1.877,-5.699c-0.802,-0.264 -1.743,-0.546 -2.616,-0.686c-0.327,-0.052 -1.295,-0.204 -2.424,-0.002c-0.575,0.103 -1.79,0.396 -2.952,1.39c-1.399,1.197 -2.134,2.91 -2.134,4.637Zm8.25,0.36l-1.877,5.699l2.25,0.741l1.877,-5.699l1.877,-5.699l-2.25,-0.741l-1.877,5.699Z" style="fill:#f3e8d6;fill-rule:nonzero;"/></svg>