<svg width="100%" height="100%" viewBox="0 0 309 394" version="1.1" xmlns="http://www.w3.org/2000/svg" xmlns:xlink="http://www.w3.org/1999/xlink" xml:space="preserve" xmlns:serif="http://www.serif.com/" style="fill-rule:evenodd;clip-rule:evenodd;stroke-linejoin:round;stroke-miterlimit:2;" preserveAspectRatio="none">
    <path d="M8.925,48.809C8.925,26.717 26.833,8.809 48.925,8.809L258.925,8.809C281.016,8.809 298.925,26.717 298.925,48.809L298.925,343.809C298.925,365.9 281.016,383.809 258.925,383.809L48.925,383.809C26.833,383.809 8.925,365.9 8.925,343.809L8.925,48.809Z" style="fill:rgb(243,232,214);fill-rule:nonzero;"/>
    <path d="M55.675,11.031L57.551,5.332L55.675,11.031ZM62.425,9.58L65.053,14.974L62.425,9.58ZM64.675,8.484L62.047,3.09L64.675,8.484ZM69.175,8.158L67.231,13.834L69.175,8.158ZM82.675,8.819L84.1,14.647L82.675,8.819ZM87.175,8.996L85.329,14.705L87.175,8.996ZM91.675,10.452L93.521,4.743L91.675,10.452ZM96.175,9.702L99.468,14.718L96.175,9.702ZM100.675,6.748L97.382,1.732L100.675,6.748ZM105.175,6.708L101.944,11.765L105.175,6.708ZM109.675,9.583L106.444,14.64L109.675,9.583ZM114.175,10.336L115.921,16.077L114.175,10.336ZM118.675,8.967L116.928,3.227L118.675,8.967ZM123.175,8.096L123.671,14.075L123.175,8.096ZM127.675,7.722L127.178,1.743L127.675,7.722ZM132.175,8.462L134.46,2.915L132.175,8.462ZM141.175,10.166L138.584,4.754L141.175,10.166ZM143.425,9.089L146.015,14.501L143.425,9.089ZM145.675,8.012L148.265,13.424L145.675,8.012ZM150.175,7.269L151.055,1.334L150.175,7.269ZM152.425,7.602L153.305,1.667L152.425,7.602ZM154.675,7.936L153.795,13.871L154.675,7.936ZM159.175,8.917L160.835,3.151L159.175,8.917ZM161.425,9.565L159.765,15.331L161.425,9.565ZM163.675,10.212L162.015,15.978L163.675,10.212ZM168.175,9.864L170.604,15.35L168.175,9.864ZM172.675,7.871L170.246,2.385L172.675,7.871ZM179.425,8.175L181.09,2.411L179.425,8.175ZM181.675,8.825L180.009,14.589L181.675,8.825ZM186.175,10.097L187.774,4.314L186.175,10.097ZM188.425,10.719L186.826,16.503L188.425,10.719ZM190.675,11.341L189.076,17.125L190.675,11.341ZM195.175,11.906L195.023,5.908L195.175,11.906ZM204.175,11.243L205.459,17.104L204.175,11.243ZM206.425,10.749L205.14,4.889L206.425,10.749ZM208.675,10.256L207.39,4.395L208.675,10.256ZM217.675,10.048L217.422,16.043L217.675,10.048ZM222.175,9.352L224.165,15.013L222.175,9.352ZM224.425,8.561L222.435,2.901L224.425,8.561ZM226.675,7.77L224.685,2.11L226.675,7.77ZM240.175,10.751L236.683,5.872L240.175,10.751ZM244.675,7.531L248.167,12.41L244.675,7.531ZM258.059,8.398L261.118,3.236L258.059,8.398ZM262.329,10.928L265.388,5.766L262.329,10.928ZM269.566,10.503L271.453,16.199L269.566,10.503ZM272.118,9.658L270.231,3.962L272.118,9.658ZM276.433,10.48L272.311,14.84L276.433,10.48ZM278.196,12.147L274.075,16.508L278.196,12.147ZM279.96,13.814L284.082,9.454L279.96,13.814ZM283.838,16.595L286.633,11.286L283.838,16.595ZM288.065,18.821L285.27,24.13L288.065,18.821ZM291.584,21.863L286.734,25.396L291.584,21.863ZM294.395,25.722L299.245,22.19L294.395,25.722ZM296.795,29.828L302.252,27.332L296.795,29.828ZM298.786,34.18L293.33,36.676L298.786,34.18ZM300.435,38.698L306.214,37.085L300.435,38.698ZM301.742,43.382L295.963,44.995L301.742,43.382ZM301.142,48.036L295.867,45.176L301.142,48.036ZM298.633,52.662L303.908,55.522L298.633,52.662ZM297.708,57.224L291.771,58.092L297.708,57.224ZM298.037,59.474L303.974,58.607L298.037,59.474ZM298.365,61.724L304.302,60.857L298.365,61.724ZM298.024,66.224L292.274,64.511L298.024,66.224ZM296.683,70.724L290.933,69.011L296.683,70.724ZM297.308,75.224L292.11,78.22L297.308,75.224ZM298.605,77.474L303.804,74.479L298.605,77.474ZM299.936,84.224L305.17,87.158L299.936,84.224ZM297.414,88.724L292.18,85.79L297.414,88.724ZM297.634,93.224L302.645,89.925L297.634,93.224ZM299.115,95.474L294.103,98.773L299.115,95.474ZM300.596,97.724L295.584,101.023L300.596,97.724ZM301.476,102.224L307.272,103.773L301.476,102.224ZM300.273,106.724L294.477,105.175L300.273,106.724ZM299.102,111.224L293.285,109.75L299.102,111.224ZM298.531,113.474L292.715,112L298.531,113.474ZM297.961,115.724L303.778,117.198L297.961,115.724ZM298.126,120.224L303.83,118.362L298.126,120.224ZM298.861,122.474L293.157,124.337L298.861,122.474ZM299.228,129.224L304.615,131.865L299.228,129.224ZM298.125,131.474L292.737,128.834L298.125,131.474ZM297.022,133.724L302.41,136.365L297.022,133.724ZM295.929,138.224L289.929,138.251L295.929,138.224ZM295.95,142.724L301.95,142.697L295.95,142.724ZM296.593,147.224L302.369,145.598L296.593,147.224ZM297.86,151.724L292.085,153.35L297.86,151.724ZM299.478,156.224L304.975,153.819L299.478,156.224ZM301.447,160.724L295.95,163.129L301.447,160.724ZM302.283,165.224L308.27,165.619L302.283,165.224ZM301.986,169.724L295.999,169.329L301.986,169.724ZM301.627,174.224L307.601,174.783L301.627,174.224ZM301.206,178.724L295.232,178.166L301.206,178.724ZM300.995,183.224L294.995,183.222L300.995,183.224ZM300.994,187.724L306.994,187.726L300.994,187.724ZM300.508,192.224L294.643,190.96L300.508,192.224ZM299.538,196.724L305.403,197.988L299.538,196.724ZM298.85,201.224L292.875,200.685L298.85,201.224ZM298.648,203.474L304.623,204.013L298.648,203.474ZM298.445,205.724L292.469,205.185L298.445,205.724ZM297.812,210.224L291.919,209.098L297.812,210.224ZM296.952,214.724L291.059,213.598L296.952,214.724ZM297.873,219.224L303.018,216.136L297.873,219.224ZM299.224,221.474L294.08,224.563L299.224,221.474ZM300.575,223.724L305.719,220.636L300.575,223.724ZM301.606,228.224L295.666,227.381L301.606,228.224ZM300.968,232.724L306.908,233.568L300.968,232.724ZM300.91,237.224L306.87,236.53L300.91,237.224ZM301.434,241.724L307.394,241.03L301.434,241.724ZM301.221,246.224L307.091,247.465L301.221,246.224ZM300.27,250.724L294.399,249.483L300.27,250.724ZM299.954,255.224L305.939,254.798L299.954,255.224ZM300.115,257.474L294.13,257.901L300.115,257.474ZM300.275,259.724L306.26,259.298L300.275,259.724ZM299.747,264.224L294.009,262.469L299.747,264.224ZM298.371,268.724L304.108,270.479L298.371,268.724ZM298.418,273.224L292.715,275.088L298.418,273.224ZM299.888,277.724L305.591,275.86L299.888,277.724ZM300.208,282.224L306.107,283.315L300.208,282.224ZM299.375,286.724L293.475,285.633L299.375,286.724ZM298.712,291.224L304.676,291.88L298.712,291.224ZM298.217,295.724L292.253,295.069L298.217,295.724ZM297.518,300.224L291.636,299.043L297.518,300.224ZM297.067,302.474L302.949,303.656L297.067,302.474ZM296.615,304.724L302.497,305.906L296.615,304.724ZM297.522,309.224L302.658,306.122L297.522,309.224ZM300.241,313.724L295.105,316.827L300.241,313.724ZM301.807,318.224L307.782,317.675L301.807,318.224ZM302.221,322.724L296.246,323.274L302.221,322.724ZM302.085,327.224L296.154,326.321L302.085,327.224ZM301.4,331.724L295.468,330.821L301.4,331.724ZM300.13,336.224L294.583,333.938L300.13,336.224ZM298.275,340.724L303.822,343.011L298.275,340.724ZM296.832,345.066L291.006,343.629L296.832,345.066ZM295.8,349.248L301.626,350.685L295.8,349.248ZM294.656,353.328L300.376,355.137L294.656,353.328ZM293.398,357.304L287.677,355.495L293.398,357.304ZM292.455,361.668L298.403,362.454L292.455,361.668ZM292.141,364.044L298.09,364.83L292.141,364.044ZM291.828,366.42L285.879,365.634L291.828,366.42ZM289.897,370.434L285.626,366.22L289.897,370.434ZM286.664,373.712L290.935,377.925L286.664,373.712ZM277.847,376.294L278.627,382.243L277.847,376.294ZM273.722,378.165L269.703,373.71L273.722,378.165ZM270.272,381.278L274.292,385.732L270.272,381.278ZM266.323,383.927L268.969,389.312L266.323,383.927ZM261.876,386.111L264.521,391.497L261.876,386.111ZM257.387,386.072L260.071,380.705L257.387,386.072ZM255.123,384.939L257.806,379.573L255.123,384.939ZM248.344,382.418L249.025,376.456L248.344,382.418ZM243.844,381.903L243.162,387.865L243.844,381.903ZM239.344,381.892L238.691,375.928L239.344,381.892ZM234.844,382.384L235.496,388.349L234.844,382.384ZM230.344,382.98L229.422,377.051L230.344,382.98ZM225.844,383.679L226.765,389.608L225.844,383.679ZM221.344,383.506L219.985,389.35L221.344,383.506ZM219.094,382.983L220.452,377.139L219.094,382.983ZM216.844,382.46L218.202,376.616L216.844,382.46ZM212.344,382.941L209.897,377.463L212.344,382.941ZM207.844,384.951L210.29,390.43L207.844,384.951ZM203.344,385.159L201.341,390.815L203.344,385.159ZM201.094,384.363L199.091,390.019L201.094,384.363ZM198.844,383.566L200.846,377.91L198.844,383.566ZM194.344,382.491L195.08,376.537L194.344,382.491ZM189.844,381.935L189.107,387.89L189.844,381.935ZM185.344,382.931L182.388,377.709L185.344,382.931ZM180.844,385.478L183.799,390.699L180.844,385.478ZM176.344,386.86L176.633,392.853L176.344,386.86ZM171.844,387.078L171.554,381.085L171.844,387.078ZM167.344,386.688L168.643,380.83L167.344,386.688ZM162.844,385.689L161.544,391.547L162.844,385.689ZM158.344,385.392L158.881,391.368L158.344,385.392ZM153.844,385.797L153.306,379.821L153.844,385.797ZM149.344,385.824L148.878,391.806L149.344,385.824ZM147.094,385.648L147.559,379.667L147.094,385.648ZM144.844,385.473L145.309,379.491L144.844,385.473ZM140.344,384.344L138.002,389.868L140.344,384.344ZM135.844,382.437L138.185,376.912L135.844,382.437ZM131.344,382.014L129.965,376.174L131.344,382.014ZM126.844,383.076L128.222,388.916L126.844,383.076ZM122.344,384.45L124.447,390.069L122.344,384.45ZM117.844,386.135L115.74,380.516L117.844,386.135ZM113.344,386.503L114.58,380.632L113.344,386.503ZM111.094,386.029L112.33,380.158L111.094,386.029ZM108.844,385.555L107.607,391.426L108.844,385.555ZM104.344,385.14L104.5,391.138L104.344,385.14ZM99.844,385.258L99.687,379.26L99.844,385.258ZM95.344,385.824L94.023,379.971L95.344,385.824ZM93.094,386.332L94.414,392.185L93.094,386.332ZM90.844,386.84L92.164,392.692L90.844,386.84ZM86.344,386.587L84.423,392.272L86.344,386.587ZM81.844,385.067L83.764,379.383L81.844,385.067ZM77.344,383.415L75.133,388.993L77.344,383.415ZM75.094,382.523L77.304,376.946L75.094,382.523ZM72.844,381.632L70.633,387.209L72.844,381.632ZM68.344,381.391L70.011,387.154L68.344,381.391ZM63.843,382.692L62.176,376.929L63.843,382.692ZM50.244,381.992L46.986,376.954L50.244,381.992ZM47.894,383.512L51.153,388.55L47.894,383.512ZM45.545,385.031L48.803,390.069L45.545,385.031ZM40.847,385.961L39.385,391.78L40.847,385.961ZM36.152,384.781L34.689,390.6L36.152,384.781ZM32.31,382.088L27.419,385.563L32.31,382.088ZM29.324,377.884L34.215,374.409L29.324,377.884ZM25.281,375.262L26.479,369.383L25.281,375.262ZM20.181,374.223L18.984,380.102L20.181,374.223ZM15.372,369.431L10.068,372.236L15.372,369.431ZM14.242,367.294L19.546,364.489L14.242,367.294ZM12.271,362.986L17.866,360.818L12.271,362.986ZM10.588,358.642L4.993,360.81L10.588,358.642ZM10.322,354.116L16.15,355.542L10.322,354.116ZM11.475,349.406L5.646,347.98L11.475,349.406ZM10.941,344.867L16.29,342.149L10.941,344.867ZM8.72,340.497L3.371,343.214L8.72,340.497ZM8.411,336.062L14.063,338.074L8.411,336.062ZM9.212,333.812L3.56,331.799L9.212,333.812ZM10.013,331.562L4.361,329.549L10.013,331.562ZM9.784,327.062L15.24,324.564L9.784,327.062ZM7.724,322.562L2.269,325.059L7.724,322.562ZM8.039,318.062L13.189,321.14L8.039,318.062ZM9.384,315.812L14.534,318.89L9.384,315.812ZM10.728,313.562L5.578,310.484L10.728,313.562ZM11.052,309.062L5.588,311.541L11.052,309.062ZM10.031,306.812L15.494,304.332L10.031,306.812ZM9.01,304.562L14.473,302.082L9.01,304.562ZM9,300.062L3.528,297.601L9,300.062ZM11.024,295.562L16.496,298.023L11.024,295.562ZM10.676,291.062L5.541,294.166L10.676,291.062ZM9.316,288.812L4.181,291.916L9.316,288.812ZM7.956,286.562L13.09,283.458L7.956,286.562ZM6.409,282.062L0.429,282.558L6.409,282.062ZM6.222,279.812L12.202,279.316L6.222,279.812ZM6.035,277.562L12.015,277.066L6.035,277.562ZM6.647,273.062L0.992,271.056L6.647,273.062ZM8.243,268.562L13.898,270.567L8.243,268.562ZM9.597,264.062L3.772,262.623L9.597,264.062ZM10.709,259.562L16.533,261L10.709,259.562ZM11.259,255.062L5.259,255.075L11.259,255.062ZM10.601,246.062L16.37,244.412L10.601,246.062ZM9.314,241.562L3.545,243.211L9.314,241.562ZM8.739,237.062L2.741,236.882L8.739,237.062ZM8.873,232.562L2.876,232.382L8.873,232.562ZM8.849,228.062L2.854,228.307L8.849,228.062ZM9.525,219.062L4,216.722L9.525,219.062ZM11.43,214.562L16.955,216.901L11.43,214.562ZM11.111,205.562L17.008,204.451L11.111,205.562ZM10.628,201.062L4.63,201.221L10.628,201.062ZM9.692,192.062L4.005,193.973L9.692,192.062ZM8.18,187.562L13.867,185.65L8.18,187.562ZM8.119,183.062L2.387,181.29L8.119,183.062ZM9.51,178.562L3.778,176.79L9.51,178.562ZM9.225,174.062L3.725,176.458L9.225,174.062ZM7.265,169.562L12.766,167.165L7.265,169.562ZM6.962,165.062L12.707,166.79L6.962,165.062ZM8.315,160.562L14.061,162.29L8.315,160.562ZM8.527,156.062L2.651,157.275L8.527,156.062ZM7.598,151.562L13.474,150.349L7.598,151.562ZM8.081,147.062L13.611,149.391L8.081,147.062ZM9.976,142.562L4.447,140.233L9.976,142.562ZM10.184,138.062L15.884,136.187L10.184,138.062ZM8.704,133.562L3.004,135.436L8.704,133.562ZM6.699,124.562L0.802,125.667L6.699,124.562ZM6.579,120.062L0.631,119.267L6.579,120.062ZM7.18,115.562L13.127,116.357L7.18,115.562ZM7.415,106.562L1.416,106.62L7.415,106.562ZM8.63,102.062L3.372,99.172L8.63,102.062ZM11.103,97.562L16.361,100.451L11.103,97.562ZM10.693,93.062L15.535,89.518L10.693,93.062ZM7.4,88.562L2.558,92.105L7.4,88.562ZM6.384,84.062L0.607,82.443L6.384,84.062ZM8.462,75.062L2.482,74.568L8.462,75.062ZM8.833,70.562L2.854,70.068L8.833,70.562ZM9.23,61.562L3.233,61.374L9.23,61.562ZM8.433,57.062L2.835,59.221L8.433,57.062ZM6.59,48.037L0.899,46.135L6.59,48.037ZM8.111,43.486L13.801,45.388L8.111,43.486ZM10.476,39.432L6.02,35.414L10.476,39.432ZM13.685,35.874L18.14,39.892L13.685,35.874ZM15.213,31.49L9.216,31.665L15.213,31.49ZM15.062,26.28L9.064,26.455L15.062,26.28ZM41.418,12.256L40.616,6.31L41.418,12.256ZM47.984,10.761L53.389,13.367L47.984,10.761ZM48.611,9.46L43.206,6.854L48.611,9.46ZM51.175,9.55L49.298,15.248L51.175,9.55ZM53.425,10.29L51.548,15.989L53.798,16.73L55.675,11.031L57.551,5.332L55.301,4.592L53.425,10.29ZM55.675,11.031L53.798,16.73C56.872,17.743 59.986,17.442 62.803,16.07L60.175,10.676L57.547,5.282C57.469,5.32 57.426,5.333 57.416,5.336C57.41,5.338 57.411,5.337 57.419,5.336C57.426,5.335 57.438,5.333 57.453,5.332C57.468,5.33 57.484,5.33 57.501,5.33C57.518,5.331 57.533,5.332 57.545,5.334C57.557,5.335 57.565,5.337 57.567,5.337C57.569,5.338 57.564,5.337 57.551,5.332L55.675,11.031ZM60.175,10.676L62.803,16.07L65.053,14.974L62.425,9.58L59.797,4.186L57.547,5.282L60.175,10.676ZM62.425,9.58L65.053,14.974L67.303,13.878L64.675,8.484L62.047,3.09L59.797,4.186L62.425,9.58ZM64.675,8.484L67.303,13.878C67.376,13.842 67.413,13.831 67.416,13.83C67.418,13.83 67.397,13.836 67.358,13.839C67.318,13.841 67.278,13.84 67.246,13.835C67.215,13.831 67.209,13.827 67.231,13.834L69.175,8.158L71.119,2.482C68.032,1.425 64.891,1.704 62.047,3.09L64.675,8.484ZM69.175,8.158L67.231,13.834L69.481,14.605L71.425,8.929L73.369,3.253L71.119,2.482L69.175,8.158ZM71.425,8.929L69.481,14.605L71.731,15.376L75.619,4.023L73.369,3.253L71.425,8.929ZM75.619,4.023L71.731,15.376C74.285,16.251 76.955,16.395 79.6,15.748L76.749,4.092C76.395,4.178 76.064,4.176 75.619,4.023ZM76.749,4.092L79.6,15.748L81.85,15.198L78.999,3.541L76.749,4.092ZM78.999,3.541L81.85,15.198L84.1,14.647L82.675,8.819L81.249,2.991L78.999,3.541ZM82.675,8.819L84.1,14.647C84.496,14.55 84.864,14.555 85.329,14.705L87.175,8.996L89.021,3.288C86.486,2.468 83.853,2.354 81.249,2.991L82.675,8.819ZM87.175,8.996L85.329,14.705L87.579,15.433L89.425,9.724L91.271,4.015L89.021,3.288L87.175,8.996ZM89.425,9.724L87.579,15.433L89.829,16.161L91.675,10.452L93.521,4.743L91.271,4.015L89.425,9.724ZM91.675,10.452L89.829,16.161C93.311,17.287 96.685,16.545 99.468,14.718L96.175,9.702L92.882,4.687C92.706,4.802 92.731,4.744 92.939,4.71C93.04,4.693 93.153,4.687 93.269,4.696C93.384,4.705 93.471,4.727 93.521,4.743L91.675,10.452ZM96.175,9.702L99.468,14.718L101.718,13.241L98.425,8.225L95.132,3.209L92.882,4.687L96.175,9.702ZM98.425,8.225L101.718,13.241L103.968,11.764L100.675,6.748L97.382,1.732L95.132,3.209L98.425,8.225ZM100.675,6.748L103.968,11.764C103.946,11.778 103.589,11.994 102.978,11.999C102.363,12.005 101.989,11.793 101.944,11.765L105.175,6.708L108.405,1.652C106.861,0.666 104.987,-0.019 102.872,-0C100.761,0.018 98.904,0.733 97.382,1.732L100.675,6.748ZM105.175,6.708L101.944,11.765L104.194,13.202L107.425,8.146L110.655,3.09L108.405,1.652L105.175,6.708ZM107.425,8.146L104.194,13.202L106.444,14.64L109.675,9.583L112.905,4.527L110.655,3.09L107.425,8.146ZM109.675,9.583L106.444,14.64C109.2,16.4 112.504,17.116 115.921,16.077L114.175,10.336L112.428,4.596C112.47,4.584 112.543,4.567 112.64,4.56C112.738,4.553 112.833,4.559 112.915,4.573C113.086,4.601 113.089,4.645 112.905,4.527L109.675,9.583ZM114.175,10.336L115.921,16.077L118.171,15.392L116.425,9.652L114.678,3.912L112.428,4.596L114.175,10.336ZM116.425,9.652L118.171,15.392L120.421,14.707L118.675,8.967L116.928,3.227L114.678,3.912L116.425,9.652ZM118.675,8.967L120.421,14.707C121.531,14.37 122.613,14.163 123.671,14.075L123.175,8.096L122.678,2.116C120.737,2.278 118.818,2.652 116.928,3.227L118.675,8.967ZM123.175,8.096L123.671,14.075L125.921,13.889L125.425,7.909L124.928,1.93L122.678,2.116L123.175,8.096ZM125.425,7.909L125.921,13.889L128.171,13.702L127.675,7.722L127.178,1.743L124.928,1.93L125.425,7.909ZM127.675,7.722L128.171,13.702C128.65,13.662 129.199,13.726 129.889,14.01L132.175,8.462L134.46,2.915C132.15,1.963 129.699,1.533 127.178,1.743L127.675,7.722ZM132.175,8.462L129.889,14.01L132.139,14.937L134.425,9.389L136.71,3.842L134.46,2.915L132.175,8.462ZM134.425,9.389L132.139,14.937L134.389,15.864L136.675,10.316L138.96,4.769L136.71,3.842L134.425,9.389ZM136.675,10.316L134.389,15.864C137.505,17.147 140.776,17.009 143.765,15.578L141.175,10.166L138.584,4.754C138.537,4.777 138.53,4.775 138.562,4.767C138.595,4.758 138.652,4.748 138.725,4.745C138.799,4.743 138.865,4.749 138.916,4.759C138.966,4.769 138.982,4.777 138.96,4.769L136.675,10.316ZM141.175,10.166L143.765,15.578L146.015,14.501L143.425,9.089L140.834,3.677L138.584,4.754L141.175,10.166ZM143.425,9.089L146.015,14.501L148.265,13.424L145.675,8.012L143.084,2.6L140.834,3.677L143.425,9.089ZM145.675,8.012L148.265,13.424C148.795,13.171 149.092,13.174 149.295,13.204L150.175,7.269L151.055,1.334C148.258,0.919 145.554,1.418 143.084,2.6L145.675,8.012ZM150.175,7.269L149.295,13.204L151.545,13.537L152.425,7.602L153.305,1.667L151.055,1.334L150.175,7.269ZM152.425,7.602L151.545,13.537L153.795,13.871L154.675,7.936L155.555,2.001L153.305,1.667L152.425,7.602ZM154.675,7.936L153.795,13.871C155.024,14.053 156.264,14.323 157.515,14.683L159.175,8.917L160.835,3.151C159.086,2.648 157.326,2.263 155.555,2.001L154.675,7.936ZM159.175,8.917L157.515,14.683L159.765,15.331L161.425,9.565L163.085,3.799L160.835,3.151L159.175,8.917ZM161.425,9.565L159.765,15.331L162.015,15.978L163.675,10.212L165.335,4.447L163.085,3.799L161.425,9.565ZM163.675,10.212L162.015,15.978C164.942,16.821 167.887,16.553 170.604,15.35L168.175,9.864L165.746,4.378C165.562,4.459 165.474,4.466 165.461,4.467C165.451,4.468 165.441,4.468 165.427,4.466C165.414,4.465 165.384,4.461 165.335,4.447L163.675,10.212ZM168.175,9.864L170.604,15.35L172.854,14.354L170.425,8.868L167.996,3.381L165.746,4.378L168.175,9.864ZM170.425,8.868L172.854,14.354L175.104,13.357L172.675,7.871L170.246,2.385L167.996,3.381L170.425,8.868ZM172.675,7.871L175.104,13.357C175.287,13.277 175.374,13.27 175.385,13.269C175.395,13.268 175.404,13.268 175.417,13.27C175.431,13.271 175.46,13.275 175.509,13.289L177.175,7.525L178.84,1.761C175.912,0.915 172.964,1.181 170.246,2.385L172.675,7.871ZM177.175,7.525L175.509,13.289L177.759,13.939L179.425,8.175L181.09,2.411L178.84,1.761L177.175,7.525ZM179.425,8.175L177.759,13.939L180.009,14.589L181.675,8.825L183.34,3.061L181.09,2.411L179.425,8.175ZM181.675,8.825L180.009,14.589C181.531,15.029 183.054,15.46 184.576,15.88L186.175,10.097L187.774,4.314C186.296,3.906 184.818,3.488 183.34,3.061L181.675,8.825ZM186.175,10.097L184.576,15.88L186.826,16.503L188.425,10.719L190.024,4.936L187.774,4.314L186.175,10.097ZM188.425,10.719L186.826,16.503L189.076,17.125L190.675,11.341L192.274,5.558L190.024,4.936L188.425,10.719ZM190.675,11.341L189.076,17.125C191.124,17.691 193.214,17.958 195.326,17.905L195.175,11.906L195.023,5.908C194.136,5.931 193.225,5.821 192.274,5.558L190.675,11.341ZM195.175,11.906L195.326,17.905L197.576,17.848L197.425,11.85L197.273,5.852L195.023,5.908L195.175,11.906ZM197.425,11.85L197.576,17.848L199.826,17.791L199.675,11.793L199.523,5.795L197.273,5.852L197.425,11.85ZM199.675,11.793L199.826,17.791C201.716,17.743 203.596,17.512 205.459,17.104L204.175,11.243L202.89,5.382C201.754,5.631 200.633,5.767 199.523,5.795L199.675,11.793ZM204.175,11.243L205.459,17.104L207.709,16.61L206.425,10.749L205.14,4.889L202.89,5.382L204.175,11.243ZM206.425,10.749L207.709,16.61L209.959,16.117L208.675,10.256L207.39,4.395L205.14,4.889L206.425,10.749ZM208.675,10.256L209.959,16.117C210.966,15.896 211.95,15.812 212.922,15.853L213.175,9.858L213.428,3.864C211.4,3.778 209.383,3.959 207.39,4.395L208.675,10.256ZM213.175,9.858L212.922,15.853L215.172,15.948L215.425,9.953L215.678,3.959L213.428,3.864L213.175,9.858ZM215.425,9.953L215.172,15.948L217.422,16.043L217.675,10.048L217.928,4.054L215.678,3.959L215.425,9.953ZM217.675,10.048L217.422,16.043C219.728,16.14 221.988,15.778 224.165,15.013L222.175,9.352L220.185,3.692C219.362,3.981 218.622,4.083 217.928,4.054L217.675,10.048ZM222.175,9.352L224.165,15.013L226.415,14.222L222.435,2.901L220.185,3.692L222.175,9.352ZM222.435,2.901L226.415,14.222L228.665,13.431L226.675,7.77L224.685,2.11L222.435,2.901ZM226.675,7.77L228.665,13.431C228.638,13.44 228.575,13.459 228.48,13.47C228.385,13.481 228.285,13.48 228.191,13.469C227.992,13.444 227.951,13.388 228.095,13.475L231.175,8.325L234.254,3.175C231.396,1.466 228.047,0.928 224.685,2.11L226.675,7.77ZM231.175,8.325L228.095,13.475L230.345,14.82L233.425,9.67L236.504,4.521L234.254,3.175L231.175,8.325ZM233.425,9.67L230.345,14.82L232.595,16.165L235.675,11.016L238.754,5.866L236.504,4.521L233.425,9.67ZM235.675,11.016L232.595,16.165C234.206,17.128 236.138,17.738 238.277,17.612C240.39,17.488 242.206,16.676 243.667,15.63L240.175,10.751L236.683,5.872C236.644,5.9 236.96,5.669 237.572,5.633C238.212,5.595 238.644,5.8 238.754,5.866L235.675,11.016ZM240.175,10.751L243.667,15.63L245.917,14.02L242.425,9.141L238.933,4.262L236.683,5.872L240.175,10.751ZM242.425,9.141L245.917,14.02L248.167,12.41L244.675,7.531L241.183,2.652L238.933,4.262L242.425,9.141ZM244.675,7.531L248.167,12.41C248.462,12.199 248.606,12.159 248.598,12.161C248.594,12.162 248.565,12.17 248.516,12.174C248.466,12.178 248.416,12.176 248.374,12.17L249.175,6.224L249.976,0.277C246.644,-0.171 243.639,0.894 241.183,2.652L244.675,7.531ZM249.175,6.224L248.374,12.17L250.624,12.473L251.425,6.527L252.226,0.58L249.976,0.277L249.175,6.224ZM251.425,6.527L250.624,12.473L252.874,12.776L253.675,6.83L254.476,0.883L252.226,0.58L251.425,6.527ZM253.675,6.83L252.874,12.776C253.505,12.861 254.205,13.088 255,13.559L258.059,8.398L261.118,3.236C259.068,2.021 256.845,1.203 254.476,0.883L253.675,6.83ZM258.059,8.398L255,13.559L257.135,14.825L263.253,4.501L261.118,3.236L258.059,8.398ZM263.253,4.501L257.135,14.825L259.27,16.09L262.329,10.928L265.388,5.766L263.253,4.501ZM262.329,10.928L259.27,16.09C262.321,17.898 265.707,18.102 268.901,17.044L267.015,11.348L265.128,5.652C265.034,5.684 264.99,5.689 264.993,5.689C264.998,5.688 265.037,5.684 265.103,5.69C265.17,5.696 265.238,5.71 265.299,5.73C265.359,5.75 265.39,5.768 265.388,5.766L262.329,10.928ZM267.015,11.348L268.901,17.044L271.453,16.199L269.566,10.503L267.68,4.807L265.128,5.652L267.015,11.348ZM269.566,10.503L271.453,16.199L274.004,15.354L272.118,9.658L270.231,3.962L267.68,4.807L269.566,10.503ZM272.118,9.658L274.004,15.354C274.1,15.322 273.835,15.428 273.349,15.335C272.827,15.235 272.465,14.986 272.311,14.84L276.433,10.48L280.555,6.12C279.225,4.863 277.556,3.921 275.595,3.547C273.671,3.18 271.837,3.431 270.231,3.962L272.118,9.658ZM276.433,10.48L272.311,14.84L274.075,16.508L278.196,12.147L282.318,7.787L280.555,6.12L276.433,10.48ZM278.196,12.147L274.075,16.508L275.838,18.175L279.96,13.814L284.082,9.454L282.318,7.787L278.196,12.147ZM279.96,13.814L275.838,18.175C277.404,19.655 279.142,20.903 281.042,21.904L283.838,16.595L286.633,11.286C285.715,10.802 284.867,10.197 284.082,9.454L279.96,13.814ZM283.838,16.595L281.042,21.904L283.156,23.017L285.951,17.708L288.747,12.399L286.633,11.286L283.838,16.595ZM285.951,17.708L283.156,23.017L285.27,24.13L288.065,18.821L290.861,13.512L288.747,12.399L285.951,17.708ZM288.065,18.821L285.27,24.13C285.868,24.445 286.338,24.852 286.734,25.396L291.584,21.863L296.435,18.331C294.957,16.303 293.081,14.681 290.861,13.512L288.065,18.821ZM291.584,21.863L286.734,25.396L288.14,27.325L292.99,23.793L297.84,20.261L296.435,18.331L291.584,21.863ZM292.99,23.793L288.14,27.325L289.545,29.255L294.395,25.722L299.245,22.19L297.84,20.261L292.99,23.793ZM294.395,25.722L289.545,29.255C290.245,30.216 290.842,31.237 291.339,32.324L296.795,29.828L302.252,27.332C301.422,25.517 300.418,23.802 299.245,22.19L294.395,25.722ZM296.795,29.828L291.339,32.324L292.335,34.5L297.791,32.004L303.247,29.508L302.252,27.332L296.795,29.828ZM297.791,32.004L292.335,34.5L293.33,36.676L298.786,34.18L304.242,31.684L303.247,29.508L297.791,32.004ZM298.786,34.18L293.33,36.676C293.861,37.836 294.303,39.047 294.656,40.311L306.214,37.085C305.696,35.226 305.039,33.425 304.242,31.684L298.786,34.18ZM306.214,37.085L294.656,40.311L295.31,42.653L306.868,39.427L306.214,37.085ZM306.868,39.427L295.31,42.653L295.963,44.995L307.521,41.769L306.868,39.427ZM307.521,41.769L295.963,44.995C295.97,45.02 295.968,45.022 295.967,45.004C295.966,44.985 295.966,44.965 295.968,44.949C295.97,44.933 295.971,44.94 295.96,44.972C295.949,45.006 295.923,45.073 295.867,45.176L301.142,48.036L306.416,50.897C307.928,48.109 308.412,44.96 307.521,41.769ZM301.142,48.036L295.867,45.176L294.613,47.489L299.887,50.349L305.162,53.209L306.416,50.897L301.142,48.036ZM299.887,50.349L294.613,47.489L293.359,49.801L298.633,52.662L303.908,55.522L305.162,53.209L299.887,50.349ZM298.633,52.662L293.359,49.801C292.006,52.296 291.336,55.116 291.771,58.092L297.708,57.224L303.645,56.357C303.641,56.333 303.588,56.111 303.908,55.522L298.633,52.662ZM297.708,57.224L291.771,58.092L292.1,60.342L298.037,59.474L303.974,58.607L303.645,56.357L297.708,57.224ZM298.037,59.474L292.1,60.342L292.429,62.592L298.365,61.724L304.302,60.857L303.974,58.607L298.037,59.474ZM298.365,61.724L292.429,62.592C292.517,63.2 292.48,63.819 292.274,64.511L298.024,66.224L303.774,67.938C304.462,65.629 304.652,63.249 304.302,60.857L298.365,61.724ZM298.024,66.224L292.274,64.511L291.603,66.761L297.353,68.474L303.103,70.188L303.774,67.938L298.024,66.224ZM297.353,68.474L291.603,66.761L290.933,69.011L296.683,70.724L302.433,72.438L303.103,70.188L297.353,68.474ZM296.683,70.724L290.933,69.011C289.962,72.266 290.519,75.46 292.11,78.22L297.308,75.224L302.507,72.229C302.455,72.138 302.436,72.088 302.433,72.079C302.43,72.071 302.439,72.095 302.447,72.148C302.454,72.201 302.456,72.263 302.451,72.325C302.447,72.386 302.436,72.426 302.433,72.438L296.683,70.724ZM297.308,75.224L292.11,78.22L293.406,80.47L298.605,77.474L303.804,74.479L302.507,72.229L297.308,75.224ZM298.605,77.474L293.406,80.47L294.702,82.72L299.901,79.724L305.1,76.729L303.804,74.479L298.605,77.474ZM299.901,79.724L294.702,82.72C294.705,82.725 294.668,82.661 294.63,82.531C294.591,82.397 294.56,82.222 294.558,82.021C294.555,81.583 294.688,81.316 294.702,81.29L299.936,84.224L305.17,87.158C307.053,83.798 307.011,80.046 305.1,76.729L299.901,79.724ZM299.936,84.224L294.702,81.29L293.441,83.54L298.675,86.474L303.909,89.408L305.17,87.158L299.936,84.224ZM298.675,86.474L293.441,83.54L292.18,85.79L297.414,88.724L302.648,91.658L303.909,89.408L298.675,86.474ZM297.414,88.724L292.18,85.79C291.29,87.378 290.746,89.236 290.845,91.267C290.944,93.281 291.654,95.053 292.622,96.523L297.634,93.224L302.645,89.925C302.626,89.895 302.806,90.167 302.831,90.681C302.857,91.213 302.697,91.571 302.648,91.658L297.414,88.724ZM297.634,93.224L292.622,96.523L294.103,98.773L299.115,95.474L304.126,92.175L302.645,89.925L297.634,93.224ZM299.115,95.474L294.103,98.773L295.584,101.023L300.596,97.724L305.608,94.425L304.126,92.175L299.115,95.474ZM300.596,97.724L295.584,101.023C295.723,101.233 295.695,101.263 295.668,101.125C295.655,101.059 295.647,100.976 295.65,100.884C295.653,100.793 295.667,100.721 295.679,100.675L301.476,102.224L307.272,103.773C308.186,100.354 307.374,97.108 305.608,94.425L300.596,97.724ZM301.476,102.224L295.679,100.675L295.078,102.925L300.874,104.474L306.671,106.023L307.272,103.773L301.476,102.224ZM300.874,104.474L295.078,102.925L294.477,105.175L300.273,106.724L306.07,108.273L306.671,106.023L300.874,104.474ZM300.273,106.724L294.477,105.175C294.069,106.7 293.672,108.225 293.285,109.75L299.102,111.224L304.918,112.698C305.292,111.223 305.675,109.748 306.07,108.273L300.273,106.724ZM299.102,111.224L293.285,109.75L292.715,112L298.531,113.474L304.348,114.948L304.918,112.698L299.102,111.224ZM298.531,113.474L292.715,112L292.145,114.25L297.961,115.724L303.778,117.198L304.348,114.948L298.531,113.474ZM297.961,115.724L292.145,114.25C291.48,116.874 291.588,119.53 292.422,122.087L298.126,120.224L303.83,118.362C303.685,117.918 303.682,117.575 303.778,117.198L297.961,115.724ZM298.126,120.224L292.422,122.087L293.157,124.337L298.861,122.474L304.564,120.612L303.83,118.362L298.126,120.224ZM298.861,122.474L293.157,124.337L293.892,126.587L299.596,124.724L305.299,122.862L304.564,120.612L298.861,122.474ZM299.596,124.724L293.892,126.587C293.896,126.599 293.897,126.603 293.896,126.601C293.896,126.598 293.894,126.591 293.893,126.578C293.891,126.566 293.89,126.551 293.889,126.534C293.889,126.517 293.89,126.5 293.891,126.485C293.892,126.47 293.894,126.459 293.895,126.452C293.896,126.445 293.897,126.444 293.895,126.45C293.892,126.461 293.879,126.505 293.84,126.584L299.228,129.224L304.615,131.865C305.993,129.053 306.304,125.94 305.299,122.862L299.596,124.724ZM299.228,129.224L293.84,126.584L292.737,128.834L298.125,131.474L303.512,134.115L304.615,131.865L299.228,129.224ZM298.125,131.474L292.737,128.834L291.634,131.084L297.022,133.724L302.41,136.365L303.512,134.115L298.125,131.474ZM297.022,133.724L291.634,131.084C290.539,133.318 289.918,135.726 289.929,138.251L301.929,138.197C301.927,137.722 302.035,137.13 302.41,136.365L297.022,133.724ZM301.929,138.197L289.929,138.251L289.94,140.501L295.94,140.474L301.939,140.447L301.929,138.197ZM295.94,140.474L289.94,140.501L289.95,142.751L301.95,142.697L301.939,140.447L295.94,140.474ZM301.95,142.697L289.95,142.751C289.959,144.813 290.255,146.85 290.818,148.85L296.593,147.224L302.369,145.598C302.087,144.598 301.954,143.636 301.95,142.697ZM296.593,147.224L290.818,148.85L291.451,151.1L297.227,149.474L303.002,147.848L302.369,145.598L296.593,147.224ZM297.227,149.474L291.451,151.1L292.085,153.35L297.86,151.724L303.636,150.098L303.002,147.848L297.227,149.474ZM297.86,151.724L292.085,153.35C292.585,155.129 293.22,156.889 293.981,158.629L304.975,153.819C304.424,152.559 303.979,151.319 303.636,150.098L297.86,151.724ZM304.975,153.819L293.981,158.629L294.966,160.879L300.462,158.474L305.959,156.069L304.975,153.819ZM300.462,158.474L294.966,160.879L295.95,163.129L306.944,158.319L305.959,156.069L300.462,158.474ZM306.944,158.319L295.95,163.129C296.256,163.829 296.326,164.372 296.296,164.829L308.27,165.619C308.438,163.076 307.95,160.62 306.944,158.319ZM308.27,165.619L296.296,164.829L296.148,167.079L308.122,167.869L308.27,165.619ZM308.122,167.869L296.148,167.079L295.999,169.329L307.973,170.119L308.122,167.869ZM307.973,170.119L295.999,169.329C295.904,170.774 295.788,172.22 295.653,173.666L301.627,174.224L307.601,174.783C307.746,173.229 307.87,171.674 307.973,170.119ZM301.627,174.224L295.653,173.666L295.443,175.916L301.417,176.474L307.391,177.033L307.601,174.783L301.627,174.224ZM301.417,176.474L295.443,175.916L295.232,178.166L301.206,178.724L307.18,179.283L307.391,177.033L301.417,176.474ZM301.206,178.724L295.232,178.166C295.075,179.85 294.996,181.536 294.995,183.222L306.995,183.226C306.996,181.913 307.057,180.599 307.18,179.283L301.206,178.724ZM306.995,183.226L294.995,183.222L294.994,185.472L306.994,185.476L306.995,183.226ZM306.994,185.476L294.994,185.472L294.994,187.722L306.994,187.726L306.994,185.476ZM306.994,187.726L294.994,187.722C294.993,188.788 294.879,189.865 294.643,190.96L306.373,193.488C306.784,191.583 306.993,189.66 306.994,187.726ZM306.373,193.488L294.643,190.96L294.158,193.21L305.888,195.738L306.373,193.488ZM305.888,195.738L294.158,193.21L293.673,195.46L305.403,197.988L305.888,195.738ZM305.403,197.988L293.673,195.46C293.299,197.195 293.032,198.937 292.875,200.685L298.85,201.224L304.826,201.763C304.939,200.511 305.131,199.253 305.403,197.988ZM298.85,201.224L292.875,200.685L292.672,202.935L298.648,203.474L304.623,204.013L304.826,201.763L298.85,201.224ZM298.648,203.474L292.672,202.935L292.469,205.185L298.445,205.724L304.42,206.263L304.623,204.013L298.648,203.474ZM298.445,205.724L292.469,205.185C292.352,206.486 292.169,207.79 291.919,209.098L303.705,211.35C304.029,209.659 304.267,207.963 304.42,206.263L298.445,205.724ZM303.705,211.35L291.919,209.098L291.489,211.348L297.382,212.474L303.276,213.6L303.705,211.35ZM297.382,212.474L291.489,211.348L291.059,213.598L296.952,214.724L302.846,215.85L303.276,213.6L297.382,212.474ZM296.952,214.724L291.059,213.598C290.455,216.758 291.188,219.744 292.729,222.313L297.873,219.224L303.018,216.136C302.942,216.01 302.899,215.918 302.875,215.859C302.852,215.801 302.846,215.772 302.846,215.771C302.846,215.771 302.849,215.785 302.849,215.808C302.849,215.819 302.848,215.829 302.848,215.837C302.847,215.841 302.847,215.844 302.846,215.846L302.846,215.85L296.952,214.724ZM297.873,219.224L292.729,222.313L294.08,224.563L299.224,221.474L304.368,218.386L303.018,216.136L297.873,219.224ZM299.224,221.474L294.08,224.563L295.431,226.813L300.575,223.724L305.719,220.636L304.368,218.386L299.224,221.474ZM300.575,223.724L295.431,226.813C295.6,227.094 295.647,227.259 295.66,227.315C295.67,227.36 295.668,227.37 295.666,227.381L301.606,228.224L307.547,229.068C307.983,225.998 307.213,223.124 305.719,220.636L300.575,223.724ZM301.606,228.224L295.666,227.381L295.347,229.631L301.287,230.474L307.227,231.318L307.547,229.068L301.606,228.224ZM301.287,230.474L295.347,229.631L295.027,231.881L300.968,232.724L306.908,233.568L307.227,231.318L301.287,230.474ZM300.968,232.724L295.027,231.881C294.742,233.889 294.716,235.905 294.951,237.918L300.91,237.224L306.87,236.53C306.755,235.543 306.767,234.56 306.908,233.568L300.968,232.724ZM300.91,237.224L294.951,237.918L295.213,240.168L301.172,239.474L307.132,238.78L306.87,236.53L300.91,237.224ZM301.172,239.474L295.213,240.168L295.475,242.418L301.434,241.724L307.394,241.03L307.132,238.78L301.172,239.474ZM301.434,241.724L295.475,242.418C295.573,243.263 295.535,244.109 295.35,244.983L301.221,246.224L307.091,247.465C307.54,245.339 307.645,243.186 307.394,241.03L301.434,241.724ZM301.221,246.224L295.35,244.983L294.875,247.233L306.615,249.715L307.091,247.465L301.221,246.224ZM306.615,249.715L294.875,247.233L294.399,249.483L300.27,250.724L306.14,251.965L306.615,249.715ZM300.27,250.724L294.399,249.483C293.969,251.52 293.822,253.581 293.969,255.651L299.954,255.224L305.939,254.798C305.873,253.867 305.936,252.928 306.14,251.965L300.27,250.724ZM299.954,255.224L293.969,255.651L294.13,257.901L300.115,257.474L306.099,257.048L305.939,254.798L299.954,255.224ZM300.115,257.474L294.13,257.901L294.29,260.151L300.275,259.724L306.26,259.298L306.099,257.048L300.115,257.474ZM300.275,259.724L294.29,260.151C294.342,260.883 294.262,261.644 294.009,262.469L305.485,265.979C306.15,263.804 306.421,261.565 306.26,259.298L300.275,259.724ZM305.485,265.979L294.009,262.469L293.321,264.719L299.059,266.474L304.796,268.229L305.485,265.979ZM299.059,266.474L293.321,264.719L292.633,266.969L298.371,268.724L304.108,270.479L304.796,268.229L299.059,266.474ZM298.371,268.724L292.633,266.969C291.811,269.658 291.843,272.422 292.715,275.088L304.121,271.36C304.012,271.027 304.013,270.791 304.108,270.479L298.371,268.724ZM304.121,271.36L292.715,275.088L293.45,277.338L304.856,273.61L304.121,271.36ZM304.856,273.61L293.45,277.338L294.185,279.588L305.591,275.86L304.856,273.61ZM305.591,275.86L294.185,279.588C294.375,280.169 294.396,280.654 294.308,281.133L300.208,282.224L306.107,283.315C306.574,280.795 306.382,278.279 305.591,275.86ZM300.208,282.224L294.308,281.133L293.891,283.383L305.691,285.565L306.107,283.315L300.208,282.224ZM305.691,285.565L293.891,283.383L293.475,285.633L305.275,287.815L305.691,285.565ZM305.275,287.815L293.475,285.633C293.172,287.276 292.929,288.921 292.748,290.569L298.712,291.224L304.676,291.88C304.825,290.527 305.024,289.173 305.275,287.815ZM298.712,291.224L292.748,290.569L292.501,292.819L298.465,293.474L304.429,294.13L304.676,291.88L298.712,291.224ZM298.465,293.474L292.501,292.819L292.253,295.069L298.217,295.724L304.182,296.38L304.429,294.13L298.465,293.474ZM298.217,295.724L292.253,295.069C292.108,296.39 291.903,297.715 291.636,299.043L297.518,300.224L303.401,301.406C303.737,299.734 303.997,298.058 304.182,296.38L298.217,295.724ZM297.518,300.224L291.636,299.043L291.184,301.293L297.067,302.474L302.949,303.656L303.401,301.406L297.518,300.224ZM297.067,302.474L291.184,301.293L290.732,303.543L296.615,304.724L302.497,305.906L302.949,303.656L297.067,302.474ZM296.615,304.724L290.732,303.543C290.093,306.728 290.826,309.743 292.387,312.327L297.522,309.224L302.658,306.122C302.511,305.878 302.494,305.77 302.497,305.788C302.499,305.795 302.502,305.816 302.502,305.847C302.502,305.877 302.499,305.899 302.497,305.906L296.615,304.724ZM297.522,309.224L292.387,312.327L293.746,314.577L298.882,311.474L304.017,308.372L302.658,306.122L297.522,309.224ZM298.882,311.474L293.746,314.577L295.105,316.827L300.241,313.724L305.376,310.622L304.017,308.372L298.882,311.474ZM300.241,313.724L295.105,316.827C295.619,317.677 295.79,318.314 295.832,318.774L301.807,318.224L307.782,317.675C307.548,315.135 306.676,312.772 305.376,310.622L300.241,313.724ZM301.807,318.224L295.832,318.774L296.039,321.024L302.014,320.474L307.989,319.925L307.782,317.675L301.807,318.224ZM302.014,320.474L296.039,321.024L296.246,323.274L302.221,322.724L308.196,322.175L307.989,319.925L302.014,320.474ZM302.221,322.724L296.246,323.274C296.339,324.286 296.309,325.298 296.154,326.321L302.085,327.224L308.017,328.127C308.318,326.15 308.379,324.163 308.196,322.175L302.221,322.724ZM302.085,327.224L296.154,326.321L295.811,328.571L301.743,329.474L307.674,330.377L308.017,328.127L302.085,327.224ZM301.743,329.474L295.811,328.571L295.468,330.821L307.332,332.627L307.674,330.377L301.743,329.474ZM307.332,332.627L295.468,330.821C295.317,331.815 295.031,332.851 294.583,333.938L300.13,336.224L305.677,338.511C306.466,336.597 307.026,334.634 307.332,332.627ZM300.13,336.224L294.583,333.938L293.655,336.188L299.202,338.474L304.75,340.761L305.677,338.511L300.13,336.224ZM299.202,338.474L293.655,336.188L292.728,338.438L298.275,340.724L303.822,343.011L304.75,340.761L299.202,338.474ZM298.275,340.724L292.728,338.438C292.01,340.179 291.43,341.91 291.006,343.629L296.832,345.066L302.657,346.502C302.921,345.432 303.303,344.27 303.822,343.011L298.275,340.724ZM296.832,345.066L291.006,343.629L290.49,345.72L296.316,347.157L302.141,348.593L302.657,346.502L296.832,345.066ZM296.316,347.157L290.49,345.72L289.975,347.812L295.8,349.248L301.626,350.685L302.141,348.593L296.316,347.157ZM295.8,349.248L289.975,347.812C289.661,349.084 289.314,350.32 288.935,351.518L294.656,353.328L300.376,355.137C300.836,353.685 301.252,352.2 301.626,350.685L295.8,349.248ZM294.656,353.328L288.935,351.518L288.306,353.507L294.027,355.316L299.747,357.126L300.376,355.137L294.656,353.328ZM294.027,355.316L288.306,353.507L287.677,355.495L293.398,357.304L299.118,359.114L299.747,357.126L294.027,355.316ZM293.398,357.304L287.677,355.495C287.138,357.199 286.755,359.002 286.507,360.883L292.455,361.668L298.403,362.454C298.573,361.167 298.819,360.06 299.118,359.114L293.398,357.304ZM292.455,361.668L286.507,360.883L286.193,363.259L292.141,364.044L298.09,364.83L298.403,362.454L292.455,361.668ZM292.141,364.044L286.193,363.259L285.879,365.634L291.828,366.42L297.776,367.205L298.09,364.83L292.141,364.044ZM291.828,366.42L285.879,365.634C285.834,365.98 285.747,366.098 285.626,366.22L294.168,374.648C296.203,372.586 297.403,370.027 297.776,367.205L291.828,366.42ZM294.168,374.648L285.626,366.22L284.009,367.859L288.28,372.073L292.552,376.287L294.168,374.648ZM288.28,372.073L284.009,367.859L282.393,369.498L286.664,373.712L290.935,377.925L292.552,376.287L288.28,372.073ZM286.664,373.712L282.393,369.498C282.304,369.588 282.216,369.67 281.867,369.716L283.427,381.614C286.278,381.24 288.868,380.02 290.935,377.925L286.664,373.712ZM283.427,381.614L281.867,369.716L279.467,370.03L281.027,381.928L283.427,381.614ZM281.027,381.928L279.467,370.03L277.067,370.345L278.627,382.243L281.027,381.928ZM278.627,382.243L277.067,370.345C274.314,370.705 271.795,371.822 269.703,373.71L273.722,378.165L277.742,382.619C277.949,382.432 278.18,382.301 278.627,382.243ZM273.722,378.165L269.703,373.71L267.978,375.267L271.997,379.721L276.017,384.176L277.742,382.619L273.722,378.165ZM271.997,379.721L267.978,375.267L266.253,376.823L270.272,381.278L274.292,385.732L276.017,384.176L271.997,379.721ZM270.272,381.278L266.253,376.823C265.542,377.464 264.695,378.042 263.678,378.541L266.323,383.927L268.969,389.312C270.917,388.355 272.702,387.166 274.292,385.732L270.272,381.278ZM266.323,383.927L263.678,378.541L261.454,379.634L264.1,385.019L266.745,390.404L268.969,389.312L266.323,383.927ZM264.1,385.019L261.454,379.634L259.23,380.726L261.876,386.111L264.521,391.497L266.745,390.404L264.1,385.019ZM261.876,386.111L259.23,380.726C259.226,380.728 259.271,380.706 259.361,380.684C259.453,380.662 259.568,380.647 259.695,380.648C259.971,380.65 260.114,380.727 260.071,380.705L257.387,386.072L254.704,391.438C257.847,393.009 261.314,393.072 264.521,391.497L261.876,386.111ZM257.387,386.072L260.071,380.705L257.806,379.573L255.123,384.939L252.44,390.306L254.704,391.438L257.387,386.072ZM255.123,384.939L257.806,379.573L255.541,378.44L250.175,389.174L252.44,390.306L255.123,384.939ZM250.175,389.174L255.541,378.44C253.478,377.409 251.299,376.716 249.025,376.456L248.344,382.418L247.662,388.379C248.388,388.462 249.219,388.696 250.175,389.174ZM248.344,382.418L249.025,376.456L246.775,376.199L246.094,382.161L245.412,388.122L247.662,388.379L248.344,382.418ZM246.094,382.161L246.775,376.199L244.525,375.942L243.844,381.903L243.162,387.865L245.412,388.122L246.094,382.161ZM243.844,381.903L244.525,375.942C242.582,375.72 240.635,375.715 238.691,375.928L239.344,381.892L239.996,387.857C241.052,387.741 242.105,387.744 243.162,387.865L243.844,381.903ZM239.344,381.892L238.691,375.928L236.441,376.174L237.094,382.138L237.746,388.103L239.996,387.857L239.344,381.892ZM237.094,382.138L236.441,376.174L234.191,376.42L234.844,382.384L235.496,388.349L237.746,388.103L237.094,382.138ZM234.844,382.384L234.191,376.42C232.601,376.594 231.011,376.804 229.422,377.051L230.344,382.98L231.265,388.909C232.676,388.69 234.086,388.503 235.496,388.349L234.844,382.384ZM230.344,382.98L229.422,377.051L227.172,377.401L228.094,383.33L229.015,389.259L231.265,388.909L230.344,382.98ZM228.094,383.33L227.172,377.401L224.922,377.75L225.844,383.679L226.765,389.608L229.015,389.259L228.094,383.33ZM225.844,383.679L224.922,377.75C224.192,377.864 223.466,377.839 222.702,377.662L221.344,383.506L219.985,389.35C222.221,389.87 224.495,389.961 226.765,389.608L225.844,383.679ZM221.344,383.506L222.702,377.662L220.452,377.139L219.094,382.983L217.735,388.827L219.985,389.35L221.344,383.506ZM219.094,382.983L220.452,377.139L218.202,376.616L216.844,382.46L215.485,388.304L217.735,388.827L219.094,382.983ZM216.844,382.46L218.202,376.616C215.34,375.95 212.507,376.297 209.897,377.463L212.344,382.941L214.79,388.42C215.18,388.246 215.347,388.272 215.485,388.304L216.844,382.46ZM212.344,382.941L209.897,377.463L207.647,378.468L210.094,383.946L212.54,389.425L214.79,388.42L212.344,382.941ZM210.094,383.946L207.647,378.468L205.397,379.473L207.844,384.951L210.29,390.43L212.54,389.425L210.094,383.946ZM207.844,384.951L205.397,379.473C205.327,379.504 205.29,379.513 205.283,379.515C205.279,379.516 205.28,379.516 205.287,379.515C205.294,379.514 205.304,379.513 205.316,379.512C205.329,379.511 205.341,379.511 205.353,379.512C205.366,379.513 205.375,379.514 205.381,379.515C205.395,379.517 205.384,379.517 205.346,379.503L203.344,385.159L201.341,390.815C204.343,391.878 207.435,391.704 210.29,390.43L207.844,384.951ZM203.344,385.159L205.346,379.503L203.096,378.707L201.094,384.363L199.091,390.019L201.341,390.815L203.344,385.159ZM201.094,384.363L203.096,378.707L200.846,377.91L198.844,383.566L196.841,389.222L199.091,390.019L201.094,384.363ZM198.844,383.566L200.846,377.91C198.957,377.241 197.033,376.778 195.08,376.537L194.344,382.491L193.607,388.446C194.654,388.575 195.73,388.829 196.841,389.222L198.844,383.566ZM194.344,382.491L195.08,376.537L192.83,376.259L192.094,382.213L191.357,388.168L193.607,388.446L194.344,382.491ZM192.094,382.213L192.83,376.259L190.58,375.98L189.844,381.935L189.107,387.89L191.357,388.168L192.094,382.213ZM189.844,381.935L190.58,375.98C187.627,375.615 184.844,376.319 182.388,377.709L185.344,382.931L188.299,388.152C188.843,387.844 189.06,387.884 189.107,387.89L189.844,381.935ZM185.344,382.931L182.388,377.709L180.138,378.983L183.094,384.204L186.049,389.426L188.299,388.152L185.344,382.931ZM183.094,384.204L180.138,378.983L177.888,380.256L180.844,385.478L183.799,390.699L186.049,389.426L183.094,384.204ZM180.844,385.478L177.888,380.256C177.083,380.712 176.487,380.846 176.054,380.867L176.344,386.86L176.633,392.853C179.2,392.729 181.604,391.942 183.799,390.699L180.844,385.478ZM176.344,386.86L176.054,380.867L173.804,380.976L174.094,386.969L174.383,392.962L176.633,392.853L176.344,386.86ZM174.094,386.969L173.804,380.976L171.554,381.085L171.844,387.078L172.133,393.071L174.383,392.962L174.094,386.969ZM171.844,387.078L171.554,381.085C170.599,381.131 169.634,381.05 168.643,380.83L167.344,386.688L166.044,392.545C168.053,392.991 170.088,393.17 172.133,393.071L171.844,387.078ZM167.344,386.688L168.643,380.83L166.393,380.331L165.094,386.188L163.794,392.046L166.044,392.545L167.344,386.688ZM165.094,386.188L166.393,380.331L164.143,379.832L162.844,385.689L161.544,391.547L163.794,392.046L165.094,386.188ZM162.844,385.689L164.143,379.832C162.053,379.368 159.934,379.225 157.806,379.416L158.344,385.392L158.881,391.368C159.753,391.29 160.634,391.345 161.544,391.547L162.844,385.689ZM158.344,385.392L157.806,379.416L155.556,379.618L156.094,385.594L156.631,391.57L158.881,391.368L158.344,385.392ZM156.094,385.594L155.556,379.618L153.306,379.821L153.844,385.797L154.381,391.773L156.631,391.57L156.094,385.594ZM153.844,385.797L153.306,379.821C152.14,379.926 150.975,379.933 149.809,379.842L149.344,385.824L148.878,391.806C150.712,391.948 152.547,391.937 154.381,391.773L153.844,385.797ZM149.344,385.824L149.809,379.842L147.559,379.667L147.094,385.648L146.628,391.63L148.878,391.806L149.344,385.824ZM147.094,385.648L147.559,379.667L145.309,379.491L144.844,385.473L144.378,391.455L146.628,391.63L147.094,385.648ZM144.844,385.473L145.309,379.491C144.507,379.429 143.638,379.224 142.685,378.82L140.344,384.344L138.002,389.868C140.049,390.736 142.18,391.284 144.378,391.455L144.844,385.473ZM140.344,384.344L142.685,378.82L140.435,377.866L138.094,383.39L135.752,388.914L138.002,389.868L140.344,384.344ZM138.094,383.39L140.435,377.866L138.185,376.912L135.844,382.437L133.502,387.961L135.752,388.914L138.094,383.39ZM135.844,382.437L138.185,376.912C135.582,375.809 132.78,375.51 129.965,376.174L131.344,382.014L132.722,387.853C132.907,387.81 133.105,387.793 133.502,387.961L135.844,382.437ZM131.344,382.014L129.965,376.174L127.715,376.706L129.094,382.545L130.472,388.385L132.722,387.853L131.344,382.014ZM129.094,382.545L127.715,376.706L125.465,377.237L126.844,383.076L128.222,388.916L130.472,388.385L129.094,382.545ZM126.844,383.076L125.465,377.237C123.709,377.651 121.967,378.184 120.24,378.831L122.344,384.45L124.447,390.069C125.72,389.593 126.978,389.21 128.222,388.916L126.844,383.076ZM122.344,384.45L120.24,378.831L117.99,379.673L120.094,385.292L122.197,390.911L124.447,390.069L122.344,384.45ZM120.094,385.292L117.99,379.673L115.74,380.516L117.844,386.135L119.947,391.754L122.197,390.911L120.094,385.292ZM117.844,386.135L115.74,380.516C115.256,380.697 114.914,380.702 114.58,380.632L113.344,386.503L112.107,392.374C114.773,392.936 117.431,392.696 119.947,391.754L117.844,386.135ZM113.344,386.503L114.58,380.632L112.33,380.158L111.094,386.029L109.857,391.9L112.107,392.374L113.344,386.503ZM111.094,386.029L112.33,380.158L110.08,379.684L108.844,385.555L107.607,391.426L109.857,391.9L111.094,386.029ZM108.844,385.555L110.08,379.684C108.132,379.274 106.165,379.09 104.187,379.142L104.344,385.14L104.5,391.138C105.522,391.111 106.555,391.205 107.607,391.426L108.844,385.555ZM104.344,385.14L104.187,379.142L101.937,379.201L102.094,385.199L102.25,391.197L104.5,391.138L104.344,385.14ZM102.094,385.199L101.937,379.201L99.687,379.26L99.844,385.258L100,391.256L102.25,391.197L102.094,385.199ZM99.844,385.258L99.687,379.26C97.785,379.309 95.896,379.549 94.023,379.971L96.664,391.677C97.791,391.423 98.902,391.284 100,391.256L99.844,385.258ZM96.664,391.677L94.023,379.971L91.773,380.479L94.414,392.185L96.664,391.677ZM94.414,392.185L91.773,380.479L89.523,380.987L90.844,386.84L92.164,392.692L94.414,392.185ZM90.844,386.84L89.523,380.987C89.131,381.075 88.752,381.068 88.264,380.903L86.344,386.587L84.423,392.272C86.935,393.12 89.556,393.281 92.164,392.692L90.844,386.84ZM86.344,386.587L88.264,380.903L86.014,380.143L84.094,385.827L82.173,391.512L84.423,392.272L86.344,386.587ZM84.094,385.827L86.014,380.143L83.764,379.383L81.844,385.067L79.923,390.752L82.173,391.512L84.094,385.827ZM81.844,385.067L83.764,379.383C82.363,378.91 80.96,378.395 79.554,377.838L77.344,383.415L75.133,388.993C76.727,389.625 78.324,390.211 79.923,390.752L81.844,385.067ZM77.344,383.415L79.554,377.838L77.304,376.946L75.094,382.523L72.883,388.101L75.133,388.993L77.344,383.415ZM75.094,382.523L77.304,376.946L75.054,376.054L72.844,381.632L70.633,387.209L72.883,388.101L75.094,382.523ZM72.844,381.632L75.054,376.054C72.362,374.987 69.499,374.81 66.676,375.627L68.344,381.391L70.011,387.154C70.188,387.103 70.325,387.087 70.633,387.209L72.844,381.632ZM68.344,381.391L66.676,375.627L64.426,376.278L66.094,382.042L67.761,387.805L70.011,387.154L68.344,381.391ZM66.094,382.042L64.426,376.278L62.176,376.929L63.843,382.692L65.511,388.456L67.761,387.805L66.094,382.042ZM63.843,382.692L62.176,376.929C61.829,377.029 61.544,377.03 61.167,376.909L59.343,382.626L57.52,388.342C60.143,389.179 62.858,389.223 65.511,388.456L63.843,382.692ZM59.343,382.626L61.167,376.909L58.917,376.192L57.093,381.908L55.27,387.624L57.52,388.342L59.343,382.626ZM57.093,381.908L58.917,376.192L56.667,375.474L54.843,381.19L53.02,386.906L55.27,387.624L57.093,381.908ZM54.843,381.19L56.667,375.474C53.134,374.347 49.75,375.166 46.986,376.954L53.502,387.03C53.741,386.876 53.767,386.913 53.599,386.943C53.516,386.957 53.411,386.965 53.295,386.957C53.18,386.948 53.085,386.927 53.02,386.906L54.843,381.19ZM53.502,387.03L46.986,376.954L44.636,378.473L47.894,383.512L51.153,388.55L53.502,387.03ZM47.894,383.512L44.636,378.473L42.286,379.993L48.803,390.069L51.153,388.55L47.894,383.512ZM48.803,390.069L42.286,379.993C42.16,380.075 42.076,380.115 42.036,380.132C41.996,380.148 41.996,380.144 42.031,380.138C42.067,380.13 42.12,380.124 42.181,380.126C42.243,380.128 42.288,380.136 42.31,380.142L40.847,385.961L39.385,391.78C42.82,392.643 46.078,391.832 48.803,390.069ZM40.847,385.961L42.31,380.142L39.962,379.552L38.499,385.371L37.037,391.19L39.385,391.78L40.847,385.961ZM38.499,385.371L39.962,379.552L37.614,378.962L36.152,384.781L34.689,390.6L37.037,391.19L38.499,385.371ZM36.152,384.781L37.614,378.962C37.518,378.938 37.482,378.914 37.461,378.899C37.435,378.881 37.342,378.811 37.202,378.614L32.31,382.088L27.419,385.563C29.183,388.047 31.643,389.834 34.689,390.6L36.152,384.781ZM32.31,382.088L37.202,378.614L35.709,376.511L30.817,379.986L25.925,383.46L27.419,385.563L32.31,382.088ZM30.817,379.986L35.709,376.511L34.215,374.409L29.324,377.884L24.432,381.358L25.925,383.46L30.817,379.986ZM29.324,377.884L34.215,374.409C32.329,371.754 29.655,370.03 26.479,369.383L24.083,381.141C24.175,381.16 24.231,381.179 24.259,381.191C24.287,381.202 24.299,381.209 24.302,381.211C24.305,381.213 24.314,381.219 24.331,381.236C24.349,381.253 24.384,381.29 24.432,381.358L29.324,377.884ZM24.083,381.141L26.479,369.383L23.929,368.863L22.731,374.742L21.534,380.622L24.083,381.141ZM22.731,374.742L23.929,368.863L21.379,368.344L18.984,380.102L21.534,380.622L22.731,374.742ZM18.984,380.102L21.379,368.344C21.242,368.316 21.327,368.31 21.498,368.434C21.579,368.492 21.651,368.56 21.711,368.629C21.77,368.698 21.799,368.748 21.806,368.762L11.198,374.372C12.862,377.518 15.678,379.429 18.984,380.102ZM11.198,374.372L21.806,368.762L20.676,366.626L10.068,372.236L11.198,374.372ZM10.068,372.236L20.676,366.626L19.546,364.489L8.938,370.099L10.068,372.236ZM8.938,370.099L19.546,364.489C18.898,363.264 18.339,362.04 17.866,360.818L12.271,362.986L6.676,365.154C7.325,366.828 8.08,368.476 8.938,370.099ZM12.271,362.986L17.866,360.818L17.024,358.646L5.835,362.982L6.676,365.154L12.271,362.986ZM5.835,362.982L17.024,358.646L16.183,356.474L10.588,358.642L4.993,360.81L5.835,362.982ZM10.588,358.642L16.183,356.474C16.084,356.221 16.046,355.969 16.15,355.542L10.322,354.116L4.494,352.69C3.831,355.401 3.969,358.168 4.993,360.81L10.588,358.642ZM10.322,354.116L16.15,355.542L16.727,353.187L10.898,351.761L5.07,350.335L4.494,352.69L10.322,354.116ZM10.898,351.761L16.727,353.187L17.303,350.832L11.475,349.406L5.646,347.98L5.07,350.335L10.898,351.761ZM11.475,349.406L17.303,350.832C18.032,347.852 17.672,344.87 16.29,342.149L10.941,344.867L5.591,347.585C5.664,347.728 5.67,347.791 5.67,347.795C5.671,347.798 5.679,347.849 5.646,347.98L11.475,349.406ZM10.941,344.867L16.29,342.149L15.18,339.964L9.83,342.682L4.481,345.4L5.591,347.585L10.941,344.867ZM9.83,342.682L15.18,339.964L14.069,337.779L8.72,340.497L3.371,343.214L4.481,345.4L9.83,342.682ZM8.72,340.497L14.069,337.779C14.045,337.731 14.044,337.72 14.051,337.743C14.059,337.769 14.069,337.816 14.073,337.878C14.078,337.941 14.074,337.998 14.068,338.042C14.062,338.084 14.055,338.097 14.063,338.074L8.411,336.062L2.759,334.049C1.656,337.146 1.907,340.333 3.371,343.214L8.72,340.497ZM8.411,336.062L14.063,338.074L14.864,335.824L9.212,333.812L3.56,331.799L2.759,334.049L8.411,336.062ZM9.212,333.812L14.864,335.824L15.665,333.574L10.013,331.562L4.361,329.549L3.56,331.799L9.212,333.812ZM10.013,331.562L15.665,333.574C16.744,330.544 16.55,327.428 15.24,324.564L9.784,327.062L4.329,329.559C4.36,329.627 4.369,329.662 4.37,329.665C4.37,329.667 4.369,329.663 4.368,329.654C4.366,329.645 4.365,329.632 4.364,329.616C4.363,329.601 4.363,329.585 4.364,329.569C4.365,329.554 4.366,329.541 4.368,329.532C4.369,329.522 4.37,329.518 4.37,329.52C4.369,329.523 4.367,329.532 4.361,329.549L10.013,331.562ZM9.784,327.062L15.24,324.564L14.21,322.314L8.754,324.812L3.299,327.309L4.329,329.559L9.784,327.062ZM8.754,324.812L14.21,322.314L13.18,320.064L7.724,322.562L2.269,325.059L3.299,327.309L8.754,324.812ZM7.724,322.562L13.18,320.064C13.213,320.136 13.298,320.384 13.273,320.73C13.25,321.061 13.146,321.212 13.189,321.14L8.039,318.062L2.889,314.984C1.05,318.06 0.704,321.641 2.269,325.059L7.724,322.562ZM8.039,318.062L13.189,321.14L14.534,318.89L9.384,315.812L4.233,312.734L2.889,314.984L8.039,318.062ZM9.384,315.812L14.534,318.89L15.879,316.64L10.728,313.562L5.578,310.484L4.233,312.734L9.384,315.812ZM10.728,313.562L15.879,316.64C17.712,313.572 18.066,309.999 16.515,306.582L11.052,309.062L5.588,311.541C5.555,311.469 5.472,311.223 5.497,310.881C5.52,310.555 5.623,310.408 5.578,310.484L10.728,313.562ZM11.052,309.062L16.515,306.582L15.494,304.332L10.031,306.812L4.567,309.291L5.588,311.541L11.052,309.062ZM10.031,306.812L15.494,304.332L14.473,302.082L9.01,304.562L3.546,307.041L4.567,309.291L10.031,306.812ZM9.01,304.562L14.473,302.082C14.458,302.049 14.466,302.057 14.476,302.103C14.487,302.15 14.496,302.218 14.497,302.299C14.497,302.38 14.487,302.449 14.477,302.497C14.466,302.544 14.459,302.554 14.472,302.523L9,300.062L3.528,297.601C2.146,300.675 2.154,303.975 3.546,307.041L9.01,304.562ZM9,300.062L14.472,302.523L15.484,300.273L10.012,297.812L4.54,295.351L3.528,297.601L9,300.062ZM10.012,297.812L15.484,300.273L16.496,298.023L11.024,295.562L5.552,293.101L4.54,295.351L10.012,297.812ZM11.024,295.562L16.496,298.023C18.04,294.59 17.658,291.014 15.811,287.958L10.676,291.062L5.541,294.166C5.59,294.246 5.486,294.102 5.461,293.775C5.434,293.431 5.516,293.18 5.552,293.101L11.024,295.562ZM10.676,291.062L15.811,287.958L14.45,285.708L9.316,288.812L4.181,291.916L5.541,294.166L10.676,291.062ZM9.316,288.812L14.45,285.708L13.09,283.458L7.956,286.562L2.821,289.666L4.181,291.916L9.316,288.812ZM7.956,286.562L13.09,283.458C12.584,282.62 12.425,282.002 12.388,281.566L6.409,282.062L0.429,282.558C0.642,285.121 1.514,287.503 2.821,289.666L7.956,286.562ZM6.409,282.062L12.388,281.566L12.202,279.316L6.222,279.812L0.243,280.308L0.429,282.558L6.409,282.062ZM6.222,279.812L12.202,279.316L12.015,277.066L6.035,277.562L0.056,278.058L0.243,280.308L6.222,279.812ZM6.035,277.562L12.015,277.066C11.965,276.461 12.037,275.813 12.302,275.067L6.647,273.062L0.992,271.056C0.192,273.31 -0.143,275.662 0.056,278.058L6.035,277.562ZM6.647,273.062L12.302,275.067L13.1,272.817L7.445,270.812L1.79,268.806L0.992,271.056L6.647,273.062ZM7.445,270.812L13.1,272.817L13.898,270.567L8.243,268.562L2.588,266.556L1.79,268.806L7.445,270.812ZM8.243,268.562L13.898,270.567C14.494,268.887 15.003,267.198 15.422,265.5L9.597,264.062L3.772,262.623C3.45,263.926 3.056,265.236 2.588,266.556L8.243,268.562ZM9.597,264.062L15.422,265.5L15.978,263.25L10.153,261.812L4.328,260.373L3.772,262.623L9.597,264.062ZM10.153,261.812L15.978,263.25L16.533,261L10.709,259.562L4.884,258.123L4.328,260.373L10.153,261.812ZM10.709,259.562L16.533,261C17.018,259.04 17.264,257.052 17.259,255.048L11.259,255.062L5.259,255.075C5.261,256.071 5.14,257.084 4.884,258.123L10.709,259.562ZM11.259,255.062L17.259,255.048L17.254,252.798L11.254,252.812L5.254,252.825L5.259,255.075L11.259,255.062ZM11.254,252.812L17.254,252.798L17.249,250.548L11.249,250.562L5.249,250.575L5.254,252.825L11.254,252.812ZM11.249,250.562L17.249,250.548C17.244,248.473 16.945,246.423 16.37,244.412L10.601,246.062L4.832,247.711C5.115,248.7 5.247,249.65 5.249,250.575L11.249,250.562ZM10.601,246.062L16.37,244.412L15.726,242.162L9.958,243.812L4.189,245.461L4.832,247.711L10.601,246.062ZM9.958,243.812L15.726,242.162L15.083,239.912L9.314,241.562L3.545,243.211L4.189,245.461L9.958,243.812ZM9.314,241.562L15.083,239.912C14.818,238.983 14.71,238.099 14.736,237.241L8.739,237.062L2.741,236.882C2.677,239.024 2.954,241.14 3.545,243.211L9.314,241.562ZM8.739,237.062L14.736,237.241L14.803,234.991L8.806,234.812L2.809,234.632L2.741,236.882L8.739,237.062ZM8.806,234.812L14.803,234.991L14.871,232.741L8.873,232.562L2.876,232.382L2.809,234.632L8.806,234.812ZM8.873,232.562L14.871,232.741C14.92,231.1 14.911,229.458 14.844,227.816L8.849,228.062L2.854,228.307C2.909,229.666 2.917,231.024 2.876,232.382L8.873,232.562ZM8.849,228.062L14.844,227.816L14.752,225.566L8.757,225.812L2.762,226.057L2.854,228.307L8.849,228.062ZM8.757,225.812L14.752,225.566L14.659,223.316L8.664,223.562L2.669,223.807L2.762,226.057L8.757,225.812ZM8.664,223.562L14.659,223.316C14.637,222.775 14.731,222.155 15.05,221.401L9.525,219.062L4,216.722C3.049,218.968 2.569,221.348 2.669,223.807L8.664,223.562ZM9.525,219.062L15.05,221.401L16.003,219.151L10.478,216.812L4.952,214.472L4,216.722L9.525,219.062ZM10.478,216.812L16.003,219.151L16.955,216.901L11.43,214.562L5.905,212.222L4.952,214.472L10.478,216.812ZM11.43,214.562L16.955,216.901C18.019,214.389 18.372,211.692 17.855,208.951L11.959,210.062L6.063,211.173C6.112,211.432 6.112,211.734 5.905,212.222L11.43,214.562ZM11.959,210.062L17.855,208.951L17.431,206.701L11.535,207.812L5.639,208.923L6.063,211.173L11.959,210.062ZM11.535,207.812L17.431,206.701L17.008,204.451L11.111,205.562L5.215,206.673L5.639,208.923L11.535,207.812ZM11.111,205.562L17.008,204.451C16.783,203.259 16.657,202.077 16.625,200.902L10.628,201.062L4.63,201.221C4.678,203.046 4.874,204.864 5.215,206.673L11.111,205.562ZM10.628,201.062L16.625,200.902L16.566,198.652L10.568,198.812L4.57,198.971L4.63,201.221L10.628,201.062ZM10.568,198.812L16.566,198.652L16.506,196.402L10.508,196.562L4.51,196.721L4.57,198.971L10.568,198.812ZM10.508,196.562L16.506,196.402C16.449,194.274 16.063,192.185 15.38,190.15L9.692,192.062L4.005,193.973C4.329,194.939 4.487,195.849 4.51,196.721L10.508,196.562ZM9.692,192.062L15.38,190.15L14.624,187.9L8.936,189.812L3.249,191.723L4.005,193.973L9.692,192.062ZM8.936,189.812L14.624,187.9L13.867,185.65L8.18,187.562L2.493,189.473L3.249,191.723L8.936,189.812ZM8.18,187.562L13.867,185.65C13.761,185.333 13.763,185.121 13.852,184.833L8.119,183.062L2.387,181.29C1.549,184.002 1.591,186.79 2.493,189.473L8.18,187.562ZM8.119,183.062L13.852,184.833L14.547,182.583L8.815,180.812L3.082,179.04L2.387,181.29L8.119,183.062ZM8.815,180.812L14.547,182.583L15.242,180.333L9.51,178.562L3.778,176.79L3.082,179.04L8.815,180.812ZM9.51,178.562L15.242,180.333C16.149,177.399 15.927,174.422 14.726,171.665L9.225,174.062L3.725,176.458C3.763,176.545 3.781,176.605 3.789,176.639C3.797,176.672 3.798,176.688 3.799,176.691C3.799,176.693 3.799,176.696 3.798,176.705C3.797,176.714 3.793,176.741 3.778,176.79L9.51,178.562ZM9.225,174.062L14.726,171.665L13.746,169.415L8.245,171.812L2.744,174.208L3.725,176.458L9.225,174.062ZM8.245,171.812L13.746,169.415L12.766,167.165L7.265,169.562L1.764,171.958L2.744,174.208L8.245,171.812ZM7.265,169.562L12.766,167.165C12.69,166.991 12.686,166.913 12.686,166.908C12.685,166.901 12.685,166.894 12.687,166.882C12.688,166.869 12.692,166.84 12.707,166.79L6.962,165.062L1.216,163.334C0.336,166.259 0.571,169.219 1.764,171.958L7.265,169.562ZM6.962,165.062L12.707,166.79L13.384,164.54L7.638,162.812L1.892,161.084L1.216,163.334L6.962,165.062ZM7.638,162.812L13.384,164.54L14.061,162.29L2.569,158.834L1.892,161.084L7.638,162.812ZM2.569,158.834L14.061,162.29C14.792,159.858 14.919,157.347 14.403,154.849L2.651,157.275C2.754,157.776 2.74,158.266 2.569,158.834ZM2.651,157.275L14.403,154.849L13.939,152.599L8.063,153.812L2.186,155.025L2.651,157.275ZM8.063,153.812L13.939,152.599L13.474,150.349L7.598,151.562L1.722,152.775L2.186,155.025L8.063,153.812ZM7.598,151.562L13.474,150.349C13.426,150.113 13.419,149.846 13.611,149.391L8.081,147.062L2.552,144.733C1.48,147.277 1.151,150.01 1.722,152.775L7.598,151.562ZM8.081,147.062L13.611,149.391L14.558,147.141L9.029,144.812L3.499,142.483L2.552,144.733L8.081,147.062ZM9.029,144.812L14.558,147.141L15.506,144.891L9.976,142.562L4.447,140.233L3.499,142.483L9.029,144.812ZM9.976,142.562L15.506,144.891C16.681,142.101 16.845,139.108 15.884,136.187L10.184,138.062L4.484,139.936C4.502,139.988 4.506,140.017 4.508,140.027C4.508,140.032 4.508,140.035 4.508,140.035C4.508,140.035 4.508,140.038 4.508,140.043C4.507,140.048 4.505,140.057 4.502,140.072C4.496,140.099 4.481,140.152 4.447,140.233L9.976,142.562ZM10.184,138.062L15.884,136.187L15.144,133.937L9.444,135.812L3.744,137.686L4.484,139.936L10.184,138.062ZM9.444,135.812L15.144,133.937L14.404,131.687L8.704,133.562L3.004,135.436L3.744,137.686L9.444,135.812ZM8.704,133.562L14.404,131.687C13.99,130.43 13.67,129.187 13.44,127.957L7.542,129.062L1.645,130.167C1.977,131.936 2.431,133.693 3.004,135.436L8.704,133.562ZM7.542,129.062L13.44,127.957L13.018,125.707L7.121,126.812L1.224,127.917L1.645,130.167L7.542,129.062ZM7.121,126.812L13.018,125.707L12.597,123.457L6.699,124.562L0.802,125.667L1.224,127.917L7.121,126.812ZM6.699,124.562L12.597,123.457C12.432,122.578 12.41,121.719 12.526,120.857L6.579,120.062L0.631,119.267C0.346,121.404 0.405,123.545 0.802,125.667L6.699,124.562ZM6.579,120.062L12.526,120.857L12.826,118.607L6.879,117.812L0.932,117.017L0.631,119.267L6.579,120.062ZM6.879,117.812L12.826,118.607L13.127,116.357L7.18,115.562L1.233,114.767L0.932,117.017L6.879,117.812ZM7.18,115.562L13.127,116.357C13.365,114.576 13.476,112.791 13.459,111.004L1.459,111.12C1.471,112.332 1.396,113.547 1.233,114.767L7.18,115.562ZM1.459,111.12L13.459,111.004L13.437,108.754L7.437,108.812L1.437,108.87L1.459,111.12ZM7.437,108.812L13.437,108.754L13.415,106.504L7.415,106.562L1.416,106.62L1.437,108.87L7.437,108.812ZM7.415,106.562L13.415,106.504C13.412,106.171 13.489,105.678 13.888,104.951L8.63,102.062L3.372,99.172C2.122,101.445 1.39,103.952 1.416,106.62L7.415,106.562ZM8.63,102.062L13.888,104.951L15.125,102.701L9.867,99.812L4.608,96.922L3.372,99.172L8.63,102.062ZM9.867,99.812L15.125,102.701L16.361,100.451L11.103,97.562L5.845,94.672L4.608,96.922L9.867,99.812ZM11.103,97.562L16.361,100.451C17.268,98.801 17.785,96.865 17.594,94.767C17.407,92.706 16.577,90.942 15.535,89.518L10.693,93.062L5.851,96.605C5.907,96.681 5.695,96.417 5.644,95.856C5.589,95.258 5.762,94.822 5.845,94.672L11.103,97.562ZM10.693,93.062L15.535,89.518L13.889,87.268L9.047,90.812L4.205,94.355L5.851,96.605L10.693,93.062ZM9.047,90.812L13.889,87.268L12.242,85.018L7.4,88.562L2.558,92.105L4.205,94.355L9.047,90.812ZM7.4,88.562L12.242,85.018C12.08,84.796 12.13,84.789 12.176,84.99C12.198,85.09 12.213,85.214 12.209,85.35C12.206,85.486 12.185,85.6 12.162,85.681L6.384,84.062L0.607,82.443C-0.408,86.066 0.608,89.439 2.558,92.105L7.4,88.562ZM6.384,84.062L12.162,85.681L12.792,83.431L7.015,81.812L1.238,80.193L0.607,82.443L6.384,84.062ZM7.015,81.812L12.792,83.431L13.423,81.181L7.645,79.562L1.868,77.943L1.238,80.193L7.015,81.812ZM7.645,79.562L13.423,81.181C13.943,79.326 14.285,77.449 14.441,75.555L8.462,75.062L2.482,74.568C2.391,75.674 2.189,76.797 1.868,77.943L7.645,79.562ZM8.462,75.062L14.441,75.555L14.627,73.305L8.648,72.812L2.668,72.318L2.482,74.568L8.462,75.062ZM8.648,72.812L14.627,73.305L14.813,71.055L8.833,70.562L2.854,70.068L2.668,72.318L8.648,72.812ZM8.833,70.562L14.813,71.055C14.945,69.454 15.037,67.852 15.087,66.249L9.09,66.062L3.093,65.874C3.049,67.272 2.969,68.669 2.854,70.068L8.833,70.562ZM9.09,66.062L15.087,66.249L15.157,63.999L9.16,63.812L3.163,63.624L3.093,65.874L9.09,66.062ZM9.16,63.812L15.157,63.999L15.227,61.749L9.23,61.562L3.233,61.374L3.163,63.624L9.16,63.812ZM9.23,61.562L15.227,61.749C15.301,59.392 14.877,57.096 14.031,54.903L8.433,57.062L2.835,59.221C3.146,60.027 3.253,60.731 3.233,61.374L9.23,61.562ZM8.433,57.062L14.031,54.903L13.163,52.653L7.565,54.812L1.967,56.971L2.835,59.221L8.433,57.062ZM7.565,54.812L13.163,52.653L12.296,50.403L6.697,52.562L1.099,54.721L1.967,56.971L7.565,54.812ZM6.697,52.562L12.296,50.403C12.238,50.254 12.235,50.183 12.235,50.163C12.235,50.144 12.234,50.078 12.281,49.938L6.59,48.037L0.899,46.135C-0.052,48.982 0.022,51.927 1.099,54.721L6.697,52.562ZM6.59,48.037L12.281,49.938L13.041,47.663L7.35,45.761L1.66,43.86L0.899,46.135L6.59,48.037ZM7.35,45.761L13.041,47.663L13.801,45.388L8.111,43.486L2.42,41.585L1.66,43.86L7.35,45.761ZM8.111,43.486L13.801,45.388C14.047,44.654 14.415,44.023 14.931,43.451L10.476,39.432L6.02,35.414C4.397,37.214 3.188,39.286 2.42,41.585L8.111,43.486ZM10.476,39.432L14.931,43.451L16.536,41.671L12.08,37.653L7.625,33.635L6.02,35.414L10.476,39.432ZM12.08,37.653L16.536,41.671L18.14,39.892L9.229,31.855L7.625,33.635L12.08,37.653ZM9.229,31.855L18.14,39.892C20.34,37.453 21.302,34.447 21.211,31.315L15.213,31.49L9.216,31.665C9.219,31.781 9.212,31.853 9.207,31.888C9.202,31.922 9.198,31.928 9.204,31.913C9.209,31.897 9.218,31.877 9.229,31.859C9.24,31.841 9.243,31.84 9.229,31.855ZM15.213,31.49L21.211,31.315L21.135,28.71L15.137,28.885L9.14,29.06L9.216,31.665L15.213,31.49ZM15.137,28.885L21.135,28.71L21.059,26.105L15.062,26.28L9.064,26.455L9.14,29.06L15.137,28.885ZM15.062,26.28L21.059,26.105C21.055,25.977 21.081,26.127 20.953,26.412C20.892,26.549 20.812,26.68 20.72,26.795C20.629,26.908 20.547,26.979 20.5,27.015L16.861,22.244L13.222,17.474C10.257,19.736 8.964,23.021 9.064,26.455L15.062,26.28ZM16.861,22.244L20.5,27.015L22.376,25.584L18.737,20.813L15.098,16.043L13.222,17.474L16.861,22.244ZM18.737,20.813L22.376,25.584L24.251,24.153L20.612,19.383L16.973,14.612L15.098,16.043L18.737,20.813ZM20.612,19.383L24.251,24.153C25.497,23.203 26.727,22.268 27.942,21.348L24.319,16.565L20.696,11.782C19.47,12.711 18.229,13.654 16.973,14.612L20.612,19.383ZM24.319,16.565L27.942,21.348L29.773,19.96L26.15,15.178L22.527,10.395L20.696,11.782L24.319,16.565ZM26.15,15.178L29.773,19.96L31.604,18.573L27.981,13.791L24.358,9.008L22.527,10.395L26.15,15.178ZM27.981,13.791L31.604,18.573C31.718,18.487 31.806,18.432 32.108,18.436L32.193,12.437L32.278,6.438C29.406,6.397 26.686,7.245 24.358,9.008L27.981,13.791ZM32.193,12.437L32.108,18.436L34.489,18.47L34.574,12.471L34.658,6.471L32.278,6.438L32.193,12.437ZM34.574,12.471L34.489,18.47L36.869,18.503L37.039,6.505L34.658,6.471L34.574,12.471ZM37.039,6.505L36.869,18.503C38.715,18.529 40.502,18.434 42.221,18.202L41.418,12.256L40.616,6.31C39.556,6.453 38.367,6.523 37.039,6.505ZM41.418,12.256L42.221,18.202L44.305,17.921L43.502,11.975L42.699,6.029L40.616,6.31L41.418,12.256ZM43.502,11.975L44.305,17.921L46.389,17.64L45.586,11.694L44.783,5.748L42.699,6.029L43.502,11.975ZM45.586,11.694L46.389,17.64C47.297,17.517 48.371,17.313 49.402,16.912C50.214,16.596 52.271,15.685 53.389,13.367L47.984,10.761L42.579,8.156C43.058,7.161 43.721,6.555 44.152,6.237C44.577,5.923 44.926,5.777 45.053,5.728C45.284,5.638 45.264,5.683 44.783,5.748L45.586,11.694ZM47.984,10.761L53.389,13.367L53.702,12.716L48.297,10.111L42.892,7.505L42.579,8.156L47.984,10.761ZM48.297,10.111L53.702,12.716L54.016,12.065L48.611,9.46L43.206,6.854L42.892,7.505L48.297,10.111ZM48.611,9.46L54.016,12.065C53.283,13.586 52.045,14.441 51.019,14.83C50.127,15.169 49.419,15.161 49.198,15.153C48.768,15.138 48.713,15.056 49.298,15.248L51.175,9.55L53.051,3.851C52.136,3.549 50.904,3.205 49.619,3.16C48.763,3.13 44.985,3.163 43.206,6.854L48.611,9.46ZM51.175,9.55L49.298,15.248L51.548,15.989L53.425,10.29L55.301,4.592L53.051,3.851L51.175,9.55Z" style="fill:rgb(243,232,214);fill-rule:nonzero;"/>
</svg>
