<?xml version="1.0" encoding="UTF-8" standalone="no"?>
<!DOCTYPE svg PUBLIC "-//W3C//DTD SVG 1.1//EN" "http://www.w3.org/Graphics/SVG/1.1/DTD/svg11.dtd">
<svg width="100%" height="100%" viewBox="0 0 367 106" version="1.1" xmlns="http://www.w3.org/2000/svg" xmlns:xlink="http://www.w3.org/1999/xlink" xml:space="preserve" xmlns:serif="http://www.serif.com/" style="fill-rule:evenodd;clip-rule:evenodd;stroke-linejoin:round;stroke-miterlimit:2;">
    <path d="M8.5,50C8.5,27.909 26.409,10 48.5,10L318.5,10C340.591,10 358.5,27.909 358.5,50L358.5,56C358.5,78.091 340.591,96 318.5,96L48.5,96C26.409,96 8.5,78.091 8.5,56L8.5,50Z" style="fill:rgb(255,172,62);fill-rule:nonzero;"/>
    <path d="M53,11.482L54.877,5.783L53,11.482ZM55.25,12.223L53.373,17.922L55.25,12.223ZM59.75,11.868L62.378,17.261L59.75,11.868ZM62,10.771L59.372,5.377L62,10.771ZM64.25,9.675L61.622,4.281L64.25,9.675ZM68.75,9.35L66.806,15.026L68.75,9.35ZM77.75,11.111L76.324,5.283L77.75,11.111ZM82.25,10.011L80.824,4.182L82.25,10.011ZM95.75,10.894L99.043,15.909L95.75,10.894ZM100.25,7.939L96.957,2.924L100.25,7.939ZM113.75,11.528L115.496,17.268L113.75,11.528ZM118.25,10.159L116.504,4.418L118.25,10.159ZM122.75,9.287L122.253,3.308L122.75,9.287ZM125,9.1L124.503,3.121L125,9.1ZM127.25,8.914L127.747,14.893L127.25,8.914ZM131.75,9.654L129.465,15.201L131.75,9.654ZM134,10.581L136.285,5.033L134,10.581ZM136.25,11.508L133.965,17.055L136.25,11.508ZM140.75,11.358L143.34,16.77L140.75,11.358ZM143,10.281L140.41,4.869L143,10.281ZM145.25,9.204L147.84,14.616L145.25,9.204ZM149.75,8.46L148.87,14.395L149.75,8.46ZM154.25,9.127L155.13,3.192L154.25,9.127ZM158.75,10.109L157.09,15.874L158.75,10.109ZM163.25,11.404L164.91,5.638L163.25,11.404ZM167.75,11.055L165.321,5.569L167.75,11.055ZM170,10.059L172.429,15.545L170,10.059ZM172.25,9.063L169.821,3.576L172.25,9.063ZM176.75,8.717L178.415,2.952L176.75,8.717ZM179,9.367L177.335,15.131L179,9.367ZM181.25,10.017L182.915,4.252L181.25,10.017ZM185.75,11.289L184.151,17.072L185.75,11.289ZM190.25,12.533L191.849,6.75L190.25,12.533ZM194.75,13.098L194.598,7.1L194.75,13.098ZM203.75,12.434L205.035,18.295L203.75,12.434ZM208.25,11.448L206.965,5.587L208.25,11.448ZM217.25,11.24L216.997,17.234L217.25,11.24ZM221.75,10.544L219.76,4.883L221.75,10.544ZM226.25,8.962L228.24,14.622L226.25,8.962ZM230.75,9.516L233.829,4.367L230.75,9.516ZM235.25,12.207L232.171,17.357L235.25,12.207ZM239.75,11.943L243.242,16.822L239.75,11.943ZM244.25,8.722L240.758,3.843L244.25,8.722ZM248.75,7.415L249.551,1.469L248.75,7.415ZM253.25,8.021L252.449,13.967L253.25,8.021ZM257.75,9.487L254.996,14.817L257.75,9.487ZM262.25,11.811L265.004,6.481L262.25,11.811ZM266.75,11.487L263.443,6.481L266.75,11.487ZM271.25,8.514L274.557,13.52L271.25,8.514ZM280.25,8.975L281.913,3.211L280.25,8.975ZM284.75,9.081L283.34,3.249L284.75,9.081ZM287,8.537L288.41,14.369L287,8.537ZM289.25,7.993L290.66,13.825L289.25,7.993ZM293.75,7.46L293.721,13.46L293.75,7.46ZM302.75,7.445L302.62,1.446L302.75,7.445ZM311.75,7.079L312.332,13.051L311.75,7.079ZM316.25,6.641L315.668,0.669L316.25,6.641ZM320.646,7.943L324.116,3.048L320.646,7.943ZM322.792,9.464L319.322,14.359L322.792,9.464ZM324.938,10.986L321.468,15.88L324.938,10.986ZM329.264,12.926L330.395,7.033L329.264,12.926ZM333.622,13.762L332.491,19.655L333.622,13.762ZM337.269,15.896L341.828,11.995L337.269,15.896ZM340.206,19.327L335.648,23.229L340.206,19.327ZM344.159,21.712L342.598,27.505L344.159,21.712ZM346.644,22.381L345.083,28.175L346.644,22.381ZM349.128,23.051L350.689,17.257L349.128,23.051ZM351.734,26.276L345.741,26.561L351.734,26.276ZM351.855,28.832L357.849,28.548L351.855,28.832ZM351.977,31.389L357.97,31.104L351.977,31.389ZM354.227,35.595L357.903,30.853L354.227,35.595ZM358.484,38.896L354.808,43.638L358.484,38.896ZM360.271,42.951L354.331,42.108L360.271,42.951ZM359.93,45.356L365.87,46.199L359.93,45.356ZM359.588,47.761L353.648,46.917L359.588,47.761ZM358.647,52.386L352.855,50.821L358.647,52.386ZM358.047,54.606L363.84,56.171L358.047,54.606ZM357.447,56.826L351.655,55.261L357.447,56.826ZM357.14,61.385L351.186,62.128L357.14,61.385ZM357.432,63.724L351.478,64.467L357.432,63.724ZM357.724,66.063L363.677,65.32L357.724,66.063ZM356.122,69.971L352.295,65.35L356.122,69.971ZM352.336,73.107L356.163,77.728L352.336,73.107ZM349.206,76.345L344.384,72.774L349.206,76.345ZM347.969,78.015L352.79,81.586L347.969,78.015ZM346.732,79.685L341.91,76.114L346.732,79.685ZM344.264,83.228L339.25,79.933L344.264,83.228ZM341.802,86.973L346.816,90.269L341.802,86.973ZM338.955,90.79L334.341,86.954L338.955,90.79ZM337.338,92.735L332.724,88.899L337.338,92.735ZM335.721,94.679L340.334,98.515L335.721,94.679ZM331.718,97.09L332.868,102.978L331.718,97.09ZM329.332,97.556L328.182,91.667L329.332,97.556ZM326.946,98.022L328.096,103.91L326.946,98.022ZM322.212,98.384L322.478,92.39L322.212,98.384ZM319.864,98.28L319.599,104.274L319.864,98.28ZM317.517,98.175L317.783,92.181L317.517,98.175ZM312.919,98.07L312.921,92.07L312.919,98.07ZM310.669,98.07L310.667,104.07L310.669,98.07ZM308.419,98.069L308.417,104.069L308.419,98.069ZM303.919,97.583L305.183,91.718L303.919,97.583ZM301.669,97.098L302.933,91.233L301.669,97.098ZM299.419,96.613L298.155,102.479L299.419,96.613ZM294.919,95.926L295.457,89.95L294.919,95.926ZM292.669,95.723L293.207,89.747L292.669,95.723ZM290.419,95.52L289.88,101.496L290.419,95.52ZM285.919,94.887L287.044,88.994L285.919,94.887ZM283.669,94.457L282.543,100.351L283.669,94.457ZM281.419,94.028L282.544,88.134L281.419,94.028ZM276.919,94.949L280.007,100.093L276.919,94.949ZM274.669,96.3L277.757,101.444L274.669,96.3ZM272.419,97.65L269.33,92.506L272.419,97.65ZM267.919,98.682L267.075,104.622L267.919,98.682ZM265.669,98.362L266.512,92.422L265.669,98.362ZM263.419,98.043L262.575,103.983L263.419,98.043ZM256.669,98.248L257.363,104.207L256.669,98.248ZM254.419,98.51L253.725,92.55L254.419,98.51ZM249.919,98.296L251.16,92.426L249.919,98.296ZM247.669,97.82L248.91,91.95L247.669,97.82ZM245.419,97.345L246.66,91.474L245.419,97.345ZM240.919,97.029L241.345,103.014L240.919,97.029ZM236.419,97.35L235.992,91.365L236.419,97.35ZM231.919,96.822L230.164,102.56L231.919,96.822ZM229.669,96.134L231.424,90.396L229.669,96.134ZM227.419,95.446L225.664,101.183L227.419,95.446ZM222.919,95.493L224.783,101.196L222.919,95.493ZM220.669,96.228L218.805,90.525L220.669,96.228ZM218.419,96.964L216.555,91.26L218.419,96.964ZM213.919,97.283L215.01,91.383L213.919,97.283ZM211.669,96.867L212.76,90.967L211.669,96.867ZM209.419,96.451L208.328,102.35L209.419,96.451ZM204.919,95.787L204.263,101.751L204.919,95.787ZM200.419,95.293L201.074,89.329L200.419,95.293ZM195.919,94.594L194.737,100.476L195.919,94.594ZM193.669,94.142L192.487,100.024L193.669,94.142ZM191.419,93.69L192.6,87.807L191.419,93.69ZM186.919,94.598L190.021,99.733L186.919,94.598ZM184.669,95.957L181.566,90.821L184.669,95.957ZM182.419,97.316L179.316,92.181L182.419,97.316ZM177.919,98.882L178.468,104.857L177.919,98.882ZM175.669,99.089L175.119,93.115L175.669,99.089ZM173.419,99.296L173.968,105.271L173.419,99.296ZM168.919,99.161L169.822,93.229L168.919,99.161ZM166.669,98.818L167.572,92.886L166.669,98.818ZM164.419,98.475L163.516,104.407L164.419,98.475ZM159.919,97.205L162.205,91.658L159.919,97.205ZM155.419,95.35L153.132,100.897L155.419,95.35ZM150.919,94.098L150.062,100.036L150.919,94.098ZM148.669,93.773L147.812,99.712L148.669,93.773ZM146.419,93.448L147.276,87.51L146.419,93.448ZM141.919,93.145L141.862,87.145L141.919,93.145ZM137.419,93.187L137.475,99.187L137.419,93.187ZM132.919,94.172L130.556,88.657L132.919,94.172ZM128.419,96.1L130.781,101.615L128.419,96.1ZM123.919,97.036L123.992,91.037L123.919,97.036ZM119.419,96.981L119.345,102.98L119.419,96.981ZM114.919,95.894L112.364,101.323L114.919,95.894ZM110.419,93.776L112.974,88.348L110.419,93.776ZM105.919,93.584L103.762,87.986L105.919,93.584ZM103.669,94.451L105.826,100.05L103.669,94.451ZM101.419,95.318L99.262,89.719L101.419,95.318ZM96.919,96.989L98.938,102.639L96.919,96.989ZM94.669,97.793L96.688,103.443L94.669,97.793ZM92.419,98.597L90.4,92.947L92.419,98.597ZM87.919,98.268L90.619,92.909L87.919,98.268ZM85.669,97.134L82.969,102.492L85.669,97.134ZM83.419,96L80.719,101.358L83.419,96ZM78.919,94.609L78.238,100.57L78.919,94.609ZM76.669,94.352L77.35,88.391L76.669,94.352ZM74.419,94.095L73.738,100.056L74.419,94.095ZM69.919,94.084L70.571,100.048L69.919,94.084ZM67.669,94.33L67.016,88.365L67.669,94.33ZM65.419,94.576L64.766,88.611L65.419,94.576ZM60.919,95.171L59.998,89.243L60.919,95.171ZM56.419,95.871L57.34,101.8L56.419,95.871ZM51.957,95.665L53.42,89.846L51.957,95.665ZM47.535,94.553L46.073,100.372L47.535,94.553ZM42.92,94.541L44.242,100.393L42.92,94.541ZM38.112,95.627L36.79,89.775L38.112,95.627ZM33.955,94.517L29.839,98.884L33.955,94.517ZM32.2,92.864L28.085,97.23L32.2,92.864ZM30.446,91.211L34.562,86.845L30.446,91.211ZM27.138,88.038L22.944,92.329L27.138,88.038ZM25.583,86.519L29.777,82.228L25.583,86.519ZM24.028,84.999L19.835,89.29L24.028,84.999ZM20.044,82.562L17.924,88.175L20.044,82.562ZM15.186,80.726L17.306,75.114L15.186,80.726ZM11.55,77.704L6.344,80.687L11.55,77.704ZM10.344,75.599L5.138,78.583L10.344,75.599ZM9.138,73.495L14.344,70.511L9.138,73.495ZM7.24,45.593L1.294,44.792L7.24,45.593ZM9.065,41.408L4.391,37.646L9.065,41.408ZM12.094,37.645L7.419,33.883L12.094,37.645ZM14.769,31.442L8.975,29.885L14.769,31.442ZM18.684,20.228L13.112,18.002L18.684,20.228ZM34.768,11.089L32.313,5.614L34.768,11.089ZM41.424,8.336L39.208,2.76L41.424,8.336ZM43.691,7.435L45.907,13.011L43.691,7.435ZM46.594,7.401L51.433,3.853L46.594,7.401ZM47.865,9.134L52.703,5.586L47.865,9.134ZM53,11.482L51.123,17.181L53.373,17.922L55.25,12.223L57.127,6.524L54.877,5.783L53,11.482ZM55.25,12.223L53.373,17.922C56.448,18.934 59.561,18.634 62.378,17.261L59.75,11.868L57.122,6.474C57.044,6.512 57.001,6.525 56.991,6.528C56.985,6.529 56.987,6.529 56.994,6.527C57.001,6.526 57.013,6.524 57.028,6.523C57.043,6.522 57.059,6.521 57.076,6.522C57.093,6.522 57.108,6.523 57.12,6.525C57.133,6.526 57.14,6.528 57.142,6.529C57.144,6.529 57.139,6.528 57.127,6.524L55.25,12.223ZM59.75,11.868L62.378,17.261L64.628,16.165L62,10.771L59.372,5.377L57.122,6.474L59.75,11.868ZM62,10.771L64.628,16.165L66.878,15.069L61.622,4.281L59.372,5.377L62,10.771ZM61.622,4.281L66.878,15.069C66.951,15.033 66.988,15.023 66.992,15.022C66.994,15.021 66.972,15.027 66.933,15.03C66.893,15.033 66.854,15.031 66.822,15.027C66.791,15.023 66.784,15.018 66.806,15.026L68.75,9.35L70.694,3.673C67.608,2.616 64.466,2.896 61.622,4.281ZM68.75,9.35L66.806,15.026L69.056,15.797L71,10.12L72.944,4.444L70.694,3.673L68.75,9.35ZM71,10.12L69.056,15.797L71.306,16.567L73.25,10.891L75.194,5.215L72.944,4.444L71,10.12ZM73.25,10.891L71.306,16.567C73.861,17.442 76.53,17.587 79.176,16.939L77.75,11.111L76.324,5.283C75.97,5.37 75.639,5.367 75.194,5.215L73.25,10.891ZM77.75,11.111L79.176,16.939L81.426,16.389L80,10.561L78.574,4.733L76.324,5.283L77.75,11.111ZM80,10.561L81.426,16.389L83.676,15.839L82.25,10.011L80.824,4.182L78.574,4.733L80,10.561ZM82.25,10.011L83.676,15.839C84.072,15.742 84.439,15.746 84.904,15.897L86.75,10.188L88.596,4.479C86.061,3.659 83.429,3.545 80.824,4.182L82.25,10.011ZM86.75,10.188L84.904,15.897L87.154,16.624L89,10.915L90.846,5.207L88.596,4.479L86.75,10.188ZM89,10.915L87.154,16.624L89.404,17.352L91.25,11.643L93.096,5.934L90.846,5.207L89,10.915ZM91.25,11.643L89.404,17.352C92.886,18.478 96.26,17.736 99.043,15.909L95.75,10.894L92.457,5.878C92.281,5.994 92.306,5.936 92.514,5.901C92.615,5.884 92.728,5.878 92.844,5.888C92.959,5.897 93.046,5.918 93.096,5.934L91.25,11.643ZM95.75,10.894L99.043,15.909L101.293,14.432L98,9.417L94.707,4.401L92.457,5.878L95.75,10.894ZM98,9.417L101.293,14.432L103.543,12.955L100.25,7.939L96.957,2.924L94.707,4.401L98,9.417ZM100.25,7.939L103.543,12.955C103.521,12.97 103.164,13.185 102.553,13.191C101.938,13.196 101.564,12.984 101.52,12.956L104.75,7.9L107.98,2.844C106.436,1.857 104.562,1.173 102.447,1.191C100.336,1.21 98.479,1.925 96.957,2.924L100.25,7.939ZM104.75,7.9L101.52,12.956L103.77,14.394L107,9.337L110.23,4.281L107.98,2.844L104.75,7.9ZM107,9.337L103.77,14.394L106.02,15.831L109.25,10.775L112.48,5.719L110.23,4.281L107,9.337ZM109.25,10.775L106.02,15.831C108.775,17.592 112.079,18.308 115.496,17.268L113.75,11.528L112.004,5.788C112.045,5.775 112.118,5.758 112.215,5.751C112.313,5.745 112.408,5.75 112.49,5.764C112.661,5.793 112.664,5.836 112.48,5.719L109.25,10.775ZM113.75,11.528L115.496,17.268L117.746,16.583L116,10.843L114.254,5.103L112.004,5.788L113.75,11.528ZM116,10.843L117.746,16.583L119.996,15.899L118.25,10.159L116.504,4.418L114.254,5.103L116,10.843ZM118.25,10.159L119.996,15.899C121.106,15.561 122.188,15.355 123.247,15.267L122.253,3.308C120.312,3.469 118.394,3.843 116.504,4.418L118.25,10.159ZM122.253,3.308L123.247,15.267L125.497,15.08L125,9.1L124.503,3.121L122.253,3.308ZM125,9.1L125.497,15.08L127.747,14.893L127.25,8.914L126.753,2.934L124.503,3.121L125,9.1ZM127.25,8.914L127.747,14.893C128.225,14.853 128.774,14.917 129.465,15.201L131.75,9.654L134.035,4.106C131.726,3.154 129.275,2.725 126.753,2.934L127.25,8.914ZM131.75,9.654L129.465,15.201L131.715,16.128L134,10.581L136.285,5.033L134.035,4.106L131.75,9.654ZM134,10.581L131.715,16.128L133.965,17.055L136.25,11.508L138.535,5.96L136.285,5.033L134,10.581ZM136.25,11.508L133.965,17.055C137.08,18.339 140.351,18.2 143.34,16.77L140.75,11.358L138.16,5.946C138.112,5.968 138.106,5.966 138.137,5.958C138.17,5.95 138.227,5.939 138.3,5.937C138.374,5.934 138.44,5.941 138.491,5.951C138.541,5.96 138.557,5.969 138.535,5.96L136.25,11.508ZM140.75,11.358L143.34,16.77L145.59,15.693L143,10.281L140.41,4.869L138.16,5.946L140.75,11.358ZM143,10.281L145.59,15.693L147.84,14.616L145.25,9.204L142.66,3.792L140.41,4.869L143,10.281ZM145.25,9.204L147.84,14.616C148.37,14.362 148.667,14.365 148.87,14.395L149.75,8.46L150.63,2.525C147.833,2.11 145.13,2.609 142.66,3.792L145.25,9.204ZM149.75,8.46L148.87,14.395L151.12,14.729L152,8.794L152.88,2.859L150.63,2.525L149.75,8.46ZM152,8.794L151.12,14.729L153.37,15.063L154.25,9.127L155.13,3.192L152.88,2.859L152,8.794ZM154.25,9.127L153.37,15.063C154.599,15.245 155.839,15.514 157.09,15.874L158.75,10.109L160.41,4.343C158.661,3.839 156.901,3.455 155.13,3.192L154.25,9.127ZM158.75,10.109L157.09,15.874L159.34,16.522L161,10.756L162.66,4.99L160.41,4.343L158.75,10.109ZM161,10.756L159.34,16.522L161.59,17.17L163.25,11.404L164.91,5.638L162.66,4.99L161,10.756ZM163.25,11.404L161.59,17.17C164.517,18.012 167.462,17.744 170.179,16.542L167.75,11.055L165.321,5.569C165.137,5.65 165.049,5.657 165.037,5.658C165.026,5.659 165.016,5.659 165.003,5.658C164.989,5.656 164.959,5.652 164.91,5.638L163.25,11.404ZM167.75,11.055L170.179,16.542L172.429,15.545L170,10.059L167.571,4.573L165.321,5.569L167.75,11.055ZM170,10.059L172.429,15.545L174.679,14.549L169.821,3.576L167.571,4.573L170,10.059ZM169.821,3.576L174.679,14.549C174.862,14.468 174.949,14.461 174.96,14.46C174.97,14.46 174.98,14.46 174.993,14.461C175.006,14.462 175.035,14.467 175.085,14.481L176.75,8.717L178.415,2.952C175.488,2.106 172.54,2.373 169.821,3.576ZM176.75,8.717L175.085,14.481L177.335,15.131L179,9.367L180.665,3.602L178.415,2.952L176.75,8.717ZM179,9.367L177.335,15.131L179.585,15.781L181.25,10.017L182.915,4.252L180.665,3.602L179,9.367ZM181.25,10.017L179.585,15.781C181.107,16.221 182.629,16.651 184.151,17.072L185.75,11.289L187.349,5.506C185.871,5.097 184.393,4.679 182.915,4.252L181.25,10.017ZM185.75,11.289L184.151,17.072L186.401,17.694L188,11.911L189.599,6.128L187.349,5.506L185.75,11.289ZM188,11.911L186.401,17.694L188.651,18.316L190.25,12.533L191.849,6.75L189.599,6.128L188,11.911ZM190.25,12.533L188.651,18.316C190.7,18.882 192.789,19.149 194.902,19.096L194.75,13.098L194.598,7.1C193.711,7.122 192.8,7.013 191.849,6.75L190.25,12.533ZM194.75,13.098L194.902,19.096L197.152,19.039L197,13.041L196.848,7.043L194.598,7.1L194.75,13.098ZM197,13.041L197.152,19.039L199.402,18.982L199.25,12.984L199.098,6.986L196.848,7.043L197,13.041ZM199.25,12.984L199.402,18.982C201.292,18.934 203.171,18.703 205.035,18.295L203.75,12.434L202.465,6.573C201.329,6.822 200.208,6.958 199.098,6.986L199.25,12.984ZM203.75,12.434L205.035,18.295L207.285,17.802L206,11.941L204.715,6.08L202.465,6.573L203.75,12.434ZM206,11.941L207.285,17.802L209.535,17.309L208.25,11.448L206.965,5.587L204.715,6.08L206,11.941ZM208.25,11.448L209.535,17.309C210.542,17.088 211.525,17.003 212.497,17.044L212.75,11.05L213.003,5.055C210.975,4.969 208.958,5.15 206.965,5.587L208.25,11.448ZM212.75,11.05L212.497,17.044L214.747,17.139L215,11.145L215.253,5.15L213.003,5.055L212.75,11.05ZM215,11.145L214.747,17.139L216.997,17.234L217.25,11.24L217.503,5.245L215.253,5.15L215,11.145ZM217.25,11.24L216.997,17.234C219.303,17.332 221.563,16.969 223.74,16.204L221.75,10.544L219.76,4.883C218.937,5.173 218.197,5.274 217.503,5.245L217.25,11.24ZM221.75,10.544L223.74,16.204L225.99,15.413L222.01,4.092L219.76,4.883L221.75,10.544ZM222.01,4.092L225.99,15.413L228.24,14.622L226.25,8.962L224.26,3.301L222.01,4.092ZM226.25,8.962L228.24,14.622C228.213,14.632 228.15,14.65 228.056,14.661C227.96,14.672 227.86,14.672 227.766,14.66C227.567,14.635 227.526,14.58 227.671,14.666L230.75,9.516L233.829,4.367C230.971,2.658 227.622,2.12 224.26,3.301L226.25,8.962ZM230.75,9.516L227.671,14.666L229.921,16.011L233,10.862L236.079,5.712L233.829,4.367L230.75,9.516ZM233,10.862L229.921,16.011L232.171,17.357L235.25,12.207L238.329,7.058L236.079,5.712L233,10.862ZM235.25,12.207L232.171,17.357C233.781,18.32 235.713,18.929 237.852,18.804C239.965,18.679 241.781,17.867 243.242,16.822L239.75,11.943L236.258,7.063C236.219,7.091 236.535,6.86 237.148,6.824C237.787,6.787 238.219,6.992 238.329,7.058L235.25,12.207ZM239.75,11.943L243.242,16.822L245.492,15.212L242,10.332L238.508,5.453L236.258,7.063L239.75,11.943ZM242,10.332L245.492,15.212L247.742,13.602L240.758,3.843L238.508,5.453L242,10.332ZM240.758,3.843L247.742,13.602C248.037,13.39 248.181,13.35 248.174,13.352C248.17,13.353 248.14,13.361 248.091,13.365C248.041,13.369 247.991,13.367 247.949,13.361L248.75,7.415L249.551,1.469C246.22,1.02 243.214,2.085 240.758,3.843ZM248.75,7.415L247.949,13.361L250.199,13.665L251,7.718L251.801,1.772L249.551,1.469L248.75,7.415ZM251,7.718L250.199,13.665L252.449,13.967L254.051,2.075L251.801,1.772L251,7.718ZM254.051,2.075L252.449,13.967C253.194,14.068 254.037,14.322 254.996,14.817L257.75,9.487L260.504,4.156C258.463,3.102 256.306,2.379 254.051,2.075ZM257.75,9.487L254.996,14.817L257.246,15.98L260,10.649L262.754,5.318L260.504,4.156L257.75,9.487ZM260,10.649L257.246,15.98L259.496,17.142L262.25,11.811L265.004,6.481L262.754,5.318L260,10.649ZM262.25,11.811L259.496,17.142C263.076,18.991 266.889,18.586 270.057,16.493L266.75,11.487L263.443,6.481C263.384,6.52 263.609,6.36 264.069,6.327C264.551,6.292 264.896,6.425 265.004,6.481L262.25,11.811ZM266.75,11.487L270.057,16.493L272.307,15.007L269,10.001L265.693,4.994L263.443,6.481L266.75,11.487ZM269,10.001L272.307,15.007L274.557,13.52L271.25,8.514L267.943,3.508L265.693,4.994L269,10.001ZM271.25,8.514L274.557,13.52C274.755,13.39 274.764,13.429 274.597,13.46C274.517,13.475 274.421,13.483 274.318,13.478C274.216,13.473 274.136,13.456 274.087,13.442L275.75,7.677L277.413,1.912C273.96,0.916 270.661,1.712 267.943,3.508L271.25,8.514ZM275.75,7.677L274.087,13.442L276.337,14.091L279.663,2.561L277.413,1.912L275.75,7.677ZM279.663,2.561L276.337,14.091L278.587,14.74L280.25,8.975L281.913,3.211L279.663,2.561ZM280.25,8.975L278.587,14.74C281.075,15.458 283.635,15.523 286.16,14.913L284.75,9.081L283.34,3.249C282.865,3.364 282.425,3.358 281.913,3.211L280.25,8.975ZM284.75,9.081L286.16,14.913L288.41,14.369L285.59,2.705L283.34,3.249L284.75,9.081ZM285.59,2.705L288.41,14.369L290.66,13.825L289.25,7.993L287.84,2.161L285.59,2.705ZM289.25,7.993L290.66,13.825C291.702,13.573 292.719,13.455 293.721,13.46L293.779,1.46C291.781,1.451 289.798,1.688 287.84,2.161L289.25,7.993ZM293.779,1.46L293.721,13.46L295.971,13.471L296.029,1.471L293.779,1.46ZM296.029,1.471L295.971,13.471L298.221,13.482L298.279,1.482L296.029,1.471ZM298.279,1.482L298.221,13.482C299.774,13.49 301.327,13.477 302.88,13.443L302.75,7.445L302.62,1.446C301.173,1.477 299.726,1.489 298.279,1.482ZM302.75,7.445L302.88,13.443L305.13,13.394L304.87,1.397L302.62,1.446L302.75,7.445ZM304.87,1.397L305.13,13.394L307.38,13.346L307.25,7.347L307.12,1.348L304.87,1.397ZM307.25,7.347L307.38,13.346C309.032,13.31 310.682,13.211 312.332,13.051L311.75,7.079L311.168,1.107C309.818,1.239 308.468,1.319 307.12,1.348L307.25,7.347ZM311.75,7.079L312.332,13.051L314.582,12.832L314,6.86L313.418,0.888L311.168,1.107L311.75,7.079ZM314,6.86L314.582,12.832L316.832,12.612L316.25,6.641L315.668,0.669L313.418,0.888L314,6.86ZM316.25,6.641L316.832,12.612C316.825,12.613 316.809,12.614 316.789,12.612C316.769,12.61 316.761,12.607 316.77,12.609C316.785,12.614 316.92,12.656 317.176,12.838L320.646,7.943L324.116,3.048C321.712,1.344 318.835,0.36 315.668,0.669L316.25,6.641ZM320.646,7.943L317.176,12.838L319.322,14.359L322.792,9.464L326.262,4.569L324.116,3.048L320.646,7.943ZM322.792,9.464L319.322,14.359L321.468,15.88L324.938,10.986L328.408,6.091L326.262,4.569L322.792,9.464ZM324.938,10.986L321.468,15.88C323.47,17.3 325.696,18.35 328.132,18.818L329.264,12.926L330.395,7.033C329.926,6.943 329.268,6.7 328.408,6.091L324.938,10.986ZM329.264,12.926L328.132,18.818L330.311,19.236L331.443,13.344L332.574,7.452L330.395,7.033L329.264,12.926ZM331.443,13.344L330.311,19.236L332.491,19.655L333.622,13.762L334.753,7.87L332.574,7.452L331.443,13.344ZM333.622,13.762L332.491,19.655C332.541,19.665 332.569,19.674 332.58,19.678C332.59,19.682 332.593,19.684 332.594,19.684C332.594,19.684 332.602,19.689 332.618,19.702C332.634,19.716 332.666,19.745 332.711,19.798L337.269,15.896L341.828,11.995C339.982,9.838 337.566,8.41 334.753,7.87L333.622,13.762ZM337.269,15.896L332.711,19.798L334.179,21.513L338.738,17.612L343.296,13.71L341.828,11.995L337.269,15.896ZM338.738,17.612L334.179,21.513L335.648,23.229L344.764,15.426L343.296,13.71L338.738,17.612ZM344.764,15.426L335.648,23.229C337.519,25.415 339.943,26.79 342.598,27.505L344.159,21.712L345.719,15.918C345.062,15.741 344.851,15.527 344.764,15.426ZM344.159,21.712L342.598,27.505L345.083,28.175L346.644,22.381L348.204,16.588L345.719,15.918L344.159,21.712ZM346.644,22.381L345.083,28.175L347.568,28.844L349.128,23.051L350.689,17.257L348.204,16.588L346.644,22.381ZM349.128,23.051L347.568,28.844C347.472,28.818 346.891,28.626 346.355,27.962C345.816,27.296 345.747,26.679 345.741,26.561L357.727,25.992C357.641,24.169 357.096,22.163 355.689,20.421C354.284,18.682 352.441,17.729 350.689,17.257L349.128,23.051ZM357.727,25.992L345.741,26.561L345.862,29.117L351.855,28.832L357.849,28.548L357.727,25.992ZM351.855,28.832L345.862,29.117L345.984,31.673L357.97,31.104L357.849,28.548L351.855,28.832ZM357.97,31.104L345.984,31.673C346.152,35.233 347.827,38.226 350.551,40.337L357.903,30.853C357.834,30.8 357.814,30.774 357.822,30.783C357.831,30.794 357.859,30.829 357.891,30.889C357.923,30.948 357.945,31.009 357.959,31.06C357.973,31.11 357.971,31.128 357.97,31.104ZM357.903,30.853L350.551,40.337L352.679,41.987L356.355,37.245L360.032,32.504L357.903,30.853ZM356.355,37.245L352.679,41.987L354.808,43.638L358.484,38.896L362.16,34.154L360.032,32.504L356.355,37.245ZM358.484,38.896L354.808,43.638C354.898,43.707 354.687,43.568 354.505,43.154C354.308,42.708 354.303,42.304 354.331,42.108L360.271,42.951L366.212,43.794C366.78,39.79 365.057,36.4 362.16,34.154L358.484,38.896ZM360.271,42.951L354.331,42.108L353.989,44.512L359.93,45.356L365.87,46.199L366.212,43.794L360.271,42.951ZM359.93,45.356L353.989,44.512L353.648,46.917L359.588,47.761L365.529,48.604L365.87,46.199L359.93,45.356ZM359.588,47.761L353.648,46.917C353.453,48.291 353.187,49.591 352.855,50.821L358.647,52.386L364.439,53.951C364.907,52.221 365.269,50.437 365.529,48.604L359.588,47.761ZM358.647,52.386L352.855,50.821L352.255,53.041L358.047,54.606L363.84,56.171L364.439,53.951L358.647,52.386ZM358.047,54.606L352.255,53.041L351.655,55.261L357.447,56.826L363.24,58.391L363.84,56.171L358.047,54.606ZM357.447,56.826L351.655,55.261C351.047,57.511 350.897,59.816 351.186,62.128L357.14,61.385L363.093,60.642C362.993,59.835 363.048,59.1 363.24,58.391L357.447,56.826ZM357.14,61.385L351.186,62.128L351.478,64.467L357.432,63.724L363.385,62.981L363.093,60.642L357.14,61.385ZM357.432,63.724L351.478,64.467L351.77,66.807L357.724,66.063L363.677,65.32L363.385,62.981L357.432,63.724ZM357.724,66.063L351.77,66.807C351.755,66.684 351.749,66.346 351.917,65.935C351.994,65.747 352.086,65.599 352.167,65.493C352.245,65.39 352.299,65.346 352.295,65.35L359.949,74.592C362.709,72.306 364.139,69.016 363.677,65.32L357.724,66.063ZM359.949,74.592L352.295,65.35L350.402,66.918L358.056,76.159L359.949,74.592ZM358.056,76.159L350.402,66.918L348.509,68.486L356.163,77.728L358.056,76.159ZM356.163,77.728L348.509,68.486C346.94,69.785 345.543,71.208 344.384,72.774L349.206,76.345L354.027,79.916C354.517,79.254 355.208,78.519 356.163,77.728ZM349.206,76.345L344.384,72.774L343.147,74.444L347.969,78.015L352.79,81.586L354.027,79.916L349.206,76.345ZM347.969,78.015L343.147,74.444L341.91,76.114L346.732,79.685L351.553,83.256L352.79,81.586L347.969,78.015ZM346.732,79.685L341.91,76.114C341.014,77.324 340.127,78.598 339.25,79.933L349.278,86.523C350.042,85.361 350.8,84.273 351.553,83.256L346.732,79.685ZM349.278,86.523L339.25,79.933L338.019,81.805L343.033,85.101L348.047,88.396L349.278,86.523ZM343.033,85.101L338.019,81.805L336.788,83.678L346.816,90.269L348.047,88.396L343.033,85.101ZM346.816,90.269L336.788,83.678C336.106,84.717 335.294,85.809 334.341,86.954L338.955,90.79L343.568,94.626C344.772,93.179 345.858,91.727 346.816,90.269ZM338.955,90.79L334.341,86.954L332.724,88.899L337.338,92.735L341.951,96.571L343.568,94.626L338.955,90.79ZM337.338,92.735L332.724,88.899L331.108,90.843L340.334,98.515L341.951,96.571L337.338,92.735ZM340.334,98.515L331.108,90.843C330.875,91.123 330.744,91.167 330.568,91.201L331.718,97.09L332.868,102.978C335.873,102.391 338.411,100.828 340.334,98.515ZM331.718,97.09L330.568,91.201L328.182,91.667L329.332,97.556L330.482,103.444L332.868,102.978L331.718,97.09ZM329.332,97.556L328.182,91.667L325.796,92.133L326.946,98.022L328.096,103.91L330.482,103.444L329.332,97.556ZM326.946,98.022L325.796,92.133C324.655,92.356 323.553,92.437 322.478,92.39L322.212,98.384L321.946,104.378C324.002,104.469 326.056,104.309 328.096,103.91L326.946,98.022ZM322.212,98.384L322.478,92.39L320.13,92.285L319.864,98.28L319.599,104.274L321.946,104.378L322.212,98.384ZM319.864,98.28L320.13,92.285L317.783,92.181L317.517,98.175L317.251,104.169L319.599,104.274L319.864,98.28ZM317.517,98.175L317.783,92.181C316.133,92.108 314.513,92.071 312.921,92.07L312.917,104.07C314.325,104.071 315.769,104.104 317.251,104.169L317.517,98.175ZM312.917,104.07L312.921,92.07L310.671,92.07L310.667,104.07L312.917,104.07ZM310.667,104.07L310.671,92.07L308.421,92.069L308.417,104.069L310.667,104.07ZM308.417,104.069L308.421,92.069C307.355,92.068 306.278,91.954 305.183,91.718L303.919,97.583L302.655,103.448C304.56,103.859 306.483,104.068 308.417,104.069ZM303.919,97.583L305.183,91.718L302.933,91.233L301.669,97.098L300.405,102.964L302.655,103.448L303.919,97.583ZM301.669,97.098L302.933,91.233L300.683,90.748L299.419,96.613L298.155,102.479L300.405,102.964L301.669,97.098ZM299.419,96.613L300.683,90.748C298.948,90.374 297.206,90.107 295.457,89.95L294.919,95.926L294.38,101.901C295.632,102.014 296.889,102.206 298.155,102.479L299.419,96.613ZM294.919,95.926L295.457,89.95L293.207,89.747L292.669,95.723L292.13,101.699L294.38,101.901L294.919,95.926ZM292.669,95.723L293.207,89.747L290.957,89.544L290.419,95.52L289.88,101.496L292.13,101.699L292.669,95.723ZM290.419,95.52L290.957,89.544C289.657,89.427 288.353,89.244 287.044,88.994L285.919,94.887L284.793,100.781C286.484,101.104 288.18,101.342 289.88,101.496L290.419,95.52ZM285.919,94.887L287.044,88.994L284.794,88.564L283.669,94.457L282.543,100.351L284.793,100.781L285.919,94.887ZM283.669,94.457L284.794,88.564L282.544,88.134L281.419,94.028L280.293,99.921L282.543,100.351L283.669,94.457ZM281.419,94.028L282.544,88.134C279.385,87.531 276.398,88.263 273.83,89.805L276.919,94.949L280.007,100.093C280.133,100.017 280.225,99.974 280.284,99.951C280.342,99.927 280.37,99.921 280.372,99.921C280.372,99.921 280.358,99.924 280.335,99.924C280.324,99.924 280.314,99.924 280.306,99.923C280.302,99.922 280.299,99.922 280.296,99.922C280.295,99.921 280.294,99.921 280.294,99.921C280.294,99.921 280.293,99.921 280.293,99.921L281.419,94.028ZM276.919,94.949L273.83,89.805L271.58,91.155L274.669,96.3L277.757,101.444L280.007,100.093L276.919,94.949ZM274.669,96.3L271.58,91.155L269.33,92.506L272.419,97.65L275.507,102.794L277.757,101.444L274.669,96.3ZM272.419,97.65L269.33,92.506C269.049,92.675 268.884,92.722 268.828,92.735C268.783,92.746 268.773,92.743 268.762,92.741L267.919,98.682L267.075,104.622C270.145,105.058 273.019,104.288 275.507,102.794L272.419,97.65ZM267.919,98.682L268.762,92.741L266.512,92.422L265.669,98.362L264.825,104.303L267.075,104.622L267.919,98.682ZM265.669,98.362L266.512,92.422L264.262,92.102L263.419,98.043L262.575,103.983L264.825,104.303L265.669,98.362ZM263.419,98.043L264.262,92.102C262.254,91.817 260.237,91.791 258.225,92.026L258.919,97.985L259.613,103.945C260.6,103.83 261.583,103.842 262.575,103.983L263.419,98.043ZM258.919,97.985L258.225,92.026L255.975,92.288L256.669,98.248L257.363,104.207L259.613,103.945L258.919,97.985ZM256.669,98.248L255.975,92.288L253.725,92.55L254.419,98.51L255.113,104.469L257.363,104.207L256.669,98.248ZM254.419,98.51L253.725,92.55C252.88,92.648 252.034,92.61 251.16,92.426L249.919,98.296L248.678,104.166C250.804,104.616 252.957,104.72 255.113,104.469L254.419,98.51ZM249.919,98.296L251.16,92.426L248.91,91.95L247.669,97.82L246.428,103.691L248.678,104.166L249.919,98.296ZM247.669,97.82L248.91,91.95L246.66,91.474L244.178,103.215L246.428,103.691L247.669,97.82ZM244.178,103.215L246.66,91.474C244.623,91.044 242.562,90.897 240.492,91.045L240.919,97.029L241.345,103.014C242.276,102.948 243.215,103.011 244.178,103.215ZM240.919,97.029L240.492,91.045L238.242,91.205L238.669,97.19L239.095,103.175L241.345,103.014L240.919,97.029ZM238.669,97.19L238.242,91.205L235.992,91.365L236.419,97.35L236.845,103.335L239.095,103.175L238.669,97.19ZM236.419,97.35L235.992,91.365C235.26,91.418 234.499,91.337 233.674,91.085L231.919,96.822L230.164,102.56C232.339,103.225 234.578,103.497 236.845,103.335L236.419,97.35ZM231.919,96.822L233.674,91.085L231.424,90.396L229.669,96.134L227.914,101.872L230.164,102.56L231.919,96.822ZM229.669,96.134L231.424,90.396L229.174,89.708L227.419,95.446L225.664,101.183L227.914,101.872L229.669,96.134ZM227.419,95.446L229.174,89.708C226.485,88.886 223.721,88.918 221.055,89.79L222.919,95.493L224.783,101.196C225.116,101.087 225.352,101.088 225.664,101.183L227.419,95.446ZM222.919,95.493L221.055,89.79L218.805,90.525L220.669,96.228L222.533,101.931L224.783,101.196L222.919,95.493ZM220.669,96.228L218.805,90.525L216.555,91.26L218.419,96.964L220.283,102.667L222.533,101.931L220.669,96.228ZM218.419,96.964L216.555,91.26C215.974,91.45 215.489,91.471 215.01,91.383L213.919,97.283L212.828,103.183C215.348,103.649 217.864,103.457 220.283,102.667L218.419,96.964ZM213.919,97.283L215.01,91.383L212.76,90.967L211.669,96.867L210.578,102.767L212.828,103.183L213.919,97.283ZM211.669,96.867L212.76,90.967L210.51,90.551L209.419,96.451L208.328,102.35L210.578,102.767L211.669,96.867ZM209.419,96.451L210.51,90.551C208.867,90.247 207.222,90.004 205.574,89.823L204.919,95.787L204.263,101.751C205.616,101.9 206.97,102.099 208.328,102.35L209.419,96.451ZM204.919,95.787L205.574,89.823L203.324,89.576L202.669,95.54L202.013,101.504L204.263,101.751L204.919,95.787ZM202.669,95.54L203.324,89.576L201.074,89.329L200.419,95.293L199.763,101.257L202.013,101.504L202.669,95.54ZM200.419,95.293L201.074,89.329C199.753,89.183 198.428,88.978 197.1,88.711L195.919,94.594L194.737,100.476C196.409,100.812 198.084,101.072 199.763,101.257L200.419,95.293ZM195.919,94.594L197.1,88.711L194.85,88.259L193.669,94.142L192.487,100.024L194.737,100.476L195.919,94.594ZM193.669,94.142L194.85,88.259L192.6,87.807L191.419,93.69L190.237,99.573L192.487,100.024L193.669,94.142ZM191.419,93.69L192.6,87.807C189.415,87.168 186.4,87.901 183.816,89.462L186.919,94.598L190.021,99.733C190.265,99.586 190.372,99.569 190.355,99.573C190.348,99.574 190.327,99.577 190.296,99.577C190.266,99.577 190.244,99.574 190.237,99.573L191.419,93.69ZM186.919,94.598L183.816,89.462L181.566,90.821L184.669,95.957L187.771,101.092L190.021,99.733L186.919,94.598ZM184.669,95.957L181.566,90.821L179.316,92.181L182.419,97.316L185.521,102.452L187.771,101.092L184.669,95.957ZM182.419,97.316L179.316,92.181C178.466,92.694 177.829,92.865 177.369,92.908L177.919,98.882L178.468,104.857C181.008,104.624 183.371,103.751 185.521,102.452L182.419,97.316ZM177.919,98.882L177.369,92.908L175.119,93.115L175.669,99.089L176.218,105.064L178.468,104.857L177.919,98.882ZM175.669,99.089L175.119,93.115L172.869,93.321L173.419,99.296L173.968,105.271L176.218,105.064L175.669,99.089ZM173.419,99.296L172.869,93.321C171.857,93.415 170.845,93.385 169.822,93.229L168.919,99.161L168.016,105.092C169.993,105.393 171.98,105.454 173.968,105.271L173.419,99.296ZM168.919,99.161L169.822,93.229L167.572,92.886L166.669,98.818L165.766,104.75L168.016,105.092L168.919,99.161ZM166.669,98.818L167.572,92.886L165.322,92.544L164.419,98.475L163.516,104.407L165.766,104.75L166.669,98.818ZM164.419,98.475L165.322,92.544C164.328,92.392 163.292,92.106 162.205,91.658L159.919,97.205L157.632,102.752C159.546,103.541 161.509,104.101 163.516,104.407L164.419,98.475ZM159.919,97.205L162.205,91.658L159.955,90.731L157.669,96.278L155.382,101.825L157.632,102.752L159.919,97.205ZM157.669,96.278L159.955,90.731L157.705,89.803L155.419,95.35L153.132,100.897L155.382,101.825L157.669,96.278ZM155.419,95.35L157.705,89.803C155.779,89.009 153.8,88.452 151.776,88.159L150.919,94.098L150.062,100.036C151.037,100.177 152.058,100.455 153.132,100.897L155.419,95.35ZM150.919,94.098L151.776,88.159L149.526,87.835L148.669,93.773L147.812,99.712L150.062,100.036L150.919,94.098ZM148.669,93.773L149.526,87.835L147.276,87.51L146.419,93.448L145.562,99.387L147.812,99.712L148.669,93.773ZM146.419,93.448L147.276,87.51C145.476,87.25 143.671,87.128 141.862,87.145L141.919,93.145L141.975,99.144C143.166,99.133 144.361,99.213 145.562,99.387L146.419,93.448ZM141.919,93.145L141.862,87.145L139.612,87.166L139.669,93.166L139.725,99.166L141.975,99.144L141.919,93.145ZM139.669,93.166L139.612,87.166L137.362,87.187L137.419,93.187L137.475,99.187L139.725,99.166L139.669,93.166ZM137.419,93.187L137.362,87.187C135.002,87.21 132.721,87.73 130.556,88.657L132.919,94.172L135.281,99.687C136.117,99.33 136.836,99.193 137.475,99.187L137.419,93.187ZM132.919,94.172L130.556,88.657L128.306,89.621L130.669,95.136L133.031,100.651L135.281,99.687L132.919,94.172ZM130.669,95.136L128.306,89.621L126.056,90.585L128.419,96.1L130.781,101.615L133.031,100.651L130.669,95.136ZM128.419,96.1L126.056,90.585C125.257,90.927 124.584,91.044 123.992,91.037L123.919,97.036L123.845,103.036C126.253,103.065 128.58,102.558 130.781,101.615L128.419,96.1ZM123.919,97.036L123.992,91.037L121.742,91.009L121.669,97.008L121.595,103.008L123.845,103.036L123.919,97.036ZM121.669,97.008L121.742,91.009L119.492,90.981L119.419,96.981L119.345,102.98L121.595,103.008L121.669,97.008ZM119.419,96.981L119.492,90.981C118.937,90.974 118.279,90.845 117.474,90.465L112.364,101.323C114.558,102.356 116.9,102.95 119.345,102.98L119.419,96.981ZM112.364,101.323L117.474,90.465L115.224,89.406L112.669,94.835L110.114,100.264L112.364,101.323ZM112.669,94.835L115.224,89.406L112.974,88.348L110.419,93.776L107.864,99.205L110.114,100.264L112.669,94.835ZM110.419,93.776L112.974,88.348C110.044,86.969 106.843,86.798 103.762,87.986L105.919,93.584L108.076,99.183C108.101,99.173 108.094,99.179 108.057,99.185C108.019,99.192 107.968,99.196 107.913,99.193C107.858,99.191 107.819,99.183 107.802,99.179C107.787,99.175 107.807,99.178 107.864,99.205L110.419,93.776ZM105.919,93.584L103.762,87.986L101.512,88.852L105.826,100.05L108.076,99.183L105.919,93.584ZM105.826,100.05L101.512,88.852L99.262,89.719L101.419,95.318L103.576,100.917L105.826,100.05ZM101.419,95.318L99.262,89.719C97.807,90.28 96.353,90.82 94.9,91.339L98.938,102.639C100.484,102.086 102.03,101.512 103.576,100.917L101.419,95.318ZM98.938,102.639L94.9,91.339L92.65,92.143L94.669,97.793L96.688,103.443L98.938,102.639ZM94.669,97.793L92.65,92.143L90.4,92.947L92.419,98.597L94.438,104.247L96.688,103.443L94.669,97.793ZM92.419,98.597L90.4,92.947C90.386,92.952 90.404,92.944 90.45,92.938C90.496,92.931 90.551,92.929 90.607,92.933C90.662,92.937 90.698,92.946 90.707,92.949C90.715,92.951 90.687,92.944 90.619,92.909L87.919,98.268L85.219,103.626C88.096,105.076 91.299,105.369 94.438,104.247L92.419,98.597ZM87.919,98.268L90.619,92.909L88.369,91.776L85.669,97.134L82.969,102.492L85.219,103.626L87.919,98.268ZM85.669,97.134L88.369,91.776L86.119,90.642L83.419,96L80.719,101.358L82.969,102.492L85.669,97.134ZM83.419,96L86.119,90.642C84.057,89.603 81.878,88.908 79.6,88.648L78.919,94.609L78.238,100.57C78.96,100.653 79.78,100.885 80.719,101.358L83.419,96ZM78.919,94.609L79.6,88.648L77.35,88.391L76.669,94.352L75.988,100.313L78.238,100.57L78.919,94.609ZM76.669,94.352L77.35,88.391L75.1,88.134L73.738,100.056L75.988,100.313L76.669,94.352ZM73.738,100.056L75.1,88.134C73.157,87.912 71.21,87.907 69.266,88.119L69.919,94.084L70.571,100.048C71.628,99.933 72.68,99.935 73.738,100.056ZM69.919,94.084L69.266,88.119L67.016,88.365L67.669,94.33L68.321,100.294L70.571,100.048L69.919,94.084ZM67.669,94.33L67.016,88.365L64.766,88.611L65.419,94.576L66.071,100.54L68.321,100.294L67.669,94.33ZM65.419,94.576L64.766,88.611C63.176,88.785 61.586,88.996 59.998,89.243L60.919,95.171L61.84,101.1C63.251,100.881 64.661,100.694 66.071,100.54L65.419,94.576ZM60.919,95.171L59.998,89.243L57.748,89.592L58.669,95.521L59.59,101.45L61.84,101.1L60.919,95.171ZM58.669,95.521L57.748,89.592L55.498,89.942L56.419,95.871L57.34,101.8L59.59,101.45L58.669,95.521ZM56.419,95.871L55.498,89.942C54.792,90.051 54.116,90.021 53.42,89.846L51.957,95.665L50.495,101.484C52.747,102.05 55.045,102.156 57.34,101.8L56.419,95.871ZM51.957,95.665L53.42,89.846L51.208,89.29L49.746,95.109L48.284,100.928L50.495,101.484L51.957,95.665ZM49.746,95.109L51.208,89.29L48.997,88.734L47.535,94.553L46.073,100.372L48.284,100.928L49.746,95.109ZM47.535,94.553L48.997,88.734C46.538,88.116 44.042,88.136 41.597,88.689L42.92,94.541L44.242,100.393C45.003,100.222 45.584,100.25 46.073,100.372L47.535,94.553ZM42.92,94.541L41.597,88.689L39.193,89.232L40.516,95.084L41.839,100.937L44.242,100.393L42.92,94.541ZM40.516,95.084L39.193,89.232L36.79,89.775L38.112,95.627L39.435,101.48L41.839,100.937L40.516,95.084ZM38.112,95.627L36.79,89.775C36.785,89.776 36.848,89.761 36.967,89.762C37.089,89.762 37.245,89.778 37.419,89.825C37.798,89.926 38.019,90.103 38.07,90.151L29.839,98.884C32.5,101.391 35.938,102.27 39.435,101.48L38.112,95.627ZM29.839,98.884L38.07,90.151L36.316,88.498L28.085,97.23L29.839,98.884ZM28.085,97.23L36.316,88.498L34.562,86.845L26.331,95.577L28.085,97.23ZM26.331,95.577L34.562,86.845C33.416,85.765 32.339,84.732 31.331,83.747L27.138,88.038L22.944,92.329C24.009,93.37 25.138,94.453 26.331,95.577ZM27.138,88.038L31.331,83.747L29.777,82.228L25.583,86.519L21.389,90.81L22.944,92.329L27.138,88.038ZM25.583,86.519L29.777,82.228L28.222,80.708L24.028,84.999L19.835,89.29L21.389,90.81L25.583,86.519ZM24.028,84.999L28.222,80.708C26.49,79.015 24.411,77.798 22.165,76.949L20.044,82.562L17.924,88.175C18.917,88.55 19.494,88.958 19.835,89.29L24.028,84.999ZM20.044,82.562L22.165,76.949L19.735,76.031L17.615,81.644L15.494,87.257L17.924,88.175L20.044,82.562ZM17.615,81.644L19.735,76.031L17.306,75.114L13.065,86.339L15.494,87.257L17.615,81.644ZM13.065,86.339L17.306,75.114C16.89,74.956 16.817,74.827 16.756,74.721L11.55,77.704L6.344,80.687C7.891,83.387 10.242,85.272 13.065,86.339ZM11.55,77.704L16.756,74.721L15.55,72.616L10.344,75.599L5.138,78.583L6.344,80.687L11.55,77.704ZM10.344,75.599L15.55,72.616L14.344,70.511L9.138,73.495L3.932,76.478L5.138,78.583L10.344,75.599ZM9.138,73.495L14.344,70.511C14.017,69.941 13.849,69.363 13.819,68.698L7.825,68.962L1.831,69.225C1.944,71.799 2.651,74.242 3.932,76.478L9.138,73.495ZM7.825,68.962L13.819,68.698L13.713,66.27L7.718,66.533L1.724,66.797L1.831,69.225L7.825,68.962ZM7.718,66.533L13.713,66.27L13.606,63.841L7.612,64.105L1.617,64.368L1.724,66.797L7.718,66.533ZM7.612,64.105L13.606,63.841C13.528,62.06 13.378,60.315 13.156,58.608L7.206,59.383L1.256,60.158C1.432,61.509 1.553,62.912 1.617,64.368L7.612,64.105ZM7.206,59.383L13.156,58.608L12.857,56.315L6.907,57.09L0.958,57.865L1.256,60.158L7.206,59.383ZM6.907,57.09L12.857,56.315L12.558,54.021L6.609,54.796L0.659,55.572L0.958,57.865L6.907,57.09ZM6.609,54.796L12.558,54.021C12.428,53.018 12.43,52.016 12.566,51.001L6.62,50.2L0.674,49.399C0.397,51.455 0.391,53.517 0.659,55.572L6.609,54.796ZM6.62,50.2L12.566,51.001L12.877,48.697L6.93,47.897L0.984,47.096L0.674,49.399L6.62,50.2ZM6.93,47.897L12.877,48.697L13.187,46.394L7.24,45.593L1.294,44.792L0.984,47.096L6.93,47.897ZM7.24,45.593L13.187,46.394C13.242,45.987 13.387,45.607 13.739,45.17L9.065,41.408L4.391,37.646C2.723,39.718 1.653,42.129 1.294,44.792L7.24,45.593ZM9.065,41.408L13.739,45.17L15.254,43.289L10.579,39.527L5.905,35.765L4.391,37.646L9.065,41.408ZM10.579,39.527L15.254,43.289L16.768,41.407L12.094,37.645L7.419,33.883L5.905,35.765L10.579,39.527ZM12.094,37.645L16.768,41.407C18.258,39.556 19.363,37.468 19.983,35.16L14.189,33.603L8.394,32.046C8.24,32.619 7.949,33.226 7.419,33.883L12.094,37.645ZM14.189,33.603L19.983,35.16L20.564,32.999L14.769,31.442L8.975,29.885L8.394,32.046L14.189,33.603ZM14.769,31.442L20.564,32.999L21.144,30.839L15.35,29.281L9.555,27.724L8.975,29.885L14.769,31.442ZM15.35,29.281L21.144,30.839C21.464,29.648 21.887,28.385 22.42,27.049L16.848,24.823L11.277,22.597C10.586,24.325 10.01,26.034 9.555,27.724L15.35,29.281ZM16.848,24.823L22.42,27.049L23.338,24.752L12.195,20.3L11.277,22.597L16.848,24.823ZM12.195,20.3L23.338,24.752L24.256,22.454L18.684,20.228L13.112,18.002L12.195,20.3ZM18.684,20.228L24.256,22.454C24.283,22.386 24.302,22.356 24.305,22.351C24.306,22.349 24.305,22.351 24.3,22.357C24.296,22.363 24.289,22.371 24.28,22.38C24.272,22.389 24.263,22.398 24.254,22.405C24.245,22.413 24.238,22.418 24.234,22.421C24.226,22.427 24.237,22.418 24.279,22.398L19.326,11.468C16.411,12.789 14.284,15.07 13.112,18.002L18.684,20.228ZM19.326,11.468L24.279,22.398L26.48,21.401L21.527,10.471L19.326,11.468ZM21.527,10.471L26.48,21.401L28.68,20.404L26.204,14.939L23.728,9.474L21.527,10.471ZM26.204,14.939L28.68,20.404C30.14,19.743 31.574,19.096 32.98,18.466L30.526,12.991L28.071,7.516C26.65,8.153 25.202,8.806 23.728,9.474L26.204,14.939ZM30.526,12.991L32.98,18.466L35.101,17.515L32.647,12.04L30.192,6.565L28.071,7.516L30.526,12.991ZM32.647,12.04L35.101,17.515L37.222,16.564L34.768,11.089L32.313,5.614L30.192,6.565L32.647,12.04ZM34.768,11.089L37.222,16.564C38.553,15.967 39.937,15.384 41.372,14.813L39.156,9.237L36.941,3.662C35.353,4.293 33.81,4.943 32.313,5.614L34.768,11.089ZM39.156,9.237L41.372,14.813L43.639,13.912L41.424,8.336L39.208,2.76L36.941,3.662L39.156,9.237ZM41.424,8.336L43.639,13.912L45.907,13.011L43.691,7.435L41.476,1.859L39.208,2.76L41.424,8.336ZM43.691,7.435L45.907,13.011C46.381,12.823 46.207,12.969 45.622,12.976C45.286,12.98 44.66,12.939 43.913,12.636C43.111,12.309 42.339,11.744 41.756,10.949L46.594,7.401L51.433,3.853C49.699,1.488 47.16,0.957 45.479,0.977C43.927,0.995 42.514,1.447 41.476,1.859L43.691,7.435ZM46.594,7.401L41.756,10.949L42.391,11.815L47.229,8.267L52.068,4.719L51.433,3.853L46.594,7.401ZM47.229,8.267L42.391,11.815L43.026,12.682L47.865,9.134L52.703,5.586L52.068,4.719L47.229,8.267ZM47.865,9.134L43.026,12.682C43.948,13.939 45.114,14.726 45.984,15.21C46.906,15.724 47.903,16.121 48.873,16.44L50.75,10.741L52.627,5.042C52.374,4.959 52.182,4.886 52.041,4.827C51.899,4.768 51.832,4.732 51.824,4.727C51.812,4.72 51.899,4.767 52.042,4.882C52.183,4.996 52.436,5.222 52.703,5.586L47.865,9.134ZM50.75,10.741L48.873,16.44L51.123,17.181L53,11.482L54.877,5.783L52.627,5.042L50.75,10.741Z" style="fill:rgb(255,172,62);fill-rule:nonzero;"/>
</svg>
