<svg width="100%"
     height="100%"
     viewBox="0 0 369 236"
     version="1.1"
     xmlns="http://www.w3.org/2000/svg"
     xmlns:xlink="http://www.w3.org/1999/xlink"
     xml:space="preserve"
     xmlns:serif="http://www.serif.com/"
     style="fill-rule:evenodd;clip-rule:evenodd;stroke-linejoin:round;stroke-miterlimit:2;"
     preserveAspectRatio="none">
  <path d="M9.5,50C9.5,27.909 27.409,10 49.5,10L319.5,10C341.591,10 359.5,27.909 359.5,50L359.5,186C359.5,208.091 341.591,226 319.5,226L49.5,226C27.409,226 9.5,208.091 9.5,186L9.5,50Z"
        style="fill:rgb(255,172,62);fill-rule:nonzero;" />
  <path d="M54,11.482L55.877,5.783L54,11.482ZM56.25,12.223L54.373,17.922L56.25,12.223ZM60.75,11.868L63.378,17.261L60.75,11.868ZM63,10.771L60.372,5.377L63,10.771ZM65.25,9.675L62.622,4.281L65.25,9.675ZM69.75,9.35L67.806,15.026L69.75,9.35ZM78.75,11.111L77.324,5.283L78.75,11.111ZM83.25,10.011L81.824,4.182L83.25,10.011ZM96.75,10.894L100.043,15.909L96.75,10.894ZM101.25,7.939L97.957,2.924L101.25,7.939ZM114.75,11.528L116.496,17.268L114.75,11.528ZM119.25,10.159L117.504,4.418L119.25,10.159ZM123.75,9.287L123.253,3.308L123.75,9.287ZM126,9.1L125.503,3.121L126,9.1ZM128.25,8.914L128.747,14.893L128.25,8.914ZM132.75,9.654L130.465,15.201L132.75,9.654ZM135,10.581L137.285,5.033L135,10.581ZM137.25,11.508L134.965,17.055L137.25,11.508ZM141.75,11.358L144.34,16.77L141.75,11.358ZM144,10.281L141.41,4.869L144,10.281ZM146.25,9.204L148.84,14.616L146.25,9.204ZM150.75,8.46L149.87,14.395L150.75,8.46ZM155.25,9.127L156.13,3.192L155.25,9.127ZM159.75,10.109L158.09,15.874L159.75,10.109ZM164.25,11.404L165.91,5.638L164.25,11.404ZM168.75,11.055L166.321,5.569L168.75,11.055ZM171,10.059L173.429,15.545L171,10.059ZM173.25,9.063L170.821,3.576L173.25,9.063ZM177.75,8.717L179.415,2.952L177.75,8.717ZM180,9.367L178.335,15.131L180,9.367ZM182.25,10.017L183.915,4.252L182.25,10.017ZM186.75,11.289L185.151,17.072L186.75,11.289ZM191.25,12.533L192.849,6.75L191.25,12.533ZM195.75,13.098L195.598,7.1L195.75,13.098ZM204.75,12.434L206.035,18.295L204.75,12.434ZM209.25,11.448L207.965,5.587L209.25,11.448ZM218.25,11.24L217.997,17.234L218.25,11.24ZM222.75,10.544L220.76,4.883L222.75,10.544ZM227.25,8.962L229.24,14.622L227.25,8.962ZM231.75,9.516L234.829,4.367L231.75,9.516ZM236.25,12.207L233.171,17.357L236.25,12.207ZM240.75,11.943L244.242,16.822L240.75,11.943ZM245.25,8.722L241.758,3.843L245.25,8.722ZM249.75,7.415L250.551,1.469L249.75,7.415ZM254.25,8.021L253.449,13.967L254.25,8.021ZM258.75,9.487L255.996,14.817L258.75,9.487ZM263.25,11.811L266.004,6.481L263.25,11.811ZM267.75,11.487L264.443,6.481L267.75,11.487ZM272.25,8.514L275.557,13.52L272.25,8.514ZM281.25,8.975L282.913,3.211L281.25,8.975ZM285.75,9.081L284.34,3.249L285.75,9.081ZM288,8.537L289.41,14.369L288,8.537ZM290.25,7.993L291.66,13.825L290.25,7.993ZM294.75,7.46L294.721,13.46L294.75,7.46ZM303.75,7.445L303.62,1.446L303.75,7.445ZM312.75,7.079L313.332,13.051L312.75,7.079ZM317.25,6.641L316.668,0.669L317.25,6.641ZM321.646,7.943L318.176,12.838L321.646,7.943ZM323.792,9.464L327.262,4.569L323.792,9.464ZM325.938,10.986L322.468,15.88L325.938,10.986ZM330.264,12.926L331.395,7.033L330.264,12.926ZM334.622,13.762L333.491,19.655L334.622,13.762ZM338.269,15.896L342.828,11.995L338.269,15.896ZM339.738,17.612L335.179,21.513L339.738,17.612ZM341.206,19.327L336.648,23.229L341.206,19.327ZM345.159,21.712L343.598,27.505L345.159,21.712ZM350.128,23.051L348.568,28.844L350.128,23.051ZM352.734,26.276L358.727,25.992L352.734,26.276ZM352.855,28.832L346.862,29.117L352.855,28.832ZM352.977,31.389L346.984,31.673L352.977,31.389ZM355.227,35.595L358.903,30.853L355.227,35.595ZM357.355,37.245L353.679,41.987L357.355,37.245ZM359.484,38.896L363.16,34.154L359.484,38.896ZM361.271,42.951L355.331,42.108L361.271,42.951ZM360.588,47.761L366.529,48.604L360.588,47.761ZM359.677,52.416L353.861,50.942L359.677,52.416ZM358.537,56.916L352.72,55.442L358.537,56.916ZM358.701,61.416L352.998,63.278L358.701,61.416ZM359.436,63.666L365.14,61.803L359.436,63.666ZM359.803,70.416L365.19,73.056L359.803,70.416ZM358.7,72.666L364.088,75.306L358.7,72.666ZM357.597,74.916L362.985,77.556L357.597,74.916ZM356.505,79.416L350.505,79.443L356.505,79.416ZM356.525,83.916L362.525,83.888L356.525,83.916ZM357.168,88.416L362.944,86.79L357.168,88.416ZM357.802,90.666L363.577,89.04L357.802,90.666ZM358.435,92.916L352.66,94.542L358.435,92.916ZM360.053,97.416L365.55,95.01L360.053,97.416ZM362.022,101.916L356.525,104.321L362.022,101.916ZM362.858,106.416L368.845,106.811L362.858,106.416ZM362.561,110.916L356.574,110.521L362.561,110.916ZM362.202,115.416L368.176,115.974L362.202,115.416ZM361.782,119.916L355.808,119.357L361.782,119.916ZM361.57,124.416L355.57,124.414L361.57,124.416ZM361.569,128.916L367.569,128.918L361.569,128.916ZM361.083,133.416L355.218,132.152L361.083,133.416ZM360.113,137.916L365.979,139.18L360.113,137.916ZM359.223,144.666L365.198,145.204L359.223,144.666ZM359.02,146.916L353.044,146.377L359.02,146.916ZM358.387,151.416L352.494,150.29L358.387,151.416ZM357.528,155.916L351.634,154.79L357.528,155.916ZM358.449,160.416L363.593,157.327L358.449,160.416ZM359.799,162.666L354.655,165.754L359.799,162.666ZM361.15,164.916L366.294,161.827L361.15,164.916ZM362.182,169.416L356.241,168.572L362.182,169.416ZM361.862,171.666L355.922,170.822L361.862,171.666ZM361.543,173.916L367.483,174.759L361.543,173.916ZM361.485,178.416L367.445,177.722L361.485,178.416ZM361.747,180.666L355.788,181.36L361.747,180.666ZM362.01,182.916L367.969,182.222L362.01,182.916ZM361.586,187.446L355.84,185.718L361.586,187.446ZM360.9,189.726L366.646,191.454L360.9,189.726ZM360.214,192.006L365.96,193.734L360.214,192.006ZM358.96,196.534L364.777,198.005L358.96,196.534ZM357.823,201.029L352.006,199.558L357.823,201.029ZM355.506,204.853L351.489,200.397L355.506,204.853ZM352.009,208.006L356.026,212.463L352.009,208.006ZM349.219,211.716L343.827,209.086L349.219,211.716ZM347.139,215.982L352.531,218.613L347.139,215.982ZM343.953,219.027L341.607,213.505L343.953,219.027ZM341.808,219.938L344.153,225.461L341.808,219.938ZM339.662,220.849L342.008,226.372L339.662,220.849ZM335.35,222.3L336.8,228.122L335.35,222.3ZM331.017,223.379L329.567,217.557L331.017,223.379ZM326.669,223.747L326.199,229.729L326.669,223.747ZM324.488,223.576L324.018,229.557L324.488,223.576ZM322.307,223.404L322.777,217.423L322.307,223.404ZM317.887,224.594L321.002,229.721L317.887,224.594ZM313.408,227.315L310.292,222.187L313.408,227.315ZM308.919,228.882L308.369,222.908L308.919,228.882ZM306.669,229.089L306.119,223.115L306.669,229.089ZM304.419,229.296L304.968,235.271L304.419,229.296ZM299.919,229.161L300.822,223.229L299.919,229.161ZM297.669,228.818L296.766,234.75L297.669,228.818ZM295.419,228.475L294.516,234.407L295.419,228.475ZM290.919,227.205L293.205,221.658L290.919,227.205ZM288.669,226.278L286.382,231.825L288.669,226.278ZM286.419,225.35L288.705,219.803L286.419,225.35ZM281.919,224.098L281.062,230.036L281.919,224.098ZM279.669,223.773L280.526,217.835L279.669,223.773ZM270.669,223.166L270.725,229.166L270.669,223.166ZM268.419,223.187L268.362,217.187L268.419,223.187ZM263.919,224.172L266.281,229.687L263.919,224.172ZM259.419,226.1L257.056,220.585L259.419,226.1ZM245.919,225.894L243.364,231.323L245.919,225.894ZM243.669,224.835L246.224,219.406L243.669,224.835ZM241.419,223.776L243.974,218.348L241.419,223.776ZM236.919,223.584L234.762,217.985L236.919,223.584ZM234.669,224.451L236.826,230.05L234.669,224.451ZM232.419,225.318L230.262,219.719L232.419,225.318ZM227.919,226.989L229.938,232.639L227.919,226.989ZM223.419,228.597L221.4,222.947L223.419,228.597ZM218.919,228.268L221.619,222.909L218.919,228.268ZM216.669,227.134L219.369,221.776L216.669,227.134ZM214.419,226L211.719,231.358L214.419,226ZM209.919,224.609L209.238,230.57L209.919,224.609ZM207.669,224.352L208.35,218.391L207.669,224.352ZM205.419,224.095L206.1,218.134L205.419,224.095ZM198.669,224.33L198.016,218.365L198.669,224.33ZM196.419,224.576L197.071,230.54L196.419,224.576ZM191.919,225.172L192.84,231.1L191.919,225.172ZM189.669,225.521L188.747,219.592L189.669,225.521ZM182.919,225.697L181.56,231.541L182.919,225.697ZM178.419,224.651L179.777,218.807L178.419,224.651ZM173.919,225.133L171.472,219.654L173.919,225.133ZM169.419,227.142L171.865,232.621L169.419,227.142ZM164.919,227.351L166.921,221.695L164.919,227.351ZM162.669,226.554L164.671,220.898L162.669,226.554ZM160.419,225.757L158.416,231.413L160.419,225.757ZM155.919,224.683L156.655,218.728L155.919,224.683ZM151.419,224.127L152.155,218.172L151.419,224.127ZM146.919,225.122L149.874,230.344L146.919,225.122ZM144.669,226.396L147.624,231.617L144.669,226.396ZM142.419,227.669L139.463,222.448L142.419,227.669ZM137.919,229.052L138.209,235.045L137.919,229.052ZM133.419,229.269L133.709,235.262L133.419,229.269ZM128.919,228.879L130.218,223.022L128.919,228.879ZM124.419,227.881L123.119,233.738L124.419,227.881ZM119.919,227.584L119.382,221.608L119.919,227.584ZM115.419,227.988L115.956,233.964L115.419,227.988ZM110.919,228.015L111.384,222.033L110.919,228.015ZM106.419,227.665L106.884,221.683L106.419,227.665ZM101.919,226.536L99.577,232.06L101.919,226.536ZM97.419,224.628L99.76,219.104L97.419,224.628ZM92.919,224.205L91.54,218.366L92.919,224.205ZM90.669,224.737L92.047,230.576L90.669,224.737ZM88.419,225.268L87.04,219.428L88.419,225.268ZM83.919,226.641L81.815,221.022L83.919,226.641ZM79.419,228.326L77.315,222.707L79.419,228.326ZM74.919,228.694L73.682,234.566L74.919,228.694ZM70.419,227.747L71.656,221.875L70.419,227.747ZM65.919,227.331L65.762,221.333L65.919,227.331ZM61.419,227.449L61.576,233.447L61.419,227.449ZM56.919,228.016L58.239,233.868L56.919,228.016ZM54.669,228.523L53.348,222.67L54.669,228.523ZM52.419,229.031L53.739,234.884L52.419,229.031ZM47.907,228.562L45.528,234.07L47.907,228.562ZM43.385,226.608L45.764,221.1L43.385,226.608ZM39.341,224.105L43.242,219.547L39.341,224.105ZM37.558,222.58L33.657,227.138L37.558,222.58ZM35.775,221.054L39.677,216.495L35.775,221.054ZM31.823,218.965L30.316,224.773L31.823,218.965ZM29.654,218.402L31.161,212.595L29.654,218.402ZM27.484,217.839L25.977,223.647L27.484,217.839ZM24.277,215.274L18.95,218.035L24.277,215.274ZM22.201,211.27L27.529,208.509L22.201,211.27ZM18.599,208.262L16.41,213.849L18.599,208.262ZM13.469,206.253L15.658,200.666L13.469,206.253ZM10.077,202.973L15.715,200.921L10.077,202.973ZM8.42,198.422L14.059,196.37L8.42,198.422ZM8.495,193.731L14.115,195.832L8.495,193.731ZM10.3,188.9L4.68,186.8L10.3,188.9ZM9.958,184.239L15.205,181.329L9.958,184.239ZM7.468,179.748L2.22,182.658L7.468,179.748ZM6.62,175.253L0.712,174.209L6.62,175.253ZM7.415,170.753L13.324,171.797L7.415,170.753ZM7.944,166.253L1.954,165.904L7.944,166.253ZM8.075,164.003L14.065,164.352L8.075,164.003ZM8.206,161.753L2.216,161.404L8.206,161.753ZM9.374,157.253L14.823,159.765L9.374,157.253ZM10.412,155.003L4.963,152.491L10.412,155.003ZM11.449,152.753L16.898,155.265L11.449,152.753ZM11.411,148.253L16.824,145.666L11.411,148.253ZM10.336,146.003L4.922,148.59L10.336,146.003ZM9.26,143.753L14.674,141.166L9.26,143.753ZM8.986,139.253L3.334,137.241L8.986,139.253ZM9.787,137.003L4.135,134.991L9.787,137.003ZM10.588,134.753L16.241,136.765L10.588,134.753ZM10.359,130.253L15.815,127.756L10.359,130.253ZM8.3,125.753L2.844,128.25L8.3,125.753ZM9.959,119.003L15.109,122.081L9.959,119.003ZM11.304,116.753L6.153,113.675L11.304,116.753ZM11.627,112.253L6.163,114.733L11.627,112.253ZM10.606,110.003L16.07,107.523L10.606,110.003ZM9.576,103.253L4.103,100.792L9.576,103.253ZM11.599,98.753L17.071,101.214L11.599,98.753ZM11.251,94.253L16.386,91.149L11.251,94.253ZM8.531,89.753L3.396,92.857L8.531,89.753ZM6.984,85.253L1.005,85.749L6.984,85.253ZM6.797,83.003L0.818,83.499L6.797,83.003ZM7.222,76.253L12.877,78.259L7.222,76.253ZM8.02,74.003L2.365,71.997L8.02,74.003ZM10.172,67.253L4.347,65.814L10.172,67.253ZM11.834,58.253L5.834,58.267L11.834,58.253ZM11.351,49.251L5.476,50.474L11.351,49.251ZM11.402,38.233L5.724,36.292L11.402,38.233ZM13.912,31.973L8.604,29.175L13.912,31.973ZM14.964,29.977L9.656,27.179L14.964,29.977ZM16.016,27.981L10.709,25.183L16.016,27.981ZM21.397,24.116L19.02,18.608L21.397,24.116ZM23.562,23.183L25.939,28.691L23.562,23.183ZM33.709,15.3L36.039,20.83L33.709,15.3ZM35.694,14.464L33.364,8.935L35.694,14.464ZM45.999,9.589L43.292,4.235L45.999,9.589ZM48.458,8.891L52.83,4.782L48.458,8.891ZM49.153,9.63L44.781,13.74L49.153,9.63ZM54,11.482L52.123,17.181L54.373,17.922L56.25,12.223L58.127,6.524L55.877,5.783L54,11.482ZM56.25,12.223L54.373,17.922C57.448,18.934 60.561,18.634 63.378,17.261L60.75,11.868L58.122,6.474C58.044,6.512 58.001,6.525 57.991,6.528C57.985,6.529 57.987,6.529 57.994,6.527C58.001,6.526 58.013,6.524 58.028,6.523C58.043,6.522 58.059,6.521 58.076,6.522C58.093,6.522 58.108,6.523 58.12,6.525C58.133,6.526 58.14,6.528 58.142,6.529C58.144,6.529 58.139,6.528 58.127,6.524L56.25,12.223ZM60.75,11.868L63.378,17.261L65.628,16.165L63,10.771L60.372,5.377L58.122,6.474L60.75,11.868ZM63,10.771L65.628,16.165L67.878,15.069L62.622,4.281L60.372,5.377L63,10.771ZM62.622,4.281L67.878,15.069C67.951,15.033 67.988,15.023 67.992,15.022C67.994,15.021 67.972,15.027 67.933,15.03C67.893,15.033 67.854,15.031 67.822,15.027C67.791,15.023 67.784,15.018 67.806,15.026L69.75,9.35L71.694,3.673C68.608,2.616 65.466,2.896 62.622,4.281ZM69.75,9.35L67.806,15.026L70.056,15.797L72,10.12L73.944,4.444L71.694,3.673L69.75,9.35ZM72,10.12L70.056,15.797L72.306,16.567L74.25,10.891L76.194,5.215L73.944,4.444L72,10.12ZM74.25,10.891L72.306,16.567C74.861,17.442 77.53,17.587 80.176,16.939L78.75,11.111L77.324,5.283C76.97,5.37 76.639,5.367 76.194,5.215L74.25,10.891ZM78.75,11.111L80.176,16.939L82.426,16.389L81,10.561L79.574,4.733L77.324,5.283L78.75,11.111ZM81,10.561L82.426,16.389L84.676,15.839L83.25,10.011L81.824,4.182L79.574,4.733L81,10.561ZM83.25,10.011L84.676,15.839C85.072,15.742 85.439,15.746 85.904,15.897L87.75,10.188L89.596,4.479C87.061,3.659 84.429,3.545 81.824,4.182L83.25,10.011ZM87.75,10.188L85.904,15.897L88.154,16.624L90,10.915L91.846,5.207L89.596,4.479L87.75,10.188ZM90,10.915L88.154,16.624L90.404,17.352L92.25,11.643L94.096,5.934L91.846,5.207L90,10.915ZM92.25,11.643L90.404,17.352C93.886,18.478 97.26,17.736 100.043,15.909L96.75,10.894L93.457,5.878C93.281,5.994 93.306,5.936 93.514,5.901C93.615,5.884 93.728,5.878 93.844,5.888C93.959,5.897 94.046,5.918 94.096,5.934L92.25,11.643ZM96.75,10.894L100.043,15.909L102.293,14.432L99,9.417L95.707,4.401L93.457,5.878L96.75,10.894ZM99,9.417L102.293,14.432L104.543,12.955L101.25,7.939L97.957,2.924L95.707,4.401L99,9.417ZM101.25,7.939L104.543,12.955C104.521,12.97 104.164,13.185 103.553,13.191C102.938,13.196 102.564,12.984 102.52,12.956L105.75,7.9L108.98,2.844C107.436,1.857 105.562,1.173 103.447,1.191C101.336,1.21 99.479,1.925 97.957,2.924L101.25,7.939ZM105.75,7.9L102.52,12.956L104.77,14.394L108,9.337L111.23,4.281L108.98,2.844L105.75,7.9ZM108,9.337L104.77,14.394L107.02,15.831L110.25,10.775L113.48,5.719L111.23,4.281L108,9.337ZM110.25,10.775L107.02,15.831C109.775,17.592 113.079,18.308 116.496,17.268L114.75,11.528L113.004,5.788C113.045,5.775 113.118,5.758 113.215,5.751C113.313,5.745 113.408,5.75 113.49,5.764C113.661,5.793 113.664,5.836 113.48,5.719L110.25,10.775ZM114.75,11.528L116.496,17.268L118.746,16.583L117,10.843L115.254,5.103L113.004,5.788L114.75,11.528ZM117,10.843L118.746,16.583L120.996,15.899L119.25,10.159L117.504,4.418L115.254,5.103L117,10.843ZM119.25,10.159L120.996,15.899C122.106,15.561 123.188,15.355 124.247,15.267L123.253,3.308C121.312,3.469 119.394,3.843 117.504,4.418L119.25,10.159ZM123.253,3.308L124.247,15.267L126.497,15.08L126,9.1L125.503,3.121L123.253,3.308ZM126,9.1L126.497,15.08L128.747,14.893L128.25,8.914L127.753,2.934L125.503,3.121L126,9.1ZM128.25,8.914L128.747,14.893C129.225,14.853 129.774,14.917 130.465,15.201L132.75,9.654L135.035,4.106C132.726,3.154 130.275,2.725 127.753,2.934L128.25,8.914ZM132.75,9.654L130.465,15.201L132.715,16.128L135,10.581L137.285,5.033L135.035,4.106L132.75,9.654ZM135,10.581L132.715,16.128L134.965,17.055L137.25,11.508L139.535,5.96L137.285,5.033L135,10.581ZM137.25,11.508L134.965,17.055C138.08,18.339 141.351,18.2 144.34,16.77L141.75,11.358L139.16,5.946C139.112,5.968 139.106,5.966 139.137,5.958C139.17,5.95 139.227,5.939 139.3,5.937C139.374,5.934 139.44,5.941 139.491,5.951C139.541,5.96 139.557,5.969 139.535,5.96L137.25,11.508ZM141.75,11.358L144.34,16.77L146.59,15.693L144,10.281L141.41,4.869L139.16,5.946L141.75,11.358ZM144,10.281L146.59,15.693L148.84,14.616L146.25,9.204L143.66,3.792L141.41,4.869L144,10.281ZM146.25,9.204L148.84,14.616C149.37,14.362 149.667,14.365 149.87,14.395L150.75,8.46L151.63,2.525C148.833,2.11 146.13,2.609 143.66,3.792L146.25,9.204ZM150.75,8.46L149.87,14.395L152.12,14.729L153,8.794L153.88,2.859L151.63,2.525L150.75,8.46ZM153,8.794L152.12,14.729L154.37,15.063L155.25,9.127L156.13,3.192L153.88,2.859L153,8.794ZM155.25,9.127L154.37,15.063C155.599,15.245 156.839,15.514 158.09,15.874L159.75,10.109L161.41,4.343C159.661,3.839 157.901,3.455 156.13,3.192L155.25,9.127ZM159.75,10.109L158.09,15.874L160.34,16.522L162,10.756L163.66,4.99L161.41,4.343L159.75,10.109ZM162,10.756L160.34,16.522L162.59,17.17L164.25,11.404L165.91,5.638L163.66,4.99L162,10.756ZM164.25,11.404L162.59,17.17C165.517,18.012 168.462,17.744 171.179,16.542L168.75,11.055L166.321,5.569C166.137,5.65 166.049,5.657 166.037,5.658C166.026,5.659 166.016,5.659 166.003,5.658C165.989,5.656 165.959,5.652 165.91,5.638L164.25,11.404ZM168.75,11.055L171.179,16.542L173.429,15.545L171,10.059L168.571,4.573L166.321,5.569L168.75,11.055ZM171,10.059L173.429,15.545L175.679,14.549L170.821,3.576L168.571,4.573L171,10.059ZM170.821,3.576L175.679,14.549C175.862,14.468 175.949,14.461 175.96,14.46C175.97,14.46 175.98,14.46 175.993,14.461C176.006,14.462 176.035,14.467 176.085,14.481L177.75,8.717L179.415,2.952C176.488,2.106 173.54,2.373 170.821,3.576ZM177.75,8.717L176.085,14.481L178.335,15.131L180,9.367L181.665,3.602L179.415,2.952L177.75,8.717ZM180,9.367L178.335,15.131L180.585,15.781L182.25,10.017L183.915,4.252L181.665,3.602L180,9.367ZM182.25,10.017L180.585,15.781C182.107,16.221 183.629,16.651 185.151,17.072L186.75,11.289L188.349,5.506C186.871,5.097 185.393,4.679 183.915,4.252L182.25,10.017ZM186.75,11.289L185.151,17.072L187.401,17.694L189,11.911L190.599,6.128L188.349,5.506L186.75,11.289ZM189,11.911L187.401,17.694L189.651,18.316L191.25,12.533L192.849,6.75L190.599,6.128L189,11.911ZM191.25,12.533L189.651,18.316C191.7,18.882 193.789,19.149 195.902,19.096L195.75,13.098L195.598,7.1C194.711,7.122 193.8,7.013 192.849,6.75L191.25,12.533ZM195.75,13.098L195.902,19.096L198.152,19.039L198,13.041L197.848,7.043L195.598,7.1L195.75,13.098ZM198,13.041L198.152,19.039L200.402,18.982L200.25,12.984L200.098,6.986L197.848,7.043L198,13.041ZM200.25,12.984L200.402,18.982C202.292,18.934 204.171,18.703 206.035,18.295L204.75,12.434L203.465,6.573C202.329,6.822 201.208,6.958 200.098,6.986L200.25,12.984ZM204.75,12.434L206.035,18.295L208.285,17.802L207,11.941L205.715,6.08L203.465,6.573L204.75,12.434ZM207,11.941L208.285,17.802L210.535,17.309L209.25,11.448L207.965,5.587L205.715,6.08L207,11.941ZM209.25,11.448L210.535,17.309C211.542,17.088 212.525,17.003 213.497,17.044L213.75,11.05L214.003,5.055C211.975,4.969 209.958,5.15 207.965,5.587L209.25,11.448ZM213.75,11.05L213.497,17.044L215.747,17.139L216,11.145L216.253,5.15L214.003,5.055L213.75,11.05ZM216,11.145L215.747,17.139L217.997,17.234L218.25,11.24L218.503,5.245L216.253,5.15L216,11.145ZM218.25,11.24L217.997,17.234C220.303,17.332 222.563,16.969 224.74,16.204L222.75,10.544L220.76,4.883C219.937,5.173 219.197,5.274 218.503,5.245L218.25,11.24ZM222.75,10.544L224.74,16.204L226.99,15.413L223.01,4.092L220.76,4.883L222.75,10.544ZM223.01,4.092L226.99,15.413L229.24,14.622L227.25,8.962L225.26,3.301L223.01,4.092ZM227.25,8.962L229.24,14.622C229.213,14.632 229.15,14.65 229.056,14.661C228.96,14.672 228.86,14.672 228.766,14.66C228.567,14.635 228.526,14.58 228.671,14.666L231.75,9.516L234.829,4.367C231.971,2.658 228.622,2.12 225.26,3.301L227.25,8.962ZM231.75,9.516L228.671,14.666L230.921,16.011L234,10.862L237.079,5.712L234.829,4.367L231.75,9.516ZM234,10.862L230.921,16.011L233.171,17.357L236.25,12.207L239.329,7.058L237.079,5.712L234,10.862ZM236.25,12.207L233.171,17.357C234.781,18.32 236.713,18.929 238.852,18.804C240.965,18.679 242.781,17.867 244.242,16.822L240.75,11.943L237.258,7.063C237.219,7.091 237.535,6.86 238.148,6.824C238.787,6.787 239.219,6.992 239.329,7.058L236.25,12.207ZM240.75,11.943L244.242,16.822L246.492,15.212L243,10.332L239.508,5.453L237.258,7.063L240.75,11.943ZM243,10.332L246.492,15.212L248.742,13.602L241.758,3.843L239.508,5.453L243,10.332ZM241.758,3.843L248.742,13.602C249.037,13.39 249.181,13.35 249.174,13.352C249.17,13.353 249.14,13.361 249.091,13.365C249.041,13.369 248.991,13.367 248.949,13.361L249.75,7.415L250.551,1.469C247.22,1.02 244.214,2.085 241.758,3.843ZM249.75,7.415L248.949,13.361L251.199,13.665L252,7.718L252.801,1.772L250.551,1.469L249.75,7.415ZM252,7.718L251.199,13.665L253.449,13.967L255.051,2.075L252.801,1.772L252,7.718ZM255.051,2.075L253.449,13.967C254.194,14.068 255.037,14.322 255.996,14.817L258.75,9.487L261.504,4.156C259.463,3.102 257.306,2.379 255.051,2.075ZM258.75,9.487L255.996,14.817L258.246,15.98L261,10.649L263.754,5.318L261.504,4.156L258.75,9.487ZM261,10.649L258.246,15.98L260.496,17.142L263.25,11.811L266.004,6.481L263.754,5.318L261,10.649ZM263.25,11.811L260.496,17.142C264.076,18.991 267.889,18.586 271.057,16.493L267.75,11.487L264.443,6.481C264.384,6.52 264.609,6.36 265.069,6.327C265.551,6.292 265.896,6.425 266.004,6.481L263.25,11.811ZM267.75,11.487L271.057,16.493L273.307,15.007L270,10.001L266.693,4.994L264.443,6.481L267.75,11.487ZM270,10.001L273.307,15.007L275.557,13.52L272.25,8.514L268.943,3.508L266.693,4.994L270,10.001ZM272.25,8.514L275.557,13.52C275.755,13.39 275.764,13.429 275.597,13.46C275.517,13.475 275.421,13.483 275.318,13.478C275.216,13.473 275.136,13.456 275.087,13.442L276.75,7.677L278.413,1.912C274.96,0.916 271.661,1.712 268.943,3.508L272.25,8.514ZM276.75,7.677L275.087,13.442L277.337,14.091L280.663,2.561L278.413,1.912L276.75,7.677ZM280.663,2.561L277.337,14.091L279.587,14.74L281.25,8.975L282.913,3.211L280.663,2.561ZM281.25,8.975L279.587,14.74C282.075,15.458 284.635,15.523 287.16,14.913L285.75,9.081L284.34,3.249C283.865,3.364 283.425,3.358 282.913,3.211L281.25,8.975ZM285.75,9.081L287.16,14.913L289.41,14.369L286.59,2.705L284.34,3.249L285.75,9.081ZM286.59,2.705L289.41,14.369L291.66,13.825L290.25,7.993L288.84,2.161L286.59,2.705ZM290.25,7.993L291.66,13.825C292.702,13.573 293.719,13.455 294.721,13.46L294.779,1.46C292.781,1.451 290.798,1.688 288.84,2.161L290.25,7.993ZM294.779,1.46L294.721,13.46L296.971,13.471L297.029,1.471L294.779,1.46ZM297.029,1.471L296.971,13.471L299.221,13.482L299.279,1.482L297.029,1.471ZM299.279,1.482L299.221,13.482C300.774,13.49 302.327,13.477 303.88,13.443L303.75,7.445L303.62,1.446C302.173,1.477 300.726,1.489 299.279,1.482ZM303.75,7.445L303.88,13.443L306.13,13.394L305.87,1.397L303.62,1.446L303.75,7.445ZM305.87,1.397L306.13,13.394L308.38,13.346L308.25,7.347L308.12,1.348L305.87,1.397ZM308.25,7.347L308.38,13.346C310.032,13.31 311.682,13.211 313.332,13.051L312.75,7.079L312.168,1.107C310.818,1.239 309.468,1.319 308.12,1.348L308.25,7.347ZM312.75,7.079L313.332,13.051L315.582,12.832L315,6.86L314.418,0.888L312.168,1.107L312.75,7.079ZM315,6.86L315.582,12.832L317.832,12.612L317.25,6.641L316.668,0.669L314.418,0.888L315,6.86ZM317.25,6.641L317.832,12.612C317.825,12.613 317.809,12.614 317.789,12.612C317.769,12.61 317.761,12.607 317.77,12.609C317.785,12.614 317.92,12.656 318.176,12.838L321.646,7.943L325.116,3.048C322.712,1.344 319.835,0.36 316.668,0.669L317.25,6.641ZM321.646,7.943L318.176,12.838L320.322,14.359L323.792,9.464L327.262,4.569L325.116,3.048L321.646,7.943ZM323.792,9.464L320.322,14.359L322.468,15.88L325.938,10.986L329.408,6.091L327.262,4.569L323.792,9.464ZM325.938,10.986L322.468,15.88C324.47,17.3 326.696,18.35 329.132,18.818L330.264,12.926L331.395,7.033C330.926,6.943 330.268,6.7 329.408,6.091L325.938,10.986ZM330.264,12.926L329.132,18.818L331.311,19.236L332.443,13.344L333.574,7.452L331.395,7.033L330.264,12.926ZM332.443,13.344L331.311,19.236L333.491,19.655L334.622,13.762L335.753,7.87L333.574,7.452L332.443,13.344ZM334.622,13.762L333.491,19.655C333.541,19.665 333.569,19.674 333.58,19.678C333.59,19.682 333.593,19.684 333.594,19.684C333.594,19.684 333.602,19.689 333.618,19.702C333.634,19.716 333.666,19.745 333.711,19.798L338.269,15.896L342.828,11.995C340.982,9.838 338.566,8.41 335.753,7.87L334.622,13.762ZM338.269,15.896L333.711,19.798L335.179,21.513L339.738,17.612L344.296,13.71L342.828,11.995L338.269,15.896ZM339.738,17.612L335.179,21.513L336.648,23.229L345.764,15.426L344.296,13.71L339.738,17.612ZM345.764,15.426L336.648,23.229C338.519,25.415 340.943,26.79 343.598,27.505L345.159,21.712L346.719,15.918C346.062,15.741 345.851,15.527 345.764,15.426ZM345.159,21.712L343.598,27.505L346.083,28.175L347.644,22.381L349.204,16.588L346.719,15.918L345.159,21.712ZM347.644,22.381L346.083,28.175L348.568,28.844L350.128,23.051L351.689,17.257L349.204,16.588L347.644,22.381ZM350.128,23.051L348.568,28.844C348.472,28.818 347.891,28.626 347.355,27.962C346.816,27.296 346.747,26.679 346.741,26.561L358.727,25.992C358.641,24.169 358.096,22.163 356.689,20.421C355.284,18.682 353.441,17.729 351.689,17.257L350.128,23.051ZM358.727,25.992L346.741,26.561L346.862,29.117L352.855,28.832L358.849,28.548L358.727,25.992ZM352.855,28.832L346.862,29.117L346.984,31.673L358.97,31.104L358.849,28.548L352.855,28.832ZM358.97,31.104L346.984,31.673C347.152,35.233 348.827,38.226 351.551,40.337L358.903,30.853C358.834,30.8 358.814,30.774 358.822,30.783C358.831,30.794 358.859,30.829 358.891,30.889C358.923,30.948 358.945,31.009 358.959,31.06C358.973,31.11 358.971,31.128 358.97,31.104ZM358.903,30.853L351.551,40.337L353.679,41.987L357.355,37.245L361.032,32.504L358.903,30.853ZM357.355,37.245L353.679,41.987L355.808,43.638L359.484,38.896L363.16,34.154L361.032,32.504L357.355,37.245ZM359.484,38.896L355.808,43.638C355.898,43.707 355.687,43.568 355.505,43.154C355.308,42.708 355.303,42.304 355.331,42.108L361.271,42.951L367.212,43.794C367.78,39.79 366.057,36.4 363.16,34.154L359.484,38.896ZM361.271,42.951L355.331,42.108L354.989,44.512L360.93,45.356L366.87,46.199L367.212,43.794L361.271,42.951ZM360.93,45.356L354.989,44.512L354.648,46.917L360.588,47.761L366.529,48.604L366.87,46.199L360.93,45.356ZM360.588,47.761L354.648,46.917C354.449,48.318 354.186,49.659 353.861,50.942L359.677,52.416L365.493,53.889C365.928,52.172 366.272,50.41 366.529,48.604L360.588,47.761ZM359.677,52.416L353.861,50.942L353.29,53.192L359.107,54.666L364.923,56.139L365.493,53.889L359.677,52.416ZM359.107,54.666L353.29,53.192L352.72,55.442L358.537,56.916L364.353,58.389L364.923,56.139L359.107,54.666ZM358.537,56.916L352.72,55.442C352.056,58.065 352.163,60.722 352.998,63.278L358.701,61.416L364.405,59.553C364.26,59.11 364.257,58.766 364.353,58.389L358.537,56.916ZM358.701,61.416L352.998,63.278L353.732,65.528L359.436,63.666L365.14,61.803L364.405,59.553L358.701,61.416ZM359.436,63.666L353.732,65.528L354.467,67.778L360.171,65.916L365.874,64.053L365.14,61.803L359.436,63.666ZM360.171,65.916L354.467,67.778C354.471,67.79 354.472,67.795 354.471,67.792C354.471,67.79 354.469,67.782 354.468,67.77C354.466,67.757 354.465,67.742 354.465,67.725C354.464,67.708 354.465,67.692 354.466,67.677C354.467,67.662 354.469,67.65 354.47,67.643C354.472,67.636 354.472,67.635 354.471,67.641C354.467,67.652 354.454,67.696 354.415,67.775L359.803,70.416L365.19,73.056C366.569,70.245 366.88,67.132 365.874,64.053L360.171,65.916ZM359.803,70.416L354.415,67.775L353.312,70.025L358.7,72.666L364.088,75.306L365.19,73.056L359.803,70.416ZM358.7,72.666L353.312,70.025L352.21,72.275L357.597,74.916L362.985,77.556L364.088,75.306L358.7,72.666ZM357.597,74.916L352.21,72.275C351.114,74.51 350.493,76.918 350.505,79.443L356.505,79.416L362.505,79.388C362.502,78.914 362.61,78.322 362.985,77.556L357.597,74.916ZM356.505,79.416L350.505,79.443L350.515,81.693L356.515,81.666L362.515,81.638L362.505,79.388L356.505,79.416ZM356.515,81.666L350.515,81.693L350.525,83.943L356.525,83.916L362.525,83.888L362.515,81.638L356.515,81.666ZM356.525,83.916L350.525,83.943C350.534,86.004 350.83,88.042 351.393,90.042L357.168,88.416L362.944,86.79C362.663,85.79 362.529,84.827 362.525,83.888L356.525,83.916ZM357.168,88.416L351.393,90.042L352.026,92.292L357.802,90.666L363.577,89.04L362.944,86.79L357.168,88.416ZM357.802,90.666L352.026,92.292L352.66,94.542L358.435,92.916L364.211,91.29L363.577,89.04L357.802,90.666ZM358.435,92.916L352.66,94.542C353.161,96.32 353.795,98.081 354.556,99.821L360.053,97.416L365.55,95.01C364.999,93.751 364.555,92.511 364.211,91.29L358.435,92.916ZM360.053,97.416L354.556,99.821L355.541,102.071L361.038,99.666L366.535,97.26L365.55,95.01L360.053,97.416ZM361.038,99.666L355.541,102.071L356.525,104.321L362.022,101.916L367.519,99.51L366.535,97.26L361.038,99.666ZM362.022,101.916L356.525,104.321C356.831,105.02 356.901,105.563 356.871,106.021L368.845,106.811C369.013,104.268 368.526,101.811 367.519,99.51L362.022,101.916ZM368.845,106.811L356.871,106.021L356.723,108.271L368.697,109.061L368.845,106.811ZM368.697,109.061L356.723,108.271L356.574,110.521L368.548,111.311L368.697,109.061ZM368.548,111.311L356.574,110.521C356.479,111.966 356.364,113.411 356.228,114.857L362.202,115.416L368.176,115.974C368.322,114.42 368.446,112.865 368.548,111.311ZM362.202,115.416L356.228,114.857L356.018,117.107L361.992,117.666L367.966,118.224L368.176,115.974L362.202,115.416ZM361.992,117.666L356.018,117.107L355.808,119.357L361.782,119.916L367.755,120.474L367.966,118.224L361.992,117.666ZM361.782,119.916L355.808,119.357C355.65,121.041 355.571,122.727 355.57,124.414L367.57,124.418C367.571,123.104 367.632,121.79 367.755,120.474L361.782,119.916ZM367.57,124.418L355.57,124.414L355.57,126.664L367.57,126.668L367.57,124.418ZM367.57,126.668L355.57,126.664L355.569,128.914L367.569,128.918L367.57,126.668ZM367.569,128.918L355.569,128.914C355.568,129.98 355.454,131.057 355.218,132.152L366.948,134.68C367.359,132.775 367.568,130.852 367.569,128.918ZM366.948,134.68L355.218,132.152L354.733,134.402L360.598,135.666L366.464,136.93L366.948,134.68ZM360.598,135.666L354.733,134.402L354.248,136.652L360.113,137.916L365.979,139.18L366.464,136.93L360.598,135.666ZM360.113,137.916L354.248,136.652C353.874,138.386 353.607,140.129 353.45,141.877L359.426,142.416L365.401,142.954C365.514,141.703 365.706,140.445 365.979,139.18L360.113,137.916ZM359.426,142.416L353.45,141.877L353.247,144.127L359.223,144.666L365.198,145.204L365.401,142.954L359.426,142.416ZM359.223,144.666L353.247,144.127L353.044,146.377L359.02,146.916L364.996,147.454L365.198,145.204L359.223,144.666ZM359.02,146.916L353.044,146.377C352.927,147.677 352.744,148.981 352.494,150.29L358.387,151.416L364.281,152.541C364.604,150.85 364.842,149.154 364.996,147.454L359.02,146.916ZM358.387,151.416L352.494,150.29L352.064,152.54L357.957,153.666L363.851,154.791L364.281,152.541L358.387,151.416ZM357.957,153.666L352.064,152.54L351.634,154.79L357.528,155.916L363.421,157.041L363.851,154.791L357.957,153.666ZM357.528,155.916L351.634,154.79C351.031,157.949 351.763,160.936 353.305,163.504L358.449,160.416L363.593,157.327C363.517,157.202 363.474,157.109 363.451,157.05C363.427,156.992 363.421,156.964 363.421,156.963C363.421,156.962 363.424,156.976 363.424,157C363.424,157.01 363.423,157.02 363.423,157.028C363.422,157.032 363.422,157.036 363.422,157.038C363.421,157.039 363.421,157.04 363.421,157.04L363.421,157.041L357.528,155.916ZM358.449,160.416L353.305,163.504L354.655,165.754L359.799,162.666L364.944,159.577L363.593,157.327L358.449,160.416ZM359.799,162.666L354.655,165.754L356.006,168.004L361.15,164.916L366.294,161.827L364.944,159.577L359.799,162.666ZM361.15,164.916L356.006,168.004C356.175,168.285 356.222,168.45 356.235,168.506C356.246,168.551 356.243,168.561 356.241,168.572L362.182,169.416L368.122,170.259C368.558,167.19 367.788,164.316 366.294,161.827L361.15,164.916ZM362.182,169.416L356.241,168.572L355.922,170.822L361.862,171.666L367.803,172.509L368.122,170.259L362.182,169.416ZM361.862,171.666L355.922,170.822L355.602,173.072L361.543,173.916L367.483,174.759L367.803,172.509L361.862,171.666ZM361.543,173.916L355.602,173.072C355.317,175.08 355.291,177.097 355.526,179.11L361.485,178.416L367.445,177.722C367.33,176.734 367.342,175.751 367.483,174.759L361.543,173.916ZM361.485,178.416L355.526,179.11L355.788,181.36L361.747,180.666L367.707,179.972L367.445,177.722L361.485,178.416ZM361.747,180.666L355.788,181.36L356.05,183.61L362.01,182.916L367.969,182.222L367.707,179.972L361.747,180.666ZM362.01,182.916L356.05,183.61C356.125,184.255 356.074,184.941 355.84,185.718L367.332,189.174C368.012,186.91 368.244,184.576 367.969,182.222L362.01,182.916ZM367.332,189.174L355.84,185.718L355.154,187.998L366.646,191.454L367.332,189.174ZM366.646,191.454L355.154,187.998L354.468,190.278L365.96,193.734L366.646,191.454ZM365.96,193.734L354.468,190.278C353.986,191.881 353.544,193.476 353.143,195.063L364.777,198.005C365.133,196.595 365.528,195.171 365.96,193.734ZM364.777,198.005L353.143,195.063L352.575,197.311L358.392,198.782L364.209,200.252L364.777,198.005ZM358.392,198.782L352.575,197.311L352.006,199.558L363.64,202.5L364.209,200.252L358.392,198.782ZM363.64,202.5L352.006,199.558C351.923,199.886 351.787,200.128 351.489,200.397L355.506,204.853L359.524,209.31C361.557,207.477 362.965,205.169 363.64,202.5ZM355.506,204.853L351.489,200.397L349.74,201.973L353.757,206.43L357.775,210.886L359.524,209.31L355.506,204.853ZM353.757,206.43L349.74,201.973L347.991,203.55L352.009,208.006L356.026,212.463L357.775,210.886L353.757,206.43ZM352.009,208.006L347.991,203.55C346.249,205.12 344.855,206.978 343.827,209.086L349.219,211.716L354.612,214.346C354.972,213.609 355.436,212.994 356.026,212.463L352.009,208.006ZM349.219,211.716L343.827,209.086L342.786,211.219L353.572,216.479L354.612,214.346L349.219,211.716ZM353.572,216.479L342.786,211.219L341.746,213.352L347.139,215.982L352.531,218.613L353.572,216.479ZM347.139,215.982L341.746,213.352C341.714,213.417 341.691,213.452 341.681,213.466C341.672,213.479 341.67,213.479 341.677,213.473C341.683,213.466 341.687,213.464 341.683,213.467C341.679,213.469 341.656,213.484 341.607,213.505L346.299,224.549C349.086,223.365 351.217,221.308 352.531,218.613L347.139,215.982ZM346.299,224.549L341.607,213.505L339.462,214.416L341.808,219.938L344.153,225.461L346.299,224.549ZM341.808,219.938L339.462,214.416L337.317,215.327L339.662,220.849L342.008,226.372L344.153,225.461L341.808,219.938ZM339.662,220.849L337.317,215.327C336.164,215.817 335.026,216.198 333.901,216.478L335.35,222.3L336.8,228.122C338.564,227.683 340.3,227.097 342.008,226.372L339.662,220.849ZM335.35,222.3L333.901,216.478L331.734,217.018L334.634,228.662L336.8,228.122L335.35,222.3ZM334.634,228.662L331.734,217.018L329.567,217.557L331.017,223.379L332.467,229.202L334.634,228.662ZM331.017,223.379L329.567,217.557C328.737,217.764 327.936,217.829 327.14,217.766L326.669,223.747L326.199,229.729C328.311,229.895 330.408,229.714 332.467,229.202L331.017,223.379ZM326.669,223.747L327.14,217.766L324.958,217.594L324.488,223.576L324.018,229.557L326.199,229.729L326.669,223.747ZM324.488,223.576L324.958,217.594L322.777,217.423L322.307,223.404L321.837,229.386L324.018,229.557L324.488,223.576ZM322.307,223.404L322.777,217.423C319.836,217.192 317.122,218.037 314.771,219.466L317.887,224.594L321.002,229.721C321.332,229.521 321.554,229.441 321.67,229.41C321.777,229.381 321.823,229.385 321.837,229.386L322.307,223.404ZM317.887,224.594L314.771,219.466L312.532,220.827L315.647,225.954L318.763,231.082L321.002,229.721L317.887,224.594ZM315.647,225.954L312.532,220.827L310.292,222.187L316.524,232.443L318.763,231.082L315.647,225.954ZM316.524,232.443L310.292,222.187C309.455,222.696 308.826,222.866 308.369,222.908L308.919,228.882L309.468,234.857C312.011,234.623 314.375,233.748 316.524,232.443ZM308.919,228.882L308.369,222.908L306.119,223.115L306.669,229.089L307.218,235.064L309.468,234.857L308.919,228.882ZM306.669,229.089L306.119,223.115L303.869,223.321L304.419,229.296L304.968,235.271L307.218,235.064L306.669,229.089ZM304.419,229.296L303.869,223.321C302.857,223.415 301.845,223.385 300.822,223.229L299.919,229.161L299.016,235.092C300.993,235.393 302.98,235.454 304.968,235.271L304.419,229.296ZM299.919,229.161L300.822,223.229L298.572,222.886L296.766,234.75L299.016,235.092L299.919,229.161ZM296.766,234.75L298.572,222.886L296.322,222.544L295.419,228.475L294.516,234.407L296.766,234.75ZM295.419,228.475L296.322,222.544C295.328,222.392 294.292,222.106 293.205,221.658L290.919,227.205L288.632,232.752C290.546,233.541 292.509,234.101 294.516,234.407L295.419,228.475ZM290.919,227.205L293.205,221.658L290.955,220.73L288.669,226.278L286.382,231.825L288.632,232.752L290.919,227.205ZM288.669,226.278L290.955,220.73L288.705,219.803L286.419,225.35L284.132,230.897L286.382,231.825L288.669,226.278ZM286.419,225.35L288.705,219.803C286.779,219.009 284.8,218.451 282.776,218.159L281.919,224.098L281.062,230.036C282.037,230.177 283.058,230.455 284.132,230.897L286.419,225.35ZM281.919,224.098L282.776,218.159L280.526,217.835L278.812,229.711L281.062,230.036L281.919,224.098ZM278.812,229.711L280.526,217.835L278.276,217.51L277.419,223.448L276.562,229.387L278.812,229.711ZM277.419,223.448L278.276,217.51C276.476,217.25 274.671,217.128 272.862,217.145L272.919,223.145L272.975,229.144C274.166,229.133 275.361,229.213 276.562,229.387L277.419,223.448ZM272.919,223.145L272.862,217.145L270.612,217.166L270.669,223.166L270.725,229.166L272.975,229.144L272.919,223.145ZM270.669,223.166L270.612,217.166L268.362,217.187L268.419,223.187L268.475,229.187L270.725,229.166L270.669,223.166ZM268.419,223.187L268.362,217.187C266.002,217.21 263.721,217.73 261.556,218.657L263.919,224.172L266.281,229.687C267.117,229.329 267.836,229.193 268.475,229.187L268.419,223.187ZM263.919,224.172L261.556,218.657L259.306,219.621L261.669,225.136L264.031,230.651L266.281,229.687L263.919,224.172ZM261.669,225.136L259.306,219.621L257.056,220.585L259.419,226.1L261.781,231.615L264.031,230.651L261.669,225.136ZM259.419,226.1L257.056,220.585C256.257,220.927 255.584,221.044 254.992,221.037L254.919,227.036L254.845,233.036C257.253,233.065 259.58,232.558 261.781,231.615L259.419,226.1ZM254.919,227.036L254.992,221.037L252.742,221.009L252.669,227.008L252.595,233.008L254.845,233.036L254.919,227.036ZM252.669,227.008L252.742,221.009L250.492,220.981L250.419,226.981L250.345,232.98L252.595,233.008L252.669,227.008ZM250.419,226.981L250.492,220.981C249.937,220.974 249.279,220.845 248.474,220.465L243.364,231.323C245.558,232.356 247.9,232.95 250.345,232.98L250.419,226.981ZM243.364,231.323L248.474,220.465L246.224,219.406L241.114,230.264L243.364,231.323ZM241.114,230.264L246.224,219.406L243.974,218.348L241.419,223.776L238.864,229.205L241.114,230.264ZM241.419,223.776L243.974,218.348C241.044,216.969 237.843,216.798 234.762,217.985L239.076,229.183C239.101,229.173 239.094,229.179 239.057,229.185C239.019,229.192 238.968,229.196 238.913,229.193C238.858,229.191 238.819,229.183 238.802,229.179C238.787,229.175 238.807,229.178 238.864,229.205L241.419,223.776ZM239.076,229.183L234.762,217.985L232.512,218.852L236.826,230.05L239.076,229.183ZM236.826,230.05L232.512,218.852L230.262,219.719L234.576,230.917L236.826,230.05ZM234.576,230.917L230.262,219.719C228.807,220.28 227.353,220.82 225.9,221.339L229.938,232.639C231.484,232.086 233.03,231.512 234.576,230.917ZM229.938,232.639L225.9,221.339L223.65,222.143L227.688,233.443L229.938,232.639ZM227.688,233.443L223.65,222.143L221.4,222.947L225.438,234.247L227.688,233.443ZM225.438,234.247L221.4,222.947C221.386,222.952 221.404,222.944 221.45,222.938C221.496,222.931 221.551,222.929 221.607,222.933C221.662,222.937 221.698,222.946 221.707,222.949C221.715,222.951 221.686,222.943 221.619,222.909L218.919,228.268L216.219,233.626C219.096,235.076 222.299,235.369 225.438,234.247ZM218.919,228.268L221.619,222.909L219.369,221.776L213.969,232.492L216.219,233.626L218.919,228.268ZM213.969,232.492L219.369,221.776L217.119,220.642L211.719,231.358L213.969,232.492ZM211.719,231.358L217.119,220.642C215.057,219.603 212.878,218.908 210.6,218.648L209.238,230.57C209.96,230.653 210.78,230.885 211.719,231.358ZM209.238,230.57L210.6,218.648L208.35,218.391L206.988,230.313L209.238,230.57ZM206.988,230.313L208.35,218.391L206.1,218.134L204.738,230.056L206.988,230.313ZM204.738,230.056L206.1,218.134C204.157,217.912 202.21,217.907 200.266,218.119L200.919,224.084L201.571,230.048C202.627,229.933 203.68,229.935 204.738,230.056ZM200.919,224.084L200.266,218.119L198.016,218.365L198.669,224.33L199.321,230.294L201.571,230.048L200.919,224.084ZM198.669,224.33L198.016,218.365L195.766,218.611L196.419,224.576L197.071,230.54L199.321,230.294L198.669,224.33ZM196.419,224.576L195.766,218.611C194.176,218.785 192.586,218.996 190.997,219.243L191.919,225.172L192.84,231.1C194.251,230.881 195.661,230.694 197.071,230.54L196.419,224.576ZM191.919,225.172L190.997,219.243L188.747,219.592L189.669,225.521L190.59,231.45L192.84,231.1L191.919,225.172ZM189.669,225.521L188.747,219.592L186.497,219.942L187.419,225.871L188.34,231.8L190.59,231.45L189.669,225.521ZM187.419,225.871L186.497,219.942C185.767,220.055 185.041,220.031 184.277,219.853L182.919,225.697L181.56,231.541C183.797,232.061 186.07,232.152 188.34,231.8L187.419,225.871ZM182.919,225.697L184.277,219.853L182.027,219.33L180.669,225.174L179.31,231.018L181.56,231.541L182.919,225.697ZM180.669,225.174L182.027,219.33L179.777,218.807L178.419,224.651L177.06,230.495L179.31,231.018L180.669,225.174ZM178.419,224.651L179.777,218.807C176.915,218.142 174.082,218.489 171.472,219.654L173.919,225.133L176.365,230.611C176.756,230.437 176.922,230.463 177.06,230.495L178.419,224.651ZM173.919,225.133L171.472,219.654L169.222,220.659L171.669,226.138L174.115,231.616L176.365,230.611L173.919,225.133ZM171.669,226.138L169.222,220.659L166.972,221.664L169.419,227.142L171.865,232.621L174.115,231.616L171.669,226.138ZM169.419,227.142L166.972,221.664C166.903,221.695 166.865,221.705 166.858,221.707C166.854,221.708 166.856,221.707 166.862,221.706C166.869,221.705 166.879,221.704 166.891,221.703L166.929,221.703C166.941,221.704 166.95,221.705 166.956,221.706C166.97,221.708 166.959,221.708 166.921,221.695L164.919,227.351L162.916,233.007C165.918,234.07 169.01,233.896 171.865,232.621L169.419,227.142ZM164.919,227.351L166.921,221.695L164.671,220.898L162.669,226.554L160.666,232.21L162.916,233.007L164.919,227.351ZM162.669,226.554L164.671,220.898L162.421,220.101L160.419,225.757L158.416,231.413L160.666,232.21L162.669,226.554ZM160.419,225.757L162.421,220.101C160.533,219.433 158.609,218.97 156.655,218.728L155.919,224.683L155.183,230.637C156.229,230.767 157.305,231.02 158.416,231.413L160.419,225.757ZM155.919,224.683L156.655,218.728L154.405,218.45L153.669,224.405L152.933,230.359L155.183,230.637L155.919,224.683ZM153.669,224.405L154.405,218.45L152.155,218.172L151.419,224.127L150.683,230.081L152.933,230.359L153.669,224.405ZM151.419,224.127L152.155,218.172C149.202,217.807 146.419,218.51 143.963,219.901L146.919,225.122L149.874,230.344C150.418,230.036 150.635,230.075 150.683,230.081L151.419,224.127ZM146.919,225.122L143.963,219.901L141.713,221.174L144.669,226.396L147.624,231.617L149.874,230.344L146.919,225.122ZM144.669,226.396L141.713,221.174L139.463,222.448L142.419,227.669L145.374,232.891L147.624,231.617L144.669,226.396ZM142.419,227.669L139.463,222.448C138.658,222.903 138.062,223.038 137.629,223.059L138.209,235.045C140.775,234.921 143.179,234.133 145.374,232.891L142.419,227.669ZM138.209,235.045L137.629,223.059L135.379,223.168L135.959,235.154L138.209,235.045ZM135.959,235.154L135.379,223.168L133.129,223.276L133.709,235.262L135.959,235.154ZM133.709,235.262L133.129,223.276C132.175,223.323 131.209,223.241 130.218,223.022L128.919,228.879L127.619,234.737C129.628,235.182 131.663,235.361 133.709,235.262ZM128.919,228.879L130.218,223.022L127.968,222.522L126.669,228.38L125.369,234.237L127.619,234.737L128.919,228.879ZM126.669,228.38L127.968,222.522L125.718,222.023L124.419,227.881L123.119,233.738L125.369,234.237L126.669,228.38ZM124.419,227.881L125.718,222.023C123.628,221.559 121.509,221.417 119.382,221.608L120.456,233.56C121.329,233.481 122.209,233.536 123.119,233.738L124.419,227.881ZM120.456,233.56L119.382,221.608L117.132,221.81L118.206,233.762L120.456,233.56ZM118.206,233.762L117.132,221.81L114.882,222.012L115.956,233.964L118.206,233.762ZM115.956,233.964L114.882,222.012C113.715,222.117 112.55,222.124 111.384,222.033L110.919,228.015L110.453,233.997C112.287,234.14 114.123,234.129 115.956,233.964ZM110.919,228.015L111.384,222.033L109.134,221.858L108.669,227.84L108.203,233.822L110.453,233.997L110.919,228.015ZM108.669,227.84L109.134,221.858L106.884,221.683L106.419,227.665L105.953,233.647L108.203,233.822L108.669,227.84ZM106.419,227.665L106.884,221.683C106.082,221.62 105.213,221.415 104.261,221.012L101.919,226.536L99.577,232.06C101.624,232.928 103.756,233.475 105.953,233.647L106.419,227.665ZM101.919,226.536L104.261,221.012L102.011,220.058L99.669,225.582L97.327,231.106L99.577,232.06L101.919,226.536ZM99.669,225.582L102.011,220.058L99.76,219.104L95.077,230.152L97.327,231.106L99.669,225.582ZM95.077,230.152L99.76,219.104C97.157,218 94.356,217.701 91.54,218.366L92.919,224.205L94.297,230.045C94.482,230.001 94.681,229.984 95.077,230.152ZM92.919,224.205L91.54,218.366L89.29,218.897L90.669,224.737L92.047,230.576L94.297,230.045L92.919,224.205ZM90.669,224.737L89.29,218.897L87.04,219.428L88.419,225.268L89.797,231.107L92.047,230.576L90.669,224.737ZM88.419,225.268L87.04,219.428C85.284,219.843 83.543,220.375 81.815,221.022L86.022,232.26C87.295,231.784 88.553,231.401 89.797,231.107L88.419,225.268ZM86.022,232.26L81.815,221.022L79.565,221.865L83.772,233.103L86.022,232.26ZM83.772,233.103L79.565,221.865L77.315,222.707L81.522,233.945L83.772,233.103ZM81.522,233.945L77.315,222.707C76.832,222.888 76.489,222.894 76.155,222.823L74.919,228.694L73.682,234.566C76.348,235.127 79.006,234.887 81.522,233.945ZM74.919,228.694L76.155,222.823L73.905,222.349L72.669,228.221L71.432,234.092L73.682,234.566L74.919,228.694ZM72.669,228.221L73.905,222.349L71.656,221.875L70.419,227.747L69.182,233.618L71.432,234.092L72.669,228.221ZM70.419,227.747L71.656,221.875C69.707,221.465 67.74,221.282 65.762,221.333L66.076,233.329C67.098,233.303 68.13,233.396 69.182,233.618L70.419,227.747ZM66.076,233.329L65.762,221.333L63.512,221.392L63.826,233.388L66.076,233.329ZM63.826,233.388L63.512,221.392L61.262,221.451L61.576,233.447L63.826,233.388ZM61.576,233.447L61.262,221.451C59.361,221.501 57.471,221.74 55.598,222.163L56.919,228.016L58.239,233.868C59.367,233.614 60.477,233.476 61.576,233.447ZM56.919,228.016L55.598,222.163L53.348,222.67L55.989,234.376L58.239,233.868L56.919,228.016ZM55.989,234.376L53.348,222.67L51.098,223.178L53.739,234.884L55.989,234.376ZM53.739,234.884L51.098,223.178C50.923,223.218 50.713,223.238 50.287,223.054L47.907,228.562L45.528,234.07C48.117,235.188 50.914,235.521 53.739,234.884ZM47.907,228.562L50.287,223.054L48.026,222.077L43.267,233.093L45.528,234.07L47.907,228.562ZM43.267,233.093L48.026,222.077L45.764,221.1L41.005,232.116L43.267,233.093ZM41.005,232.116L45.764,221.1C44.781,220.675 43.952,220.154 43.242,219.547L39.341,224.105L35.44,228.664C37.107,230.091 38.974,231.238 41.005,232.116ZM39.341,224.105L43.242,219.547L41.459,218.021L37.558,222.58L33.657,227.138L35.44,228.664L39.341,224.105ZM37.558,222.58L41.459,218.021L39.677,216.495L35.775,221.054L31.874,225.613L33.657,227.138L37.558,222.58ZM35.775,221.054L39.677,216.495C37.829,214.914 35.701,213.773 33.33,213.158L31.823,218.965L30.316,224.773C30.838,224.908 31.345,225.16 31.874,225.613L35.775,221.054ZM31.823,218.965L33.33,213.158L31.161,212.595L29.654,218.402L28.146,224.21L30.316,224.773L31.823,218.965ZM29.654,218.402L31.161,212.595L28.991,212.032L27.484,217.839L25.977,223.647L28.146,224.21L29.654,218.402ZM27.484,217.839L28.991,212.032C29.01,212.036 29.162,212.084 29.345,212.231C29.429,212.298 29.495,212.367 29.542,212.425C29.589,212.483 29.606,212.518 29.604,212.513L18.95,218.035C20.419,220.871 22.871,222.841 25.977,223.647L27.484,217.839ZM18.95,218.035L29.604,212.513L28.566,210.511L17.912,216.033L18.95,218.035ZM17.912,216.033L28.566,210.511L27.529,208.509L22.201,211.27L16.874,214.03L17.912,216.033ZM22.201,211.27L27.529,208.509C26.028,205.613 23.539,203.754 20.788,202.676L18.599,208.262L16.41,213.849C16.766,213.988 16.91,214.1 16.937,214.123C16.95,214.134 16.942,214.129 16.924,214.107C16.906,214.084 16.888,214.057 16.874,214.03L22.201,211.27ZM18.599,208.262L20.788,202.676L18.223,201.671L16.034,207.258L13.845,212.844L16.41,213.849L18.599,208.262ZM16.034,207.258L18.223,201.671L15.658,200.666L13.469,206.253L11.281,211.839L13.845,212.844L16.034,207.258ZM13.469,206.253L15.658,200.666C15.419,200.573 15.418,200.528 15.509,200.617C15.553,200.659 15.6,200.714 15.642,200.779C15.683,200.844 15.706,200.896 15.715,200.921L10.077,202.973L4.438,205.025C5.664,208.392 8.212,210.637 11.281,211.839L13.469,206.253ZM10.077,202.973L15.715,200.921L14.887,198.645L9.248,200.697L3.61,202.749L4.438,205.025L10.077,202.973ZM9.248,200.697L14.887,198.645L14.059,196.37L8.42,198.422L2.782,200.474L3.61,202.749L9.248,200.697ZM8.42,198.422L14.059,196.37C14.025,196.277 14.024,196.234 14.024,196.207C14.025,196.175 14.031,196.059 14.115,195.832L8.495,193.731L2.875,191.631C1.808,194.485 1.708,197.524 2.782,200.474L8.42,198.422ZM8.495,193.731L14.115,195.832L15.018,193.416L9.398,191.316L3.777,189.215L2.875,191.631L8.495,193.731ZM9.398,191.316L15.018,193.416L15.921,191L10.3,188.9L4.68,186.8L3.777,189.215L9.398,191.316ZM10.3,188.9L15.921,191C17.134,187.754 16.891,184.369 15.205,181.329L9.958,184.239L4.711,187.149C4.732,187.188 4.727,187.187 4.715,187.146C4.702,187.105 4.688,187.042 4.682,186.966C4.677,186.891 4.681,186.829 4.688,186.789C4.693,186.751 4.698,186.753 4.68,186.8L10.3,188.9ZM9.958,184.239L15.205,181.329L13.96,179.084L8.713,181.994L3.466,184.904L4.711,187.149L9.958,184.239ZM8.713,181.994L13.96,179.084L12.715,176.838L7.468,179.748L2.22,182.658L3.466,184.904L8.713,181.994ZM7.468,179.748L12.715,176.838C12.573,176.583 12.538,176.437 12.529,176.39C12.522,176.352 12.522,176.333 12.528,176.297L6.62,175.253L0.712,174.209C0.177,177.231 0.81,180.116 2.22,182.658L7.468,179.748ZM6.62,175.253L12.528,176.297L12.926,174.047L7.018,173.003L1.109,171.959L0.712,174.209L6.62,175.253ZM7.018,173.003L12.926,174.047L13.324,171.797L1.507,169.709L1.109,171.959L7.018,173.003ZM1.507,169.709L13.324,171.797C13.629,170.07 13.833,168.338 13.934,166.602L7.944,166.253L1.954,165.904C1.881,167.168 1.732,168.436 1.507,169.709ZM7.944,166.253L13.934,166.602L14.065,164.352L2.085,163.654L1.954,165.904L7.944,166.253ZM2.085,163.654L14.065,164.352L14.196,162.102L8.206,161.753L2.216,161.404L2.085,163.654ZM8.206,161.753L14.196,162.102C14.236,161.421 14.414,160.652 14.823,159.765L9.374,157.253L3.925,154.741C2.951,156.854 2.351,159.085 2.216,161.404L8.206,161.753ZM9.374,157.253L14.823,159.765L15.86,157.515L10.412,155.003L4.963,152.491L3.925,154.741L9.374,157.253ZM10.412,155.003L15.86,157.515L16.898,155.265L11.449,152.753L6,150.241L4.963,152.491L10.412,155.003ZM11.449,152.753L16.898,155.265C18.342,152.132 18.305,148.764 16.824,145.666L11.411,148.253L5.997,150.84C6.011,150.869 6,150.853 5.986,150.796C5.972,150.736 5.959,150.653 5.958,150.554C5.957,150.455 5.969,150.368 5.983,150.304C5.997,150.241 6.01,150.219 6,150.241L11.449,152.753ZM11.411,148.253L16.824,145.666L15.749,143.416L10.336,146.003L4.922,148.59L5.997,150.84L11.411,148.253ZM10.336,146.003L15.749,143.416L14.674,141.166L3.847,146.34L4.922,148.59L10.336,146.003ZM3.847,146.34L14.674,141.166C14.642,141.098 14.633,141.066 14.634,141.067C14.634,141.07 14.641,141.096 14.643,141.138C14.646,141.181 14.643,141.222 14.639,141.254C14.634,141.285 14.63,141.29 14.639,141.265L8.986,139.253L3.334,137.241C2.239,140.317 2.476,143.471 3.847,146.34ZM8.986,139.253L14.639,141.265L15.44,139.015L9.787,137.003L4.135,134.991L3.334,137.241L8.986,139.253ZM9.787,137.003L15.44,139.015L16.241,136.765L10.588,134.753L4.936,132.741L4.135,134.991L9.787,137.003ZM10.588,134.753L16.241,136.765C17.319,133.736 17.126,130.619 15.815,127.756L10.359,130.253L4.904,132.75C4.935,132.819 4.944,132.853 4.945,132.857C4.945,132.859 4.944,132.855 4.943,132.846C4.941,132.836 4.94,132.823 4.939,132.808C4.938,132.792 4.938,132.776 4.939,132.761C4.94,132.745 4.941,132.732 4.943,132.723C4.944,132.714 4.945,132.71 4.945,132.712C4.944,132.714 4.942,132.723 4.936,132.741L10.588,134.753ZM10.359,130.253L15.815,127.756L14.785,125.506L9.329,128.003L3.874,130.5L4.904,132.75L10.359,130.253ZM9.329,128.003L14.785,125.506L13.755,123.256L8.3,125.753L2.844,128.25L3.874,130.5L9.329,128.003ZM8.3,125.753L13.755,123.256C13.788,123.328 13.873,123.576 13.849,123.922C13.826,124.253 13.721,124.404 13.765,124.331L8.614,121.253L3.464,118.175C1.626,121.251 1.279,124.832 2.844,128.25L8.3,125.753ZM8.614,121.253L13.765,124.331L15.109,122.081L9.959,119.003L4.809,115.925L3.464,118.175L8.614,121.253ZM9.959,119.003L15.109,122.081L16.454,119.831L11.304,116.753L6.153,113.675L4.809,115.925L9.959,119.003ZM11.304,116.753L16.454,119.831C18.287,116.763 18.642,113.19 17.091,109.773L11.627,112.253L6.163,114.733C6.131,114.66 6.048,114.414 6.072,114.073C6.096,113.747 6.198,113.6 6.153,113.675L11.304,116.753ZM11.627,112.253L17.091,109.773L16.07,107.523L10.606,110.003L5.142,112.483L6.163,114.733L11.627,112.253ZM10.606,110.003L16.07,107.523L15.048,105.273L9.585,107.753L4.121,110.233L5.142,112.483L10.606,110.003ZM9.585,107.753L15.048,105.273C15.034,105.241 15.041,105.249 15.051,105.295C15.062,105.342 15.072,105.41 15.072,105.491C15.072,105.572 15.063,105.64 15.052,105.689C15.041,105.736 15.034,105.745 15.048,105.714L9.576,103.253L4.103,100.792C2.721,103.867 2.729,107.166 4.121,110.233L9.585,107.753ZM9.576,103.253L15.048,105.714L16.06,103.464L10.587,101.003L5.115,98.542L4.103,100.792L9.576,103.253ZM10.587,101.003L16.06,103.464L17.071,101.214L11.599,98.753L6.127,96.292L5.115,98.542L10.587,101.003ZM11.599,98.753L17.071,101.214C18.615,97.781 18.233,94.205 16.386,91.149L11.251,94.253L6.116,97.357C6.165,97.437 6.061,97.293 6.036,96.966C6.01,96.623 6.092,96.371 6.127,96.292L11.599,98.753ZM11.251,94.253L16.386,91.149L15.026,88.899L9.891,92.003L4.756,95.107L6.116,97.357L11.251,94.253ZM9.891,92.003L15.026,88.899L13.666,86.649L8.531,89.753L3.396,92.857L4.756,95.107L9.891,92.003ZM8.531,89.753L13.666,86.649C13.159,85.811 13,85.194 12.963,84.757L6.984,85.253L1.005,85.749C1.217,88.312 2.089,90.695 3.396,92.857L8.531,89.753ZM6.984,85.253L12.963,84.757L12.777,82.507L6.797,83.003L0.818,83.499L1.005,85.749L6.984,85.253ZM6.797,83.003L12.777,82.507L12.59,80.257L6.611,80.753L0.631,81.249L0.818,83.499L6.797,83.003ZM6.611,80.753L12.59,80.257C12.54,79.653 12.613,79.004 12.877,78.259L7.222,76.253L1.567,74.247C0.768,76.502 0.432,78.853 0.631,81.249L6.611,80.753ZM7.222,76.253L12.877,78.259L13.675,76.009L8.02,74.003L2.365,71.997L1.567,74.247L7.222,76.253ZM8.02,74.003L13.675,76.009L14.473,73.759L8.818,71.753L3.163,69.747L2.365,71.997L8.02,74.003ZM8.818,71.753L14.473,73.759C15.069,72.078 15.578,70.389 15.997,68.692L10.172,67.253L4.347,65.814C4.025,67.117 3.632,68.428 3.163,69.747L8.818,71.753ZM10.172,67.253L15.997,68.692L16.553,66.442L10.728,65.003L4.903,63.564L4.347,65.814L10.172,67.253ZM10.728,65.003L16.553,66.442L17.109,64.192L11.284,62.753L5.459,61.314L4.903,63.564L10.728,65.003ZM11.284,62.753L17.109,64.192C17.593,62.231 17.839,60.243 17.834,58.24L11.834,58.253L5.834,58.267C5.837,59.263 5.715,60.275 5.459,61.314L11.284,62.753ZM11.834,58.253L17.834,58.24L17.829,55.99L11.829,56.003L5.829,56.017L5.834,58.267L11.834,58.253ZM11.829,56.003L17.829,55.99L17.824,53.74L11.824,53.753L5.824,53.767L5.829,56.017L11.829,56.003ZM11.824,53.753L17.824,53.74C17.82,51.824 17.618,49.919 17.225,48.029L11.351,49.251L5.476,50.474C5.708,51.586 5.822,52.682 5.824,53.767L11.824,53.753ZM11.351,49.251L17.225,48.029L16.756,45.777L10.882,47L5.008,48.223L5.476,50.474L11.351,49.251ZM10.882,47L16.756,45.777L16.287,43.526L10.413,44.748L4.539,45.971L5.008,48.223L10.882,47ZM10.413,44.748L16.287,43.526C16.189,43.054 16.22,42.687 16.351,42.306L10.673,40.365L4.996,38.424C4.154,40.885 4.012,43.44 4.539,45.971L10.413,44.748ZM10.673,40.365L16.351,42.306L17.079,40.174L11.402,38.233L5.724,36.292L4.996,38.424L10.673,40.365ZM11.402,38.233L17.079,40.174L17.808,38.042L12.131,36.101L6.453,34.161L5.724,36.292L11.402,38.233ZM12.131,36.101L17.808,38.042C18.193,36.916 18.663,35.827 19.219,34.771L13.912,31.973L8.604,29.175C7.757,30.781 7.04,32.444 6.453,34.161L12.131,36.101ZM13.912,31.973L19.219,34.771L20.272,32.775L14.964,29.977L9.656,27.179L8.604,29.175L13.912,31.973ZM14.964,29.977L20.272,32.775L21.324,30.779L16.016,27.981L10.709,25.183L9.656,27.179L14.964,29.977ZM16.016,27.981L21.324,30.779C21.346,30.737 21.362,30.715 21.369,30.706C21.376,30.697 21.381,30.691 21.387,30.686C21.393,30.681 21.448,30.63 21.61,30.56L19.233,25.051L16.856,19.542C14.216,20.681 12.079,22.583 10.709,25.183L16.016,27.981ZM19.233,25.051L21.61,30.56L23.775,29.625L21.397,24.116L19.02,18.608L16.856,19.542L19.233,25.051ZM21.397,24.116L23.775,29.625L25.939,28.691L23.562,23.183L21.184,17.674L19.02,18.608L21.397,24.116ZM23.562,23.183L25.939,28.691C28.023,27.792 29.911,26.55 31.508,24.923L27.226,20.72L22.943,16.518C22.54,16.928 21.986,17.328 21.184,17.674L23.562,23.183ZM27.226,20.72L31.508,24.923L33.008,23.395L28.725,19.192L24.443,14.99L22.943,16.518L27.226,20.72ZM28.725,19.192L33.008,23.395L34.507,21.867L30.225,17.664L25.943,13.461L24.443,14.99L28.725,19.192ZM30.225,17.664L34.507,21.867C34.947,21.419 35.444,21.08 36.039,20.83L33.709,15.3L31.38,9.771C29.329,10.635 27.503,11.872 25.943,13.461L30.225,17.664ZM33.709,15.3L36.039,20.83L38.023,19.994L35.694,14.464L33.364,8.935L31.38,9.771L33.709,15.3ZM35.694,14.464L38.023,19.994L40.008,19.158L37.678,13.628L35.349,8.099L33.364,8.935L35.694,14.464ZM37.678,13.628L40.008,19.158C41.47,18.541 42.962,17.848 44.481,17.079L41.775,11.725L39.068,6.37C37.772,7.025 36.532,7.6 35.349,8.099L37.678,13.628ZM41.775,11.725L44.481,17.079L46.593,16.012L43.887,10.657L41.18,5.302L39.068,6.37L41.775,11.725ZM43.887,10.657L46.593,16.012L48.705,14.944L45.999,9.589L43.292,4.235L41.18,5.302L43.887,10.657ZM45.999,9.589L48.705,14.944C49.304,14.642 49.455,14.611 49.308,14.653C49.255,14.668 48.791,14.805 48.096,14.796C47.484,14.788 45.631,14.645 44.086,13.001L48.458,8.891L52.83,4.782C51.169,3.015 49.127,2.808 48.252,2.797C47.295,2.785 46.494,2.978 46.031,3.109C45.064,3.384 44.102,3.825 43.292,4.235L45.999,9.589ZM48.458,8.891L44.086,13.001L44.434,13.37L48.805,9.261L53.177,5.152L52.83,4.782L48.458,8.891ZM48.805,9.261L44.434,13.37L44.781,13.74L53.525,5.521L53.177,5.152L48.805,9.261ZM53.525,5.521L44.781,13.74C45.474,14.477 46.212,14.904 46.506,15.069C46.899,15.29 47.289,15.47 47.617,15.61C48.278,15.892 49.053,16.17 49.873,16.44L51.75,10.741L53.627,5.042C53.298,4.934 53.025,4.839 52.802,4.758C52.577,4.675 52.425,4.615 52.334,4.576C52.291,4.557 52.272,4.548 52.276,4.55C52.277,4.551 52.317,4.57 52.384,4.607C52.447,4.643 52.577,4.719 52.745,4.838C52.832,4.9 52.943,4.983 53.069,5.089C53.193,5.194 53.352,5.337 53.525,5.521ZM51.75,10.741L49.873,16.44L52.123,17.181L54,11.482L55.877,5.783L53.627,5.042L51.75,10.741Z"
        style="fill:rgb(255,172,62);fill-rule:nonzero;" />
</svg>
