<svg width="100%"
     height="100%"
     viewBox="0 0 243 404"
     version="1.1"
     xmlns="http://www.w3.org/2000/svg"
     preserveAspectRatio="none">
  <path id="Path"
        d="M9.853,49C9.853,26.909 27.761,9 49.853,9L193.453,9C215.544,9 233.453,26.909 233.453,49L233.453,354C233.453,376.091 215.544,394 193.453,394L49.853,394C27.761,394 9.853,376.091 9.853,354L9.853,49Z"
        style="fill:rgb(255,172,62);fill-rule:nonzero;" />
  <path id="path1"
        d="M56.603,11.223L58.479,5.524L56.603,11.223ZM61.103,10.868L58.475,5.474L61.103,10.868ZM74.603,9.891L76.547,4.215L74.603,9.891ZM79.103,10.111L77.677,4.283L79.103,10.111ZM88.103,9.188L89.949,3.479L88.103,9.188ZM92.603,10.643L90.756,16.352L92.603,10.643ZM99.353,8.417L102.645,13.432L99.353,8.417ZM101.603,6.939L98.31,1.924L101.603,6.939ZM106.103,6.9L109.333,1.844L106.103,6.9ZM108.353,8.337L105.122,13.393L108.353,8.337ZM110.603,9.775L113.833,4.719L110.603,9.775ZM133.103,8.654L135.388,3.106L133.103,8.654ZM137.603,10.508L135.317,16.055L137.603,10.508ZM142.103,10.358L144.693,15.77L142.103,10.358ZM146.603,8.204L144.012,2.792L146.603,8.204ZM151.103,7.46L151.982,1.525L151.103,7.46ZM155.603,8.127L154.723,14.063L155.603,8.127ZM160.103,9.109L161.762,3.343L160.103,9.109ZM164.603,10.404L162.943,16.17L164.603,10.404ZM169.103,10.055L171.532,15.542L169.103,10.055ZM171.353,9.059L168.923,3.573L171.353,9.059ZM173.603,8.063L176.032,13.549L173.603,8.063ZM178.103,7.716L176.437,13.481L178.103,7.716ZM182.603,9.017L184.268,3.253L182.603,9.017ZM187.095,10.289L185.491,16.071L187.095,10.289ZM191.581,11.534L193.185,5.753L191.581,11.534ZM200.024,12.743L199.459,18.716L200.024,12.743ZM204.265,13.205L204.995,7.249L204.265,13.205ZM208.615,13.738L207.884,19.694L208.615,13.738ZM212.57,15.267L216.04,10.372L212.57,15.267ZM214.352,16.53L210.882,21.425L214.352,16.53ZM216.133,17.792L212.663,22.687L216.133,17.792ZM220.055,20.122L217.377,25.491L220.055,20.122ZM224.336,22.257L227.014,16.888L224.336,22.257ZM226.483,25.896L232.483,25.881L226.483,25.896ZM226.496,31.039L220.496,31.054L226.496,31.039ZM228.726,35.214L232.235,30.347L228.726,35.214ZM230.951,36.817L227.442,41.685L230.951,36.817ZM233.175,38.42L229.666,43.288L233.175,38.42ZM235.331,42.409L229.334,42.239L235.331,42.409ZM235.196,47.18L229.198,47.01L235.196,47.18ZM233.966,51.816L228.635,49.062L233.966,51.816ZM231.641,56.316L236.972,59.069L231.641,56.316ZM231.965,60.816L236.972,57.508L231.965,60.816ZM233.452,63.066L228.446,66.373L233.452,63.066ZM234.938,65.316L239.945,62.008L234.938,65.316ZM235.776,69.816L230.011,68.152L235.776,69.816ZM235.126,72.066L240.891,73.729L235.126,72.066ZM234.477,74.316L228.712,72.652L234.477,74.316ZM234.372,78.816L228.54,80.225L234.372,78.816ZM235.459,83.316L241.291,81.906L235.459,83.316ZM235.992,87.816L241.992,87.845L235.992,87.816ZM235.97,92.316L229.97,92.286L235.97,92.316ZM236.008,96.816L242.007,96.686L236.008,96.816ZM236.106,101.316L230.107,101.446L236.106,101.316ZM236.374,105.816L242.345,105.234L236.374,105.816ZM236.593,108.066L230.621,108.648L236.593,108.066ZM236.812,110.316L242.784,109.734L236.812,110.316ZM235.75,114.816L230.536,111.847L235.75,114.816ZM234.469,117.066L229.255,114.097L234.469,117.066ZM233.188,119.316L238.402,122.284L233.188,119.316ZM232.236,123.816L226.299,124.683L232.236,123.816ZM232.893,128.316L238.83,127.448L232.893,128.316ZM232.551,132.816L226.801,131.102L232.551,132.816ZM231.21,137.316L236.96,139.029L231.21,137.316ZM231.836,141.816L226.637,144.811L231.836,141.816ZM234.429,146.316L239.628,143.32L234.429,146.316ZM234.464,150.816L229.23,147.882L234.464,150.816ZM233.203,153.066L238.437,155.999L233.203,153.066ZM231.942,155.316L226.708,152.382L231.942,155.316ZM232.161,159.816L227.15,163.115L232.161,159.816ZM233.643,162.066L238.654,158.767L233.643,162.066ZM235.124,164.316L240.135,161.017L235.124,164.316ZM236.003,168.816L241.8,170.365L236.003,168.816ZM235.402,171.066L241.199,172.615L235.402,171.066ZM234.801,173.316L229.004,171.766L234.801,173.316ZM233.629,177.816L227.813,176.342L233.629,177.816ZM233.059,180.066L238.875,181.539L233.059,180.066ZM232.489,182.316L238.305,183.789L232.489,182.316ZM232.654,186.816L238.357,184.953L232.654,186.816ZM233.389,189.066L239.092,187.203L233.389,189.066ZM234.123,191.316L228.42,193.178L234.123,191.316ZM233.755,195.816L239.143,198.456L233.755,195.816ZM232.653,198.066L227.265,195.425L232.653,198.066ZM231.55,200.316L226.162,197.675L231.55,200.316ZM230.457,204.816L224.457,204.843L230.457,204.816ZM230.467,207.066L236.467,207.039L230.467,207.066ZM230.477,209.316L224.478,209.343L230.477,209.316ZM231.121,213.816L225.346,215.442L231.121,213.816ZM232.388,218.316L238.163,216.69L232.388,218.316ZM234.006,222.816L228.509,225.221L234.006,222.816ZM235.975,227.316L241.472,224.91L235.975,227.316ZM236.811,231.816L230.824,231.421L236.811,231.816ZM236.662,234.066L242.649,234.461L236.662,234.066ZM236.514,236.316L230.527,235.921L236.514,236.316ZM236.155,240.816L230.181,240.257L236.155,240.816ZM235.734,245.316L229.76,244.757L235.734,245.316ZM235.036,258.816L229.17,257.552L235.036,258.816ZM234.066,263.316L239.931,264.58L234.066,263.316ZM233.378,267.816L227.402,267.277L233.378,267.816ZM232.972,272.316L238.948,272.854L232.972,272.316ZM232.34,276.816L226.446,275.69L232.34,276.816ZM231.48,281.316L237.374,282.441L231.48,281.316ZM232.401,285.816L227.257,288.904L232.401,285.816ZM235.103,290.316L240.247,287.227L235.103,290.316ZM236.134,294.816L242.075,295.659L236.134,294.816ZM235.495,299.316L229.555,298.472L235.495,299.316ZM235.438,303.816L241.398,303.121L235.438,303.816ZM235.962,308.316L230.002,309.01L235.962,308.316ZM235.749,312.816L229.878,311.575L235.749,312.816ZM234.797,317.316L240.668,318.557L234.797,317.316ZM234.482,321.816L228.497,322.242L234.482,321.816ZM234.642,324.066L240.627,323.639L234.642,324.066ZM234.803,326.316L228.818,326.742L234.803,326.316ZM234.275,330.816L240.012,332.571L234.275,330.816ZM232.898,335.316L227.161,333.561L232.898,335.316ZM232.945,339.816L227.242,341.679L232.945,339.816ZM233.681,342.066L239.384,340.202L233.681,342.066ZM234.416,344.316L240.119,342.452L234.416,344.316ZM234.728,348.816L240.624,349.926L234.728,348.816ZM234.304,351.067L228.408,349.957L234.304,351.067ZM233.88,353.318L227.984,352.208L233.88,353.318ZM232.881,357.726L238.678,359.274L232.881,357.726ZM232.305,359.883L226.508,358.336L232.305,359.883ZM231.729,362.041L225.932,360.493L231.729,362.041ZM229.948,366.023L234.955,369.329L229.948,366.023ZM228.743,367.848L233.75,371.154L228.743,367.848ZM227.538,369.673L222.531,366.366L227.538,369.673ZM226.175,374.111L232.164,374.473L226.175,374.111ZM226.017,376.725L220.028,376.363L226.017,376.725ZM225.859,379.338L231.848,379.7L225.859,379.338ZM224.062,383.741L219.638,379.688L224.062,383.741ZM220.784,387.32L216.36,383.267L220.784,387.32ZM216.89,390.008L214.668,384.435L216.89,390.008ZM214.635,390.907L216.857,396.48L214.635,390.907ZM212.38,391.806L210.158,386.232L212.38,391.806ZM207.694,392.478L208.252,386.504L207.694,392.478ZM202.832,392.023L202.274,397.997L202.832,392.023ZM198.231,391.628L197.768,397.61L198.231,391.628ZM196.061,391.46L196.525,385.478L196.061,391.46ZM193.891,391.292L194.355,385.31L193.891,391.292ZM189.471,391.145L189.528,397.144L189.471,391.145ZM184.971,391.187L184.915,385.187L184.971,391.187ZM180.471,392.172L178.109,386.657L180.471,392.172ZM175.971,394.1L178.334,399.615L175.971,394.1ZM171.471,395.036L171.398,401.036L171.471,395.036ZM166.971,394.981L166.898,400.98L166.971,394.981ZM162.471,393.894L165.026,388.465L162.471,393.894ZM157.971,391.776L155.416,397.205L157.971,391.776ZM153.471,391.584L155.628,397.183L153.471,391.584ZM148.971,393.318L151.128,398.917L148.971,393.318ZM144.471,394.989L146.49,400.639L144.471,394.989ZM142.221,395.793L140.202,390.143L142.221,395.793ZM139.971,396.597L141.99,402.247L139.971,396.597ZM135.471,396.268L138.171,390.909L135.471,396.268ZM126.471,392.609L127.152,386.648L126.471,392.609ZM121.971,392.095L121.29,398.056L121.971,392.095ZM117.471,392.084L116.819,386.119L117.471,392.084ZM115.221,392.33L114.569,386.365L115.221,392.33ZM112.971,392.576L113.624,398.54L112.971,392.576ZM108.471,393.172L107.55,387.243L108.471,393.172ZM99.471,393.697L98.113,399.541L99.471,393.697ZM97.221,393.174L98.58,387.33L97.221,393.174ZM94.971,392.651L96.33,386.807L94.971,392.651ZM90.471,393.133L88.025,387.654L90.471,393.133ZM88.221,394.138L90.668,399.616L88.221,394.138ZM85.971,395.142L88.418,400.621L85.971,395.142ZM81.471,395.351L79.469,401.007L81.471,395.351ZM79.221,394.554L77.219,400.21L79.221,394.554ZM76.971,393.757L78.974,388.102L76.971,393.757ZM72.471,392.683L73.207,386.728L72.471,392.683ZM67.971,392.127L67.235,398.081L67.971,392.127ZM63.471,393.122L60.516,387.901L63.471,393.122ZM58.971,395.669L61.927,400.891L58.971,395.669ZM54.427,397.037L54.182,391.042L54.427,397.037ZM49.839,397.224L50.084,403.219L49.839,397.224ZM45.279,396.438L43.107,402.031L45.279,396.438ZM43.013,395.559L40.841,401.152L43.013,395.559ZM40.747,394.679L42.919,389.086L40.747,394.679ZM36.236,393.091L34.431,398.812L36.236,393.091ZM31.745,391.674L33.551,385.952L31.745,391.674ZM27.684,389.465L23.863,394.091L27.684,389.465ZM24.053,386.465L27.875,381.84L24.053,386.465ZM21.462,382.678L27.144,380.75L21.462,382.678ZM19.909,378.102L14.227,380.03L19.909,378.102ZM17.618,374.168L13.203,378.232L17.618,374.168ZM14.587,370.876L10.172,374.939L14.587,370.876ZM11.624,367.222L16.491,363.713L11.624,367.222ZM8.73,363.207L3.862,366.716L8.73,363.207ZM7.607,358.826L1.662,358.013L7.607,358.826ZM8.256,354.077L14.2,354.89L8.256,354.077ZM8.521,349.453L2.523,349.61L8.521,349.453ZM8.462,347.203L2.464,347.36L8.462,347.203ZM8.403,344.953L14.401,344.796L8.403,344.953ZM7.837,340.453L1.984,341.774L7.837,340.453ZM7.329,338.203L13.182,336.882L7.329,338.203ZM6.822,335.953L0.969,337.274L6.822,335.953ZM7.074,331.453L1.389,329.533L7.074,331.453ZM7.834,329.203L2.149,327.283L7.834,329.203ZM8.594,326.953L14.278,328.873L8.594,326.953ZM10.246,322.453L4.668,320.242L10.246,322.453ZM12.03,317.953L17.607,320.164L12.03,317.953ZM12.27,313.453L18.034,311.786L12.27,313.453ZM10.969,308.953L5.205,310.62L10.969,308.953ZM11.753,302.203L6.037,300.38L11.753,302.203ZM12.471,299.953L18.187,301.777L12.471,299.953ZM11.575,295.453L6.699,298.95L11.575,295.453ZM8.347,290.953L13.222,287.456L8.347,290.953ZM7.945,277.453L2.654,274.625L7.945,277.453ZM10.35,272.953L15.642,275.781L10.35,272.953ZM10.308,268.453L5.058,271.357L10.308,268.453ZM9.064,266.203L3.813,269.107L9.064,266.203ZM7.819,263.953L13.07,261.049L7.819,263.953ZM6.973,259.453L12.881,260.497L6.973,259.453ZM7.768,254.953L1.86,253.909L7.768,254.953ZM8.559,245.953L2.569,245.604L8.559,245.953ZM9.727,241.453L15.176,243.965L9.727,241.453ZM10.764,239.203L5.315,236.691L10.764,239.203ZM11.801,236.953L17.25,239.465L11.801,236.953ZM11.763,232.453L17.177,229.866L11.763,232.453ZM10.688,230.203L5.274,232.79L10.688,230.203ZM9.613,227.953L15.027,225.366L9.613,227.953ZM9.339,223.453L14.991,225.465L9.339,223.453ZM10.941,218.953L5.288,216.941L10.941,218.953ZM10.712,214.453L5.256,216.95L10.712,214.453ZM8.652,209.953L14.108,207.456L8.652,209.953ZM8.967,205.453L14.117,208.531L8.967,205.453ZM10.312,203.203L5.161,200.125L10.312,203.203ZM11.656,200.953L16.806,204.031L11.656,200.953ZM9.928,187.453L4.456,184.992L9.928,187.453ZM11.952,182.953L17.424,185.414L11.952,182.953ZM11.604,178.453L16.738,175.349L11.604,178.453ZM8.883,173.953L3.749,177.057L8.883,173.953ZM7.337,169.453L1.357,169.949L7.337,169.453ZM7.15,167.203L13.129,166.707L7.15,167.203ZM7.575,160.453L13.229,162.459L7.575,160.453ZM9.171,155.953L3.516,153.947L9.171,155.953ZM10.525,151.453L16.35,152.892L10.525,151.453ZM11.636,146.953L5.811,145.514L11.636,146.953ZM12.187,142.453L6.187,142.467L12.187,142.453ZM11.528,133.453L17.297,131.804L11.528,133.453ZM10.242,128.953L4.473,130.602L10.242,128.953ZM9.592,110.953L3.597,111.199L9.592,110.953ZM10.453,106.453L4.928,104.114L10.453,106.453ZM12.358,101.953L17.883,104.292L12.358,101.953ZM11.436,83.953L5.438,84.112L11.436,83.953ZM10.62,79.453L16.307,77.542L10.62,79.453ZM9.108,74.953L3.42,76.864L9.108,74.953ZM10.438,65.953L4.705,64.181L10.438,65.953ZM10.153,61.453L4.652,63.849L10.153,61.453ZM9.343,47.958L3.621,46.151L9.343,47.958ZM11.784,34.69L7.683,30.31L11.784,34.69ZM13.558,33.03L17.658,37.41L13.558,33.03ZM15.331,31.37L11.231,26.99L15.331,31.37ZM19.343,23.071L13.658,21.154L19.343,23.071ZM21.611,19.025L16.994,15.193L21.611,19.025ZM23.133,17.191L18.517,13.359L23.133,17.191ZM24.656,15.357L20.039,11.525L24.656,15.357ZM32.881,11.07L30.82,5.436L32.881,11.07ZM37.367,9.655L35.827,3.856L37.367,9.655ZM41.869,8.459L40.329,2.66L41.869,8.459ZM52.103,9.741L50.226,15.44L52.103,9.741ZM54.353,10.482L52.476,16.181L54.726,16.922L56.603,11.223L58.479,5.524L56.229,4.783L54.353,10.482ZM56.603,11.223L54.726,16.922C57.8,17.934 60.914,17.634 63.73,16.261L61.103,10.868L58.475,5.474C58.397,5.512 58.353,5.525 58.343,5.528C58.338,5.529 58.339,5.529 58.346,5.527C58.354,5.526 58.365,5.524 58.38,5.523C58.395,5.522 58.412,5.521 58.429,5.522C58.445,5.522 58.46,5.523 58.473,5.525C58.485,5.526 58.493,5.528 58.495,5.529C58.497,5.529 58.492,5.528 58.479,5.524L56.603,11.223ZM61.103,10.868L63.73,16.261L65.98,15.165L63.353,9.771L60.725,4.377L58.475,5.474L61.103,10.868ZM63.353,9.771L65.98,15.165L68.23,14.069L65.603,8.675L62.975,3.281L60.725,4.377L63.353,9.771ZM65.603,8.675L68.23,14.069C68.303,14.033 68.341,14.023 68.344,14.022C68.346,14.021 68.325,14.027 68.285,14.03C68.245,14.033 68.206,14.031 68.174,14.027C68.143,14.023 68.136,14.018 68.158,14.026L70.103,8.35L72.047,2.673C68.96,1.616 65.818,1.896 62.975,3.281L65.603,8.675ZM70.103,8.35L68.158,14.026L70.408,14.797L72.353,9.12L74.297,3.444L72.047,2.673L70.103,8.35ZM72.353,9.12L70.408,14.797L72.658,15.567L74.603,9.891L76.547,4.215L74.297,3.444L72.353,9.12ZM74.603,9.891L72.658,15.567C75.213,16.442 77.882,16.587 80.528,15.939L79.103,10.111L77.677,4.283C77.323,4.37 76.992,4.367 76.547,4.215L74.603,9.891ZM79.103,10.111L80.528,15.939L82.778,15.389L79.927,3.733L77.677,4.283L79.103,10.111ZM79.927,3.733L82.778,15.389L85.028,14.839L83.603,9.01L82.177,3.182L79.927,3.733ZM83.603,9.01L85.028,14.839C85.424,14.742 85.791,14.746 86.256,14.897L88.103,9.188L89.949,3.479C87.414,2.659 84.781,2.545 82.177,3.182L83.603,9.01ZM88.103,9.188L86.256,14.897L88.506,15.624L90.353,9.915L92.199,4.207L89.949,3.479L88.103,9.188ZM90.353,9.915L88.506,15.624L90.756,16.352L92.603,10.643L94.449,4.934L92.199,4.207L90.353,9.915ZM92.603,10.643L90.756,16.352C94.239,17.478 97.613,16.736 100.395,14.909L97.103,9.894L93.81,4.878C93.634,4.994 93.659,4.936 93.867,4.901C93.967,4.884 94.081,4.878 94.197,4.888C94.312,4.897 94.398,4.918 94.449,4.934L92.603,10.643ZM97.103,9.894L100.395,14.909L102.645,13.432L99.353,8.417L96.06,3.401L93.81,4.878L97.103,9.894ZM99.353,8.417L102.645,13.432L104.895,11.955L101.603,6.939L98.31,1.924L96.06,3.401L99.353,8.417ZM101.603,6.939L104.895,11.955C104.874,11.97 104.517,12.185 103.905,12.191C103.29,12.196 102.916,11.984 102.872,11.956L106.103,6.9L109.333,1.844C107.789,0.857 105.915,0.173 103.8,0.191C101.688,0.21 99.831,0.925 98.31,1.924L101.603,6.939ZM106.103,6.9L102.872,11.956L105.122,13.393L108.353,8.337L111.583,3.281L109.333,1.844L106.103,6.9ZM108.353,8.337L105.122,13.393L107.372,14.831L110.603,9.775L113.833,4.719L111.583,3.281L108.353,8.337ZM110.603,9.775L107.372,14.831C110.128,16.591 113.432,17.308 116.849,16.268L115.103,10.528L113.356,4.788C113.397,4.775 113.47,4.758 113.568,4.751C113.666,4.745 113.761,4.75 113.843,4.764C114.014,4.793 114.016,4.836 113.833,4.719L110.603,9.775ZM115.103,10.528L116.849,16.268L119.099,15.583L117.353,9.843L115.606,4.103L113.356,4.788L115.103,10.528ZM117.353,9.843L119.099,15.583L121.349,14.899L119.603,9.159L117.856,3.418L115.606,4.103L117.353,9.843ZM119.603,9.159L121.349,14.899C122.459,14.561 123.54,14.355 124.599,14.267L124.103,8.287L123.606,2.308C121.665,2.469 119.746,2.843 117.856,3.418L119.603,9.159ZM124.103,8.287L124.599,14.267L126.849,14.08L126.353,8.1L125.856,2.121L123.606,2.308L124.103,8.287ZM126.353,8.1L126.849,14.08L129.099,13.893L128.603,7.914L128.106,1.934L125.856,2.121L126.353,8.1ZM128.603,7.914L129.099,13.893C129.578,13.853 130.127,13.917 130.817,14.201L133.103,8.654L135.388,3.106C133.078,2.154 130.627,1.725 128.106,1.934L128.603,7.914ZM133.103,8.654L130.817,14.201L133.067,15.128L135.353,9.581L137.638,4.033L135.388,3.106L133.103,8.654ZM135.353,9.581L133.067,15.128L135.317,16.055L137.603,10.508L139.888,4.96L137.638,4.033L135.353,9.581ZM137.603,10.508L135.317,16.055C138.433,17.339 141.704,17.2 144.693,15.77L142.103,10.358L139.512,4.946C139.465,4.968 139.458,4.966 139.49,4.958C139.523,4.95 139.579,4.939 139.653,4.937C139.726,4.934 139.793,4.941 139.844,4.951C139.893,4.96 139.909,4.969 139.888,4.96L137.603,10.508ZM142.103,10.358L144.693,15.77L146.943,14.693L144.353,9.281L141.762,3.869L139.512,4.946L142.103,10.358ZM144.353,9.281L146.943,14.693L149.193,13.616L146.603,8.204L144.012,2.792L141.762,3.869L144.353,9.281ZM146.603,8.204L149.193,13.616C149.723,13.362 150.02,13.365 150.223,13.395L151.103,7.46L151.982,1.525C149.185,1.111 146.482,1.609 144.012,2.792L146.603,8.204ZM151.103,7.46L150.223,13.395L152.473,13.729L153.353,7.794L154.232,1.859L151.982,1.525L151.103,7.46ZM153.353,7.794L152.473,13.729L154.723,14.063L155.603,8.127L156.482,2.192L154.232,1.859L153.353,7.794ZM155.603,8.127L154.723,14.063C155.952,14.245 157.191,14.514 158.443,14.874L160.103,9.109L161.762,3.343C160.014,2.839 158.253,2.455 156.482,2.192L155.603,8.127ZM160.103,9.109L158.443,14.874L160.693,15.522L162.353,9.756L164.012,3.99L161.762,3.343L160.103,9.109ZM162.353,9.756L160.693,15.522L162.943,16.17L164.603,10.404L166.262,4.638L164.012,3.99L162.353,9.756ZM164.603,10.404L162.943,16.17C165.869,17.012 168.815,16.744 171.532,15.542L169.103,10.055L166.673,4.569C166.49,4.65 166.402,4.657 166.389,4.658C166.378,4.659 166.369,4.659 166.355,4.658C166.341,4.656 166.312,4.652 166.262,4.638L164.603,10.404ZM169.103,10.055L171.532,15.542L173.782,14.545L171.353,9.059L168.923,3.573L166.673,4.569L169.103,10.055ZM171.353,9.059L173.782,14.545L176.032,13.549L173.603,8.063L171.173,2.576L168.923,3.573L171.353,9.059ZM173.603,8.063L176.032,13.549C176.215,13.468 176.301,13.461 176.313,13.46C176.323,13.46 176.332,13.46 176.345,13.461C176.358,13.462 176.388,13.466 176.437,13.481L178.103,7.716L179.768,1.952C176.84,1.106 173.892,1.373 171.173,2.576L173.603,8.063ZM178.103,7.716L176.437,13.481L178.687,14.131L180.353,8.367L182.018,2.602L179.768,1.952L178.103,7.716ZM180.353,8.367L178.687,14.131L180.937,14.781L182.603,9.017L184.268,3.253L182.018,2.602L180.353,8.367ZM182.603,9.017L180.937,14.781C182.457,15.22 183.975,15.65 185.491,16.071L187.095,10.289L188.7,4.508C187.225,4.099 185.748,3.68 184.268,3.253L182.603,9.017ZM187.095,10.289L185.491,16.071L187.733,16.693L189.338,10.912L190.943,5.13L188.7,4.508L187.095,10.289ZM189.338,10.912L187.733,16.693L189.976,17.316L191.581,11.534L193.185,5.753L190.943,5.13L189.338,10.912ZM191.581,11.534L189.976,17.316C191.771,17.814 193.557,18.158 195.325,18.325L195.89,12.352L196.455,6.379C195.468,6.285 194.38,6.084 193.185,5.753L191.581,11.534ZM195.89,12.352L195.325,18.325L197.392,18.521L197.957,12.547L198.522,6.574L196.455,6.379L195.89,12.352ZM197.957,12.547L197.392,18.521L199.459,18.716L200.024,12.743L200.589,6.769L198.522,6.574L197.957,12.547ZM200.024,12.743L199.459,18.716C200.779,18.841 202.137,18.989 203.535,19.16L204.265,13.205L204.995,7.249C203.494,7.065 202.025,6.905 200.589,6.769L200.024,12.743ZM204.265,13.205L203.535,19.16L205.71,19.427L206.44,13.471L207.17,7.516L204.995,7.249L204.265,13.205ZM206.44,13.471L205.71,19.427L207.884,19.694L208.615,13.738L209.345,7.783L207.17,7.516L206.44,13.471ZM208.615,13.738L207.884,19.694C208.351,19.751 208.728,19.898 209.101,20.162L212.57,15.267L216.04,10.372C214.038,8.953 211.778,8.081 209.345,7.783L208.615,13.738ZM212.57,15.267L209.101,20.162L210.882,21.425L214.352,16.53L217.821,11.634L216.04,10.372L212.57,15.267ZM214.352,16.53L210.882,21.425L212.663,22.687L216.133,17.792L219.602,12.897L217.821,11.634L214.352,16.53ZM216.133,17.792L212.663,22.687C214.125,23.723 215.7,24.655 217.377,25.491L220.055,20.122L222.732,14.753C221.555,14.165 220.516,13.544 219.602,12.897L216.133,17.792ZM220.055,20.122L217.377,25.491L219.518,26.559L222.195,21.19L224.873,15.82L222.732,14.753L220.055,20.122ZM222.195,21.19L219.518,26.559L221.658,27.626L224.336,22.257L227.014,16.888L224.873,15.82L222.195,21.19ZM224.336,22.257L221.658,27.626C221.477,27.536 221.082,27.268 220.776,26.749C220.484,26.256 220.483,25.89 220.483,25.911L232.483,25.881C232.479,24.188 232.118,22.358 231.111,20.652C230.089,18.92 228.623,17.69 227.014,16.888L224.336,22.257ZM232.483,25.881L220.483,25.911L220.489,28.483L232.489,28.453L232.483,25.881ZM232.489,28.453L220.489,28.483L220.496,31.054L232.496,31.025L232.489,28.453ZM232.496,31.025L220.496,31.054C220.505,34.836 222.296,37.975 225.218,40.081L228.726,35.214L232.235,30.347C232.118,30.263 232.226,30.311 232.349,30.541C232.406,30.648 232.447,30.759 232.471,30.86C232.495,30.959 232.496,31.019 232.496,31.025ZM228.726,35.214L225.218,40.081L227.442,41.685L230.951,36.817L234.459,31.95L232.235,30.347L228.726,35.214ZM230.951,36.817L227.442,41.685L229.666,43.288L233.175,38.42L236.683,33.553L234.459,31.95L230.951,36.817ZM233.175,38.42L229.666,43.288C229.825,43.402 229.7,43.353 229.548,43.073C229.474,42.935 229.413,42.779 229.376,42.614C229.338,42.451 229.331,42.32 229.334,42.239L235.331,42.409L241.329,42.579C241.44,38.68 239.5,35.584 236.683,33.553L233.175,38.42ZM235.331,42.409L229.334,42.239L229.266,44.624L235.264,44.795L241.261,44.965L241.329,42.579L235.331,42.409ZM235.264,44.795L229.266,44.624L229.198,47.01L235.196,47.18L241.194,47.35L241.261,44.965L235.264,44.795ZM235.196,47.18L229.198,47.01C229.18,47.645 229.023,48.312 228.635,49.062L233.966,51.816L239.297,54.569C240.459,52.319 241.121,49.896 241.194,47.35L235.196,47.18ZM233.966,51.816L228.635,49.062L227.473,51.312L232.804,54.066L238.134,56.819L239.297,54.569L233.966,51.816ZM232.804,54.066L227.473,51.312L226.311,53.562L231.641,56.316L236.972,59.069L238.134,56.819L232.804,54.066ZM231.641,56.316L226.311,53.562C224.462,57.141 224.866,60.955 226.959,64.123L231.965,60.816L236.972,57.508C236.933,57.449 237.093,57.674 237.126,58.135C237.16,58.617 237.028,58.962 236.972,59.069L231.641,56.316ZM231.965,60.816L226.959,64.123L228.446,66.373L233.452,63.066L238.458,59.758L236.972,57.508L231.965,60.816ZM233.452,63.066L228.446,66.373L229.932,68.623L234.938,65.316L239.945,62.008L238.458,59.758L233.452,63.066ZM234.938,65.316L229.932,68.623C230.063,68.821 230.023,68.83 229.992,68.663C229.977,68.583 229.969,68.486 229.975,68.383C229.98,68.281 229.997,68.202 230.011,68.152L235.776,69.816L241.54,71.479C242.537,68.026 241.741,64.727 239.945,62.008L234.938,65.316ZM235.776,69.816L230.011,68.152L229.362,70.402L235.126,72.066L240.891,73.729L241.54,71.479L235.776,69.816ZM235.126,72.066L229.362,70.402L228.712,72.652L234.477,74.316L240.242,75.979L240.891,73.729L235.126,72.066ZM234.477,74.316L228.712,72.652C227.994,75.141 227.929,77.7 228.54,80.225L234.372,78.816L240.204,77.406C240.089,76.931 240.094,76.49 240.242,75.979L234.477,74.316ZM234.372,78.816L228.54,80.225L229.084,82.475L234.916,81.066L240.748,79.656L240.204,77.406L234.372,78.816ZM234.916,81.066L229.084,82.475L229.627,84.725L235.459,83.316L241.291,81.906L240.748,79.656L234.916,81.066ZM235.459,83.316L229.627,84.725C229.879,85.768 229.997,86.785 229.992,87.786L235.992,87.816L241.992,87.845C242.002,85.846 241.765,83.863 241.291,81.906L235.459,83.316ZM235.992,87.816L229.992,87.786L229.981,90.036L235.981,90.066L241.981,90.095L241.992,87.845L235.992,87.816ZM235.981,90.066L229.981,90.036L229.97,92.286L235.97,92.316L241.97,92.345L241.981,90.095L235.981,90.066ZM235.97,92.316L229.97,92.286C229.963,93.839 229.976,95.393 230.009,96.946L242.007,96.686C241.975,95.239 241.963,93.792 241.97,92.345L235.97,92.316ZM242.007,96.686L230.009,96.946L230.058,99.196L236.057,99.066L242.055,98.936L242.007,96.686ZM236.057,99.066L230.058,99.196L230.107,101.446L236.106,101.316L242.104,101.186L242.055,98.936L236.057,99.066ZM236.106,101.316L230.107,101.446C230.143,103.097 230.241,104.748 230.402,106.398L236.374,105.816L242.345,105.234C242.214,103.883 242.133,102.534 242.104,101.186L236.106,101.316ZM236.374,105.816L230.402,106.398L230.621,108.648L236.593,108.066L242.564,107.484L242.345,105.234L236.374,105.816ZM236.593,108.066L230.621,108.648L230.84,110.898L236.812,110.316L242.784,109.734L242.564,107.484L236.593,108.066ZM236.812,110.316L230.84,110.898C230.849,110.991 230.869,111.262 230.536,111.847L235.75,114.816L240.964,117.784C242.339,115.37 243.067,112.641 242.784,109.734L236.812,110.316ZM235.75,114.816L230.536,111.847L229.255,114.097L234.469,117.066L239.683,120.034L240.964,117.784L235.75,114.816ZM234.469,117.066L229.255,114.097L227.974,116.347L233.188,119.316L238.402,122.284L239.683,120.034L234.469,117.066ZM233.188,119.316L227.974,116.347C226.554,118.84 225.86,121.679 226.299,124.683L232.236,123.816L238.173,122.948C238.167,122.908 238.166,122.872 238.179,122.808C238.195,122.735 238.243,122.563 238.402,122.284L233.188,119.316ZM232.236,123.816L226.299,124.683L226.627,126.933L232.564,126.066L238.501,125.198L238.173,122.948L232.236,123.816ZM232.564,126.066L226.627,126.933L226.956,129.183L232.893,128.316L238.83,127.448L238.501,125.198L232.564,126.066ZM232.893,128.316L226.956,129.183C227.045,129.791 227.007,130.411 226.801,131.102L232.551,132.816L238.302,134.529C238.99,132.221 239.18,129.84 238.83,127.448L232.893,128.316ZM232.551,132.816L226.801,131.102L226.131,133.352L231.881,135.066L237.631,136.779L238.302,134.529L232.551,132.816ZM231.881,135.066L226.131,133.352L225.46,135.602L231.21,137.316L236.96,139.029L237.631,136.779L231.881,135.066ZM231.21,137.316L225.46,135.602C224.49,138.857 225.047,142.051 226.637,144.811L231.836,141.816L237.035,138.82C236.983,138.73 236.964,138.68 236.961,138.67C236.958,138.662 236.967,138.687 236.974,138.739C236.982,138.793 236.984,138.854 236.979,138.916C236.974,138.977 236.964,139.017 236.96,139.029L231.21,137.316ZM231.836,141.816L226.637,144.811L227.934,147.061L233.133,144.066L238.331,141.07L237.035,138.82L231.836,141.816ZM233.133,144.066L227.934,147.061L229.23,149.311L234.429,146.316L239.628,143.32L238.331,141.07L233.133,144.066ZM234.429,146.316L229.23,149.311C229.233,149.316 229.196,149.252 229.158,149.122C229.119,148.988 229.088,148.814 229.086,148.612C229.083,148.175 229.216,147.907 229.23,147.882L234.464,150.816L239.698,153.749C241.581,150.39 241.539,146.637 239.628,143.32L234.429,146.316ZM234.464,150.816L229.23,147.882L227.969,150.132L233.203,153.066L238.437,155.999L239.698,153.749L234.464,150.816ZM233.203,153.066L227.969,150.132L226.708,152.382L231.942,155.316L237.175,158.249L238.437,155.999L233.203,153.066ZM231.942,155.316L226.708,152.382C225.818,153.969 225.274,155.827 225.373,157.858C225.472,159.873 226.182,161.645 227.15,163.115L232.161,159.816L237.173,156.517C237.153,156.487 237.334,156.758 237.359,157.273C237.385,157.804 237.224,158.162 237.175,158.249L231.942,155.316ZM232.161,159.816L227.15,163.115L228.631,165.365L233.643,162.066L238.654,158.767L237.173,156.517L232.161,159.816ZM233.643,162.066L228.631,165.365L230.112,167.615L235.124,164.316L240.135,161.017L238.654,158.767L233.643,162.066ZM235.124,164.316L230.112,167.615C230.25,167.825 230.223,167.855 230.196,167.717C230.183,167.65 230.175,167.567 230.178,167.476C230.181,167.384 230.195,167.312 230.207,167.266L236.003,168.816L241.8,170.365C242.714,166.945 241.901,163.7 240.135,161.017L235.124,164.316ZM236.003,168.816L230.207,167.266L229.606,169.516L235.402,171.066L241.199,172.615L241.8,170.365L236.003,168.816ZM235.402,171.066L229.606,169.516L229.004,171.766L234.801,173.316L240.597,174.865L241.199,172.615L235.402,171.066ZM234.801,173.316L229.004,171.766C228.597,173.291 228.2,174.817 227.813,176.342L233.629,177.816L239.446,179.289C239.819,177.815 240.203,176.34 240.597,174.865L234.801,173.316ZM233.629,177.816L227.813,176.342L227.243,178.592L233.059,180.066L238.875,181.539L239.446,179.289L233.629,177.816ZM233.059,180.066L227.243,178.592L226.673,180.842L232.489,182.316L238.305,183.789L238.875,181.539L233.059,180.066ZM232.489,182.316L226.673,180.842C226.008,183.465 226.115,186.122 226.95,188.678L232.654,186.816L238.357,184.953C238.212,184.51 238.21,184.166 238.305,183.789L232.489,182.316ZM232.654,186.816L226.95,188.678L227.685,190.928L233.389,189.066L239.092,187.203L238.357,184.953L232.654,186.816ZM233.389,189.066L227.685,190.928L228.42,193.178L234.123,191.316L239.827,189.453L239.092,187.203L233.389,189.066ZM234.123,191.316L228.42,193.178C228.424,193.19 228.425,193.195 228.424,193.192C228.423,193.19 228.422,193.182 228.42,193.17C228.419,193.157 228.418,193.142 228.417,193.125C228.417,193.108 228.417,193.092 228.419,193.077C228.42,193.062 228.422,193.05 228.423,193.043C228.424,193.036 228.425,193.035 228.423,193.041C228.42,193.052 228.406,193.096 228.368,193.175L233.755,195.816L239.143,198.456C240.521,195.644 240.832,192.532 239.827,189.453L234.123,191.316ZM233.755,195.816L228.368,193.175L227.265,195.425L232.653,198.066L238.04,200.706L239.143,198.456L233.755,195.816ZM232.653,198.066L227.265,195.425L226.162,197.675L231.55,200.316L236.937,202.956L238.04,200.706L232.653,198.066ZM231.55,200.316L226.162,197.675C225.067,199.91 224.446,202.318 224.457,204.843L230.457,204.816L236.457,204.789C236.455,204.314 236.562,203.721 236.937,202.956L231.55,200.316ZM230.457,204.816L224.457,204.843L224.467,207.093L230.467,207.066L236.467,207.039L236.457,204.789L230.457,204.816ZM230.467,207.066L224.467,207.093L224.478,209.343L230.477,209.316L236.477,209.289L236.467,207.039L230.467,207.066ZM230.477,209.316L224.478,209.343C224.487,211.404 224.782,213.441 225.346,215.442L231.121,213.816L236.897,212.19C236.615,211.19 236.482,210.227 236.477,209.289L230.477,209.316ZM231.121,213.816L225.346,215.442L225.979,217.692L231.754,216.066L237.53,214.44L236.897,212.19L231.121,213.816ZM231.754,216.066L225.979,217.692L226.612,219.942L232.388,218.316L238.163,216.69L237.53,214.44L231.754,216.066ZM232.388,218.316L226.612,219.942C227.113,221.72 227.747,223.48 228.509,225.221L234.006,222.816L239.503,220.41C238.951,219.151 238.507,217.911 238.163,216.69L232.388,218.316ZM234.006,222.816L228.509,225.221L229.493,227.471L234.99,225.066L240.487,222.66L239.503,220.41L234.006,222.816ZM234.99,225.066L229.493,227.471L230.478,229.721L235.975,227.316L241.472,224.91L240.487,222.66L234.99,225.066ZM235.975,227.316L230.478,229.721C230.784,230.42 230.854,230.963 230.824,231.421L236.811,231.816L242.798,232.211C242.966,229.668 242.478,227.211 241.472,224.91L235.975,227.316ZM236.811,231.816L230.824,231.421L230.675,233.671L236.662,234.066L242.649,234.461L242.798,232.211L236.811,231.816ZM236.662,234.066L230.675,233.671L230.527,235.921L236.514,236.316L242.501,236.711L242.649,234.461L236.662,234.066ZM236.514,236.316L230.527,235.921C230.431,237.366 230.316,238.811 230.181,240.257L236.155,240.816L242.129,241.374C242.274,239.82 242.398,238.265 242.501,236.711L236.514,236.316ZM236.155,240.816L230.181,240.257L229.971,242.507L235.945,243.066L241.918,243.624L242.129,241.374L236.155,240.816ZM235.945,243.066L229.971,242.507L229.76,244.757L235.734,245.316L241.708,245.874L241.918,243.624L235.945,243.066ZM235.734,245.316L229.76,244.757C229.603,246.441 229.523,248.127 229.523,249.814L241.523,249.818C241.523,248.504 241.585,247.19 241.708,245.874L235.734,245.316ZM241.523,249.818L229.523,249.814L229.522,252.064L241.522,252.068L241.523,249.818ZM241.522,252.068L229.522,252.064L229.521,254.314L241.521,254.318L241.522,252.068ZM241.521,254.318L229.521,254.314C229.521,255.38 229.406,256.457 229.17,257.552L235.036,258.816L240.901,260.08C241.312,258.174 241.521,256.252 241.521,254.318ZM235.036,258.816L229.17,257.552L228.685,259.802L234.551,261.066L240.416,262.33L240.901,260.08L235.036,258.816ZM234.551,261.066L228.685,259.802L228.201,262.052L234.066,263.316L239.931,264.58L240.416,262.33L234.551,261.066ZM234.066,263.316L228.201,262.052C227.827,263.786 227.56,265.529 227.402,267.277L233.378,267.816L239.354,268.354C239.467,267.103 239.659,265.845 239.931,264.58L234.066,263.316ZM233.378,267.816L227.402,267.277L227.2,269.527L233.175,270.066L239.151,270.604L239.354,268.354L233.378,267.816ZM233.175,270.066L227.2,269.527L226.997,271.777L232.972,272.316L238.948,272.854L239.151,270.604L233.175,270.066ZM232.972,272.316L226.997,271.777C226.879,273.077 226.696,274.381 226.446,275.69L232.34,276.816L238.233,277.941C238.556,276.25 238.795,274.554 238.948,272.854L232.972,272.316ZM232.34,276.816L226.446,275.69L226.017,277.94L231.91,279.066L237.803,280.191L238.233,277.941L232.34,276.816ZM231.91,279.066L226.017,277.94L225.587,280.19L231.48,281.316L237.374,282.441L237.803,280.191L231.91,279.066ZM231.48,281.316L225.587,280.19C224.983,283.349 225.715,286.336 227.257,288.904L232.401,285.816L237.545,282.727C237.47,282.602 237.427,282.509 237.403,282.45C237.38,282.392 237.374,282.364 237.374,282.363C237.374,282.362 237.376,282.376 237.376,282.4C237.377,282.41 237.376,282.42 237.375,282.428C237.375,282.432 237.375,282.436 237.374,282.438L237.374,282.441L231.48,281.316ZM232.401,285.816L227.257,288.904L228.608,291.154L233.752,288.066L238.896,284.977L237.545,282.727L232.401,285.816ZM233.752,288.066L228.608,291.154L229.959,293.404L235.103,290.316L240.247,287.227L238.896,284.977L233.752,288.066ZM235.103,290.316L229.959,293.404C230.127,293.685 230.175,293.85 230.188,293.906C230.198,293.951 230.195,293.961 230.194,293.972L236.134,294.816L242.075,295.659C242.51,292.59 241.741,289.716 240.247,287.227L235.103,290.316ZM236.134,294.816L230.194,293.972L229.874,296.222L235.815,297.066L241.755,297.909L242.075,295.659L236.134,294.816ZM235.815,297.066L229.874,296.222L229.555,298.472L235.495,299.316L241.436,300.159L241.755,297.909L235.815,297.066ZM235.495,299.316L229.555,298.472C229.27,300.48 229.244,302.497 229.478,304.51L235.438,303.816L241.398,303.121C241.283,302.134 241.295,301.151 241.436,300.159L235.495,299.316ZM235.438,303.816L229.478,304.51L229.74,306.76L235.7,306.066L241.66,305.371L241.398,303.121L235.438,303.816ZM235.7,306.066L229.74,306.76L230.002,309.01L235.962,308.316L241.922,307.621L241.66,305.371L235.7,306.066ZM235.962,308.316L230.002,309.01C230.101,309.854 230.063,310.701 229.878,311.575L235.749,312.816L241.619,314.057C242.068,311.93 242.173,309.777 241.922,307.621L235.962,308.316ZM235.749,312.816L229.878,311.575L229.403,313.825L235.273,315.066L241.143,316.307L241.619,314.057L235.749,312.816ZM235.273,315.066L229.403,313.825L228.927,316.075L234.797,317.316L240.668,318.557L241.143,316.307L235.273,315.066ZM234.797,317.316L228.927,316.075C228.496,318.112 228.35,320.173 228.497,322.242L234.482,321.816L240.467,321.389C240.4,320.458 240.464,319.52 240.668,318.557L234.797,317.316ZM234.482,321.816L228.497,322.242L228.658,324.492L234.642,324.066L240.627,323.639L240.467,321.389L234.482,321.816ZM234.642,324.066L228.658,324.492L228.818,326.742L234.803,326.316L240.787,325.889L240.627,323.639L234.642,324.066ZM234.803,326.316L228.818,326.742C228.87,327.474 228.79,328.236 228.537,329.061L234.275,330.816L240.012,332.571C240.678,330.396 240.949,328.157 240.787,325.889L234.803,326.316ZM234.275,330.816L228.537,329.061L227.849,331.311L233.587,333.066L239.324,334.821L240.012,332.571L234.275,330.816ZM233.587,333.066L227.849,331.311L227.161,333.561L232.898,335.316L238.636,337.071L239.324,334.821L233.587,333.066ZM232.898,335.316L227.161,333.561C226.338,336.249 226.371,339.013 227.242,341.679L232.945,339.816L238.649,337.952C238.54,337.618 238.541,337.382 238.636,337.071L232.898,335.316ZM232.945,339.816L227.242,341.679L227.978,343.929L233.681,342.066L239.384,340.202L238.649,337.952L232.945,339.816ZM233.681,342.066L227.978,343.929L228.713,346.179L234.416,344.316L240.119,342.452L239.384,340.202L233.681,342.066ZM234.416,344.316L228.713,346.179C228.901,346.754 228.921,347.232 228.831,347.707L234.728,348.816L240.624,349.926C241.1,347.4 240.912,344.878 240.119,342.452L234.416,344.316ZM234.728,348.816L228.831,347.707L228.408,349.957L234.304,351.067L240.201,352.177L240.624,349.926L234.728,348.816ZM234.304,351.067L228.408,349.957L227.984,352.208L233.88,353.318L239.777,354.428L240.201,352.177L234.304,351.067ZM233.88,353.318L227.984,352.208C227.729,353.565 227.428,354.889 227.084,356.178L232.881,357.726L238.678,359.274C239.101,357.687 239.467,356.072 239.777,354.428L233.88,353.318ZM232.881,357.726L227.084,356.178L226.508,358.336L232.305,359.883L238.102,361.431L238.678,359.274L232.881,357.726ZM232.305,359.883L226.508,358.336L225.932,360.493L231.729,362.041L237.526,363.588L238.102,361.431L232.305,359.883ZM231.729,362.041L225.932,360.493C225.711,361.32 225.38,362.051 224.941,362.717L234.955,369.329C236.122,367.561 236.979,365.638 237.526,363.588L231.729,362.041ZM234.955,369.329L224.941,362.717L223.736,364.542L233.75,371.154L234.955,369.329ZM233.75,371.154L223.736,364.542L222.531,366.366L227.538,369.673L232.545,372.979L233.75,371.154ZM227.538,369.673L222.531,366.366C221.043,368.62 220.342,371.164 220.186,373.749L226.175,374.111L232.164,374.473C232.218,373.574 232.426,373.159 232.545,372.979L227.538,369.673ZM226.175,374.111L220.186,373.749L220.028,376.363L226.017,376.725L232.006,377.086L232.164,374.473L226.175,374.111ZM226.017,376.725L220.028,376.363L219.87,378.976L225.859,379.338L231.848,379.7L232.006,377.086L226.017,376.725ZM225.859,379.338L219.87,378.976C219.841,379.461 219.725,379.592 219.638,379.688L224.062,383.741L228.487,387.793C230.584,385.503 231.667,382.699 231.848,379.7L225.859,379.338ZM224.062,383.741L219.638,379.688L217.999,381.478L222.423,385.53L226.848,389.583L228.487,387.793L224.062,383.741ZM222.423,385.53L217.999,381.478L216.36,383.267L220.784,387.32L225.209,391.372L226.848,389.583L222.423,385.53ZM220.784,387.32L216.36,383.267C215.878,383.793 215.333,384.17 214.668,384.435L216.89,390.008L219.112,395.582C221.454,394.648 223.505,393.232 225.209,391.372L220.784,387.32ZM216.89,390.008L214.668,384.435L212.413,385.333L214.635,390.907L216.857,396.48L219.112,395.582L216.89,390.008ZM214.635,390.907L212.413,385.333L210.158,386.232L212.38,391.806L214.601,397.379L216.857,396.48L214.635,390.907ZM212.38,391.806L210.158,386.232C209.542,386.478 208.933,386.567 208.252,386.504L207.694,392.478L207.135,398.452C209.696,398.691 212.211,398.332 214.601,397.379L212.38,391.806ZM207.694,392.478L208.252,386.504L205.821,386.277L205.263,392.251L204.705,398.224L207.135,398.452L207.694,392.478ZM205.263,392.251L205.821,386.277L203.391,386.049L202.832,392.023L202.274,397.997L204.705,398.224L205.263,392.251ZM202.832,392.023L203.391,386.049C201.742,385.895 200.177,385.761 198.695,385.646L198.231,391.628L197.768,397.61C199.179,397.719 200.681,397.848 202.274,397.997L202.832,392.023ZM198.231,391.628L198.695,385.646L196.525,385.478L196.061,391.46L195.598,397.442L197.768,397.61L198.231,391.628ZM196.061,391.46L196.525,385.478L194.355,385.31L193.891,391.292L193.428,397.274L195.598,397.442L196.061,391.46ZM193.891,391.292L194.355,385.31C192.729,385.184 191.082,385.129 189.415,385.145L189.471,391.145L189.528,397.144C190.86,397.132 192.16,397.175 193.428,397.274L193.891,391.292ZM189.471,391.145L189.415,385.145L187.165,385.166L187.221,391.166L187.278,397.166L189.528,397.144L189.471,391.145ZM187.221,391.166L187.165,385.166L184.915,385.187L184.971,391.187L185.028,397.187L187.278,397.166L187.221,391.166ZM184.971,391.187L184.915,385.187C182.554,385.21 180.273,385.73 178.109,386.657L180.471,392.172L182.834,397.687C183.669,397.329 184.388,397.193 185.028,397.187L184.971,391.187ZM180.471,392.172L178.109,386.657L175.859,387.621L178.221,393.136L180.584,398.651L182.834,397.687L180.471,392.172ZM178.221,393.136L175.859,387.621L173.609,388.585L175.971,394.1L178.334,399.615L180.584,398.651L178.221,393.136ZM175.971,394.1L173.609,388.585C172.81,388.927 172.137,389.044 171.545,389.036L171.471,395.036L171.398,401.036C173.806,401.065 176.133,400.558 178.334,399.615L175.971,394.1ZM171.471,395.036L171.545,389.036L169.295,389.009L169.221,395.008L169.148,401.008L171.398,401.036L171.471,395.036ZM169.221,395.008L169.295,389.009L167.045,388.981L166.971,394.981L166.898,400.98L169.148,401.008L169.221,395.008ZM166.971,394.981L167.045,388.981C166.49,388.974 165.832,388.845 165.026,388.465L162.471,393.894L159.916,399.323C162.111,400.356 164.453,400.95 166.898,400.98L166.971,394.981ZM162.471,393.894L165.026,388.465L162.776,387.406L160.221,392.835L157.666,398.264L159.916,399.323L162.471,393.894ZM160.221,392.835L162.776,387.406L160.526,386.348L157.971,391.776L155.416,397.205L157.666,398.264L160.221,392.835ZM157.971,391.776L160.526,386.348C157.597,384.969 154.395,384.798 151.314,385.986L153.471,391.584L155.628,397.183C155.654,397.173 155.646,397.179 155.609,397.185C155.571,397.192 155.521,397.196 155.465,397.193C155.41,397.191 155.371,397.183 155.355,397.179C155.339,397.175 155.359,397.178 155.416,397.205L157.971,391.776ZM153.471,391.584L151.314,385.986L149.064,386.852L151.221,392.451L153.378,398.05L155.628,397.183L153.471,391.584ZM151.221,392.451L149.064,386.852L146.814,387.719L148.971,393.318L151.128,398.917L153.378,398.05L151.221,392.451ZM148.971,393.318L146.814,387.719C145.36,388.28 143.906,388.82 142.452,389.339L144.471,394.989L146.49,400.639C148.037,400.086 149.583,399.512 151.128,398.917L148.971,393.318ZM144.471,394.989L142.452,389.339L140.202,390.143L142.221,395.793L144.24,401.443L146.49,400.639L144.471,394.989ZM142.221,395.793L140.202,390.143L137.952,390.947L139.971,396.597L141.99,402.247L144.24,401.443L142.221,395.793ZM139.971,396.597L137.952,390.947C137.939,390.952 137.957,390.944 138.002,390.938C138.049,390.931 138.104,390.929 138.16,390.933C138.215,390.937 138.25,390.946 138.26,390.949C138.268,390.951 138.239,390.943 138.171,390.909L135.471,396.268L132.771,401.626C135.649,403.076 138.852,403.369 141.99,402.247L139.971,396.597ZM135.471,396.268L138.171,390.909L135.921,389.776L133.221,395.134L130.521,400.492L132.771,401.626L135.471,396.268ZM133.221,395.134L135.921,389.776L133.671,388.642L130.971,394L128.271,399.358L130.521,400.492L133.221,395.134ZM130.971,394L133.671,388.642C131.61,387.603 129.43,386.908 127.152,386.648L126.471,392.609L125.79,398.57C126.512,398.653 127.333,398.885 128.271,399.358L130.971,394ZM126.471,392.609L127.152,386.648L124.902,386.391L124.221,392.352L123.54,398.313L125.79,398.57L126.471,392.609ZM124.221,392.352L124.902,386.391L122.652,386.134L121.971,392.095L121.29,398.056L123.54,398.313L124.221,392.352ZM121.971,392.095L122.652,386.134C120.71,385.912 118.762,385.907 116.819,386.119L117.471,392.084L118.124,398.048C119.18,397.933 120.233,397.935 121.29,398.056L121.971,392.095ZM117.471,392.084L116.819,386.119L114.569,386.365L115.221,392.33L115.874,398.294L118.124,398.048L117.471,392.084ZM115.221,392.33L114.569,386.365L112.319,386.611L112.971,392.576L113.624,398.54L115.874,398.294L115.221,392.33ZM112.971,392.576L112.319,386.611C110.729,386.785 109.139,386.996 107.55,387.243L108.471,393.172L109.392,399.1C110.804,398.881 112.214,398.694 113.624,398.54L112.971,392.576ZM108.471,393.172L107.55,387.243L105.3,387.592L106.221,393.521L107.142,399.45L109.392,399.1L108.471,393.172ZM106.221,393.521L105.3,387.592L103.05,387.942L103.971,393.871L104.892,399.8L107.142,399.45L106.221,393.521ZM103.971,393.871L103.05,387.942C102.32,388.055 101.593,388.031 100.83,387.853L99.471,393.697L98.113,399.541C100.349,400.061 102.623,400.152 104.892,399.8L103.971,393.871ZM99.471,393.697L100.83,387.853L98.58,387.33L97.221,393.174L95.863,399.018L98.113,399.541L99.471,393.697ZM97.221,393.174L98.58,387.33L96.33,386.807L94.971,392.651L93.613,398.495L95.863,399.018L97.221,393.174ZM94.971,392.651L96.33,386.807C93.468,386.142 90.634,386.489 88.025,387.654L90.471,393.133L92.918,398.611C93.308,398.437 93.475,398.463 93.613,398.495L94.971,392.651ZM90.471,393.133L88.025,387.654L85.775,388.659L88.221,394.138L90.668,399.616L92.918,398.611L90.471,393.133ZM88.221,394.138L85.775,388.659L83.525,389.664L85.971,395.142L88.418,400.621L90.668,399.616L88.221,394.138ZM85.971,395.142L83.525,389.664C83.455,389.695 83.418,389.705 83.411,389.707C83.407,389.708 83.408,389.707 83.415,389.706C83.422,389.705 83.432,389.704 83.444,389.703L83.481,389.703C83.493,389.704 83.503,389.705 83.509,389.706C83.522,389.708 83.512,389.708 83.474,389.695L81.471,395.351L79.469,401.007C82.471,402.07 85.563,401.896 88.418,400.621L85.971,395.142ZM81.471,395.351L83.474,389.695L81.224,388.898L79.221,394.554L77.219,400.21L79.469,401.007L81.471,395.351ZM79.221,394.554L81.224,388.898L78.974,388.102L76.971,393.757L74.969,399.413L77.219,400.21L79.221,394.554ZM76.971,393.757L78.974,388.102C77.085,387.433 75.161,386.97 73.207,386.728L72.471,392.683L71.735,398.637C72.781,398.767 73.857,399.02 74.969,399.413L76.971,393.757ZM72.471,392.683L73.207,386.728L70.957,386.45L70.221,392.405L69.485,398.359L71.735,398.637L72.471,392.683ZM70.221,392.405L70.957,386.45L68.707,386.172L67.971,392.127L67.235,398.081L69.485,398.359L70.221,392.405ZM67.971,392.127L68.707,386.172C65.755,385.807 62.972,386.51 60.516,387.901L63.471,393.122L66.427,398.344C66.971,398.036 67.188,398.075 67.235,398.081L67.971,392.127ZM63.471,393.122L60.516,387.901L58.266,389.174L61.221,394.396L64.177,399.617L66.427,398.344L63.471,393.122ZM61.221,394.396L58.266,389.174L56.016,390.448L58.971,395.669L61.927,400.891L64.177,399.617L61.221,394.396ZM58.971,395.669L56.016,390.448C55.239,390.887 54.645,391.023 54.182,391.042L54.427,397.037L54.672,403.032C57.268,402.926 59.703,402.15 61.927,400.891L58.971,395.669ZM54.427,397.037L54.182,391.042L51.888,391.135L52.133,397.13L52.378,403.125L54.672,403.032L54.427,397.037ZM52.133,397.13L51.888,391.135L49.594,391.229L49.839,397.224L50.084,403.219L52.378,403.125L52.133,397.13ZM49.839,397.224L49.594,391.229C48.937,391.256 48.237,391.151 47.45,390.845L45.279,396.438L43.107,402.031C45.341,402.899 47.682,403.317 50.084,403.219L49.839,397.224ZM45.279,396.438L47.45,390.845L45.185,389.965L43.013,395.559L40.841,401.152L43.107,402.031L45.279,396.438ZM43.013,395.559L45.185,389.965L42.919,389.086L40.747,394.679L38.576,400.272L40.841,401.152L43.013,395.559ZM40.747,394.679L42.919,389.086C41.292,388.454 39.666,387.881 38.042,387.369L36.236,393.091L34.431,398.812C35.8,399.245 37.182,399.731 38.576,400.272L40.747,394.679ZM36.236,393.091L38.042,387.369L35.796,386.66L33.991,392.382L32.185,398.104L34.431,398.812L36.236,393.091ZM33.991,392.382L35.796,386.66L33.551,385.952L31.745,391.674L29.94,397.395L32.185,398.104L33.991,392.382ZM31.745,391.674L33.551,385.952C32.79,385.712 32.121,385.348 31.506,384.84L27.684,389.465L23.863,394.091C25.668,395.582 27.706,396.691 29.94,397.395L31.745,391.674ZM27.684,389.465L31.506,384.84L29.691,383.34L25.869,387.965L22.047,392.591L23.863,394.091L27.684,389.465ZM25.869,387.965L29.691,383.34L27.875,381.84L24.053,386.465L20.232,391.091L22.047,392.591L25.869,387.965ZM24.053,386.465L27.875,381.84C27.546,381.568 27.313,381.249 27.144,380.75L21.462,382.678L15.78,384.606C16.645,387.156 18.14,389.363 20.232,391.091L24.053,386.465ZM21.462,382.678L27.144,380.75L26.367,378.462L20.685,380.39L15.004,382.318L15.78,384.606L21.462,382.678ZM20.685,380.39L26.367,378.462L25.591,376.174L19.909,378.102L14.227,380.03L15.004,382.318L20.685,380.39ZM19.909,378.102L25.591,376.174C24.826,373.921 23.653,371.866 22.032,370.105L17.618,374.168L13.203,378.232C13.603,378.666 13.957,379.234 14.227,380.03L19.909,378.102ZM17.618,374.168L22.032,370.105L20.517,368.459L16.102,372.522L11.688,376.586L13.203,378.232L17.618,374.168ZM16.102,372.522L20.517,368.459L19.001,366.812L14.587,370.876L10.172,374.939L11.688,376.586L16.102,372.522ZM14.587,370.876L19.001,366.812C18.169,365.908 17.331,364.878 16.491,363.713L11.624,367.222L6.757,370.731C7.847,372.243 8.984,373.649 10.172,374.939L14.587,370.876ZM11.624,367.222L16.491,363.713L15.044,361.706L10.177,365.215L5.31,368.723L6.757,370.731L11.624,367.222ZM10.177,365.215L15.044,361.706L13.597,359.698L8.73,363.207L3.862,366.716L5.31,368.723L10.177,365.215ZM8.73,363.207L13.597,359.698C13.551,359.635 13.533,359.599 13.529,359.591C13.526,359.584 13.531,359.594 13.537,359.618C13.544,359.643 13.547,359.665 13.547,359.679C13.548,359.691 13.546,359.679 13.552,359.638L7.607,358.826L1.662,358.013C1.23,361.176 2.03,364.174 3.862,366.716L8.73,363.207ZM7.607,358.826L13.552,359.638L13.876,357.264L7.931,356.451L1.986,355.639L1.662,358.013L7.607,358.826ZM7.931,356.451L13.876,357.264L14.2,354.89L8.256,354.077L2.311,353.265L1.986,355.639L7.931,356.451ZM8.256,354.077L14.2,354.89C14.458,353.006 14.567,351.14 14.519,349.296L8.521,349.453L2.523,349.61C2.553,350.766 2.486,351.983 2.311,353.265L8.256,354.077ZM8.521,349.453L14.519,349.296L14.46,347.046L8.462,347.203L2.464,347.36L2.523,349.61L8.521,349.453ZM8.462,347.203L14.46,347.046L14.401,344.796L8.403,344.953L2.406,345.11L2.464,347.36L8.462,347.203ZM8.403,344.953L14.401,344.796C14.352,342.895 14.112,341.005 13.69,339.132L7.837,340.453L1.984,341.774C2.238,342.901 2.377,344.011 2.406,345.11L8.403,344.953ZM7.837,340.453L13.69,339.132L13.182,336.882L7.329,338.203L1.476,339.524L1.984,341.774L7.837,340.453ZM7.329,338.203L13.182,336.882L12.674,334.632L6.822,335.953L0.969,337.274L1.476,339.524L7.329,338.203ZM6.822,335.953L12.674,334.632C12.586,334.241 12.593,333.861 12.758,333.373L7.074,331.453L1.389,329.533C0.541,332.045 0.38,334.666 0.969,337.274L6.822,335.953ZM7.074,331.453L12.758,333.373L13.518,331.123L7.834,329.203L2.149,327.283L1.389,329.533L7.074,331.453ZM7.834,329.203L13.518,331.123L14.278,328.873L8.594,326.953L2.909,325.033L2.149,327.283L7.834,329.203ZM8.594,326.953L14.278,328.873C14.751,327.473 15.266,326.07 15.824,324.664L10.246,322.453L4.668,320.242C4.036,321.836 3.45,323.433 2.909,325.033L8.594,326.953ZM10.246,322.453L15.824,324.664L16.716,322.414L11.138,320.203L5.56,317.992L4.668,320.242L10.246,322.453ZM11.138,320.203L16.716,322.414L17.607,320.164L12.03,317.953L6.452,315.742L5.56,317.992L11.138,320.203ZM12.03,317.953L17.607,320.164C18.674,317.472 18.851,314.609 18.034,311.786L12.27,313.453L6.507,315.12C6.558,315.298 6.574,315.434 6.452,315.742L12.03,317.953ZM12.27,313.453L18.034,311.786L17.383,309.536L11.62,311.203L5.856,312.87L6.507,315.12L12.27,313.453ZM11.62,311.203L17.383,309.536L16.732,307.286L10.969,308.953L5.205,310.62L5.856,312.87L11.62,311.203ZM10.969,308.953L16.732,307.286C16.632,306.938 16.632,306.653 16.752,306.277L11.036,304.453L5.319,302.63C4.483,305.253 4.438,307.968 5.205,310.62L10.969,308.953ZM11.036,304.453L16.752,306.277L17.47,304.027L11.753,302.203L6.037,300.38L5.319,302.63L11.036,304.453ZM11.753,302.203L17.47,304.027L18.187,301.777L12.471,299.953L6.755,298.13L6.037,300.38L11.753,302.203ZM12.471,299.953L18.187,301.777C19.346,298.143 18.415,294.695 16.45,291.956L11.575,295.453L6.699,298.95C6.841,299.147 6.77,299.118 6.721,298.875C6.698,298.755 6.686,298.616 6.695,298.469C6.704,298.323 6.73,298.207 6.755,298.13L12.471,299.953ZM11.575,295.453L16.45,291.956L14.836,289.706L9.961,293.203L5.085,296.7L6.699,298.95L11.575,295.453ZM9.961,293.203L14.836,289.706L13.222,287.456L8.347,290.953L3.471,294.45L5.085,296.7L9.961,293.203ZM8.347,290.953L13.222,287.456C12.959,287.089 12.839,286.83 12.786,286.68C12.736,286.541 12.735,286.476 12.735,286.46L6.735,286.453L0.735,286.446C0.732,289.469 1.834,292.168 3.471,294.45L8.347,290.953ZM6.735,286.453L12.735,286.46L12.738,284.21L6.738,284.203L0.738,284.196L0.735,286.446L6.735,286.453ZM6.738,284.203L12.738,284.21L12.741,281.96L6.74,281.953L0.74,281.946L0.738,284.196L6.738,284.203ZM6.74,281.953L12.741,281.96C12.741,281.569 12.837,281.031 13.237,280.281L7.945,277.453L2.654,274.625C1.451,276.876 0.744,279.337 0.74,281.946L6.74,281.953ZM7.945,277.453L13.237,280.281L14.44,278.031L9.148,275.203L3.856,272.375L2.654,274.625L7.945,277.453ZM9.148,275.203L14.44,278.031L15.642,275.781L5.059,270.125L3.856,272.375L9.148,275.203ZM5.059,270.125L15.642,275.781C17.412,272.47 17.363,268.812 15.559,265.549L10.308,268.453L5.058,271.357C5.06,271.361 4.945,271.14 4.941,270.759C4.94,270.583 4.963,270.428 4.995,270.305C5.027,270.185 5.059,270.124 5.059,270.125ZM10.308,268.453L15.559,265.549L14.314,263.299L9.064,266.203L3.813,269.107L5.058,271.357L10.308,268.453ZM9.064,266.203L14.314,263.299L13.07,261.049L7.819,263.953L2.569,266.857L3.813,269.107L9.064,266.203ZM7.819,263.953L13.07,261.049C12.927,260.791 12.891,260.643 12.882,260.594C12.874,260.553 12.875,260.533 12.881,260.497L1.064,258.409C0.53,261.431 1.163,264.315 2.569,266.857L7.819,263.953ZM1.064,258.409L12.881,260.497L13.279,258.247L7.37,257.203L1.462,256.159L1.064,258.409ZM7.37,257.203L13.279,258.247L13.676,255.997L7.768,254.953L1.86,253.909L1.462,256.159L7.37,257.203ZM7.768,254.953L13.676,255.997C13.982,254.27 14.185,252.538 14.286,250.802L8.297,250.453L2.307,250.104C2.233,251.368 2.085,252.636 1.86,253.909L7.768,254.953ZM8.297,250.453L14.286,250.802L14.417,248.552L8.428,248.203L2.438,247.854L2.307,250.104L8.297,250.453ZM8.428,248.203L14.417,248.552L14.548,246.302L8.559,245.953L2.569,245.604L2.438,247.854L8.428,248.203ZM8.559,245.953L14.548,246.302C14.588,245.621 14.767,244.852 15.176,243.965L9.727,241.453L4.278,238.941C3.304,241.054 2.704,243.285 2.569,245.604L8.559,245.953ZM9.727,241.453L15.176,243.965L16.213,241.715L10.764,239.203L5.315,236.691L4.278,238.941L9.727,241.453ZM10.764,239.203L16.213,241.715L17.25,239.465L11.801,236.953L6.352,234.441L5.315,236.691L10.764,239.203ZM11.801,236.953L17.25,239.465C18.694,236.332 18.657,232.964 17.177,229.866L11.763,232.453L6.35,235.04C6.364,235.069 6.353,235.053 6.339,234.996C6.324,234.936 6.311,234.853 6.311,234.754C6.31,234.655 6.321,234.569 6.336,234.504C6.35,234.441 6.363,234.419 6.352,234.441L11.801,236.953ZM11.763,232.453L17.177,229.866L16.102,227.616L10.688,230.203L5.274,232.79L6.35,235.04L11.763,232.453ZM10.688,230.203L16.102,227.616L15.027,225.366L9.613,227.953L4.199,230.54L5.274,232.79L10.688,230.203ZM9.613,227.953L15.027,225.366C14.994,225.298 14.986,225.266 14.986,225.267C14.987,225.27 14.993,225.296 14.996,225.338C14.998,225.381 14.996,225.422 14.991,225.454C14.987,225.485 14.982,225.49 14.991,225.465L9.339,223.453L3.686,221.441C2.591,224.517 2.828,227.671 4.199,230.54L9.613,227.953ZM9.339,223.453L14.991,225.465L15.792,223.215L10.14,221.203L4.487,219.191L3.686,221.441L9.339,223.453ZM10.14,221.203L15.792,223.215L16.593,220.965L10.941,218.953L5.288,216.941L4.487,219.191L10.14,221.203ZM10.941,218.953L16.593,220.965C17.672,217.936 17.478,214.819 16.168,211.956L10.712,214.453L5.256,216.95C5.288,217.019 5.297,217.053 5.297,217.057C5.298,217.059 5.297,217.055 5.295,217.046C5.294,217.036 5.293,217.023 5.292,217.008C5.291,216.992 5.291,216.976 5.292,216.961C5.293,216.945 5.294,216.933 5.295,216.923C5.297,216.914 5.298,216.91 5.297,216.912C5.297,216.914 5.294,216.924 5.288,216.941L10.941,218.953ZM10.712,214.453L16.168,211.956L15.138,209.706L9.682,212.203L4.226,214.7L5.256,216.95L10.712,214.453ZM9.682,212.203L15.138,209.706L14.108,207.456L8.652,209.953L3.196,212.45L4.226,214.7L9.682,212.203ZM8.652,209.953L14.108,207.456C14.141,207.528 14.225,207.776 14.201,208.122C14.178,208.453 14.074,208.604 14.117,208.531L8.967,205.453L3.816,202.375C1.978,205.451 1.632,209.032 3.196,212.45L8.652,209.953ZM8.967,205.453L14.117,208.531L15.462,206.281L10.312,203.203L5.161,200.125L3.816,202.375L8.967,205.453ZM10.312,203.203L15.462,206.281L16.806,204.031L11.656,200.953L6.506,197.875L5.161,200.125L10.312,203.203ZM11.656,200.953L16.806,204.031C18.64,200.964 18.994,197.39 17.443,193.973L11.98,196.453L6.516,198.933C6.483,198.86 6.4,198.614 6.425,198.273C6.448,197.947 6.551,197.8 6.506,197.875L11.656,200.953ZM11.98,196.453L17.443,193.973L16.422,191.723L10.959,194.203L5.495,196.683L6.516,198.933L11.98,196.453ZM10.959,194.203L16.422,191.723L15.401,189.473L9.937,191.953L4.474,194.433L5.495,196.683L10.959,194.203ZM9.937,191.953L15.401,189.473C15.386,189.441 15.393,189.449 15.404,189.495C15.415,189.542 15.424,189.61 15.424,189.691C15.425,189.772 15.415,189.84 15.404,189.889C15.394,189.936 15.386,189.945 15.4,189.914L9.928,187.453L4.456,184.992C3.073,188.067 3.082,191.366 4.474,194.433L9.937,191.953ZM9.928,187.453L15.4,189.914L16.412,187.664L10.94,185.203L5.468,182.742L4.456,184.992L9.928,187.453ZM10.94,185.203L16.412,187.664L17.424,185.414L11.952,182.953L6.48,180.492L5.468,182.742L10.94,185.203ZM11.952,182.953L17.424,185.414C18.968,181.981 18.586,178.405 16.738,175.349L11.604,178.453L6.469,181.557C6.517,181.637 6.414,181.493 6.389,181.166C6.362,180.823 6.444,180.571 6.48,180.492L11.952,182.953ZM11.604,178.453L16.738,175.349L15.378,173.099L10.243,176.203L5.109,179.307L6.469,181.557L11.604,178.453ZM10.243,176.203L15.378,173.099L14.018,170.849L8.883,173.953L3.749,177.057L5.109,179.307L10.243,176.203ZM8.883,173.953L14.018,170.849C13.512,170.011 13.352,169.394 13.316,168.957L7.337,169.453L1.357,169.949C1.57,172.512 2.441,174.895 3.749,177.057L8.883,173.953ZM7.337,169.453L13.316,168.957L13.129,166.707L7.15,167.203L1.17,167.699L1.357,169.949L7.337,169.453ZM7.15,167.203L13.129,166.707L12.943,164.457L6.963,164.953L0.984,165.449L1.17,167.699L7.15,167.203ZM6.963,164.953L12.943,164.457C12.893,163.853 12.965,163.204 13.229,162.459L7.575,160.453L1.92,158.447C1.12,160.702 0.785,163.053 0.984,165.449L6.963,164.953ZM7.575,160.453L13.229,162.459L14.028,160.209L8.373,158.203L2.718,156.197L1.92,158.447L7.575,160.453ZM8.373,158.203L14.028,160.209L14.826,157.959L9.171,155.953L3.516,153.947L2.718,156.197L8.373,158.203ZM9.171,155.953L14.826,157.959C15.422,156.278 15.93,154.589 16.35,152.892L10.525,151.453L4.7,150.014C4.378,151.317 3.984,152.628 3.516,153.947L9.171,155.953ZM10.525,151.453L16.35,152.892L16.905,150.642L11.08,149.203L5.256,147.764L4.7,150.014L10.525,151.453ZM11.08,149.203L16.905,150.642L17.461,148.392L11.636,146.953L5.811,145.514L5.256,147.764L11.08,149.203ZM11.636,146.953L17.461,148.392C17.945,146.431 18.191,144.444 18.187,142.44L12.187,142.453L6.187,142.467C6.189,143.463 6.068,144.475 5.811,145.514L11.636,146.953ZM12.187,142.453L18.187,142.44L18.182,140.19L12.182,140.203L6.182,140.217L6.187,142.467L12.187,142.453ZM12.182,140.203L18.182,140.19L18.177,137.94L12.177,137.953L6.177,137.967L6.182,140.217L12.182,140.203ZM12.177,137.953L18.177,137.94C18.172,135.865 17.872,133.814 17.297,131.804L11.528,133.453L5.76,135.102C6.043,136.092 6.175,137.042 6.177,137.967L12.177,137.953ZM11.528,133.453L17.297,131.804L16.654,129.554L10.885,131.203L5.116,132.852L5.76,135.102L11.528,133.453ZM10.885,131.203L16.654,129.554L16.011,127.304L10.242,128.953L4.473,130.602L5.116,132.852L10.885,131.203ZM10.242,128.953L16.011,127.304C15.745,126.374 15.638,125.491 15.664,124.633L9.666,124.453L3.669,124.273C3.605,126.415 3.881,128.532 4.473,130.602L10.242,128.953ZM9.666,124.453L15.664,124.633L15.731,122.383L3.736,122.023L3.669,124.273L9.666,124.453ZM3.736,122.023L15.731,122.383L15.798,120.133L9.801,119.953L3.804,119.773L3.736,122.023ZM9.801,119.953L15.798,120.133C15.848,118.491 15.839,116.849 15.771,115.208L9.776,115.453L3.781,115.699C3.837,117.057 3.845,118.415 3.804,119.773L9.801,119.953ZM9.776,115.453L15.771,115.208L15.679,112.958L9.684,113.203L3.689,113.449L3.781,115.699L9.776,115.453ZM9.684,113.203L15.679,112.958L15.587,110.708L9.592,110.953L3.597,111.199L3.689,113.449L9.684,113.203ZM9.592,110.953L15.587,110.708C15.565,110.167 15.659,109.547 15.978,108.792L10.453,106.453L4.928,104.114C3.977,106.36 3.496,108.739 3.597,111.199L9.592,110.953ZM10.453,106.453L15.978,108.792L16.931,106.542L11.405,104.203L5.88,101.864L4.928,104.114L10.453,106.453ZM11.405,104.203L16.931,106.542L17.883,104.292L12.358,101.953L6.833,99.614L5.88,101.864L11.405,104.203ZM12.358,101.953L17.883,104.292C18.947,101.781 19.299,99.083 18.783,96.342L12.887,97.453L6.991,98.564C7.039,98.823 7.04,99.125 6.833,99.614L12.358,101.953ZM12.887,97.453L18.783,96.342L18.359,94.092L12.463,95.203L6.567,96.314L6.991,98.564L12.887,97.453ZM12.463,95.203L18.359,94.092L17.935,91.842L12.039,92.953L6.143,94.064L6.567,96.314L12.463,95.203ZM12.039,92.953L17.935,91.842C17.711,90.651 17.584,89.469 17.553,88.294L11.555,88.453L5.557,88.612C5.606,90.437 5.802,92.255 6.143,94.064L12.039,92.953ZM11.555,88.453L17.553,88.294L17.493,86.044L11.496,86.203L5.498,86.362L5.557,88.612L11.555,88.453ZM11.496,86.203L17.493,86.044L17.434,83.794L11.436,83.953L5.438,84.112L5.498,86.362L11.496,86.203ZM11.436,83.953L17.434,83.794C17.377,81.666 16.991,79.576 16.307,77.542L10.62,79.453L4.932,81.364C5.257,82.33 5.415,83.24 5.438,84.112L11.436,83.953ZM10.62,79.453L16.307,77.542L15.551,75.292L9.864,77.203L4.176,79.114L4.932,81.364L10.62,79.453ZM9.864,77.203L15.551,75.292L14.795,73.042L9.108,74.953L3.42,76.864L4.176,79.114L9.864,77.203ZM9.108,74.953L14.795,73.042C14.689,72.724 14.691,72.513 14.78,72.225L9.047,70.453L3.315,68.681C2.476,71.394 2.519,74.182 3.42,76.864L9.108,74.953ZM9.047,70.453L14.78,72.225L15.475,69.975L9.742,68.203L4.01,66.431L3.315,68.681L9.047,70.453ZM9.742,68.203L15.475,69.975L16.17,67.725L10.438,65.953L4.705,64.181L4.01,66.431L9.742,68.203ZM10.438,65.953L16.17,67.725C17.077,64.791 16.855,61.813 15.654,59.057L10.153,61.453L4.652,63.849C4.69,63.937 4.708,63.996 4.717,64.03C4.725,64.063 4.726,64.079 4.726,64.082C4.726,64.084 4.727,64.088 4.726,64.096C4.724,64.105 4.72,64.133 4.705,64.181L10.438,65.953ZM10.153,61.453L15.654,59.057L14.674,56.807L9.173,59.203L3.672,61.599L4.652,63.849L10.153,61.453ZM9.173,59.203L14.674,56.807L13.694,54.557L8.193,56.953L2.692,59.349L3.672,61.599L9.173,59.203ZM8.193,56.953L13.694,54.557C13.657,54.472 13.64,54.415 13.632,54.385C13.628,54.369 13.627,54.359 13.626,54.353C13.625,54.347 13.625,54.344 13.625,54.344C13.625,54.344 13.625,54.344 13.625,54.344C13.625,54.345 13.625,54.344 13.625,54.34C13.626,54.334 13.629,54.309 13.644,54.261L7.923,52.455L2.201,50.648C1.273,53.589 1.486,56.58 2.692,59.349L8.193,56.953ZM7.923,52.455L13.644,54.261L14.354,52.013L8.633,50.206L2.911,48.4L2.201,50.648L7.923,52.455ZM8.633,50.206L14.354,52.013L15.064,49.764L9.343,47.958L3.621,46.151L2.911,48.4L8.633,50.206ZM9.343,47.958L15.064,49.764C15.724,47.677 16.052,45.529 16.042,43.342L10.042,43.37L4.042,43.397C4.047,44.33 3.909,45.241 3.621,46.151L9.343,47.958ZM10.042,43.37L16.042,43.342L16.032,41.003L10.032,41.03L4.032,41.057L4.042,43.397L10.042,43.37ZM10.032,41.03L16.032,41.003L16.021,38.663L10.021,38.69L4.021,38.718L4.032,41.057L10.032,41.03ZM10.021,38.69L16.021,38.663C16.021,38.656 16.022,38.686 16.01,38.744C15.998,38.803 15.977,38.871 15.947,38.941C15.916,39.009 15.885,39.059 15.865,39.086C15.847,39.112 15.847,39.106 15.884,39.071L11.784,34.69L7.683,30.31C5.335,32.509 4.006,35.418 4.021,38.718L10.021,38.69ZM11.784,34.69L15.884,39.071L17.658,37.41L13.558,33.03L9.457,28.65L7.683,30.31L11.784,34.69ZM13.558,33.03L17.658,37.41L19.432,35.75L15.331,31.37L11.231,26.99L9.457,28.65L13.558,33.03ZM15.331,31.37L19.432,35.75C21.308,33.994 22.709,31.867 23.536,29.414L17.851,27.497L12.165,25.58C11.998,26.077 11.72,26.532 11.231,26.99L15.331,31.37ZM17.851,27.497L23.536,29.414L24.282,27.201L18.597,25.284L12.912,23.367L12.165,25.58L17.851,27.497ZM18.597,25.284L24.282,27.201L25.029,24.988L19.343,23.071L13.658,21.154L12.912,23.367L18.597,25.284ZM19.343,23.071L25.029,24.988C25.286,24.226 25.674,23.524 26.228,22.857L21.611,19.025L16.994,15.193C15.519,16.971 14.396,18.966 13.658,21.154L19.343,23.071ZM21.611,19.025L26.228,22.857L27.75,21.023L23.133,17.191L18.517,13.359L16.994,15.193L21.611,19.025ZM23.133,17.191L27.75,21.023L29.273,19.189L24.656,15.357L20.039,11.525L18.517,13.359L23.133,17.191ZM24.656,15.357L29.273,19.189C29.611,18.781 29.982,18.52 30.474,18.34L28.412,12.705L26.351,7.07C23.863,7.981 21.73,9.487 20.039,11.525L24.656,15.357ZM28.412,12.705L30.474,18.34L32.708,17.523L30.647,11.888L28.585,6.253L26.351,7.07L28.412,12.705ZM30.647,11.888L32.708,17.523L34.943,16.705L32.881,11.07L30.82,5.436L28.585,6.253L30.647,11.888ZM32.881,11.07L34.943,16.705C36.265,16.221 37.586,15.805 38.907,15.454L35.827,3.856C34.146,4.302 32.477,4.829 30.82,5.436L32.881,11.07ZM35.827,3.856L38.907,15.454L41.158,14.856L39.618,9.057L38.078,3.258L35.827,3.856ZM39.618,9.057L41.158,14.856L43.409,14.258L41.869,8.459L40.329,2.66L38.078,3.258L39.618,9.057ZM41.869,8.459L43.409,14.258C43.565,14.217 43.411,14.285 43.045,14.232C42.632,14.171 42.187,13.988 41.821,13.698L45.554,9L49.286,4.302C46.449,2.048 43.111,1.921 40.329,2.66L41.869,8.459ZM45.554,9L41.821,13.698L43.254,14.836L46.987,10.138L50.719,5.44L49.286,4.302L45.554,9ZM46.987,10.138L43.254,14.836L44.687,15.974L48.419,11.276L52.152,6.579L50.719,5.44L46.987,10.138ZM48.419,11.276L44.687,15.974C45.05,16.262 45.487,16.585 45.975,16.876C46.385,17.12 47.222,17.583 48.325,17.802C49.464,18.028 51.949,18.148 53.99,16.121C55.755,14.37 55.853,12.263 55.853,11.561L43.853,11.561C43.853,11.144 43.891,9.239 45.536,7.606C47.458,5.698 49.763,5.853 50.663,6.032C51.528,6.204 52.066,6.536 52.118,6.567C52.248,6.644 52.267,6.67 52.152,6.579L48.419,11.276ZM43.853,11.561L55.853,11.561L55.853,10.707L43.853,10.707L43.853,11.561ZM43.853,10.707L55.853,10.707L55.853,9.854L43.853,9.854L43.853,10.707ZM43.853,9.854L55.853,9.854C55.853,11.159 55.341,12.917 53.767,14.191C52.46,15.249 51.137,15.37 50.716,15.391C49.911,15.431 49.576,15.226 50.226,15.44L52.103,9.741L53.979,4.042C53.129,3.762 51.669,3.328 50.115,3.406C49.318,3.446 47.714,3.653 46.219,4.862C44.458,6.287 43.853,8.264 43.853,9.854ZM52.103,9.741L50.226,15.44L52.476,16.181L54.353,10.482L56.229,4.783L53.979,4.042L52.103,9.741Z"
        style="fill:rgb(255,172,62);fill-rule:nonzero;" />
</svg>
