<svg width="82" height="68" viewBox="0 0 82 68" fill="none" xmlns="http://www.w3.org/2000/svg">
<path d="M7.45058e-08 44.5992C7.45058e-08 39.6659 1.33333 34.5325 4 29.1992C6.66667 23.7325 10.5333 18.4659 15.6 13.3992C20.8 8.19921 27.1333 3.73254 34.6 -0.000792027L35 0.599212C30.6 5.66588 26.9333 10.7325 24 15.7992C21.2 20.8659 19 25.6659 17.4 30.1992C23.5333 30.4659 28.6 32.3992 32.6 35.9992C36.7333 39.5992 38.8 44.1992 38.8 49.7992C38.8 54.8659 37.0667 59.1325 33.6 62.5992C30.1333 66.0659 25.7333 67.7992 20.4 67.7992C16.6667 67.7992 13.2667 66.7992 10.2 64.7992C7.13333 62.7992 4.66667 60.0659 2.8 56.5992C0.933333 52.9992 7.45058e-08 48.9992 7.45058e-08 44.5992ZM43 44.5992C43 39.6659 44.3333 34.5325 47 29.1992C49.6667 23.7325 53.5333 18.4659 58.6 13.3992C63.8 8.19921 70.1333 3.73254 77.6 -0.000792027L78 0.599212C73.6 5.66588 69.9333 10.7325 67 15.7992C64.2 20.8659 62 25.6659 60.4 30.1992C66.5333 30.4659 71.6 32.3992 75.6 35.9992C79.7333 39.5992 81.8 44.1992 81.8 49.7992C81.8 54.8659 80.0667 59.1325 76.6 62.5992C73.1333 66.0659 68.7333 67.7992 63.4 67.7992C59.6667 67.7992 56.2667 66.7992 53.2 64.7992C50.1333 62.7992 47.6667 60.0659 45.8 56.5992C43.9333 52.9992 43 48.9992 43 44.5992Z" fill="#FF5646"/>
</svg>
